G04 #@! TF.FileFunction,Legend,Bot*
%FSLAX46Y46*%
G04 Gerber Fmt 4.6, Leading zero omitted, Abs format (unit mm)*
G04 Created by KiCad (PCBNEW 4.0.7) date Wednesday, September 26, 2018 'PMt' 03:39:25 PM*
%MOMM*%
%LPD*%
G01*
G04 APERTURE LIST*
%ADD10C,0.100000*%
%ADD11C,0.187500*%
G04 APERTURE END LIST*
D10*
D11*
X164011429Y-87322429D02*
X163904286Y-87358143D01*
X163868571Y-87393857D01*
X163832857Y-87465286D01*
X163832857Y-87572429D01*
X163868571Y-87643857D01*
X163904286Y-87679571D01*
X163975714Y-87715286D01*
X164261429Y-87715286D01*
X164261429Y-86965286D01*
X164011429Y-86965286D01*
X163940000Y-87001000D01*
X163904286Y-87036714D01*
X163868571Y-87108143D01*
X163868571Y-87179571D01*
X163904286Y-87251000D01*
X163940000Y-87286714D01*
X164011429Y-87322429D01*
X164261429Y-87322429D01*
X163404286Y-87715286D02*
X163475714Y-87679571D01*
X163511429Y-87643857D01*
X163547143Y-87572429D01*
X163547143Y-87358143D01*
X163511429Y-87286714D01*
X163475714Y-87251000D01*
X163404286Y-87215286D01*
X163297143Y-87215286D01*
X163225714Y-87251000D01*
X163190000Y-87286714D01*
X163154286Y-87358143D01*
X163154286Y-87572429D01*
X163190000Y-87643857D01*
X163225714Y-87679571D01*
X163297143Y-87715286D01*
X163404286Y-87715286D01*
X162511429Y-87715286D02*
X162511429Y-87322429D01*
X162547143Y-87251000D01*
X162618572Y-87215286D01*
X162761429Y-87215286D01*
X162832858Y-87251000D01*
X162511429Y-87679571D02*
X162582858Y-87715286D01*
X162761429Y-87715286D01*
X162832858Y-87679571D01*
X162868572Y-87608143D01*
X162868572Y-87536714D01*
X162832858Y-87465286D01*
X162761429Y-87429571D01*
X162582858Y-87429571D01*
X162511429Y-87393857D01*
X162154287Y-87715286D02*
X162154287Y-87215286D01*
X162154287Y-87358143D02*
X162118572Y-87286714D01*
X162082858Y-87251000D01*
X162011429Y-87215286D01*
X161940001Y-87215286D01*
X161368572Y-87715286D02*
X161368572Y-86965286D01*
X161368572Y-87679571D02*
X161440001Y-87715286D01*
X161582858Y-87715286D01*
X161654286Y-87679571D01*
X161690001Y-87643857D01*
X161725715Y-87572429D01*
X161725715Y-87358143D01*
X161690001Y-87286714D01*
X161654286Y-87251000D01*
X161582858Y-87215286D01*
X161440001Y-87215286D01*
X161368572Y-87251000D01*
X160225715Y-88001000D02*
X160261429Y-87965286D01*
X160332858Y-87858143D01*
X160368572Y-87786714D01*
X160404286Y-87679571D01*
X160440001Y-87501000D01*
X160440001Y-87358143D01*
X160404286Y-87179571D01*
X160368572Y-87072429D01*
X160332858Y-87001000D01*
X160261429Y-86893857D01*
X160225715Y-86858143D01*
X159618572Y-87679571D02*
X159690001Y-87715286D01*
X159832858Y-87715286D01*
X159904286Y-87679571D01*
X159940001Y-87643857D01*
X159975715Y-87572429D01*
X159975715Y-87358143D01*
X159940001Y-87286714D01*
X159904286Y-87251000D01*
X159832858Y-87215286D01*
X159690001Y-87215286D01*
X159618572Y-87251000D01*
X159368572Y-88001000D02*
X159332858Y-87965286D01*
X159261429Y-87858143D01*
X159225715Y-87786714D01*
X159190001Y-87679571D01*
X159154286Y-87501000D01*
X159154286Y-87358143D01*
X159190001Y-87179571D01*
X159225715Y-87072429D01*
X159261429Y-87001000D01*
X159332858Y-86893857D01*
X159368572Y-86858143D01*
X158261429Y-87036714D02*
X158225715Y-87001000D01*
X158154286Y-86965286D01*
X157975715Y-86965286D01*
X157904286Y-87001000D01*
X157868572Y-87036714D01*
X157832857Y-87108143D01*
X157832857Y-87179571D01*
X157868572Y-87286714D01*
X158297143Y-87715286D01*
X157832857Y-87715286D01*
X157368571Y-86965286D02*
X157297143Y-86965286D01*
X157225714Y-87001000D01*
X157190000Y-87036714D01*
X157154286Y-87108143D01*
X157118571Y-87251000D01*
X157118571Y-87429571D01*
X157154286Y-87572429D01*
X157190000Y-87643857D01*
X157225714Y-87679571D01*
X157297143Y-87715286D01*
X157368571Y-87715286D01*
X157440000Y-87679571D01*
X157475714Y-87643857D01*
X157511429Y-87572429D01*
X157547143Y-87429571D01*
X157547143Y-87251000D01*
X157511429Y-87108143D01*
X157475714Y-87036714D01*
X157440000Y-87001000D01*
X157368571Y-86965286D01*
X156404285Y-87715286D02*
X156832857Y-87715286D01*
X156618571Y-87715286D02*
X156618571Y-86965286D01*
X156690000Y-87072429D01*
X156761428Y-87143857D01*
X156832857Y-87179571D01*
X155975714Y-87286714D02*
X156047142Y-87251000D01*
X156082857Y-87215286D01*
X156118571Y-87143857D01*
X156118571Y-87108143D01*
X156082857Y-87036714D01*
X156047142Y-87001000D01*
X155975714Y-86965286D01*
X155832857Y-86965286D01*
X155761428Y-87001000D01*
X155725714Y-87036714D01*
X155689999Y-87108143D01*
X155689999Y-87143857D01*
X155725714Y-87215286D01*
X155761428Y-87251000D01*
X155832857Y-87286714D01*
X155975714Y-87286714D01*
X156047142Y-87322429D01*
X156082857Y-87358143D01*
X156118571Y-87429571D01*
X156118571Y-87572429D01*
X156082857Y-87643857D01*
X156047142Y-87679571D01*
X155975714Y-87715286D01*
X155832857Y-87715286D01*
X155761428Y-87679571D01*
X155725714Y-87643857D01*
X155689999Y-87572429D01*
X155689999Y-87429571D01*
X155725714Y-87358143D01*
X155761428Y-87322429D01*
X155832857Y-87286714D01*
X154582856Y-86965286D02*
X154582856Y-87501000D01*
X154618570Y-87608143D01*
X154689999Y-87679571D01*
X154797142Y-87715286D01*
X154868570Y-87715286D01*
X153904284Y-87715286D02*
X153904284Y-87322429D01*
X153939998Y-87251000D01*
X154011427Y-87215286D01*
X154154284Y-87215286D01*
X154225713Y-87251000D01*
X153904284Y-87679571D02*
X153975713Y-87715286D01*
X154154284Y-87715286D01*
X154225713Y-87679571D01*
X154261427Y-87608143D01*
X154261427Y-87536714D01*
X154225713Y-87465286D01*
X154154284Y-87429571D01*
X153975713Y-87429571D01*
X153904284Y-87393857D01*
X153582856Y-87679571D02*
X153511427Y-87715286D01*
X153368570Y-87715286D01*
X153297142Y-87679571D01*
X153261427Y-87608143D01*
X153261427Y-87572429D01*
X153297142Y-87501000D01*
X153368570Y-87465286D01*
X153475713Y-87465286D01*
X153547142Y-87429571D01*
X153582856Y-87358143D01*
X153582856Y-87322429D01*
X153547142Y-87251000D01*
X153475713Y-87215286D01*
X153368570Y-87215286D01*
X153297142Y-87251000D01*
X152832856Y-87715286D02*
X152904284Y-87679571D01*
X152939999Y-87643857D01*
X152975713Y-87572429D01*
X152975713Y-87358143D01*
X152939999Y-87286714D01*
X152904284Y-87251000D01*
X152832856Y-87215286D01*
X152725713Y-87215286D01*
X152654284Y-87251000D01*
X152618570Y-87286714D01*
X152582856Y-87358143D01*
X152582856Y-87572429D01*
X152618570Y-87643857D01*
X152654284Y-87679571D01*
X152725713Y-87715286D01*
X152832856Y-87715286D01*
X152261428Y-87215286D02*
X152261428Y-87715286D01*
X152261428Y-87286714D02*
X152225713Y-87251000D01*
X152154285Y-87215286D01*
X152047142Y-87215286D01*
X151975713Y-87251000D01*
X151939999Y-87322429D01*
X151939999Y-87715286D01*
X150582856Y-87715286D02*
X150832856Y-87358143D01*
X151011428Y-87715286D02*
X151011428Y-86965286D01*
X150725713Y-86965286D01*
X150654285Y-87001000D01*
X150618570Y-87036714D01*
X150582856Y-87108143D01*
X150582856Y-87215286D01*
X150618570Y-87286714D01*
X150654285Y-87322429D01*
X150725713Y-87358143D01*
X151011428Y-87358143D01*
X150261428Y-87643857D02*
X150225713Y-87679571D01*
X150261428Y-87715286D01*
X150297142Y-87679571D01*
X150261428Y-87643857D01*
X150261428Y-87715286D01*
X149439998Y-86965286D02*
X149011427Y-86965286D01*
X149225713Y-87715286D02*
X149225713Y-86965286D01*
X148761427Y-87715286D02*
X148761427Y-86965286D01*
X148439998Y-87715286D02*
X148439998Y-87322429D01*
X148475712Y-87251000D01*
X148547141Y-87215286D01*
X148654284Y-87215286D01*
X148725712Y-87251000D01*
X148761427Y-87286714D01*
X147975713Y-87715286D02*
X148047141Y-87679571D01*
X148082856Y-87643857D01*
X148118570Y-87572429D01*
X148118570Y-87358143D01*
X148082856Y-87286714D01*
X148047141Y-87251000D01*
X147975713Y-87215286D01*
X147868570Y-87215286D01*
X147797141Y-87251000D01*
X147761427Y-87286714D01*
X147725713Y-87358143D01*
X147725713Y-87572429D01*
X147761427Y-87643857D01*
X147797141Y-87679571D01*
X147868570Y-87715286D01*
X147975713Y-87715286D01*
X147404285Y-87715286D02*
X147404285Y-87215286D01*
X147404285Y-87358143D02*
X147368570Y-87286714D01*
X147332856Y-87251000D01*
X147261427Y-87215286D01*
X147189999Y-87215286D01*
X146939999Y-87215286D02*
X146939999Y-87965286D01*
X146939999Y-87251000D02*
X146868570Y-87215286D01*
X146725713Y-87215286D01*
X146654284Y-87251000D01*
X146618570Y-87286714D01*
X146582856Y-87358143D01*
X146582856Y-87572429D01*
X146618570Y-87643857D01*
X146654284Y-87679571D01*
X146725713Y-87715286D01*
X146868570Y-87715286D01*
X146939999Y-87679571D01*
X145975713Y-87679571D02*
X146047142Y-87715286D01*
X146189999Y-87715286D01*
X146261428Y-87679571D01*
X146297142Y-87608143D01*
X146297142Y-87322429D01*
X146261428Y-87251000D01*
X146189999Y-87215286D01*
X146047142Y-87215286D01*
X145975713Y-87251000D01*
X145939999Y-87322429D01*
X145939999Y-87393857D01*
X146297142Y-87465286D01*
X145618571Y-87643857D02*
X145582856Y-87679571D01*
X145618571Y-87715286D01*
X145654285Y-87679571D01*
X145618571Y-87643857D01*
X145618571Y-87715286D01*
X162293141Y-81078179D02*
X162043141Y-81078179D01*
X161935998Y-81471036D02*
X162293141Y-81471036D01*
X162293141Y-80721036D01*
X161935998Y-80721036D01*
X161364570Y-81078179D02*
X161614570Y-81078179D01*
X161614570Y-81471036D02*
X161614570Y-80721036D01*
X161257427Y-80721036D01*
X160721713Y-81078179D02*
X160614570Y-81113893D01*
X160578855Y-81149607D01*
X160543141Y-81221036D01*
X160543141Y-81328179D01*
X160578855Y-81399607D01*
X160614570Y-81435321D01*
X160685998Y-81471036D01*
X160971713Y-81471036D01*
X160971713Y-80721036D01*
X160721713Y-80721036D01*
X160650284Y-80756750D01*
X160614570Y-80792464D01*
X160578855Y-80863893D01*
X160578855Y-80935321D01*
X160614570Y-81006750D01*
X160650284Y-81042464D01*
X160721713Y-81078179D01*
X160971713Y-81078179D01*
X160007427Y-81756750D02*
X160043141Y-81721036D01*
X160114570Y-81613893D01*
X160150284Y-81542464D01*
X160185998Y-81435321D01*
X160221713Y-81256750D01*
X160221713Y-81113893D01*
X160185998Y-80935321D01*
X160150284Y-80828179D01*
X160114570Y-80756750D01*
X160043141Y-80649607D01*
X160007427Y-80613893D01*
X159828855Y-80971036D02*
X159543141Y-80971036D01*
X159721713Y-80721036D02*
X159721713Y-81363893D01*
X159685998Y-81435321D01*
X159614570Y-81471036D01*
X159543141Y-81471036D01*
X159293142Y-81471036D02*
X159293142Y-80971036D01*
X159293142Y-81042464D02*
X159257427Y-81006750D01*
X159185999Y-80971036D01*
X159078856Y-80971036D01*
X159007427Y-81006750D01*
X158971713Y-81078179D01*
X158971713Y-81471036D01*
X158971713Y-81078179D02*
X158935999Y-81006750D01*
X158864570Y-80971036D01*
X158757427Y-80971036D01*
X158685999Y-81006750D01*
X158650284Y-81078179D01*
X158650284Y-81471036D01*
X158364570Y-81756750D02*
X158328856Y-81721036D01*
X158257427Y-81613893D01*
X158221713Y-81542464D01*
X158185999Y-81435321D01*
X158150284Y-81256750D01*
X158150284Y-81113893D01*
X158185999Y-80935321D01*
X158221713Y-80828179D01*
X158257427Y-80756750D01*
X158328856Y-80649607D01*
X158364570Y-80613893D01*
X156793141Y-81399607D02*
X156828855Y-81435321D01*
X156935998Y-81471036D01*
X157007427Y-81471036D01*
X157114570Y-81435321D01*
X157185998Y-81363893D01*
X157221713Y-81292464D01*
X157257427Y-81149607D01*
X157257427Y-81042464D01*
X157221713Y-80899607D01*
X157185998Y-80828179D01*
X157114570Y-80756750D01*
X157007427Y-80721036D01*
X156935998Y-80721036D01*
X156828855Y-80756750D01*
X156793141Y-80792464D01*
X156150284Y-81471036D02*
X156150284Y-81078179D01*
X156185998Y-81006750D01*
X156257427Y-80971036D01*
X156400284Y-80971036D01*
X156471713Y-81006750D01*
X156150284Y-81435321D02*
X156221713Y-81471036D01*
X156400284Y-81471036D01*
X156471713Y-81435321D01*
X156507427Y-81363893D01*
X156507427Y-81292464D01*
X156471713Y-81221036D01*
X156400284Y-81185321D01*
X156221713Y-81185321D01*
X156150284Y-81149607D01*
X155900284Y-80971036D02*
X155614570Y-80971036D01*
X155793142Y-80721036D02*
X155793142Y-81363893D01*
X155757427Y-81435321D01*
X155685999Y-81471036D01*
X155614570Y-81471036D01*
X155364571Y-81471036D02*
X155364571Y-80721036D01*
X155043142Y-81471036D02*
X155043142Y-81078179D01*
X155078856Y-81006750D01*
X155150285Y-80971036D01*
X155257428Y-80971036D01*
X155328856Y-81006750D01*
X155364571Y-81042464D01*
X154578857Y-81471036D02*
X154650285Y-81435321D01*
X154686000Y-81399607D01*
X154721714Y-81328179D01*
X154721714Y-81113893D01*
X154686000Y-81042464D01*
X154650285Y-81006750D01*
X154578857Y-80971036D01*
X154471714Y-80971036D01*
X154400285Y-81006750D01*
X154364571Y-81042464D01*
X154328857Y-81113893D01*
X154328857Y-81328179D01*
X154364571Y-81399607D01*
X154400285Y-81435321D01*
X154471714Y-81471036D01*
X154578857Y-81471036D01*
X153686000Y-81471036D02*
X153686000Y-80721036D01*
X153686000Y-81435321D02*
X153757429Y-81471036D01*
X153900286Y-81471036D01*
X153971714Y-81435321D01*
X154007429Y-81399607D01*
X154043143Y-81328179D01*
X154043143Y-81113893D01*
X154007429Y-81042464D01*
X153971714Y-81006750D01*
X153900286Y-80971036D01*
X153757429Y-80971036D01*
X153686000Y-81006750D01*
X153043143Y-81435321D02*
X153114572Y-81471036D01*
X153257429Y-81471036D01*
X153328858Y-81435321D01*
X153364572Y-81363893D01*
X153364572Y-81078179D01*
X153328858Y-81006750D01*
X153257429Y-80971036D01*
X153114572Y-80971036D01*
X153043143Y-81006750D01*
X153007429Y-81078179D01*
X153007429Y-81149607D01*
X153364572Y-81221036D01*
X151686000Y-81471036D02*
X151936000Y-81113893D01*
X152114572Y-81471036D02*
X152114572Y-80721036D01*
X151828857Y-80721036D01*
X151757429Y-80756750D01*
X151721714Y-80792464D01*
X151686000Y-80863893D01*
X151686000Y-80971036D01*
X151721714Y-81042464D01*
X151757429Y-81078179D01*
X151828857Y-81113893D01*
X152114572Y-81113893D01*
X151078857Y-81435321D02*
X151150286Y-81471036D01*
X151293143Y-81471036D01*
X151364572Y-81435321D01*
X151400286Y-81363893D01*
X151400286Y-81078179D01*
X151364572Y-81006750D01*
X151293143Y-80971036D01*
X151150286Y-80971036D01*
X151078857Y-81006750D01*
X151043143Y-81078179D01*
X151043143Y-81149607D01*
X151400286Y-81221036D01*
X150400286Y-80971036D02*
X150400286Y-81578179D01*
X150436000Y-81649607D01*
X150471715Y-81685321D01*
X150543143Y-81721036D01*
X150650286Y-81721036D01*
X150721715Y-81685321D01*
X150400286Y-81435321D02*
X150471715Y-81471036D01*
X150614572Y-81471036D01*
X150686000Y-81435321D01*
X150721715Y-81399607D01*
X150757429Y-81328179D01*
X150757429Y-81113893D01*
X150721715Y-81042464D01*
X150686000Y-81006750D01*
X150614572Y-80971036D01*
X150471715Y-80971036D01*
X150400286Y-81006750D01*
X149721715Y-80971036D02*
X149721715Y-81471036D01*
X150043144Y-80971036D02*
X150043144Y-81363893D01*
X150007429Y-81435321D01*
X149936001Y-81471036D01*
X149828858Y-81471036D01*
X149757429Y-81435321D01*
X149721715Y-81399607D01*
X149257430Y-81471036D02*
X149328858Y-81435321D01*
X149364573Y-81363893D01*
X149364573Y-80721036D01*
X148650287Y-81471036D02*
X148650287Y-81078179D01*
X148686001Y-81006750D01*
X148757430Y-80971036D01*
X148900287Y-80971036D01*
X148971716Y-81006750D01*
X148650287Y-81435321D02*
X148721716Y-81471036D01*
X148900287Y-81471036D01*
X148971716Y-81435321D01*
X149007430Y-81363893D01*
X149007430Y-81292464D01*
X148971716Y-81221036D01*
X148900287Y-81185321D01*
X148721716Y-81185321D01*
X148650287Y-81149607D01*
X148400287Y-80971036D02*
X148114573Y-80971036D01*
X148293145Y-80721036D02*
X148293145Y-81363893D01*
X148257430Y-81435321D01*
X148186002Y-81471036D01*
X148114573Y-81471036D01*
X147757431Y-81471036D02*
X147828859Y-81435321D01*
X147864574Y-81399607D01*
X147900288Y-81328179D01*
X147900288Y-81113893D01*
X147864574Y-81042464D01*
X147828859Y-81006750D01*
X147757431Y-80971036D01*
X147650288Y-80971036D01*
X147578859Y-81006750D01*
X147543145Y-81042464D01*
X147507431Y-81113893D01*
X147507431Y-81328179D01*
X147543145Y-81399607D01*
X147578859Y-81435321D01*
X147650288Y-81471036D01*
X147757431Y-81471036D01*
X147186003Y-81471036D02*
X147186003Y-80971036D01*
X147186003Y-81113893D02*
X147150288Y-81042464D01*
X147114574Y-81006750D01*
X147043145Y-80971036D01*
X146971717Y-80971036D01*
X162632428Y-82712107D02*
X162668142Y-82747821D01*
X162775285Y-82783536D01*
X162846714Y-82783536D01*
X162953857Y-82747821D01*
X163025285Y-82676393D01*
X163061000Y-82604964D01*
X163096714Y-82462107D01*
X163096714Y-82354964D01*
X163061000Y-82212107D01*
X163025285Y-82140679D01*
X162953857Y-82069250D01*
X162846714Y-82033536D01*
X162775285Y-82033536D01*
X162668142Y-82069250D01*
X162632428Y-82104964D01*
X162311000Y-82783536D02*
X162311000Y-82283536D01*
X162311000Y-82033536D02*
X162346714Y-82069250D01*
X162311000Y-82104964D01*
X162275285Y-82069250D01*
X162311000Y-82033536D01*
X162311000Y-82104964D01*
X161953857Y-82783536D02*
X161953857Y-82283536D01*
X161953857Y-82426393D02*
X161918142Y-82354964D01*
X161882428Y-82319250D01*
X161810999Y-82283536D01*
X161739571Y-82283536D01*
X161168142Y-82747821D02*
X161239571Y-82783536D01*
X161382428Y-82783536D01*
X161453856Y-82747821D01*
X161489571Y-82712107D01*
X161525285Y-82640679D01*
X161525285Y-82426393D01*
X161489571Y-82354964D01*
X161453856Y-82319250D01*
X161382428Y-82283536D01*
X161239571Y-82283536D01*
X161168142Y-82319250D01*
X160525285Y-82283536D02*
X160525285Y-82783536D01*
X160846714Y-82283536D02*
X160846714Y-82676393D01*
X160810999Y-82747821D01*
X160739571Y-82783536D01*
X160632428Y-82783536D01*
X160560999Y-82747821D01*
X160525285Y-82712107D01*
X160168143Y-82783536D02*
X160168143Y-82283536D01*
X160168143Y-82033536D02*
X160203857Y-82069250D01*
X160168143Y-82104964D01*
X160132428Y-82069250D01*
X160168143Y-82033536D01*
X160168143Y-82104964D01*
X159918142Y-82283536D02*
X159632428Y-82283536D01*
X159811000Y-82033536D02*
X159811000Y-82676393D01*
X159775285Y-82747821D01*
X159703857Y-82783536D01*
X159632428Y-82783536D01*
X158811000Y-82783536D02*
X158811000Y-82033536D01*
X158811000Y-82319250D02*
X158739571Y-82283536D01*
X158596714Y-82283536D01*
X158525285Y-82319250D01*
X158489571Y-82354964D01*
X158453857Y-82426393D01*
X158453857Y-82640679D01*
X158489571Y-82712107D01*
X158525285Y-82747821D01*
X158596714Y-82783536D01*
X158739571Y-82783536D01*
X158811000Y-82747821D01*
X158203857Y-82283536D02*
X158025286Y-82783536D01*
X157846714Y-82283536D02*
X158025286Y-82783536D01*
X158096714Y-82962107D01*
X158132429Y-82997821D01*
X158203857Y-83033536D01*
X156989571Y-82783536D02*
X156989571Y-82033536D01*
X156810999Y-82033536D01*
X156703856Y-82069250D01*
X156632428Y-82140679D01*
X156596713Y-82212107D01*
X156560999Y-82354964D01*
X156560999Y-82462107D01*
X156596713Y-82604964D01*
X156632428Y-82676393D01*
X156703856Y-82747821D01*
X156810999Y-82783536D01*
X156989571Y-82783536D01*
X155275284Y-82069250D02*
X155346713Y-82033536D01*
X155453856Y-82033536D01*
X155560999Y-82069250D01*
X155632427Y-82140679D01*
X155668142Y-82212107D01*
X155703856Y-82354964D01*
X155703856Y-82462107D01*
X155668142Y-82604964D01*
X155632427Y-82676393D01*
X155560999Y-82747821D01*
X155453856Y-82783536D01*
X155382427Y-82783536D01*
X155275284Y-82747821D01*
X155239570Y-82712107D01*
X155239570Y-82462107D01*
X155382427Y-82462107D01*
X154918142Y-82783536D02*
X154918142Y-82283536D01*
X154918142Y-82033536D02*
X154953856Y-82069250D01*
X154918142Y-82104964D01*
X154882427Y-82069250D01*
X154918142Y-82033536D01*
X154918142Y-82104964D01*
X154453856Y-82783536D02*
X154525284Y-82747821D01*
X154560999Y-82676393D01*
X154560999Y-82033536D01*
X154060999Y-82783536D02*
X154132427Y-82747821D01*
X154168142Y-82676393D01*
X154168142Y-82033536D01*
X153489570Y-82747821D02*
X153560999Y-82783536D01*
X153703856Y-82783536D01*
X153775285Y-82747821D01*
X153810999Y-82676393D01*
X153810999Y-82390679D01*
X153775285Y-82319250D01*
X153703856Y-82283536D01*
X153560999Y-82283536D01*
X153489570Y-82319250D01*
X153453856Y-82390679D01*
X153453856Y-82462107D01*
X153810999Y-82533536D01*
X153132428Y-82283536D02*
X153132428Y-83033536D01*
X153132428Y-82319250D02*
X153060999Y-82283536D01*
X152918142Y-82283536D01*
X152846713Y-82319250D01*
X152810999Y-82354964D01*
X152775285Y-82426393D01*
X152775285Y-82640679D01*
X152810999Y-82712107D01*
X152846713Y-82747821D01*
X152918142Y-82783536D01*
X153060999Y-82783536D01*
X153132428Y-82747821D01*
X152489571Y-82747821D02*
X152418142Y-82783536D01*
X152275285Y-82783536D01*
X152203857Y-82747821D01*
X152168142Y-82676393D01*
X152168142Y-82640679D01*
X152203857Y-82569250D01*
X152275285Y-82533536D01*
X152382428Y-82533536D01*
X152453857Y-82497821D01*
X152489571Y-82426393D01*
X152489571Y-82390679D01*
X152453857Y-82319250D01*
X152382428Y-82283536D01*
X152275285Y-82283536D01*
X152203857Y-82319250D01*
X151846714Y-82783536D02*
X151846714Y-82283536D01*
X151846714Y-82033536D02*
X151882428Y-82069250D01*
X151846714Y-82104964D01*
X151810999Y-82069250D01*
X151846714Y-82033536D01*
X151846714Y-82104964D01*
X151203856Y-82747821D02*
X151275285Y-82783536D01*
X151418142Y-82783536D01*
X151489571Y-82747821D01*
X151525285Y-82676393D01*
X151525285Y-82390679D01*
X151489571Y-82319250D01*
X151418142Y-82283536D01*
X151275285Y-82283536D01*
X151203856Y-82319250D01*
X151168142Y-82390679D01*
X151168142Y-82462107D01*
X151525285Y-82533536D01*
X150275285Y-82783536D02*
X150275285Y-82033536D01*
X150096713Y-82033536D01*
X149989570Y-82069250D01*
X149918142Y-82140679D01*
X149882427Y-82212107D01*
X149846713Y-82354964D01*
X149846713Y-82462107D01*
X149882427Y-82604964D01*
X149918142Y-82676393D01*
X149989570Y-82747821D01*
X150096713Y-82783536D01*
X150275285Y-82783536D01*
X149239570Y-82747821D02*
X149310999Y-82783536D01*
X149453856Y-82783536D01*
X149525285Y-82747821D01*
X149560999Y-82676393D01*
X149560999Y-82390679D01*
X149525285Y-82319250D01*
X149453856Y-82283536D01*
X149310999Y-82283536D01*
X149239570Y-82319250D01*
X149203856Y-82390679D01*
X149203856Y-82462107D01*
X149560999Y-82533536D01*
X148918142Y-82747821D02*
X148846713Y-82783536D01*
X148703856Y-82783536D01*
X148632428Y-82747821D01*
X148596713Y-82676393D01*
X148596713Y-82640679D01*
X148632428Y-82569250D01*
X148703856Y-82533536D01*
X148810999Y-82533536D01*
X148882428Y-82497821D01*
X148918142Y-82426393D01*
X148918142Y-82390679D01*
X148882428Y-82319250D01*
X148810999Y-82283536D01*
X148703856Y-82283536D01*
X148632428Y-82319250D01*
X148275285Y-82783536D02*
X148275285Y-82283536D01*
X148275285Y-82033536D02*
X148310999Y-82069250D01*
X148275285Y-82104964D01*
X148239570Y-82069250D01*
X148275285Y-82033536D01*
X148275285Y-82104964D01*
X147596713Y-82283536D02*
X147596713Y-82890679D01*
X147632427Y-82962107D01*
X147668142Y-82997821D01*
X147739570Y-83033536D01*
X147846713Y-83033536D01*
X147918142Y-82997821D01*
X147596713Y-82747821D02*
X147668142Y-82783536D01*
X147810999Y-82783536D01*
X147882427Y-82747821D01*
X147918142Y-82712107D01*
X147953856Y-82640679D01*
X147953856Y-82426393D01*
X147918142Y-82354964D01*
X147882427Y-82319250D01*
X147810999Y-82283536D01*
X147668142Y-82283536D01*
X147596713Y-82319250D01*
X147239571Y-82283536D02*
X147239571Y-82783536D01*
X147239571Y-82354964D02*
X147203856Y-82319250D01*
X147132428Y-82283536D01*
X147025285Y-82283536D01*
X146953856Y-82319250D01*
X146918142Y-82390679D01*
X146918142Y-82783536D01*
X146596714Y-82747821D02*
X146525285Y-82783536D01*
X146382428Y-82783536D01*
X146311000Y-82747821D01*
X146275285Y-82676393D01*
X146275285Y-82640679D01*
X146311000Y-82569250D01*
X146382428Y-82533536D01*
X146489571Y-82533536D01*
X146561000Y-82497821D01*
X146596714Y-82426393D01*
X146596714Y-82390679D01*
X146561000Y-82319250D01*
X146489571Y-82283536D01*
X146382428Y-82283536D01*
X146311000Y-82319250D01*
M02*
