M48
;DRILL file {KiCad 4.0.7} date Wednesday, September 26, 2018 'PMt' 03:39:28 PM
;FORMAT={-:-/ absolute / metric / decimal}
FMAT,2
METRIC,TZ
T1C0.800
T2C1.000
T3C1.200
T4C1.300
T5C1.520
%
G90
G05
M71
T1
X149.098Y-85.09
X161.798Y-85.09
X162.052Y-78.74
X164.552Y-78.74
X169.926Y-77.756
X169.926Y-79.756
T2
X151.13Y-77.724
X153.67Y-77.724
X156.21Y-77.724
T3
X142.24Y-95.758
X149.098Y-90.17
X157.48Y-95.758
X161.798Y-90.17
T4
X164.592Y-98.298
X167.092Y-95.798
X169.592Y-98.298
T5
X142.748Y-80.01
X142.748Y-85.09
X142.748Y-90.17
X168.402Y-85.09
X168.402Y-90.17
T0
M30
