G04 #@! TF.FileFunction,Copper,L2,Bot,Signal*
%FSLAX46Y46*%
G04 Gerber Fmt 4.6, Leading zero omitted, Abs format (unit mm)*
G04 Created by KiCad (PCBNEW 4.0.7) date Monday, August 20, 2018 'AMt' 09:41:37 AM*
%MOMM*%
%LPD*%
G01*
G04 APERTURE LIST*
%ADD10C,0.100000*%
%ADD11R,1.600000X1.600000*%
%ADD12C,1.600000*%
%ADD13R,3.000000X3.000000*%
%ADD14C,3.000000*%
%ADD15C,2.400000*%
%ADD16O,2.400000X2.400000*%
%ADD17O,1.600000X1.600000*%
%ADD18C,2.340000*%
%ADD19R,1.800000X1.800000*%
%ADD20O,1.800000X1.800000*%
%ADD21C,1.000000*%
G04 APERTURE END LIST*
D10*
D11*
X169926000Y-79756000D03*
D12*
X169926000Y-77756000D03*
D11*
X162052000Y-78740000D03*
D12*
X164552000Y-78740000D03*
D13*
X142748000Y-90170000D03*
D14*
X142748000Y-85090000D03*
X142748000Y-80010000D03*
D13*
X168402000Y-90170000D03*
D14*
X168402000Y-85090000D03*
D15*
X142240000Y-95758000D03*
D16*
X157480000Y-95758000D03*
D12*
X161798000Y-85090000D03*
D17*
X149098000Y-85090000D03*
D15*
X149098000Y-90170000D03*
D16*
X161798000Y-90170000D03*
D18*
X169592000Y-98298000D03*
X167092000Y-95798000D03*
X164592000Y-98298000D03*
D19*
X151130000Y-77724000D03*
D20*
X153670000Y-77724000D03*
X156210000Y-77724000D03*
D21*
X169926000Y-79756000D02*
X167640000Y-79756000D01*
X151130000Y-80010000D02*
X151130000Y-77724000D01*
X153416000Y-82296000D02*
X151130000Y-80010000D01*
X165100000Y-82296000D02*
X153416000Y-82296000D01*
X167640000Y-79756000D02*
X165100000Y-82296000D01*
X167092000Y-95798000D02*
X169632000Y-95798000D01*
X171958000Y-81788000D02*
X169926000Y-79756000D01*
X171958000Y-93472000D02*
X171958000Y-81788000D01*
X169632000Y-95798000D02*
X171958000Y-93472000D01*
X164552000Y-78740000D02*
X164552000Y-80558000D01*
X153670000Y-79248000D02*
X153670000Y-77724000D01*
X154686000Y-80264000D02*
X153670000Y-79248000D01*
X155956000Y-80264000D02*
X154686000Y-80264000D01*
X156487998Y-80795998D02*
X155956000Y-80264000D01*
X164314002Y-80795998D02*
X156487998Y-80795998D01*
X164552000Y-80558000D02*
X164314002Y-80795998D01*
X161798000Y-90170000D02*
X168402000Y-90170000D01*
X142748000Y-85090000D02*
X144018000Y-85090000D01*
X144018000Y-85090000D02*
X146558000Y-87630000D01*
X146558000Y-87630000D02*
X159258000Y-87630000D01*
X159258000Y-87630000D02*
X161798000Y-90170000D01*
M02*
