%TF.GenerationSoftware,KiCad,Pcbnew,(5.1.12-1-10_14)*%
%TF.CreationDate,2022-01-08T14:55:46-08:00*%
%TF.ProjectId,RPI_Remote_Power_Controller,5250495f-5265-46d6-9f74-655f506f7765,0.1*%
%TF.SameCoordinates,Original*%
%TF.FileFunction,Copper,L1,Top*%
%TF.FilePolarity,Positive*%
%FSLAX46Y46*%
G04 Gerber Fmt 4.6, Leading zero omitted, Abs format (unit mm)*
G04 Created by KiCad (PCBNEW (5.1.12-1-10_14)) date 2022-01-08 14:55:46*
%MOMM*%
%LPD*%
G01*
G04 APERTURE LIST*
%TA.AperFunction,ComponentPad*%
%ADD10O,8.000000X3.000000*%
%TD*%
%TA.AperFunction,ComponentPad*%
%ADD11O,3.000000X8.000000*%
%TD*%
%TA.AperFunction,ComponentPad*%
%ADD12R,1.700000X1.700000*%
%TD*%
%TA.AperFunction,ComponentPad*%
%ADD13O,1.700000X1.700000*%
%TD*%
%TA.AperFunction,ComponentPad*%
%ADD14C,2.400000*%
%TD*%
%TA.AperFunction,ComponentPad*%
%ADD15R,2.400000X2.400000*%
%TD*%
%TA.AperFunction,ComponentPad*%
%ADD16R,1.905000X2.000000*%
%TD*%
%TA.AperFunction,ComponentPad*%
%ADD17O,1.905000X2.000000*%
%TD*%
%TA.AperFunction,ComponentPad*%
%ADD18R,1.600000X1.600000*%
%TD*%
%TA.AperFunction,ComponentPad*%
%ADD19O,1.600000X1.600000*%
%TD*%
%TA.AperFunction,ComponentPad*%
%ADD20R,3.000000X3.000000*%
%TD*%
%TA.AperFunction,ComponentPad*%
%ADD21C,3.000000*%
%TD*%
%TA.AperFunction,ViaPad*%
%ADD22C,0.800000*%
%TD*%
%TA.AperFunction,Conductor*%
%ADD23C,4.750000*%
%TD*%
%TA.AperFunction,Conductor*%
%ADD24C,0.250000*%
%TD*%
%TA.AperFunction,Conductor*%
%ADD25C,0.254000*%
%TD*%
%TA.AperFunction,Conductor*%
%ADD26C,0.100000*%
%TD*%
G04 APERTURE END LIST*
D10*
%TO.P,SW3,1*%
%TO.N,GND*%
X102315000Y-89770000D03*
%TO.P,SW3,2*%
X112315000Y-89750000D03*
%TO.P,SW3,3*%
%TO.N,Mains_Hot*%
X102315000Y-94460000D03*
%TO.P,SW3,4*%
%TO.N,Mains_Neutral*%
X112315000Y-94460000D03*
%TO.P,SW3,5*%
%TO.N,O3_Hot*%
X102315000Y-100360000D03*
%TO.P,SW3,6*%
%TO.N,O3_Neutral*%
X112315000Y-100360000D03*
D11*
%TO.P,SW3,7*%
%TO.N,+12V*%
X99915000Y-107610000D03*
%TO.P,SW3,8*%
%TO.N,Net-(SW3-Pad8)*%
X114715000Y-107610000D03*
%TD*%
D12*
%TO.P,J11,1*%
%TO.N,Net-(J11-Pad1)*%
X136525000Y-54610000D03*
D13*
%TO.P,J11,2*%
%TO.N,+5V*%
X136525000Y-52070000D03*
%TO.P,J11,3*%
%TO.N,Net-(J11-Pad3)*%
X139065000Y-54610000D03*
%TO.P,J11,4*%
%TO.N,+5V*%
X139065000Y-52070000D03*
%TO.P,J11,5*%
%TO.N,Net-(J11-Pad5)*%
X141605000Y-54610000D03*
%TO.P,J11,6*%
%TO.N,GND*%
X141605000Y-52070000D03*
%TO.P,J11,7*%
%TO.N,Net-(J11-Pad7)*%
X144145000Y-54610000D03*
%TO.P,J11,8*%
%TO.N,Net-(J11-Pad8)*%
X144145000Y-52070000D03*
%TO.P,J11,9*%
%TO.N,GND*%
X146685000Y-54610000D03*
%TO.P,J11,10*%
%TO.N,Net-(J11-Pad10)*%
X146685000Y-52070000D03*
%TO.P,J11,11*%
%TO.N,Net-(J11-Pad11)*%
X149225000Y-54610000D03*
%TO.P,J11,12*%
%TO.N,Net-(J11-Pad12)*%
X149225000Y-52070000D03*
%TO.P,J11,13*%
%TO.N,Net-(J11-Pad13)*%
X151765000Y-54610000D03*
%TO.P,J11,14*%
%TO.N,GND*%
X151765000Y-52070000D03*
%TO.P,J11,15*%
%TO.N,Net-(J11-Pad15)*%
X154305000Y-54610000D03*
%TO.P,J11,16*%
%TO.N,Net-(J11-Pad16)*%
X154305000Y-52070000D03*
%TO.P,J11,17*%
%TO.N,Net-(J11-Pad17)*%
X156845000Y-54610000D03*
%TO.P,J11,18*%
%TO.N,Net-(J11-Pad18)*%
X156845000Y-52070000D03*
%TO.P,J11,19*%
%TO.N,Net-(J11-Pad19)*%
X159385000Y-54610000D03*
%TO.P,J11,20*%
%TO.N,GND*%
X159385000Y-52070000D03*
%TO.P,J11,21*%
%TO.N,Net-(J11-Pad21)*%
X161925000Y-54610000D03*
%TO.P,J11,22*%
%TO.N,Net-(J11-Pad22)*%
X161925000Y-52070000D03*
%TO.P,J11,23*%
%TO.N,Net-(J11-Pad23)*%
X164465000Y-54610000D03*
%TO.P,J11,24*%
%TO.N,Net-(J11-Pad24)*%
X164465000Y-52070000D03*
%TO.P,J11,25*%
%TO.N,GND*%
X167005000Y-54610000D03*
%TO.P,J11,26*%
%TO.N,Net-(J11-Pad26)*%
X167005000Y-52070000D03*
%TO.P,J11,27*%
%TO.N,Net-(J11-Pad27)*%
X169545000Y-54610000D03*
%TO.P,J11,28*%
%TO.N,Net-(J11-Pad28)*%
X169545000Y-52070000D03*
%TO.P,J11,29*%
%TO.N,Net-(J11-Pad29)*%
X172085000Y-54610000D03*
%TO.P,J11,30*%
%TO.N,GND*%
X172085000Y-52070000D03*
%TO.P,J11,31*%
%TO.N,Net-(J11-Pad31)*%
X174625000Y-54610000D03*
%TO.P,J11,32*%
%TO.N,Net-(J11-Pad32)*%
X174625000Y-52070000D03*
%TO.P,J11,33*%
%TO.N,Net-(J11-Pad33)*%
X177165000Y-54610000D03*
%TO.P,J11,34*%
%TO.N,GND*%
X177165000Y-52070000D03*
%TO.P,J11,35*%
%TO.N,Net-(J11-Pad35)*%
X179705000Y-54610000D03*
%TO.P,J11,36*%
%TO.N,Net-(J11-Pad36)*%
X179705000Y-52070000D03*
%TO.P,J11,37*%
%TO.N,Net-(J11-Pad37)*%
X182245000Y-54610000D03*
%TO.P,J11,38*%
%TO.N,Net-(J11-Pad38)*%
X182245000Y-52070000D03*
%TO.P,J11,39*%
%TO.N,GND*%
X184785000Y-54610000D03*
%TO.P,J11,40*%
%TO.N,Net-(J11-Pad40)*%
X184785000Y-52070000D03*
%TD*%
D14*
%TO.P,C1,2*%
%TO.N,GND*%
X107950000Y-74215000D03*
D15*
%TO.P,C1,1*%
%TO.N,+5V*%
X107950000Y-69215000D03*
%TD*%
D12*
%TO.P,J9,1*%
%TO.N,Net-(J11-Pad8)*%
X122555000Y-71120000D03*
D13*
%TO.P,J9,2*%
%TO.N,Net-(J11-Pad10)*%
X122555000Y-73660000D03*
%TO.P,J9,3*%
%TO.N,GND*%
X122555000Y-76200000D03*
%TD*%
D10*
%TO.P,SW1,1*%
%TO.N,GND*%
X48975000Y-89770000D03*
%TO.P,SW1,2*%
X58975000Y-89750000D03*
%TO.P,SW1,3*%
%TO.N,Mains_Hot*%
X48975000Y-94460000D03*
%TO.P,SW1,4*%
%TO.N,Mains_Neutral*%
X58975000Y-94460000D03*
%TO.P,SW1,5*%
%TO.N,O1_Hot*%
X48975000Y-100360000D03*
%TO.P,SW1,6*%
%TO.N,O1_Neutral*%
X58975000Y-100360000D03*
D11*
%TO.P,SW1,7*%
%TO.N,+12V*%
X46575000Y-107610000D03*
%TO.P,SW1,8*%
%TO.N,Net-(SW1-Pad8)*%
X61375000Y-107610000D03*
%TD*%
%TO.P,SW2,8*%
%TO.N,Net-(SW2-Pad8)*%
X88045000Y-107610000D03*
%TO.P,SW2,7*%
%TO.N,+12V*%
X73245000Y-107610000D03*
D10*
%TO.P,SW2,6*%
%TO.N,O2_Neutral*%
X85645000Y-100360000D03*
%TO.P,SW2,5*%
%TO.N,O2_Hot*%
X75645000Y-100360000D03*
%TO.P,SW2,4*%
%TO.N,Mains_Neutral*%
X85645000Y-94460000D03*
%TO.P,SW2,3*%
%TO.N,Mains_Hot*%
X75645000Y-94460000D03*
%TO.P,SW2,2*%
%TO.N,GND*%
X85645000Y-89750000D03*
%TO.P,SW2,1*%
X75645000Y-89770000D03*
%TD*%
D11*
%TO.P,SW4,8*%
%TO.N,Net-(SW4-Pad8)*%
X141385000Y-107610000D03*
%TO.P,SW4,7*%
%TO.N,+12V*%
X126585000Y-107610000D03*
D10*
%TO.P,SW4,6*%
%TO.N,O4_Neutral*%
X138985000Y-100360000D03*
%TO.P,SW4,5*%
%TO.N,O4_Hot*%
X128985000Y-100360000D03*
%TO.P,SW4,4*%
%TO.N,Mains_Neutral*%
X138985000Y-94460000D03*
%TO.P,SW4,3*%
%TO.N,Mains_Hot*%
X128985000Y-94460000D03*
%TO.P,SW4,2*%
%TO.N,GND*%
X138985000Y-89750000D03*
%TO.P,SW4,1*%
X128985000Y-89770000D03*
%TD*%
%TO.P,SW5,1*%
%TO.N,GND*%
X155655000Y-89770000D03*
%TO.P,SW5,2*%
X165655000Y-89750000D03*
%TO.P,SW5,3*%
%TO.N,Mains_Hot*%
X155655000Y-94460000D03*
%TO.P,SW5,4*%
%TO.N,Mains_Neutral*%
X165655000Y-94460000D03*
%TO.P,SW5,5*%
%TO.N,O5_Hot*%
X155655000Y-100360000D03*
%TO.P,SW5,6*%
%TO.N,O5_Neutral*%
X165655000Y-100360000D03*
D11*
%TO.P,SW5,7*%
%TO.N,+12V*%
X153255000Y-107610000D03*
%TO.P,SW5,8*%
%TO.N,Net-(SW5-Pad8)*%
X168055000Y-107610000D03*
%TD*%
%TO.P,SW6,8*%
%TO.N,Net-(SW6-Pad8)*%
X194725000Y-107610000D03*
%TO.P,SW6,7*%
%TO.N,+12V*%
X179925000Y-107610000D03*
D10*
%TO.P,SW6,6*%
%TO.N,O6_Neutral*%
X192325000Y-100360000D03*
%TO.P,SW6,5*%
%TO.N,O6_Hot*%
X182325000Y-100360000D03*
%TO.P,SW6,4*%
%TO.N,Mains_Neutral*%
X192325000Y-94460000D03*
%TO.P,SW6,3*%
%TO.N,Mains_Hot*%
X182325000Y-94460000D03*
%TO.P,SW6,2*%
%TO.N,GND*%
X192325000Y-89750000D03*
%TO.P,SW6,1*%
X182325000Y-89770000D03*
%TD*%
%TO.P,SW7,1*%
%TO.N,GND*%
X208995000Y-89770000D03*
%TO.P,SW7,2*%
X218995000Y-89750000D03*
%TO.P,SW7,3*%
%TO.N,Mains_Hot*%
X208995000Y-94460000D03*
%TO.P,SW7,4*%
%TO.N,Mains_Neutral*%
X218995000Y-94460000D03*
%TO.P,SW7,5*%
%TO.N,O7_Hot*%
X208995000Y-100360000D03*
%TO.P,SW7,6*%
%TO.N,O7_Neutral*%
X218995000Y-100360000D03*
D11*
%TO.P,SW7,7*%
%TO.N,+12V*%
X206595000Y-107610000D03*
%TO.P,SW7,8*%
%TO.N,Net-(SW7-Pad8)*%
X221395000Y-107610000D03*
%TD*%
%TO.P,SW8,8*%
%TO.N,Net-(SW8-Pad8)*%
X248065000Y-107610000D03*
%TO.P,SW8,7*%
%TO.N,+12V*%
X233265000Y-107610000D03*
D10*
%TO.P,SW8,6*%
%TO.N,O8_Neutral*%
X245665000Y-100360000D03*
%TO.P,SW8,5*%
%TO.N,O8_Hot*%
X235665000Y-100360000D03*
%TO.P,SW8,4*%
%TO.N,Mains_Neutral*%
X245665000Y-94460000D03*
%TO.P,SW8,3*%
%TO.N,Mains_Hot*%
X235665000Y-94460000D03*
%TO.P,SW8,2*%
%TO.N,GND*%
X245665000Y-89750000D03*
%TO.P,SW8,1*%
X235665000Y-89770000D03*
%TD*%
D16*
%TO.P,U1,1*%
%TO.N,GND*%
X104775000Y-53975000D03*
D17*
%TO.P,U1,2*%
%TO.N,+5V*%
X107315000Y-53975000D03*
%TO.P,U1,3*%
%TO.N,+12V*%
X109855000Y-53975000D03*
%TD*%
D18*
%TO.P,U2,1*%
%TO.N,Net-(J11-Pad5)*%
X202565000Y-63500000D03*
D19*
%TO.P,U2,10*%
%TO.N,Net-(U2-Pad10)*%
X222885000Y-55880000D03*
%TO.P,U2,2*%
%TO.N,Net-(J11-Pad3)*%
X205105000Y-63500000D03*
%TO.P,U2,11*%
%TO.N,Net-(U2-Pad11)*%
X220345000Y-55880000D03*
%TO.P,U2,3*%
%TO.N,GND*%
X207645000Y-63500000D03*
%TO.P,U2,12*%
%TO.N,Net-(U2-Pad12)*%
X217805000Y-55880000D03*
%TO.P,U2,4*%
%TO.N,GND*%
X210185000Y-63500000D03*
%TO.P,U2,13*%
%TO.N,Net-(U2-Pad13)*%
X215265000Y-55880000D03*
%TO.P,U2,5*%
%TO.N,GND*%
X212725000Y-63500000D03*
%TO.P,U2,14*%
%TO.N,Net-(U2-Pad14)*%
X212725000Y-55880000D03*
%TO.P,U2,6*%
%TO.N,Net-(J11-Pad40)*%
X215265000Y-63500000D03*
%TO.P,U2,15*%
%TO.N,Net-(U2-Pad15)*%
X210185000Y-55880000D03*
%TO.P,U2,7*%
%TO.N,Net-(U2-Pad7)*%
X217805000Y-63500000D03*
%TO.P,U2,16*%
%TO.N,Net-(U2-Pad16)*%
X207645000Y-55880000D03*
%TO.P,U2,8*%
%TO.N,Net-(U2-Pad8)*%
X220345000Y-63500000D03*
%TO.P,U2,17*%
%TO.N,Net-(U2-Pad17)*%
X205105000Y-55880000D03*
%TO.P,U2,9*%
%TO.N,GND*%
X222885000Y-63500000D03*
%TO.P,U2,18*%
%TO.N,Net-(J11-Pad1)*%
X202565000Y-55880000D03*
%TD*%
%TO.P,U3,16*%
%TO.N,Net-(SW1-Pad8)*%
X220980000Y-75565000D03*
%TO.P,U3,8*%
%TO.N,GND*%
X203200000Y-67945000D03*
%TO.P,U3,15*%
%TO.N,Net-(SW2-Pad8)*%
X218440000Y-75565000D03*
%TO.P,U3,7*%
%TO.N,Net-(U2-Pad16)*%
X205740000Y-67945000D03*
%TO.P,U3,14*%
%TO.N,Net-(SW3-Pad8)*%
X215900000Y-75565000D03*
%TO.P,U3,6*%
%TO.N,Net-(U2-Pad15)*%
X208280000Y-67945000D03*
%TO.P,U3,13*%
%TO.N,Net-(SW4-Pad8)*%
X213360000Y-75565000D03*
%TO.P,U3,5*%
%TO.N,Net-(U2-Pad14)*%
X210820000Y-67945000D03*
%TO.P,U3,12*%
%TO.N,Net-(SW5-Pad8)*%
X210820000Y-75565000D03*
%TO.P,U3,4*%
%TO.N,Net-(U2-Pad13)*%
X213360000Y-67945000D03*
%TO.P,U3,11*%
%TO.N,Net-(SW6-Pad8)*%
X208280000Y-75565000D03*
%TO.P,U3,3*%
%TO.N,Net-(U2-Pad12)*%
X215900000Y-67945000D03*
%TO.P,U3,10*%
%TO.N,Net-(SW7-Pad8)*%
X205740000Y-75565000D03*
%TO.P,U3,2*%
%TO.N,Net-(U2-Pad11)*%
X218440000Y-67945000D03*
%TO.P,U3,9*%
%TO.N,+12V*%
X203200000Y-75565000D03*
D18*
%TO.P,U3,1*%
%TO.N,Net-(U2-Pad10)*%
X220980000Y-67945000D03*
%TD*%
%TO.P,U4,1*%
%TO.N,Net-(U2-Pad17)*%
X245110000Y-67945000D03*
D19*
%TO.P,U4,9*%
%TO.N,+12V*%
X227330000Y-75565000D03*
%TO.P,U4,2*%
%TO.N,Net-(U4-Pad2)*%
X242570000Y-67945000D03*
%TO.P,U4,10*%
%TO.N,Net-(U4-Pad10)*%
X229870000Y-75565000D03*
%TO.P,U4,3*%
%TO.N,Net-(U4-Pad3)*%
X240030000Y-67945000D03*
%TO.P,U4,11*%
%TO.N,Net-(U4-Pad11)*%
X232410000Y-75565000D03*
%TO.P,U4,4*%
%TO.N,Net-(U4-Pad4)*%
X237490000Y-67945000D03*
%TO.P,U4,12*%
%TO.N,Net-(U4-Pad12)*%
X234950000Y-75565000D03*
%TO.P,U4,5*%
%TO.N,Net-(U4-Pad5)*%
X234950000Y-67945000D03*
%TO.P,U4,13*%
%TO.N,Net-(U4-Pad13)*%
X237490000Y-75565000D03*
%TO.P,U4,6*%
%TO.N,Net-(U4-Pad6)*%
X232410000Y-67945000D03*
%TO.P,U4,14*%
%TO.N,Net-(U4-Pad14)*%
X240030000Y-75565000D03*
%TO.P,U4,7*%
%TO.N,Net-(U4-Pad7)*%
X229870000Y-67945000D03*
%TO.P,U4,15*%
%TO.N,Net-(U4-Pad15)*%
X242570000Y-75565000D03*
%TO.P,U4,8*%
%TO.N,GND*%
X227330000Y-67945000D03*
%TO.P,U4,16*%
%TO.N,Net-(SW8-Pad8)*%
X245110000Y-75565000D03*
%TD*%
D20*
%TO.P,J12,1*%
%TO.N,+12V*%
X78105000Y-50800000D03*
D21*
%TO.P,J12,2*%
%TO.N,GND*%
X83185000Y-50800000D03*
%TD*%
D20*
%TO.P,J10,1*%
%TO.N,Mains_Hot*%
X51435000Y-50800000D03*
D21*
%TO.P,J10,2*%
%TO.N,Mains_Neutral*%
X61595000Y-50800000D03*
%TO.P,J10,3*%
%TO.N,GND*%
X71755000Y-50800000D03*
%TD*%
%TO.P,J1,2*%
%TO.N,O1_Neutral*%
X59690000Y-121285000D03*
D20*
%TO.P,J1,1*%
%TO.N,O1_Hot*%
X49530000Y-121285000D03*
%TD*%
%TO.P,J2,1*%
%TO.N,O2_Hot*%
X76200000Y-121285000D03*
D21*
%TO.P,J2,2*%
%TO.N,O2_Neutral*%
X86360000Y-121285000D03*
%TD*%
D20*
%TO.P,J3,1*%
%TO.N,O3_Hot*%
X102870000Y-121285000D03*
D21*
%TO.P,J3,2*%
%TO.N,O3_Neutral*%
X113030000Y-121285000D03*
%TD*%
%TO.P,J4,2*%
%TO.N,O4_Neutral*%
X139700000Y-121285000D03*
D20*
%TO.P,J4,1*%
%TO.N,O4_Hot*%
X129540000Y-121285000D03*
%TD*%
%TO.P,J5,1*%
%TO.N,O5_Hot*%
X156210000Y-121285000D03*
D21*
%TO.P,J5,2*%
%TO.N,O5_Neutral*%
X166370000Y-121285000D03*
%TD*%
%TO.P,J6,2*%
%TO.N,O6_Neutral*%
X193040000Y-121285000D03*
D20*
%TO.P,J6,1*%
%TO.N,O6_Hot*%
X182880000Y-121285000D03*
%TD*%
%TO.P,J7,1*%
%TO.N,O7_Hot*%
X209550000Y-121285000D03*
D21*
%TO.P,J7,2*%
%TO.N,O7_Neutral*%
X219710000Y-121285000D03*
%TD*%
%TO.P,J8,2*%
%TO.N,O8_Neutral*%
X246380000Y-121285000D03*
D20*
%TO.P,J8,1*%
%TO.N,O8_Hot*%
X236220000Y-121285000D03*
%TD*%
D22*
%TO.N,Net-(J11-Pad8)*%
X142875000Y-71120000D03*
%TO.N,Net-(J11-Pad10)*%
X145415000Y-71755000D03*
%TO.N,GND*%
X184785000Y-67945000D03*
X140335000Y-59055000D03*
X93980000Y-83095000D03*
X107950000Y-83095000D03*
X128270000Y-83095000D03*
X152400000Y-83095000D03*
X177165000Y-83095000D03*
X201295000Y-83095000D03*
X219075000Y-83095000D03*
%TO.N,Net-(J11-Pad1)*%
X202565000Y-59690000D03*
X136525000Y-60325000D03*
%TO.N,Net-(J11-Pad3)*%
X139065000Y-61595000D03*
%TO.N,Net-(J11-Pad5)*%
X141605000Y-62865000D03*
%TO.N,Net-(J11-Pad40)*%
X186055000Y-57785000D03*
X215265000Y-58420000D03*
%TO.N,+12V*%
X114300000Y-81915000D03*
%TD*%
D23*
%TO.N,O1_Hot*%
X51200010Y-119614990D02*
X49530000Y-121285000D01*
X51200010Y-103194259D02*
X51200010Y-119614990D01*
X48975000Y-100969249D02*
X51200010Y-103194259D01*
X48975000Y-100360000D02*
X48975000Y-100969249D01*
%TO.N,O2_Hot*%
X77870010Y-119614990D02*
X76200000Y-121285000D01*
X77870010Y-103194259D02*
X77870010Y-119614990D01*
X75645000Y-100969249D02*
X77870010Y-103194259D01*
X75645000Y-100360000D02*
X75645000Y-100969249D01*
%TO.N,O3_Hot*%
X104540010Y-119614990D02*
X102870000Y-121285000D01*
X104540010Y-103194259D02*
X104540010Y-119614990D01*
X102315000Y-100969249D02*
X104540010Y-103194259D01*
X102315000Y-100360000D02*
X102315000Y-100969249D01*
%TO.N,O4_Hot*%
X131210010Y-119614990D02*
X129540000Y-121285000D01*
X131210010Y-103194259D02*
X131210010Y-119614990D01*
X128985000Y-100969249D02*
X131210010Y-103194259D01*
X128985000Y-100360000D02*
X128985000Y-100969249D01*
%TO.N,O5_Hot*%
X157880010Y-119614990D02*
X156210000Y-121285000D01*
X155655000Y-100969249D02*
X157880010Y-103194259D01*
X157880010Y-103194259D02*
X157880010Y-119614990D01*
X155655000Y-100360000D02*
X155655000Y-100969249D01*
%TO.N,O6_Hot*%
X184550010Y-119614990D02*
X182880000Y-121285000D01*
X184550010Y-103194259D02*
X184550010Y-119614990D01*
X182325000Y-100969249D02*
X184550010Y-103194259D01*
X182325000Y-100360000D02*
X182325000Y-100969249D01*
%TO.N,O7_Hot*%
X211220010Y-119614990D02*
X209550000Y-121285000D01*
X211220010Y-103194259D02*
X211220010Y-119614990D01*
X208995000Y-100969249D02*
X211220010Y-103194259D01*
X208995000Y-100360000D02*
X208995000Y-100969249D01*
%TO.N,O8_Hot*%
X237890010Y-119614990D02*
X236220000Y-121285000D01*
X237890010Y-103194259D02*
X237890010Y-119614990D01*
X235665000Y-100969249D02*
X237890010Y-103194259D01*
X235665000Y-100360000D02*
X235665000Y-100969249D01*
D24*
%TO.N,Net-(J11-Pad8)*%
X142875000Y-53340000D02*
X142875000Y-71120000D01*
X144145000Y-52070000D02*
X142875000Y-53340000D01*
%TO.N,Net-(J11-Pad10)*%
X145415000Y-53340000D02*
X145415000Y-71755000D01*
X146685000Y-52070000D02*
X145415000Y-53340000D01*
%TO.N,GND*%
X76735000Y-89770000D02*
X76755000Y-89750000D01*
X100865000Y-89770000D02*
X100885000Y-89750000D01*
X124995000Y-89770000D02*
X125015000Y-89750000D01*
X215805000Y-89750000D02*
X221535000Y-89750000D01*
X215785000Y-89770000D02*
X215805000Y-89750000D01*
X227330000Y-67945000D02*
X222885000Y-63500000D01*
X184785000Y-67945000D02*
X184785000Y-54610000D01*
X140335000Y-53340000D02*
X141605000Y-52070000D01*
X140335000Y-59055000D02*
X140335000Y-53340000D01*
X104775000Y-71040000D02*
X107950000Y-74215000D01*
X104775000Y-53975000D02*
X104775000Y-71040000D01*
X58955000Y-89770000D02*
X58975000Y-89750000D01*
X48975000Y-89770000D02*
X58955000Y-89770000D01*
X85625000Y-89770000D02*
X85645000Y-89750000D01*
X75645000Y-89770000D02*
X85625000Y-89770000D01*
X112295000Y-89770000D02*
X112315000Y-89750000D01*
X102315000Y-89770000D02*
X112295000Y-89770000D01*
X138965000Y-89770000D02*
X138985000Y-89750000D01*
X128985000Y-89770000D02*
X138965000Y-89770000D01*
X165635000Y-89770000D02*
X165655000Y-89750000D01*
X155655000Y-89770000D02*
X165635000Y-89770000D01*
X192305000Y-89770000D02*
X192325000Y-89750000D01*
X182325000Y-89770000D02*
X192305000Y-89770000D01*
X218975000Y-89770000D02*
X218995000Y-89750000D01*
X208995000Y-89770000D02*
X218975000Y-89770000D01*
X245645000Y-89770000D02*
X245665000Y-89750000D01*
X235665000Y-89770000D02*
X245645000Y-89770000D01*
X74510000Y-74215000D02*
X107950000Y-74215000D01*
X58975000Y-89750000D02*
X74510000Y-74215000D01*
X102860000Y-74215000D02*
X107950000Y-74215000D01*
X93980000Y-83095000D02*
X102860000Y-74215000D01*
X107950000Y-83095000D02*
X107950000Y-74215000D01*
X122555000Y-77380000D02*
X122555000Y-76200000D01*
X128270000Y-83095000D02*
X122555000Y-77380000D01*
X152400000Y-83095000D02*
X128270000Y-83095000D01*
X177165000Y-83095000D02*
X152400000Y-83095000D01*
X201295000Y-83095000D02*
X177165000Y-83095000D01*
X219075000Y-83095000D02*
X201295000Y-83095000D01*
D23*
%TO.N,Mains_Hot*%
X48975000Y-94460000D02*
X35715000Y-94460000D01*
X72504249Y-94460000D02*
X67310000Y-99654249D01*
X75645000Y-94460000D02*
X72504249Y-94460000D01*
X67310000Y-99654249D02*
X67310000Y-130175000D01*
X99174249Y-94460000D02*
X93980000Y-99654249D01*
X102315000Y-94460000D02*
X99174249Y-94460000D01*
X93980000Y-99654249D02*
X93980000Y-130175000D01*
X125844249Y-94460000D02*
X120650000Y-99654249D01*
X128985000Y-94460000D02*
X125844249Y-94460000D01*
X120650000Y-99654249D02*
X120650000Y-130175000D01*
X152514249Y-94460000D02*
X147320000Y-99654249D01*
X155655000Y-94460000D02*
X152514249Y-94460000D01*
X147320000Y-99654249D02*
X147320000Y-130175000D01*
X179184249Y-94460000D02*
X173990000Y-99654249D01*
X182325000Y-94460000D02*
X179184249Y-94460000D01*
X173990000Y-99654249D02*
X173990000Y-130175000D01*
X205854249Y-94460000D02*
X200660000Y-99654249D01*
X208995000Y-94460000D02*
X205854249Y-94460000D01*
X200660000Y-99654249D02*
X200660000Y-130175000D01*
X232524249Y-94460000D02*
X227330000Y-99654249D01*
X235665000Y-94460000D02*
X232524249Y-94460000D01*
X227330000Y-99654249D02*
X227330000Y-130175000D01*
D24*
%TO.N,Net-(J11-Pad1)*%
X202565000Y-55880000D02*
X202565000Y-59690000D01*
X136525000Y-54610000D02*
X136525000Y-60325000D01*
%TO.N,+5V*%
X136525000Y-52324998D02*
X136525000Y-52070000D01*
X107315000Y-68580000D02*
X107950000Y-69215000D01*
X107315000Y-53975000D02*
X107315000Y-68580000D01*
%TO.N,Net-(J11-Pad3)*%
X139065000Y-54610000D02*
X139065000Y-61595000D01*
%TO.N,Net-(J11-Pad5)*%
X141605000Y-54610000D02*
X141605000Y-62865000D01*
%TO.N,Net-(J11-Pad40)*%
X186055000Y-53340000D02*
X186055000Y-57785000D01*
X184785000Y-52070000D02*
X186055000Y-53340000D01*
X215265000Y-58420000D02*
X215265000Y-63500000D01*
%TO.N,+12V*%
X109855000Y-77470000D02*
X114300000Y-81915000D01*
X109855000Y-53975000D02*
X109855000Y-77470000D01*
X151545000Y-107610000D02*
X153749980Y-105405020D01*
%TO.N,Net-(SW1-Pad8)*%
X221615000Y-83820000D02*
X222250000Y-83185000D01*
X222250000Y-76835000D02*
X220980000Y-75565000D01*
X222250000Y-83185000D02*
X222250000Y-76835000D01*
X76514047Y-83820000D02*
X221615000Y-83820000D01*
X64059990Y-106675010D02*
X64059990Y-96274057D01*
X63125000Y-107610000D02*
X64059990Y-106675010D01*
X64059990Y-96274057D02*
X76514047Y-83820000D01*
X61375000Y-107610000D02*
X63125000Y-107610000D01*
%TO.N,Net-(SW2-Pad8)*%
X221607950Y-72390000D02*
X218440000Y-72390000D01*
X222250000Y-84455000D02*
X222885000Y-83820000D01*
X90729990Y-96274057D02*
X102549047Y-84455000D01*
X222885000Y-83820000D02*
X222885000Y-73667050D01*
X102549047Y-84455000D02*
X222250000Y-84455000D01*
X218440000Y-72390000D02*
X218440000Y-75565000D01*
X222885000Y-73667050D02*
X221607950Y-72390000D01*
X90729990Y-106675010D02*
X90729990Y-96274057D01*
X89795000Y-107610000D02*
X90729990Y-106675010D01*
X88045000Y-107610000D02*
X89795000Y-107610000D01*
%TO.N,Net-(SW3-Pad8)*%
X215900000Y-71755000D02*
X215900000Y-75565000D01*
X223520000Y-73665640D02*
X221609360Y-71755000D01*
X223520000Y-84455000D02*
X223520000Y-73665640D01*
X128584047Y-85090000D02*
X222885000Y-85090000D01*
X221609360Y-71755000D02*
X215900000Y-71755000D01*
X117190010Y-96484037D02*
X128584047Y-85090000D01*
X114715000Y-107610000D02*
X117190010Y-105134990D01*
X222885000Y-85090000D02*
X223520000Y-84455000D01*
X117190010Y-105134990D02*
X117190010Y-96484037D01*
%TO.N,Net-(SW4-Pad8)*%
X213360000Y-71120000D02*
X213360000Y-75565000D01*
X224155000Y-73664230D02*
X221610770Y-71120000D01*
X223520000Y-85725000D02*
X224155000Y-85090000D01*
X154619047Y-85725000D02*
X223520000Y-85725000D01*
X221610770Y-71120000D02*
X213360000Y-71120000D01*
X144069991Y-96274056D02*
X154619047Y-85725000D01*
X224155000Y-85090000D02*
X224155000Y-73664230D01*
X144069991Y-104925009D02*
X144069991Y-96274056D01*
X141385000Y-107610000D02*
X144069991Y-104925009D01*
%TO.N,Net-(SW5-Pad8)*%
X224790000Y-85723590D02*
X224790000Y-73662820D01*
X224790000Y-73662820D02*
X221612180Y-70485000D01*
X224153590Y-86360000D02*
X224790000Y-85723590D01*
X180654047Y-86360000D02*
X224153590Y-86360000D01*
X168055000Y-107610000D02*
X170530010Y-105134990D01*
X170530010Y-105134990D02*
X170530010Y-96484037D01*
X210820000Y-70485000D02*
X210820000Y-75565000D01*
X221612180Y-70485000D02*
X210820000Y-70485000D01*
X170530010Y-96484037D02*
X180654047Y-86360000D01*
%TO.N,Net-(SW6-Pad8)*%
X221613590Y-69850000D02*
X208280000Y-69850000D01*
X225410000Y-73646410D02*
X221613590Y-69850000D01*
X224790000Y-86995000D02*
X225410000Y-86375000D01*
X208280000Y-69850000D02*
X208280000Y-75565000D01*
X206689047Y-86995000D02*
X224790000Y-86995000D01*
X197409990Y-96274057D02*
X206689047Y-86995000D01*
X197409990Y-106675010D02*
X197409990Y-96274057D01*
X196475000Y-107610000D02*
X197409990Y-106675010D01*
X225410000Y-86375000D02*
X225410000Y-73646410D01*
X194725000Y-107610000D02*
X196475000Y-107610000D01*
%TO.N,Net-(SW7-Pad8)*%
X225860010Y-73460010D02*
X221615000Y-69215000D01*
X221615000Y-69215000D02*
X205740000Y-69215000D01*
X205740000Y-69215000D02*
X205740000Y-75565000D01*
X224079990Y-104925010D02*
X221395000Y-107610000D01*
X224079990Y-98308051D02*
X224079990Y-104925010D01*
X225860010Y-96528031D02*
X224079990Y-98308051D01*
X225860010Y-73460010D02*
X225860010Y-96528031D01*
%TO.N,Net-(SW8-Pad8)*%
X250540010Y-80995010D02*
X245110000Y-75565000D01*
X250540010Y-105134990D02*
X250540010Y-80995010D01*
X248065000Y-107610000D02*
X250540010Y-105134990D01*
%TO.N,Net-(U2-Pad10)*%
X221759999Y-67165001D02*
X220980000Y-67945000D01*
X221759999Y-57005001D02*
X221759999Y-67165001D01*
X222885000Y-55880000D02*
X221759999Y-57005001D01*
%TO.N,Net-(U2-Pad11)*%
X219219999Y-67165001D02*
X218440000Y-67945000D01*
X219219999Y-57005001D02*
X219219999Y-67165001D01*
X220345000Y-55880000D02*
X219219999Y-57005001D01*
%TO.N,Net-(U2-Pad12)*%
X216679999Y-67165001D02*
X215900000Y-67945000D01*
X216679999Y-57005001D02*
X216679999Y-67165001D01*
X217805000Y-55880000D02*
X216679999Y-57005001D01*
%TO.N,Net-(U2-Pad13)*%
X214139999Y-67165001D02*
X213360000Y-67945000D01*
X214139999Y-57005001D02*
X214139999Y-67165001D01*
X215265000Y-55880000D02*
X214139999Y-57005001D01*
%TO.N,Net-(U2-Pad14)*%
X211599999Y-67165001D02*
X210820000Y-67945000D01*
X211599999Y-57005001D02*
X211599999Y-67165001D01*
X212725000Y-55880000D02*
X211599999Y-57005001D01*
%TO.N,Net-(U2-Pad15)*%
X208770001Y-67454999D02*
X208280000Y-67945000D01*
X208770001Y-57294999D02*
X208770001Y-67454999D01*
X210185000Y-55880000D02*
X208770001Y-57294999D01*
%TO.N,Net-(U2-Pad16)*%
X206519999Y-67165001D02*
X205740000Y-67945000D01*
X206519999Y-57005001D02*
X206519999Y-67165001D01*
X207645000Y-55880000D02*
X206519999Y-57005001D01*
%TO.N,Net-(U2-Pad17)*%
X231919999Y-54754999D02*
X245110000Y-67945000D01*
X206230001Y-54754999D02*
X231919999Y-54754999D01*
X205105000Y-55880000D02*
X206230001Y-54754999D01*
%TD*%
D25*
%TO.N,Mains_Hot*%
X66548000Y-76708000D02*
X40640000Y-76708000D01*
X40615224Y-76710440D01*
X40591399Y-76717667D01*
X40569443Y-76729403D01*
X40550197Y-76745197D01*
X40534403Y-76764443D01*
X40522667Y-76786399D01*
X40515440Y-76810224D01*
X40513000Y-76835000D01*
X40513000Y-127000000D01*
X40515440Y-127024776D01*
X40522667Y-127048601D01*
X40534403Y-127070557D01*
X40550197Y-127089803D01*
X40569443Y-127105597D01*
X40591399Y-127117333D01*
X40615224Y-127124560D01*
X40640000Y-127127000D01*
X256413000Y-127127000D01*
X256413000Y-140843000D01*
X249555000Y-140843000D01*
X249530224Y-140845440D01*
X249506399Y-140852667D01*
X249484443Y-140864403D01*
X249465197Y-140880197D01*
X249449403Y-140899443D01*
X249437667Y-140921399D01*
X249430440Y-140945224D01*
X249428000Y-140970000D01*
X249428000Y-147828000D01*
X32512000Y-147828000D01*
X32512000Y-140970000D01*
X32509560Y-140945224D01*
X32502333Y-140921399D01*
X32490597Y-140899443D01*
X32474803Y-140880197D01*
X32455557Y-140864403D01*
X32433601Y-140852667D01*
X32409776Y-140845440D01*
X32385000Y-140843000D01*
X25527945Y-140843000D01*
X26161063Y-55372000D01*
X32385000Y-55372000D01*
X32409776Y-55369560D01*
X32433601Y-55362333D01*
X32455557Y-55350597D01*
X32474803Y-55334803D01*
X32490597Y-55315557D01*
X32502333Y-55293601D01*
X32509560Y-55269776D01*
X32512000Y-55245000D01*
X32512000Y-50565886D01*
X59218000Y-50565886D01*
X59218000Y-51034114D01*
X59309347Y-51493345D01*
X59488530Y-51925932D01*
X59748664Y-52315249D01*
X60079751Y-52646336D01*
X60469068Y-52906470D01*
X60901655Y-53085653D01*
X61360886Y-53177000D01*
X61829114Y-53177000D01*
X62288345Y-53085653D01*
X62720932Y-52906470D01*
X63110249Y-52646336D01*
X63441336Y-52315249D01*
X63701470Y-51925932D01*
X63880653Y-51493345D01*
X63972000Y-51034114D01*
X63972000Y-50565886D01*
X63880653Y-50106655D01*
X63701470Y-49674068D01*
X63441336Y-49284751D01*
X63110249Y-48953664D01*
X62720932Y-48693530D01*
X62288345Y-48514347D01*
X61829114Y-48423000D01*
X61360886Y-48423000D01*
X60901655Y-48514347D01*
X60469068Y-48693530D01*
X60079751Y-48953664D01*
X59748664Y-49284751D01*
X59488530Y-49674068D01*
X59309347Y-50106655D01*
X59218000Y-50565886D01*
X32512000Y-50565886D01*
X32512000Y-48387000D01*
X66548000Y-48387000D01*
X66548000Y-76708000D01*
%TA.AperFunction,Conductor*%
D26*
G36*
X66548000Y-76708000D02*
G01*
X40640000Y-76708000D01*
X40615224Y-76710440D01*
X40591399Y-76717667D01*
X40569443Y-76729403D01*
X40550197Y-76745197D01*
X40534403Y-76764443D01*
X40522667Y-76786399D01*
X40515440Y-76810224D01*
X40513000Y-76835000D01*
X40513000Y-127000000D01*
X40515440Y-127024776D01*
X40522667Y-127048601D01*
X40534403Y-127070557D01*
X40550197Y-127089803D01*
X40569443Y-127105597D01*
X40591399Y-127117333D01*
X40615224Y-127124560D01*
X40640000Y-127127000D01*
X256413000Y-127127000D01*
X256413000Y-140843000D01*
X249555000Y-140843000D01*
X249530224Y-140845440D01*
X249506399Y-140852667D01*
X249484443Y-140864403D01*
X249465197Y-140880197D01*
X249449403Y-140899443D01*
X249437667Y-140921399D01*
X249430440Y-140945224D01*
X249428000Y-140970000D01*
X249428000Y-147828000D01*
X32512000Y-147828000D01*
X32512000Y-140970000D01*
X32509560Y-140945224D01*
X32502333Y-140921399D01*
X32490597Y-140899443D01*
X32474803Y-140880197D01*
X32455557Y-140864403D01*
X32433601Y-140852667D01*
X32409776Y-140845440D01*
X32385000Y-140843000D01*
X25527945Y-140843000D01*
X26161063Y-55372000D01*
X32385000Y-55372000D01*
X32409776Y-55369560D01*
X32433601Y-55362333D01*
X32455557Y-55350597D01*
X32474803Y-55334803D01*
X32490597Y-55315557D01*
X32502333Y-55293601D01*
X32509560Y-55269776D01*
X32512000Y-55245000D01*
X32512000Y-50565886D01*
X59218000Y-50565886D01*
X59218000Y-51034114D01*
X59309347Y-51493345D01*
X59488530Y-51925932D01*
X59748664Y-52315249D01*
X60079751Y-52646336D01*
X60469068Y-52906470D01*
X60901655Y-53085653D01*
X61360886Y-53177000D01*
X61829114Y-53177000D01*
X62288345Y-53085653D01*
X62720932Y-52906470D01*
X63110249Y-52646336D01*
X63441336Y-52315249D01*
X63701470Y-51925932D01*
X63880653Y-51493345D01*
X63972000Y-51034114D01*
X63972000Y-50565886D01*
X63880653Y-50106655D01*
X63701470Y-49674068D01*
X63441336Y-49284751D01*
X63110249Y-48953664D01*
X62720932Y-48693530D01*
X62288345Y-48514347D01*
X61829114Y-48423000D01*
X61360886Y-48423000D01*
X60901655Y-48514347D01*
X60469068Y-48693530D01*
X60079751Y-48953664D01*
X59748664Y-49284751D01*
X59488530Y-49674068D01*
X59309347Y-50106655D01*
X59218000Y-50565886D01*
X32512000Y-50565886D01*
X32512000Y-48387000D01*
X66548000Y-48387000D01*
X66548000Y-76708000D01*
G37*
%TD.AperFunction*%
%TD*%
M02*
