M48
; DRILL file {KiCad (5.1.12-1-10_14)} date Sunday, January 09, 2022 at 10:09:16 AM
; FORMAT={-:-/ absolute / inch / decimal}
; #@! TF.CreationDate,2022-01-09T10:09:16-08:00
; #@! TF.GenerationSoftware,Kicad,Pcbnew,(5.1.12-1-10_14)
; #@! TF.FileFunction,Plated,1,2,PTH
FMAT,2
INCH
T1C0.0157
T2C0.0315
T3C0.0394
T4C0.0433
T5C0.0472
T6C0.0598
%
G90
G05
T1
X1.675Y-3.125
X1.675Y-3.45
X2.65Y-3.275
X2.775Y-3.125
X2.775Y-3.45
X3.7Y-3.325
X3.825Y-3.125
X3.825Y-3.45
X4.525Y-3.125
X4.75Y-3.375
X4.8Y-3.525
X4.875Y-3.125
X4.875Y-3.45
X5.375Y-2.375
X5.475Y-2.425
X5.525Y-2.325
X5.575Y-2.475
X5.625Y-2.8
X5.725Y-2.825
X5.8Y-2.775
X5.85Y-3.525
X5.95Y-3.125
X5.95Y-3.45
X6.85Y-2.85
X6.925Y-3.525
X6.975Y-3.125
X6.975Y-3.45
X7.275Y-2.675
X7.325Y-2.275
X7.9Y-2.9
X7.975Y-2.35
X7.975Y-3.525
X8.025Y-3.125
X8.025Y-3.45
X8.1Y-2.9
X8.2Y-2.8695
X8.3Y-2.825
X8.4Y-2.775
X8.475Y-2.3
X8.5Y-3.375
X8.6Y-3.325
X8.7Y-3.275
X8.875Y-2.9
X9.0Y-3.525
X9.075Y-3.125
X9.075Y-3.45
T2
X7.975Y-2.2
X7.975Y-2.5
X8.0Y-2.675
X8.0Y-2.975
X8.075Y-2.2
X8.075Y-2.5
X8.1Y-2.675
X8.1Y-2.975
X8.175Y-2.2
X8.175Y-2.5
X8.2Y-2.675
X8.2Y-2.975
X8.275Y-2.2
X8.275Y-2.5
X8.3Y-2.675
X8.3Y-2.975
X8.375Y-2.2
X8.375Y-2.5
X8.4Y-2.675
X8.4Y-2.975
X8.475Y-2.2
X8.475Y-2.5
X8.5Y-2.675
X8.5Y-2.975
X8.575Y-2.2
X8.575Y-2.5
X8.6Y-2.675
X8.6Y-2.975
X8.675Y-2.2
X8.675Y-2.5
X8.7Y-2.675
X8.7Y-2.975
X8.775Y-2.2
X8.775Y-2.5
X8.95Y-2.675
X8.95Y-2.975
X9.05Y-2.675
X9.05Y-2.975
X9.15Y-2.675
X9.15Y-2.975
X9.25Y-2.675
X9.25Y-2.975
X9.35Y-2.675
X9.35Y-2.975
X9.45Y-2.675
X9.45Y-2.975
X9.55Y-2.675
X9.55Y-2.975
X9.65Y-2.675
X9.65Y-2.975
T3
X4.825Y-2.8
X4.825Y-2.9
X4.825Y-3.0
X5.375Y-2.05
X5.375Y-2.15
X5.475Y-2.05
X5.475Y-2.15
X5.575Y-2.05
X5.575Y-2.15
X5.675Y-2.05
X5.675Y-2.15
X5.775Y-2.05
X5.775Y-2.15
X5.875Y-2.05
X5.875Y-2.15
X5.975Y-2.05
X5.975Y-2.15
X6.075Y-2.05
X6.075Y-2.15
X6.175Y-2.05
X6.175Y-2.15
X6.275Y-2.05
X6.275Y-2.15
X6.375Y-2.05
X6.375Y-2.15
X6.475Y-2.05
X6.475Y-2.15
X6.575Y-2.05
X6.575Y-2.15
X6.675Y-2.05
X6.675Y-2.15
X6.775Y-2.05
X6.775Y-2.15
X6.875Y-2.05
X6.875Y-2.15
X6.975Y-2.05
X6.975Y-2.15
X7.075Y-2.05
X7.075Y-2.15
X7.175Y-2.05
X7.175Y-2.15
X7.275Y-2.05
X7.275Y-2.15
T4
X4.125Y-2.125
X4.225Y-2.125
X4.325Y-2.125
T5
X4.25Y-2.725
X4.25Y-2.9219
T6
X1.95Y-4.775
X2.025Y-2.0
X2.35Y-4.775
X2.425Y-2.0
X2.825Y-2.0
X3.0Y-4.775
X3.075Y-2.0
X3.275Y-2.0
X3.4Y-4.775
X4.05Y-4.775
X4.45Y-4.775
X5.1Y-4.775
X5.5Y-4.775
X6.15Y-4.775
X6.55Y-4.775
X7.2Y-4.775
X7.6Y-4.775
X8.25Y-4.775
X8.65Y-4.775
X9.3Y-4.775
X9.7Y-4.775
T3
G00X1.8337Y-4.335
M15
G01X1.8337Y-4.1382
M16
G05
G00X1.8297Y-3.5343
M15
G01X2.0266Y-3.5343
M16
G05
G00X1.8297Y-3.7189
M15
G01X2.0266Y-3.7189
M16
G05
G00X1.8297Y-3.9512
M15
G01X2.0266Y-3.9512
M16
G05
G00X2.2234Y-3.5335
M15
G01X2.4203Y-3.5335
M16
G05
G00X2.2234Y-3.7189
M15
G01X2.4203Y-3.7189
M16
G05
G00X2.2234Y-3.9512
M15
G01X2.4203Y-3.9512
M16
G05
G00X2.4163Y-4.335
M15
G01X2.4163Y-4.1382
M16
G05
G00X2.8837Y-4.335
M15
G01X2.8837Y-4.1382
M16
G05
G00X2.8797Y-3.5343
M15
G01X3.0766Y-3.5343
M16
G05
G00X2.8797Y-3.7189
M15
G01X3.0766Y-3.7189
M16
G05
G00X2.8797Y-3.9512
M15
G01X3.0766Y-3.9512
M16
G05
G00X3.2734Y-3.5335
M15
G01X3.4703Y-3.5335
M16
G05
G00X3.2734Y-3.7189
M15
G01X3.4703Y-3.7189
M16
G05
G00X3.2734Y-3.9512
M15
G01X3.4703Y-3.9512
M16
G05
G00X3.4663Y-4.335
M15
G01X3.4663Y-4.1382
M16
G05
G00X3.9337Y-4.335
M15
G01X3.9337Y-4.1382
M16
G05
G00X3.9297Y-3.5343
M15
G01X4.1266Y-3.5343
M16
G05
G00X3.9297Y-3.7189
M15
G01X4.1266Y-3.7189
M16
G05
G00X3.9297Y-3.9512
M15
G01X4.1266Y-3.9512
M16
G05
G00X4.3234Y-3.5335
M15
G01X4.5203Y-3.5335
M16
G05
G00X4.3234Y-3.7189
M15
G01X4.5203Y-3.7189
M16
G05
G00X4.3234Y-3.9512
M15
G01X4.5203Y-3.9512
M16
G05
G00X4.5163Y-4.335
M15
G01X4.5163Y-4.1382
M16
G05
G00X4.9837Y-4.335
M15
G01X4.9837Y-4.1382
M16
G05
G00X4.9797Y-3.5343
M15
G01X5.1766Y-3.5343
M16
G05
G00X4.9797Y-3.7189
M15
G01X5.1766Y-3.7189
M16
G05
G00X4.9797Y-3.9512
M15
G01X5.1766Y-3.9512
M16
G05
G00X5.3734Y-3.5335
M15
G01X5.5703Y-3.5335
M16
G05
G00X5.3734Y-3.7189
M15
G01X5.5703Y-3.7189
M16
G05
G00X5.3734Y-3.9512
M15
G01X5.5703Y-3.9512
M16
G05
G00X5.5663Y-4.335
M15
G01X5.5663Y-4.1382
M16
G05
G00X6.0337Y-4.335
M15
G01X6.0337Y-4.1382
M16
G05
G00X6.0297Y-3.5343
M15
G01X6.2266Y-3.5343
M16
G05
G00X6.0297Y-3.7189
M15
G01X6.2266Y-3.7189
M16
G05
G00X6.0297Y-3.9512
M15
G01X6.2266Y-3.9512
M16
G05
G00X6.4234Y-3.5335
M15
G01X6.6203Y-3.5335
M16
G05
G00X6.4234Y-3.7189
M15
G01X6.6203Y-3.7189
M16
G05
G00X6.4234Y-3.9512
M15
G01X6.6203Y-3.9512
M16
G05
G00X6.6163Y-4.335
M15
G01X6.6163Y-4.1382
M16
G05
G00X7.0837Y-4.335
M15
G01X7.0837Y-4.1382
M16
G05
G00X7.0797Y-3.5343
M15
G01X7.2766Y-3.5343
M16
G05
G00X7.0797Y-3.7189
M15
G01X7.2766Y-3.7189
M16
G05
G00X7.0797Y-3.9512
M15
G01X7.2766Y-3.9512
M16
G05
G00X7.4734Y-3.5335
M15
G01X7.6703Y-3.5335
M16
G05
G00X7.4734Y-3.7189
M15
G01X7.6703Y-3.7189
M16
G05
G00X7.4734Y-3.9512
M15
G01X7.6703Y-3.9512
M16
G05
G00X7.6663Y-4.335
M15
G01X7.6663Y-4.1382
M16
G05
G00X8.1337Y-4.335
M15
G01X8.1337Y-4.1382
M16
G05
G00X8.1297Y-3.5343
M15
G01X8.3266Y-3.5343
M16
G05
G00X8.1297Y-3.7189
M15
G01X8.3266Y-3.7189
M16
G05
G00X8.1297Y-3.9512
M15
G01X8.3266Y-3.9512
M16
G05
G00X8.5234Y-3.5335
M15
G01X8.7203Y-3.5335
M16
G05
G00X8.5234Y-3.7189
M15
G01X8.7203Y-3.7189
M16
G05
G00X8.5234Y-3.9512
M15
G01X8.7203Y-3.9512
M16
G05
G00X8.7163Y-4.335
M15
G01X8.7163Y-4.1382
M16
G05
G00X9.1837Y-4.335
M15
G01X9.1837Y-4.1382
M16
G05
G00X9.1797Y-3.5343
M15
G01X9.3766Y-3.5343
M16
G05
G00X9.1797Y-3.7189
M15
G01X9.3766Y-3.7189
M16
G05
G00X9.1797Y-3.9512
M15
G01X9.3766Y-3.9512
M16
G05
G00X9.5734Y-3.5335
M15
G01X9.7703Y-3.5335
M16
G05
G00X9.5734Y-3.7189
M15
G01X9.7703Y-3.7189
M16
G05
G00X9.5734Y-3.9512
M15
G01X9.7703Y-3.9512
M16
G05
G00X9.7663Y-4.335
M15
G01X9.7663Y-4.1382
M16
G05
T0
M30
