%TF.GenerationSoftware,KiCad,Pcbnew,(5.1.12-1-10_14)*%
%TF.CreationDate,2022-01-08T14:55:46-08:00*%
%TF.ProjectId,RPI_Remote_Power_Controller,5250495f-5265-46d6-9f74-655f506f7765,0.1*%
%TF.SameCoordinates,Original*%
%TF.FileFunction,Legend,Top*%
%TF.FilePolarity,Positive*%
%FSLAX46Y46*%
G04 Gerber Fmt 4.6, Leading zero omitted, Abs format (unit mm)*
G04 Created by KiCad (PCBNEW (5.1.12-1-10_14)) date 2022-01-08 14:55:46*
%MOMM*%
%LPD*%
G01*
G04 APERTURE LIST*
%ADD10C,0.300000*%
%ADD11C,0.150000*%
%ADD12C,0.100000*%
%ADD13C,0.381000*%
%ADD14C,0.120000*%
G04 APERTURE END LIST*
D10*
X56974642Y-57193571D02*
X57162142Y-55693571D01*
X57831785Y-57193571D01*
X58019285Y-55693571D01*
X58644285Y-56407857D02*
X59144285Y-56407857D01*
X59260357Y-57193571D02*
X58546071Y-57193571D01*
X58733571Y-55693571D01*
X59447857Y-55693571D01*
X60090714Y-55693571D02*
X59938928Y-56907857D01*
X59992500Y-57050714D01*
X60055000Y-57122142D01*
X60188928Y-57193571D01*
X60474642Y-57193571D01*
X60626428Y-57122142D01*
X60706785Y-57050714D01*
X60796071Y-56907857D01*
X60947857Y-55693571D01*
X61447857Y-55693571D02*
X62305000Y-55693571D01*
X61688928Y-57193571D02*
X61876428Y-55693571D01*
X63474642Y-57193571D02*
X63063928Y-56479285D01*
X62617500Y-57193571D02*
X62805000Y-55693571D01*
X63376428Y-55693571D01*
X63510357Y-55765000D01*
X63572857Y-55836428D01*
X63626428Y-55979285D01*
X63599642Y-56193571D01*
X63510357Y-56336428D01*
X63430000Y-56407857D01*
X63278214Y-56479285D01*
X62706785Y-56479285D01*
X64099642Y-56765000D02*
X64813928Y-56765000D01*
X63903214Y-57193571D02*
X64590714Y-55693571D01*
X64903214Y-57193571D01*
X66117500Y-57193571D02*
X65403214Y-57193571D01*
X65590714Y-55693571D01*
X49493214Y-57193571D02*
X49680714Y-55693571D01*
X49591428Y-56407857D02*
X50448571Y-56407857D01*
X50350357Y-57193571D02*
X50537857Y-55693571D01*
X51537857Y-55693571D02*
X51823571Y-55693571D01*
X51957500Y-55765000D01*
X52082500Y-55907857D01*
X52118214Y-56193571D01*
X52055714Y-56693571D01*
X51948571Y-56979285D01*
X51787857Y-57122142D01*
X51636071Y-57193571D01*
X51350357Y-57193571D01*
X51216428Y-57122142D01*
X51091428Y-56979285D01*
X51055714Y-56693571D01*
X51118214Y-56193571D01*
X51225357Y-55907857D01*
X51386071Y-55765000D01*
X51537857Y-55693571D01*
X52609285Y-55693571D02*
X53466428Y-55693571D01*
X52850357Y-57193571D02*
X53037857Y-55693571D01*
D11*
X136558928Y-64318571D02*
X136701785Y-64366190D01*
X136749404Y-64413809D01*
X136797023Y-64509047D01*
X136797023Y-64651904D01*
X136749404Y-64747142D01*
X136701785Y-64794761D01*
X136606547Y-64842380D01*
X136225595Y-64842380D01*
X136225595Y-63842380D01*
X136558928Y-63842380D01*
X136654166Y-63890000D01*
X136701785Y-63937619D01*
X136749404Y-64032857D01*
X136749404Y-64128095D01*
X136701785Y-64223333D01*
X136654166Y-64270952D01*
X136558928Y-64318571D01*
X136225595Y-64318571D01*
X137654166Y-64842380D02*
X137654166Y-64318571D01*
X137606547Y-64223333D01*
X137511309Y-64175714D01*
X137320833Y-64175714D01*
X137225595Y-64223333D01*
X137654166Y-64794761D02*
X137558928Y-64842380D01*
X137320833Y-64842380D01*
X137225595Y-64794761D01*
X137177976Y-64699523D01*
X137177976Y-64604285D01*
X137225595Y-64509047D01*
X137320833Y-64461428D01*
X137558928Y-64461428D01*
X137654166Y-64413809D01*
X138130357Y-64175714D02*
X138130357Y-64842380D01*
X138130357Y-64270952D02*
X138177976Y-64223333D01*
X138273214Y-64175714D01*
X138416071Y-64175714D01*
X138511309Y-64223333D01*
X138558928Y-64318571D01*
X138558928Y-64842380D01*
X139463690Y-64842380D02*
X139463690Y-64318571D01*
X139416071Y-64223333D01*
X139320833Y-64175714D01*
X139130357Y-64175714D01*
X139035119Y-64223333D01*
X139463690Y-64794761D02*
X139368452Y-64842380D01*
X139130357Y-64842380D01*
X139035119Y-64794761D01*
X138987500Y-64699523D01*
X138987500Y-64604285D01*
X139035119Y-64509047D01*
X139130357Y-64461428D01*
X139368452Y-64461428D01*
X139463690Y-64413809D01*
X139939880Y-64175714D02*
X139939880Y-64842380D01*
X139939880Y-64270952D02*
X139987500Y-64223333D01*
X140082738Y-64175714D01*
X140225595Y-64175714D01*
X140320833Y-64223333D01*
X140368452Y-64318571D01*
X140368452Y-64842380D01*
X141273214Y-64842380D02*
X141273214Y-64318571D01*
X141225595Y-64223333D01*
X141130357Y-64175714D01*
X140939880Y-64175714D01*
X140844642Y-64223333D01*
X141273214Y-64794761D02*
X141177976Y-64842380D01*
X140939880Y-64842380D01*
X140844642Y-64794761D01*
X140797023Y-64699523D01*
X140797023Y-64604285D01*
X140844642Y-64509047D01*
X140939880Y-64461428D01*
X141177976Y-64461428D01*
X141273214Y-64413809D01*
X142511309Y-64842380D02*
X142511309Y-63842380D01*
X142892261Y-63842380D01*
X142987500Y-63890000D01*
X143035119Y-63937619D01*
X143082738Y-64032857D01*
X143082738Y-64175714D01*
X143035119Y-64270952D01*
X142987500Y-64318571D01*
X142892261Y-64366190D01*
X142511309Y-64366190D01*
X143511309Y-64842380D02*
X143511309Y-64175714D01*
X143511309Y-63842380D02*
X143463690Y-63890000D01*
X143511309Y-63937619D01*
X143558928Y-63890000D01*
X143511309Y-63842380D01*
X143511309Y-63937619D01*
X144749404Y-64842380D02*
X144749404Y-63842380D01*
X145082738Y-64556666D01*
X145416071Y-63842380D01*
X145416071Y-64842380D01*
X145844642Y-63937619D02*
X145892261Y-63890000D01*
X145987500Y-63842380D01*
X146225595Y-63842380D01*
X146320833Y-63890000D01*
X146368452Y-63937619D01*
X146416071Y-64032857D01*
X146416071Y-64128095D01*
X146368452Y-64270952D01*
X145797023Y-64842380D01*
X146416071Y-64842380D01*
X147511309Y-63842380D02*
X148177976Y-63842380D01*
X147511309Y-64842380D01*
X148177976Y-64842380D01*
X148939880Y-64794761D02*
X148844642Y-64842380D01*
X148654166Y-64842380D01*
X148558928Y-64794761D01*
X148511309Y-64699523D01*
X148511309Y-64318571D01*
X148558928Y-64223333D01*
X148654166Y-64175714D01*
X148844642Y-64175714D01*
X148939880Y-64223333D01*
X148987500Y-64318571D01*
X148987500Y-64413809D01*
X148511309Y-64509047D01*
X149416071Y-64842380D02*
X149416071Y-64175714D01*
X149416071Y-64366190D02*
X149463690Y-64270952D01*
X149511309Y-64223333D01*
X149606547Y-64175714D01*
X149701785Y-64175714D01*
X150177976Y-64842380D02*
X150082738Y-64794761D01*
X150035119Y-64747142D01*
X149987500Y-64651904D01*
X149987500Y-64366190D01*
X150035119Y-64270952D01*
X150082738Y-64223333D01*
X150177976Y-64175714D01*
X150320833Y-64175714D01*
X150416071Y-64223333D01*
X150463690Y-64270952D01*
X150511309Y-64366190D01*
X150511309Y-64651904D01*
X150463690Y-64747142D01*
X150416071Y-64794761D01*
X150320833Y-64842380D01*
X150177976Y-64842380D01*
X152130357Y-64794761D02*
X152035119Y-64842380D01*
X151844642Y-64842380D01*
X151749404Y-64794761D01*
X151701785Y-64747142D01*
X151654166Y-64651904D01*
X151654166Y-64366190D01*
X151701785Y-64270952D01*
X151749404Y-64223333D01*
X151844642Y-64175714D01*
X152035119Y-64175714D01*
X152130357Y-64223333D01*
X152987500Y-64842380D02*
X152987500Y-64318571D01*
X152939880Y-64223333D01*
X152844642Y-64175714D01*
X152654166Y-64175714D01*
X152558928Y-64223333D01*
X152987500Y-64794761D02*
X152892261Y-64842380D01*
X152654166Y-64842380D01*
X152558928Y-64794761D01*
X152511309Y-64699523D01*
X152511309Y-64604285D01*
X152558928Y-64509047D01*
X152654166Y-64461428D01*
X152892261Y-64461428D01*
X152987500Y-64413809D01*
X153463690Y-64175714D02*
X153463690Y-64842380D01*
X153463690Y-64270952D02*
X153511309Y-64223333D01*
X153606547Y-64175714D01*
X153749404Y-64175714D01*
X153844642Y-64223333D01*
X153892261Y-64318571D01*
X153892261Y-64842380D01*
X155082738Y-64794761D02*
X155177976Y-64842380D01*
X155368452Y-64842380D01*
X155463690Y-64794761D01*
X155511309Y-64699523D01*
X155511309Y-64651904D01*
X155463690Y-64556666D01*
X155368452Y-64509047D01*
X155225595Y-64509047D01*
X155130357Y-64461428D01*
X155082738Y-64366190D01*
X155082738Y-64318571D01*
X155130357Y-64223333D01*
X155225595Y-64175714D01*
X155368452Y-64175714D01*
X155463690Y-64223333D01*
X156368452Y-64175714D02*
X156368452Y-64842380D01*
X155939880Y-64175714D02*
X155939880Y-64699523D01*
X155987500Y-64794761D01*
X156082738Y-64842380D01*
X156225595Y-64842380D01*
X156320833Y-64794761D01*
X156368452Y-64747142D01*
X156844642Y-64842380D02*
X156844642Y-63842380D01*
X156844642Y-64223333D02*
X156939880Y-64175714D01*
X157130357Y-64175714D01*
X157225595Y-64223333D01*
X157273214Y-64270952D01*
X157320833Y-64366190D01*
X157320833Y-64651904D01*
X157273214Y-64747142D01*
X157225595Y-64794761D01*
X157130357Y-64842380D01*
X156939880Y-64842380D01*
X156844642Y-64794761D01*
X157701785Y-64794761D02*
X157797023Y-64842380D01*
X157987500Y-64842380D01*
X158082738Y-64794761D01*
X158130357Y-64699523D01*
X158130357Y-64651904D01*
X158082738Y-64556666D01*
X157987500Y-64509047D01*
X157844642Y-64509047D01*
X157749404Y-64461428D01*
X157701785Y-64366190D01*
X157701785Y-64318571D01*
X157749404Y-64223333D01*
X157844642Y-64175714D01*
X157987500Y-64175714D01*
X158082738Y-64223333D01*
X158416071Y-64175714D02*
X158797023Y-64175714D01*
X158558928Y-63842380D02*
X158558928Y-64699523D01*
X158606547Y-64794761D01*
X158701785Y-64842380D01*
X158797023Y-64842380D01*
X159130357Y-64842380D02*
X159130357Y-64175714D01*
X159130357Y-63842380D02*
X159082738Y-63890000D01*
X159130357Y-63937619D01*
X159177976Y-63890000D01*
X159130357Y-63842380D01*
X159130357Y-63937619D01*
X159463690Y-64175714D02*
X159844642Y-64175714D01*
X159606547Y-63842380D02*
X159606547Y-64699523D01*
X159654166Y-64794761D01*
X159749404Y-64842380D01*
X159844642Y-64842380D01*
X160606547Y-64175714D02*
X160606547Y-64842380D01*
X160177976Y-64175714D02*
X160177976Y-64699523D01*
X160225595Y-64794761D01*
X160320833Y-64842380D01*
X160463690Y-64842380D01*
X160558928Y-64794761D01*
X160606547Y-64747142D01*
X160939880Y-64175714D02*
X161320833Y-64175714D01*
X161082738Y-63842380D02*
X161082738Y-64699523D01*
X161130357Y-64794761D01*
X161225595Y-64842380D01*
X161320833Y-64842380D01*
X162035119Y-64794761D02*
X161939880Y-64842380D01*
X161749404Y-64842380D01*
X161654166Y-64794761D01*
X161606547Y-64699523D01*
X161606547Y-64318571D01*
X161654166Y-64223333D01*
X161749404Y-64175714D01*
X161939880Y-64175714D01*
X162035119Y-64223333D01*
X162082738Y-64318571D01*
X162082738Y-64413809D01*
X161606547Y-64509047D01*
X163130357Y-64175714D02*
X163511309Y-64175714D01*
X163273214Y-64842380D02*
X163273214Y-63985238D01*
X163320833Y-63890000D01*
X163416071Y-63842380D01*
X163511309Y-63842380D01*
X163987500Y-64842380D02*
X163892261Y-64794761D01*
X163844642Y-64747142D01*
X163797023Y-64651904D01*
X163797023Y-64366190D01*
X163844642Y-64270952D01*
X163892261Y-64223333D01*
X163987500Y-64175714D01*
X164130357Y-64175714D01*
X164225595Y-64223333D01*
X164273214Y-64270952D01*
X164320833Y-64366190D01*
X164320833Y-64651904D01*
X164273214Y-64747142D01*
X164225595Y-64794761D01*
X164130357Y-64842380D01*
X163987500Y-64842380D01*
X164749404Y-64842380D02*
X164749404Y-64175714D01*
X164749404Y-64366190D02*
X164797023Y-64270952D01*
X164844642Y-64223333D01*
X164939880Y-64175714D01*
X165035119Y-64175714D01*
X165987500Y-64175714D02*
X166368452Y-64175714D01*
X166130357Y-63842380D02*
X166130357Y-64699523D01*
X166177976Y-64794761D01*
X166273214Y-64842380D01*
X166368452Y-64842380D01*
X166701785Y-64842380D02*
X166701785Y-63842380D01*
X167130357Y-64842380D02*
X167130357Y-64318571D01*
X167082738Y-64223333D01*
X166987499Y-64175714D01*
X166844642Y-64175714D01*
X166749404Y-64223333D01*
X166701785Y-64270952D01*
X167987499Y-64794761D02*
X167892261Y-64842380D01*
X167701785Y-64842380D01*
X167606547Y-64794761D01*
X167558928Y-64699523D01*
X167558928Y-64318571D01*
X167606547Y-64223333D01*
X167701785Y-64175714D01*
X167892261Y-64175714D01*
X167987499Y-64223333D01*
X168035119Y-64318571D01*
X168035119Y-64413809D01*
X167558928Y-64509047D01*
X169797023Y-64842380D02*
X169463690Y-64366190D01*
X169225595Y-64842380D02*
X169225595Y-63842380D01*
X169606547Y-63842380D01*
X169701785Y-63890000D01*
X169749404Y-63937619D01*
X169797023Y-64032857D01*
X169797023Y-64175714D01*
X169749404Y-64270952D01*
X169701785Y-64318571D01*
X169606547Y-64366190D01*
X169225595Y-64366190D01*
X170654166Y-64842380D02*
X170654166Y-64318571D01*
X170606547Y-64223333D01*
X170511309Y-64175714D01*
X170320833Y-64175714D01*
X170225595Y-64223333D01*
X170654166Y-64794761D02*
X170558928Y-64842380D01*
X170320833Y-64842380D01*
X170225595Y-64794761D01*
X170177976Y-64699523D01*
X170177976Y-64604285D01*
X170225595Y-64509047D01*
X170320833Y-64461428D01*
X170558928Y-64461428D01*
X170654166Y-64413809D01*
X171082738Y-64794761D02*
X171177976Y-64842380D01*
X171368452Y-64842380D01*
X171463690Y-64794761D01*
X171511309Y-64699523D01*
X171511309Y-64651904D01*
X171463690Y-64556666D01*
X171368452Y-64509047D01*
X171225595Y-64509047D01*
X171130357Y-64461428D01*
X171082738Y-64366190D01*
X171082738Y-64318571D01*
X171130357Y-64223333D01*
X171225595Y-64175714D01*
X171368452Y-64175714D01*
X171463690Y-64223333D01*
X171939880Y-64175714D02*
X171939880Y-65175714D01*
X171939880Y-64223333D02*
X172035119Y-64175714D01*
X172225595Y-64175714D01*
X172320833Y-64223333D01*
X172368452Y-64270952D01*
X172416071Y-64366190D01*
X172416071Y-64651904D01*
X172368452Y-64747142D01*
X172320833Y-64794761D01*
X172225595Y-64842380D01*
X172035119Y-64842380D01*
X171939880Y-64794761D01*
X172844642Y-64842380D02*
X172844642Y-63842380D01*
X172844642Y-64223333D02*
X172939880Y-64175714D01*
X173130357Y-64175714D01*
X173225595Y-64223333D01*
X173273214Y-64270952D01*
X173320833Y-64366190D01*
X173320833Y-64651904D01*
X173273214Y-64747142D01*
X173225595Y-64794761D01*
X173130357Y-64842380D01*
X172939880Y-64842380D01*
X172844642Y-64794761D01*
X174130357Y-64794761D02*
X174035119Y-64842380D01*
X173844642Y-64842380D01*
X173749404Y-64794761D01*
X173701785Y-64699523D01*
X173701785Y-64318571D01*
X173749404Y-64223333D01*
X173844642Y-64175714D01*
X174035119Y-64175714D01*
X174130357Y-64223333D01*
X174177976Y-64318571D01*
X174177976Y-64413809D01*
X173701785Y-64509047D01*
X174606547Y-64842380D02*
X174606547Y-64175714D01*
X174606547Y-64366190D02*
X174654166Y-64270952D01*
X174701785Y-64223333D01*
X174797023Y-64175714D01*
X174892261Y-64175714D01*
X175225595Y-64842380D02*
X175225595Y-64175714D01*
X175225595Y-64366190D02*
X175273214Y-64270952D01*
X175320833Y-64223333D01*
X175416071Y-64175714D01*
X175511309Y-64175714D01*
X175749404Y-64175714D02*
X175987499Y-64842380D01*
X176225595Y-64175714D02*
X175987499Y-64842380D01*
X175892261Y-65080476D01*
X175844642Y-65128095D01*
X175749404Y-65175714D01*
X177368452Y-64842380D02*
X177368452Y-63842380D01*
X177749404Y-63842380D01*
X177844642Y-63890000D01*
X177892261Y-63937619D01*
X177939880Y-64032857D01*
X177939880Y-64175714D01*
X177892261Y-64270952D01*
X177844642Y-64318571D01*
X177749404Y-64366190D01*
X177368452Y-64366190D01*
X178368452Y-64842380D02*
X178368452Y-64175714D01*
X178368452Y-63842380D02*
X178320833Y-63890000D01*
X178368452Y-63937619D01*
X178416071Y-63890000D01*
X178368452Y-63842380D01*
X178368452Y-63937619D01*
X179511309Y-63842380D02*
X180177976Y-63842380D01*
X179511309Y-64842380D01*
X180177976Y-64842380D01*
X180939880Y-64794761D02*
X180844642Y-64842380D01*
X180654166Y-64842380D01*
X180558928Y-64794761D01*
X180511309Y-64699523D01*
X180511309Y-64318571D01*
X180558928Y-64223333D01*
X180654166Y-64175714D01*
X180844642Y-64175714D01*
X180939880Y-64223333D01*
X180987499Y-64318571D01*
X180987499Y-64413809D01*
X180511309Y-64509047D01*
X181416071Y-64842380D02*
X181416071Y-64175714D01*
X181416071Y-64366190D02*
X181463690Y-64270952D01*
X181511309Y-64223333D01*
X181606547Y-64175714D01*
X181701785Y-64175714D01*
X182177976Y-64842380D02*
X182082738Y-64794761D01*
X182035119Y-64747142D01*
X181987499Y-64651904D01*
X181987499Y-64366190D01*
X182035119Y-64270952D01*
X182082738Y-64223333D01*
X182177976Y-64175714D01*
X182320833Y-64175714D01*
X182416071Y-64223333D01*
X182463690Y-64270952D01*
X182511309Y-64366190D01*
X182511309Y-64651904D01*
X182463690Y-64747142D01*
X182416071Y-64794761D01*
X182320833Y-64842380D01*
X182177976Y-64842380D01*
X183606547Y-63842380D02*
X183844642Y-64842380D01*
X184035119Y-64128095D01*
X184225595Y-64842380D01*
X184463690Y-63842380D01*
X184844642Y-64747142D02*
X184892261Y-64794761D01*
X184844642Y-64842380D01*
X184797023Y-64794761D01*
X184844642Y-64747142D01*
X184844642Y-64842380D01*
X136558928Y-65968571D02*
X136225595Y-65968571D01*
X136225595Y-66492380D02*
X136225595Y-65492380D01*
X136701785Y-65492380D01*
X137225595Y-66492380D02*
X137130357Y-66444761D01*
X137082738Y-66397142D01*
X137035119Y-66301904D01*
X137035119Y-66016190D01*
X137082738Y-65920952D01*
X137130357Y-65873333D01*
X137225595Y-65825714D01*
X137368452Y-65825714D01*
X137463690Y-65873333D01*
X137511309Y-65920952D01*
X137558928Y-66016190D01*
X137558928Y-66301904D01*
X137511309Y-66397142D01*
X137463690Y-66444761D01*
X137368452Y-66492380D01*
X137225595Y-66492380D01*
X137987500Y-66492380D02*
X137987500Y-65825714D01*
X137987500Y-66016190D02*
X138035119Y-65920952D01*
X138082738Y-65873333D01*
X138177976Y-65825714D01*
X138273214Y-65825714D01*
X139225595Y-65825714D02*
X139606547Y-65825714D01*
X139368452Y-65492380D02*
X139368452Y-66349523D01*
X139416071Y-66444761D01*
X139511309Y-66492380D01*
X139606547Y-66492380D01*
X139939880Y-66492380D02*
X139939880Y-65492380D01*
X140368452Y-66492380D02*
X140368452Y-65968571D01*
X140320833Y-65873333D01*
X140225595Y-65825714D01*
X140082738Y-65825714D01*
X139987500Y-65873333D01*
X139939880Y-65920952D01*
X141225595Y-66444761D02*
X141130357Y-66492380D01*
X140939880Y-66492380D01*
X140844642Y-66444761D01*
X140797023Y-66349523D01*
X140797023Y-65968571D01*
X140844642Y-65873333D01*
X140939880Y-65825714D01*
X141130357Y-65825714D01*
X141225595Y-65873333D01*
X141273214Y-65968571D01*
X141273214Y-66063809D01*
X140797023Y-66159047D01*
X142797023Y-65968571D02*
X142939880Y-66016190D01*
X142987500Y-66063809D01*
X143035119Y-66159047D01*
X143035119Y-66301904D01*
X142987500Y-66397142D01*
X142939880Y-66444761D01*
X142844642Y-66492380D01*
X142463690Y-66492380D01*
X142463690Y-65492380D01*
X142797023Y-65492380D01*
X142892261Y-65540000D01*
X142939880Y-65587619D01*
X142987500Y-65682857D01*
X142987500Y-65778095D01*
X142939880Y-65873333D01*
X142892261Y-65920952D01*
X142797023Y-65968571D01*
X142463690Y-65968571D01*
X143892261Y-66492380D02*
X143892261Y-65968571D01*
X143844642Y-65873333D01*
X143749404Y-65825714D01*
X143558928Y-65825714D01*
X143463690Y-65873333D01*
X143892261Y-66444761D02*
X143797023Y-66492380D01*
X143558928Y-66492380D01*
X143463690Y-66444761D01*
X143416071Y-66349523D01*
X143416071Y-66254285D01*
X143463690Y-66159047D01*
X143558928Y-66111428D01*
X143797023Y-66111428D01*
X143892261Y-66063809D01*
X144368452Y-65825714D02*
X144368452Y-66492380D01*
X144368452Y-65920952D02*
X144416071Y-65873333D01*
X144511309Y-65825714D01*
X144654166Y-65825714D01*
X144749404Y-65873333D01*
X144797023Y-65968571D01*
X144797023Y-66492380D01*
X145701785Y-66492380D02*
X145701785Y-65968571D01*
X145654166Y-65873333D01*
X145558928Y-65825714D01*
X145368452Y-65825714D01*
X145273214Y-65873333D01*
X145701785Y-66444761D02*
X145606547Y-66492380D01*
X145368452Y-66492380D01*
X145273214Y-66444761D01*
X145225595Y-66349523D01*
X145225595Y-66254285D01*
X145273214Y-66159047D01*
X145368452Y-66111428D01*
X145606547Y-66111428D01*
X145701785Y-66063809D01*
X146177976Y-65825714D02*
X146177976Y-66492380D01*
X146177976Y-65920952D02*
X146225595Y-65873333D01*
X146320833Y-65825714D01*
X146463690Y-65825714D01*
X146558928Y-65873333D01*
X146606547Y-65968571D01*
X146606547Y-66492380D01*
X147511309Y-66492380D02*
X147511309Y-65968571D01*
X147463690Y-65873333D01*
X147368452Y-65825714D01*
X147177976Y-65825714D01*
X147082738Y-65873333D01*
X147511309Y-66444761D02*
X147416071Y-66492380D01*
X147177976Y-66492380D01*
X147082738Y-66444761D01*
X147035119Y-66349523D01*
X147035119Y-66254285D01*
X147082738Y-66159047D01*
X147177976Y-66111428D01*
X147416071Y-66111428D01*
X147511309Y-66063809D01*
X148749404Y-66492380D02*
X148749404Y-65492380D01*
X149130357Y-65492380D01*
X149225595Y-65540000D01*
X149273214Y-65587619D01*
X149320833Y-65682857D01*
X149320833Y-65825714D01*
X149273214Y-65920952D01*
X149225595Y-65968571D01*
X149130357Y-66016190D01*
X148749404Y-66016190D01*
X149749404Y-66492380D02*
X149749404Y-65825714D01*
X149749404Y-65492380D02*
X149701785Y-65540000D01*
X149749404Y-65587619D01*
X149797023Y-65540000D01*
X149749404Y-65492380D01*
X149749404Y-65587619D01*
X150273214Y-66444761D02*
X150273214Y-66492380D01*
X150225595Y-66587619D01*
X150177976Y-66635238D01*
X151892261Y-65825714D02*
X151892261Y-66492380D01*
X151463690Y-65825714D02*
X151463690Y-66349523D01*
X151511309Y-66444761D01*
X151606547Y-66492380D01*
X151749404Y-66492380D01*
X151844642Y-66444761D01*
X151892261Y-66397142D01*
X152320833Y-66444761D02*
X152416071Y-66492380D01*
X152606547Y-66492380D01*
X152701785Y-66444761D01*
X152749404Y-66349523D01*
X152749404Y-66301904D01*
X152701785Y-66206666D01*
X152606547Y-66159047D01*
X152463690Y-66159047D01*
X152368452Y-66111428D01*
X152320833Y-66016190D01*
X152320833Y-65968571D01*
X152368452Y-65873333D01*
X152463690Y-65825714D01*
X152606547Y-65825714D01*
X152701785Y-65873333D01*
X153558928Y-66444761D02*
X153463690Y-66492380D01*
X153273214Y-66492380D01*
X153177976Y-66444761D01*
X153130357Y-66349523D01*
X153130357Y-65968571D01*
X153177976Y-65873333D01*
X153273214Y-65825714D01*
X153463690Y-65825714D01*
X153558928Y-65873333D01*
X153606547Y-65968571D01*
X153606547Y-66063809D01*
X153130357Y-66159047D01*
X154654166Y-65825714D02*
X155035119Y-65825714D01*
X154797023Y-65492380D02*
X154797023Y-66349523D01*
X154844642Y-66444761D01*
X154939880Y-66492380D01*
X155035119Y-66492380D01*
X155368452Y-66492380D02*
X155368452Y-65492380D01*
X155797023Y-66492380D02*
X155797023Y-65968571D01*
X155749404Y-65873333D01*
X155654166Y-65825714D01*
X155511309Y-65825714D01*
X155416071Y-65873333D01*
X155368452Y-65920952D01*
X156654166Y-66444761D02*
X156558928Y-66492380D01*
X156368452Y-66492380D01*
X156273214Y-66444761D01*
X156225595Y-66349523D01*
X156225595Y-65968571D01*
X156273214Y-65873333D01*
X156368452Y-65825714D01*
X156558928Y-65825714D01*
X156654166Y-65873333D01*
X156701785Y-65968571D01*
X156701785Y-66063809D01*
X156225595Y-66159047D01*
X158035119Y-66492380D02*
X157939880Y-66444761D01*
X157892261Y-66397142D01*
X157844642Y-66301904D01*
X157844642Y-66016190D01*
X157892261Y-65920952D01*
X157939880Y-65873333D01*
X158035119Y-65825714D01*
X158177976Y-65825714D01*
X158273214Y-65873333D01*
X158320833Y-65920952D01*
X158368452Y-66016190D01*
X158368452Y-66301904D01*
X158320833Y-66397142D01*
X158273214Y-66444761D01*
X158177976Y-66492380D01*
X158035119Y-66492380D01*
X158797023Y-65825714D02*
X158797023Y-66492380D01*
X158797023Y-65920952D02*
X158844642Y-65873333D01*
X158939880Y-65825714D01*
X159082738Y-65825714D01*
X159177976Y-65873333D01*
X159225595Y-65968571D01*
X159225595Y-66492380D01*
X159701785Y-66111428D02*
X160463690Y-66111428D01*
X160939880Y-66492380D02*
X160939880Y-65492380D01*
X160939880Y-65873333D02*
X161035119Y-65825714D01*
X161225595Y-65825714D01*
X161320833Y-65873333D01*
X161368452Y-65920952D01*
X161416071Y-66016190D01*
X161416071Y-66301904D01*
X161368452Y-66397142D01*
X161320833Y-66444761D01*
X161225595Y-66492380D01*
X161035119Y-66492380D01*
X160939880Y-66444761D01*
X161987500Y-66492380D02*
X161892261Y-66444761D01*
X161844642Y-66397142D01*
X161797023Y-66301904D01*
X161797023Y-66016190D01*
X161844642Y-65920952D01*
X161892261Y-65873333D01*
X161987500Y-65825714D01*
X162130357Y-65825714D01*
X162225595Y-65873333D01*
X162273214Y-65920952D01*
X162320833Y-66016190D01*
X162320833Y-66301904D01*
X162273214Y-66397142D01*
X162225595Y-66444761D01*
X162130357Y-66492380D01*
X161987500Y-66492380D01*
X163177976Y-66492380D02*
X163177976Y-65968571D01*
X163130357Y-65873333D01*
X163035119Y-65825714D01*
X162844642Y-65825714D01*
X162749404Y-65873333D01*
X163177976Y-66444761D02*
X163082738Y-66492380D01*
X162844642Y-66492380D01*
X162749404Y-66444761D01*
X162701785Y-66349523D01*
X162701785Y-66254285D01*
X162749404Y-66159047D01*
X162844642Y-66111428D01*
X163082738Y-66111428D01*
X163177976Y-66063809D01*
X163654166Y-66492380D02*
X163654166Y-65825714D01*
X163654166Y-66016190D02*
X163701785Y-65920952D01*
X163749404Y-65873333D01*
X163844642Y-65825714D01*
X163939880Y-65825714D01*
X164701785Y-66492380D02*
X164701785Y-65492380D01*
X164701785Y-66444761D02*
X164606547Y-66492380D01*
X164416071Y-66492380D01*
X164320833Y-66444761D01*
X164273214Y-66397142D01*
X164225595Y-66301904D01*
X164225595Y-66016190D01*
X164273214Y-65920952D01*
X164320833Y-65873333D01*
X164416071Y-65825714D01*
X164606547Y-65825714D01*
X164701785Y-65873333D01*
X166368452Y-66492380D02*
X166368452Y-65492380D01*
X166368452Y-66444761D02*
X166273214Y-66492380D01*
X166082738Y-66492380D01*
X165987500Y-66444761D01*
X165939880Y-66397142D01*
X165892261Y-66301904D01*
X165892261Y-66016190D01*
X165939880Y-65920952D01*
X165987500Y-65873333D01*
X166082738Y-65825714D01*
X166273214Y-65825714D01*
X166368452Y-65873333D01*
X167225595Y-66444761D02*
X167130357Y-66492380D01*
X166939880Y-66492380D01*
X166844642Y-66444761D01*
X166797023Y-66349523D01*
X166797023Y-65968571D01*
X166844642Y-65873333D01*
X166939880Y-65825714D01*
X167130357Y-65825714D01*
X167225595Y-65873333D01*
X167273214Y-65968571D01*
X167273214Y-66063809D01*
X166797023Y-66159047D01*
X167701785Y-66492380D02*
X167701785Y-65492380D01*
X167701785Y-65873333D02*
X167797023Y-65825714D01*
X167987499Y-65825714D01*
X168082738Y-65873333D01*
X168130357Y-65920952D01*
X168177976Y-66016190D01*
X168177976Y-66301904D01*
X168130357Y-66397142D01*
X168082738Y-66444761D01*
X167987499Y-66492380D01*
X167797023Y-66492380D01*
X167701785Y-66444761D01*
X169035119Y-65825714D02*
X169035119Y-66492380D01*
X168606547Y-65825714D02*
X168606547Y-66349523D01*
X168654166Y-66444761D01*
X168749404Y-66492380D01*
X168892261Y-66492380D01*
X168987499Y-66444761D01*
X169035119Y-66397142D01*
X169939880Y-65825714D02*
X169939880Y-66635238D01*
X169892261Y-66730476D01*
X169844642Y-66778095D01*
X169749404Y-66825714D01*
X169606547Y-66825714D01*
X169511309Y-66778095D01*
X169939880Y-66444761D02*
X169844642Y-66492380D01*
X169654166Y-66492380D01*
X169558928Y-66444761D01*
X169511309Y-66397142D01*
X169463690Y-66301904D01*
X169463690Y-66016190D01*
X169511309Y-65920952D01*
X169558928Y-65873333D01*
X169654166Y-65825714D01*
X169844642Y-65825714D01*
X169939880Y-65873333D01*
X171177976Y-65492380D02*
X171177976Y-66301904D01*
X171225595Y-66397142D01*
X171273214Y-66444761D01*
X171368452Y-66492380D01*
X171558928Y-66492380D01*
X171654166Y-66444761D01*
X171701785Y-66397142D01*
X171749404Y-66301904D01*
X171749404Y-65492380D01*
X172177976Y-66206666D02*
X172654166Y-66206666D01*
X172082738Y-66492380D02*
X172416071Y-65492380D01*
X172749404Y-66492380D01*
X173654166Y-66492380D02*
X173320833Y-66016190D01*
X173082738Y-66492380D02*
X173082738Y-65492380D01*
X173463690Y-65492380D01*
X173558928Y-65540000D01*
X173606547Y-65587619D01*
X173654166Y-65682857D01*
X173654166Y-65825714D01*
X173606547Y-65920952D01*
X173558928Y-65968571D01*
X173463690Y-66016190D01*
X173082738Y-66016190D01*
X173939880Y-65492380D02*
X174511309Y-65492380D01*
X174225595Y-66492380D02*
X174225595Y-65492380D01*
X175606547Y-66492380D02*
X175606547Y-65492380D01*
X176035119Y-66492380D02*
X176035119Y-65968571D01*
X175987499Y-65873333D01*
X175892261Y-65825714D01*
X175749404Y-65825714D01*
X175654166Y-65873333D01*
X175606547Y-65920952D01*
X176892261Y-66444761D02*
X176797023Y-66492380D01*
X176606547Y-66492380D01*
X176511309Y-66444761D01*
X176463690Y-66349523D01*
X176463690Y-65968571D01*
X176511309Y-65873333D01*
X176606547Y-65825714D01*
X176797023Y-65825714D01*
X176892261Y-65873333D01*
X176939880Y-65968571D01*
X176939880Y-66063809D01*
X176463690Y-66159047D01*
X177797023Y-66492380D02*
X177797023Y-65968571D01*
X177749404Y-65873333D01*
X177654166Y-65825714D01*
X177463690Y-65825714D01*
X177368452Y-65873333D01*
X177797023Y-66444761D02*
X177701785Y-66492380D01*
X177463690Y-66492380D01*
X177368452Y-66444761D01*
X177320833Y-66349523D01*
X177320833Y-66254285D01*
X177368452Y-66159047D01*
X177463690Y-66111428D01*
X177701785Y-66111428D01*
X177797023Y-66063809D01*
X178701785Y-66492380D02*
X178701785Y-65492380D01*
X178701785Y-66444761D02*
X178606547Y-66492380D01*
X178416071Y-66492380D01*
X178320833Y-66444761D01*
X178273214Y-66397142D01*
X178225595Y-66301904D01*
X178225595Y-66016190D01*
X178273214Y-65920952D01*
X178320833Y-65873333D01*
X178416071Y-65825714D01*
X178606547Y-65825714D01*
X178701785Y-65873333D01*
X179558928Y-66444761D02*
X179463690Y-66492380D01*
X179273214Y-66492380D01*
X179177976Y-66444761D01*
X179130357Y-66349523D01*
X179130357Y-65968571D01*
X179177976Y-65873333D01*
X179273214Y-65825714D01*
X179463690Y-65825714D01*
X179558928Y-65873333D01*
X179606547Y-65968571D01*
X179606547Y-66063809D01*
X179130357Y-66159047D01*
X180035119Y-66492380D02*
X180035119Y-65825714D01*
X180035119Y-66016190D02*
X180082738Y-65920952D01*
X180130357Y-65873333D01*
X180225595Y-65825714D01*
X180320833Y-65825714D01*
X180701785Y-66444761D02*
X180701785Y-66492380D01*
X180654166Y-66587619D01*
X180606547Y-66635238D01*
X181892261Y-66492380D02*
X181892261Y-65825714D01*
X181892261Y-66016190D02*
X181939880Y-65920952D01*
X181987499Y-65873333D01*
X182082738Y-65825714D01*
X182177976Y-65825714D01*
X182939880Y-66492380D02*
X182939880Y-65968571D01*
X182892261Y-65873333D01*
X182797023Y-65825714D01*
X182606547Y-65825714D01*
X182511309Y-65873333D01*
X182939880Y-66444761D02*
X182844642Y-66492380D01*
X182606547Y-66492380D01*
X182511309Y-66444761D01*
X182463690Y-66349523D01*
X182463690Y-66254285D01*
X182511309Y-66159047D01*
X182606547Y-66111428D01*
X182844642Y-66111428D01*
X182939880Y-66063809D01*
X183273214Y-65825714D02*
X183654166Y-65825714D01*
X183416071Y-65492380D02*
X183416071Y-66349523D01*
X183463690Y-66444761D01*
X183558928Y-66492380D01*
X183654166Y-66492380D01*
X183987499Y-66492380D02*
X183987499Y-65492380D01*
X184416071Y-66492380D02*
X184416071Y-65968571D01*
X184368452Y-65873333D01*
X184273214Y-65825714D01*
X184130357Y-65825714D01*
X184035119Y-65873333D01*
X183987499Y-65920952D01*
X185273214Y-66444761D02*
X185177976Y-66492380D01*
X184987499Y-66492380D01*
X184892261Y-66444761D01*
X184844642Y-66349523D01*
X184844642Y-65968571D01*
X184892261Y-65873333D01*
X184987499Y-65825714D01*
X185177976Y-65825714D01*
X185273214Y-65873333D01*
X185320833Y-65968571D01*
X185320833Y-66063809D01*
X184844642Y-66159047D01*
X185749404Y-66492380D02*
X185749404Y-65825714D01*
X185749404Y-66016190D02*
X185797023Y-65920952D01*
X185844642Y-65873333D01*
X185939880Y-65825714D01*
X186035119Y-65825714D01*
X136082738Y-67475714D02*
X136463690Y-67475714D01*
X136225595Y-67142380D02*
X136225595Y-67999523D01*
X136273214Y-68094761D01*
X136368452Y-68142380D01*
X136463690Y-68142380D01*
X136797023Y-68142380D02*
X136797023Y-67142380D01*
X137225595Y-68142380D02*
X137225595Y-67618571D01*
X137177976Y-67523333D01*
X137082738Y-67475714D01*
X136939880Y-67475714D01*
X136844642Y-67523333D01*
X136797023Y-67570952D01*
X138130357Y-68142380D02*
X138130357Y-67618571D01*
X138082738Y-67523333D01*
X137987500Y-67475714D01*
X137797023Y-67475714D01*
X137701785Y-67523333D01*
X138130357Y-68094761D02*
X138035119Y-68142380D01*
X137797023Y-68142380D01*
X137701785Y-68094761D01*
X137654166Y-67999523D01*
X137654166Y-67904285D01*
X137701785Y-67809047D01*
X137797023Y-67761428D01*
X138035119Y-67761428D01*
X138130357Y-67713809D01*
X138606547Y-67475714D02*
X138606547Y-68142380D01*
X138606547Y-67570952D02*
X138654166Y-67523333D01*
X138749404Y-67475714D01*
X138892261Y-67475714D01*
X138987500Y-67523333D01*
X139035119Y-67618571D01*
X139035119Y-68142380D01*
X140130357Y-67475714D02*
X140511309Y-67475714D01*
X140273214Y-67142380D02*
X140273214Y-67999523D01*
X140320833Y-68094761D01*
X140416071Y-68142380D01*
X140511309Y-68142380D01*
X140844642Y-68142380D02*
X140844642Y-67142380D01*
X141273214Y-68142380D02*
X141273214Y-67618571D01*
X141225595Y-67523333D01*
X141130357Y-67475714D01*
X140987500Y-67475714D01*
X140892261Y-67523333D01*
X140844642Y-67570952D01*
X142130357Y-68094761D02*
X142035119Y-68142380D01*
X141844642Y-68142380D01*
X141749404Y-68094761D01*
X141701785Y-67999523D01*
X141701785Y-67618571D01*
X141749404Y-67523333D01*
X141844642Y-67475714D01*
X142035119Y-67475714D01*
X142130357Y-67523333D01*
X142177976Y-67618571D01*
X142177976Y-67713809D01*
X141701785Y-67809047D01*
X143320833Y-68094761D02*
X143463690Y-68142380D01*
X143701785Y-68142380D01*
X143797023Y-68094761D01*
X143844642Y-68047142D01*
X143892261Y-67951904D01*
X143892261Y-67856666D01*
X143844642Y-67761428D01*
X143797023Y-67713809D01*
X143701785Y-67666190D01*
X143511309Y-67618571D01*
X143416071Y-67570952D01*
X143368452Y-67523333D01*
X143320833Y-67428095D01*
X143320833Y-67332857D01*
X143368452Y-67237619D01*
X143416071Y-67190000D01*
X143511309Y-67142380D01*
X143749404Y-67142380D01*
X143892261Y-67190000D01*
X144701785Y-68094761D02*
X144606547Y-68142380D01*
X144416071Y-68142380D01*
X144320833Y-68094761D01*
X144273214Y-67999523D01*
X144273214Y-67618571D01*
X144320833Y-67523333D01*
X144416071Y-67475714D01*
X144606547Y-67475714D01*
X144701785Y-67523333D01*
X144749404Y-67618571D01*
X144749404Y-67713809D01*
X144273214Y-67809047D01*
X145177976Y-68142380D02*
X145177976Y-67475714D01*
X145177976Y-67666190D02*
X145225595Y-67570952D01*
X145273214Y-67523333D01*
X145368452Y-67475714D01*
X145463690Y-67475714D01*
X145797023Y-68142380D02*
X145797023Y-67475714D01*
X145797023Y-67142380D02*
X145749404Y-67190000D01*
X145797023Y-67237619D01*
X145844642Y-67190000D01*
X145797023Y-67142380D01*
X145797023Y-67237619D01*
X146701785Y-68142380D02*
X146701785Y-67618571D01*
X146654166Y-67523333D01*
X146558928Y-67475714D01*
X146368452Y-67475714D01*
X146273214Y-67523333D01*
X146701785Y-68094761D02*
X146606547Y-68142380D01*
X146368452Y-68142380D01*
X146273214Y-68094761D01*
X146225595Y-67999523D01*
X146225595Y-67904285D01*
X146273214Y-67809047D01*
X146368452Y-67761428D01*
X146606547Y-67761428D01*
X146701785Y-67713809D01*
X147320833Y-68142380D02*
X147225595Y-68094761D01*
X147177976Y-67999523D01*
X147177976Y-67142380D01*
X147463690Y-68237619D02*
X148225595Y-68237619D01*
X148463690Y-68142380D02*
X148463690Y-67142380D01*
X148844642Y-67142380D01*
X148939880Y-67190000D01*
X148987500Y-67237619D01*
X149035119Y-67332857D01*
X149035119Y-67475714D01*
X148987500Y-67570952D01*
X148939880Y-67618571D01*
X148844642Y-67666190D01*
X148463690Y-67666190D01*
X149463690Y-68142380D02*
X149463690Y-67475714D01*
X149463690Y-67142380D02*
X149416071Y-67190000D01*
X149463690Y-67237619D01*
X149511309Y-67190000D01*
X149463690Y-67142380D01*
X149463690Y-67237619D01*
X149939880Y-67475714D02*
X149939880Y-68142380D01*
X149939880Y-67570952D02*
X149987500Y-67523333D01*
X150082738Y-67475714D01*
X150225595Y-67475714D01*
X150320833Y-67523333D01*
X150368452Y-67618571D01*
X150368452Y-68142380D01*
X150606547Y-68237619D02*
X151368452Y-68237619D01*
X151606547Y-68142380D02*
X151606547Y-67142380D01*
X151606547Y-67618571D02*
X152177976Y-67618571D01*
X152177976Y-68142380D02*
X152177976Y-67142380D01*
X153035119Y-68094761D02*
X152939880Y-68142380D01*
X152749404Y-68142380D01*
X152654166Y-68094761D01*
X152606547Y-67999523D01*
X152606547Y-67618571D01*
X152654166Y-67523333D01*
X152749404Y-67475714D01*
X152939880Y-67475714D01*
X153035119Y-67523333D01*
X153082738Y-67618571D01*
X153082738Y-67713809D01*
X152606547Y-67809047D01*
X153939880Y-68142380D02*
X153939880Y-67618571D01*
X153892261Y-67523333D01*
X153797023Y-67475714D01*
X153606547Y-67475714D01*
X153511309Y-67523333D01*
X153939880Y-68094761D02*
X153844642Y-68142380D01*
X153606547Y-68142380D01*
X153511309Y-68094761D01*
X153463690Y-67999523D01*
X153463690Y-67904285D01*
X153511309Y-67809047D01*
X153606547Y-67761428D01*
X153844642Y-67761428D01*
X153939880Y-67713809D01*
X154844642Y-68142380D02*
X154844642Y-67142380D01*
X154844642Y-68094761D02*
X154749404Y-68142380D01*
X154558928Y-68142380D01*
X154463690Y-68094761D01*
X154416071Y-68047142D01*
X154368452Y-67951904D01*
X154368452Y-67666190D01*
X154416071Y-67570952D01*
X154463690Y-67523333D01*
X154558928Y-67475714D01*
X154749404Y-67475714D01*
X154844642Y-67523333D01*
X155701785Y-68094761D02*
X155606547Y-68142380D01*
X155416071Y-68142380D01*
X155320833Y-68094761D01*
X155273214Y-67999523D01*
X155273214Y-67618571D01*
X155320833Y-67523333D01*
X155416071Y-67475714D01*
X155606547Y-67475714D01*
X155701785Y-67523333D01*
X155749404Y-67618571D01*
X155749404Y-67713809D01*
X155273214Y-67809047D01*
X156177976Y-68142380D02*
X156177976Y-67475714D01*
X156177976Y-67666190D02*
X156225595Y-67570952D01*
X156273214Y-67523333D01*
X156368452Y-67475714D01*
X156463690Y-67475714D01*
X156797023Y-68047142D02*
X156844642Y-68094761D01*
X156797023Y-68142380D01*
X156749404Y-68094761D01*
X156797023Y-68047142D01*
X156797023Y-68142380D01*
D10*
X134584642Y-144823571D02*
X134772142Y-143323571D01*
X135129285Y-143323571D01*
X135334642Y-143395000D01*
X135459642Y-143537857D01*
X135513214Y-143680714D01*
X135548928Y-143966428D01*
X135522142Y-144180714D01*
X135415000Y-144466428D01*
X135325714Y-144609285D01*
X135165000Y-144752142D01*
X134941785Y-144823571D01*
X134584642Y-144823571D01*
X136066785Y-144395000D02*
X136781071Y-144395000D01*
X135870357Y-144823571D02*
X136557857Y-143323571D01*
X136870357Y-144823571D01*
X137370357Y-144823571D02*
X137557857Y-143323571D01*
X138227500Y-144823571D01*
X138415000Y-143323571D01*
X139906071Y-143395000D02*
X139772142Y-143323571D01*
X139557857Y-143323571D01*
X139334642Y-143395000D01*
X139173928Y-143537857D01*
X139084642Y-143680714D01*
X138977500Y-143966428D01*
X138950714Y-144180714D01*
X138986428Y-144466428D01*
X139040000Y-144609285D01*
X139165000Y-144752142D01*
X139370357Y-144823571D01*
X139513214Y-144823571D01*
X139736428Y-144752142D01*
X139816785Y-144680714D01*
X139879285Y-144180714D01*
X139593571Y-144180714D01*
X140540000Y-144037857D02*
X141040000Y-144037857D01*
X141156071Y-144823571D02*
X140441785Y-144823571D01*
X140629285Y-143323571D01*
X141343571Y-143323571D01*
X142656071Y-144823571D02*
X142245357Y-144109285D01*
X141798928Y-144823571D02*
X141986428Y-143323571D01*
X142557857Y-143323571D01*
X142691785Y-143395000D01*
X142754285Y-143466428D01*
X142807857Y-143609285D01*
X142781071Y-143823571D01*
X142691785Y-143966428D01*
X142611428Y-144037857D01*
X142459642Y-144109285D01*
X141888214Y-144109285D01*
X143316785Y-144680714D02*
X143379285Y-144752142D01*
X143298928Y-144823571D01*
X143236428Y-144752142D01*
X143316785Y-144680714D01*
X143298928Y-144823571D01*
X143370357Y-144252142D02*
X143406071Y-143395000D01*
X143486428Y-143323571D01*
X143548928Y-143395000D01*
X143370357Y-144252142D01*
X143486428Y-143323571D01*
X145156071Y-144823571D02*
X145343571Y-143323571D01*
X145254285Y-144037857D02*
X146111428Y-144037857D01*
X146013214Y-144823571D02*
X146200714Y-143323571D01*
X146727500Y-144823571D02*
X146915000Y-143323571D01*
X148406071Y-143395000D02*
X148272142Y-143323571D01*
X148057857Y-143323571D01*
X147834642Y-143395000D01*
X147673928Y-143537857D01*
X147584642Y-143680714D01*
X147477500Y-143966428D01*
X147450714Y-144180714D01*
X147486428Y-144466428D01*
X147540000Y-144609285D01*
X147665000Y-144752142D01*
X147870357Y-144823571D01*
X148013214Y-144823571D01*
X148236428Y-144752142D01*
X148316785Y-144680714D01*
X148379285Y-144180714D01*
X148093571Y-144180714D01*
X148941785Y-144823571D02*
X149129285Y-143323571D01*
X149040000Y-144037857D02*
X149897142Y-144037857D01*
X149798928Y-144823571D02*
X149986428Y-143323571D01*
X151629285Y-143323571D02*
X151941785Y-144823571D01*
X152629285Y-143323571D01*
X153415000Y-143323571D02*
X153700714Y-143323571D01*
X153834642Y-143395000D01*
X153959642Y-143537857D01*
X153995357Y-143823571D01*
X153932857Y-144323571D01*
X153825714Y-144609285D01*
X153665000Y-144752142D01*
X153513214Y-144823571D01*
X153227500Y-144823571D01*
X153093571Y-144752142D01*
X152968571Y-144609285D01*
X152932857Y-144323571D01*
X152995357Y-143823571D01*
X153102500Y-143537857D01*
X153263214Y-143395000D01*
X153415000Y-143323571D01*
X155227500Y-144823571D02*
X154513214Y-144823571D01*
X154700714Y-143323571D01*
X155700714Y-143323571D02*
X156557857Y-143323571D01*
X155941785Y-144823571D02*
X156129285Y-143323571D01*
X156852500Y-144395000D02*
X157566785Y-144395000D01*
X156656071Y-144823571D02*
X157343571Y-143323571D01*
X157656071Y-144823571D01*
X159120357Y-143395000D02*
X158986428Y-143323571D01*
X158772142Y-143323571D01*
X158548928Y-143395000D01*
X158388214Y-143537857D01*
X158298928Y-143680714D01*
X158191785Y-143966428D01*
X158165000Y-144180714D01*
X158200714Y-144466428D01*
X158254285Y-144609285D01*
X158379285Y-144752142D01*
X158584642Y-144823571D01*
X158727500Y-144823571D01*
X158950714Y-144752142D01*
X159031071Y-144680714D01*
X159093571Y-144180714D01*
X158807857Y-144180714D01*
X159754285Y-144037857D02*
X160254285Y-144037857D01*
X160370357Y-144823571D02*
X159656071Y-144823571D01*
X159843571Y-143323571D01*
X160557857Y-143323571D01*
X161031071Y-144680714D02*
X161093571Y-144752142D01*
X161013214Y-144823571D01*
X160950714Y-144752142D01*
X161031071Y-144680714D01*
X161013214Y-144823571D01*
X161084642Y-144252142D02*
X161120357Y-143395000D01*
X161200714Y-143323571D01*
X161263214Y-143395000D01*
X161084642Y-144252142D01*
X161200714Y-143323571D01*
D12*
X83058095Y-55380000D02*
X82962857Y-55332380D01*
X82820000Y-55332380D01*
X82677142Y-55380000D01*
X82581904Y-55475238D01*
X82534285Y-55570476D01*
X82486666Y-55760952D01*
X82486666Y-55903809D01*
X82534285Y-56094285D01*
X82581904Y-56189523D01*
X82677142Y-56284761D01*
X82820000Y-56332380D01*
X82915238Y-56332380D01*
X83058095Y-56284761D01*
X83105714Y-56237142D01*
X83105714Y-55903809D01*
X82915238Y-55903809D01*
X83534285Y-56332380D02*
X83534285Y-55332380D01*
X84105714Y-56332380D01*
X84105714Y-55332380D01*
X84581904Y-56332380D02*
X84581904Y-55332380D01*
X84820000Y-55332380D01*
X84962857Y-55380000D01*
X85058095Y-55475238D01*
X85105714Y-55570476D01*
X85153333Y-55760952D01*
X85153333Y-55903809D01*
X85105714Y-56094285D01*
X85058095Y-56189523D01*
X84962857Y-56284761D01*
X84820000Y-56332380D01*
X84581904Y-56332380D01*
D10*
X197447857Y-49568571D02*
X196947857Y-48854285D01*
X196590714Y-49568571D02*
X196590714Y-48068571D01*
X197162142Y-48068571D01*
X197305000Y-48140000D01*
X197376428Y-48211428D01*
X197447857Y-48354285D01*
X197447857Y-48568571D01*
X197376428Y-48711428D01*
X197305000Y-48782857D01*
X197162142Y-48854285D01*
X196590714Y-48854285D01*
X198090714Y-49568571D02*
X198090714Y-48068571D01*
X198662142Y-48068571D01*
X198805000Y-48140000D01*
X198876428Y-48211428D01*
X198947857Y-48354285D01*
X198947857Y-48568571D01*
X198876428Y-48711428D01*
X198805000Y-48782857D01*
X198662142Y-48854285D01*
X198090714Y-48854285D01*
X199590714Y-49568571D02*
X199590714Y-48068571D01*
X202305000Y-49568571D02*
X201805000Y-48854285D01*
X201447857Y-49568571D02*
X201447857Y-48068571D01*
X202019285Y-48068571D01*
X202162142Y-48140000D01*
X202233571Y-48211428D01*
X202305000Y-48354285D01*
X202305000Y-48568571D01*
X202233571Y-48711428D01*
X202162142Y-48782857D01*
X202019285Y-48854285D01*
X201447857Y-48854285D01*
X203519285Y-49497142D02*
X203376428Y-49568571D01*
X203090714Y-49568571D01*
X202947857Y-49497142D01*
X202876428Y-49354285D01*
X202876428Y-48782857D01*
X202947857Y-48640000D01*
X203090714Y-48568571D01*
X203376428Y-48568571D01*
X203519285Y-48640000D01*
X203590714Y-48782857D01*
X203590714Y-48925714D01*
X202876428Y-49068571D01*
X204233571Y-49568571D02*
X204233571Y-48568571D01*
X204233571Y-48711428D02*
X204305000Y-48640000D01*
X204447857Y-48568571D01*
X204662142Y-48568571D01*
X204805000Y-48640000D01*
X204876428Y-48782857D01*
X204876428Y-49568571D01*
X204876428Y-48782857D02*
X204947857Y-48640000D01*
X205090714Y-48568571D01*
X205305000Y-48568571D01*
X205447857Y-48640000D01*
X205519285Y-48782857D01*
X205519285Y-49568571D01*
X206447857Y-49568571D02*
X206305000Y-49497142D01*
X206233571Y-49425714D01*
X206162142Y-49282857D01*
X206162142Y-48854285D01*
X206233571Y-48711428D01*
X206305000Y-48640000D01*
X206447857Y-48568571D01*
X206662142Y-48568571D01*
X206805000Y-48640000D01*
X206876428Y-48711428D01*
X206947857Y-48854285D01*
X206947857Y-49282857D01*
X206876428Y-49425714D01*
X206805000Y-49497142D01*
X206662142Y-49568571D01*
X206447857Y-49568571D01*
X207376428Y-48568571D02*
X207947857Y-48568571D01*
X207590714Y-48068571D02*
X207590714Y-49354285D01*
X207662142Y-49497142D01*
X207805000Y-49568571D01*
X207947857Y-49568571D01*
X209019285Y-49497142D02*
X208876428Y-49568571D01*
X208590714Y-49568571D01*
X208447857Y-49497142D01*
X208376428Y-49354285D01*
X208376428Y-48782857D01*
X208447857Y-48640000D01*
X208590714Y-48568571D01*
X208876428Y-48568571D01*
X209019285Y-48640000D01*
X209090714Y-48782857D01*
X209090714Y-48925714D01*
X208376428Y-49068571D01*
X210876428Y-49568571D02*
X210876428Y-48068571D01*
X211447857Y-48068571D01*
X211590714Y-48140000D01*
X211662142Y-48211428D01*
X211733571Y-48354285D01*
X211733571Y-48568571D01*
X211662142Y-48711428D01*
X211590714Y-48782857D01*
X211447857Y-48854285D01*
X210876428Y-48854285D01*
X212590714Y-49568571D02*
X212447857Y-49497142D01*
X212376428Y-49425714D01*
X212305000Y-49282857D01*
X212305000Y-48854285D01*
X212376428Y-48711428D01*
X212447857Y-48640000D01*
X212590714Y-48568571D01*
X212805000Y-48568571D01*
X212947857Y-48640000D01*
X213019285Y-48711428D01*
X213090714Y-48854285D01*
X213090714Y-49282857D01*
X213019285Y-49425714D01*
X212947857Y-49497142D01*
X212805000Y-49568571D01*
X212590714Y-49568571D01*
X213590714Y-48568571D02*
X213876428Y-49568571D01*
X214162142Y-48854285D01*
X214447857Y-49568571D01*
X214733571Y-48568571D01*
X215876428Y-49497142D02*
X215733571Y-49568571D01*
X215447857Y-49568571D01*
X215305000Y-49497142D01*
X215233571Y-49354285D01*
X215233571Y-48782857D01*
X215305000Y-48640000D01*
X215447857Y-48568571D01*
X215733571Y-48568571D01*
X215876428Y-48640000D01*
X215947857Y-48782857D01*
X215947857Y-48925714D01*
X215233571Y-49068571D01*
X216590714Y-49568571D02*
X216590714Y-48568571D01*
X216590714Y-48854285D02*
X216662142Y-48711428D01*
X216733571Y-48640000D01*
X216876428Y-48568571D01*
X217019285Y-48568571D01*
X219519285Y-49425714D02*
X219447857Y-49497142D01*
X219233571Y-49568571D01*
X219090714Y-49568571D01*
X218876428Y-49497142D01*
X218733571Y-49354285D01*
X218662142Y-49211428D01*
X218590714Y-48925714D01*
X218590714Y-48711428D01*
X218662142Y-48425714D01*
X218733571Y-48282857D01*
X218876428Y-48140000D01*
X219090714Y-48068571D01*
X219233571Y-48068571D01*
X219447857Y-48140000D01*
X219519285Y-48211428D01*
X220376428Y-49568571D02*
X220233571Y-49497142D01*
X220162142Y-49425714D01*
X220090714Y-49282857D01*
X220090714Y-48854285D01*
X220162142Y-48711428D01*
X220233571Y-48640000D01*
X220376428Y-48568571D01*
X220590714Y-48568571D01*
X220733571Y-48640000D01*
X220805000Y-48711428D01*
X220876428Y-48854285D01*
X220876428Y-49282857D01*
X220805000Y-49425714D01*
X220733571Y-49497142D01*
X220590714Y-49568571D01*
X220376428Y-49568571D01*
X221519285Y-48568571D02*
X221519285Y-49568571D01*
X221519285Y-48711428D02*
X221590714Y-48640000D01*
X221733571Y-48568571D01*
X221947857Y-48568571D01*
X222090714Y-48640000D01*
X222162142Y-48782857D01*
X222162142Y-49568571D01*
X222662142Y-48568571D02*
X223233571Y-48568571D01*
X222876428Y-48068571D02*
X222876428Y-49354285D01*
X222947857Y-49497142D01*
X223090714Y-49568571D01*
X223233571Y-49568571D01*
X223733571Y-49568571D02*
X223733571Y-48568571D01*
X223733571Y-48854285D02*
X223805000Y-48711428D01*
X223876428Y-48640000D01*
X224019285Y-48568571D01*
X224162142Y-48568571D01*
X224876428Y-49568571D02*
X224733571Y-49497142D01*
X224662142Y-49425714D01*
X224590714Y-49282857D01*
X224590714Y-48854285D01*
X224662142Y-48711428D01*
X224733571Y-48640000D01*
X224876428Y-48568571D01*
X225090714Y-48568571D01*
X225233571Y-48640000D01*
X225305000Y-48711428D01*
X225376428Y-48854285D01*
X225376428Y-49282857D01*
X225305000Y-49425714D01*
X225233571Y-49497142D01*
X225090714Y-49568571D01*
X224876428Y-49568571D01*
X226233571Y-49568571D02*
X226090714Y-49497142D01*
X226019285Y-49354285D01*
X226019285Y-48068571D01*
X227019285Y-49568571D02*
X226876428Y-49497142D01*
X226805000Y-49354285D01*
X226805000Y-48068571D01*
X228162142Y-49497142D02*
X228019285Y-49568571D01*
X227733571Y-49568571D01*
X227590714Y-49497142D01*
X227519285Y-49354285D01*
X227519285Y-48782857D01*
X227590714Y-48640000D01*
X227733571Y-48568571D01*
X228019285Y-48568571D01*
X228162142Y-48640000D01*
X228233571Y-48782857D01*
X228233571Y-48925714D01*
X227519285Y-49068571D01*
X228876428Y-49568571D02*
X228876428Y-48568571D01*
X228876428Y-48854285D02*
X228947857Y-48711428D01*
X229019285Y-48640000D01*
X229162142Y-48568571D01*
X229305000Y-48568571D01*
X229876428Y-49497142D02*
X229876428Y-49568571D01*
X229805000Y-49711428D01*
X229733571Y-49782857D01*
X231662142Y-49568571D02*
X231662142Y-48568571D01*
X231662142Y-48854285D02*
X231733571Y-48711428D01*
X231805000Y-48640000D01*
X231947857Y-48568571D01*
X232090714Y-48568571D01*
X233162142Y-49497142D02*
X233019285Y-49568571D01*
X232733571Y-49568571D01*
X232590714Y-49497142D01*
X232519285Y-49354285D01*
X232519285Y-48782857D01*
X232590714Y-48640000D01*
X232733571Y-48568571D01*
X233019285Y-48568571D01*
X233162142Y-48640000D01*
X233233571Y-48782857D01*
X233233571Y-48925714D01*
X232519285Y-49068571D01*
X233733571Y-48568571D02*
X234090714Y-49568571D01*
X234447857Y-48568571D01*
X236447857Y-48068571D02*
X236590714Y-48068571D01*
X236733571Y-48140000D01*
X236805000Y-48211428D01*
X236876428Y-48354285D01*
X236947857Y-48640000D01*
X236947857Y-48997142D01*
X236876428Y-49282857D01*
X236805000Y-49425714D01*
X236733571Y-49497142D01*
X236590714Y-49568571D01*
X236447857Y-49568571D01*
X236305000Y-49497142D01*
X236233571Y-49425714D01*
X236162142Y-49282857D01*
X236090714Y-48997142D01*
X236090714Y-48640000D01*
X236162142Y-48354285D01*
X236233571Y-48211428D01*
X236305000Y-48140000D01*
X236447857Y-48068571D01*
X237590714Y-49425714D02*
X237662142Y-49497142D01*
X237590714Y-49568571D01*
X237519285Y-49497142D01*
X237590714Y-49425714D01*
X237590714Y-49568571D01*
X239090714Y-49568571D02*
X238233571Y-49568571D01*
X238662142Y-49568571D02*
X238662142Y-48068571D01*
X238519285Y-48282857D01*
X238376428Y-48425714D01*
X238233571Y-48497142D01*
X198340714Y-51975714D02*
X198269285Y-52047142D01*
X198055000Y-52118571D01*
X197912142Y-52118571D01*
X197697857Y-52047142D01*
X197555000Y-51904285D01*
X197483571Y-51761428D01*
X197412142Y-51475714D01*
X197412142Y-51261428D01*
X197483571Y-50975714D01*
X197555000Y-50832857D01*
X197697857Y-50690000D01*
X197912142Y-50618571D01*
X198055000Y-50618571D01*
X198269285Y-50690000D01*
X198340714Y-50761428D01*
X199197857Y-52118571D02*
X199055000Y-52047142D01*
X198983571Y-51975714D01*
X198912142Y-51832857D01*
X198912142Y-51404285D01*
X198983571Y-51261428D01*
X199055000Y-51190000D01*
X199197857Y-51118571D01*
X199412142Y-51118571D01*
X199555000Y-51190000D01*
X199626428Y-51261428D01*
X199697857Y-51404285D01*
X199697857Y-51832857D01*
X199626428Y-51975714D01*
X199555000Y-52047142D01*
X199412142Y-52118571D01*
X199197857Y-52118571D01*
X200340714Y-51118571D02*
X200340714Y-52618571D01*
X200340714Y-51190000D02*
X200483571Y-51118571D01*
X200769285Y-51118571D01*
X200912142Y-51190000D01*
X200983571Y-51261428D01*
X201055000Y-51404285D01*
X201055000Y-51832857D01*
X200983571Y-51975714D01*
X200912142Y-52047142D01*
X200769285Y-52118571D01*
X200483571Y-52118571D01*
X200340714Y-52047142D01*
X201555000Y-51118571D02*
X201912142Y-52118571D01*
X202269285Y-51118571D02*
X201912142Y-52118571D01*
X201769285Y-52475714D01*
X201697857Y-52547142D01*
X201555000Y-52618571D01*
X202840714Y-52118571D02*
X202840714Y-51118571D01*
X202840714Y-51404285D02*
X202912142Y-51261428D01*
X202983571Y-51190000D01*
X203126428Y-51118571D01*
X203269285Y-51118571D01*
X203769285Y-52118571D02*
X203769285Y-51118571D01*
X203769285Y-50618571D02*
X203697857Y-50690000D01*
X203769285Y-50761428D01*
X203840714Y-50690000D01*
X203769285Y-50618571D01*
X203769285Y-50761428D01*
X205126428Y-51118571D02*
X205126428Y-52332857D01*
X205055000Y-52475714D01*
X204983571Y-52547142D01*
X204840714Y-52618571D01*
X204626428Y-52618571D01*
X204483571Y-52547142D01*
X205126428Y-52047142D02*
X204983571Y-52118571D01*
X204697857Y-52118571D01*
X204555000Y-52047142D01*
X204483571Y-51975714D01*
X204412142Y-51832857D01*
X204412142Y-51404285D01*
X204483571Y-51261428D01*
X204555000Y-51190000D01*
X204697857Y-51118571D01*
X204983571Y-51118571D01*
X205126428Y-51190000D01*
X205840714Y-52118571D02*
X205840714Y-50618571D01*
X206483571Y-52118571D02*
X206483571Y-51332857D01*
X206412142Y-51190000D01*
X206269285Y-51118571D01*
X206055000Y-51118571D01*
X205912142Y-51190000D01*
X205840714Y-51261428D01*
X206983571Y-51118571D02*
X207555000Y-51118571D01*
X207197857Y-50618571D02*
X207197857Y-51904285D01*
X207269285Y-52047142D01*
X207412142Y-52118571D01*
X207555000Y-52118571D01*
X209626428Y-52690000D02*
X209555000Y-52618571D01*
X209412142Y-52404285D01*
X209340714Y-52261428D01*
X209269285Y-52047142D01*
X209197857Y-51690000D01*
X209197857Y-51404285D01*
X209269285Y-51047142D01*
X209340714Y-50832857D01*
X209412142Y-50690000D01*
X209555000Y-50475714D01*
X209626428Y-50404285D01*
X210840714Y-52047142D02*
X210697857Y-52118571D01*
X210412142Y-52118571D01*
X210269285Y-52047142D01*
X210197857Y-51975714D01*
X210126428Y-51832857D01*
X210126428Y-51404285D01*
X210197857Y-51261428D01*
X210269285Y-51190000D01*
X210412142Y-51118571D01*
X210697857Y-51118571D01*
X210840714Y-51190000D01*
X211340714Y-52690000D02*
X211412142Y-52618571D01*
X211555000Y-52404285D01*
X211626428Y-52261428D01*
X211697857Y-52047142D01*
X211769285Y-51690000D01*
X211769285Y-51404285D01*
X211697857Y-51047142D01*
X211626428Y-50832857D01*
X211555000Y-50690000D01*
X211412142Y-50475714D01*
X211340714Y-50404285D01*
X213555000Y-50761428D02*
X213626428Y-50690000D01*
X213769285Y-50618571D01*
X214126428Y-50618571D01*
X214269285Y-50690000D01*
X214340714Y-50761428D01*
X214412142Y-50904285D01*
X214412142Y-51047142D01*
X214340714Y-51261428D01*
X213483571Y-52118571D01*
X214412142Y-52118571D01*
X215340714Y-50618571D02*
X215483571Y-50618571D01*
X215626428Y-50690000D01*
X215697857Y-50761428D01*
X215769285Y-50904285D01*
X215840714Y-51190000D01*
X215840714Y-51547142D01*
X215769285Y-51832857D01*
X215697857Y-51975714D01*
X215626428Y-52047142D01*
X215483571Y-52118571D01*
X215340714Y-52118571D01*
X215197857Y-52047142D01*
X215126428Y-51975714D01*
X215055000Y-51832857D01*
X214983571Y-51547142D01*
X214983571Y-51190000D01*
X215055000Y-50904285D01*
X215126428Y-50761428D01*
X215197857Y-50690000D01*
X215340714Y-50618571D01*
X216412142Y-50761428D02*
X216483571Y-50690000D01*
X216626428Y-50618571D01*
X216983571Y-50618571D01*
X217126428Y-50690000D01*
X217197857Y-50761428D01*
X217269285Y-50904285D01*
X217269285Y-51047142D01*
X217197857Y-51261428D01*
X216340714Y-52118571D01*
X217269285Y-52118571D01*
X217840714Y-50761428D02*
X217912142Y-50690000D01*
X218055000Y-50618571D01*
X218412142Y-50618571D01*
X218555000Y-50690000D01*
X218626428Y-50761428D01*
X218697857Y-50904285D01*
X218697857Y-51047142D01*
X218626428Y-51261428D01*
X217769285Y-52118571D01*
X218697857Y-52118571D01*
X220912142Y-50618571D02*
X220912142Y-51690000D01*
X220840714Y-51904285D01*
X220697857Y-52047142D01*
X220483571Y-52118571D01*
X220340714Y-52118571D01*
X222269285Y-52118571D02*
X222269285Y-51332857D01*
X222197857Y-51190000D01*
X222055000Y-51118571D01*
X221769285Y-51118571D01*
X221626428Y-51190000D01*
X222269285Y-52047142D02*
X222126428Y-52118571D01*
X221769285Y-52118571D01*
X221626428Y-52047142D01*
X221555000Y-51904285D01*
X221555000Y-51761428D01*
X221626428Y-51618571D01*
X221769285Y-51547142D01*
X222126428Y-51547142D01*
X222269285Y-51475714D01*
X222912142Y-52047142D02*
X223055000Y-52118571D01*
X223340714Y-52118571D01*
X223483571Y-52047142D01*
X223555000Y-51904285D01*
X223555000Y-51832857D01*
X223483571Y-51690000D01*
X223340714Y-51618571D01*
X223126428Y-51618571D01*
X222983571Y-51547142D01*
X222912142Y-51404285D01*
X222912142Y-51332857D01*
X222983571Y-51190000D01*
X223126428Y-51118571D01*
X223340714Y-51118571D01*
X223483571Y-51190000D01*
X224412142Y-52118571D02*
X224269285Y-52047142D01*
X224197857Y-51975714D01*
X224126428Y-51832857D01*
X224126428Y-51404285D01*
X224197857Y-51261428D01*
X224269285Y-51190000D01*
X224412142Y-51118571D01*
X224626428Y-51118571D01*
X224769285Y-51190000D01*
X224840714Y-51261428D01*
X224912142Y-51404285D01*
X224912142Y-51832857D01*
X224840714Y-51975714D01*
X224769285Y-52047142D01*
X224626428Y-52118571D01*
X224412142Y-52118571D01*
X225555000Y-51118571D02*
X225555000Y-52118571D01*
X225555000Y-51261428D02*
X225626428Y-51190000D01*
X225769285Y-51118571D01*
X225983571Y-51118571D01*
X226126428Y-51190000D01*
X226197857Y-51332857D01*
X226197857Y-52118571D01*
X228912142Y-52118571D02*
X228412142Y-51404285D01*
X228055000Y-52118571D02*
X228055000Y-50618571D01*
X228626428Y-50618571D01*
X228769285Y-50690000D01*
X228840714Y-50761428D01*
X228912142Y-50904285D01*
X228912142Y-51118571D01*
X228840714Y-51261428D01*
X228769285Y-51332857D01*
X228626428Y-51404285D01*
X228055000Y-51404285D01*
X229555000Y-51975714D02*
X229626428Y-52047142D01*
X229555000Y-52118571D01*
X229483571Y-52047142D01*
X229555000Y-51975714D01*
X229555000Y-52118571D01*
X231197857Y-50618571D02*
X232055000Y-50618571D01*
X231626428Y-52118571D02*
X231626428Y-50618571D01*
X232555000Y-52118571D02*
X232555000Y-50618571D01*
X233197857Y-52118571D02*
X233197857Y-51332857D01*
X233126428Y-51190000D01*
X232983571Y-51118571D01*
X232769285Y-51118571D01*
X232626428Y-51190000D01*
X232555000Y-51261428D01*
X234126428Y-52118571D02*
X233983571Y-52047142D01*
X233912142Y-51975714D01*
X233840714Y-51832857D01*
X233840714Y-51404285D01*
X233912142Y-51261428D01*
X233983571Y-51190000D01*
X234126428Y-51118571D01*
X234340714Y-51118571D01*
X234483571Y-51190000D01*
X234555000Y-51261428D01*
X234626428Y-51404285D01*
X234626428Y-51832857D01*
X234555000Y-51975714D01*
X234483571Y-52047142D01*
X234340714Y-52118571D01*
X234126428Y-52118571D01*
X235269285Y-52118571D02*
X235269285Y-51118571D01*
X235269285Y-51404285D02*
X235340714Y-51261428D01*
X235412142Y-51190000D01*
X235555000Y-51118571D01*
X235697857Y-51118571D01*
X236197857Y-51118571D02*
X236197857Y-52618571D01*
X236197857Y-51190000D02*
X236340714Y-51118571D01*
X236626428Y-51118571D01*
X236769285Y-51190000D01*
X236840714Y-51261428D01*
X236912142Y-51404285D01*
X236912142Y-51832857D01*
X236840714Y-51975714D01*
X236769285Y-52047142D01*
X236626428Y-52118571D01*
X236340714Y-52118571D01*
X236197857Y-52047142D01*
X238126428Y-52047142D02*
X237983571Y-52118571D01*
X237697857Y-52118571D01*
X237555000Y-52047142D01*
X237483571Y-51904285D01*
X237483571Y-51332857D01*
X237555000Y-51190000D01*
X237697857Y-51118571D01*
X237983571Y-51118571D01*
X238126428Y-51190000D01*
X238197857Y-51332857D01*
X238197857Y-51475714D01*
X237483571Y-51618571D01*
X43779642Y-76243571D02*
X43967142Y-74743571D01*
X44324285Y-74743571D01*
X44529642Y-74815000D01*
X44654642Y-74957857D01*
X44708214Y-75100714D01*
X44743928Y-75386428D01*
X44717142Y-75600714D01*
X44610000Y-75886428D01*
X44520714Y-76029285D01*
X44360000Y-76172142D01*
X44136785Y-76243571D01*
X43779642Y-76243571D01*
X45261785Y-75815000D02*
X45976071Y-75815000D01*
X45065357Y-76243571D02*
X45752857Y-74743571D01*
X46065357Y-76243571D01*
X46565357Y-76243571D02*
X46752857Y-74743571D01*
X47422500Y-76243571D01*
X47610000Y-74743571D01*
X49101071Y-74815000D02*
X48967142Y-74743571D01*
X48752857Y-74743571D01*
X48529642Y-74815000D01*
X48368928Y-74957857D01*
X48279642Y-75100714D01*
X48172500Y-75386428D01*
X48145714Y-75600714D01*
X48181428Y-75886428D01*
X48235000Y-76029285D01*
X48360000Y-76172142D01*
X48565357Y-76243571D01*
X48708214Y-76243571D01*
X48931428Y-76172142D01*
X49011785Y-76100714D01*
X49074285Y-75600714D01*
X48788571Y-75600714D01*
X49735000Y-75457857D02*
X50235000Y-75457857D01*
X50351071Y-76243571D02*
X49636785Y-76243571D01*
X49824285Y-74743571D01*
X50538571Y-74743571D01*
X51851071Y-76243571D02*
X51440357Y-75529285D01*
X50993928Y-76243571D02*
X51181428Y-74743571D01*
X51752857Y-74743571D01*
X51886785Y-74815000D01*
X51949285Y-74886428D01*
X52002857Y-75029285D01*
X51976071Y-75243571D01*
X51886785Y-75386428D01*
X51806428Y-75457857D01*
X51654642Y-75529285D01*
X51083214Y-75529285D01*
X52511785Y-76100714D02*
X52574285Y-76172142D01*
X52493928Y-76243571D01*
X52431428Y-76172142D01*
X52511785Y-76100714D01*
X52493928Y-76243571D01*
X52565357Y-75672142D02*
X52601071Y-74815000D01*
X52681428Y-74743571D01*
X52743928Y-74815000D01*
X52565357Y-75672142D01*
X52681428Y-74743571D01*
X54351071Y-76243571D02*
X54538571Y-74743571D01*
X54449285Y-75457857D02*
X55306428Y-75457857D01*
X55208214Y-76243571D02*
X55395714Y-74743571D01*
X55922500Y-76243571D02*
X56110000Y-74743571D01*
X57601071Y-74815000D02*
X57467142Y-74743571D01*
X57252857Y-74743571D01*
X57029642Y-74815000D01*
X56868928Y-74957857D01*
X56779642Y-75100714D01*
X56672500Y-75386428D01*
X56645714Y-75600714D01*
X56681428Y-75886428D01*
X56735000Y-76029285D01*
X56860000Y-76172142D01*
X57065357Y-76243571D01*
X57208214Y-76243571D01*
X57431428Y-76172142D01*
X57511785Y-76100714D01*
X57574285Y-75600714D01*
X57288571Y-75600714D01*
X58136785Y-76243571D02*
X58324285Y-74743571D01*
X58235000Y-75457857D02*
X59092142Y-75457857D01*
X58993928Y-76243571D02*
X59181428Y-74743571D01*
X60824285Y-74743571D02*
X61136785Y-76243571D01*
X61824285Y-74743571D01*
X62610000Y-74743571D02*
X62895714Y-74743571D01*
X63029642Y-74815000D01*
X63154642Y-74957857D01*
X63190357Y-75243571D01*
X63127857Y-75743571D01*
X63020714Y-76029285D01*
X62860000Y-76172142D01*
X62708214Y-76243571D01*
X62422500Y-76243571D01*
X62288571Y-76172142D01*
X62163571Y-76029285D01*
X62127857Y-75743571D01*
X62190357Y-75243571D01*
X62297500Y-74957857D01*
X62458214Y-74815000D01*
X62610000Y-74743571D01*
X64422500Y-76243571D02*
X63708214Y-76243571D01*
X63895714Y-74743571D01*
X64895714Y-74743571D02*
X65752857Y-74743571D01*
X65136785Y-76243571D02*
X65324285Y-74743571D01*
X66047500Y-75815000D02*
X66761785Y-75815000D01*
X65851071Y-76243571D02*
X66538571Y-74743571D01*
X66851071Y-76243571D01*
X68315357Y-74815000D02*
X68181428Y-74743571D01*
X67967142Y-74743571D01*
X67743928Y-74815000D01*
X67583214Y-74957857D01*
X67493928Y-75100714D01*
X67386785Y-75386428D01*
X67360000Y-75600714D01*
X67395714Y-75886428D01*
X67449285Y-76029285D01*
X67574285Y-76172142D01*
X67779642Y-76243571D01*
X67922500Y-76243571D01*
X68145714Y-76172142D01*
X68226071Y-76100714D01*
X68288571Y-75600714D01*
X68002857Y-75600714D01*
X68949285Y-75457857D02*
X69449285Y-75457857D01*
X69565357Y-76243571D02*
X68851071Y-76243571D01*
X69038571Y-74743571D01*
X69752857Y-74743571D01*
X70226071Y-76100714D02*
X70288571Y-76172142D01*
X70208214Y-76243571D01*
X70145714Y-76172142D01*
X70226071Y-76100714D01*
X70208214Y-76243571D01*
X70279642Y-75672142D02*
X70315357Y-74815000D01*
X70395714Y-74743571D01*
X70458214Y-74815000D01*
X70279642Y-75672142D01*
X70395714Y-74743571D01*
X131656071Y-130218571D02*
X131843571Y-128718571D01*
X131754285Y-129432857D02*
X132611428Y-129432857D01*
X132513214Y-130218571D02*
X132700714Y-128718571D01*
X133700714Y-128718571D02*
X133986428Y-128718571D01*
X134120357Y-128790000D01*
X134245357Y-128932857D01*
X134281071Y-129218571D01*
X134218571Y-129718571D01*
X134111428Y-130004285D01*
X133950714Y-130147142D01*
X133798928Y-130218571D01*
X133513214Y-130218571D01*
X133379285Y-130147142D01*
X133254285Y-130004285D01*
X133218571Y-129718571D01*
X133281071Y-129218571D01*
X133388214Y-128932857D01*
X133548928Y-128790000D01*
X133700714Y-128718571D01*
X134772142Y-128718571D02*
X135629285Y-128718571D01*
X135013214Y-130218571D02*
X135200714Y-128718571D01*
X137004285Y-129718571D02*
X138290000Y-129718571D01*
X139852500Y-129218571D02*
X140423928Y-129218571D01*
X140129285Y-128718571D02*
X139968571Y-130004285D01*
X140022142Y-130147142D01*
X140156071Y-130218571D01*
X140298928Y-130218571D01*
X141013214Y-130218571D02*
X140879285Y-130147142D01*
X140816785Y-130075714D01*
X140763214Y-129932857D01*
X140816785Y-129504285D01*
X140906071Y-129361428D01*
X140986428Y-129290000D01*
X141138214Y-129218571D01*
X141352500Y-129218571D01*
X141486428Y-129290000D01*
X141548928Y-129361428D01*
X141602500Y-129504285D01*
X141548928Y-129932857D01*
X141459642Y-130075714D01*
X141379285Y-130147142D01*
X141227500Y-130218571D01*
X141013214Y-130218571D01*
X143513214Y-130218571D02*
X143379285Y-130147142D01*
X143316785Y-130075714D01*
X143263214Y-129932857D01*
X143316785Y-129504285D01*
X143406071Y-129361428D01*
X143486428Y-129290000D01*
X143638214Y-129218571D01*
X143852500Y-129218571D01*
X143986428Y-129290000D01*
X144048928Y-129361428D01*
X144102500Y-129504285D01*
X144048928Y-129932857D01*
X143959642Y-130075714D01*
X143879285Y-130147142D01*
X143727500Y-130218571D01*
X143513214Y-130218571D01*
X145423928Y-129218571D02*
X145298928Y-130218571D01*
X144781071Y-129218571D02*
X144682857Y-130004285D01*
X144736428Y-130147142D01*
X144870357Y-130218571D01*
X145084642Y-130218571D01*
X145236428Y-130147142D01*
X145316785Y-130075714D01*
X145923928Y-129218571D02*
X146495357Y-129218571D01*
X146200714Y-128718571D02*
X146040000Y-130004285D01*
X146093571Y-130147142D01*
X146227500Y-130218571D01*
X146370357Y-130218571D01*
X147084642Y-130218571D02*
X146950714Y-130147142D01*
X146897142Y-130004285D01*
X147057857Y-128718571D01*
X148236428Y-130147142D02*
X148084642Y-130218571D01*
X147798928Y-130218571D01*
X147665000Y-130147142D01*
X147611428Y-130004285D01*
X147682857Y-129432857D01*
X147772142Y-129290000D01*
X147923928Y-129218571D01*
X148209642Y-129218571D01*
X148343571Y-129290000D01*
X148397142Y-129432857D01*
X148379285Y-129575714D01*
X147647142Y-129718571D01*
X148852500Y-129218571D02*
X149423928Y-129218571D01*
X149129285Y-128718571D02*
X148968571Y-130004285D01*
X149022142Y-130147142D01*
X149156071Y-130218571D01*
X149298928Y-130218571D01*
X149736428Y-130147142D02*
X149870357Y-130218571D01*
X150156071Y-130218571D01*
X150307857Y-130147142D01*
X150397142Y-130004285D01*
X150406071Y-129932857D01*
X150352500Y-129790000D01*
X150218571Y-129718571D01*
X150004285Y-129718571D01*
X149870357Y-129647142D01*
X149816785Y-129504285D01*
X149825714Y-129432857D01*
X149915000Y-129290000D01*
X150066785Y-129218571D01*
X150281071Y-129218571D01*
X150415000Y-129290000D01*
X152075714Y-129718571D02*
X153361428Y-129718571D01*
X155013214Y-130218571D02*
X155200714Y-128718571D01*
X155870357Y-130218571D01*
X156057857Y-128718571D01*
X156682857Y-129432857D02*
X157182857Y-129432857D01*
X157298928Y-130218571D02*
X156584642Y-130218571D01*
X156772142Y-128718571D01*
X157486428Y-128718571D01*
X158129285Y-128718571D02*
X157977500Y-129932857D01*
X158031071Y-130075714D01*
X158093571Y-130147142D01*
X158227500Y-130218571D01*
X158513214Y-130218571D01*
X158665000Y-130147142D01*
X158745357Y-130075714D01*
X158834642Y-129932857D01*
X158986428Y-128718571D01*
X159486428Y-128718571D02*
X160343571Y-128718571D01*
X159727500Y-130218571D02*
X159915000Y-128718571D01*
X161513214Y-130218571D02*
X161102500Y-129504285D01*
X160656071Y-130218571D02*
X160843571Y-128718571D01*
X161415000Y-128718571D01*
X161548928Y-128790000D01*
X161611428Y-128861428D01*
X161665000Y-129004285D01*
X161638214Y-129218571D01*
X161548928Y-129361428D01*
X161468571Y-129432857D01*
X161316785Y-129504285D01*
X160745357Y-129504285D01*
X162138214Y-129790000D02*
X162852500Y-129790000D01*
X161941785Y-130218571D02*
X162629285Y-128718571D01*
X162941785Y-130218571D01*
X164156071Y-130218571D02*
X163441785Y-130218571D01*
X163629285Y-128718571D01*
X116967142Y-75450000D02*
X116824285Y-75378571D01*
X116610000Y-75378571D01*
X116395714Y-75450000D01*
X116252857Y-75592857D01*
X116181428Y-75735714D01*
X116110000Y-76021428D01*
X116110000Y-76235714D01*
X116181428Y-76521428D01*
X116252857Y-76664285D01*
X116395714Y-76807142D01*
X116610000Y-76878571D01*
X116752857Y-76878571D01*
X116967142Y-76807142D01*
X117038571Y-76735714D01*
X117038571Y-76235714D01*
X116752857Y-76235714D01*
X117681428Y-76878571D02*
X117681428Y-75378571D01*
X118538571Y-76878571D01*
X118538571Y-75378571D01*
X119252857Y-76878571D02*
X119252857Y-75378571D01*
X119610000Y-75378571D01*
X119824285Y-75450000D01*
X119967142Y-75592857D01*
X120038571Y-75735714D01*
X120110000Y-76021428D01*
X120110000Y-76235714D01*
X120038571Y-76521428D01*
X119967142Y-76664285D01*
X119824285Y-76807142D01*
X119610000Y-76878571D01*
X119252857Y-76878571D01*
X118495000Y-74338571D02*
X117995000Y-73624285D01*
X117637857Y-74338571D02*
X117637857Y-72838571D01*
X118209285Y-72838571D01*
X118352142Y-72910000D01*
X118423571Y-72981428D01*
X118495000Y-73124285D01*
X118495000Y-73338571D01*
X118423571Y-73481428D01*
X118352142Y-73552857D01*
X118209285Y-73624285D01*
X117637857Y-73624285D01*
X118995000Y-72838571D02*
X119995000Y-74338571D01*
X119995000Y-72838571D02*
X118995000Y-74338571D01*
X117602142Y-70298571D02*
X118459285Y-70298571D01*
X118030714Y-71798571D02*
X118030714Y-70298571D01*
X118816428Y-70298571D02*
X119816428Y-71798571D01*
X119816428Y-70298571D02*
X118816428Y-71798571D01*
D12*
X74827142Y-55951428D02*
X75589047Y-55951428D01*
X75208095Y-56332380D02*
X75208095Y-55570476D01*
X76589047Y-56332380D02*
X76017619Y-56332380D01*
X76303333Y-56332380D02*
X76303333Y-55332380D01*
X76208095Y-55475238D01*
X76112857Y-55570476D01*
X76017619Y-55618095D01*
X76970000Y-55427619D02*
X77017619Y-55380000D01*
X77112857Y-55332380D01*
X77350952Y-55332380D01*
X77446190Y-55380000D01*
X77493809Y-55427619D01*
X77541428Y-55522857D01*
X77541428Y-55618095D01*
X77493809Y-55760952D01*
X76922380Y-56332380D01*
X77541428Y-56332380D01*
X77827142Y-55332380D02*
X78160476Y-56332380D01*
X78493809Y-55332380D01*
X79255714Y-56332380D02*
X79255714Y-55332380D01*
X79255714Y-56284761D02*
X79160476Y-56332380D01*
X78970000Y-56332380D01*
X78874761Y-56284761D01*
X78827142Y-56237142D01*
X78779523Y-56141904D01*
X78779523Y-55856190D01*
X78827142Y-55760952D01*
X78874761Y-55713333D01*
X78970000Y-55665714D01*
X79160476Y-55665714D01*
X79255714Y-55713333D01*
X80160476Y-56284761D02*
X80065238Y-56332380D01*
X79874761Y-56332380D01*
X79779523Y-56284761D01*
X79731904Y-56237142D01*
X79684285Y-56141904D01*
X79684285Y-55856190D01*
X79731904Y-55760952D01*
X79779523Y-55713333D01*
X79874761Y-55665714D01*
X80065238Y-55665714D01*
X80160476Y-55713333D01*
D10*
X69977142Y-55765000D02*
X69834285Y-55693571D01*
X69620000Y-55693571D01*
X69405714Y-55765000D01*
X69262857Y-55907857D01*
X69191428Y-56050714D01*
X69120000Y-56336428D01*
X69120000Y-56550714D01*
X69191428Y-56836428D01*
X69262857Y-56979285D01*
X69405714Y-57122142D01*
X69620000Y-57193571D01*
X69762857Y-57193571D01*
X69977142Y-57122142D01*
X70048571Y-57050714D01*
X70048571Y-56550714D01*
X69762857Y-56550714D01*
X70691428Y-57193571D02*
X70691428Y-55693571D01*
X71548571Y-57193571D01*
X71548571Y-55693571D01*
X72262857Y-57193571D02*
X72262857Y-55693571D01*
X72620000Y-55693571D01*
X72834285Y-55765000D01*
X72977142Y-55907857D01*
X73048571Y-56050714D01*
X73120000Y-56336428D01*
X73120000Y-56550714D01*
X73048571Y-56836428D01*
X72977142Y-56979285D01*
X72834285Y-57122142D01*
X72620000Y-57193571D01*
X72262857Y-57193571D01*
D11*
X59714047Y-59507380D02*
X59714047Y-58507380D01*
X60047380Y-59221666D01*
X60380714Y-58507380D01*
X60380714Y-59507380D01*
X61285476Y-59507380D02*
X61285476Y-58983571D01*
X61237857Y-58888333D01*
X61142619Y-58840714D01*
X60952142Y-58840714D01*
X60856904Y-58888333D01*
X61285476Y-59459761D02*
X61190238Y-59507380D01*
X60952142Y-59507380D01*
X60856904Y-59459761D01*
X60809285Y-59364523D01*
X60809285Y-59269285D01*
X60856904Y-59174047D01*
X60952142Y-59126428D01*
X61190238Y-59126428D01*
X61285476Y-59078809D01*
X61761666Y-59507380D02*
X61761666Y-58840714D01*
X61761666Y-58507380D02*
X61714047Y-58555000D01*
X61761666Y-58602619D01*
X61809285Y-58555000D01*
X61761666Y-58507380D01*
X61761666Y-58602619D01*
X62237857Y-58840714D02*
X62237857Y-59507380D01*
X62237857Y-58935952D02*
X62285476Y-58888333D01*
X62380714Y-58840714D01*
X62523571Y-58840714D01*
X62618809Y-58888333D01*
X62666428Y-58983571D01*
X62666428Y-59507380D01*
X63095000Y-59459761D02*
X63190238Y-59507380D01*
X63380714Y-59507380D01*
X63475952Y-59459761D01*
X63523571Y-59364523D01*
X63523571Y-59316904D01*
X63475952Y-59221666D01*
X63380714Y-59174047D01*
X63237857Y-59174047D01*
X63142619Y-59126428D01*
X63095000Y-59031190D01*
X63095000Y-58983571D01*
X63142619Y-58888333D01*
X63237857Y-58840714D01*
X63380714Y-58840714D01*
X63475952Y-58888333D01*
D13*
%TO.C,REF\u002A\u002A*%
X147457160Y-141264640D02*
X148656040Y-138165840D01*
X148656040Y-138165840D02*
X148056600Y-138564620D01*
X147055840Y-139265660D02*
X148356320Y-136464040D01*
X147457160Y-141264640D02*
X148056600Y-140566140D01*
X147855940Y-136265920D02*
X147055840Y-139265660D01*
X147055840Y-139265660D02*
X148254720Y-138465560D01*
X148254720Y-138465560D02*
X147457160Y-141264640D01*
X147457160Y-141264640D02*
X147355560Y-140365480D01*
X147955000Y-134874000D02*
X152654000Y-141859000D01*
X152654000Y-141859000D02*
X143256000Y-141859000D01*
X143256000Y-141859000D02*
X147955000Y-134874000D01*
D14*
%TO.C,SW3*%
X118065000Y-85060000D02*
X96565000Y-85060000D01*
X118065000Y-113060000D02*
X96565000Y-113060000D01*
X96565000Y-85060000D02*
X96565000Y-113060000D01*
X118065000Y-85060000D02*
X118065000Y-113060000D01*
D13*
%TO.C,REF\u002A\u002A*%
X52451000Y-73279000D02*
X57150000Y-66294000D01*
X61849000Y-73279000D02*
X52451000Y-73279000D01*
X57150000Y-66294000D02*
X61849000Y-73279000D01*
X56652160Y-72684640D02*
X56550560Y-71785480D01*
X57449720Y-69885560D02*
X56652160Y-72684640D01*
X56250840Y-70685660D02*
X57449720Y-69885560D01*
X57050940Y-67685920D02*
X56250840Y-70685660D01*
X56652160Y-72684640D02*
X57251600Y-71986140D01*
X56250840Y-70685660D02*
X57551320Y-67884040D01*
X57851040Y-69585840D02*
X57251600Y-69984620D01*
X56652160Y-72684640D02*
X57851040Y-69585840D01*
D14*
%TO.C,J11*%
X186115000Y-55940000D02*
X186115000Y-50740000D01*
X137795000Y-55940000D02*
X186115000Y-55940000D01*
X135195000Y-50740000D02*
X186115000Y-50740000D01*
X137795000Y-55940000D02*
X137795000Y-53340000D01*
X137795000Y-53340000D02*
X135195000Y-53340000D01*
X135195000Y-53340000D02*
X135195000Y-50740000D01*
X136525000Y-55940000D02*
X135195000Y-55940000D01*
X135195000Y-55940000D02*
X135195000Y-54610000D01*
%TO.C,C1*%
X112315000Y-65280431D02*
X111015000Y-65280431D01*
X111665000Y-64630431D02*
X111665000Y-65930431D01*
X108425000Y-78316000D02*
X107475000Y-78316000D01*
X108800000Y-78276000D02*
X107100000Y-78276000D01*
X109057000Y-78236000D02*
X106843000Y-78236000D01*
X109265000Y-78196000D02*
X106635000Y-78196000D01*
X109444000Y-78156000D02*
X106456000Y-78156000D01*
X109603000Y-78116000D02*
X106297000Y-78116000D01*
X109748000Y-78076000D02*
X106152000Y-78076000D01*
X109881000Y-78036000D02*
X106019000Y-78036000D01*
X110005000Y-77996000D02*
X105895000Y-77996000D01*
X110121000Y-77956000D02*
X105779000Y-77956000D01*
X110231000Y-77916000D02*
X105669000Y-77916000D01*
X110335000Y-77876000D02*
X105565000Y-77876000D01*
X110434000Y-77836000D02*
X105466000Y-77836000D01*
X110529000Y-77796000D02*
X105371000Y-77796000D01*
X110620000Y-77756000D02*
X105280000Y-77756000D01*
X110708000Y-77716000D02*
X105192000Y-77716000D01*
X110792000Y-77676000D02*
X105108000Y-77676000D01*
X110873000Y-77636000D02*
X105027000Y-77636000D01*
X110952000Y-77596000D02*
X104948000Y-77596000D01*
X111028000Y-77556000D02*
X104872000Y-77556000D01*
X111102000Y-77516000D02*
X104798000Y-77516000D01*
X111173000Y-77476000D02*
X104727000Y-77476000D01*
X111243000Y-77436000D02*
X104657000Y-77436000D01*
X111311000Y-77396000D02*
X104589000Y-77396000D01*
X111377000Y-77356000D02*
X104523000Y-77356000D01*
X111441000Y-77316000D02*
X104459000Y-77316000D01*
X111504000Y-77276000D02*
X104396000Y-77276000D01*
X111565000Y-77236000D02*
X104335000Y-77236000D01*
X111625000Y-77196000D02*
X104275000Y-77196000D01*
X111683000Y-77156000D02*
X104217000Y-77156000D01*
X111740000Y-77116000D02*
X104160000Y-77116000D01*
X111796000Y-77076000D02*
X104104000Y-77076000D01*
X111850000Y-77036000D02*
X104050000Y-77036000D01*
X111904000Y-76996000D02*
X103996000Y-76996000D01*
X111956000Y-76956000D02*
X103944000Y-76956000D01*
X112007000Y-76916000D02*
X103893000Y-76916000D01*
X112058000Y-76876000D02*
X103842000Y-76876000D01*
X112107000Y-76836000D02*
X103793000Y-76836000D01*
X112155000Y-76796000D02*
X103745000Y-76796000D01*
X112203000Y-76756000D02*
X103697000Y-76756000D01*
X112249000Y-76716000D02*
X103651000Y-76716000D01*
X112295000Y-76676000D02*
X103605000Y-76676000D01*
X112340000Y-76636000D02*
X103560000Y-76636000D01*
X112384000Y-76596000D02*
X103516000Y-76596000D01*
X112427000Y-76556000D02*
X103473000Y-76556000D01*
X112469000Y-76516000D02*
X103431000Y-76516000D01*
X112511000Y-76476000D02*
X103389000Y-76476000D01*
X112552000Y-76436000D02*
X103348000Y-76436000D01*
X112593000Y-76396000D02*
X103307000Y-76396000D01*
X112632000Y-76356000D02*
X103268000Y-76356000D01*
X112671000Y-76316000D02*
X103229000Y-76316000D01*
X112710000Y-76276000D02*
X103190000Y-76276000D01*
X112747000Y-76236000D02*
X103153000Y-76236000D01*
X112784000Y-76196000D02*
X103116000Y-76196000D01*
X112821000Y-76156000D02*
X103079000Y-76156000D01*
X112857000Y-76116000D02*
X103043000Y-76116000D01*
X112892000Y-76076000D02*
X103008000Y-76076000D01*
X112927000Y-76036000D02*
X102973000Y-76036000D01*
X112961000Y-75996000D02*
X102939000Y-75996000D01*
X112994000Y-75956000D02*
X102906000Y-75956000D01*
X113028000Y-75916000D02*
X102872000Y-75916000D01*
X113060000Y-75876000D02*
X102840000Y-75876000D01*
X113092000Y-75836000D02*
X102808000Y-75836000D01*
X113124000Y-75796000D02*
X102776000Y-75796000D01*
X113155000Y-75756000D02*
X102745000Y-75756000D01*
X113185000Y-75716000D02*
X102715000Y-75716000D01*
X113215000Y-75676000D02*
X102685000Y-75676000D01*
X106510000Y-75636000D02*
X102655000Y-75636000D01*
X113245000Y-75636000D02*
X109390000Y-75636000D01*
X106510000Y-75596000D02*
X102626000Y-75596000D01*
X113274000Y-75596000D02*
X109390000Y-75596000D01*
X106510000Y-75556000D02*
X102597000Y-75556000D01*
X113303000Y-75556000D02*
X109390000Y-75556000D01*
X106510000Y-75516000D02*
X102569000Y-75516000D01*
X113331000Y-75516000D02*
X109390000Y-75516000D01*
X106510000Y-75476000D02*
X102541000Y-75476000D01*
X113359000Y-75476000D02*
X109390000Y-75476000D01*
X106510000Y-75436000D02*
X102514000Y-75436000D01*
X113386000Y-75436000D02*
X109390000Y-75436000D01*
X106510000Y-75396000D02*
X102487000Y-75396000D01*
X113413000Y-75396000D02*
X109390000Y-75396000D01*
X106510000Y-75356000D02*
X102460000Y-75356000D01*
X113440000Y-75356000D02*
X109390000Y-75356000D01*
X106510000Y-75316000D02*
X102434000Y-75316000D01*
X113466000Y-75316000D02*
X109390000Y-75316000D01*
X106510000Y-75276000D02*
X102408000Y-75276000D01*
X113492000Y-75276000D02*
X109390000Y-75276000D01*
X106510000Y-75236000D02*
X102383000Y-75236000D01*
X113517000Y-75236000D02*
X109390000Y-75236000D01*
X106510000Y-75196000D02*
X102358000Y-75196000D01*
X113542000Y-75196000D02*
X109390000Y-75196000D01*
X106510000Y-75156000D02*
X102333000Y-75156000D01*
X113567000Y-75156000D02*
X109390000Y-75156000D01*
X106510000Y-75116000D02*
X102309000Y-75116000D01*
X113591000Y-75116000D02*
X109390000Y-75116000D01*
X106510000Y-75076000D02*
X102286000Y-75076000D01*
X113614000Y-75076000D02*
X109390000Y-75076000D01*
X106510000Y-75036000D02*
X102262000Y-75036000D01*
X113638000Y-75036000D02*
X109390000Y-75036000D01*
X106510000Y-74996000D02*
X102239000Y-74996000D01*
X113661000Y-74996000D02*
X109390000Y-74996000D01*
X106510000Y-74956000D02*
X102217000Y-74956000D01*
X113683000Y-74956000D02*
X109390000Y-74956000D01*
X106510000Y-74916000D02*
X102194000Y-74916000D01*
X113706000Y-74916000D02*
X109390000Y-74916000D01*
X106510000Y-74876000D02*
X102172000Y-74876000D01*
X113728000Y-74876000D02*
X109390000Y-74876000D01*
X106510000Y-74836000D02*
X102151000Y-74836000D01*
X113749000Y-74836000D02*
X109390000Y-74836000D01*
X106510000Y-74796000D02*
X102130000Y-74796000D01*
X113770000Y-74796000D02*
X109390000Y-74796000D01*
X106510000Y-74756000D02*
X102109000Y-74756000D01*
X113791000Y-74756000D02*
X109390000Y-74756000D01*
X106510000Y-74716000D02*
X102088000Y-74716000D01*
X113812000Y-74716000D02*
X109390000Y-74716000D01*
X106510000Y-74676000D02*
X102068000Y-74676000D01*
X113832000Y-74676000D02*
X109390000Y-74676000D01*
X106510000Y-74636000D02*
X102048000Y-74636000D01*
X113852000Y-74636000D02*
X109390000Y-74636000D01*
X106510000Y-74596000D02*
X102029000Y-74596000D01*
X113871000Y-74596000D02*
X109390000Y-74596000D01*
X106510000Y-74556000D02*
X102010000Y-74556000D01*
X113890000Y-74556000D02*
X109390000Y-74556000D01*
X106510000Y-74516000D02*
X101991000Y-74516000D01*
X113909000Y-74516000D02*
X109390000Y-74516000D01*
X106510000Y-74476000D02*
X101972000Y-74476000D01*
X113928000Y-74476000D02*
X109390000Y-74476000D01*
X106510000Y-74436000D02*
X101954000Y-74436000D01*
X113946000Y-74436000D02*
X109390000Y-74436000D01*
X106510000Y-74396000D02*
X101936000Y-74396000D01*
X113964000Y-74396000D02*
X109390000Y-74396000D01*
X106510000Y-74356000D02*
X101919000Y-74356000D01*
X113981000Y-74356000D02*
X109390000Y-74356000D01*
X106510000Y-74316000D02*
X101901000Y-74316000D01*
X113999000Y-74316000D02*
X109390000Y-74316000D01*
X106510000Y-74276000D02*
X101885000Y-74276000D01*
X114015000Y-74276000D02*
X109390000Y-74276000D01*
X106510000Y-74236000D02*
X101868000Y-74236000D01*
X114032000Y-74236000D02*
X109390000Y-74236000D01*
X106510000Y-74196000D02*
X101852000Y-74196000D01*
X114048000Y-74196000D02*
X109390000Y-74196000D01*
X106510000Y-74156000D02*
X101836000Y-74156000D01*
X114064000Y-74156000D02*
X109390000Y-74156000D01*
X106510000Y-74116000D02*
X101820000Y-74116000D01*
X114080000Y-74116000D02*
X109390000Y-74116000D01*
X106510000Y-74076000D02*
X101804000Y-74076000D01*
X114096000Y-74076000D02*
X109390000Y-74076000D01*
X106510000Y-74036000D02*
X101789000Y-74036000D01*
X114111000Y-74036000D02*
X109390000Y-74036000D01*
X106510000Y-73996000D02*
X101775000Y-73996000D01*
X114125000Y-73996000D02*
X109390000Y-73996000D01*
X106510000Y-73956000D02*
X101760000Y-73956000D01*
X114140000Y-73956000D02*
X109390000Y-73956000D01*
X106510000Y-73916000D02*
X101746000Y-73916000D01*
X114154000Y-73916000D02*
X109390000Y-73916000D01*
X106510000Y-73876000D02*
X101732000Y-73876000D01*
X114168000Y-73876000D02*
X109390000Y-73876000D01*
X106510000Y-73836000D02*
X101718000Y-73836000D01*
X114182000Y-73836000D02*
X109390000Y-73836000D01*
X106510000Y-73796000D02*
X101705000Y-73796000D01*
X114195000Y-73796000D02*
X109390000Y-73796000D01*
X106510000Y-73756000D02*
X101692000Y-73756000D01*
X114208000Y-73756000D02*
X109390000Y-73756000D01*
X106510000Y-73716000D02*
X101679000Y-73716000D01*
X114221000Y-73716000D02*
X109390000Y-73716000D01*
X106510000Y-73676000D02*
X101666000Y-73676000D01*
X114234000Y-73676000D02*
X109390000Y-73676000D01*
X106510000Y-73636000D02*
X101654000Y-73636000D01*
X114246000Y-73636000D02*
X109390000Y-73636000D01*
X106510000Y-73596000D02*
X101642000Y-73596000D01*
X114258000Y-73596000D02*
X109390000Y-73596000D01*
X106510000Y-73556000D02*
X101630000Y-73556000D01*
X114270000Y-73556000D02*
X109390000Y-73556000D01*
X106510000Y-73516000D02*
X101619000Y-73516000D01*
X114281000Y-73516000D02*
X109390000Y-73516000D01*
X106510000Y-73476000D02*
X101608000Y-73476000D01*
X114292000Y-73476000D02*
X109390000Y-73476000D01*
X106510000Y-73436000D02*
X101597000Y-73436000D01*
X114303000Y-73436000D02*
X109390000Y-73436000D01*
X106510000Y-73396000D02*
X101586000Y-73396000D01*
X114314000Y-73396000D02*
X109390000Y-73396000D01*
X106510000Y-73356000D02*
X101576000Y-73356000D01*
X114324000Y-73356000D02*
X109390000Y-73356000D01*
X106510000Y-73316000D02*
X101566000Y-73316000D01*
X114334000Y-73316000D02*
X109390000Y-73316000D01*
X106510000Y-73276000D02*
X101556000Y-73276000D01*
X114344000Y-73276000D02*
X109390000Y-73276000D01*
X106510000Y-73236000D02*
X101546000Y-73236000D01*
X114354000Y-73236000D02*
X109390000Y-73236000D01*
X106510000Y-73196000D02*
X101537000Y-73196000D01*
X114363000Y-73196000D02*
X109390000Y-73196000D01*
X106510000Y-73156000D02*
X101528000Y-73156000D01*
X114372000Y-73156000D02*
X109390000Y-73156000D01*
X106510000Y-73116000D02*
X101519000Y-73116000D01*
X114381000Y-73116000D02*
X109390000Y-73116000D01*
X106510000Y-73076000D02*
X101511000Y-73076000D01*
X114389000Y-73076000D02*
X109390000Y-73076000D01*
X106510000Y-73036000D02*
X101502000Y-73036000D01*
X114398000Y-73036000D02*
X109390000Y-73036000D01*
X106510000Y-72996000D02*
X101494000Y-72996000D01*
X114406000Y-72996000D02*
X109390000Y-72996000D01*
X106510000Y-72956000D02*
X101487000Y-72956000D01*
X114413000Y-72956000D02*
X109390000Y-72956000D01*
X106510000Y-72916000D02*
X101479000Y-72916000D01*
X114421000Y-72916000D02*
X109390000Y-72916000D01*
X106510000Y-72876000D02*
X101472000Y-72876000D01*
X114428000Y-72876000D02*
X109390000Y-72876000D01*
X106510000Y-72836000D02*
X101465000Y-72836000D01*
X114435000Y-72836000D02*
X109390000Y-72836000D01*
X106510000Y-72796000D02*
X101458000Y-72796000D01*
X114442000Y-72796000D02*
X109390000Y-72796000D01*
X114448000Y-72756000D02*
X101452000Y-72756000D01*
X114455000Y-72716000D02*
X101445000Y-72716000D01*
X114461000Y-72676000D02*
X101439000Y-72676000D01*
X114466000Y-72636000D02*
X101434000Y-72636000D01*
X114472000Y-72596000D02*
X101428000Y-72596000D01*
X114477000Y-72556000D02*
X101423000Y-72556000D01*
X114482000Y-72516000D02*
X101418000Y-72516000D01*
X114487000Y-72476000D02*
X101413000Y-72476000D01*
X114491000Y-72436000D02*
X101409000Y-72436000D01*
X114495000Y-72395000D02*
X101405000Y-72395000D01*
X114499000Y-72355000D02*
X101401000Y-72355000D01*
X114503000Y-72315000D02*
X101397000Y-72315000D01*
X114507000Y-72275000D02*
X101393000Y-72275000D01*
X114510000Y-72235000D02*
X101390000Y-72235000D01*
X114513000Y-72195000D02*
X101387000Y-72195000D01*
X114516000Y-72155000D02*
X101384000Y-72155000D01*
X114518000Y-72115000D02*
X101382000Y-72115000D01*
X114521000Y-72075000D02*
X101379000Y-72075000D01*
X114523000Y-72035000D02*
X101377000Y-72035000D01*
X114525000Y-71995000D02*
X101375000Y-71995000D01*
X114526000Y-71955000D02*
X101374000Y-71955000D01*
X114527000Y-71915000D02*
X101373000Y-71915000D01*
X114529000Y-71875000D02*
X101371000Y-71875000D01*
X114529000Y-71835000D02*
X101371000Y-71835000D01*
X114530000Y-71795000D02*
X101370000Y-71795000D01*
X114530000Y-71755000D02*
X101370000Y-71755000D01*
X114530000Y-71715000D02*
X101370000Y-71715000D01*
X114570000Y-71715000D02*
G75*
G03*
X114570000Y-71715000I-6620000J0D01*
G01*
D11*
%TO.C,REF\u002A\u002A*%
X88265000Y-46990000D02*
X126365000Y-46990000D01*
X126365000Y-46990000D02*
X126365000Y-66990000D01*
X118365000Y-66990000D02*
X118365000Y-50390000D01*
X126365000Y-66990000D02*
X118365000Y-66990000D01*
X88265000Y-46990000D02*
X88265000Y-66990000D01*
X96265000Y-66990000D02*
X88265000Y-66990000D01*
X96265000Y-66990000D02*
X96265000Y-50390000D01*
X96265000Y-50390000D02*
X118365000Y-50390000D01*
D14*
%TO.C,J9*%
X121225000Y-77530000D02*
X123885000Y-77530000D01*
X121225000Y-72390000D02*
X121225000Y-77530000D01*
X123885000Y-72390000D02*
X123885000Y-77530000D01*
X121225000Y-72390000D02*
X123885000Y-72390000D01*
X121225000Y-71120000D02*
X121225000Y-69790000D01*
X121225000Y-69790000D02*
X122555000Y-69790000D01*
%TO.C,SW1*%
X64725000Y-85060000D02*
X43225000Y-85060000D01*
X64725000Y-113060000D02*
X43225000Y-113060000D01*
X43225000Y-85060000D02*
X43225000Y-113060000D01*
X64725000Y-85060000D02*
X64725000Y-113060000D01*
%TO.C,SW2*%
X91395000Y-85060000D02*
X91395000Y-113060000D01*
X69895000Y-85060000D02*
X69895000Y-113060000D01*
X91395000Y-113060000D02*
X69895000Y-113060000D01*
X91395000Y-85060000D02*
X69895000Y-85060000D01*
%TO.C,SW4*%
X144735000Y-85060000D02*
X144735000Y-113060000D01*
X123235000Y-85060000D02*
X123235000Y-113060000D01*
X144735000Y-113060000D02*
X123235000Y-113060000D01*
X144735000Y-85060000D02*
X123235000Y-85060000D01*
%TO.C,SW5*%
X171405000Y-85060000D02*
X149905000Y-85060000D01*
X171405000Y-113060000D02*
X149905000Y-113060000D01*
X149905000Y-85060000D02*
X149905000Y-113060000D01*
X171405000Y-85060000D02*
X171405000Y-113060000D01*
%TO.C,SW6*%
X198075000Y-85060000D02*
X198075000Y-113060000D01*
X176575000Y-85060000D02*
X176575000Y-113060000D01*
X198075000Y-113060000D02*
X176575000Y-113060000D01*
X198075000Y-85060000D02*
X176575000Y-85060000D01*
%TO.C,SW7*%
X224745000Y-85060000D02*
X203245000Y-85060000D01*
X224745000Y-113060000D02*
X203245000Y-113060000D01*
X203245000Y-85060000D02*
X203245000Y-113060000D01*
X224745000Y-85060000D02*
X224745000Y-113060000D01*
%TO.C,SW8*%
X251415000Y-85060000D02*
X251415000Y-113060000D01*
X229915000Y-85060000D02*
X229915000Y-113060000D01*
X251415000Y-113060000D02*
X229915000Y-113060000D01*
X251415000Y-85060000D02*
X229915000Y-85060000D01*
%TO.C,U1*%
X102195000Y-50705000D02*
X112435000Y-50705000D01*
X102195000Y-55346000D02*
X112435000Y-55346000D01*
X102195000Y-50705000D02*
X102195000Y-55346000D01*
X112435000Y-50705000D02*
X112435000Y-55346000D01*
X102195000Y-52215000D02*
X112435000Y-52215000D01*
X105465000Y-50705000D02*
X105465000Y-52215000D01*
X109166000Y-50705000D02*
X109166000Y-52215000D01*
%TO.C,U2*%
X201235000Y-60690000D02*
X201235000Y-62340000D01*
X201235000Y-62340000D02*
X224215000Y-62340000D01*
X224215000Y-62340000D02*
X224215000Y-57040000D01*
X224215000Y-57040000D02*
X201235000Y-57040000D01*
X201235000Y-57040000D02*
X201235000Y-58690000D01*
X201175000Y-64830000D02*
X224275000Y-64830000D01*
X224275000Y-64830000D02*
X224275000Y-54550000D01*
X224275000Y-54550000D02*
X201175000Y-54550000D01*
X201175000Y-54550000D02*
X201175000Y-64830000D01*
X201235000Y-58690000D02*
G75*
G02*
X201235000Y-60690000I0J-1000000D01*
G01*
%TO.C,U3*%
X222370000Y-76895000D02*
X222370000Y-66615000D01*
X201810000Y-76895000D02*
X222370000Y-76895000D01*
X201810000Y-66615000D02*
X201810000Y-76895000D01*
X222370000Y-66615000D02*
X201810000Y-66615000D01*
X222310000Y-74405000D02*
X222310000Y-72755000D01*
X201870000Y-74405000D02*
X222310000Y-74405000D01*
X201870000Y-69105000D02*
X201870000Y-74405000D01*
X222310000Y-69105000D02*
X201870000Y-69105000D01*
X222310000Y-70755000D02*
X222310000Y-69105000D01*
X222310000Y-72755000D02*
G75*
G02*
X222310000Y-70755000I0J1000000D01*
G01*
%TO.C,U4*%
X246440000Y-70755000D02*
X246440000Y-69105000D01*
X246440000Y-69105000D02*
X226000000Y-69105000D01*
X226000000Y-69105000D02*
X226000000Y-74405000D01*
X226000000Y-74405000D02*
X246440000Y-74405000D01*
X246440000Y-74405000D02*
X246440000Y-72755000D01*
X246500000Y-66615000D02*
X225940000Y-66615000D01*
X225940000Y-66615000D02*
X225940000Y-76895000D01*
X225940000Y-76895000D02*
X246500000Y-76895000D01*
X246500000Y-76895000D02*
X246500000Y-66615000D01*
X246440000Y-72755000D02*
G75*
G02*
X246440000Y-70755000I0J1000000D01*
G01*
%TO.C,J12*%
X85725000Y-53340000D02*
X75565000Y-53340000D01*
X85725000Y-54610000D02*
X85725000Y-46990000D01*
X85725000Y-46990000D02*
X75565000Y-46990000D01*
X75565000Y-46990000D02*
X75565000Y-54610000D01*
X75565000Y-54610000D02*
X85725000Y-54610000D01*
%TO.C,J10*%
X48895000Y-54610000D02*
X74295000Y-54610000D01*
X48895000Y-46990000D02*
X74295000Y-46990000D01*
X48895000Y-53340000D02*
X74295000Y-53340000D01*
X74295000Y-54610000D02*
X74295000Y-46990000D01*
X48895000Y-54610000D02*
X48895000Y-46990000D01*
%TO.C,J1*%
X46990000Y-125095000D02*
X62230000Y-125095000D01*
X46990000Y-117475000D02*
X46990000Y-125095000D01*
X62230000Y-117475000D02*
X46990000Y-117475000D01*
X62230000Y-125095000D02*
X62230000Y-117475000D01*
X62230000Y-123825000D02*
X46990000Y-123825000D01*
%TO.C,J2*%
X88900000Y-123825000D02*
X73660000Y-123825000D01*
X88900000Y-125095000D02*
X88900000Y-117475000D01*
X88900000Y-117475000D02*
X73660000Y-117475000D01*
X73660000Y-117475000D02*
X73660000Y-125095000D01*
X73660000Y-125095000D02*
X88900000Y-125095000D01*
%TO.C,J3*%
X115570000Y-123825000D02*
X100330000Y-123825000D01*
X115570000Y-125095000D02*
X115570000Y-117475000D01*
X115570000Y-117475000D02*
X100330000Y-117475000D01*
X100330000Y-117475000D02*
X100330000Y-125095000D01*
X100330000Y-125095000D02*
X115570000Y-125095000D01*
%TO.C,J4*%
X127000000Y-125095000D02*
X142240000Y-125095000D01*
X127000000Y-117475000D02*
X127000000Y-125095000D01*
X142240000Y-117475000D02*
X127000000Y-117475000D01*
X142240000Y-125095000D02*
X142240000Y-117475000D01*
X142240000Y-123825000D02*
X127000000Y-123825000D01*
%TO.C,J5*%
X168910000Y-123825000D02*
X153670000Y-123825000D01*
X168910000Y-125095000D02*
X168910000Y-117475000D01*
X168910000Y-117475000D02*
X153670000Y-117475000D01*
X153670000Y-117475000D02*
X153670000Y-125095000D01*
X153670000Y-125095000D02*
X168910000Y-125095000D01*
%TO.C,J6*%
X180340000Y-125095000D02*
X195580000Y-125095000D01*
X180340000Y-117475000D02*
X180340000Y-125095000D01*
X195580000Y-117475000D02*
X180340000Y-117475000D01*
X195580000Y-125095000D02*
X195580000Y-117475000D01*
X195580000Y-123825000D02*
X180340000Y-123825000D01*
%TO.C,J7*%
X222250000Y-123825000D02*
X207010000Y-123825000D01*
X222250000Y-125095000D02*
X222250000Y-117475000D01*
X222250000Y-117475000D02*
X207010000Y-117475000D01*
X207010000Y-117475000D02*
X207010000Y-125095000D01*
X207010000Y-125095000D02*
X222250000Y-125095000D01*
%TO.C,J8*%
X233680000Y-125095000D02*
X248920000Y-125095000D01*
X233680000Y-117475000D02*
X233680000Y-125095000D01*
X248920000Y-117475000D02*
X233680000Y-117475000D01*
X248920000Y-125095000D02*
X248920000Y-117475000D01*
X248920000Y-123825000D02*
X233680000Y-123825000D01*
%TO.C,SW3*%
D11*
X105981666Y-84224761D02*
X106124523Y-84272380D01*
X106362619Y-84272380D01*
X106457857Y-84224761D01*
X106505476Y-84177142D01*
X106553095Y-84081904D01*
X106553095Y-83986666D01*
X106505476Y-83891428D01*
X106457857Y-83843809D01*
X106362619Y-83796190D01*
X106172142Y-83748571D01*
X106076904Y-83700952D01*
X106029285Y-83653333D01*
X105981666Y-83558095D01*
X105981666Y-83462857D01*
X106029285Y-83367619D01*
X106076904Y-83320000D01*
X106172142Y-83272380D01*
X106410238Y-83272380D01*
X106553095Y-83320000D01*
X106886428Y-83272380D02*
X107124523Y-84272380D01*
X107315000Y-83558095D01*
X107505476Y-84272380D01*
X107743571Y-83272380D01*
X108029285Y-83272380D02*
X108648333Y-83272380D01*
X108315000Y-83653333D01*
X108457857Y-83653333D01*
X108553095Y-83700952D01*
X108600714Y-83748571D01*
X108648333Y-83843809D01*
X108648333Y-84081904D01*
X108600714Y-84177142D01*
X108553095Y-84224761D01*
X108457857Y-84272380D01*
X108172142Y-84272380D01*
X108076904Y-84224761D01*
X108029285Y-84177142D01*
%TO.C,J11*%
X161115476Y-48982380D02*
X161115476Y-49696666D01*
X161067857Y-49839523D01*
X160972619Y-49934761D01*
X160829761Y-49982380D01*
X160734523Y-49982380D01*
X162115476Y-49982380D02*
X161544047Y-49982380D01*
X161829761Y-49982380D02*
X161829761Y-48982380D01*
X161734523Y-49125238D01*
X161639285Y-49220476D01*
X161544047Y-49268095D01*
X163067857Y-49982380D02*
X162496428Y-49982380D01*
X162782142Y-49982380D02*
X162782142Y-48982380D01*
X162686904Y-49125238D01*
X162591666Y-49220476D01*
X162496428Y-49268095D01*
X154925000Y-48077380D02*
X154591666Y-47601190D01*
X154353571Y-48077380D02*
X154353571Y-47077380D01*
X154734523Y-47077380D01*
X154829761Y-47125000D01*
X154877380Y-47172619D01*
X154925000Y-47267857D01*
X154925000Y-47410714D01*
X154877380Y-47505952D01*
X154829761Y-47553571D01*
X154734523Y-47601190D01*
X154353571Y-47601190D01*
X155782142Y-48077380D02*
X155782142Y-47553571D01*
X155734523Y-47458333D01*
X155639285Y-47410714D01*
X155448809Y-47410714D01*
X155353571Y-47458333D01*
X155782142Y-48029761D02*
X155686904Y-48077380D01*
X155448809Y-48077380D01*
X155353571Y-48029761D01*
X155305952Y-47934523D01*
X155305952Y-47839285D01*
X155353571Y-47744047D01*
X155448809Y-47696428D01*
X155686904Y-47696428D01*
X155782142Y-47648809D01*
X156210714Y-48029761D02*
X156305952Y-48077380D01*
X156496428Y-48077380D01*
X156591666Y-48029761D01*
X156639285Y-47934523D01*
X156639285Y-47886904D01*
X156591666Y-47791666D01*
X156496428Y-47744047D01*
X156353571Y-47744047D01*
X156258333Y-47696428D01*
X156210714Y-47601190D01*
X156210714Y-47553571D01*
X156258333Y-47458333D01*
X156353571Y-47410714D01*
X156496428Y-47410714D01*
X156591666Y-47458333D01*
X157067857Y-47410714D02*
X157067857Y-48410714D01*
X157067857Y-47458333D02*
X157163095Y-47410714D01*
X157353571Y-47410714D01*
X157448809Y-47458333D01*
X157496428Y-47505952D01*
X157544047Y-47601190D01*
X157544047Y-47886904D01*
X157496428Y-47982142D01*
X157448809Y-48029761D01*
X157353571Y-48077380D01*
X157163095Y-48077380D01*
X157067857Y-48029761D01*
X157972619Y-48077380D02*
X157972619Y-47077380D01*
X157972619Y-47458333D02*
X158067857Y-47410714D01*
X158258333Y-47410714D01*
X158353571Y-47458333D01*
X158401190Y-47505952D01*
X158448809Y-47601190D01*
X158448809Y-47886904D01*
X158401190Y-47982142D01*
X158353571Y-48029761D01*
X158258333Y-48077380D01*
X158067857Y-48077380D01*
X157972619Y-48029761D01*
X159258333Y-48029761D02*
X159163095Y-48077380D01*
X158972619Y-48077380D01*
X158877380Y-48029761D01*
X158829761Y-47934523D01*
X158829761Y-47553571D01*
X158877380Y-47458333D01*
X158972619Y-47410714D01*
X159163095Y-47410714D01*
X159258333Y-47458333D01*
X159305952Y-47553571D01*
X159305952Y-47648809D01*
X158829761Y-47744047D01*
X159734523Y-48077380D02*
X159734523Y-47410714D01*
X159734523Y-47601190D02*
X159782142Y-47505952D01*
X159829761Y-47458333D01*
X159925000Y-47410714D01*
X160020238Y-47410714D01*
X160353571Y-48077380D02*
X160353571Y-47410714D01*
X160353571Y-47601190D02*
X160401190Y-47505952D01*
X160448809Y-47458333D01*
X160544047Y-47410714D01*
X160639285Y-47410714D01*
X160877380Y-47410714D02*
X161115476Y-48077380D01*
X161353571Y-47410714D02*
X161115476Y-48077380D01*
X161020238Y-48315476D01*
X160972619Y-48363095D01*
X160877380Y-48410714D01*
X161496428Y-48172619D02*
X162258333Y-48172619D01*
X162496428Y-48077380D02*
X162496428Y-47077380D01*
X162877380Y-47077380D01*
X162972619Y-47125000D01*
X163020238Y-47172619D01*
X163067857Y-47267857D01*
X163067857Y-47410714D01*
X163020238Y-47505952D01*
X162972619Y-47553571D01*
X162877380Y-47601190D01*
X162496428Y-47601190D01*
X163496428Y-48077380D02*
X163496428Y-47410714D01*
X163496428Y-47077380D02*
X163448809Y-47125000D01*
X163496428Y-47172619D01*
X163544047Y-47125000D01*
X163496428Y-47077380D01*
X163496428Y-47172619D01*
X163734523Y-48172619D02*
X164496428Y-48172619D01*
X164639285Y-47077380D02*
X165305952Y-47077380D01*
X164639285Y-48077380D01*
X165305952Y-48077380D01*
X166067857Y-48029761D02*
X165972619Y-48077380D01*
X165782142Y-48077380D01*
X165686904Y-48029761D01*
X165639285Y-47934523D01*
X165639285Y-47553571D01*
X165686904Y-47458333D01*
X165782142Y-47410714D01*
X165972619Y-47410714D01*
X166067857Y-47458333D01*
X166115476Y-47553571D01*
X166115476Y-47648809D01*
X165639285Y-47744047D01*
X166544047Y-48077380D02*
X166544047Y-47410714D01*
X166544047Y-47601190D02*
X166591666Y-47505952D01*
X166639285Y-47458333D01*
X166734523Y-47410714D01*
X166829761Y-47410714D01*
X167305952Y-48077380D02*
X167210714Y-48029761D01*
X167163095Y-47982142D01*
X167115476Y-47886904D01*
X167115476Y-47601190D01*
X167163095Y-47505952D01*
X167210714Y-47458333D01*
X167305952Y-47410714D01*
X167448809Y-47410714D01*
X167544047Y-47458333D01*
X167591666Y-47505952D01*
X167639285Y-47601190D01*
X167639285Y-47886904D01*
X167591666Y-47982142D01*
X167544047Y-48029761D01*
X167448809Y-48077380D01*
X167305952Y-48077380D01*
X167829761Y-48172619D02*
X168591666Y-48172619D01*
X168734523Y-47077380D02*
X168972619Y-48077380D01*
X169163095Y-47363095D01*
X169353571Y-48077380D01*
X169591666Y-47077380D01*
%TO.C,C1*%
X116057142Y-71881666D02*
X116104761Y-71929285D01*
X116152380Y-72072142D01*
X116152380Y-72167380D01*
X116104761Y-72310238D01*
X116009523Y-72405476D01*
X115914285Y-72453095D01*
X115723809Y-72500714D01*
X115580952Y-72500714D01*
X115390476Y-72453095D01*
X115295238Y-72405476D01*
X115200000Y-72310238D01*
X115152380Y-72167380D01*
X115152380Y-72072142D01*
X115200000Y-71929285D01*
X115247619Y-71881666D01*
X116152380Y-70929285D02*
X116152380Y-71500714D01*
X116152380Y-71215000D02*
X115152380Y-71215000D01*
X115295238Y-71310238D01*
X115390476Y-71405476D01*
X115438095Y-71500714D01*
X99747619Y-74381666D02*
X99700000Y-74334047D01*
X99652380Y-74238809D01*
X99652380Y-74000714D01*
X99700000Y-73905476D01*
X99747619Y-73857857D01*
X99842857Y-73810238D01*
X99938095Y-73810238D01*
X100080952Y-73857857D01*
X100652380Y-74429285D01*
X100652380Y-73810238D01*
X99747619Y-73429285D02*
X99700000Y-73381666D01*
X99652380Y-73286428D01*
X99652380Y-73048333D01*
X99700000Y-72953095D01*
X99747619Y-72905476D01*
X99842857Y-72857857D01*
X99938095Y-72857857D01*
X100080952Y-72905476D01*
X100652380Y-73476904D01*
X100652380Y-72857857D01*
X99652380Y-72238809D02*
X99652380Y-72143571D01*
X99700000Y-72048333D01*
X99747619Y-72000714D01*
X99842857Y-71953095D01*
X100033333Y-71905476D01*
X100271428Y-71905476D01*
X100461904Y-71953095D01*
X100557142Y-72000714D01*
X100604761Y-72048333D01*
X100652380Y-72143571D01*
X100652380Y-72238809D01*
X100604761Y-72334047D01*
X100557142Y-72381666D01*
X100461904Y-72429285D01*
X100271428Y-72476904D01*
X100033333Y-72476904D01*
X99842857Y-72429285D01*
X99747619Y-72381666D01*
X99700000Y-72334047D01*
X99652380Y-72238809D01*
X99652380Y-71286428D02*
X99652380Y-71191190D01*
X99700000Y-71095952D01*
X99747619Y-71048333D01*
X99842857Y-71000714D01*
X100033333Y-70953095D01*
X100271428Y-70953095D01*
X100461904Y-71000714D01*
X100557142Y-71048333D01*
X100604761Y-71095952D01*
X100652380Y-71191190D01*
X100652380Y-71286428D01*
X100604761Y-71381666D01*
X100557142Y-71429285D01*
X100461904Y-71476904D01*
X100271428Y-71524523D01*
X100033333Y-71524523D01*
X99842857Y-71476904D01*
X99747619Y-71429285D01*
X99700000Y-71381666D01*
X99652380Y-71286428D01*
X99985714Y-70524523D02*
X100985714Y-70524523D01*
X100509523Y-70048333D02*
X100604761Y-70000714D01*
X100652380Y-69905476D01*
X100509523Y-70524523D02*
X100604761Y-70476904D01*
X100652380Y-70381666D01*
X100652380Y-70191190D01*
X100604761Y-70095952D01*
X100509523Y-70048333D01*
X99985714Y-70048333D01*
X100128571Y-69143571D02*
X100128571Y-69476904D01*
X100652380Y-69476904D02*
X99652380Y-69476904D01*
X99652380Y-69000714D01*
%TO.C,REF\u002A\u002A*%
X91243571Y-49061666D02*
X91719761Y-49061666D01*
X91148333Y-49347380D02*
X91481666Y-48347380D01*
X91815000Y-49347380D01*
X92576904Y-49347380D02*
X92576904Y-48823571D01*
X92529285Y-48728333D01*
X92434047Y-48680714D01*
X92243571Y-48680714D01*
X92148333Y-48728333D01*
X92576904Y-49299761D02*
X92481666Y-49347380D01*
X92243571Y-49347380D01*
X92148333Y-49299761D01*
X92100714Y-49204523D01*
X92100714Y-49109285D01*
X92148333Y-49014047D01*
X92243571Y-48966428D01*
X92481666Y-48966428D01*
X92576904Y-48918809D01*
X92957857Y-48680714D02*
X93195952Y-49347380D01*
X93434047Y-48680714D01*
X93815000Y-49347380D02*
X93815000Y-48680714D01*
X93815000Y-48347380D02*
X93767380Y-48395000D01*
X93815000Y-48442619D01*
X93862619Y-48395000D01*
X93815000Y-48347380D01*
X93815000Y-48442619D01*
X94719761Y-49347380D02*
X94719761Y-48347380D01*
X94719761Y-49299761D02*
X94624523Y-49347380D01*
X94434047Y-49347380D01*
X94338809Y-49299761D01*
X94291190Y-49252142D01*
X94243571Y-49156904D01*
X94243571Y-48871190D01*
X94291190Y-48775952D01*
X94338809Y-48728333D01*
X94434047Y-48680714D01*
X94624523Y-48680714D01*
X94719761Y-48728333D01*
X94957857Y-49442619D02*
X95719761Y-49442619D01*
X95815000Y-48347380D02*
X96386428Y-48347380D01*
X96100714Y-49347380D02*
X96100714Y-48347380D01*
X96719761Y-49347380D02*
X96719761Y-48347380D01*
X97148333Y-49347380D02*
X97148333Y-48823571D01*
X97100714Y-48728333D01*
X97005476Y-48680714D01*
X96862619Y-48680714D01*
X96767380Y-48728333D01*
X96719761Y-48775952D01*
X98005476Y-49299761D02*
X97910238Y-49347380D01*
X97719761Y-49347380D01*
X97624523Y-49299761D01*
X97576904Y-49204523D01*
X97576904Y-48823571D01*
X97624523Y-48728333D01*
X97719761Y-48680714D01*
X97910238Y-48680714D01*
X98005476Y-48728333D01*
X98053095Y-48823571D01*
X98053095Y-48918809D01*
X97576904Y-49014047D01*
X98481666Y-49347380D02*
X98481666Y-48680714D01*
X98481666Y-48871190D02*
X98529285Y-48775952D01*
X98576904Y-48728333D01*
X98672142Y-48680714D01*
X98767380Y-48680714D01*
X99100714Y-49347380D02*
X99100714Y-48680714D01*
X99100714Y-48775952D02*
X99148333Y-48728333D01*
X99243571Y-48680714D01*
X99386428Y-48680714D01*
X99481666Y-48728333D01*
X99529285Y-48823571D01*
X99529285Y-49347380D01*
X99529285Y-48823571D02*
X99576904Y-48728333D01*
X99672142Y-48680714D01*
X99815000Y-48680714D01*
X99910238Y-48728333D01*
X99957857Y-48823571D01*
X99957857Y-49347380D01*
X100862619Y-49347380D02*
X100862619Y-48823571D01*
X100815000Y-48728333D01*
X100719761Y-48680714D01*
X100529285Y-48680714D01*
X100434047Y-48728333D01*
X100862619Y-49299761D02*
X100767380Y-49347380D01*
X100529285Y-49347380D01*
X100434047Y-49299761D01*
X100386428Y-49204523D01*
X100386428Y-49109285D01*
X100434047Y-49014047D01*
X100529285Y-48966428D01*
X100767380Y-48966428D01*
X100862619Y-48918809D01*
X101481666Y-49347380D02*
X101386428Y-49299761D01*
X101338809Y-49204523D01*
X101338809Y-48347380D01*
X102005476Y-49347380D02*
X101910238Y-49299761D01*
X101862619Y-49204523D01*
X101862619Y-48347380D01*
X102529285Y-49347380D02*
X102434047Y-49299761D01*
X102386428Y-49252142D01*
X102338809Y-49156904D01*
X102338809Y-48871190D01*
X102386428Y-48775952D01*
X102434047Y-48728333D01*
X102529285Y-48680714D01*
X102672142Y-48680714D01*
X102767380Y-48728333D01*
X102815000Y-48775952D01*
X102862619Y-48871190D01*
X102862619Y-49156904D01*
X102815000Y-49252142D01*
X102767380Y-49299761D01*
X102672142Y-49347380D01*
X102529285Y-49347380D01*
X103195952Y-48680714D02*
X103434047Y-49347380D01*
X103672142Y-48680714D02*
X103434047Y-49347380D01*
X103338809Y-49585476D01*
X103291190Y-49633095D01*
X103195952Y-49680714D01*
X103815000Y-49442619D02*
X104576904Y-49442619D01*
X104815000Y-49347380D02*
X104815000Y-48347380D01*
X105148333Y-49061666D01*
X105481666Y-48347380D01*
X105481666Y-49347380D01*
X106434047Y-49347380D02*
X105957857Y-49347380D01*
X105957857Y-48347380D01*
X106672142Y-48347380D02*
X107291190Y-48347380D01*
X106957857Y-48728333D01*
X107100714Y-48728333D01*
X107195952Y-48775952D01*
X107243571Y-48823571D01*
X107291190Y-48918809D01*
X107291190Y-49156904D01*
X107243571Y-49252142D01*
X107195952Y-49299761D01*
X107100714Y-49347380D01*
X106815000Y-49347380D01*
X106719761Y-49299761D01*
X106672142Y-49252142D01*
X107624523Y-48347380D02*
X108243571Y-48347380D01*
X107910238Y-48728333D01*
X108053095Y-48728333D01*
X108148333Y-48775952D01*
X108195952Y-48823571D01*
X108243571Y-48918809D01*
X108243571Y-49156904D01*
X108195952Y-49252142D01*
X108148333Y-49299761D01*
X108053095Y-49347380D01*
X107767380Y-49347380D01*
X107672142Y-49299761D01*
X107624523Y-49252142D01*
X109195952Y-48395000D02*
X109100714Y-48347380D01*
X108957857Y-48347380D01*
X108815000Y-48395000D01*
X108719761Y-48490238D01*
X108672142Y-48585476D01*
X108624523Y-48775952D01*
X108624523Y-48918809D01*
X108672142Y-49109285D01*
X108719761Y-49204523D01*
X108815000Y-49299761D01*
X108957857Y-49347380D01*
X109053095Y-49347380D01*
X109195952Y-49299761D01*
X109243571Y-49252142D01*
X109243571Y-48918809D01*
X109053095Y-48918809D01*
X109434047Y-49442619D02*
X110195952Y-49442619D01*
X110291190Y-48347380D02*
X110862619Y-48347380D01*
X110576904Y-49347380D02*
X110576904Y-48347380D01*
X111386428Y-48347380D02*
X111576904Y-48347380D01*
X111672142Y-48395000D01*
X111767380Y-48490238D01*
X111815000Y-48680714D01*
X111815000Y-49014047D01*
X111767380Y-49204523D01*
X111672142Y-49299761D01*
X111576904Y-49347380D01*
X111386428Y-49347380D01*
X111291190Y-49299761D01*
X111195952Y-49204523D01*
X111148333Y-49014047D01*
X111148333Y-48680714D01*
X111195952Y-48490238D01*
X111291190Y-48395000D01*
X111386428Y-48347380D01*
X112243571Y-48966428D02*
X113005476Y-48966428D01*
X113434047Y-48442619D02*
X113481666Y-48395000D01*
X113576904Y-48347380D01*
X113815000Y-48347380D01*
X113910238Y-48395000D01*
X113957857Y-48442619D01*
X114005476Y-48537857D01*
X114005476Y-48633095D01*
X113957857Y-48775952D01*
X113386428Y-49347380D01*
X114005476Y-49347380D01*
X114386428Y-48442619D02*
X114434047Y-48395000D01*
X114529285Y-48347380D01*
X114767380Y-48347380D01*
X114862619Y-48395000D01*
X114910238Y-48442619D01*
X114957857Y-48537857D01*
X114957857Y-48633095D01*
X114910238Y-48775952D01*
X114338809Y-49347380D01*
X114957857Y-49347380D01*
X115576904Y-48347380D02*
X115672142Y-48347380D01*
X115767380Y-48395000D01*
X115815000Y-48442619D01*
X115862619Y-48537857D01*
X115910238Y-48728333D01*
X115910238Y-48966428D01*
X115862619Y-49156904D01*
X115815000Y-49252142D01*
X115767380Y-49299761D01*
X115672142Y-49347380D01*
X115576904Y-49347380D01*
X115481666Y-49299761D01*
X115434047Y-49252142D01*
X115386428Y-49156904D01*
X115338809Y-48966428D01*
X115338809Y-48728333D01*
X115386428Y-48537857D01*
X115434047Y-48442619D01*
X115481666Y-48395000D01*
X115576904Y-48347380D01*
X116338809Y-48966428D02*
X117100714Y-48966428D01*
X117576904Y-49347380D02*
X117576904Y-48347380D01*
X118005476Y-49347380D02*
X118005476Y-48823571D01*
X117957857Y-48728333D01*
X117862619Y-48680714D01*
X117719761Y-48680714D01*
X117624523Y-48728333D01*
X117576904Y-48775952D01*
X118862619Y-49299761D02*
X118767380Y-49347380D01*
X118576904Y-49347380D01*
X118481666Y-49299761D01*
X118434047Y-49204523D01*
X118434047Y-48823571D01*
X118481666Y-48728333D01*
X118576904Y-48680714D01*
X118767380Y-48680714D01*
X118862619Y-48728333D01*
X118910238Y-48823571D01*
X118910238Y-48918809D01*
X118434047Y-49014047D01*
X119767380Y-49347380D02*
X119767380Y-48823571D01*
X119719761Y-48728333D01*
X119624523Y-48680714D01*
X119434047Y-48680714D01*
X119338809Y-48728333D01*
X119767380Y-49299761D02*
X119672142Y-49347380D01*
X119434047Y-49347380D01*
X119338809Y-49299761D01*
X119291190Y-49204523D01*
X119291190Y-49109285D01*
X119338809Y-49014047D01*
X119434047Y-48966428D01*
X119672142Y-48966428D01*
X119767380Y-48918809D01*
X120100714Y-48680714D02*
X120481666Y-48680714D01*
X120243571Y-48347380D02*
X120243571Y-49204523D01*
X120291190Y-49299761D01*
X120386428Y-49347380D01*
X120481666Y-49347380D01*
X120767380Y-49299761D02*
X120862619Y-49347380D01*
X121053095Y-49347380D01*
X121148333Y-49299761D01*
X121195952Y-49204523D01*
X121195952Y-49156904D01*
X121148333Y-49061666D01*
X121053095Y-49014047D01*
X120910238Y-49014047D01*
X120815000Y-48966428D01*
X120767380Y-48871190D01*
X120767380Y-48823571D01*
X120815000Y-48728333D01*
X120910238Y-48680714D01*
X121053095Y-48680714D01*
X121148333Y-48728333D01*
X121624523Y-49347380D02*
X121624523Y-48680714D01*
X121624523Y-48347380D02*
X121576904Y-48395000D01*
X121624523Y-48442619D01*
X121672142Y-48395000D01*
X121624523Y-48347380D01*
X121624523Y-48442619D01*
X122100714Y-48680714D02*
X122100714Y-49347380D01*
X122100714Y-48775952D02*
X122148333Y-48728333D01*
X122243571Y-48680714D01*
X122386428Y-48680714D01*
X122481666Y-48728333D01*
X122529285Y-48823571D01*
X122529285Y-49347380D01*
X123005476Y-49347380D02*
X123005476Y-48347380D01*
X123100714Y-48966428D02*
X123386428Y-49347380D01*
X123386428Y-48680714D02*
X123005476Y-49061666D01*
%TO.C,J9*%
X122221666Y-68242380D02*
X122221666Y-68956666D01*
X122174047Y-69099523D01*
X122078809Y-69194761D01*
X121935952Y-69242380D01*
X121840714Y-69242380D01*
X122745476Y-69242380D02*
X122935952Y-69242380D01*
X123031190Y-69194761D01*
X123078809Y-69147142D01*
X123174047Y-69004285D01*
X123221666Y-68813809D01*
X123221666Y-68432857D01*
X123174047Y-68337619D01*
X123126428Y-68290000D01*
X123031190Y-68242380D01*
X122840714Y-68242380D01*
X122745476Y-68290000D01*
X122697857Y-68337619D01*
X122650238Y-68432857D01*
X122650238Y-68670952D01*
X122697857Y-68766190D01*
X122745476Y-68813809D01*
X122840714Y-68861428D01*
X123031190Y-68861428D01*
X123126428Y-68813809D01*
X123174047Y-68766190D01*
X123221666Y-68670952D01*
X116031190Y-79779761D02*
X116174047Y-79827380D01*
X116412142Y-79827380D01*
X116507380Y-79779761D01*
X116555000Y-79732142D01*
X116602619Y-79636904D01*
X116602619Y-79541666D01*
X116555000Y-79446428D01*
X116507380Y-79398809D01*
X116412142Y-79351190D01*
X116221666Y-79303571D01*
X116126428Y-79255952D01*
X116078809Y-79208333D01*
X116031190Y-79113095D01*
X116031190Y-79017857D01*
X116078809Y-78922619D01*
X116126428Y-78875000D01*
X116221666Y-78827380D01*
X116459761Y-78827380D01*
X116602619Y-78875000D01*
X117412142Y-79779761D02*
X117316904Y-79827380D01*
X117126428Y-79827380D01*
X117031190Y-79779761D01*
X116983571Y-79684523D01*
X116983571Y-79303571D01*
X117031190Y-79208333D01*
X117126428Y-79160714D01*
X117316904Y-79160714D01*
X117412142Y-79208333D01*
X117459761Y-79303571D01*
X117459761Y-79398809D01*
X116983571Y-79494047D01*
X117888333Y-79827380D02*
X117888333Y-79160714D01*
X117888333Y-79351190D02*
X117935952Y-79255952D01*
X117983571Y-79208333D01*
X118078809Y-79160714D01*
X118174047Y-79160714D01*
X118507380Y-79827380D02*
X118507380Y-79160714D01*
X118507380Y-78827380D02*
X118459761Y-78875000D01*
X118507380Y-78922619D01*
X118555000Y-78875000D01*
X118507380Y-78827380D01*
X118507380Y-78922619D01*
X119412142Y-79827380D02*
X119412142Y-79303571D01*
X119364523Y-79208333D01*
X119269285Y-79160714D01*
X119078809Y-79160714D01*
X118983571Y-79208333D01*
X119412142Y-79779761D02*
X119316904Y-79827380D01*
X119078809Y-79827380D01*
X118983571Y-79779761D01*
X118935952Y-79684523D01*
X118935952Y-79589285D01*
X118983571Y-79494047D01*
X119078809Y-79446428D01*
X119316904Y-79446428D01*
X119412142Y-79398809D01*
X120031190Y-79827380D02*
X119935952Y-79779761D01*
X119888333Y-79684523D01*
X119888333Y-78827380D01*
X120174047Y-79922619D02*
X120935952Y-79922619D01*
X121174047Y-79827380D02*
X121174047Y-78827380D01*
X121555000Y-78827380D01*
X121650238Y-78875000D01*
X121697857Y-78922619D01*
X121745476Y-79017857D01*
X121745476Y-79160714D01*
X121697857Y-79255952D01*
X121650238Y-79303571D01*
X121555000Y-79351190D01*
X121174047Y-79351190D01*
X122174047Y-79827380D02*
X122174047Y-79160714D01*
X122174047Y-78827380D02*
X122126428Y-78875000D01*
X122174047Y-78922619D01*
X122221666Y-78875000D01*
X122174047Y-78827380D01*
X122174047Y-78922619D01*
X122650238Y-79160714D02*
X122650238Y-79827380D01*
X122650238Y-79255952D02*
X122697857Y-79208333D01*
X122793095Y-79160714D01*
X122935952Y-79160714D01*
X123031190Y-79208333D01*
X123078809Y-79303571D01*
X123078809Y-79827380D01*
X123316904Y-79922619D02*
X124078809Y-79922619D01*
X124316904Y-79827380D02*
X124316904Y-78827380D01*
X124316904Y-79303571D02*
X124888333Y-79303571D01*
X124888333Y-79827380D02*
X124888333Y-78827380D01*
X125745476Y-79779761D02*
X125650238Y-79827380D01*
X125459761Y-79827380D01*
X125364523Y-79779761D01*
X125316904Y-79684523D01*
X125316904Y-79303571D01*
X125364523Y-79208333D01*
X125459761Y-79160714D01*
X125650238Y-79160714D01*
X125745476Y-79208333D01*
X125793095Y-79303571D01*
X125793095Y-79398809D01*
X125316904Y-79494047D01*
X126650238Y-79827380D02*
X126650238Y-79303571D01*
X126602619Y-79208333D01*
X126507380Y-79160714D01*
X126316904Y-79160714D01*
X126221666Y-79208333D01*
X126650238Y-79779761D02*
X126555000Y-79827380D01*
X126316904Y-79827380D01*
X126221666Y-79779761D01*
X126174047Y-79684523D01*
X126174047Y-79589285D01*
X126221666Y-79494047D01*
X126316904Y-79446428D01*
X126555000Y-79446428D01*
X126650238Y-79398809D01*
X127555000Y-79827380D02*
X127555000Y-78827380D01*
X127555000Y-79779761D02*
X127459761Y-79827380D01*
X127269285Y-79827380D01*
X127174047Y-79779761D01*
X127126428Y-79732142D01*
X127078809Y-79636904D01*
X127078809Y-79351190D01*
X127126428Y-79255952D01*
X127174047Y-79208333D01*
X127269285Y-79160714D01*
X127459761Y-79160714D01*
X127555000Y-79208333D01*
X128412142Y-79779761D02*
X128316904Y-79827380D01*
X128126428Y-79827380D01*
X128031190Y-79779761D01*
X127983571Y-79684523D01*
X127983571Y-79303571D01*
X128031190Y-79208333D01*
X128126428Y-79160714D01*
X128316904Y-79160714D01*
X128412142Y-79208333D01*
X128459761Y-79303571D01*
X128459761Y-79398809D01*
X127983571Y-79494047D01*
X128888333Y-79827380D02*
X128888333Y-79160714D01*
X128888333Y-79351190D02*
X128935952Y-79255952D01*
X128983571Y-79208333D01*
X129078809Y-79160714D01*
X129174047Y-79160714D01*
%TO.C,SW1*%
X52641666Y-84224761D02*
X52784523Y-84272380D01*
X53022619Y-84272380D01*
X53117857Y-84224761D01*
X53165476Y-84177142D01*
X53213095Y-84081904D01*
X53213095Y-83986666D01*
X53165476Y-83891428D01*
X53117857Y-83843809D01*
X53022619Y-83796190D01*
X52832142Y-83748571D01*
X52736904Y-83700952D01*
X52689285Y-83653333D01*
X52641666Y-83558095D01*
X52641666Y-83462857D01*
X52689285Y-83367619D01*
X52736904Y-83320000D01*
X52832142Y-83272380D01*
X53070238Y-83272380D01*
X53213095Y-83320000D01*
X53546428Y-83272380D02*
X53784523Y-84272380D01*
X53975000Y-83558095D01*
X54165476Y-84272380D01*
X54403571Y-83272380D01*
X55308333Y-84272380D02*
X54736904Y-84272380D01*
X55022619Y-84272380D02*
X55022619Y-83272380D01*
X54927380Y-83415238D01*
X54832142Y-83510476D01*
X54736904Y-83558095D01*
%TO.C,SW2*%
X79311666Y-84224761D02*
X79454523Y-84272380D01*
X79692619Y-84272380D01*
X79787857Y-84224761D01*
X79835476Y-84177142D01*
X79883095Y-84081904D01*
X79883095Y-83986666D01*
X79835476Y-83891428D01*
X79787857Y-83843809D01*
X79692619Y-83796190D01*
X79502142Y-83748571D01*
X79406904Y-83700952D01*
X79359285Y-83653333D01*
X79311666Y-83558095D01*
X79311666Y-83462857D01*
X79359285Y-83367619D01*
X79406904Y-83320000D01*
X79502142Y-83272380D01*
X79740238Y-83272380D01*
X79883095Y-83320000D01*
X80216428Y-83272380D02*
X80454523Y-84272380D01*
X80645000Y-83558095D01*
X80835476Y-84272380D01*
X81073571Y-83272380D01*
X81406904Y-83367619D02*
X81454523Y-83320000D01*
X81549761Y-83272380D01*
X81787857Y-83272380D01*
X81883095Y-83320000D01*
X81930714Y-83367619D01*
X81978333Y-83462857D01*
X81978333Y-83558095D01*
X81930714Y-83700952D01*
X81359285Y-84272380D01*
X81978333Y-84272380D01*
%TO.C,SW4*%
X132651666Y-84224761D02*
X132794523Y-84272380D01*
X133032619Y-84272380D01*
X133127857Y-84224761D01*
X133175476Y-84177142D01*
X133223095Y-84081904D01*
X133223095Y-83986666D01*
X133175476Y-83891428D01*
X133127857Y-83843809D01*
X133032619Y-83796190D01*
X132842142Y-83748571D01*
X132746904Y-83700952D01*
X132699285Y-83653333D01*
X132651666Y-83558095D01*
X132651666Y-83462857D01*
X132699285Y-83367619D01*
X132746904Y-83320000D01*
X132842142Y-83272380D01*
X133080238Y-83272380D01*
X133223095Y-83320000D01*
X133556428Y-83272380D02*
X133794523Y-84272380D01*
X133985000Y-83558095D01*
X134175476Y-84272380D01*
X134413571Y-83272380D01*
X135223095Y-83605714D02*
X135223095Y-84272380D01*
X134985000Y-83224761D02*
X134746904Y-83939047D01*
X135365952Y-83939047D01*
%TO.C,SW5*%
X159321666Y-84224761D02*
X159464523Y-84272380D01*
X159702619Y-84272380D01*
X159797857Y-84224761D01*
X159845476Y-84177142D01*
X159893095Y-84081904D01*
X159893095Y-83986666D01*
X159845476Y-83891428D01*
X159797857Y-83843809D01*
X159702619Y-83796190D01*
X159512142Y-83748571D01*
X159416904Y-83700952D01*
X159369285Y-83653333D01*
X159321666Y-83558095D01*
X159321666Y-83462857D01*
X159369285Y-83367619D01*
X159416904Y-83320000D01*
X159512142Y-83272380D01*
X159750238Y-83272380D01*
X159893095Y-83320000D01*
X160226428Y-83272380D02*
X160464523Y-84272380D01*
X160655000Y-83558095D01*
X160845476Y-84272380D01*
X161083571Y-83272380D01*
X161940714Y-83272380D02*
X161464523Y-83272380D01*
X161416904Y-83748571D01*
X161464523Y-83700952D01*
X161559761Y-83653333D01*
X161797857Y-83653333D01*
X161893095Y-83700952D01*
X161940714Y-83748571D01*
X161988333Y-83843809D01*
X161988333Y-84081904D01*
X161940714Y-84177142D01*
X161893095Y-84224761D01*
X161797857Y-84272380D01*
X161559761Y-84272380D01*
X161464523Y-84224761D01*
X161416904Y-84177142D01*
%TO.C,SW6*%
X185991666Y-84224761D02*
X186134523Y-84272380D01*
X186372619Y-84272380D01*
X186467857Y-84224761D01*
X186515476Y-84177142D01*
X186563095Y-84081904D01*
X186563095Y-83986666D01*
X186515476Y-83891428D01*
X186467857Y-83843809D01*
X186372619Y-83796190D01*
X186182142Y-83748571D01*
X186086904Y-83700952D01*
X186039285Y-83653333D01*
X185991666Y-83558095D01*
X185991666Y-83462857D01*
X186039285Y-83367619D01*
X186086904Y-83320000D01*
X186182142Y-83272380D01*
X186420238Y-83272380D01*
X186563095Y-83320000D01*
X186896428Y-83272380D02*
X187134523Y-84272380D01*
X187325000Y-83558095D01*
X187515476Y-84272380D01*
X187753571Y-83272380D01*
X188563095Y-83272380D02*
X188372619Y-83272380D01*
X188277380Y-83320000D01*
X188229761Y-83367619D01*
X188134523Y-83510476D01*
X188086904Y-83700952D01*
X188086904Y-84081904D01*
X188134523Y-84177142D01*
X188182142Y-84224761D01*
X188277380Y-84272380D01*
X188467857Y-84272380D01*
X188563095Y-84224761D01*
X188610714Y-84177142D01*
X188658333Y-84081904D01*
X188658333Y-83843809D01*
X188610714Y-83748571D01*
X188563095Y-83700952D01*
X188467857Y-83653333D01*
X188277380Y-83653333D01*
X188182142Y-83700952D01*
X188134523Y-83748571D01*
X188086904Y-83843809D01*
%TO.C,SW7*%
X212661666Y-84224761D02*
X212804523Y-84272380D01*
X213042619Y-84272380D01*
X213137857Y-84224761D01*
X213185476Y-84177142D01*
X213233095Y-84081904D01*
X213233095Y-83986666D01*
X213185476Y-83891428D01*
X213137857Y-83843809D01*
X213042619Y-83796190D01*
X212852142Y-83748571D01*
X212756904Y-83700952D01*
X212709285Y-83653333D01*
X212661666Y-83558095D01*
X212661666Y-83462857D01*
X212709285Y-83367619D01*
X212756904Y-83320000D01*
X212852142Y-83272380D01*
X213090238Y-83272380D01*
X213233095Y-83320000D01*
X213566428Y-83272380D02*
X213804523Y-84272380D01*
X213995000Y-83558095D01*
X214185476Y-84272380D01*
X214423571Y-83272380D01*
X214709285Y-83272380D02*
X215375952Y-83272380D01*
X214947380Y-84272380D01*
%TO.C,SW8*%
X239331666Y-84224761D02*
X239474523Y-84272380D01*
X239712619Y-84272380D01*
X239807857Y-84224761D01*
X239855476Y-84177142D01*
X239903095Y-84081904D01*
X239903095Y-83986666D01*
X239855476Y-83891428D01*
X239807857Y-83843809D01*
X239712619Y-83796190D01*
X239522142Y-83748571D01*
X239426904Y-83700952D01*
X239379285Y-83653333D01*
X239331666Y-83558095D01*
X239331666Y-83462857D01*
X239379285Y-83367619D01*
X239426904Y-83320000D01*
X239522142Y-83272380D01*
X239760238Y-83272380D01*
X239903095Y-83320000D01*
X240236428Y-83272380D02*
X240474523Y-84272380D01*
X240665000Y-83558095D01*
X240855476Y-84272380D01*
X241093571Y-83272380D01*
X241617380Y-83700952D02*
X241522142Y-83653333D01*
X241474523Y-83605714D01*
X241426904Y-83510476D01*
X241426904Y-83462857D01*
X241474523Y-83367619D01*
X241522142Y-83320000D01*
X241617380Y-83272380D01*
X241807857Y-83272380D01*
X241903095Y-83320000D01*
X241950714Y-83367619D01*
X241998333Y-83462857D01*
X241998333Y-83510476D01*
X241950714Y-83605714D01*
X241903095Y-83653333D01*
X241807857Y-83700952D01*
X241617380Y-83700952D01*
X241522142Y-83748571D01*
X241474523Y-83796190D01*
X241426904Y-83891428D01*
X241426904Y-84081904D01*
X241474523Y-84177142D01*
X241522142Y-84224761D01*
X241617380Y-84272380D01*
X241807857Y-84272380D01*
X241903095Y-84224761D01*
X241950714Y-84177142D01*
X241998333Y-84081904D01*
X241998333Y-83891428D01*
X241950714Y-83796190D01*
X241903095Y-83748571D01*
X241807857Y-83700952D01*
%TO.C,U1*%
X106553095Y-57872380D02*
X106553095Y-58681904D01*
X106600714Y-58777142D01*
X106648333Y-58824761D01*
X106743571Y-58872380D01*
X106934047Y-58872380D01*
X107029285Y-58824761D01*
X107076904Y-58777142D01*
X107124523Y-58681904D01*
X107124523Y-57872380D01*
X108124523Y-58872380D02*
X107553095Y-58872380D01*
X107838809Y-58872380D02*
X107838809Y-57872380D01*
X107743571Y-58015238D01*
X107648333Y-58110476D01*
X107553095Y-58158095D01*
X103338809Y-56927380D02*
X102862619Y-56927380D01*
X102862619Y-55927380D01*
X103672142Y-56927380D02*
X103672142Y-55927380D01*
X104005476Y-56641666D01*
X104338809Y-55927380D01*
X104338809Y-56927380D01*
X105338809Y-56927380D02*
X104767380Y-56927380D01*
X105053095Y-56927380D02*
X105053095Y-55927380D01*
X104957857Y-56070238D01*
X104862619Y-56165476D01*
X104767380Y-56213095D01*
X105957857Y-55927380D02*
X106053095Y-55927380D01*
X106148333Y-55975000D01*
X106195952Y-56022619D01*
X106243571Y-56117857D01*
X106291190Y-56308333D01*
X106291190Y-56546428D01*
X106243571Y-56736904D01*
X106195952Y-56832142D01*
X106148333Y-56879761D01*
X106053095Y-56927380D01*
X105957857Y-56927380D01*
X105862619Y-56879761D01*
X105815000Y-56832142D01*
X105767380Y-56736904D01*
X105719761Y-56546428D01*
X105719761Y-56308333D01*
X105767380Y-56117857D01*
X105815000Y-56022619D01*
X105862619Y-55975000D01*
X105957857Y-55927380D01*
X106862619Y-56355952D02*
X106767380Y-56308333D01*
X106719761Y-56260714D01*
X106672142Y-56165476D01*
X106672142Y-56117857D01*
X106719761Y-56022619D01*
X106767380Y-55975000D01*
X106862619Y-55927380D01*
X107053095Y-55927380D01*
X107148333Y-55975000D01*
X107195952Y-56022619D01*
X107243571Y-56117857D01*
X107243571Y-56165476D01*
X107195952Y-56260714D01*
X107148333Y-56308333D01*
X107053095Y-56355952D01*
X106862619Y-56355952D01*
X106767380Y-56403571D01*
X106719761Y-56451190D01*
X106672142Y-56546428D01*
X106672142Y-56736904D01*
X106719761Y-56832142D01*
X106767380Y-56879761D01*
X106862619Y-56927380D01*
X107053095Y-56927380D01*
X107148333Y-56879761D01*
X107195952Y-56832142D01*
X107243571Y-56736904D01*
X107243571Y-56546428D01*
X107195952Y-56451190D01*
X107148333Y-56403571D01*
X107053095Y-56355952D01*
X108100714Y-56260714D02*
X108100714Y-56927380D01*
X107862619Y-55879761D02*
X107624523Y-56594047D01*
X108243571Y-56594047D01*
X108624523Y-56546428D02*
X109386428Y-56546428D01*
X110338809Y-55927380D02*
X109862619Y-55927380D01*
X109815000Y-56403571D01*
X109862619Y-56355952D01*
X109957857Y-56308333D01*
X110195952Y-56308333D01*
X110291190Y-56355952D01*
X110338809Y-56403571D01*
X110386428Y-56498809D01*
X110386428Y-56736904D01*
X110338809Y-56832142D01*
X110291190Y-56879761D01*
X110195952Y-56927380D01*
X109957857Y-56927380D01*
X109862619Y-56879761D01*
X109815000Y-56832142D01*
X110815000Y-56832142D02*
X110862619Y-56879761D01*
X110815000Y-56927380D01*
X110767380Y-56879761D01*
X110815000Y-56832142D01*
X110815000Y-56927380D01*
X111481666Y-55927380D02*
X111576904Y-55927380D01*
X111672142Y-55975000D01*
X111719761Y-56022619D01*
X111767380Y-56117857D01*
X111815000Y-56308333D01*
X111815000Y-56546428D01*
X111767380Y-56736904D01*
X111719761Y-56832142D01*
X111672142Y-56879761D01*
X111576904Y-56927380D01*
X111481666Y-56927380D01*
X111386428Y-56879761D01*
X111338809Y-56832142D01*
X111291190Y-56736904D01*
X111243571Y-56546428D01*
X111243571Y-56308333D01*
X111291190Y-56117857D01*
X111338809Y-56022619D01*
X111386428Y-55975000D01*
X111481666Y-55927380D01*
%TO.C,U2*%
X199687380Y-60451904D02*
X200496904Y-60451904D01*
X200592142Y-60404285D01*
X200639761Y-60356666D01*
X200687380Y-60261428D01*
X200687380Y-60070952D01*
X200639761Y-59975714D01*
X200592142Y-59928095D01*
X200496904Y-59880476D01*
X199687380Y-59880476D01*
X199782619Y-59451904D02*
X199735000Y-59404285D01*
X199687380Y-59309047D01*
X199687380Y-59070952D01*
X199735000Y-58975714D01*
X199782619Y-58928095D01*
X199877857Y-58880476D01*
X199973095Y-58880476D01*
X200115952Y-58928095D01*
X200687380Y-59499523D01*
X200687380Y-58880476D01*
X225667380Y-64928095D02*
X224667380Y-64928095D01*
X225381666Y-64594761D01*
X224667380Y-64261428D01*
X225667380Y-64261428D01*
X225572142Y-63213809D02*
X225619761Y-63261428D01*
X225667380Y-63404285D01*
X225667380Y-63499523D01*
X225619761Y-63642380D01*
X225524523Y-63737619D01*
X225429285Y-63785238D01*
X225238809Y-63832857D01*
X225095952Y-63832857D01*
X224905476Y-63785238D01*
X224810238Y-63737619D01*
X224715000Y-63642380D01*
X224667380Y-63499523D01*
X224667380Y-63404285D01*
X224715000Y-63261428D01*
X224762619Y-63213809D01*
X225667380Y-62785238D02*
X224667380Y-62785238D01*
X224667380Y-62404285D01*
X224715000Y-62309047D01*
X224762619Y-62261428D01*
X224857857Y-62213809D01*
X225000714Y-62213809D01*
X225095952Y-62261428D01*
X225143571Y-62309047D01*
X225191190Y-62404285D01*
X225191190Y-62785238D01*
X224762619Y-61832857D02*
X224715000Y-61785238D01*
X224667380Y-61690000D01*
X224667380Y-61451904D01*
X224715000Y-61356666D01*
X224762619Y-61309047D01*
X224857857Y-61261428D01*
X224953095Y-61261428D01*
X225095952Y-61309047D01*
X225667380Y-61880476D01*
X225667380Y-61261428D01*
X224667380Y-60928095D02*
X224667380Y-60309047D01*
X225048333Y-60642380D01*
X225048333Y-60499523D01*
X225095952Y-60404285D01*
X225143571Y-60356666D01*
X225238809Y-60309047D01*
X225476904Y-60309047D01*
X225572142Y-60356666D01*
X225619761Y-60404285D01*
X225667380Y-60499523D01*
X225667380Y-60785238D01*
X225619761Y-60880476D01*
X225572142Y-60928095D01*
X224667380Y-59690000D02*
X224667380Y-59594761D01*
X224715000Y-59499523D01*
X224762619Y-59451904D01*
X224857857Y-59404285D01*
X225048333Y-59356666D01*
X225286428Y-59356666D01*
X225476904Y-59404285D01*
X225572142Y-59451904D01*
X225619761Y-59499523D01*
X225667380Y-59594761D01*
X225667380Y-59690000D01*
X225619761Y-59785238D01*
X225572142Y-59832857D01*
X225476904Y-59880476D01*
X225286428Y-59928095D01*
X225048333Y-59928095D01*
X224857857Y-59880476D01*
X224762619Y-59832857D01*
X224715000Y-59785238D01*
X224667380Y-59690000D01*
X224667380Y-58737619D02*
X224667380Y-58642380D01*
X224715000Y-58547142D01*
X224762619Y-58499523D01*
X224857857Y-58451904D01*
X225048333Y-58404285D01*
X225286428Y-58404285D01*
X225476904Y-58451904D01*
X225572142Y-58499523D01*
X225619761Y-58547142D01*
X225667380Y-58642380D01*
X225667380Y-58737619D01*
X225619761Y-58832857D01*
X225572142Y-58880476D01*
X225476904Y-58928095D01*
X225286428Y-58975714D01*
X225048333Y-58975714D01*
X224857857Y-58928095D01*
X224762619Y-58880476D01*
X224715000Y-58832857D01*
X224667380Y-58737619D01*
X225095952Y-57832857D02*
X225048333Y-57928095D01*
X225000714Y-57975714D01*
X224905476Y-58023333D01*
X224857857Y-58023333D01*
X224762619Y-57975714D01*
X224715000Y-57928095D01*
X224667380Y-57832857D01*
X224667380Y-57642380D01*
X224715000Y-57547142D01*
X224762619Y-57499523D01*
X224857857Y-57451904D01*
X224905476Y-57451904D01*
X225000714Y-57499523D01*
X225048333Y-57547142D01*
X225095952Y-57642380D01*
X225095952Y-57832857D01*
X225143571Y-57928095D01*
X225191190Y-57975714D01*
X225286428Y-58023333D01*
X225476904Y-58023333D01*
X225572142Y-57975714D01*
X225619761Y-57928095D01*
X225667380Y-57832857D01*
X225667380Y-57642380D01*
X225619761Y-57547142D01*
X225572142Y-57499523D01*
X225476904Y-57451904D01*
X225286428Y-57451904D01*
X225191190Y-57499523D01*
X225143571Y-57547142D01*
X225095952Y-57642380D01*
X225286428Y-57023333D02*
X225286428Y-56261428D01*
X225667380Y-55880476D02*
X225000714Y-55356666D01*
X225000714Y-55880476D02*
X225667380Y-55356666D01*
X225667380Y-54975714D02*
X224667380Y-54975714D01*
X224667380Y-54594761D01*
X224715000Y-54499523D01*
X224762619Y-54451904D01*
X224857857Y-54404285D01*
X225000714Y-54404285D01*
X225095952Y-54451904D01*
X225143571Y-54499523D01*
X225191190Y-54594761D01*
X225191190Y-54975714D01*
%TO.C,U3*%
X222762380Y-72516904D02*
X223571904Y-72516904D01*
X223667142Y-72469285D01*
X223714761Y-72421666D01*
X223762380Y-72326428D01*
X223762380Y-72135952D01*
X223714761Y-72040714D01*
X223667142Y-71993095D01*
X223571904Y-71945476D01*
X222762380Y-71945476D01*
X222762380Y-71564523D02*
X222762380Y-70945476D01*
X223143333Y-71278809D01*
X223143333Y-71135952D01*
X223190952Y-71040714D01*
X223238571Y-70993095D01*
X223333809Y-70945476D01*
X223571904Y-70945476D01*
X223667142Y-70993095D01*
X223714761Y-71040714D01*
X223762380Y-71135952D01*
X223762380Y-71421666D01*
X223714761Y-71516904D01*
X223667142Y-71564523D01*
X200322380Y-74874047D02*
X201131904Y-74874047D01*
X201227142Y-74826428D01*
X201274761Y-74778809D01*
X201322380Y-74683571D01*
X201322380Y-74493095D01*
X201274761Y-74397857D01*
X201227142Y-74350238D01*
X201131904Y-74302619D01*
X200322380Y-74302619D01*
X201322380Y-73350238D02*
X201322380Y-73826428D01*
X200322380Y-73826428D01*
X201322380Y-73016904D02*
X200322380Y-73016904D01*
X201322380Y-72445476D01*
X200322380Y-72445476D01*
X200417619Y-72016904D02*
X200370000Y-71969285D01*
X200322380Y-71874047D01*
X200322380Y-71635952D01*
X200370000Y-71540714D01*
X200417619Y-71493095D01*
X200512857Y-71445476D01*
X200608095Y-71445476D01*
X200750952Y-71493095D01*
X201322380Y-72064523D01*
X201322380Y-71445476D01*
X200322380Y-70826428D02*
X200322380Y-70731190D01*
X200370000Y-70635952D01*
X200417619Y-70588333D01*
X200512857Y-70540714D01*
X200703333Y-70493095D01*
X200941428Y-70493095D01*
X201131904Y-70540714D01*
X201227142Y-70588333D01*
X201274761Y-70635952D01*
X201322380Y-70731190D01*
X201322380Y-70826428D01*
X201274761Y-70921666D01*
X201227142Y-70969285D01*
X201131904Y-71016904D01*
X200941428Y-71064523D01*
X200703333Y-71064523D01*
X200512857Y-71016904D01*
X200417619Y-70969285D01*
X200370000Y-70921666D01*
X200322380Y-70826428D01*
X200322380Y-69874047D02*
X200322380Y-69778809D01*
X200370000Y-69683571D01*
X200417619Y-69635952D01*
X200512857Y-69588333D01*
X200703333Y-69540714D01*
X200941428Y-69540714D01*
X201131904Y-69588333D01*
X201227142Y-69635952D01*
X201274761Y-69683571D01*
X201322380Y-69778809D01*
X201322380Y-69874047D01*
X201274761Y-69969285D01*
X201227142Y-70016904D01*
X201131904Y-70064523D01*
X200941428Y-70112142D01*
X200703333Y-70112142D01*
X200512857Y-70064523D01*
X200417619Y-70016904D01*
X200370000Y-69969285D01*
X200322380Y-69874047D01*
X200322380Y-69207380D02*
X200322380Y-68588333D01*
X200703333Y-68921666D01*
X200703333Y-68778809D01*
X200750952Y-68683571D01*
X200798571Y-68635952D01*
X200893809Y-68588333D01*
X201131904Y-68588333D01*
X201227142Y-68635952D01*
X201274761Y-68683571D01*
X201322380Y-68778809D01*
X201322380Y-69064523D01*
X201274761Y-69159761D01*
X201227142Y-69207380D01*
%TO.C,U4*%
X246892380Y-72516904D02*
X247701904Y-72516904D01*
X247797142Y-72469285D01*
X247844761Y-72421666D01*
X247892380Y-72326428D01*
X247892380Y-72135952D01*
X247844761Y-72040714D01*
X247797142Y-71993095D01*
X247701904Y-71945476D01*
X246892380Y-71945476D01*
X247225714Y-71040714D02*
X247892380Y-71040714D01*
X246844761Y-71278809D02*
X247559047Y-71516904D01*
X247559047Y-70897857D01*
X224452380Y-74874047D02*
X225261904Y-74874047D01*
X225357142Y-74826428D01*
X225404761Y-74778809D01*
X225452380Y-74683571D01*
X225452380Y-74493095D01*
X225404761Y-74397857D01*
X225357142Y-74350238D01*
X225261904Y-74302619D01*
X224452380Y-74302619D01*
X225452380Y-73350238D02*
X225452380Y-73826428D01*
X224452380Y-73826428D01*
X225452380Y-73016904D02*
X224452380Y-73016904D01*
X225452380Y-72445476D01*
X224452380Y-72445476D01*
X224547619Y-72016904D02*
X224500000Y-71969285D01*
X224452380Y-71874047D01*
X224452380Y-71635952D01*
X224500000Y-71540714D01*
X224547619Y-71493095D01*
X224642857Y-71445476D01*
X224738095Y-71445476D01*
X224880952Y-71493095D01*
X225452380Y-72064523D01*
X225452380Y-71445476D01*
X224452380Y-70826428D02*
X224452380Y-70731190D01*
X224500000Y-70635952D01*
X224547619Y-70588333D01*
X224642857Y-70540714D01*
X224833333Y-70493095D01*
X225071428Y-70493095D01*
X225261904Y-70540714D01*
X225357142Y-70588333D01*
X225404761Y-70635952D01*
X225452380Y-70731190D01*
X225452380Y-70826428D01*
X225404761Y-70921666D01*
X225357142Y-70969285D01*
X225261904Y-71016904D01*
X225071428Y-71064523D01*
X224833333Y-71064523D01*
X224642857Y-71016904D01*
X224547619Y-70969285D01*
X224500000Y-70921666D01*
X224452380Y-70826428D01*
X224452380Y-69874047D02*
X224452380Y-69778809D01*
X224500000Y-69683571D01*
X224547619Y-69635952D01*
X224642857Y-69588333D01*
X224833333Y-69540714D01*
X225071428Y-69540714D01*
X225261904Y-69588333D01*
X225357142Y-69635952D01*
X225404761Y-69683571D01*
X225452380Y-69778809D01*
X225452380Y-69874047D01*
X225404761Y-69969285D01*
X225357142Y-70016904D01*
X225261904Y-70064523D01*
X225071428Y-70112142D01*
X224833333Y-70112142D01*
X224642857Y-70064523D01*
X224547619Y-70016904D01*
X224500000Y-69969285D01*
X224452380Y-69874047D01*
X224452380Y-69207380D02*
X224452380Y-68588333D01*
X224833333Y-68921666D01*
X224833333Y-68778809D01*
X224880952Y-68683571D01*
X224928571Y-68635952D01*
X225023809Y-68588333D01*
X225261904Y-68588333D01*
X225357142Y-68635952D01*
X225404761Y-68683571D01*
X225452380Y-68778809D01*
X225452380Y-69064523D01*
X225404761Y-69159761D01*
X225357142Y-69207380D01*
%TO.C,J12*%
X79835476Y-57237380D02*
X79835476Y-57951666D01*
X79787857Y-58094523D01*
X79692619Y-58189761D01*
X79549761Y-58237380D01*
X79454523Y-58237380D01*
X80835476Y-58237380D02*
X80264047Y-58237380D01*
X80549761Y-58237380D02*
X80549761Y-57237380D01*
X80454523Y-57380238D01*
X80359285Y-57475476D01*
X80264047Y-57523095D01*
X81216428Y-57332619D02*
X81264047Y-57285000D01*
X81359285Y-57237380D01*
X81597380Y-57237380D01*
X81692619Y-57285000D01*
X81740238Y-57332619D01*
X81787857Y-57427857D01*
X81787857Y-57523095D01*
X81740238Y-57665952D01*
X81168809Y-58237380D01*
X81787857Y-58237380D01*
%TO.C,J10*%
X60785476Y-61047380D02*
X60785476Y-61761666D01*
X60737857Y-61904523D01*
X60642619Y-61999761D01*
X60499761Y-62047380D01*
X60404523Y-62047380D01*
X61785476Y-62047380D02*
X61214047Y-62047380D01*
X61499761Y-62047380D02*
X61499761Y-61047380D01*
X61404523Y-61190238D01*
X61309285Y-61285476D01*
X61214047Y-61333095D01*
X62404523Y-61047380D02*
X62499761Y-61047380D01*
X62595000Y-61095000D01*
X62642619Y-61142619D01*
X62690238Y-61237857D01*
X62737857Y-61428333D01*
X62737857Y-61666428D01*
X62690238Y-61856904D01*
X62642619Y-61952142D01*
X62595000Y-61999761D01*
X62499761Y-62047380D01*
X62404523Y-62047380D01*
X62309285Y-61999761D01*
X62261666Y-61952142D01*
X62214047Y-61856904D01*
X62166428Y-61666428D01*
X62166428Y-61428333D01*
X62214047Y-61237857D01*
X62261666Y-61142619D01*
X62309285Y-61095000D01*
X62404523Y-61047380D01*
%TO.C,J1*%
X54276666Y-115657380D02*
X54276666Y-116371666D01*
X54229047Y-116514523D01*
X54133809Y-116609761D01*
X53990952Y-116657380D01*
X53895714Y-116657380D01*
X55276666Y-116657380D02*
X54705238Y-116657380D01*
X54990952Y-116657380D02*
X54990952Y-115657380D01*
X54895714Y-115800238D01*
X54800476Y-115895476D01*
X54705238Y-115943095D01*
%TO.C,J2*%
X80946666Y-115657380D02*
X80946666Y-116371666D01*
X80899047Y-116514523D01*
X80803809Y-116609761D01*
X80660952Y-116657380D01*
X80565714Y-116657380D01*
X81375238Y-115752619D02*
X81422857Y-115705000D01*
X81518095Y-115657380D01*
X81756190Y-115657380D01*
X81851428Y-115705000D01*
X81899047Y-115752619D01*
X81946666Y-115847857D01*
X81946666Y-115943095D01*
X81899047Y-116085952D01*
X81327619Y-116657380D01*
X81946666Y-116657380D01*
%TO.C,J3*%
X107616666Y-115657380D02*
X107616666Y-116371666D01*
X107569047Y-116514523D01*
X107473809Y-116609761D01*
X107330952Y-116657380D01*
X107235714Y-116657380D01*
X107997619Y-115657380D02*
X108616666Y-115657380D01*
X108283333Y-116038333D01*
X108426190Y-116038333D01*
X108521428Y-116085952D01*
X108569047Y-116133571D01*
X108616666Y-116228809D01*
X108616666Y-116466904D01*
X108569047Y-116562142D01*
X108521428Y-116609761D01*
X108426190Y-116657380D01*
X108140476Y-116657380D01*
X108045238Y-116609761D01*
X107997619Y-116562142D01*
%TO.C,J4*%
X134286666Y-115657380D02*
X134286666Y-116371666D01*
X134239047Y-116514523D01*
X134143809Y-116609761D01*
X134000952Y-116657380D01*
X133905714Y-116657380D01*
X135191428Y-115990714D02*
X135191428Y-116657380D01*
X134953333Y-115609761D02*
X134715238Y-116324047D01*
X135334285Y-116324047D01*
%TO.C,J5*%
X160956666Y-115657380D02*
X160956666Y-116371666D01*
X160909047Y-116514523D01*
X160813809Y-116609761D01*
X160670952Y-116657380D01*
X160575714Y-116657380D01*
X161909047Y-115657380D02*
X161432857Y-115657380D01*
X161385238Y-116133571D01*
X161432857Y-116085952D01*
X161528095Y-116038333D01*
X161766190Y-116038333D01*
X161861428Y-116085952D01*
X161909047Y-116133571D01*
X161956666Y-116228809D01*
X161956666Y-116466904D01*
X161909047Y-116562142D01*
X161861428Y-116609761D01*
X161766190Y-116657380D01*
X161528095Y-116657380D01*
X161432857Y-116609761D01*
X161385238Y-116562142D01*
%TO.C,J6*%
X187626666Y-115657380D02*
X187626666Y-116371666D01*
X187579047Y-116514523D01*
X187483809Y-116609761D01*
X187340952Y-116657380D01*
X187245714Y-116657380D01*
X188531428Y-115657380D02*
X188340952Y-115657380D01*
X188245714Y-115705000D01*
X188198095Y-115752619D01*
X188102857Y-115895476D01*
X188055238Y-116085952D01*
X188055238Y-116466904D01*
X188102857Y-116562142D01*
X188150476Y-116609761D01*
X188245714Y-116657380D01*
X188436190Y-116657380D01*
X188531428Y-116609761D01*
X188579047Y-116562142D01*
X188626666Y-116466904D01*
X188626666Y-116228809D01*
X188579047Y-116133571D01*
X188531428Y-116085952D01*
X188436190Y-116038333D01*
X188245714Y-116038333D01*
X188150476Y-116085952D01*
X188102857Y-116133571D01*
X188055238Y-116228809D01*
%TO.C,J7*%
X214296666Y-115657380D02*
X214296666Y-116371666D01*
X214249047Y-116514523D01*
X214153809Y-116609761D01*
X214010952Y-116657380D01*
X213915714Y-116657380D01*
X214677619Y-115657380D02*
X215344285Y-115657380D01*
X214915714Y-116657380D01*
%TO.C,J8*%
X240966666Y-115657380D02*
X240966666Y-116371666D01*
X240919047Y-116514523D01*
X240823809Y-116609761D01*
X240680952Y-116657380D01*
X240585714Y-116657380D01*
X241585714Y-116085952D02*
X241490476Y-116038333D01*
X241442857Y-115990714D01*
X241395238Y-115895476D01*
X241395238Y-115847857D01*
X241442857Y-115752619D01*
X241490476Y-115705000D01*
X241585714Y-115657380D01*
X241776190Y-115657380D01*
X241871428Y-115705000D01*
X241919047Y-115752619D01*
X241966666Y-115847857D01*
X241966666Y-115895476D01*
X241919047Y-115990714D01*
X241871428Y-116038333D01*
X241776190Y-116085952D01*
X241585714Y-116085952D01*
X241490476Y-116133571D01*
X241442857Y-116181190D01*
X241395238Y-116276428D01*
X241395238Y-116466904D01*
X241442857Y-116562142D01*
X241490476Y-116609761D01*
X241585714Y-116657380D01*
X241776190Y-116657380D01*
X241871428Y-116609761D01*
X241919047Y-116562142D01*
X241966666Y-116466904D01*
X241966666Y-116276428D01*
X241919047Y-116181190D01*
X241871428Y-116133571D01*
X241776190Y-116085952D01*
%TD*%
M02*
