%TF.GenerationSoftware,KiCad,Pcbnew,(5.1.12-1-10_14)*%
%TF.CreationDate,2022-01-02T10:15:02-08:00*%
%TF.ProjectId,bias-supply,62696173-2d73-4757-9070-6c792e6b6963,1.0*%
%TF.SameCoordinates,Original*%
%TF.FileFunction,Legend,Top*%
%TF.FilePolarity,Positive*%
%FSLAX46Y46*%
G04 Gerber Fmt 4.6, Leading zero omitted, Abs format (unit mm)*
G04 Created by KiCad (PCBNEW (5.1.12-1-10_14)) date 2022-01-02 10:15:02*
%MOMM*%
%LPD*%
G01*
G04 APERTURE LIST*
%ADD10C,0.150000*%
%ADD11C,0.350000*%
%ADD12C,0.120000*%
%ADD13C,0.381000*%
G04 APERTURE END LIST*
D10*
X155257619Y-68667380D02*
X155590952Y-69667380D01*
X155924285Y-68667380D01*
X156257619Y-69286428D02*
X157019523Y-69286428D01*
X168846666Y-68667380D02*
X169084761Y-69667380D01*
X169275238Y-68953095D01*
X169465714Y-69667380D01*
X169703809Y-68667380D01*
X170084761Y-69667380D02*
X170084761Y-68667380D01*
X170084761Y-69143571D02*
X170656190Y-69143571D01*
X170656190Y-69667380D02*
X170656190Y-68667380D01*
X170989523Y-68667380D02*
X171560952Y-68667380D01*
X171275238Y-69667380D02*
X171275238Y-68667380D01*
X164266666Y-69143571D02*
X164409523Y-69191190D01*
X164457142Y-69238809D01*
X164504761Y-69334047D01*
X164504761Y-69476904D01*
X164457142Y-69572142D01*
X164409523Y-69619761D01*
X164314285Y-69667380D01*
X163933333Y-69667380D01*
X163933333Y-68667380D01*
X164266666Y-68667380D01*
X164361904Y-68715000D01*
X164409523Y-68762619D01*
X164457142Y-68857857D01*
X164457142Y-68953095D01*
X164409523Y-69048333D01*
X164361904Y-69095952D01*
X164266666Y-69143571D01*
X163933333Y-69143571D01*
X165409523Y-69667380D02*
X164933333Y-69667380D01*
X164933333Y-68667380D01*
X165742857Y-69667380D02*
X165742857Y-68667380D01*
X166314285Y-69667380D02*
X165885714Y-69095952D01*
X166314285Y-68667380D02*
X165742857Y-69238809D01*
X150812619Y-68667380D02*
X151145952Y-69667380D01*
X151479285Y-68667380D01*
X151812619Y-69286428D02*
X152574523Y-69286428D01*
X152193571Y-69667380D02*
X152193571Y-68905476D01*
X145288095Y-68715000D02*
X145192857Y-68667380D01*
X145050000Y-68667380D01*
X144907142Y-68715000D01*
X144811904Y-68810238D01*
X144764285Y-68905476D01*
X144716666Y-69095952D01*
X144716666Y-69238809D01*
X144764285Y-69429285D01*
X144811904Y-69524523D01*
X144907142Y-69619761D01*
X145050000Y-69667380D01*
X145145238Y-69667380D01*
X145288095Y-69619761D01*
X145335714Y-69572142D01*
X145335714Y-69238809D01*
X145145238Y-69238809D01*
X145764285Y-69667380D02*
X145764285Y-68667380D01*
X146335714Y-69667380D01*
X146335714Y-68667380D01*
X146811904Y-69667380D02*
X146811904Y-68667380D01*
X147050000Y-68667380D01*
X147192857Y-68715000D01*
X147288095Y-68810238D01*
X147335714Y-68905476D01*
X147383333Y-69095952D01*
X147383333Y-69238809D01*
X147335714Y-69429285D01*
X147288095Y-69524523D01*
X147192857Y-69619761D01*
X147050000Y-69667380D01*
X146811904Y-69667380D01*
X132453095Y-69572142D02*
X132405476Y-69619761D01*
X132262619Y-69667380D01*
X132167380Y-69667380D01*
X132024523Y-69619761D01*
X131929285Y-69524523D01*
X131881666Y-69429285D01*
X131834047Y-69238809D01*
X131834047Y-69095952D01*
X131881666Y-68905476D01*
X131929285Y-68810238D01*
X132024523Y-68715000D01*
X132167380Y-68667380D01*
X132262619Y-68667380D01*
X132405476Y-68715000D01*
X132453095Y-68762619D01*
X132786428Y-68667380D02*
X133024523Y-69667380D01*
X133215000Y-68953095D01*
X133405476Y-69667380D01*
X133643571Y-68667380D01*
X121793095Y-69572142D02*
X121745476Y-69619761D01*
X121602619Y-69667380D01*
X121507380Y-69667380D01*
X121364523Y-69619761D01*
X121269285Y-69524523D01*
X121221666Y-69429285D01*
X121174047Y-69238809D01*
X121174047Y-69095952D01*
X121221666Y-68905476D01*
X121269285Y-68810238D01*
X121364523Y-68715000D01*
X121507380Y-68667380D01*
X121602619Y-68667380D01*
X121745476Y-68715000D01*
X121793095Y-68762619D01*
X122793095Y-69572142D02*
X122745476Y-69619761D01*
X122602619Y-69667380D01*
X122507380Y-69667380D01*
X122364523Y-69619761D01*
X122269285Y-69524523D01*
X122221666Y-69429285D01*
X122174047Y-69238809D01*
X122174047Y-69095952D01*
X122221666Y-68905476D01*
X122269285Y-68810238D01*
X122364523Y-68715000D01*
X122507380Y-68667380D01*
X122602619Y-68667380D01*
X122745476Y-68715000D01*
X122793095Y-68762619D01*
X123126428Y-68667380D02*
X123364523Y-69667380D01*
X123555000Y-68953095D01*
X123745476Y-69667380D01*
X123983571Y-68667380D01*
D11*
X174668571Y-126404419D02*
X173168571Y-126216919D01*
X173168571Y-125859776D01*
X173240000Y-125654419D01*
X173382857Y-125529419D01*
X173525714Y-125475848D01*
X173811428Y-125440133D01*
X174025714Y-125466919D01*
X174311428Y-125574062D01*
X174454285Y-125663348D01*
X174597142Y-125824062D01*
X174668571Y-126047276D01*
X174668571Y-126404419D01*
X174240000Y-124922276D02*
X174240000Y-124207991D01*
X174668571Y-125118705D02*
X173168571Y-124431205D01*
X174668571Y-124118705D01*
X174668571Y-123618705D02*
X173168571Y-123431205D01*
X174668571Y-122761562D01*
X173168571Y-122574062D01*
X173240000Y-121082991D02*
X173168571Y-121216919D01*
X173168571Y-121431205D01*
X173240000Y-121654419D01*
X173382857Y-121815133D01*
X173525714Y-121904419D01*
X173811428Y-122011562D01*
X174025714Y-122038348D01*
X174311428Y-122002633D01*
X174454285Y-121949062D01*
X174597142Y-121824062D01*
X174668571Y-121618705D01*
X174668571Y-121475848D01*
X174597142Y-121252633D01*
X174525714Y-121172276D01*
X174025714Y-121109776D01*
X174025714Y-121395491D01*
X173882857Y-120449062D02*
X173882857Y-119949062D01*
X174668571Y-119832991D02*
X174668571Y-120547276D01*
X173168571Y-120359776D01*
X173168571Y-119645491D01*
X174668571Y-118332991D02*
X173954285Y-118743705D01*
X174668571Y-119190133D02*
X173168571Y-119002633D01*
X173168571Y-118431205D01*
X173240000Y-118297276D01*
X173311428Y-118234776D01*
X173454285Y-118181205D01*
X173668571Y-118207991D01*
X173811428Y-118297276D01*
X173882857Y-118377633D01*
X173954285Y-118529419D01*
X173954285Y-119100848D01*
X174525714Y-117672276D02*
X174597142Y-117609776D01*
X174668571Y-117690133D01*
X174597142Y-117752633D01*
X174525714Y-117672276D01*
X174668571Y-117690133D01*
X174097142Y-117618705D02*
X173240000Y-117582991D01*
X173168571Y-117502633D01*
X173240000Y-117440133D01*
X174097142Y-117618705D01*
X173168571Y-117502633D01*
X174668571Y-115832991D02*
X173168571Y-115645491D01*
X173882857Y-115734776D02*
X173882857Y-114877633D01*
X174668571Y-114975848D02*
X173168571Y-114788348D01*
X174668571Y-114261562D02*
X173168571Y-114074062D01*
X173240000Y-112582991D02*
X173168571Y-112716919D01*
X173168571Y-112931205D01*
X173240000Y-113154419D01*
X173382857Y-113315133D01*
X173525714Y-113404419D01*
X173811428Y-113511562D01*
X174025714Y-113538348D01*
X174311428Y-113502633D01*
X174454285Y-113449062D01*
X174597142Y-113324062D01*
X174668571Y-113118705D01*
X174668571Y-112975848D01*
X174597142Y-112752633D01*
X174525714Y-112672276D01*
X174025714Y-112609776D01*
X174025714Y-112895491D01*
X174668571Y-112047276D02*
X173168571Y-111859776D01*
X173882857Y-111949062D02*
X173882857Y-111091919D01*
X174668571Y-111190133D02*
X173168571Y-111002633D01*
X173168571Y-109359776D02*
X174668571Y-109047276D01*
X173168571Y-108359776D01*
X173168571Y-107574062D02*
X173168571Y-107288348D01*
X173240000Y-107154419D01*
X173382857Y-107029419D01*
X173668571Y-106993705D01*
X174168571Y-107056205D01*
X174454285Y-107163348D01*
X174597142Y-107324062D01*
X174668571Y-107475848D01*
X174668571Y-107761562D01*
X174597142Y-107895491D01*
X174454285Y-108020491D01*
X174168571Y-108056205D01*
X173668571Y-107993705D01*
X173382857Y-107886562D01*
X173240000Y-107725848D01*
X173168571Y-107574062D01*
X174668571Y-105761562D02*
X174668571Y-106475848D01*
X173168571Y-106288348D01*
X173168571Y-105288348D02*
X173168571Y-104431205D01*
X174668571Y-105047276D02*
X173168571Y-104859776D01*
X174240000Y-104136562D02*
X174240000Y-103422276D01*
X174668571Y-104332991D02*
X173168571Y-103645491D01*
X174668571Y-103332991D01*
X173240000Y-101868705D02*
X173168571Y-102002633D01*
X173168571Y-102216919D01*
X173240000Y-102440133D01*
X173382857Y-102600848D01*
X173525714Y-102690133D01*
X173811428Y-102797276D01*
X174025714Y-102824062D01*
X174311428Y-102788348D01*
X174454285Y-102734776D01*
X174597142Y-102609776D01*
X174668571Y-102404419D01*
X174668571Y-102261562D01*
X174597142Y-102038348D01*
X174525714Y-101957991D01*
X174025714Y-101895491D01*
X174025714Y-102181205D01*
X173882857Y-101234776D02*
X173882857Y-100734776D01*
X174668571Y-100618705D02*
X174668571Y-101332991D01*
X173168571Y-101145491D01*
X173168571Y-100431205D01*
X174525714Y-99957991D02*
X174597142Y-99895491D01*
X174668571Y-99975848D01*
X174597142Y-100038348D01*
X174525714Y-99957991D01*
X174668571Y-99975848D01*
X174097142Y-99904419D02*
X173240000Y-99868705D01*
X173168571Y-99788348D01*
X173240000Y-99725848D01*
X174097142Y-99904419D01*
X173168571Y-99788348D01*
D10*
X99321428Y-96449047D02*
X99273809Y-96591904D01*
X99226190Y-96639523D01*
X99130952Y-96687142D01*
X98988095Y-96687142D01*
X98892857Y-96639523D01*
X98845238Y-96591904D01*
X98797619Y-96496666D01*
X98797619Y-96115714D01*
X99797619Y-96115714D01*
X99797619Y-96449047D01*
X99750000Y-96544285D01*
X99702380Y-96591904D01*
X99607142Y-96639523D01*
X99511904Y-96639523D01*
X99416666Y-96591904D01*
X99369047Y-96544285D01*
X99321428Y-96449047D01*
X99321428Y-96115714D01*
X98797619Y-97115714D02*
X99464285Y-97115714D01*
X99797619Y-97115714D02*
X99750000Y-97068095D01*
X99702380Y-97115714D01*
X99750000Y-97163333D01*
X99797619Y-97115714D01*
X99702380Y-97115714D01*
X98797619Y-98020476D02*
X99321428Y-98020476D01*
X99416666Y-97972857D01*
X99464285Y-97877619D01*
X99464285Y-97687142D01*
X99416666Y-97591904D01*
X98845238Y-98020476D02*
X98797619Y-97925238D01*
X98797619Y-97687142D01*
X98845238Y-97591904D01*
X98940476Y-97544285D01*
X99035714Y-97544285D01*
X99130952Y-97591904D01*
X99178571Y-97687142D01*
X99178571Y-97925238D01*
X99226190Y-98020476D01*
X98845238Y-98449047D02*
X98797619Y-98544285D01*
X98797619Y-98734761D01*
X98845238Y-98830000D01*
X98940476Y-98877619D01*
X98988095Y-98877619D01*
X99083333Y-98830000D01*
X99130952Y-98734761D01*
X99130952Y-98591904D01*
X99178571Y-98496666D01*
X99273809Y-98449047D01*
X99321428Y-98449047D01*
X99416666Y-98496666D01*
X99464285Y-98591904D01*
X99464285Y-98734761D01*
X99416666Y-98830000D01*
X98845238Y-100020476D02*
X98797619Y-100163333D01*
X98797619Y-100401428D01*
X98845238Y-100496666D01*
X98892857Y-100544285D01*
X98988095Y-100591904D01*
X99083333Y-100591904D01*
X99178571Y-100544285D01*
X99226190Y-100496666D01*
X99273809Y-100401428D01*
X99321428Y-100210952D01*
X99369047Y-100115714D01*
X99416666Y-100068095D01*
X99511904Y-100020476D01*
X99607142Y-100020476D01*
X99702380Y-100068095D01*
X99750000Y-100115714D01*
X99797619Y-100210952D01*
X99797619Y-100449047D01*
X99750000Y-100591904D01*
X99464285Y-101449047D02*
X98797619Y-101449047D01*
X99464285Y-101020476D02*
X98940476Y-101020476D01*
X98845238Y-101068095D01*
X98797619Y-101163333D01*
X98797619Y-101306190D01*
X98845238Y-101401428D01*
X98892857Y-101449047D01*
X99464285Y-101925238D02*
X98464285Y-101925238D01*
X99416666Y-101925238D02*
X99464285Y-102020476D01*
X99464285Y-102210952D01*
X99416666Y-102306190D01*
X99369047Y-102353809D01*
X99273809Y-102401428D01*
X98988095Y-102401428D01*
X98892857Y-102353809D01*
X98845238Y-102306190D01*
X98797619Y-102210952D01*
X98797619Y-102020476D01*
X98845238Y-101925238D01*
X99464285Y-102830000D02*
X98464285Y-102830000D01*
X99416666Y-102830000D02*
X99464285Y-102925238D01*
X99464285Y-103115714D01*
X99416666Y-103210952D01*
X99369047Y-103258571D01*
X99273809Y-103306190D01*
X98988095Y-103306190D01*
X98892857Y-103258571D01*
X98845238Y-103210952D01*
X98797619Y-103115714D01*
X98797619Y-102925238D01*
X98845238Y-102830000D01*
X98797619Y-103877619D02*
X98845238Y-103782380D01*
X98940476Y-103734761D01*
X99797619Y-103734761D01*
X99464285Y-104163333D02*
X98797619Y-104401428D01*
X99464285Y-104639523D02*
X98797619Y-104401428D01*
X98559523Y-104306190D01*
X98511904Y-104258571D01*
X98464285Y-104163333D01*
X97147619Y-98258571D02*
X97623809Y-97925238D01*
X97147619Y-97687142D02*
X98147619Y-97687142D01*
X98147619Y-98068095D01*
X98100000Y-98163333D01*
X98052380Y-98210952D01*
X97957142Y-98258571D01*
X97814285Y-98258571D01*
X97719047Y-98210952D01*
X97671428Y-98163333D01*
X97623809Y-98068095D01*
X97623809Y-97687142D01*
X97195238Y-99068095D02*
X97147619Y-98972857D01*
X97147619Y-98782380D01*
X97195238Y-98687142D01*
X97290476Y-98639523D01*
X97671428Y-98639523D01*
X97766666Y-98687142D01*
X97814285Y-98782380D01*
X97814285Y-98972857D01*
X97766666Y-99068095D01*
X97671428Y-99115714D01*
X97576190Y-99115714D01*
X97480952Y-98639523D01*
X97814285Y-99449047D02*
X97147619Y-99687142D01*
X97814285Y-99925238D01*
X97147619Y-101591904D02*
X97147619Y-101020476D01*
X97147619Y-101306190D02*
X98147619Y-101306190D01*
X98004761Y-101210952D01*
X97909523Y-101115714D01*
X97861904Y-101020476D01*
X97242857Y-102020476D02*
X97195238Y-102068095D01*
X97147619Y-102020476D01*
X97195238Y-101972857D01*
X97242857Y-102020476D01*
X97147619Y-102020476D01*
X98147619Y-102687142D02*
X98147619Y-102782380D01*
X98100000Y-102877619D01*
X98052380Y-102925238D01*
X97957142Y-102972857D01*
X97766666Y-103020476D01*
X97528571Y-103020476D01*
X97338095Y-102972857D01*
X97242857Y-102925238D01*
X97195238Y-102877619D01*
X97147619Y-102782380D01*
X97147619Y-102687142D01*
X97195238Y-102591904D01*
X97242857Y-102544285D01*
X97338095Y-102496666D01*
X97528571Y-102449047D01*
X97766666Y-102449047D01*
X97957142Y-102496666D01*
X98052380Y-102544285D01*
X98100000Y-102591904D01*
X98147619Y-102687142D01*
X177427380Y-106901428D02*
X176427380Y-106901428D01*
X177427380Y-106330000D02*
X176855952Y-106758571D01*
X176427380Y-106330000D02*
X176998809Y-106901428D01*
X176427380Y-105996666D02*
X177427380Y-105758571D01*
X176713095Y-105568095D01*
X177427380Y-105377619D01*
X176427380Y-105139523D01*
X177427380Y-104330000D02*
X176903571Y-104330000D01*
X176808333Y-104377619D01*
X176760714Y-104472857D01*
X176760714Y-104663333D01*
X176808333Y-104758571D01*
X177379761Y-104330000D02*
X177427380Y-104425238D01*
X177427380Y-104663333D01*
X177379761Y-104758571D01*
X177284523Y-104806190D01*
X177189285Y-104806190D01*
X177094047Y-104758571D01*
X177046428Y-104663333D01*
X177046428Y-104425238D01*
X176998809Y-104330000D01*
X177427380Y-103853809D02*
X176760714Y-103853809D01*
X176951190Y-103853809D02*
X176855952Y-103806190D01*
X176808333Y-103758571D01*
X176760714Y-103663333D01*
X176760714Y-103568095D01*
X177427380Y-102806190D02*
X176427380Y-102806190D01*
X177379761Y-102806190D02*
X177427380Y-102901428D01*
X177427380Y-103091904D01*
X177379761Y-103187142D01*
X177332142Y-103234761D01*
X177236904Y-103282380D01*
X176951190Y-103282380D01*
X176855952Y-103234761D01*
X176808333Y-103187142D01*
X176760714Y-103091904D01*
X176760714Y-102901428D01*
X176808333Y-102806190D01*
X176903571Y-101234761D02*
X176951190Y-101091904D01*
X176998809Y-101044285D01*
X177094047Y-100996666D01*
X177236904Y-100996666D01*
X177332142Y-101044285D01*
X177379761Y-101091904D01*
X177427380Y-101187142D01*
X177427380Y-101568095D01*
X176427380Y-101568095D01*
X176427380Y-101234761D01*
X176475000Y-101139523D01*
X176522619Y-101091904D01*
X176617857Y-101044285D01*
X176713095Y-101044285D01*
X176808333Y-101091904D01*
X176855952Y-101139523D01*
X176903571Y-101234761D01*
X176903571Y-101568095D01*
X177379761Y-100187142D02*
X177427380Y-100282380D01*
X177427380Y-100472857D01*
X177379761Y-100568095D01*
X177284523Y-100615714D01*
X176903571Y-100615714D01*
X176808333Y-100568095D01*
X176760714Y-100472857D01*
X176760714Y-100282380D01*
X176808333Y-100187142D01*
X176903571Y-100139523D01*
X176998809Y-100139523D01*
X177094047Y-100615714D01*
X176760714Y-99710952D02*
X177427380Y-99710952D01*
X176855952Y-99710952D02*
X176808333Y-99663333D01*
X176760714Y-99568095D01*
X176760714Y-99425238D01*
X176808333Y-99330000D01*
X176903571Y-99282380D01*
X177427380Y-99282380D01*
X177379761Y-98377619D02*
X177427380Y-98472857D01*
X177427380Y-98663333D01*
X177379761Y-98758571D01*
X177332142Y-98806190D01*
X177236904Y-98853809D01*
X176951190Y-98853809D01*
X176855952Y-98806190D01*
X176808333Y-98758571D01*
X176760714Y-98663333D01*
X176760714Y-98472857D01*
X176808333Y-98377619D01*
X177427380Y-97949047D02*
X176427380Y-97949047D01*
X177427380Y-97520476D02*
X176903571Y-97520476D01*
X176808333Y-97568095D01*
X176760714Y-97663333D01*
X176760714Y-97806190D01*
X176808333Y-97901428D01*
X176855952Y-97949047D01*
X177427380Y-96282380D02*
X176427380Y-96282380D01*
X176427380Y-95901428D01*
X176475000Y-95806190D01*
X176522619Y-95758571D01*
X176617857Y-95710952D01*
X176760714Y-95710952D01*
X176855952Y-95758571D01*
X176903571Y-95806190D01*
X176951190Y-95901428D01*
X176951190Y-96282380D01*
X177379761Y-95330000D02*
X177427380Y-95187142D01*
X177427380Y-94949047D01*
X177379761Y-94853809D01*
X177332142Y-94806190D01*
X177236904Y-94758571D01*
X177141666Y-94758571D01*
X177046428Y-94806190D01*
X176998809Y-94853809D01*
X176951190Y-94949047D01*
X176903571Y-95139523D01*
X176855952Y-95234761D01*
X176808333Y-95282380D01*
X176713095Y-95330000D01*
X176617857Y-95330000D01*
X176522619Y-95282380D01*
X176475000Y-95234761D01*
X176427380Y-95139523D01*
X176427380Y-94901428D01*
X176475000Y-94758571D01*
X176427380Y-94330000D02*
X177236904Y-94330000D01*
X177332142Y-94282380D01*
X177379761Y-94234761D01*
X177427380Y-94139523D01*
X177427380Y-93949047D01*
X177379761Y-93853809D01*
X177332142Y-93806190D01*
X177236904Y-93758571D01*
X176427380Y-93758571D01*
X179077380Y-109710952D02*
X178077380Y-109710952D01*
X178077380Y-109330000D01*
X178125000Y-109234761D01*
X178172619Y-109187142D01*
X178267857Y-109139523D01*
X178410714Y-109139523D01*
X178505952Y-109187142D01*
X178553571Y-109234761D01*
X178601190Y-109330000D01*
X178601190Y-109710952D01*
X178982142Y-108139523D02*
X179029761Y-108187142D01*
X179077380Y-108330000D01*
X179077380Y-108425238D01*
X179029761Y-108568095D01*
X178934523Y-108663333D01*
X178839285Y-108710952D01*
X178648809Y-108758571D01*
X178505952Y-108758571D01*
X178315476Y-108710952D01*
X178220238Y-108663333D01*
X178125000Y-108568095D01*
X178077380Y-108425238D01*
X178077380Y-108330000D01*
X178125000Y-108187142D01*
X178172619Y-108139523D01*
X178553571Y-107377619D02*
X178601190Y-107234761D01*
X178648809Y-107187142D01*
X178744047Y-107139523D01*
X178886904Y-107139523D01*
X178982142Y-107187142D01*
X179029761Y-107234761D01*
X179077380Y-107330000D01*
X179077380Y-107710952D01*
X178077380Y-107710952D01*
X178077380Y-107377619D01*
X178125000Y-107282380D01*
X178172619Y-107234761D01*
X178267857Y-107187142D01*
X178363095Y-107187142D01*
X178458333Y-107234761D01*
X178505952Y-107282380D01*
X178553571Y-107377619D01*
X178553571Y-107710952D01*
X179029761Y-106758571D02*
X179077380Y-106663333D01*
X179077380Y-106472857D01*
X179029761Y-106377619D01*
X178934523Y-106330000D01*
X178886904Y-106330000D01*
X178791666Y-106377619D01*
X178744047Y-106472857D01*
X178744047Y-106615714D01*
X178696428Y-106710952D01*
X178601190Y-106758571D01*
X178553571Y-106758571D01*
X178458333Y-106710952D01*
X178410714Y-106615714D01*
X178410714Y-106472857D01*
X178458333Y-106377619D01*
X179077380Y-105139523D02*
X178077380Y-105139523D01*
X178458333Y-105139523D02*
X178410714Y-105044285D01*
X178410714Y-104853809D01*
X178458333Y-104758571D01*
X178505952Y-104710952D01*
X178601190Y-104663333D01*
X178886904Y-104663333D01*
X178982142Y-104710952D01*
X179029761Y-104758571D01*
X179077380Y-104853809D01*
X179077380Y-105044285D01*
X179029761Y-105139523D01*
X178410714Y-104330000D02*
X179077380Y-104091904D01*
X178410714Y-103853809D02*
X179077380Y-104091904D01*
X179315476Y-104187142D01*
X179363095Y-104234761D01*
X179410714Y-104330000D01*
X178077380Y-102425238D02*
X178791666Y-102425238D01*
X178934523Y-102472857D01*
X179029761Y-102568095D01*
X179077380Y-102710952D01*
X179077380Y-102806190D01*
X179077380Y-101520476D02*
X178553571Y-101520476D01*
X178458333Y-101568095D01*
X178410714Y-101663333D01*
X178410714Y-101853809D01*
X178458333Y-101949047D01*
X179029761Y-101520476D02*
X179077380Y-101615714D01*
X179077380Y-101853809D01*
X179029761Y-101949047D01*
X178934523Y-101996666D01*
X178839285Y-101996666D01*
X178744047Y-101949047D01*
X178696428Y-101853809D01*
X178696428Y-101615714D01*
X178648809Y-101520476D01*
X179029761Y-101091904D02*
X179077380Y-100996666D01*
X179077380Y-100806190D01*
X179029761Y-100710952D01*
X178934523Y-100663333D01*
X178886904Y-100663333D01*
X178791666Y-100710952D01*
X178744047Y-100806190D01*
X178744047Y-100949047D01*
X178696428Y-101044285D01*
X178601190Y-101091904D01*
X178553571Y-101091904D01*
X178458333Y-101044285D01*
X178410714Y-100949047D01*
X178410714Y-100806190D01*
X178458333Y-100710952D01*
X179077380Y-100091904D02*
X179029761Y-100187142D01*
X178982142Y-100234761D01*
X178886904Y-100282380D01*
X178601190Y-100282380D01*
X178505952Y-100234761D01*
X178458333Y-100187142D01*
X178410714Y-100091904D01*
X178410714Y-99949047D01*
X178458333Y-99853809D01*
X178505952Y-99806190D01*
X178601190Y-99758571D01*
X178886904Y-99758571D01*
X178982142Y-99806190D01*
X179029761Y-99853809D01*
X179077380Y-99949047D01*
X179077380Y-100091904D01*
X178410714Y-99330000D02*
X179077380Y-99330000D01*
X178505952Y-99330000D02*
X178458333Y-99282380D01*
X178410714Y-99187142D01*
X178410714Y-99044285D01*
X178458333Y-98949047D01*
X178553571Y-98901428D01*
X179077380Y-98901428D01*
X179077380Y-97091904D02*
X178601190Y-97425238D01*
X179077380Y-97663333D02*
X178077380Y-97663333D01*
X178077380Y-97282380D01*
X178125000Y-97187142D01*
X178172619Y-97139523D01*
X178267857Y-97091904D01*
X178410714Y-97091904D01*
X178505952Y-97139523D01*
X178553571Y-97187142D01*
X178601190Y-97282380D01*
X178601190Y-97663333D01*
X178982142Y-96663333D02*
X179029761Y-96615714D01*
X179077380Y-96663333D01*
X179029761Y-96710952D01*
X178982142Y-96663333D01*
X179077380Y-96663333D01*
X178077380Y-95568095D02*
X178077380Y-94996666D01*
X179077380Y-95282380D02*
X178077380Y-95282380D01*
X179077380Y-94663333D02*
X178077380Y-94663333D01*
X179077380Y-94234761D02*
X178553571Y-94234761D01*
X178458333Y-94282380D01*
X178410714Y-94377619D01*
X178410714Y-94520476D01*
X178458333Y-94615714D01*
X178505952Y-94663333D01*
X179077380Y-93615714D02*
X179029761Y-93710952D01*
X178982142Y-93758571D01*
X178886904Y-93806190D01*
X178601190Y-93806190D01*
X178505952Y-93758571D01*
X178458333Y-93710952D01*
X178410714Y-93615714D01*
X178410714Y-93472857D01*
X178458333Y-93377619D01*
X178505952Y-93330000D01*
X178601190Y-93282380D01*
X178886904Y-93282380D01*
X178982142Y-93330000D01*
X179029761Y-93377619D01*
X179077380Y-93472857D01*
X179077380Y-93615714D01*
X179077380Y-92853809D02*
X178410714Y-92853809D01*
X178601190Y-92853809D02*
X178505952Y-92806190D01*
X178458333Y-92758571D01*
X178410714Y-92663333D01*
X178410714Y-92568095D01*
X178410714Y-92234761D02*
X179410714Y-92234761D01*
X178458333Y-92234761D02*
X178410714Y-92139523D01*
X178410714Y-91949047D01*
X178458333Y-91853809D01*
X178505952Y-91806190D01*
X178601190Y-91758571D01*
X178886904Y-91758571D01*
X178982142Y-91806190D01*
X179029761Y-91853809D01*
X179077380Y-91949047D01*
X179077380Y-92139523D01*
X179029761Y-92234761D01*
X179029761Y-90949047D02*
X179077380Y-91044285D01*
X179077380Y-91234761D01*
X179029761Y-91330000D01*
X178934523Y-91377619D01*
X178553571Y-91377619D01*
X178458333Y-91330000D01*
X178410714Y-91234761D01*
X178410714Y-91044285D01*
X178458333Y-90949047D01*
X178553571Y-90901428D01*
X178648809Y-90901428D01*
X178744047Y-91377619D01*
D12*
%TO.C,R7*%
X138728620Y-68019775D02*
G75*
G02*
X140500000Y-68128272I971380J1344775D01*
G01*
%TO.C,REF\u002A\u002A*%
X154655000Y-106270000D02*
X154655000Y-118970000D01*
X141255000Y-106270000D02*
X141255000Y-118970000D01*
X146455000Y-106270000D02*
X141255000Y-106270000D01*
X149455000Y-106270000D02*
X154655000Y-106270000D01*
D10*
%TO.C,\u002A\u002AREF*%
X167005000Y-135255000D02*
X128905000Y-135255000D01*
X128905000Y-135255000D02*
X128905000Y-115255000D01*
X136905000Y-115255000D02*
X136905000Y-131855000D01*
X128905000Y-115255000D02*
X136905000Y-115255000D01*
X167005000Y-135255000D02*
X167005000Y-115255000D01*
X159005000Y-115255000D02*
X167005000Y-115255000D01*
X159005000Y-115255000D02*
X159005000Y-131855000D01*
X159005000Y-131855000D02*
X136905000Y-131855000D01*
D13*
%TO.C,REF\u002A\u002A*%
X171109640Y-112892840D02*
X168010840Y-111693960D01*
X168010840Y-111693960D02*
X168409620Y-112293400D01*
X169110660Y-113294160D02*
X166309040Y-111993680D01*
X171109640Y-112892840D02*
X170411140Y-112293400D01*
X166110920Y-112494060D02*
X169110660Y-113294160D01*
X169110660Y-113294160D02*
X168310560Y-112095280D01*
X168310560Y-112095280D02*
X171109640Y-112892840D01*
X171109640Y-112892840D02*
X170210480Y-112994440D01*
X164719000Y-112395000D02*
X171704000Y-107696000D01*
X171704000Y-107696000D02*
X171704000Y-117094000D01*
X171704000Y-117094000D02*
X164719000Y-112395000D01*
D12*
%TO.C,C1*%
X106380000Y-106074440D02*
X108180000Y-106074440D01*
X107280000Y-106974440D02*
X107280000Y-105174440D01*
X112355000Y-88095000D02*
X112435000Y-88095000D01*
X111581000Y-88135000D02*
X113209000Y-88135000D01*
X111229000Y-88175000D02*
X113561000Y-88175000D01*
X110960000Y-88215000D02*
X113830000Y-88215000D01*
X110734000Y-88255000D02*
X114056000Y-88255000D01*
X110535000Y-88295000D02*
X114255000Y-88295000D01*
X110356000Y-88335000D02*
X114434000Y-88335000D01*
X110192000Y-88375000D02*
X114598000Y-88375000D01*
X110040000Y-88415000D02*
X114750000Y-88415000D01*
X109897000Y-88455000D02*
X114893000Y-88455000D01*
X109763000Y-88495000D02*
X115027000Y-88495000D01*
X109636000Y-88535000D02*
X115154000Y-88535000D01*
X109515000Y-88575000D02*
X115275000Y-88575000D01*
X109399000Y-88615000D02*
X115391000Y-88615000D01*
X109288000Y-88655000D02*
X115502000Y-88655000D01*
X109181000Y-88695000D02*
X115609000Y-88695000D01*
X109078000Y-88735000D02*
X115712000Y-88735000D01*
X108979000Y-88775000D02*
X115811000Y-88775000D01*
X108883000Y-88815000D02*
X115907000Y-88815000D01*
X108790000Y-88855000D02*
X116000000Y-88855000D01*
X108699000Y-88895000D02*
X116091000Y-88895000D01*
X108611000Y-88935000D02*
X116179000Y-88935000D01*
X108526000Y-88975000D02*
X116264000Y-88975000D01*
X108443000Y-89015000D02*
X116347000Y-89015000D01*
X108362000Y-89054000D02*
X116428000Y-89054000D01*
X108282000Y-89094000D02*
X116508000Y-89094000D01*
X108205000Y-89134000D02*
X116585000Y-89134000D01*
X108130000Y-89174000D02*
X116660000Y-89174000D01*
X108056000Y-89214000D02*
X116734000Y-89214000D01*
X107983000Y-89254000D02*
X116807000Y-89254000D01*
X107913000Y-89294000D02*
X116877000Y-89294000D01*
X107843000Y-89334000D02*
X116947000Y-89334000D01*
X107775000Y-89374000D02*
X117015000Y-89374000D01*
X107709000Y-89414000D02*
X117081000Y-89414000D01*
X107643000Y-89454000D02*
X117147000Y-89454000D01*
X107579000Y-89494000D02*
X117211000Y-89494000D01*
X107516000Y-89534000D02*
X117274000Y-89534000D01*
X107454000Y-89574000D02*
X117336000Y-89574000D01*
X107393000Y-89614000D02*
X117397000Y-89614000D01*
X107333000Y-89654000D02*
X117457000Y-89654000D01*
X107275000Y-89694000D02*
X117515000Y-89694000D01*
X107217000Y-89734000D02*
X117573000Y-89734000D01*
X107160000Y-89774000D02*
X117630000Y-89774000D01*
X107104000Y-89814000D02*
X117686000Y-89814000D01*
X107049000Y-89854000D02*
X117741000Y-89854000D01*
X106995000Y-89894000D02*
X117795000Y-89894000D01*
X106941000Y-89934000D02*
X117849000Y-89934000D01*
X106889000Y-89974000D02*
X117901000Y-89974000D01*
X106837000Y-90014000D02*
X117953000Y-90014000D01*
X106786000Y-90054000D02*
X118004000Y-90054000D01*
X106735000Y-90094000D02*
X118055000Y-90094000D01*
X106686000Y-90134000D02*
X118104000Y-90134000D01*
X106637000Y-90174000D02*
X118153000Y-90174000D01*
X106589000Y-90214000D02*
X118201000Y-90214000D01*
X106541000Y-90254000D02*
X118249000Y-90254000D01*
X106494000Y-90294000D02*
X118296000Y-90294000D01*
X106448000Y-90334000D02*
X118342000Y-90334000D01*
X106402000Y-90374000D02*
X118388000Y-90374000D01*
X106357000Y-90414000D02*
X118433000Y-90414000D01*
X106313000Y-90454000D02*
X118477000Y-90454000D01*
X106269000Y-90494000D02*
X118521000Y-90494000D01*
X106225000Y-90534000D02*
X118565000Y-90534000D01*
X106183000Y-90574000D02*
X118607000Y-90574000D01*
X106141000Y-90614000D02*
X118649000Y-90614000D01*
X106099000Y-90654000D02*
X118691000Y-90654000D01*
X106058000Y-90694000D02*
X118732000Y-90694000D01*
X106017000Y-90734000D02*
X118773000Y-90734000D01*
X105977000Y-90774000D02*
X118813000Y-90774000D01*
X105937000Y-90814000D02*
X118853000Y-90814000D01*
X105898000Y-90854000D02*
X118892000Y-90854000D01*
X105859000Y-90894000D02*
X118931000Y-90894000D01*
X105821000Y-90934000D02*
X118969000Y-90934000D01*
X105783000Y-90974000D02*
X119007000Y-90974000D01*
X105746000Y-91014000D02*
X119044000Y-91014000D01*
X105709000Y-91054000D02*
X119081000Y-91054000D01*
X105673000Y-91094000D02*
X119117000Y-91094000D01*
X105637000Y-91134000D02*
X119153000Y-91134000D01*
X105601000Y-91174000D02*
X119189000Y-91174000D01*
X105566000Y-91214000D02*
X119224000Y-91214000D01*
X105531000Y-91254000D02*
X119259000Y-91254000D01*
X105497000Y-91294000D02*
X119293000Y-91294000D01*
X105463000Y-91334000D02*
X119327000Y-91334000D01*
X105430000Y-91374000D02*
X119360000Y-91374000D01*
X105396000Y-91414000D02*
X119394000Y-91414000D01*
X105364000Y-91454000D02*
X119426000Y-91454000D01*
X105331000Y-91494000D02*
X119459000Y-91494000D01*
X105299000Y-91534000D02*
X119491000Y-91534000D01*
X105268000Y-91574000D02*
X119522000Y-91574000D01*
X105236000Y-91614000D02*
X119554000Y-91614000D01*
X105205000Y-91654000D02*
X119585000Y-91654000D01*
X105175000Y-91694000D02*
X119615000Y-91694000D01*
X105145000Y-91734000D02*
X119645000Y-91734000D01*
X105115000Y-91774000D02*
X119675000Y-91774000D01*
X105085000Y-91814000D02*
X119705000Y-91814000D01*
X105056000Y-91854000D02*
X119734000Y-91854000D01*
X105027000Y-91894000D02*
X119763000Y-91894000D01*
X104998000Y-91934000D02*
X119792000Y-91934000D01*
X104970000Y-91974000D02*
X119820000Y-91974000D01*
X104942000Y-92014000D02*
X119848000Y-92014000D01*
X113835000Y-92054000D02*
X119875000Y-92054000D01*
X104915000Y-92054000D02*
X110955000Y-92054000D01*
X113835000Y-92094000D02*
X119903000Y-92094000D01*
X104887000Y-92094000D02*
X110955000Y-92094000D01*
X113835000Y-92134000D02*
X119930000Y-92134000D01*
X104860000Y-92134000D02*
X110955000Y-92134000D01*
X113835000Y-92174000D02*
X119956000Y-92174000D01*
X104834000Y-92174000D02*
X110955000Y-92174000D01*
X113835000Y-92214000D02*
X119983000Y-92214000D01*
X104807000Y-92214000D02*
X110955000Y-92214000D01*
X113835000Y-92254000D02*
X120009000Y-92254000D01*
X104781000Y-92254000D02*
X110955000Y-92254000D01*
X113835000Y-92294000D02*
X120035000Y-92294000D01*
X104755000Y-92294000D02*
X110955000Y-92294000D01*
X113835000Y-92334000D02*
X120060000Y-92334000D01*
X104730000Y-92334000D02*
X110955000Y-92334000D01*
X113835000Y-92374000D02*
X120085000Y-92374000D01*
X104705000Y-92374000D02*
X110955000Y-92374000D01*
X113835000Y-92414000D02*
X120110000Y-92414000D01*
X104680000Y-92414000D02*
X110955000Y-92414000D01*
X113835000Y-92454000D02*
X120135000Y-92454000D01*
X104655000Y-92454000D02*
X110955000Y-92454000D01*
X113835000Y-92494000D02*
X120159000Y-92494000D01*
X104631000Y-92494000D02*
X110955000Y-92494000D01*
X113835000Y-92534000D02*
X120183000Y-92534000D01*
X104607000Y-92534000D02*
X110955000Y-92534000D01*
X113835000Y-92574000D02*
X120207000Y-92574000D01*
X104583000Y-92574000D02*
X110955000Y-92574000D01*
X113835000Y-92614000D02*
X120230000Y-92614000D01*
X104560000Y-92614000D02*
X110955000Y-92614000D01*
X113835000Y-92654000D02*
X120254000Y-92654000D01*
X104536000Y-92654000D02*
X110955000Y-92654000D01*
X113835000Y-92694000D02*
X120277000Y-92694000D01*
X104513000Y-92694000D02*
X110955000Y-92694000D01*
X113835000Y-92734000D02*
X120299000Y-92734000D01*
X104491000Y-92734000D02*
X110955000Y-92734000D01*
X113835000Y-92774000D02*
X120322000Y-92774000D01*
X104468000Y-92774000D02*
X110955000Y-92774000D01*
X113835000Y-92814000D02*
X120344000Y-92814000D01*
X104446000Y-92814000D02*
X110955000Y-92814000D01*
X113835000Y-92854000D02*
X120366000Y-92854000D01*
X104424000Y-92854000D02*
X110955000Y-92854000D01*
X113835000Y-92894000D02*
X120387000Y-92894000D01*
X104403000Y-92894000D02*
X110955000Y-92894000D01*
X113835000Y-92934000D02*
X120409000Y-92934000D01*
X104381000Y-92934000D02*
X110955000Y-92934000D01*
X113835000Y-92974000D02*
X120430000Y-92974000D01*
X104360000Y-92974000D02*
X110955000Y-92974000D01*
X113835000Y-93014000D02*
X120451000Y-93014000D01*
X104339000Y-93014000D02*
X110955000Y-93014000D01*
X113835000Y-93054000D02*
X120471000Y-93054000D01*
X104319000Y-93054000D02*
X110955000Y-93054000D01*
X113835000Y-93094000D02*
X120492000Y-93094000D01*
X104298000Y-93094000D02*
X110955000Y-93094000D01*
X113835000Y-93134000D02*
X120512000Y-93134000D01*
X104278000Y-93134000D02*
X110955000Y-93134000D01*
X113835000Y-93174000D02*
X120532000Y-93174000D01*
X104258000Y-93174000D02*
X110955000Y-93174000D01*
X113835000Y-93214000D02*
X120551000Y-93214000D01*
X104239000Y-93214000D02*
X110955000Y-93214000D01*
X113835000Y-93254000D02*
X120571000Y-93254000D01*
X104219000Y-93254000D02*
X110955000Y-93254000D01*
X113835000Y-93294000D02*
X120590000Y-93294000D01*
X104200000Y-93294000D02*
X110955000Y-93294000D01*
X113835000Y-93334000D02*
X120609000Y-93334000D01*
X104181000Y-93334000D02*
X110955000Y-93334000D01*
X113835000Y-93374000D02*
X120628000Y-93374000D01*
X104162000Y-93374000D02*
X110955000Y-93374000D01*
X113835000Y-93414000D02*
X120646000Y-93414000D01*
X104144000Y-93414000D02*
X110955000Y-93414000D01*
X113835000Y-93454000D02*
X120664000Y-93454000D01*
X104126000Y-93454000D02*
X110955000Y-93454000D01*
X113835000Y-93494000D02*
X120682000Y-93494000D01*
X104108000Y-93494000D02*
X110955000Y-93494000D01*
X113835000Y-93534000D02*
X120700000Y-93534000D01*
X104090000Y-93534000D02*
X110955000Y-93534000D01*
X113835000Y-93574000D02*
X120718000Y-93574000D01*
X104072000Y-93574000D02*
X110955000Y-93574000D01*
X113835000Y-93614000D02*
X120735000Y-93614000D01*
X104055000Y-93614000D02*
X110955000Y-93614000D01*
X113835000Y-93654000D02*
X120752000Y-93654000D01*
X104038000Y-93654000D02*
X110955000Y-93654000D01*
X113835000Y-93694000D02*
X120769000Y-93694000D01*
X104021000Y-93694000D02*
X110955000Y-93694000D01*
X113835000Y-93734000D02*
X120785000Y-93734000D01*
X104005000Y-93734000D02*
X110955000Y-93734000D01*
X113835000Y-93774000D02*
X120802000Y-93774000D01*
X103988000Y-93774000D02*
X110955000Y-93774000D01*
X113835000Y-93814000D02*
X120818000Y-93814000D01*
X103972000Y-93814000D02*
X110955000Y-93814000D01*
X113835000Y-93854000D02*
X120834000Y-93854000D01*
X103956000Y-93854000D02*
X110955000Y-93854000D01*
X113835000Y-93894000D02*
X120850000Y-93894000D01*
X103940000Y-93894000D02*
X110955000Y-93894000D01*
X113835000Y-93934000D02*
X120865000Y-93934000D01*
X103925000Y-93934000D02*
X110955000Y-93934000D01*
X113835000Y-93974000D02*
X120881000Y-93974000D01*
X103909000Y-93974000D02*
X110955000Y-93974000D01*
X113835000Y-94014000D02*
X120896000Y-94014000D01*
X103894000Y-94014000D02*
X110955000Y-94014000D01*
X113835000Y-94054000D02*
X120911000Y-94054000D01*
X103879000Y-94054000D02*
X110955000Y-94054000D01*
X113835000Y-94094000D02*
X120925000Y-94094000D01*
X103865000Y-94094000D02*
X110955000Y-94094000D01*
X113835000Y-94134000D02*
X120940000Y-94134000D01*
X103850000Y-94134000D02*
X110955000Y-94134000D01*
X113835000Y-94174000D02*
X120954000Y-94174000D01*
X103836000Y-94174000D02*
X110955000Y-94174000D01*
X113835000Y-94214000D02*
X120968000Y-94214000D01*
X103822000Y-94214000D02*
X110955000Y-94214000D01*
X113835000Y-94254000D02*
X120982000Y-94254000D01*
X103808000Y-94254000D02*
X110955000Y-94254000D01*
X113835000Y-94294000D02*
X120995000Y-94294000D01*
X103795000Y-94294000D02*
X110955000Y-94294000D01*
X113835000Y-94334000D02*
X121009000Y-94334000D01*
X103781000Y-94334000D02*
X110955000Y-94334000D01*
X113835000Y-94374000D02*
X121022000Y-94374000D01*
X103768000Y-94374000D02*
X110955000Y-94374000D01*
X113835000Y-94414000D02*
X121035000Y-94414000D01*
X103755000Y-94414000D02*
X110955000Y-94414000D01*
X113835000Y-94454000D02*
X121048000Y-94454000D01*
X103742000Y-94454000D02*
X110955000Y-94454000D01*
X113835000Y-94494000D02*
X121060000Y-94494000D01*
X103730000Y-94494000D02*
X110955000Y-94494000D01*
X113835000Y-94534000D02*
X121073000Y-94534000D01*
X103717000Y-94534000D02*
X110955000Y-94534000D01*
X113835000Y-94574000D02*
X121085000Y-94574000D01*
X103705000Y-94574000D02*
X110955000Y-94574000D01*
X113835000Y-94614000D02*
X121097000Y-94614000D01*
X103693000Y-94614000D02*
X110955000Y-94614000D01*
X113835000Y-94654000D02*
X121109000Y-94654000D01*
X103681000Y-94654000D02*
X110955000Y-94654000D01*
X113835000Y-94694000D02*
X121120000Y-94694000D01*
X103670000Y-94694000D02*
X110955000Y-94694000D01*
X113835000Y-94734000D02*
X121132000Y-94734000D01*
X103658000Y-94734000D02*
X110955000Y-94734000D01*
X113835000Y-94774000D02*
X121143000Y-94774000D01*
X103647000Y-94774000D02*
X110955000Y-94774000D01*
X113835000Y-94814000D02*
X121154000Y-94814000D01*
X103636000Y-94814000D02*
X110955000Y-94814000D01*
X113835000Y-94854000D02*
X121165000Y-94854000D01*
X103625000Y-94854000D02*
X110955000Y-94854000D01*
X113835000Y-94894000D02*
X121175000Y-94894000D01*
X103615000Y-94894000D02*
X110955000Y-94894000D01*
X103604000Y-94934000D02*
X121186000Y-94934000D01*
X103594000Y-94974000D02*
X121196000Y-94974000D01*
X103584000Y-95014000D02*
X121206000Y-95014000D01*
X103574000Y-95054000D02*
X121216000Y-95054000D01*
X103564000Y-95094000D02*
X121226000Y-95094000D01*
X103555000Y-95134000D02*
X121235000Y-95134000D01*
X103546000Y-95174000D02*
X121244000Y-95174000D01*
X103537000Y-95214000D02*
X121253000Y-95214000D01*
X103528000Y-95254000D02*
X121262000Y-95254000D01*
X103519000Y-95294000D02*
X121271000Y-95294000D01*
X103510000Y-95334000D02*
X121280000Y-95334000D01*
X103502000Y-95374000D02*
X121288000Y-95374000D01*
X103494000Y-95414000D02*
X121296000Y-95414000D01*
X103486000Y-95454000D02*
X121304000Y-95454000D01*
X103478000Y-95494000D02*
X121312000Y-95494000D01*
X103471000Y-95534000D02*
X121319000Y-95534000D01*
X103463000Y-95574000D02*
X121327000Y-95574000D01*
X103456000Y-95614000D02*
X121334000Y-95614000D01*
X103449000Y-95654000D02*
X121341000Y-95654000D01*
X103442000Y-95694000D02*
X121348000Y-95694000D01*
X103435000Y-95734000D02*
X121355000Y-95734000D01*
X103429000Y-95774000D02*
X121361000Y-95774000D01*
X103423000Y-95814000D02*
X121367000Y-95814000D01*
X103416000Y-95854000D02*
X121374000Y-95854000D01*
X103411000Y-95894000D02*
X121379000Y-95894000D01*
X103405000Y-95934000D02*
X121385000Y-95934000D01*
X103399000Y-95974000D02*
X121391000Y-95974000D01*
X103394000Y-96014000D02*
X121396000Y-96014000D01*
X103389000Y-96054000D02*
X121401000Y-96054000D01*
X103384000Y-96094000D02*
X121406000Y-96094000D01*
X103379000Y-96134000D02*
X121411000Y-96134000D01*
X103374000Y-96174000D02*
X121416000Y-96174000D01*
X103369000Y-96214000D02*
X121421000Y-96214000D01*
X103365000Y-96254000D02*
X121425000Y-96254000D01*
X103361000Y-96294000D02*
X121429000Y-96294000D01*
X103357000Y-96334000D02*
X121433000Y-96334000D01*
X103353000Y-96374000D02*
X121437000Y-96374000D01*
X103350000Y-96414000D02*
X121440000Y-96414000D01*
X103346000Y-96454000D02*
X121444000Y-96454000D01*
X103343000Y-96494000D02*
X121447000Y-96494000D01*
X103340000Y-96535000D02*
X121450000Y-96535000D01*
X103337000Y-96575000D02*
X121453000Y-96575000D01*
X103334000Y-96615000D02*
X121456000Y-96615000D01*
X103332000Y-96655000D02*
X121458000Y-96655000D01*
X103329000Y-96695000D02*
X121461000Y-96695000D01*
X103327000Y-96735000D02*
X121463000Y-96735000D01*
X103325000Y-96775000D02*
X121465000Y-96775000D01*
X103323000Y-96815000D02*
X121467000Y-96815000D01*
X103322000Y-96855000D02*
X121468000Y-96855000D01*
X103320000Y-96895000D02*
X121470000Y-96895000D01*
X103319000Y-96935000D02*
X121471000Y-96935000D01*
X103318000Y-96975000D02*
X121472000Y-96975000D01*
X103317000Y-97015000D02*
X121473000Y-97015000D01*
X103316000Y-97055000D02*
X121474000Y-97055000D01*
X103315000Y-97095000D02*
X121475000Y-97095000D01*
X103315000Y-97135000D02*
X121475000Y-97135000D01*
X103315000Y-97175000D02*
X121475000Y-97175000D01*
X103314000Y-97215000D02*
X121476000Y-97215000D01*
X121515000Y-97215000D02*
G75*
G03*
X121515000Y-97215000I-9120000J0D01*
G01*
%TO.C,C2*%
X122150000Y-123885000D02*
G75*
G03*
X122150000Y-123885000I-9120000J0D01*
G01*
X103949000Y-123885000D02*
X122111000Y-123885000D01*
X103950000Y-123845000D02*
X122110000Y-123845000D01*
X103950000Y-123805000D02*
X122110000Y-123805000D01*
X103950000Y-123765000D02*
X122110000Y-123765000D01*
X103951000Y-123725000D02*
X122109000Y-123725000D01*
X103952000Y-123685000D02*
X122108000Y-123685000D01*
X103953000Y-123645000D02*
X122107000Y-123645000D01*
X103954000Y-123605000D02*
X122106000Y-123605000D01*
X103955000Y-123565000D02*
X122105000Y-123565000D01*
X103957000Y-123525000D02*
X122103000Y-123525000D01*
X103958000Y-123485000D02*
X122102000Y-123485000D01*
X103960000Y-123445000D02*
X122100000Y-123445000D01*
X103962000Y-123405000D02*
X122098000Y-123405000D01*
X103964000Y-123365000D02*
X122096000Y-123365000D01*
X103967000Y-123325000D02*
X122093000Y-123325000D01*
X103969000Y-123285000D02*
X122091000Y-123285000D01*
X103972000Y-123245000D02*
X122088000Y-123245000D01*
X103975000Y-123205000D02*
X122085000Y-123205000D01*
X103978000Y-123164000D02*
X122082000Y-123164000D01*
X103981000Y-123124000D02*
X122079000Y-123124000D01*
X103985000Y-123084000D02*
X122075000Y-123084000D01*
X103988000Y-123044000D02*
X122072000Y-123044000D01*
X103992000Y-123004000D02*
X122068000Y-123004000D01*
X103996000Y-122964000D02*
X122064000Y-122964000D01*
X104000000Y-122924000D02*
X122060000Y-122924000D01*
X104004000Y-122884000D02*
X122056000Y-122884000D01*
X104009000Y-122844000D02*
X122051000Y-122844000D01*
X104014000Y-122804000D02*
X122046000Y-122804000D01*
X104019000Y-122764000D02*
X122041000Y-122764000D01*
X104024000Y-122724000D02*
X122036000Y-122724000D01*
X104029000Y-122684000D02*
X122031000Y-122684000D01*
X104034000Y-122644000D02*
X122026000Y-122644000D01*
X104040000Y-122604000D02*
X122020000Y-122604000D01*
X104046000Y-122564000D02*
X122014000Y-122564000D01*
X104051000Y-122524000D02*
X122009000Y-122524000D01*
X104058000Y-122484000D02*
X122002000Y-122484000D01*
X104064000Y-122444000D02*
X121996000Y-122444000D01*
X104070000Y-122404000D02*
X121990000Y-122404000D01*
X104077000Y-122364000D02*
X121983000Y-122364000D01*
X104084000Y-122324000D02*
X121976000Y-122324000D01*
X104091000Y-122284000D02*
X121969000Y-122284000D01*
X104098000Y-122244000D02*
X121962000Y-122244000D01*
X104106000Y-122204000D02*
X121954000Y-122204000D01*
X104113000Y-122164000D02*
X121947000Y-122164000D01*
X104121000Y-122124000D02*
X121939000Y-122124000D01*
X104129000Y-122084000D02*
X121931000Y-122084000D01*
X104137000Y-122044000D02*
X121923000Y-122044000D01*
X104145000Y-122004000D02*
X121915000Y-122004000D01*
X104154000Y-121964000D02*
X121906000Y-121964000D01*
X104163000Y-121924000D02*
X121897000Y-121924000D01*
X104172000Y-121884000D02*
X121888000Y-121884000D01*
X104181000Y-121844000D02*
X121879000Y-121844000D01*
X104190000Y-121804000D02*
X121870000Y-121804000D01*
X104199000Y-121764000D02*
X121861000Y-121764000D01*
X104209000Y-121724000D02*
X121851000Y-121724000D01*
X104219000Y-121684000D02*
X121841000Y-121684000D01*
X104229000Y-121644000D02*
X121831000Y-121644000D01*
X104239000Y-121604000D02*
X121821000Y-121604000D01*
X104250000Y-121564000D02*
X111590000Y-121564000D01*
X114470000Y-121564000D02*
X121810000Y-121564000D01*
X104260000Y-121524000D02*
X111590000Y-121524000D01*
X114470000Y-121524000D02*
X121800000Y-121524000D01*
X104271000Y-121484000D02*
X111590000Y-121484000D01*
X114470000Y-121484000D02*
X121789000Y-121484000D01*
X104282000Y-121444000D02*
X111590000Y-121444000D01*
X114470000Y-121444000D02*
X121778000Y-121444000D01*
X104293000Y-121404000D02*
X111590000Y-121404000D01*
X114470000Y-121404000D02*
X121767000Y-121404000D01*
X104305000Y-121364000D02*
X111590000Y-121364000D01*
X114470000Y-121364000D02*
X121755000Y-121364000D01*
X104316000Y-121324000D02*
X111590000Y-121324000D01*
X114470000Y-121324000D02*
X121744000Y-121324000D01*
X104328000Y-121284000D02*
X111590000Y-121284000D01*
X114470000Y-121284000D02*
X121732000Y-121284000D01*
X104340000Y-121244000D02*
X111590000Y-121244000D01*
X114470000Y-121244000D02*
X121720000Y-121244000D01*
X104352000Y-121204000D02*
X111590000Y-121204000D01*
X114470000Y-121204000D02*
X121708000Y-121204000D01*
X104365000Y-121164000D02*
X111590000Y-121164000D01*
X114470000Y-121164000D02*
X121695000Y-121164000D01*
X104377000Y-121124000D02*
X111590000Y-121124000D01*
X114470000Y-121124000D02*
X121683000Y-121124000D01*
X104390000Y-121084000D02*
X111590000Y-121084000D01*
X114470000Y-121084000D02*
X121670000Y-121084000D01*
X104403000Y-121044000D02*
X111590000Y-121044000D01*
X114470000Y-121044000D02*
X121657000Y-121044000D01*
X104416000Y-121004000D02*
X111590000Y-121004000D01*
X114470000Y-121004000D02*
X121644000Y-121004000D01*
X104430000Y-120964000D02*
X111590000Y-120964000D01*
X114470000Y-120964000D02*
X121630000Y-120964000D01*
X104443000Y-120924000D02*
X111590000Y-120924000D01*
X114470000Y-120924000D02*
X121617000Y-120924000D01*
X104457000Y-120884000D02*
X111590000Y-120884000D01*
X114470000Y-120884000D02*
X121603000Y-120884000D01*
X104471000Y-120844000D02*
X111590000Y-120844000D01*
X114470000Y-120844000D02*
X121589000Y-120844000D01*
X104485000Y-120804000D02*
X111590000Y-120804000D01*
X114470000Y-120804000D02*
X121575000Y-120804000D01*
X104500000Y-120764000D02*
X111590000Y-120764000D01*
X114470000Y-120764000D02*
X121560000Y-120764000D01*
X104514000Y-120724000D02*
X111590000Y-120724000D01*
X114470000Y-120724000D02*
X121546000Y-120724000D01*
X104529000Y-120684000D02*
X111590000Y-120684000D01*
X114470000Y-120684000D02*
X121531000Y-120684000D01*
X104544000Y-120644000D02*
X111590000Y-120644000D01*
X114470000Y-120644000D02*
X121516000Y-120644000D01*
X104560000Y-120604000D02*
X111590000Y-120604000D01*
X114470000Y-120604000D02*
X121500000Y-120604000D01*
X104575000Y-120564000D02*
X111590000Y-120564000D01*
X114470000Y-120564000D02*
X121485000Y-120564000D01*
X104591000Y-120524000D02*
X111590000Y-120524000D01*
X114470000Y-120524000D02*
X121469000Y-120524000D01*
X104607000Y-120484000D02*
X111590000Y-120484000D01*
X114470000Y-120484000D02*
X121453000Y-120484000D01*
X104623000Y-120444000D02*
X111590000Y-120444000D01*
X114470000Y-120444000D02*
X121437000Y-120444000D01*
X104640000Y-120404000D02*
X111590000Y-120404000D01*
X114470000Y-120404000D02*
X121420000Y-120404000D01*
X104656000Y-120364000D02*
X111590000Y-120364000D01*
X114470000Y-120364000D02*
X121404000Y-120364000D01*
X104673000Y-120324000D02*
X111590000Y-120324000D01*
X114470000Y-120324000D02*
X121387000Y-120324000D01*
X104690000Y-120284000D02*
X111590000Y-120284000D01*
X114470000Y-120284000D02*
X121370000Y-120284000D01*
X104707000Y-120244000D02*
X111590000Y-120244000D01*
X114470000Y-120244000D02*
X121353000Y-120244000D01*
X104725000Y-120204000D02*
X111590000Y-120204000D01*
X114470000Y-120204000D02*
X121335000Y-120204000D01*
X104743000Y-120164000D02*
X111590000Y-120164000D01*
X114470000Y-120164000D02*
X121317000Y-120164000D01*
X104761000Y-120124000D02*
X111590000Y-120124000D01*
X114470000Y-120124000D02*
X121299000Y-120124000D01*
X104779000Y-120084000D02*
X111590000Y-120084000D01*
X114470000Y-120084000D02*
X121281000Y-120084000D01*
X104797000Y-120044000D02*
X111590000Y-120044000D01*
X114470000Y-120044000D02*
X121263000Y-120044000D01*
X104816000Y-120004000D02*
X111590000Y-120004000D01*
X114470000Y-120004000D02*
X121244000Y-120004000D01*
X104835000Y-119964000D02*
X111590000Y-119964000D01*
X114470000Y-119964000D02*
X121225000Y-119964000D01*
X104854000Y-119924000D02*
X111590000Y-119924000D01*
X114470000Y-119924000D02*
X121206000Y-119924000D01*
X104874000Y-119884000D02*
X111590000Y-119884000D01*
X114470000Y-119884000D02*
X121186000Y-119884000D01*
X104893000Y-119844000D02*
X111590000Y-119844000D01*
X114470000Y-119844000D02*
X121167000Y-119844000D01*
X104913000Y-119804000D02*
X111590000Y-119804000D01*
X114470000Y-119804000D02*
X121147000Y-119804000D01*
X104933000Y-119764000D02*
X111590000Y-119764000D01*
X114470000Y-119764000D02*
X121127000Y-119764000D01*
X104954000Y-119724000D02*
X111590000Y-119724000D01*
X114470000Y-119724000D02*
X121106000Y-119724000D01*
X104974000Y-119684000D02*
X111590000Y-119684000D01*
X114470000Y-119684000D02*
X121086000Y-119684000D01*
X104995000Y-119644000D02*
X111590000Y-119644000D01*
X114470000Y-119644000D02*
X121065000Y-119644000D01*
X105016000Y-119604000D02*
X111590000Y-119604000D01*
X114470000Y-119604000D02*
X121044000Y-119604000D01*
X105038000Y-119564000D02*
X111590000Y-119564000D01*
X114470000Y-119564000D02*
X121022000Y-119564000D01*
X105059000Y-119524000D02*
X111590000Y-119524000D01*
X114470000Y-119524000D02*
X121001000Y-119524000D01*
X105081000Y-119484000D02*
X111590000Y-119484000D01*
X114470000Y-119484000D02*
X120979000Y-119484000D01*
X105103000Y-119444000D02*
X111590000Y-119444000D01*
X114470000Y-119444000D02*
X120957000Y-119444000D01*
X105126000Y-119404000D02*
X111590000Y-119404000D01*
X114470000Y-119404000D02*
X120934000Y-119404000D01*
X105148000Y-119364000D02*
X111590000Y-119364000D01*
X114470000Y-119364000D02*
X120912000Y-119364000D01*
X105171000Y-119324000D02*
X111590000Y-119324000D01*
X114470000Y-119324000D02*
X120889000Y-119324000D01*
X105195000Y-119284000D02*
X111590000Y-119284000D01*
X114470000Y-119284000D02*
X120865000Y-119284000D01*
X105218000Y-119244000D02*
X111590000Y-119244000D01*
X114470000Y-119244000D02*
X120842000Y-119244000D01*
X105242000Y-119204000D02*
X111590000Y-119204000D01*
X114470000Y-119204000D02*
X120818000Y-119204000D01*
X105266000Y-119164000D02*
X111590000Y-119164000D01*
X114470000Y-119164000D02*
X120794000Y-119164000D01*
X105290000Y-119124000D02*
X111590000Y-119124000D01*
X114470000Y-119124000D02*
X120770000Y-119124000D01*
X105315000Y-119084000D02*
X111590000Y-119084000D01*
X114470000Y-119084000D02*
X120745000Y-119084000D01*
X105340000Y-119044000D02*
X111590000Y-119044000D01*
X114470000Y-119044000D02*
X120720000Y-119044000D01*
X105365000Y-119004000D02*
X111590000Y-119004000D01*
X114470000Y-119004000D02*
X120695000Y-119004000D01*
X105390000Y-118964000D02*
X111590000Y-118964000D01*
X114470000Y-118964000D02*
X120670000Y-118964000D01*
X105416000Y-118924000D02*
X111590000Y-118924000D01*
X114470000Y-118924000D02*
X120644000Y-118924000D01*
X105442000Y-118884000D02*
X111590000Y-118884000D01*
X114470000Y-118884000D02*
X120618000Y-118884000D01*
X105469000Y-118844000D02*
X111590000Y-118844000D01*
X114470000Y-118844000D02*
X120591000Y-118844000D01*
X105495000Y-118804000D02*
X111590000Y-118804000D01*
X114470000Y-118804000D02*
X120565000Y-118804000D01*
X105522000Y-118764000D02*
X111590000Y-118764000D01*
X114470000Y-118764000D02*
X120538000Y-118764000D01*
X105550000Y-118724000D02*
X111590000Y-118724000D01*
X114470000Y-118724000D02*
X120510000Y-118724000D01*
X105577000Y-118684000D02*
X120483000Y-118684000D01*
X105605000Y-118644000D02*
X120455000Y-118644000D01*
X105633000Y-118604000D02*
X120427000Y-118604000D01*
X105662000Y-118564000D02*
X120398000Y-118564000D01*
X105691000Y-118524000D02*
X120369000Y-118524000D01*
X105720000Y-118484000D02*
X120340000Y-118484000D01*
X105750000Y-118444000D02*
X120310000Y-118444000D01*
X105780000Y-118404000D02*
X120280000Y-118404000D01*
X105810000Y-118364000D02*
X120250000Y-118364000D01*
X105840000Y-118324000D02*
X120220000Y-118324000D01*
X105871000Y-118284000D02*
X120189000Y-118284000D01*
X105903000Y-118244000D02*
X120157000Y-118244000D01*
X105934000Y-118204000D02*
X120126000Y-118204000D01*
X105966000Y-118164000D02*
X120094000Y-118164000D01*
X105999000Y-118124000D02*
X120061000Y-118124000D01*
X106031000Y-118084000D02*
X120029000Y-118084000D01*
X106065000Y-118044000D02*
X119995000Y-118044000D01*
X106098000Y-118004000D02*
X119962000Y-118004000D01*
X106132000Y-117964000D02*
X119928000Y-117964000D01*
X106166000Y-117924000D02*
X119894000Y-117924000D01*
X106201000Y-117884000D02*
X119859000Y-117884000D01*
X106236000Y-117844000D02*
X119824000Y-117844000D01*
X106272000Y-117804000D02*
X119788000Y-117804000D01*
X106308000Y-117764000D02*
X119752000Y-117764000D01*
X106344000Y-117724000D02*
X119716000Y-117724000D01*
X106381000Y-117684000D02*
X119679000Y-117684000D01*
X106418000Y-117644000D02*
X119642000Y-117644000D01*
X106456000Y-117604000D02*
X119604000Y-117604000D01*
X106494000Y-117564000D02*
X119566000Y-117564000D01*
X106533000Y-117524000D02*
X119527000Y-117524000D01*
X106572000Y-117484000D02*
X119488000Y-117484000D01*
X106612000Y-117444000D02*
X119448000Y-117444000D01*
X106652000Y-117404000D02*
X119408000Y-117404000D01*
X106693000Y-117364000D02*
X119367000Y-117364000D01*
X106734000Y-117324000D02*
X119326000Y-117324000D01*
X106776000Y-117284000D02*
X119284000Y-117284000D01*
X106818000Y-117244000D02*
X119242000Y-117244000D01*
X106860000Y-117204000D02*
X119200000Y-117204000D01*
X106904000Y-117164000D02*
X119156000Y-117164000D01*
X106948000Y-117124000D02*
X119112000Y-117124000D01*
X106992000Y-117084000D02*
X119068000Y-117084000D01*
X107037000Y-117044000D02*
X119023000Y-117044000D01*
X107083000Y-117004000D02*
X118977000Y-117004000D01*
X107129000Y-116964000D02*
X118931000Y-116964000D01*
X107176000Y-116924000D02*
X118884000Y-116924000D01*
X107224000Y-116884000D02*
X118836000Y-116884000D01*
X107272000Y-116844000D02*
X118788000Y-116844000D01*
X107321000Y-116804000D02*
X118739000Y-116804000D01*
X107370000Y-116764000D02*
X118690000Y-116764000D01*
X107421000Y-116724000D02*
X118639000Y-116724000D01*
X107472000Y-116684000D02*
X118588000Y-116684000D01*
X107524000Y-116644000D02*
X118536000Y-116644000D01*
X107576000Y-116604000D02*
X118484000Y-116604000D01*
X107630000Y-116564000D02*
X118430000Y-116564000D01*
X107684000Y-116524000D02*
X118376000Y-116524000D01*
X107739000Y-116484000D02*
X118321000Y-116484000D01*
X107795000Y-116444000D02*
X118265000Y-116444000D01*
X107852000Y-116404000D02*
X118208000Y-116404000D01*
X107910000Y-116364000D02*
X118150000Y-116364000D01*
X107968000Y-116324000D02*
X118092000Y-116324000D01*
X108028000Y-116284000D02*
X118032000Y-116284000D01*
X108089000Y-116244000D02*
X117971000Y-116244000D01*
X108151000Y-116204000D02*
X117909000Y-116204000D01*
X108214000Y-116164000D02*
X117846000Y-116164000D01*
X108278000Y-116124000D02*
X117782000Y-116124000D01*
X108344000Y-116084000D02*
X117716000Y-116084000D01*
X108410000Y-116044000D02*
X117650000Y-116044000D01*
X108478000Y-116004000D02*
X117582000Y-116004000D01*
X108548000Y-115964000D02*
X117512000Y-115964000D01*
X108618000Y-115924000D02*
X117442000Y-115924000D01*
X108691000Y-115884000D02*
X117369000Y-115884000D01*
X108765000Y-115844000D02*
X117295000Y-115844000D01*
X108840000Y-115804000D02*
X117220000Y-115804000D01*
X108917000Y-115764000D02*
X117143000Y-115764000D01*
X108997000Y-115724000D02*
X117063000Y-115724000D01*
X109078000Y-115685000D02*
X116982000Y-115685000D01*
X109161000Y-115645000D02*
X116899000Y-115645000D01*
X109246000Y-115605000D02*
X116814000Y-115605000D01*
X109334000Y-115565000D02*
X116726000Y-115565000D01*
X109425000Y-115525000D02*
X116635000Y-115525000D01*
X109518000Y-115485000D02*
X116542000Y-115485000D01*
X109614000Y-115445000D02*
X116446000Y-115445000D01*
X109713000Y-115405000D02*
X116347000Y-115405000D01*
X109816000Y-115365000D02*
X116244000Y-115365000D01*
X109923000Y-115325000D02*
X116137000Y-115325000D01*
X110034000Y-115285000D02*
X116026000Y-115285000D01*
X110150000Y-115245000D02*
X115910000Y-115245000D01*
X110271000Y-115205000D02*
X115789000Y-115205000D01*
X110398000Y-115165000D02*
X115662000Y-115165000D01*
X110532000Y-115125000D02*
X115528000Y-115125000D01*
X110675000Y-115085000D02*
X115385000Y-115085000D01*
X110827000Y-115045000D02*
X115233000Y-115045000D01*
X110991000Y-115005000D02*
X115069000Y-115005000D01*
X111170000Y-114965000D02*
X114890000Y-114965000D01*
X111369000Y-114925000D02*
X114691000Y-114925000D01*
X111595000Y-114885000D02*
X114465000Y-114885000D01*
X111864000Y-114845000D02*
X114196000Y-114845000D01*
X112216000Y-114805000D02*
X113844000Y-114805000D01*
X112990000Y-114765000D02*
X113070000Y-114765000D01*
X107915000Y-133644440D02*
X107915000Y-131844440D01*
X107015000Y-132744440D02*
X108815000Y-132744440D01*
%TO.C,C3*%
X173260000Y-94090000D02*
X162020000Y-94090000D01*
X173260000Y-75850000D02*
X162020000Y-75850000D01*
X162020000Y-75850000D02*
X162020000Y-94090000D01*
X173260000Y-75850000D02*
X173260000Y-94090000D01*
%TO.C,D1*%
X112390000Y-78375000D02*
X112390000Y-76605000D01*
X112390000Y-76605000D02*
X103790000Y-76605000D01*
X103790000Y-76605000D02*
X103790000Y-82145000D01*
X103790000Y-82145000D02*
X112390000Y-82145000D01*
X112390000Y-82145000D02*
X112390000Y-80375000D01*
X112390000Y-80375000D02*
G75*
G02*
X112390000Y-78375000I0J1000000D01*
G01*
%TO.C,D2*%
X121004500Y-74745000D02*
X121004500Y-80195000D01*
X121244500Y-74745000D02*
X121244500Y-80195000D01*
X121124500Y-74745000D02*
X121124500Y-80195000D01*
X130540000Y-77470000D02*
X129345000Y-77470000D01*
X118380000Y-77470000D02*
X119575000Y-77470000D01*
X129345000Y-74745000D02*
X119575000Y-74745000D01*
X129345000Y-80195000D02*
X129345000Y-74745000D01*
X119575000Y-80195000D02*
X129345000Y-80195000D01*
X119575000Y-74745000D02*
X119575000Y-80195000D01*
%TO.C,D3*%
X132115000Y-94180000D02*
X132115000Y-91240000D01*
X131875000Y-94180000D02*
X131875000Y-91240000D01*
X131995000Y-94180000D02*
X131995000Y-91240000D01*
X126435000Y-92710000D02*
X127455000Y-92710000D01*
X133915000Y-92710000D02*
X132895000Y-92710000D01*
X127455000Y-94180000D02*
X132895000Y-94180000D01*
X127455000Y-91240000D02*
X127455000Y-94180000D01*
X132895000Y-91240000D02*
X127455000Y-91240000D01*
X132895000Y-94180000D02*
X132895000Y-91240000D01*
%TO.C,D4*%
X146865000Y-101165000D02*
X146865000Y-98225000D01*
X146865000Y-98225000D02*
X141425000Y-98225000D01*
X141425000Y-98225000D02*
X141425000Y-101165000D01*
X141425000Y-101165000D02*
X146865000Y-101165000D01*
X147885000Y-99695000D02*
X146865000Y-99695000D01*
X140405000Y-99695000D02*
X141425000Y-99695000D01*
X145965000Y-101165000D02*
X145965000Y-98225000D01*
X145845000Y-101165000D02*
X145845000Y-98225000D01*
X146085000Y-101165000D02*
X146085000Y-98225000D01*
%TO.C,D5*%
X142205000Y-91240000D02*
X142205000Y-94180000D01*
X142445000Y-91240000D02*
X142445000Y-94180000D01*
X142325000Y-91240000D02*
X142325000Y-94180000D01*
X147885000Y-92710000D02*
X146865000Y-92710000D01*
X140405000Y-92710000D02*
X141425000Y-92710000D01*
X146865000Y-91240000D02*
X141425000Y-91240000D01*
X146865000Y-94180000D02*
X146865000Y-91240000D01*
X141425000Y-94180000D02*
X146865000Y-94180000D01*
X141425000Y-91240000D02*
X141425000Y-94180000D01*
%TO.C,D6*%
X164265000Y-105590000D02*
X167205000Y-105590000D01*
X167205000Y-105590000D02*
X167205000Y-100150000D01*
X167205000Y-100150000D02*
X164265000Y-100150000D01*
X164265000Y-100150000D02*
X164265000Y-105590000D01*
X165735000Y-106610000D02*
X165735000Y-105590000D01*
X165735000Y-99130000D02*
X165735000Y-100150000D01*
X164265000Y-104690000D02*
X167205000Y-104690000D01*
X164265000Y-104570000D02*
X167205000Y-104570000D01*
X164265000Y-104810000D02*
X167205000Y-104810000D01*
%TO.C,J1*%
X103505000Y-67945000D02*
X113665000Y-67945000D01*
X103505000Y-60325000D02*
X103505000Y-67945000D01*
X113665000Y-60325000D02*
X103505000Y-60325000D01*
X113665000Y-67945000D02*
X113665000Y-60325000D01*
X113665000Y-66675000D02*
X103505000Y-66675000D01*
%TO.C,Q1*%
X149806000Y-106585000D02*
X149806000Y-108095000D01*
X146105000Y-106585000D02*
X146105000Y-108095000D01*
X142835000Y-108095000D02*
X153075000Y-108095000D01*
X153075000Y-106585000D02*
X153075000Y-111226000D01*
X142835000Y-106585000D02*
X142835000Y-111226000D01*
X142835000Y-111226000D02*
X153075000Y-111226000D01*
X142835000Y-106585000D02*
X153075000Y-106585000D01*
%TO.C,Q2*%
X153075000Y-131540000D02*
X142835000Y-131540000D01*
X153075000Y-126899000D02*
X142835000Y-126899000D01*
X153075000Y-131540000D02*
X153075000Y-126899000D01*
X142835000Y-131540000D02*
X142835000Y-126899000D01*
X153075000Y-130030000D02*
X142835000Y-130030000D01*
X149805000Y-131540000D02*
X149805000Y-130030000D01*
X146104000Y-131540000D02*
X146104000Y-130030000D01*
%TO.C,Q3*%
X141590000Y-87425000D02*
X145440000Y-87425000D01*
X145478611Y-87415122D02*
G75*
G03*
X141590000Y-87425000I-1948611J1690122D01*
G01*
%TO.C,R1*%
X119210000Y-111125000D02*
X118100000Y-111125000D01*
X106850000Y-111125000D02*
X107960000Y-111125000D01*
X118100000Y-109205000D02*
X107960000Y-109205000D01*
X118100000Y-113045000D02*
X118100000Y-109205000D01*
X107960000Y-113045000D02*
X118100000Y-113045000D01*
X107960000Y-109205000D02*
X107960000Y-113045000D01*
%TO.C,R2*%
X124445000Y-110480000D02*
X128285000Y-110480000D01*
X128285000Y-110480000D02*
X128285000Y-100340000D01*
X128285000Y-100340000D02*
X124445000Y-100340000D01*
X124445000Y-100340000D02*
X124445000Y-110480000D01*
X126365000Y-111590000D02*
X126365000Y-110480000D01*
X126365000Y-99230000D02*
X126365000Y-100340000D01*
%TO.C,R3*%
X118280000Y-85725000D02*
X119390000Y-85725000D01*
X130640000Y-85725000D02*
X129530000Y-85725000D01*
X119390000Y-87645000D02*
X129530000Y-87645000D01*
X119390000Y-83805000D02*
X119390000Y-87645000D01*
X129530000Y-83805000D02*
X119390000Y-83805000D01*
X129530000Y-87645000D02*
X129530000Y-83805000D01*
%TO.C,R4*%
X148580000Y-79390000D02*
X148580000Y-75550000D01*
X148580000Y-75550000D02*
X138440000Y-75550000D01*
X138440000Y-75550000D02*
X138440000Y-79390000D01*
X138440000Y-79390000D02*
X148580000Y-79390000D01*
X149690000Y-77470000D02*
X148580000Y-77470000D01*
X137330000Y-77470000D02*
X138440000Y-77470000D01*
%TO.C,R5*%
X155575000Y-78910000D02*
X155575000Y-80020000D01*
X155575000Y-91270000D02*
X155575000Y-90160000D01*
X153655000Y-80020000D02*
X153655000Y-90160000D01*
X157495000Y-80020000D02*
X153655000Y-80020000D01*
X157495000Y-90160000D02*
X157495000Y-80020000D01*
X153655000Y-90160000D02*
X157495000Y-90160000D01*
%TO.C,R6*%
X156830000Y-108575000D02*
X160670000Y-108575000D01*
X160670000Y-108575000D02*
X160670000Y-98435000D01*
X160670000Y-98435000D02*
X156830000Y-98435000D01*
X156830000Y-98435000D02*
X156830000Y-108575000D01*
X158750000Y-109685000D02*
X158750000Y-108575000D01*
X158750000Y-97325000D02*
X158750000Y-98435000D01*
%TO.C,RV1*%
X120015000Y-67945000D02*
X135255000Y-67945000D01*
X120015000Y-60325000D02*
X135255000Y-60325000D01*
X120015000Y-66675000D02*
X135255000Y-66675000D01*
X135255000Y-67945000D02*
X135255000Y-60325000D01*
X120015000Y-67945000D02*
X120015000Y-60325000D01*
%TO.C,J3*%
X162560000Y-67945000D02*
X172720000Y-67945000D01*
X162560000Y-60325000D02*
X162560000Y-67945000D01*
X172720000Y-60325000D02*
X162560000Y-60325000D01*
X172720000Y-67945000D02*
X172720000Y-60325000D01*
X172720000Y-66675000D02*
X162560000Y-66675000D01*
%TO.C,J2*%
X143510000Y-67945000D02*
X158750000Y-67945000D01*
X143510000Y-60325000D02*
X158750000Y-60325000D01*
X143510000Y-66675000D02*
X158750000Y-66675000D01*
X158750000Y-67945000D02*
X158750000Y-60325000D01*
X143510000Y-67945000D02*
X143510000Y-60325000D01*
%TO.C,R7*%
D10*
X140152380Y-71921666D02*
X139676190Y-72255000D01*
X140152380Y-72493095D02*
X139152380Y-72493095D01*
X139152380Y-72112142D01*
X139200000Y-72016904D01*
X139247619Y-71969285D01*
X139342857Y-71921666D01*
X139485714Y-71921666D01*
X139580952Y-71969285D01*
X139628571Y-72016904D01*
X139676190Y-72112142D01*
X139676190Y-72493095D01*
X139152380Y-71588333D02*
X139152380Y-70921666D01*
X140152380Y-71350238D01*
X138247380Y-71945476D02*
X138247380Y-72516904D01*
X138247380Y-72231190D02*
X137247380Y-72231190D01*
X137390238Y-72326428D01*
X137485476Y-72421666D01*
X137533095Y-72516904D01*
X137247380Y-71326428D02*
X137247380Y-71231190D01*
X137295000Y-71135952D01*
X137342619Y-71088333D01*
X137437857Y-71040714D01*
X137628333Y-70993095D01*
X137866428Y-70993095D01*
X138056904Y-71040714D01*
X138152142Y-71088333D01*
X138199761Y-71135952D01*
X138247380Y-71231190D01*
X138247380Y-71326428D01*
X138199761Y-71421666D01*
X138152142Y-71469285D01*
X138056904Y-71516904D01*
X137866428Y-71564523D01*
X137628333Y-71564523D01*
X137437857Y-71516904D01*
X137342619Y-71469285D01*
X137295000Y-71421666D01*
X137247380Y-71326428D01*
%TO.C,\u002A\u002AREF*%
X131883571Y-133516666D02*
X132359761Y-133516666D01*
X131788333Y-133802380D02*
X132121666Y-132802380D01*
X132455000Y-133802380D01*
X133216904Y-133802380D02*
X133216904Y-133278571D01*
X133169285Y-133183333D01*
X133074047Y-133135714D01*
X132883571Y-133135714D01*
X132788333Y-133183333D01*
X133216904Y-133754761D02*
X133121666Y-133802380D01*
X132883571Y-133802380D01*
X132788333Y-133754761D01*
X132740714Y-133659523D01*
X132740714Y-133564285D01*
X132788333Y-133469047D01*
X132883571Y-133421428D01*
X133121666Y-133421428D01*
X133216904Y-133373809D01*
X133597857Y-133135714D02*
X133835952Y-133802380D01*
X134074047Y-133135714D01*
X134455000Y-133802380D02*
X134455000Y-133135714D01*
X134455000Y-132802380D02*
X134407380Y-132850000D01*
X134455000Y-132897619D01*
X134502619Y-132850000D01*
X134455000Y-132802380D01*
X134455000Y-132897619D01*
X135359761Y-133802380D02*
X135359761Y-132802380D01*
X135359761Y-133754761D02*
X135264523Y-133802380D01*
X135074047Y-133802380D01*
X134978809Y-133754761D01*
X134931190Y-133707142D01*
X134883571Y-133611904D01*
X134883571Y-133326190D01*
X134931190Y-133230952D01*
X134978809Y-133183333D01*
X135074047Y-133135714D01*
X135264523Y-133135714D01*
X135359761Y-133183333D01*
X135597857Y-133897619D02*
X136359761Y-133897619D01*
X136455000Y-132802380D02*
X137026428Y-132802380D01*
X136740714Y-133802380D02*
X136740714Y-132802380D01*
X137359761Y-133802380D02*
X137359761Y-132802380D01*
X137788333Y-133802380D02*
X137788333Y-133278571D01*
X137740714Y-133183333D01*
X137645476Y-133135714D01*
X137502619Y-133135714D01*
X137407380Y-133183333D01*
X137359761Y-133230952D01*
X138645476Y-133754761D02*
X138550238Y-133802380D01*
X138359761Y-133802380D01*
X138264523Y-133754761D01*
X138216904Y-133659523D01*
X138216904Y-133278571D01*
X138264523Y-133183333D01*
X138359761Y-133135714D01*
X138550238Y-133135714D01*
X138645476Y-133183333D01*
X138693095Y-133278571D01*
X138693095Y-133373809D01*
X138216904Y-133469047D01*
X139121666Y-133802380D02*
X139121666Y-133135714D01*
X139121666Y-133326190D02*
X139169285Y-133230952D01*
X139216904Y-133183333D01*
X139312142Y-133135714D01*
X139407380Y-133135714D01*
X139740714Y-133802380D02*
X139740714Y-133135714D01*
X139740714Y-133230952D02*
X139788333Y-133183333D01*
X139883571Y-133135714D01*
X140026428Y-133135714D01*
X140121666Y-133183333D01*
X140169285Y-133278571D01*
X140169285Y-133802380D01*
X140169285Y-133278571D02*
X140216904Y-133183333D01*
X140312142Y-133135714D01*
X140455000Y-133135714D01*
X140550238Y-133183333D01*
X140597857Y-133278571D01*
X140597857Y-133802380D01*
X141502619Y-133802380D02*
X141502619Y-133278571D01*
X141455000Y-133183333D01*
X141359761Y-133135714D01*
X141169285Y-133135714D01*
X141074047Y-133183333D01*
X141502619Y-133754761D02*
X141407380Y-133802380D01*
X141169285Y-133802380D01*
X141074047Y-133754761D01*
X141026428Y-133659523D01*
X141026428Y-133564285D01*
X141074047Y-133469047D01*
X141169285Y-133421428D01*
X141407380Y-133421428D01*
X141502619Y-133373809D01*
X142121666Y-133802380D02*
X142026428Y-133754761D01*
X141978809Y-133659523D01*
X141978809Y-132802380D01*
X142645476Y-133802380D02*
X142550238Y-133754761D01*
X142502619Y-133659523D01*
X142502619Y-132802380D01*
X143169285Y-133802380D02*
X143074047Y-133754761D01*
X143026428Y-133707142D01*
X142978809Y-133611904D01*
X142978809Y-133326190D01*
X143026428Y-133230952D01*
X143074047Y-133183333D01*
X143169285Y-133135714D01*
X143312142Y-133135714D01*
X143407380Y-133183333D01*
X143455000Y-133230952D01*
X143502619Y-133326190D01*
X143502619Y-133611904D01*
X143455000Y-133707142D01*
X143407380Y-133754761D01*
X143312142Y-133802380D01*
X143169285Y-133802380D01*
X143835952Y-133135714D02*
X144074047Y-133802380D01*
X144312142Y-133135714D02*
X144074047Y-133802380D01*
X143978809Y-134040476D01*
X143931190Y-134088095D01*
X143835952Y-134135714D01*
X144455000Y-133897619D02*
X145216904Y-133897619D01*
X145455000Y-133802380D02*
X145455000Y-132802380D01*
X145788333Y-133516666D01*
X146121666Y-132802380D01*
X146121666Y-133802380D01*
X147074047Y-133802380D02*
X146597857Y-133802380D01*
X146597857Y-132802380D01*
X147312142Y-132802380D02*
X147931190Y-132802380D01*
X147597857Y-133183333D01*
X147740714Y-133183333D01*
X147835952Y-133230952D01*
X147883571Y-133278571D01*
X147931190Y-133373809D01*
X147931190Y-133611904D01*
X147883571Y-133707142D01*
X147835952Y-133754761D01*
X147740714Y-133802380D01*
X147455000Y-133802380D01*
X147359761Y-133754761D01*
X147312142Y-133707142D01*
X148264523Y-132802380D02*
X148883571Y-132802380D01*
X148550238Y-133183333D01*
X148693095Y-133183333D01*
X148788333Y-133230952D01*
X148835952Y-133278571D01*
X148883571Y-133373809D01*
X148883571Y-133611904D01*
X148835952Y-133707142D01*
X148788333Y-133754761D01*
X148693095Y-133802380D01*
X148407380Y-133802380D01*
X148312142Y-133754761D01*
X148264523Y-133707142D01*
X149835952Y-132850000D02*
X149740714Y-132802380D01*
X149597857Y-132802380D01*
X149455000Y-132850000D01*
X149359761Y-132945238D01*
X149312142Y-133040476D01*
X149264523Y-133230952D01*
X149264523Y-133373809D01*
X149312142Y-133564285D01*
X149359761Y-133659523D01*
X149455000Y-133754761D01*
X149597857Y-133802380D01*
X149693095Y-133802380D01*
X149835952Y-133754761D01*
X149883571Y-133707142D01*
X149883571Y-133373809D01*
X149693095Y-133373809D01*
X150074047Y-133897619D02*
X150835952Y-133897619D01*
X150931190Y-132802380D02*
X151502619Y-132802380D01*
X151216904Y-133802380D02*
X151216904Y-132802380D01*
X152026428Y-132802380D02*
X152216904Y-132802380D01*
X152312142Y-132850000D01*
X152407380Y-132945238D01*
X152455000Y-133135714D01*
X152455000Y-133469047D01*
X152407380Y-133659523D01*
X152312142Y-133754761D01*
X152216904Y-133802380D01*
X152026428Y-133802380D01*
X151931190Y-133754761D01*
X151835952Y-133659523D01*
X151788333Y-133469047D01*
X151788333Y-133135714D01*
X151835952Y-132945238D01*
X151931190Y-132850000D01*
X152026428Y-132802380D01*
X152883571Y-133421428D02*
X153645476Y-133421428D01*
X154074047Y-132897619D02*
X154121666Y-132850000D01*
X154216904Y-132802380D01*
X154455000Y-132802380D01*
X154550238Y-132850000D01*
X154597857Y-132897619D01*
X154645476Y-132992857D01*
X154645476Y-133088095D01*
X154597857Y-133230952D01*
X154026428Y-133802380D01*
X154645476Y-133802380D01*
X155026428Y-132897619D02*
X155074047Y-132850000D01*
X155169285Y-132802380D01*
X155407380Y-132802380D01*
X155502619Y-132850000D01*
X155550238Y-132897619D01*
X155597857Y-132992857D01*
X155597857Y-133088095D01*
X155550238Y-133230952D01*
X154978809Y-133802380D01*
X155597857Y-133802380D01*
X156216904Y-132802380D02*
X156312142Y-132802380D01*
X156407380Y-132850000D01*
X156455000Y-132897619D01*
X156502619Y-132992857D01*
X156550238Y-133183333D01*
X156550238Y-133421428D01*
X156502619Y-133611904D01*
X156455000Y-133707142D01*
X156407380Y-133754761D01*
X156312142Y-133802380D01*
X156216904Y-133802380D01*
X156121666Y-133754761D01*
X156074047Y-133707142D01*
X156026428Y-133611904D01*
X155978809Y-133421428D01*
X155978809Y-133183333D01*
X156026428Y-132992857D01*
X156074047Y-132897619D01*
X156121666Y-132850000D01*
X156216904Y-132802380D01*
X156978809Y-133421428D02*
X157740714Y-133421428D01*
X158216904Y-133802380D02*
X158216904Y-132802380D01*
X158645476Y-133802380D02*
X158645476Y-133278571D01*
X158597857Y-133183333D01*
X158502619Y-133135714D01*
X158359761Y-133135714D01*
X158264523Y-133183333D01*
X158216904Y-133230952D01*
X159502619Y-133754761D02*
X159407380Y-133802380D01*
X159216904Y-133802380D01*
X159121666Y-133754761D01*
X159074047Y-133659523D01*
X159074047Y-133278571D01*
X159121666Y-133183333D01*
X159216904Y-133135714D01*
X159407380Y-133135714D01*
X159502619Y-133183333D01*
X159550238Y-133278571D01*
X159550238Y-133373809D01*
X159074047Y-133469047D01*
X160407380Y-133802380D02*
X160407380Y-133278571D01*
X160359761Y-133183333D01*
X160264523Y-133135714D01*
X160074047Y-133135714D01*
X159978809Y-133183333D01*
X160407380Y-133754761D02*
X160312142Y-133802380D01*
X160074047Y-133802380D01*
X159978809Y-133754761D01*
X159931190Y-133659523D01*
X159931190Y-133564285D01*
X159978809Y-133469047D01*
X160074047Y-133421428D01*
X160312142Y-133421428D01*
X160407380Y-133373809D01*
X160740714Y-133135714D02*
X161121666Y-133135714D01*
X160883571Y-132802380D02*
X160883571Y-133659523D01*
X160931190Y-133754761D01*
X161026428Y-133802380D01*
X161121666Y-133802380D01*
X161407380Y-133754761D02*
X161502619Y-133802380D01*
X161693095Y-133802380D01*
X161788333Y-133754761D01*
X161835952Y-133659523D01*
X161835952Y-133611904D01*
X161788333Y-133516666D01*
X161693095Y-133469047D01*
X161550238Y-133469047D01*
X161455000Y-133421428D01*
X161407380Y-133326190D01*
X161407380Y-133278571D01*
X161455000Y-133183333D01*
X161550238Y-133135714D01*
X161693095Y-133135714D01*
X161788333Y-133183333D01*
X162264523Y-133802380D02*
X162264523Y-133135714D01*
X162264523Y-132802380D02*
X162216904Y-132850000D01*
X162264523Y-132897619D01*
X162312142Y-132850000D01*
X162264523Y-132802380D01*
X162264523Y-132897619D01*
X162740714Y-133135714D02*
X162740714Y-133802380D01*
X162740714Y-133230952D02*
X162788333Y-133183333D01*
X162883571Y-133135714D01*
X163026428Y-133135714D01*
X163121666Y-133183333D01*
X163169285Y-133278571D01*
X163169285Y-133802380D01*
X163645476Y-133802380D02*
X163645476Y-132802380D01*
X163740714Y-133421428D02*
X164026428Y-133802380D01*
X164026428Y-133135714D02*
X163645476Y-133516666D01*
%TO.C,C1*%
X102502142Y-97381666D02*
X102549761Y-97429285D01*
X102597380Y-97572142D01*
X102597380Y-97667380D01*
X102549761Y-97810238D01*
X102454523Y-97905476D01*
X102359285Y-97953095D01*
X102168809Y-98000714D01*
X102025952Y-98000714D01*
X101835476Y-97953095D01*
X101740238Y-97905476D01*
X101645000Y-97810238D01*
X101597380Y-97667380D01*
X101597380Y-97572142D01*
X101645000Y-97429285D01*
X101692619Y-97381666D01*
X102597380Y-96429285D02*
X102597380Y-97000714D01*
X102597380Y-96715000D02*
X101597380Y-96715000D01*
X101740238Y-96810238D01*
X101835476Y-96905476D01*
X101883095Y-97000714D01*
X122192619Y-99405476D02*
X122145000Y-99357857D01*
X122097380Y-99262619D01*
X122097380Y-99024523D01*
X122145000Y-98929285D01*
X122192619Y-98881666D01*
X122287857Y-98834047D01*
X122383095Y-98834047D01*
X122525952Y-98881666D01*
X123097380Y-99453095D01*
X123097380Y-98834047D01*
X122192619Y-98453095D02*
X122145000Y-98405476D01*
X122097380Y-98310238D01*
X122097380Y-98072142D01*
X122145000Y-97976904D01*
X122192619Y-97929285D01*
X122287857Y-97881666D01*
X122383095Y-97881666D01*
X122525952Y-97929285D01*
X123097380Y-98500714D01*
X123097380Y-97881666D01*
X122097380Y-97262619D02*
X122097380Y-97167380D01*
X122145000Y-97072142D01*
X122192619Y-97024523D01*
X122287857Y-96976904D01*
X122478333Y-96929285D01*
X122716428Y-96929285D01*
X122906904Y-96976904D01*
X123002142Y-97024523D01*
X123049761Y-97072142D01*
X123097380Y-97167380D01*
X123097380Y-97262619D01*
X123049761Y-97357857D01*
X123002142Y-97405476D01*
X122906904Y-97453095D01*
X122716428Y-97500714D01*
X122478333Y-97500714D01*
X122287857Y-97453095D01*
X122192619Y-97405476D01*
X122145000Y-97357857D01*
X122097380Y-97262619D01*
X122430714Y-96500714D02*
X123430714Y-96500714D01*
X122954523Y-96024523D02*
X123049761Y-95976904D01*
X123097380Y-95881666D01*
X122954523Y-96500714D02*
X123049761Y-96453095D01*
X123097380Y-96357857D01*
X123097380Y-96167380D01*
X123049761Y-96072142D01*
X122954523Y-96024523D01*
X122430714Y-96024523D01*
X122573571Y-95119761D02*
X122573571Y-95453095D01*
X123097380Y-95453095D02*
X122097380Y-95453095D01*
X122097380Y-94976904D01*
%TO.C,C2*%
X103137142Y-124051666D02*
X103184761Y-124099285D01*
X103232380Y-124242142D01*
X103232380Y-124337380D01*
X103184761Y-124480238D01*
X103089523Y-124575476D01*
X102994285Y-124623095D01*
X102803809Y-124670714D01*
X102660952Y-124670714D01*
X102470476Y-124623095D01*
X102375238Y-124575476D01*
X102280000Y-124480238D01*
X102232380Y-124337380D01*
X102232380Y-124242142D01*
X102280000Y-124099285D01*
X102327619Y-124051666D01*
X102327619Y-123670714D02*
X102280000Y-123623095D01*
X102232380Y-123527857D01*
X102232380Y-123289761D01*
X102280000Y-123194523D01*
X102327619Y-123146904D01*
X102422857Y-123099285D01*
X102518095Y-123099285D01*
X102660952Y-123146904D01*
X103232380Y-123718333D01*
X103232380Y-123099285D01*
X122827619Y-126075476D02*
X122780000Y-126027857D01*
X122732380Y-125932619D01*
X122732380Y-125694523D01*
X122780000Y-125599285D01*
X122827619Y-125551666D01*
X122922857Y-125504047D01*
X123018095Y-125504047D01*
X123160952Y-125551666D01*
X123732380Y-126123095D01*
X123732380Y-125504047D01*
X122827619Y-125123095D02*
X122780000Y-125075476D01*
X122732380Y-124980238D01*
X122732380Y-124742142D01*
X122780000Y-124646904D01*
X122827619Y-124599285D01*
X122922857Y-124551666D01*
X123018095Y-124551666D01*
X123160952Y-124599285D01*
X123732380Y-125170714D01*
X123732380Y-124551666D01*
X122732380Y-123932619D02*
X122732380Y-123837380D01*
X122780000Y-123742142D01*
X122827619Y-123694523D01*
X122922857Y-123646904D01*
X123113333Y-123599285D01*
X123351428Y-123599285D01*
X123541904Y-123646904D01*
X123637142Y-123694523D01*
X123684761Y-123742142D01*
X123732380Y-123837380D01*
X123732380Y-123932619D01*
X123684761Y-124027857D01*
X123637142Y-124075476D01*
X123541904Y-124123095D01*
X123351428Y-124170714D01*
X123113333Y-124170714D01*
X122922857Y-124123095D01*
X122827619Y-124075476D01*
X122780000Y-124027857D01*
X122732380Y-123932619D01*
X123065714Y-123170714D02*
X124065714Y-123170714D01*
X123589523Y-122694523D02*
X123684761Y-122646904D01*
X123732380Y-122551666D01*
X123589523Y-123170714D02*
X123684761Y-123123095D01*
X123732380Y-123027857D01*
X123732380Y-122837380D01*
X123684761Y-122742142D01*
X123589523Y-122694523D01*
X123065714Y-122694523D01*
X123208571Y-121789761D02*
X123208571Y-122123095D01*
X123732380Y-122123095D02*
X122732380Y-122123095D01*
X122732380Y-121646904D01*
%TO.C,C3*%
X174747142Y-85136666D02*
X174794761Y-85184285D01*
X174842380Y-85327142D01*
X174842380Y-85422380D01*
X174794761Y-85565238D01*
X174699523Y-85660476D01*
X174604285Y-85708095D01*
X174413809Y-85755714D01*
X174270952Y-85755714D01*
X174080476Y-85708095D01*
X173985238Y-85660476D01*
X173890000Y-85565238D01*
X173842380Y-85422380D01*
X173842380Y-85327142D01*
X173890000Y-85184285D01*
X173937619Y-85136666D01*
X173842380Y-84803333D02*
X173842380Y-84184285D01*
X174223333Y-84517619D01*
X174223333Y-84374761D01*
X174270952Y-84279523D01*
X174318571Y-84231904D01*
X174413809Y-84184285D01*
X174651904Y-84184285D01*
X174747142Y-84231904D01*
X174794761Y-84279523D01*
X174842380Y-84374761D01*
X174842380Y-84660476D01*
X174794761Y-84755714D01*
X174747142Y-84803333D01*
X161342380Y-85636666D02*
X161342380Y-86208095D01*
X161342380Y-85922380D02*
X160342380Y-85922380D01*
X160485238Y-86017619D01*
X160580476Y-86112857D01*
X160628095Y-86208095D01*
X160675714Y-85208095D02*
X161675714Y-85208095D01*
X161199523Y-84731904D02*
X161294761Y-84684285D01*
X161342380Y-84589047D01*
X161199523Y-85208095D02*
X161294761Y-85160476D01*
X161342380Y-85065238D01*
X161342380Y-84874761D01*
X161294761Y-84779523D01*
X161199523Y-84731904D01*
X160675714Y-84731904D01*
X160818571Y-83827142D02*
X160818571Y-84160476D01*
X161342380Y-84160476D02*
X160342380Y-84160476D01*
X160342380Y-83684285D01*
%TO.C,D1*%
X113642380Y-80103095D02*
X112642380Y-80103095D01*
X112642380Y-79865000D01*
X112690000Y-79722142D01*
X112785238Y-79626904D01*
X112880476Y-79579285D01*
X113070952Y-79531666D01*
X113213809Y-79531666D01*
X113404285Y-79579285D01*
X113499523Y-79626904D01*
X113594761Y-79722142D01*
X113642380Y-79865000D01*
X113642380Y-80103095D01*
X113642380Y-78579285D02*
X113642380Y-79150714D01*
X113642380Y-78865000D02*
X112642380Y-78865000D01*
X112785238Y-78960238D01*
X112880476Y-79055476D01*
X112928095Y-79150714D01*
X103142380Y-81555476D02*
X102142380Y-81555476D01*
X102142380Y-81317380D01*
X102190000Y-81174523D01*
X102285238Y-81079285D01*
X102380476Y-81031666D01*
X102570952Y-80984047D01*
X102713809Y-80984047D01*
X102904285Y-81031666D01*
X102999523Y-81079285D01*
X103094761Y-81174523D01*
X103142380Y-81317380D01*
X103142380Y-81555476D01*
X102618571Y-80222142D02*
X102666190Y-80079285D01*
X102713809Y-80031666D01*
X102809047Y-79984047D01*
X102951904Y-79984047D01*
X103047142Y-80031666D01*
X103094761Y-80079285D01*
X103142380Y-80174523D01*
X103142380Y-80555476D01*
X102142380Y-80555476D01*
X102142380Y-80222142D01*
X102190000Y-80126904D01*
X102237619Y-80079285D01*
X102332857Y-80031666D01*
X102428095Y-80031666D01*
X102523333Y-80079285D01*
X102570952Y-80126904D01*
X102618571Y-80222142D01*
X102618571Y-80555476D01*
X103142380Y-79031666D02*
X103142380Y-79603095D01*
X103142380Y-79317380D02*
X102142380Y-79317380D01*
X102285238Y-79412619D01*
X102380476Y-79507857D01*
X102428095Y-79603095D01*
X102142380Y-78412619D02*
X102142380Y-78317380D01*
X102190000Y-78222142D01*
X102237619Y-78174523D01*
X102332857Y-78126904D01*
X102523333Y-78079285D01*
X102761428Y-78079285D01*
X102951904Y-78126904D01*
X103047142Y-78174523D01*
X103094761Y-78222142D01*
X103142380Y-78317380D01*
X103142380Y-78412619D01*
X103094761Y-78507857D01*
X103047142Y-78555476D01*
X102951904Y-78603095D01*
X102761428Y-78650714D01*
X102523333Y-78650714D01*
X102332857Y-78603095D01*
X102237619Y-78555476D01*
X102190000Y-78507857D01*
X102142380Y-78412619D01*
X102142380Y-77745952D02*
X102142380Y-77079285D01*
X103142380Y-77507857D01*
%TO.C,D2*%
X123721904Y-74197380D02*
X123721904Y-73197380D01*
X123960000Y-73197380D01*
X124102857Y-73245000D01*
X124198095Y-73340238D01*
X124245714Y-73435476D01*
X124293333Y-73625952D01*
X124293333Y-73768809D01*
X124245714Y-73959285D01*
X124198095Y-74054523D01*
X124102857Y-74149761D01*
X123960000Y-74197380D01*
X123721904Y-74197380D01*
X124674285Y-73292619D02*
X124721904Y-73245000D01*
X124817142Y-73197380D01*
X125055238Y-73197380D01*
X125150476Y-73245000D01*
X125198095Y-73292619D01*
X125245714Y-73387857D01*
X125245714Y-73483095D01*
X125198095Y-73625952D01*
X124626666Y-74197380D01*
X125245714Y-74197380D01*
X121817142Y-81647380D02*
X121245714Y-81647380D01*
X121531428Y-81647380D02*
X121531428Y-80647380D01*
X121436190Y-80790238D01*
X121340952Y-80885476D01*
X121245714Y-80933095D01*
X122245714Y-81647380D02*
X122245714Y-80647380D01*
X122817142Y-81647380D01*
X122817142Y-80647380D01*
X123769523Y-80647380D02*
X123293333Y-80647380D01*
X123245714Y-81123571D01*
X123293333Y-81075952D01*
X123388571Y-81028333D01*
X123626666Y-81028333D01*
X123721904Y-81075952D01*
X123769523Y-81123571D01*
X123817142Y-81218809D01*
X123817142Y-81456904D01*
X123769523Y-81552142D01*
X123721904Y-81599761D01*
X123626666Y-81647380D01*
X123388571Y-81647380D01*
X123293333Y-81599761D01*
X123245714Y-81552142D01*
X124150476Y-80647380D02*
X124769523Y-80647380D01*
X124436190Y-81028333D01*
X124579047Y-81028333D01*
X124674285Y-81075952D01*
X124721904Y-81123571D01*
X124769523Y-81218809D01*
X124769523Y-81456904D01*
X124721904Y-81552142D01*
X124674285Y-81599761D01*
X124579047Y-81647380D01*
X124293333Y-81647380D01*
X124198095Y-81599761D01*
X124150476Y-81552142D01*
X125340952Y-81075952D02*
X125245714Y-81028333D01*
X125198095Y-80980714D01*
X125150476Y-80885476D01*
X125150476Y-80837857D01*
X125198095Y-80742619D01*
X125245714Y-80695000D01*
X125340952Y-80647380D01*
X125531428Y-80647380D01*
X125626666Y-80695000D01*
X125674285Y-80742619D01*
X125721904Y-80837857D01*
X125721904Y-80885476D01*
X125674285Y-80980714D01*
X125626666Y-81028333D01*
X125531428Y-81075952D01*
X125340952Y-81075952D01*
X125245714Y-81123571D01*
X125198095Y-81171190D01*
X125150476Y-81266428D01*
X125150476Y-81456904D01*
X125198095Y-81552142D01*
X125245714Y-81599761D01*
X125340952Y-81647380D01*
X125531428Y-81647380D01*
X125626666Y-81599761D01*
X125674285Y-81552142D01*
X125721904Y-81456904D01*
X125721904Y-81266428D01*
X125674285Y-81171190D01*
X125626666Y-81123571D01*
X125531428Y-81075952D01*
X126055238Y-80647380D02*
X126674285Y-80647380D01*
X126340952Y-81028333D01*
X126483809Y-81028333D01*
X126579047Y-81075952D01*
X126626666Y-81123571D01*
X126674285Y-81218809D01*
X126674285Y-81456904D01*
X126626666Y-81552142D01*
X126579047Y-81599761D01*
X126483809Y-81647380D01*
X126198095Y-81647380D01*
X126102857Y-81599761D01*
X126055238Y-81552142D01*
X127436190Y-81123571D02*
X127579047Y-81171190D01*
X127626666Y-81218809D01*
X127674285Y-81314047D01*
X127674285Y-81456904D01*
X127626666Y-81552142D01*
X127579047Y-81599761D01*
X127483809Y-81647380D01*
X127102857Y-81647380D01*
X127102857Y-80647380D01*
X127436190Y-80647380D01*
X127531428Y-80695000D01*
X127579047Y-80742619D01*
X127626666Y-80837857D01*
X127626666Y-80933095D01*
X127579047Y-81028333D01*
X127531428Y-81075952D01*
X127436190Y-81123571D01*
X127102857Y-81123571D01*
X116578095Y-75622380D02*
X116578095Y-74622380D01*
X117149523Y-75622380D02*
X116720952Y-75050952D01*
X117149523Y-74622380D02*
X116578095Y-75193809D01*
%TO.C,D3*%
X129436904Y-95632380D02*
X129436904Y-94632380D01*
X129675000Y-94632380D01*
X129817857Y-94680000D01*
X129913095Y-94775238D01*
X129960714Y-94870476D01*
X130008333Y-95060952D01*
X130008333Y-95203809D01*
X129960714Y-95394285D01*
X129913095Y-95489523D01*
X129817857Y-95584761D01*
X129675000Y-95632380D01*
X129436904Y-95632380D01*
X130341666Y-94632380D02*
X130960714Y-94632380D01*
X130627380Y-95013333D01*
X130770238Y-95013333D01*
X130865476Y-95060952D01*
X130913095Y-95108571D01*
X130960714Y-95203809D01*
X130960714Y-95441904D01*
X130913095Y-95537142D01*
X130865476Y-95584761D01*
X130770238Y-95632380D01*
X130484523Y-95632380D01*
X130389285Y-95584761D01*
X130341666Y-95537142D01*
X128032142Y-90692380D02*
X127460714Y-90692380D01*
X127746428Y-90692380D02*
X127746428Y-89692380D01*
X127651190Y-89835238D01*
X127555952Y-89930476D01*
X127460714Y-89978095D01*
X128460714Y-90692380D02*
X128460714Y-89692380D01*
X129032142Y-90692380D01*
X129032142Y-89692380D01*
X129936904Y-90025714D02*
X129936904Y-90692380D01*
X129698809Y-89644761D02*
X129460714Y-90359047D01*
X130079761Y-90359047D01*
X130651190Y-89692380D02*
X130746428Y-89692380D01*
X130841666Y-89740000D01*
X130889285Y-89787619D01*
X130936904Y-89882857D01*
X130984523Y-90073333D01*
X130984523Y-90311428D01*
X130936904Y-90501904D01*
X130889285Y-90597142D01*
X130841666Y-90644761D01*
X130746428Y-90692380D01*
X130651190Y-90692380D01*
X130555952Y-90644761D01*
X130508333Y-90597142D01*
X130460714Y-90501904D01*
X130413095Y-90311428D01*
X130413095Y-90073333D01*
X130460714Y-89882857D01*
X130508333Y-89787619D01*
X130555952Y-89740000D01*
X130651190Y-89692380D01*
X131603571Y-89692380D02*
X131698809Y-89692380D01*
X131794047Y-89740000D01*
X131841666Y-89787619D01*
X131889285Y-89882857D01*
X131936904Y-90073333D01*
X131936904Y-90311428D01*
X131889285Y-90501904D01*
X131841666Y-90597142D01*
X131794047Y-90644761D01*
X131698809Y-90692380D01*
X131603571Y-90692380D01*
X131508333Y-90644761D01*
X131460714Y-90597142D01*
X131413095Y-90501904D01*
X131365476Y-90311428D01*
X131365476Y-90073333D01*
X131413095Y-89882857D01*
X131460714Y-89787619D01*
X131508333Y-89740000D01*
X131603571Y-89692380D01*
X132270238Y-89692380D02*
X132936904Y-89692380D01*
X132508333Y-90692380D01*
X134993095Y-95262380D02*
X134993095Y-94262380D01*
X135564523Y-95262380D02*
X135135952Y-94690952D01*
X135564523Y-94262380D02*
X134993095Y-94833809D01*
%TO.C,D4*%
X143406904Y-102617380D02*
X143406904Y-101617380D01*
X143645000Y-101617380D01*
X143787857Y-101665000D01*
X143883095Y-101760238D01*
X143930714Y-101855476D01*
X143978333Y-102045952D01*
X143978333Y-102188809D01*
X143930714Y-102379285D01*
X143883095Y-102474523D01*
X143787857Y-102569761D01*
X143645000Y-102617380D01*
X143406904Y-102617380D01*
X144835476Y-101950714D02*
X144835476Y-102617380D01*
X144597380Y-101569761D02*
X144359285Y-102284047D01*
X144978333Y-102284047D01*
X142002142Y-97677380D02*
X141430714Y-97677380D01*
X141716428Y-97677380D02*
X141716428Y-96677380D01*
X141621190Y-96820238D01*
X141525952Y-96915476D01*
X141430714Y-96963095D01*
X142430714Y-97677380D02*
X142430714Y-96677380D01*
X143002142Y-97677380D01*
X143002142Y-96677380D01*
X143906904Y-97010714D02*
X143906904Y-97677380D01*
X143668809Y-96629761D02*
X143430714Y-97344047D01*
X144049761Y-97344047D01*
X144621190Y-96677380D02*
X144716428Y-96677380D01*
X144811666Y-96725000D01*
X144859285Y-96772619D01*
X144906904Y-96867857D01*
X144954523Y-97058333D01*
X144954523Y-97296428D01*
X144906904Y-97486904D01*
X144859285Y-97582142D01*
X144811666Y-97629761D01*
X144716428Y-97677380D01*
X144621190Y-97677380D01*
X144525952Y-97629761D01*
X144478333Y-97582142D01*
X144430714Y-97486904D01*
X144383095Y-97296428D01*
X144383095Y-97058333D01*
X144430714Y-96867857D01*
X144478333Y-96772619D01*
X144525952Y-96725000D01*
X144621190Y-96677380D01*
X145573571Y-96677380D02*
X145668809Y-96677380D01*
X145764047Y-96725000D01*
X145811666Y-96772619D01*
X145859285Y-96867857D01*
X145906904Y-97058333D01*
X145906904Y-97296428D01*
X145859285Y-97486904D01*
X145811666Y-97582142D01*
X145764047Y-97629761D01*
X145668809Y-97677380D01*
X145573571Y-97677380D01*
X145478333Y-97629761D01*
X145430714Y-97582142D01*
X145383095Y-97486904D01*
X145335476Y-97296428D01*
X145335476Y-97058333D01*
X145383095Y-96867857D01*
X145430714Y-96772619D01*
X145478333Y-96725000D01*
X145573571Y-96677380D01*
X146240238Y-96677380D02*
X146906904Y-96677380D01*
X146478333Y-97677380D01*
X148963095Y-102247380D02*
X148963095Y-101247380D01*
X149534523Y-102247380D02*
X149105952Y-101675952D01*
X149534523Y-101247380D02*
X148963095Y-101818809D01*
%TO.C,D5*%
X143406904Y-90692380D02*
X143406904Y-89692380D01*
X143645000Y-89692380D01*
X143787857Y-89740000D01*
X143883095Y-89835238D01*
X143930714Y-89930476D01*
X143978333Y-90120952D01*
X143978333Y-90263809D01*
X143930714Y-90454285D01*
X143883095Y-90549523D01*
X143787857Y-90644761D01*
X143645000Y-90692380D01*
X143406904Y-90692380D01*
X144883095Y-89692380D02*
X144406904Y-89692380D01*
X144359285Y-90168571D01*
X144406904Y-90120952D01*
X144502142Y-90073333D01*
X144740238Y-90073333D01*
X144835476Y-90120952D01*
X144883095Y-90168571D01*
X144930714Y-90263809D01*
X144930714Y-90501904D01*
X144883095Y-90597142D01*
X144835476Y-90644761D01*
X144740238Y-90692380D01*
X144502142Y-90692380D01*
X144406904Y-90644761D01*
X144359285Y-90597142D01*
X142002142Y-95632380D02*
X141430714Y-95632380D01*
X141716428Y-95632380D02*
X141716428Y-94632380D01*
X141621190Y-94775238D01*
X141525952Y-94870476D01*
X141430714Y-94918095D01*
X142430714Y-95632380D02*
X142430714Y-94632380D01*
X143002142Y-95632380D01*
X143002142Y-94632380D01*
X143906904Y-94965714D02*
X143906904Y-95632380D01*
X143668809Y-94584761D02*
X143430714Y-95299047D01*
X144049761Y-95299047D01*
X144621190Y-94632380D02*
X144716428Y-94632380D01*
X144811666Y-94680000D01*
X144859285Y-94727619D01*
X144906904Y-94822857D01*
X144954523Y-95013333D01*
X144954523Y-95251428D01*
X144906904Y-95441904D01*
X144859285Y-95537142D01*
X144811666Y-95584761D01*
X144716428Y-95632380D01*
X144621190Y-95632380D01*
X144525952Y-95584761D01*
X144478333Y-95537142D01*
X144430714Y-95441904D01*
X144383095Y-95251428D01*
X144383095Y-95013333D01*
X144430714Y-94822857D01*
X144478333Y-94727619D01*
X144525952Y-94680000D01*
X144621190Y-94632380D01*
X145573571Y-94632380D02*
X145668809Y-94632380D01*
X145764047Y-94680000D01*
X145811666Y-94727619D01*
X145859285Y-94822857D01*
X145906904Y-95013333D01*
X145906904Y-95251428D01*
X145859285Y-95441904D01*
X145811666Y-95537142D01*
X145764047Y-95584761D01*
X145668809Y-95632380D01*
X145573571Y-95632380D01*
X145478333Y-95584761D01*
X145430714Y-95537142D01*
X145383095Y-95441904D01*
X145335476Y-95251428D01*
X145335476Y-95013333D01*
X145383095Y-94822857D01*
X145430714Y-94727619D01*
X145478333Y-94680000D01*
X145573571Y-94632380D01*
X146240238Y-94632380D02*
X146906904Y-94632380D01*
X146478333Y-95632380D01*
X138803095Y-91062380D02*
X138803095Y-90062380D01*
X139374523Y-91062380D02*
X138945952Y-90490952D01*
X139374523Y-90062380D02*
X138803095Y-90633809D01*
%TO.C,D6*%
X163717380Y-103608095D02*
X162717380Y-103608095D01*
X162717380Y-103370000D01*
X162765000Y-103227142D01*
X162860238Y-103131904D01*
X162955476Y-103084285D01*
X163145952Y-103036666D01*
X163288809Y-103036666D01*
X163479285Y-103084285D01*
X163574523Y-103131904D01*
X163669761Y-103227142D01*
X163717380Y-103370000D01*
X163717380Y-103608095D01*
X162717380Y-102179523D02*
X162717380Y-102370000D01*
X162765000Y-102465238D01*
X162812619Y-102512857D01*
X162955476Y-102608095D01*
X163145952Y-102655714D01*
X163526904Y-102655714D01*
X163622142Y-102608095D01*
X163669761Y-102560476D01*
X163717380Y-102465238D01*
X163717380Y-102274761D01*
X163669761Y-102179523D01*
X163622142Y-102131904D01*
X163526904Y-102084285D01*
X163288809Y-102084285D01*
X163193571Y-102131904D01*
X163145952Y-102179523D01*
X163098333Y-102274761D01*
X163098333Y-102465238D01*
X163145952Y-102560476D01*
X163193571Y-102608095D01*
X163288809Y-102655714D01*
X168657380Y-105012857D02*
X168657380Y-105584285D01*
X168657380Y-105298571D02*
X167657380Y-105298571D01*
X167800238Y-105393809D01*
X167895476Y-105489047D01*
X167943095Y-105584285D01*
X168657380Y-104584285D02*
X167657380Y-104584285D01*
X168657380Y-104012857D01*
X167657380Y-104012857D01*
X167990714Y-103108095D02*
X168657380Y-103108095D01*
X167609761Y-103346190D02*
X168324047Y-103584285D01*
X168324047Y-102965238D01*
X167657380Y-102393809D02*
X167657380Y-102298571D01*
X167705000Y-102203333D01*
X167752619Y-102155714D01*
X167847857Y-102108095D01*
X168038333Y-102060476D01*
X168276428Y-102060476D01*
X168466904Y-102108095D01*
X168562142Y-102155714D01*
X168609761Y-102203333D01*
X168657380Y-102298571D01*
X168657380Y-102393809D01*
X168609761Y-102489047D01*
X168562142Y-102536666D01*
X168466904Y-102584285D01*
X168276428Y-102631904D01*
X168038333Y-102631904D01*
X167847857Y-102584285D01*
X167752619Y-102536666D01*
X167705000Y-102489047D01*
X167657380Y-102393809D01*
X167657380Y-101441428D02*
X167657380Y-101346190D01*
X167705000Y-101250952D01*
X167752619Y-101203333D01*
X167847857Y-101155714D01*
X168038333Y-101108095D01*
X168276428Y-101108095D01*
X168466904Y-101155714D01*
X168562142Y-101203333D01*
X168609761Y-101250952D01*
X168657380Y-101346190D01*
X168657380Y-101441428D01*
X168609761Y-101536666D01*
X168562142Y-101584285D01*
X168466904Y-101631904D01*
X168276428Y-101679523D01*
X168038333Y-101679523D01*
X167847857Y-101631904D01*
X167752619Y-101584285D01*
X167705000Y-101536666D01*
X167657380Y-101441428D01*
X167657380Y-100774761D02*
X167657380Y-100108095D01*
X168657380Y-100536666D01*
X164087380Y-108211904D02*
X163087380Y-108211904D01*
X164087380Y-107640476D02*
X163515952Y-108069047D01*
X163087380Y-107640476D02*
X163658809Y-108211904D01*
%TO.C,J1*%
X108251666Y-68667380D02*
X108251666Y-69381666D01*
X108204047Y-69524523D01*
X108108809Y-69619761D01*
X107965952Y-69667380D01*
X107870714Y-69667380D01*
X109251666Y-69667380D02*
X108680238Y-69667380D01*
X108965952Y-69667380D02*
X108965952Y-68667380D01*
X108870714Y-68810238D01*
X108775476Y-68905476D01*
X108680238Y-68953095D01*
X104346904Y-71572380D02*
X103775476Y-71572380D01*
X104061190Y-71572380D02*
X104061190Y-70572380D01*
X103965952Y-70715238D01*
X103870714Y-70810476D01*
X103775476Y-70858095D01*
X104727857Y-70667619D02*
X104775476Y-70620000D01*
X104870714Y-70572380D01*
X105108809Y-70572380D01*
X105204047Y-70620000D01*
X105251666Y-70667619D01*
X105299285Y-70762857D01*
X105299285Y-70858095D01*
X105251666Y-71000952D01*
X104680238Y-71572380D01*
X105299285Y-71572380D01*
X106204047Y-70572380D02*
X105727857Y-70572380D01*
X105680238Y-71048571D01*
X105727857Y-71000952D01*
X105823095Y-70953333D01*
X106061190Y-70953333D01*
X106156428Y-71000952D01*
X106204047Y-71048571D01*
X106251666Y-71143809D01*
X106251666Y-71381904D01*
X106204047Y-71477142D01*
X106156428Y-71524761D01*
X106061190Y-71572380D01*
X105823095Y-71572380D01*
X105727857Y-71524761D01*
X105680238Y-71477142D01*
X106537380Y-70572380D02*
X106870714Y-71572380D01*
X107204047Y-70572380D01*
X107965952Y-71572380D02*
X107965952Y-71048571D01*
X107918333Y-70953333D01*
X107823095Y-70905714D01*
X107632619Y-70905714D01*
X107537380Y-70953333D01*
X107965952Y-71524761D02*
X107870714Y-71572380D01*
X107632619Y-71572380D01*
X107537380Y-71524761D01*
X107489761Y-71429523D01*
X107489761Y-71334285D01*
X107537380Y-71239047D01*
X107632619Y-71191428D01*
X107870714Y-71191428D01*
X107965952Y-71143809D01*
X108870714Y-71524761D02*
X108775476Y-71572380D01*
X108585000Y-71572380D01*
X108489761Y-71524761D01*
X108442142Y-71477142D01*
X108394523Y-71381904D01*
X108394523Y-71096190D01*
X108442142Y-71000952D01*
X108489761Y-70953333D01*
X108585000Y-70905714D01*
X108775476Y-70905714D01*
X108870714Y-70953333D01*
X110061190Y-71572380D02*
X110061190Y-70905714D01*
X110061190Y-70572380D02*
X110013571Y-70620000D01*
X110061190Y-70667619D01*
X110108809Y-70620000D01*
X110061190Y-70572380D01*
X110061190Y-70667619D01*
X110537380Y-70905714D02*
X110537380Y-71572380D01*
X110537380Y-71000952D02*
X110585000Y-70953333D01*
X110680238Y-70905714D01*
X110823095Y-70905714D01*
X110918333Y-70953333D01*
X110965952Y-71048571D01*
X110965952Y-71572380D01*
X111442142Y-70905714D02*
X111442142Y-71905714D01*
X111442142Y-70953333D02*
X111537380Y-70905714D01*
X111727857Y-70905714D01*
X111823095Y-70953333D01*
X111870714Y-71000952D01*
X111918333Y-71096190D01*
X111918333Y-71381904D01*
X111870714Y-71477142D01*
X111823095Y-71524761D01*
X111727857Y-71572380D01*
X111537380Y-71572380D01*
X111442142Y-71524761D01*
X112775476Y-70905714D02*
X112775476Y-71572380D01*
X112346904Y-70905714D02*
X112346904Y-71429523D01*
X112394523Y-71524761D01*
X112489761Y-71572380D01*
X112632619Y-71572380D01*
X112727857Y-71524761D01*
X112775476Y-71477142D01*
X113108809Y-70905714D02*
X113489761Y-70905714D01*
X113251666Y-70572380D02*
X113251666Y-71429523D01*
X113299285Y-71524761D01*
X113394523Y-71572380D01*
X113489761Y-71572380D01*
%TO.C,Q1*%
X147859761Y-114212619D02*
X147764523Y-114165000D01*
X147669285Y-114069761D01*
X147526428Y-113926904D01*
X147431190Y-113879285D01*
X147335952Y-113879285D01*
X147383571Y-114117380D02*
X147288333Y-114069761D01*
X147193095Y-113974523D01*
X147145476Y-113784047D01*
X147145476Y-113450714D01*
X147193095Y-113260238D01*
X147288333Y-113165000D01*
X147383571Y-113117380D01*
X147574047Y-113117380D01*
X147669285Y-113165000D01*
X147764523Y-113260238D01*
X147812142Y-113450714D01*
X147812142Y-113784047D01*
X147764523Y-113974523D01*
X147669285Y-114069761D01*
X147574047Y-114117380D01*
X147383571Y-114117380D01*
X148764523Y-114117380D02*
X148193095Y-114117380D01*
X148478809Y-114117380D02*
X148478809Y-113117380D01*
X148383571Y-113260238D01*
X148288333Y-113355476D01*
X148193095Y-113403095D01*
X144883571Y-112807380D02*
X144883571Y-111807380D01*
X145216904Y-112521666D01*
X145550238Y-111807380D01*
X145550238Y-112807380D01*
X146312142Y-111807380D02*
X146312142Y-112521666D01*
X146264523Y-112664523D01*
X146169285Y-112759761D01*
X146026428Y-112807380D01*
X145931190Y-112807380D01*
X146788333Y-112283571D02*
X147121666Y-112283571D01*
X147264523Y-112807380D02*
X146788333Y-112807380D01*
X146788333Y-111807380D01*
X147264523Y-111807380D01*
X148169285Y-111807380D02*
X147693095Y-111807380D01*
X147645476Y-112283571D01*
X147693095Y-112235952D01*
X147788333Y-112188333D01*
X148026428Y-112188333D01*
X148121666Y-112235952D01*
X148169285Y-112283571D01*
X148216904Y-112378809D01*
X148216904Y-112616904D01*
X148169285Y-112712142D01*
X148121666Y-112759761D01*
X148026428Y-112807380D01*
X147788333Y-112807380D01*
X147693095Y-112759761D01*
X147645476Y-112712142D01*
X148550238Y-111807380D02*
X149216904Y-111807380D01*
X148788333Y-112807380D01*
X149502619Y-111807380D02*
X150121666Y-111807380D01*
X149788333Y-112188333D01*
X149931190Y-112188333D01*
X150026428Y-112235952D01*
X150074047Y-112283571D01*
X150121666Y-112378809D01*
X150121666Y-112616904D01*
X150074047Y-112712142D01*
X150026428Y-112759761D01*
X149931190Y-112807380D01*
X149645476Y-112807380D01*
X149550238Y-112759761D01*
X149502619Y-112712142D01*
X151074047Y-112807380D02*
X150502619Y-112807380D01*
X150788333Y-112807380D02*
X150788333Y-111807380D01*
X150693095Y-111950238D01*
X150597857Y-112045476D01*
X150502619Y-112093095D01*
%TO.C,Q2*%
X147859761Y-124372619D02*
X147764523Y-124325000D01*
X147669285Y-124229761D01*
X147526428Y-124086904D01*
X147431190Y-124039285D01*
X147335952Y-124039285D01*
X147383571Y-124277380D02*
X147288333Y-124229761D01*
X147193095Y-124134523D01*
X147145476Y-123944047D01*
X147145476Y-123610714D01*
X147193095Y-123420238D01*
X147288333Y-123325000D01*
X147383571Y-123277380D01*
X147574047Y-123277380D01*
X147669285Y-123325000D01*
X147764523Y-123420238D01*
X147812142Y-123610714D01*
X147812142Y-123944047D01*
X147764523Y-124134523D01*
X147669285Y-124229761D01*
X147574047Y-124277380D01*
X147383571Y-124277380D01*
X148193095Y-123372619D02*
X148240714Y-123325000D01*
X148335952Y-123277380D01*
X148574047Y-123277380D01*
X148669285Y-123325000D01*
X148716904Y-123372619D01*
X148764523Y-123467857D01*
X148764523Y-123563095D01*
X148716904Y-123705952D01*
X148145476Y-124277380D01*
X148764523Y-124277380D01*
X144883571Y-126222380D02*
X144883571Y-125222380D01*
X145216904Y-125936666D01*
X145550238Y-125222380D01*
X145550238Y-126222380D01*
X146312142Y-125222380D02*
X146312142Y-125936666D01*
X146264523Y-126079523D01*
X146169285Y-126174761D01*
X146026428Y-126222380D01*
X145931190Y-126222380D01*
X146788333Y-125698571D02*
X147121666Y-125698571D01*
X147264523Y-126222380D02*
X146788333Y-126222380D01*
X146788333Y-125222380D01*
X147264523Y-125222380D01*
X148169285Y-125222380D02*
X147693095Y-125222380D01*
X147645476Y-125698571D01*
X147693095Y-125650952D01*
X147788333Y-125603333D01*
X148026428Y-125603333D01*
X148121666Y-125650952D01*
X148169285Y-125698571D01*
X148216904Y-125793809D01*
X148216904Y-126031904D01*
X148169285Y-126127142D01*
X148121666Y-126174761D01*
X148026428Y-126222380D01*
X147788333Y-126222380D01*
X147693095Y-126174761D01*
X147645476Y-126127142D01*
X148550238Y-125222380D02*
X149216904Y-125222380D01*
X148788333Y-126222380D01*
X149502619Y-125222380D02*
X150121666Y-125222380D01*
X149788333Y-125603333D01*
X149931190Y-125603333D01*
X150026428Y-125650952D01*
X150074047Y-125698571D01*
X150121666Y-125793809D01*
X150121666Y-126031904D01*
X150074047Y-126127142D01*
X150026428Y-126174761D01*
X149931190Y-126222380D01*
X149645476Y-126222380D01*
X149550238Y-126174761D01*
X149502619Y-126127142D01*
X151074047Y-126222380D02*
X150502619Y-126222380D01*
X150788333Y-126222380D02*
X150788333Y-125222380D01*
X150693095Y-125365238D01*
X150597857Y-125460476D01*
X150502619Y-125508095D01*
%TO.C,Q3*%
X143434761Y-82712619D02*
X143339523Y-82665000D01*
X143244285Y-82569761D01*
X143101428Y-82426904D01*
X143006190Y-82379285D01*
X142910952Y-82379285D01*
X142958571Y-82617380D02*
X142863333Y-82569761D01*
X142768095Y-82474523D01*
X142720476Y-82284047D01*
X142720476Y-81950714D01*
X142768095Y-81760238D01*
X142863333Y-81665000D01*
X142958571Y-81617380D01*
X143149047Y-81617380D01*
X143244285Y-81665000D01*
X143339523Y-81760238D01*
X143387142Y-81950714D01*
X143387142Y-82284047D01*
X143339523Y-82474523D01*
X143244285Y-82569761D01*
X143149047Y-82617380D01*
X142958571Y-82617380D01*
X143720476Y-81617380D02*
X144339523Y-81617380D01*
X144006190Y-81998333D01*
X144149047Y-81998333D01*
X144244285Y-82045952D01*
X144291904Y-82093571D01*
X144339523Y-82188809D01*
X144339523Y-82426904D01*
X144291904Y-82522142D01*
X144244285Y-82569761D01*
X144149047Y-82617380D01*
X143863333Y-82617380D01*
X143768095Y-82569761D01*
X143720476Y-82522142D01*
X140458571Y-88967380D02*
X140458571Y-87967380D01*
X141030000Y-88967380D02*
X140601428Y-88395952D01*
X141030000Y-87967380D02*
X140458571Y-88538809D01*
X141410952Y-88919761D02*
X141553809Y-88967380D01*
X141791904Y-88967380D01*
X141887142Y-88919761D01*
X141934761Y-88872142D01*
X141982380Y-88776904D01*
X141982380Y-88681666D01*
X141934761Y-88586428D01*
X141887142Y-88538809D01*
X141791904Y-88491190D01*
X141601428Y-88443571D01*
X141506190Y-88395952D01*
X141458571Y-88348333D01*
X141410952Y-88253095D01*
X141410952Y-88157857D01*
X141458571Y-88062619D01*
X141506190Y-88015000D01*
X141601428Y-87967380D01*
X141839523Y-87967380D01*
X141982380Y-88015000D01*
X142363333Y-88681666D02*
X142839523Y-88681666D01*
X142268095Y-88967380D02*
X142601428Y-87967380D01*
X142934761Y-88967380D01*
X143791904Y-88967380D02*
X143220476Y-88967380D01*
X143506190Y-88967380D02*
X143506190Y-87967380D01*
X143410952Y-88110238D01*
X143315714Y-88205476D01*
X143220476Y-88253095D01*
X144410952Y-87967380D02*
X144506190Y-87967380D01*
X144601428Y-88015000D01*
X144649047Y-88062619D01*
X144696666Y-88157857D01*
X144744285Y-88348333D01*
X144744285Y-88586428D01*
X144696666Y-88776904D01*
X144649047Y-88872142D01*
X144601428Y-88919761D01*
X144506190Y-88967380D01*
X144410952Y-88967380D01*
X144315714Y-88919761D01*
X144268095Y-88872142D01*
X144220476Y-88776904D01*
X144172857Y-88586428D01*
X144172857Y-88348333D01*
X144220476Y-88157857D01*
X144268095Y-88062619D01*
X144315714Y-88015000D01*
X144410952Y-87967380D01*
X145696666Y-88967380D02*
X145125238Y-88967380D01*
X145410952Y-88967380D02*
X145410952Y-87967380D01*
X145315714Y-88110238D01*
X145220476Y-88205476D01*
X145125238Y-88253095D01*
X146030000Y-87967380D02*
X146649047Y-87967380D01*
X146315714Y-88348333D01*
X146458571Y-88348333D01*
X146553809Y-88395952D01*
X146601428Y-88443571D01*
X146649047Y-88538809D01*
X146649047Y-88776904D01*
X146601428Y-88872142D01*
X146553809Y-88919761D01*
X146458571Y-88967380D01*
X146172857Y-88967380D01*
X146077619Y-88919761D01*
X146030000Y-88872142D01*
%TO.C,R1*%
X112863333Y-108657380D02*
X112530000Y-108181190D01*
X112291904Y-108657380D02*
X112291904Y-107657380D01*
X112672857Y-107657380D01*
X112768095Y-107705000D01*
X112815714Y-107752619D01*
X112863333Y-107847857D01*
X112863333Y-107990714D01*
X112815714Y-108085952D01*
X112768095Y-108133571D01*
X112672857Y-108181190D01*
X112291904Y-108181190D01*
X113815714Y-108657380D02*
X113244285Y-108657380D01*
X113530000Y-108657380D02*
X113530000Y-107657380D01*
X113434761Y-107800238D01*
X113339523Y-107895476D01*
X113244285Y-107943095D01*
X112363333Y-114497380D02*
X111791904Y-114497380D01*
X112077619Y-114497380D02*
X112077619Y-113497380D01*
X111982380Y-113640238D01*
X111887142Y-113735476D01*
X111791904Y-113783095D01*
X112982380Y-113497380D02*
X113077619Y-113497380D01*
X113172857Y-113545000D01*
X113220476Y-113592619D01*
X113268095Y-113687857D01*
X113315714Y-113878333D01*
X113315714Y-114116428D01*
X113268095Y-114306904D01*
X113220476Y-114402142D01*
X113172857Y-114449761D01*
X113077619Y-114497380D01*
X112982380Y-114497380D01*
X112887142Y-114449761D01*
X112839523Y-114402142D01*
X112791904Y-114306904D01*
X112744285Y-114116428D01*
X112744285Y-113878333D01*
X112791904Y-113687857D01*
X112839523Y-113592619D01*
X112887142Y-113545000D01*
X112982380Y-113497380D01*
X113934761Y-113497380D02*
X114030000Y-113497380D01*
X114125238Y-113545000D01*
X114172857Y-113592619D01*
X114220476Y-113687857D01*
X114268095Y-113878333D01*
X114268095Y-114116428D01*
X114220476Y-114306904D01*
X114172857Y-114402142D01*
X114125238Y-114449761D01*
X114030000Y-114497380D01*
X113934761Y-114497380D01*
X113839523Y-114449761D01*
X113791904Y-114402142D01*
X113744285Y-114306904D01*
X113696666Y-114116428D01*
X113696666Y-113878333D01*
X113744285Y-113687857D01*
X113791904Y-113592619D01*
X113839523Y-113545000D01*
X113934761Y-113497380D01*
%TO.C,R2*%
X123897380Y-105576666D02*
X123421190Y-105910000D01*
X123897380Y-106148095D02*
X122897380Y-106148095D01*
X122897380Y-105767142D01*
X122945000Y-105671904D01*
X122992619Y-105624285D01*
X123087857Y-105576666D01*
X123230714Y-105576666D01*
X123325952Y-105624285D01*
X123373571Y-105671904D01*
X123421190Y-105767142D01*
X123421190Y-106148095D01*
X122992619Y-105195714D02*
X122945000Y-105148095D01*
X122897380Y-105052857D01*
X122897380Y-104814761D01*
X122945000Y-104719523D01*
X122992619Y-104671904D01*
X123087857Y-104624285D01*
X123183095Y-104624285D01*
X123325952Y-104671904D01*
X123897380Y-105243333D01*
X123897380Y-104624285D01*
X128737380Y-107195714D02*
X128737380Y-106576666D01*
X129118333Y-106910000D01*
X129118333Y-106767142D01*
X129165952Y-106671904D01*
X129213571Y-106624285D01*
X129308809Y-106576666D01*
X129546904Y-106576666D01*
X129642142Y-106624285D01*
X129689761Y-106671904D01*
X129737380Y-106767142D01*
X129737380Y-107052857D01*
X129689761Y-107148095D01*
X129642142Y-107195714D01*
X128737380Y-106243333D02*
X128737380Y-105624285D01*
X129118333Y-105957619D01*
X129118333Y-105814761D01*
X129165952Y-105719523D01*
X129213571Y-105671904D01*
X129308809Y-105624285D01*
X129546904Y-105624285D01*
X129642142Y-105671904D01*
X129689761Y-105719523D01*
X129737380Y-105814761D01*
X129737380Y-106100476D01*
X129689761Y-106195714D01*
X129642142Y-106243333D01*
X128737380Y-105005238D02*
X128737380Y-104910000D01*
X128785000Y-104814761D01*
X128832619Y-104767142D01*
X128927857Y-104719523D01*
X129118333Y-104671904D01*
X129356428Y-104671904D01*
X129546904Y-104719523D01*
X129642142Y-104767142D01*
X129689761Y-104814761D01*
X129737380Y-104910000D01*
X129737380Y-105005238D01*
X129689761Y-105100476D01*
X129642142Y-105148095D01*
X129546904Y-105195714D01*
X129356428Y-105243333D01*
X129118333Y-105243333D01*
X128927857Y-105195714D01*
X128832619Y-105148095D01*
X128785000Y-105100476D01*
X128737380Y-105005238D01*
X129737380Y-104243333D02*
X128737380Y-104243333D01*
X129737380Y-103671904D02*
X129165952Y-104100476D01*
X128737380Y-103671904D02*
X129308809Y-104243333D01*
%TO.C,R3*%
X124293333Y-89097380D02*
X123960000Y-88621190D01*
X123721904Y-89097380D02*
X123721904Y-88097380D01*
X124102857Y-88097380D01*
X124198095Y-88145000D01*
X124245714Y-88192619D01*
X124293333Y-88287857D01*
X124293333Y-88430714D01*
X124245714Y-88525952D01*
X124198095Y-88573571D01*
X124102857Y-88621190D01*
X123721904Y-88621190D01*
X124626666Y-88097380D02*
X125245714Y-88097380D01*
X124912380Y-88478333D01*
X125055238Y-88478333D01*
X125150476Y-88525952D01*
X125198095Y-88573571D01*
X125245714Y-88668809D01*
X125245714Y-88906904D01*
X125198095Y-89002142D01*
X125150476Y-89049761D01*
X125055238Y-89097380D01*
X124769523Y-89097380D01*
X124674285Y-89049761D01*
X124626666Y-89002142D01*
X123769523Y-83257380D02*
X123198095Y-83257380D01*
X123483809Y-83257380D02*
X123483809Y-82257380D01*
X123388571Y-82400238D01*
X123293333Y-82495476D01*
X123198095Y-82543095D01*
X124388571Y-82257380D02*
X124483809Y-82257380D01*
X124579047Y-82305000D01*
X124626666Y-82352619D01*
X124674285Y-82447857D01*
X124721904Y-82638333D01*
X124721904Y-82876428D01*
X124674285Y-83066904D01*
X124626666Y-83162142D01*
X124579047Y-83209761D01*
X124483809Y-83257380D01*
X124388571Y-83257380D01*
X124293333Y-83209761D01*
X124245714Y-83162142D01*
X124198095Y-83066904D01*
X124150476Y-82876428D01*
X124150476Y-82638333D01*
X124198095Y-82447857D01*
X124245714Y-82352619D01*
X124293333Y-82305000D01*
X124388571Y-82257380D01*
X125150476Y-83257380D02*
X125150476Y-82257380D01*
X125721904Y-83257380D02*
X125293333Y-82685952D01*
X125721904Y-82257380D02*
X125150476Y-82828809D01*
%TO.C,R4*%
X143343333Y-80842380D02*
X143010000Y-80366190D01*
X142771904Y-80842380D02*
X142771904Y-79842380D01*
X143152857Y-79842380D01*
X143248095Y-79890000D01*
X143295714Y-79937619D01*
X143343333Y-80032857D01*
X143343333Y-80175714D01*
X143295714Y-80270952D01*
X143248095Y-80318571D01*
X143152857Y-80366190D01*
X142771904Y-80366190D01*
X144200476Y-80175714D02*
X144200476Y-80842380D01*
X143962380Y-79794761D02*
X143724285Y-80509047D01*
X144343333Y-80509047D01*
X142200476Y-74002380D02*
X142819523Y-74002380D01*
X142486190Y-74383333D01*
X142629047Y-74383333D01*
X142724285Y-74430952D01*
X142771904Y-74478571D01*
X142819523Y-74573809D01*
X142819523Y-74811904D01*
X142771904Y-74907142D01*
X142724285Y-74954761D01*
X142629047Y-75002380D01*
X142343333Y-75002380D01*
X142248095Y-74954761D01*
X142200476Y-74907142D01*
X143295714Y-75002380D02*
X143486190Y-75002380D01*
X143581428Y-74954761D01*
X143629047Y-74907142D01*
X143724285Y-74764285D01*
X143771904Y-74573809D01*
X143771904Y-74192857D01*
X143724285Y-74097619D01*
X143676666Y-74050000D01*
X143581428Y-74002380D01*
X143390952Y-74002380D01*
X143295714Y-74050000D01*
X143248095Y-74097619D01*
X143200476Y-74192857D01*
X143200476Y-74430952D01*
X143248095Y-74526190D01*
X143295714Y-74573809D01*
X143390952Y-74621428D01*
X143581428Y-74621428D01*
X143676666Y-74573809D01*
X143724285Y-74526190D01*
X143771904Y-74430952D01*
X144200476Y-75002380D02*
X144200476Y-74002380D01*
X144771904Y-75002380D02*
X144343333Y-74430952D01*
X144771904Y-74002380D02*
X144200476Y-74573809D01*
%TO.C,R5*%
X153107380Y-85256666D02*
X152631190Y-85590000D01*
X153107380Y-85828095D02*
X152107380Y-85828095D01*
X152107380Y-85447142D01*
X152155000Y-85351904D01*
X152202619Y-85304285D01*
X152297857Y-85256666D01*
X152440714Y-85256666D01*
X152535952Y-85304285D01*
X152583571Y-85351904D01*
X152631190Y-85447142D01*
X152631190Y-85828095D01*
X152107380Y-84351904D02*
X152107380Y-84828095D01*
X152583571Y-84875714D01*
X152535952Y-84828095D01*
X152488333Y-84732857D01*
X152488333Y-84494761D01*
X152535952Y-84399523D01*
X152583571Y-84351904D01*
X152678809Y-84304285D01*
X152916904Y-84304285D01*
X153012142Y-84351904D01*
X153059761Y-84399523D01*
X153107380Y-84494761D01*
X153107380Y-84732857D01*
X153059761Y-84828095D01*
X153012142Y-84875714D01*
X158042619Y-85851904D02*
X157995000Y-85804285D01*
X157947380Y-85709047D01*
X157947380Y-85470952D01*
X157995000Y-85375714D01*
X158042619Y-85328095D01*
X158137857Y-85280476D01*
X158233095Y-85280476D01*
X158375952Y-85328095D01*
X158947380Y-85899523D01*
X158947380Y-85280476D01*
X158042619Y-84899523D02*
X157995000Y-84851904D01*
X157947380Y-84756666D01*
X157947380Y-84518571D01*
X157995000Y-84423333D01*
X158042619Y-84375714D01*
X158137857Y-84328095D01*
X158233095Y-84328095D01*
X158375952Y-84375714D01*
X158947380Y-84947142D01*
X158947380Y-84328095D01*
%TO.C,R6*%
X156282380Y-103671666D02*
X155806190Y-104005000D01*
X156282380Y-104243095D02*
X155282380Y-104243095D01*
X155282380Y-103862142D01*
X155330000Y-103766904D01*
X155377619Y-103719285D01*
X155472857Y-103671666D01*
X155615714Y-103671666D01*
X155710952Y-103719285D01*
X155758571Y-103766904D01*
X155806190Y-103862142D01*
X155806190Y-104243095D01*
X155282380Y-102814523D02*
X155282380Y-103005000D01*
X155330000Y-103100238D01*
X155377619Y-103147857D01*
X155520476Y-103243095D01*
X155710952Y-103290714D01*
X156091904Y-103290714D01*
X156187142Y-103243095D01*
X156234761Y-103195476D01*
X156282380Y-103100238D01*
X156282380Y-102909761D01*
X156234761Y-102814523D01*
X156187142Y-102766904D01*
X156091904Y-102719285D01*
X155853809Y-102719285D01*
X155758571Y-102766904D01*
X155710952Y-102814523D01*
X155663333Y-102909761D01*
X155663333Y-103100238D01*
X155710952Y-103195476D01*
X155758571Y-103243095D01*
X155853809Y-103290714D01*
X162122380Y-103790714D02*
X162122380Y-104362142D01*
X162122380Y-104076428D02*
X161122380Y-104076428D01*
X161265238Y-104171666D01*
X161360476Y-104266904D01*
X161408095Y-104362142D01*
X162122380Y-103362142D02*
X161122380Y-103362142D01*
X161836666Y-103028809D01*
X161122380Y-102695476D01*
X162122380Y-102695476D01*
%TO.C,RV1*%
X127009761Y-70937380D02*
X126676428Y-70461190D01*
X126438333Y-70937380D02*
X126438333Y-69937380D01*
X126819285Y-69937380D01*
X126914523Y-69985000D01*
X126962142Y-70032619D01*
X127009761Y-70127857D01*
X127009761Y-70270714D01*
X126962142Y-70365952D01*
X126914523Y-70413571D01*
X126819285Y-70461190D01*
X126438333Y-70461190D01*
X127295476Y-69937380D02*
X127628809Y-70937380D01*
X127962142Y-69937380D01*
X128819285Y-70937380D02*
X128247857Y-70937380D01*
X128533571Y-70937380D02*
X128533571Y-69937380D01*
X128438333Y-70080238D01*
X128343095Y-70175476D01*
X128247857Y-70223095D01*
X126468333Y-72842380D02*
X125896904Y-72842380D01*
X126182619Y-72842380D02*
X126182619Y-71842380D01*
X126087380Y-71985238D01*
X125992142Y-72080476D01*
X125896904Y-72128095D01*
X127087380Y-71842380D02*
X127182619Y-71842380D01*
X127277857Y-71890000D01*
X127325476Y-71937619D01*
X127373095Y-72032857D01*
X127420714Y-72223333D01*
X127420714Y-72461428D01*
X127373095Y-72651904D01*
X127325476Y-72747142D01*
X127277857Y-72794761D01*
X127182619Y-72842380D01*
X127087380Y-72842380D01*
X126992142Y-72794761D01*
X126944523Y-72747142D01*
X126896904Y-72651904D01*
X126849285Y-72461428D01*
X126849285Y-72223333D01*
X126896904Y-72032857D01*
X126944523Y-71937619D01*
X126992142Y-71890000D01*
X127087380Y-71842380D01*
X128039761Y-71842380D02*
X128135000Y-71842380D01*
X128230238Y-71890000D01*
X128277857Y-71937619D01*
X128325476Y-72032857D01*
X128373095Y-72223333D01*
X128373095Y-72461428D01*
X128325476Y-72651904D01*
X128277857Y-72747142D01*
X128230238Y-72794761D01*
X128135000Y-72842380D01*
X128039761Y-72842380D01*
X127944523Y-72794761D01*
X127896904Y-72747142D01*
X127849285Y-72651904D01*
X127801666Y-72461428D01*
X127801666Y-72223333D01*
X127849285Y-72032857D01*
X127896904Y-71937619D01*
X127944523Y-71890000D01*
X128039761Y-71842380D01*
X128801666Y-72842380D02*
X128801666Y-71842380D01*
X129373095Y-72842380D02*
X128944523Y-72270952D01*
X129373095Y-71842380D02*
X128801666Y-72413809D01*
%TO.C,J3*%
X167306666Y-70572380D02*
X167306666Y-71286666D01*
X167259047Y-71429523D01*
X167163809Y-71524761D01*
X167020952Y-71572380D01*
X166925714Y-71572380D01*
X167687619Y-70572380D02*
X168306666Y-70572380D01*
X167973333Y-70953333D01*
X168116190Y-70953333D01*
X168211428Y-71000952D01*
X168259047Y-71048571D01*
X168306666Y-71143809D01*
X168306666Y-71381904D01*
X168259047Y-71477142D01*
X168211428Y-71524761D01*
X168116190Y-71572380D01*
X167830476Y-71572380D01*
X167735238Y-71524761D01*
X167687619Y-71477142D01*
X162163809Y-72477380D02*
X162735238Y-72477380D01*
X162449523Y-73477380D02*
X162449523Y-72477380D01*
X163211428Y-73477380D02*
X163116190Y-73429761D01*
X163068571Y-73382142D01*
X163020952Y-73286904D01*
X163020952Y-73001190D01*
X163068571Y-72905952D01*
X163116190Y-72858333D01*
X163211428Y-72810714D01*
X163354285Y-72810714D01*
X163449523Y-72858333D01*
X163497142Y-72905952D01*
X163544761Y-73001190D01*
X163544761Y-73286904D01*
X163497142Y-73382142D01*
X163449523Y-73429761D01*
X163354285Y-73477380D01*
X163211428Y-73477380D01*
X164735238Y-72810714D02*
X164735238Y-73810714D01*
X164735238Y-72858333D02*
X164830476Y-72810714D01*
X165020952Y-72810714D01*
X165116190Y-72858333D01*
X165163809Y-72905952D01*
X165211428Y-73001190D01*
X165211428Y-73286904D01*
X165163809Y-73382142D01*
X165116190Y-73429761D01*
X165020952Y-73477380D01*
X164830476Y-73477380D01*
X164735238Y-73429761D01*
X166068571Y-73477380D02*
X166068571Y-72953571D01*
X166020952Y-72858333D01*
X165925714Y-72810714D01*
X165735238Y-72810714D01*
X165640000Y-72858333D01*
X166068571Y-73429761D02*
X165973333Y-73477380D01*
X165735238Y-73477380D01*
X165640000Y-73429761D01*
X165592380Y-73334523D01*
X165592380Y-73239285D01*
X165640000Y-73144047D01*
X165735238Y-73096428D01*
X165973333Y-73096428D01*
X166068571Y-73048809D01*
X166544761Y-72810714D02*
X166544761Y-73477380D01*
X166544761Y-72905952D02*
X166592380Y-72858333D01*
X166687619Y-72810714D01*
X166830476Y-72810714D01*
X166925714Y-72858333D01*
X166973333Y-72953571D01*
X166973333Y-73477380D01*
X167830476Y-73429761D02*
X167735238Y-73477380D01*
X167544761Y-73477380D01*
X167449523Y-73429761D01*
X167401904Y-73334523D01*
X167401904Y-72953571D01*
X167449523Y-72858333D01*
X167544761Y-72810714D01*
X167735238Y-72810714D01*
X167830476Y-72858333D01*
X167878095Y-72953571D01*
X167878095Y-73048809D01*
X167401904Y-73144047D01*
X168449523Y-73477380D02*
X168354285Y-73429761D01*
X168306666Y-73334523D01*
X168306666Y-72477380D01*
X169592380Y-72810714D02*
X169592380Y-73667857D01*
X169544761Y-73763095D01*
X169449523Y-73810714D01*
X169401904Y-73810714D01*
X169592380Y-72477380D02*
X169544761Y-72525000D01*
X169592380Y-72572619D01*
X169640000Y-72525000D01*
X169592380Y-72477380D01*
X169592380Y-72572619D01*
X170497142Y-73477380D02*
X170497142Y-72953571D01*
X170449523Y-72858333D01*
X170354285Y-72810714D01*
X170163809Y-72810714D01*
X170068571Y-72858333D01*
X170497142Y-73429761D02*
X170401904Y-73477380D01*
X170163809Y-73477380D01*
X170068571Y-73429761D01*
X170020952Y-73334523D01*
X170020952Y-73239285D01*
X170068571Y-73144047D01*
X170163809Y-73096428D01*
X170401904Y-73096428D01*
X170497142Y-73048809D01*
X171401904Y-73429761D02*
X171306666Y-73477380D01*
X171116190Y-73477380D01*
X171020952Y-73429761D01*
X170973333Y-73382142D01*
X170925714Y-73286904D01*
X170925714Y-73001190D01*
X170973333Y-72905952D01*
X171020952Y-72858333D01*
X171116190Y-72810714D01*
X171306666Y-72810714D01*
X171401904Y-72858333D01*
X171830476Y-73477380D02*
X171830476Y-72477380D01*
X171925714Y-73096428D02*
X172211428Y-73477380D01*
X172211428Y-72810714D02*
X171830476Y-73191666D01*
X172592380Y-73429761D02*
X172687619Y-73477380D01*
X172878095Y-73477380D01*
X172973333Y-73429761D01*
X173020952Y-73334523D01*
X173020952Y-73286904D01*
X172973333Y-73191666D01*
X172878095Y-73144047D01*
X172735238Y-73144047D01*
X172640000Y-73096428D01*
X172592380Y-73001190D01*
X172592380Y-72953571D01*
X172640000Y-72858333D01*
X172735238Y-72810714D01*
X172878095Y-72810714D01*
X172973333Y-72858333D01*
%TO.C,J2*%
X150766666Y-70572380D02*
X150766666Y-71286666D01*
X150719047Y-71429523D01*
X150623809Y-71524761D01*
X150480952Y-71572380D01*
X150385714Y-71572380D01*
X151195238Y-70667619D02*
X151242857Y-70620000D01*
X151338095Y-70572380D01*
X151576190Y-70572380D01*
X151671428Y-70620000D01*
X151719047Y-70667619D01*
X151766666Y-70762857D01*
X151766666Y-70858095D01*
X151719047Y-71000952D01*
X151147619Y-71572380D01*
X151766666Y-71572380D01*
X146391904Y-72477380D02*
X146963333Y-72477380D01*
X146677619Y-73477380D02*
X146677619Y-72477380D01*
X147439523Y-73477380D02*
X147344285Y-73429761D01*
X147296666Y-73382142D01*
X147249047Y-73286904D01*
X147249047Y-73001190D01*
X147296666Y-72905952D01*
X147344285Y-72858333D01*
X147439523Y-72810714D01*
X147582380Y-72810714D01*
X147677619Y-72858333D01*
X147725238Y-72905952D01*
X147772857Y-73001190D01*
X147772857Y-73286904D01*
X147725238Y-73382142D01*
X147677619Y-73429761D01*
X147582380Y-73477380D01*
X147439523Y-73477380D01*
X149534761Y-73382142D02*
X149487142Y-73429761D01*
X149344285Y-73477380D01*
X149249047Y-73477380D01*
X149106190Y-73429761D01*
X149010952Y-73334523D01*
X148963333Y-73239285D01*
X148915714Y-73048809D01*
X148915714Y-72905952D01*
X148963333Y-72715476D01*
X149010952Y-72620238D01*
X149106190Y-72525000D01*
X149249047Y-72477380D01*
X149344285Y-72477380D01*
X149487142Y-72525000D01*
X149534761Y-72572619D01*
X149963333Y-73096428D02*
X150725238Y-73096428D01*
X151963333Y-73477380D02*
X151963333Y-72810714D01*
X151963333Y-72905952D02*
X152010952Y-72858333D01*
X152106190Y-72810714D01*
X152249047Y-72810714D01*
X152344285Y-72858333D01*
X152391904Y-72953571D01*
X152391904Y-73477380D01*
X152391904Y-72953571D02*
X152439523Y-72858333D01*
X152534761Y-72810714D01*
X152677619Y-72810714D01*
X152772857Y-72858333D01*
X152820476Y-72953571D01*
X152820476Y-73477380D01*
X153677619Y-73429761D02*
X153582380Y-73477380D01*
X153391904Y-73477380D01*
X153296666Y-73429761D01*
X153249047Y-73334523D01*
X153249047Y-72953571D01*
X153296666Y-72858333D01*
X153391904Y-72810714D01*
X153582380Y-72810714D01*
X153677619Y-72858333D01*
X153725238Y-72953571D01*
X153725238Y-73048809D01*
X153249047Y-73144047D01*
X154010952Y-72810714D02*
X154391904Y-72810714D01*
X154153809Y-72477380D02*
X154153809Y-73334523D01*
X154201428Y-73429761D01*
X154296666Y-73477380D01*
X154391904Y-73477380D01*
X155106190Y-73429761D02*
X155010952Y-73477380D01*
X154820476Y-73477380D01*
X154725238Y-73429761D01*
X154677619Y-73334523D01*
X154677619Y-72953571D01*
X154725238Y-72858333D01*
X154820476Y-72810714D01*
X155010952Y-72810714D01*
X155106190Y-72858333D01*
X155153809Y-72953571D01*
X155153809Y-73048809D01*
X154677619Y-73144047D01*
X155582380Y-73477380D02*
X155582380Y-72810714D01*
X155582380Y-73001190D02*
X155630000Y-72905952D01*
X155677619Y-72858333D01*
X155772857Y-72810714D01*
X155868095Y-72810714D01*
%TD*%
M02*
