M48
; DRILL file {KiCad (5.1.12-1-10_14)} date Sunday, January 02, 2022 at 10:15:06 AM
; FORMAT={-:-/ absolute / inch / decimal}
; #@! TF.CreationDate,2022-01-02T10:15:06-08:00
; #@! TF.GenerationSoftware,Kicad,Pcbnew,(5.1.12-1-10_14)
; #@! TF.FileFunction,Plated,1,2,PTH
FMAT,2
INCH
T1C0.0295
T2C0.0315
T3C0.0433
T4C0.0472
T5C0.0512
T6C0.0598
T7C0.0689
%
G90
G05
T1
X5.6Y-3.375
X5.6504Y-3.325
X5.7Y-3.375
T2
X4.15Y-2.975
X4.15Y-3.275
X4.35Y-2.975
X4.35Y-3.275
X5.5Y-2.625
X5.5Y-2.725
T3
X4.925Y-3.65
X5.325Y-3.65
X5.475Y-3.65
X5.475Y-3.925
X5.725Y-4.325
X5.725Y-5.05
X5.825Y-4.325
X5.825Y-5.05
X5.875Y-3.65
X5.875Y-3.925
X5.925Y-4.325
X5.925Y-5.05
X6.525Y-3.85
X6.525Y-4.25
T4
X4.15Y-4.375
X4.425Y-3.6797
X4.425Y-3.975
X4.45Y-4.7297
X4.45Y-5.025
X4.6Y-3.375
X4.75Y-4.375
X4.975Y-3.85
X4.975Y-4.45
X5.2Y-3.375
X5.35Y-3.05
X5.95Y-3.05
X6.125Y-3.05
X6.125Y-3.65
X6.25Y-3.775
X6.25Y-4.375
X6.6Y-3.05
X6.6Y-3.6406
T5
X4.6Y-3.05
X5.2Y-3.05
T6
X4.175Y-2.525
X4.375Y-2.525
X4.825Y-2.525
X5.025Y-2.525
X5.225Y-2.525
X5.75Y-2.525
X5.95Y-2.525
X6.15Y-2.525
X6.5Y-2.525
X6.7Y-2.525
T7
X5.825Y-4.15
T0
M30
