M48
;DRILL file {KiCad 4.0.7} date Tuesday, March 20, 2018 'PMt' 03:31:44 PM
;FORMAT={-:-/ absolute / metric / decimal}
FMAT,2
METRIC,TZ
T1C0.750
T2C1.200
T3C1.520
T4C3.048
%
G90
G05
M71
T1
X146.94Y-84.427
X147.257Y-87.04
X147.874Y-81.966
X148.753Y-89.207
X149.844Y-80.22
X151.084Y-90.43
X152.4Y-79.59
X153.716Y-90.43
X154.956Y-80.22
X156.047Y-89.207
X156.926Y-81.966
X157.543Y-87.04
X157.86Y-84.427
T2
X144.78Y-71.12
X160.02Y-71.12
T3
X137.16Y-63.5
X137.16Y-71.12
X137.16Y-76.2
X137.16Y-81.28
X142.24Y-63.5
X147.32Y-63.5
X152.4Y-63.5
X157.48Y-63.5
X162.56Y-63.5
X167.64Y-63.5
X167.64Y-71.12
X167.64Y-76.2
X167.64Y-81.28
T4
X130.81Y-58.42
X130.81Y-92.71
X173.99Y-58.42
X173.99Y-92.71
T0
M30
