G04 #@! TF.FileFunction,Copper,L1,Top,Signal*
%FSLAX46Y46*%
G04 Gerber Fmt 4.6, Leading zero omitted, Abs format (unit mm)*
G04 Created by KiCad (PCBNEW 4.0.7) date Tuesday, March 20, 2018 'PMt' 03:31:39 PM*
%MOMM*%
%LPD*%
G01*
G04 APERTURE LIST*
%ADD10C,0.100000*%
%ADD11C,4.064000*%
%ADD12R,3.000000X3.000000*%
%ADD13C,3.000000*%
%ADD14O,1.500000X1.500000*%
%ADD15C,2.400000*%
%ADD16O,2.400000X2.400000*%
%ADD17C,0.250000*%
G04 APERTURE END LIST*
D10*
D11*
X130810000Y-58420000D03*
X130810000Y-92710000D03*
X173990000Y-92710000D03*
D12*
X137160000Y-71120000D03*
D13*
X137160000Y-76200000D03*
X137160000Y-81280000D03*
D12*
X167640000Y-81280000D03*
D13*
X167640000Y-76200000D03*
X167640000Y-71120000D03*
D12*
X167640000Y-63500000D03*
D13*
X162560000Y-63500000D03*
X157480000Y-63500000D03*
D12*
X152400000Y-63500000D03*
D13*
X147320000Y-63500000D03*
D12*
X142240000Y-63500000D03*
D13*
X137160000Y-63500000D03*
D14*
X152400000Y-79590000D03*
X149844023Y-80219992D03*
X147873589Y-81965644D03*
X146940102Y-84427049D03*
X147257411Y-87040326D03*
X148752826Y-89206809D03*
X151083764Y-90430179D03*
X153716236Y-90430179D03*
X156047174Y-89206809D03*
X157542589Y-87040326D03*
X157859898Y-84427049D03*
X156926411Y-81965644D03*
X154955977Y-80219992D03*
D15*
X144780000Y-71120000D03*
D16*
X160020000Y-71120000D03*
D11*
X173990000Y-58420000D03*
D17*
X137160000Y-71120000D02*
X137160000Y-71252055D01*
X137160000Y-71252055D02*
X147873589Y-81965644D01*
X137160000Y-76200000D02*
X138713053Y-76200000D01*
X138713053Y-76200000D02*
X146940102Y-84427049D01*
X137160000Y-81280000D02*
X141497085Y-81280000D01*
X141497085Y-81280000D02*
X147257411Y-87040326D01*
X167640000Y-81280000D02*
X167640000Y-87630000D01*
X148752826Y-91602826D02*
X148752826Y-89206809D01*
X151130000Y-93980000D02*
X148752826Y-91602826D01*
X161290000Y-93980000D02*
X151130000Y-93980000D01*
X167640000Y-87630000D02*
X161290000Y-93980000D01*
X167640000Y-76200000D02*
X163830000Y-80010000D01*
X153363585Y-92710000D02*
X151083764Y-90430179D01*
X160020000Y-92710000D02*
X153363585Y-92710000D01*
X163830000Y-88900000D02*
X160020000Y-92710000D01*
X163830000Y-80010000D02*
X163830000Y-88900000D01*
X167640000Y-71120000D02*
X162560000Y-76200000D01*
X154726057Y-91440000D02*
X153716236Y-90430179D01*
X157480000Y-91440000D02*
X154726057Y-91440000D01*
X161290000Y-87630000D02*
X157480000Y-91440000D01*
X161290000Y-77470000D02*
X161290000Y-87630000D01*
X162560000Y-76200000D02*
X161290000Y-77470000D01*
X167640000Y-71120000D02*
X167640000Y-72390000D01*
X142240000Y-63500000D02*
X148590000Y-69850000D01*
X148590000Y-78965969D02*
X149844023Y-80219992D01*
X148590000Y-69850000D02*
X148590000Y-78965969D01*
X137160000Y-63500000D02*
X144780000Y-71120000D01*
X160020000Y-71120000D02*
X160020000Y-71970000D01*
X160020000Y-71970000D02*
X152400000Y-79590000D01*
M02*
