M48
; DRILL file {KiCad (5.1.4-0-10_14)} date Wednesday, October 30, 2019 at 10:31:46 AM
; FORMAT={-:-/ absolute / inch / decimal}
; #@! TF.CreationDate,2019-10-30T10:31:46-07:00
; #@! TF.GenerationSoftware,Kicad,Pcbnew,(5.1.4-0-10_14)
; #@! TF.FileFunction,Plated,1,2,PTH
FMAT,2
INCH
T1C0.0157
T2C0.0276
T3C0.0295
T4C0.0315
T5C0.0354
T6C0.0394
T7C0.0472
%
G90
G05
T1
X3.5354Y-5.0197
X3.7126Y-5.0197
X4.811Y-3.8898
X4.9921Y-4.8307
X5.563Y-5.2835
X5.6339Y-5.1732
X5.8543Y-3.811
X6.2913Y-3.811
X6.4331Y-4.2913
X6.5276Y-4.3228
X6.5591Y-4.8228
X6.752Y-5.0551
X6.9016Y-3.6841
X6.9134Y-5.0945
X6.9567Y-4.9567
X7.1535Y-5.0551
X7.1575Y-3.9921
X7.1575Y-5.0079
X7.2008Y-4.2913
X7.2559Y-5.1339
X7.2913Y-3.8386
X7.2992Y-4.311
X8.0157Y-3.7205
T2
X5.2055Y-4.6535
X5.4055Y-4.6535
X5.0177Y-3.8811
X5.0177Y-4.0811
X3.5236Y-4.2047
X3.7236Y-4.2047
X5.0177Y-4.2783
X5.0177Y-4.4783
X5.2067Y-4.752
X5.4067Y-4.752
X6.4606Y-3.81
X6.4606Y-4.01
X4.7667Y-5.1457
X4.9667Y-5.1457
X4.8199Y-4.1831
X5.0199Y-4.1831
X6.6476Y-3.8098
X6.6476Y-4.0098
X6.7411Y-3.8098
X6.7411Y-4.0098
X3.812Y-3.9075
X3.812Y-4.1075
X6.2638Y-4.4921
X4.7675Y-5.2421
X6.0638Y-4.4921
X4.9675Y-5.2421
X4.9281Y-3.8807
X4.9281Y-4.0807
X3.5236Y-3.811
X3.7236Y-3.811
X6.5551Y-3.81
X6.5551Y-4.01
T3
X4.7077Y-3.998
X4.7577Y-3.948
X4.8077Y-3.998
X6.3445Y-5.4075
X6.3945Y-5.3575
X6.4445Y-5.4075
T4
X4.9528Y-4.6535
X4.9528Y-4.752
X4.1181Y-3.5984
X4.2165Y-3.5984
X4.7559Y-4.6496
X4.7559Y-4.748
X5.9646Y-5.5
X6.063Y-5.5
X4.8248Y-5.4872
X4.9232Y-5.4872
X6.3248Y-4.7512
X6.3248Y-5.0512
X6.6248Y-4.7512
X6.6248Y-5.0512
X6.9193Y-3.7795
X6.9193Y-3.878
X4.3819Y-3.8002
X4.3819Y-3.8986
X5.763Y-5.0583
X6.063Y-5.0583
X5.622Y-5.0384
X5.763Y-5.3583
X5.5236Y-5.0384
X5.763Y-5.1583
X5.763Y-5.2583
X6.063Y-5.1583
X6.063Y-5.2583
X6.063Y-5.3583
X4.8238Y-5.0295
X5.3829Y-5.4433
X6.8583Y-4.7504
X6.8583Y-5.3504
X6.9583Y-4.7504
X6.9583Y-5.3504
X7.0583Y-4.7504
X7.0583Y-5.3504
X7.1583Y-4.7504
X7.1583Y-5.3504
X7.2583Y-4.7504
X7.2583Y-5.3504
X7.3583Y-4.7504
X7.3583Y-5.3504
X7.4583Y-4.7504
X7.4583Y-5.3504
X7.5583Y-4.7504
X7.5583Y-5.3504
X7.6583Y-4.7504
X7.6583Y-5.3504
X7.7583Y-4.7504
X7.7583Y-5.3504
X7.8583Y-4.7504
X7.8583Y-5.3504
X7.9583Y-4.7504
X7.9583Y-5.3504
X5.0829Y-4.9433
X5.0829Y-5.1433
X5.0829Y-5.2433
X5.3829Y-5.2433
X5.3829Y-5.5433
X6.8661Y-4.4134
X6.8661Y-4.5118
X5.0829Y-5.0433
X5.0829Y-5.5433
X5.3829Y-5.3433
X4.9222Y-5.0295
X5.0829Y-5.3433
X5.0829Y-5.4433
X5.3829Y-4.9433
X5.3829Y-5.0433
X5.3829Y-5.1433
X7.0551Y-3.763
X7.0551Y-4.063
X7.1551Y-3.763
X7.1551Y-4.063
X7.2551Y-3.763
X7.2551Y-4.063
X7.3551Y-3.763
X7.3551Y-4.063
X7.4551Y-3.763
X7.4551Y-4.063
X7.5551Y-3.763
X7.5551Y-4.063
X7.6551Y-3.763
X7.6551Y-4.063
X7.7551Y-3.763
X7.7551Y-4.063
X7.8551Y-3.763
X7.8551Y-4.063
X7.9551Y-3.763
X7.9551Y-4.063
X5.2539Y-4.5354
X5.3524Y-4.5354
X4.8238Y-4.8986
X4.9222Y-4.8986
X4.8248Y-5.3573
X4.9232Y-5.3573
X4.8041Y-4.3002
X4.9026Y-4.3002
X5.0886Y-4.6535
X5.0886Y-4.752
X6.7165Y-5.4843
X6.7165Y-5.5827
X6.4323Y-4.2126
X6.4323Y-4.5126
X6.5323Y-4.2126
X6.5323Y-4.5126
X6.6323Y-4.2126
X6.6323Y-4.5126
X6.7323Y-4.2126
X6.7323Y-4.5126
X6.7165Y-5.252
X6.7165Y-5.3504
X4.5728Y-3.8189
X4.5728Y-3.9173
T5
X3.7874Y-4.8724
X3.7874Y-4.9724
X3.7874Y-5.0724
X3.437Y-4.8724
X3.437Y-4.9724
X3.437Y-5.0724
X3.6142Y-4.8724
X3.6142Y-4.9724
X3.6142Y-5.0724
T6
X4.9512Y-3.5984
X5.0512Y-3.5984
X6.2323Y-4.2268
X6.2323Y-4.3268
X5.8484Y-3.5398
X5.8484Y-3.6398
X5.9484Y-3.5398
X5.9484Y-3.6398
X6.0484Y-3.5398
X6.0484Y-3.6398
X6.1484Y-3.5398
X6.1484Y-3.6398
X6.2484Y-3.5398
X6.2484Y-3.6398
X6.3484Y-3.5398
X6.3484Y-3.6398
X6.4484Y-3.5398
X6.4484Y-3.6398
X6.5484Y-3.5398
X6.5484Y-3.6398
X6.6484Y-3.5398
X6.6484Y-3.6398
X6.7484Y-3.5398
X6.7484Y-3.6398
X6.8484Y-3.5398
X6.8484Y-3.6398
X6.9484Y-3.5398
X6.9484Y-3.6398
X7.0484Y-3.5398
X7.0484Y-3.6398
X7.1484Y-3.5398
X7.1484Y-3.6398
X7.2484Y-3.5398
X7.2484Y-3.6398
X7.3484Y-3.5398
X7.3484Y-3.6398
X7.4484Y-3.5398
X7.4484Y-3.6398
X7.5484Y-3.5398
X7.5484Y-3.6398
X7.6484Y-3.5398
X7.6484Y-3.6398
X7.7484Y-3.5398
X7.7484Y-3.6398
X5.2252Y-3.5984
X5.3252Y-3.5984
X5.4252Y-3.5984
X4.5677Y-3.5984
X4.6677Y-3.5984
X4.7677Y-3.5984
T7
X3.1181Y-4.0079
X4.0837Y-4.0797
X4.4547Y-4.0797
X4.4547Y-5.064
X3.6142Y-5.4705
X4.5984Y-5.4705
X3.315Y-3.811
X3.315Y-4.2047
X4.0837Y-5.064
T0
M30
