G04 #@! TF.GenerationSoftware,KiCad,Pcbnew,(5.1.4-0-10_14)*
G04 #@! TF.CreationDate,2019-10-30T10:31:09-07:00*
G04 #@! TF.ProjectId,RAdLib,5241644c-6962-42e6-9b69-6361645f7063,1.0*
G04 #@! TF.SameCoordinates,Original*
G04 #@! TF.FileFunction,Copper,L2,Bot*
G04 #@! TF.FilePolarity,Positive*
%FSLAX46Y46*%
G04 Gerber Fmt 4.6, Leading zero omitted, Abs format (unit mm)*
G04 Created by KiCad (PCBNEW (5.1.4-0-10_14)) date 2019-10-30 10:31:09*
%MOMM*%
%LPD*%
G04 APERTURE LIST*
%ADD10O,1.600000X1.600000*%
%ADD11R,1.600000X1.600000*%
%ADD12O,1.400000X1.400000*%
%ADD13C,1.400000*%
%ADD14C,1.524000*%
%ADD15O,1.700000X1.700000*%
%ADD16R,1.700000X1.700000*%
%ADD17C,1.600000*%
%ADD18R,2.400000X2.400000*%
%ADD19O,2.400000X2.400000*%
%ADD20C,1.800000*%
%ADD21C,0.100000*%
%ADD22C,1.100000*%
%ADD23R,1.100000X1.800000*%
%ADD24C,0.800000*%
%ADD25C,0.350000*%
%ADD26C,0.250000*%
%ADD27C,0.254000*%
G04 APERTURE END LIST*
D10*
X129105000Y-140800000D03*
X136725000Y-125560000D03*
X129105000Y-138260000D03*
X136725000Y-128100000D03*
X129105000Y-135720000D03*
X136725000Y-130640000D03*
X129105000Y-133180000D03*
X136725000Y-133180000D03*
X129105000Y-130640000D03*
X136725000Y-135720000D03*
X129105000Y-128100000D03*
X136725000Y-138260000D03*
X129105000Y-125560000D03*
D11*
X136725000Y-140800000D03*
D12*
X166500000Y-101855000D03*
D13*
X166500000Y-96775000D03*
D14*
X96200000Y-126300000D03*
X96200000Y-128840000D03*
X96200000Y-123760000D03*
X91800000Y-126300000D03*
X91800000Y-128840000D03*
X91800000Y-123760000D03*
D15*
X125760000Y-91400000D03*
D16*
X128300000Y-91400000D03*
D15*
X132720000Y-91400000D03*
X135260000Y-91400000D03*
D16*
X137800000Y-91400000D03*
D15*
X116020000Y-91400000D03*
X118560000Y-91400000D03*
D16*
X121100000Y-91400000D03*
D14*
X87300000Y-123760000D03*
X87300000Y-128840000D03*
X87300000Y-126300000D03*
D11*
X174200000Y-135900000D03*
D10*
X202140000Y-120660000D03*
X176740000Y-135900000D03*
X199600000Y-120660000D03*
X179280000Y-135900000D03*
X197060000Y-120660000D03*
X181820000Y-135900000D03*
X194520000Y-120660000D03*
X184360000Y-135900000D03*
X191980000Y-120660000D03*
X186900000Y-135900000D03*
X189440000Y-120660000D03*
X189440000Y-135900000D03*
X186900000Y-120660000D03*
X191980000Y-135900000D03*
X184360000Y-120660000D03*
X194520000Y-135900000D03*
X181820000Y-120660000D03*
X197060000Y-135900000D03*
X179280000Y-120660000D03*
X199600000Y-135900000D03*
X176740000Y-120660000D03*
X202140000Y-135900000D03*
X174200000Y-120660000D03*
D16*
X148550000Y-92450000D03*
D15*
X148550000Y-89910000D03*
X151090000Y-92450000D03*
X151090000Y-89910000D03*
X153630000Y-92450000D03*
X153630000Y-89910000D03*
X156170000Y-92450000D03*
X156170000Y-89910000D03*
X158710000Y-92450000D03*
X158710000Y-89910000D03*
X161250000Y-92450000D03*
X161250000Y-89910000D03*
X163790000Y-92450000D03*
X163790000Y-89910000D03*
X166330000Y-92450000D03*
X166330000Y-89910000D03*
X168870000Y-92450000D03*
X168870000Y-89910000D03*
X171410000Y-92450000D03*
X171410000Y-89910000D03*
X173950000Y-92450000D03*
X173950000Y-89910000D03*
X176490000Y-92450000D03*
X176490000Y-89910000D03*
X179030000Y-92450000D03*
X179030000Y-89910000D03*
X181570000Y-92450000D03*
X181570000Y-89910000D03*
X184110000Y-92450000D03*
X184110000Y-89910000D03*
X186650000Y-92450000D03*
X186650000Y-89910000D03*
X189190000Y-92450000D03*
X189190000Y-89910000D03*
X191730000Y-92450000D03*
X191730000Y-89910000D03*
X194270000Y-92450000D03*
X194270000Y-89910000D03*
X196810000Y-92450000D03*
X196810000Y-89910000D03*
D12*
X171225000Y-96770000D03*
D13*
X171225000Y-101850000D03*
X168850000Y-101850000D03*
D12*
X168850000Y-96770000D03*
D11*
X154000000Y-136100000D03*
D10*
X146380000Y-128480000D03*
X154000000Y-133560000D03*
X146380000Y-131020000D03*
X154000000Y-131020000D03*
X146380000Y-133560000D03*
X154000000Y-128480000D03*
X146380000Y-136100000D03*
D11*
X179200000Y-103200000D03*
D10*
X202060000Y-95580000D03*
X181740000Y-103200000D03*
X199520000Y-95580000D03*
X184280000Y-103200000D03*
X196980000Y-95580000D03*
X186820000Y-103200000D03*
X194440000Y-95580000D03*
X189360000Y-103200000D03*
X191900000Y-95580000D03*
X191900000Y-103200000D03*
X189360000Y-95580000D03*
X194440000Y-103200000D03*
X186820000Y-95580000D03*
X196980000Y-103200000D03*
X184280000Y-95580000D03*
X199520000Y-103200000D03*
X181740000Y-95580000D03*
X202060000Y-103200000D03*
X179200000Y-95580000D03*
X171000000Y-114620000D03*
X163380000Y-107000000D03*
X168460000Y-114620000D03*
X165920000Y-107000000D03*
X165920000Y-114620000D03*
X168460000Y-107000000D03*
X163380000Y-114620000D03*
D11*
X171000000Y-107000000D03*
D17*
X170600000Y-133400000D03*
X170600000Y-135900000D03*
X154000000Y-139700000D03*
X151500000Y-139700000D03*
X175750000Y-96000000D03*
X175750000Y-98500000D03*
X174400000Y-112100000D03*
X174400000Y-114600000D03*
D18*
X103725000Y-128625000D03*
D19*
X103725000Y-103625000D03*
D20*
X79200000Y-101800000D03*
X84200000Y-106800000D03*
X84200000Y-96800000D03*
D12*
X94580000Y-106800000D03*
D13*
X89500000Y-106800000D03*
X89500000Y-96800000D03*
D12*
X94580000Y-96800000D03*
D11*
X170600000Y-139300000D03*
D17*
X170600000Y-141800000D03*
D16*
X158300000Y-109900000D03*
D15*
X158300000Y-107360000D03*
D13*
X159100000Y-114100000D03*
D12*
X154020000Y-114100000D03*
D21*
G36*
X162721955Y-134781324D02*
G01*
X162748650Y-134785284D01*
X162774828Y-134791841D01*
X162800238Y-134800933D01*
X162824634Y-134812472D01*
X162847782Y-134826346D01*
X162869458Y-134842422D01*
X162889454Y-134860546D01*
X162907578Y-134880542D01*
X162923654Y-134902218D01*
X162937528Y-134925366D01*
X162949067Y-134949762D01*
X162958159Y-134975172D01*
X162964716Y-135001350D01*
X162968676Y-135028045D01*
X162970000Y-135055000D01*
X162970000Y-136305000D01*
X162968676Y-136331955D01*
X162964716Y-136358650D01*
X162958159Y-136384828D01*
X162949067Y-136410238D01*
X162937528Y-136434634D01*
X162923654Y-136457782D01*
X162907578Y-136479458D01*
X162889454Y-136499454D01*
X162869458Y-136517578D01*
X162847782Y-136533654D01*
X162824634Y-136547528D01*
X162800238Y-136559067D01*
X162774828Y-136568159D01*
X162748650Y-136574716D01*
X162721955Y-136578676D01*
X162695000Y-136580000D01*
X162145000Y-136580000D01*
X162118045Y-136578676D01*
X162091350Y-136574716D01*
X162065172Y-136568159D01*
X162039762Y-136559067D01*
X162015366Y-136547528D01*
X161992218Y-136533654D01*
X161970542Y-136517578D01*
X161950546Y-136499454D01*
X161932422Y-136479458D01*
X161916346Y-136457782D01*
X161902472Y-136434634D01*
X161890933Y-136410238D01*
X161881841Y-136384828D01*
X161875284Y-136358650D01*
X161871324Y-136331955D01*
X161870000Y-136305000D01*
X161870000Y-135055000D01*
X161871324Y-135028045D01*
X161875284Y-135001350D01*
X161881841Y-134975172D01*
X161890933Y-134949762D01*
X161902472Y-134925366D01*
X161916346Y-134902218D01*
X161932422Y-134880542D01*
X161950546Y-134860546D01*
X161970542Y-134842422D01*
X161992218Y-134826346D01*
X162015366Y-134812472D01*
X162039762Y-134800933D01*
X162065172Y-134791841D01*
X162091350Y-134785284D01*
X162118045Y-134781324D01*
X162145000Y-134780000D01*
X162695000Y-134780000D01*
X162721955Y-134781324D01*
X162721955Y-134781324D01*
G37*
D22*
X162420000Y-135680000D03*
D21*
G36*
X163991955Y-136851324D02*
G01*
X164018650Y-136855284D01*
X164044828Y-136861841D01*
X164070238Y-136870933D01*
X164094634Y-136882472D01*
X164117782Y-136896346D01*
X164139458Y-136912422D01*
X164159454Y-136930546D01*
X164177578Y-136950542D01*
X164193654Y-136972218D01*
X164207528Y-136995366D01*
X164219067Y-137019762D01*
X164228159Y-137045172D01*
X164234716Y-137071350D01*
X164238676Y-137098045D01*
X164240000Y-137125000D01*
X164240000Y-138375000D01*
X164238676Y-138401955D01*
X164234716Y-138428650D01*
X164228159Y-138454828D01*
X164219067Y-138480238D01*
X164207528Y-138504634D01*
X164193654Y-138527782D01*
X164177578Y-138549458D01*
X164159454Y-138569454D01*
X164139458Y-138587578D01*
X164117782Y-138603654D01*
X164094634Y-138617528D01*
X164070238Y-138629067D01*
X164044828Y-138638159D01*
X164018650Y-138644716D01*
X163991955Y-138648676D01*
X163965000Y-138650000D01*
X163415000Y-138650000D01*
X163388045Y-138648676D01*
X163361350Y-138644716D01*
X163335172Y-138638159D01*
X163309762Y-138629067D01*
X163285366Y-138617528D01*
X163262218Y-138603654D01*
X163240542Y-138587578D01*
X163220546Y-138569454D01*
X163202422Y-138549458D01*
X163186346Y-138527782D01*
X163172472Y-138504634D01*
X163160933Y-138480238D01*
X163151841Y-138454828D01*
X163145284Y-138428650D01*
X163141324Y-138401955D01*
X163140000Y-138375000D01*
X163140000Y-137125000D01*
X163141324Y-137098045D01*
X163145284Y-137071350D01*
X163151841Y-137045172D01*
X163160933Y-137019762D01*
X163172472Y-136995366D01*
X163186346Y-136972218D01*
X163202422Y-136950542D01*
X163220546Y-136930546D01*
X163240542Y-136912422D01*
X163262218Y-136896346D01*
X163285366Y-136882472D01*
X163309762Y-136870933D01*
X163335172Y-136861841D01*
X163361350Y-136855284D01*
X163388045Y-136851324D01*
X163415000Y-136850000D01*
X163965000Y-136850000D01*
X163991955Y-136851324D01*
X163991955Y-136851324D01*
G37*
D22*
X163690000Y-137750000D03*
D23*
X161150000Y-137750000D03*
D11*
X160650000Y-128300000D03*
D17*
X160650000Y-120680000D03*
X168270000Y-120680000D03*
X168270000Y-128300000D03*
D13*
X164100000Y-96775000D03*
D12*
X164100000Y-101855000D03*
D17*
X125050000Y-136075000D03*
X122550000Y-136075000D03*
X116150000Y-97000000D03*
X116150000Y-99500000D03*
D11*
X111300000Y-96525000D03*
D17*
X111300000Y-99025000D03*
X120800000Y-118100000D03*
D11*
X120800000Y-120600000D03*
X142800000Y-127975000D03*
D17*
X140300000Y-127975000D03*
X133450000Y-115200000D03*
X135950000Y-115200000D03*
X129250000Y-120700000D03*
X129250000Y-118200000D03*
X125800000Y-118200000D03*
X125800000Y-120700000D03*
X122550000Y-139375000D03*
X125050000Y-139375000D03*
X125025000Y-127750000D03*
X122525000Y-127750000D03*
X125025000Y-124425000D03*
X122525000Y-124425000D03*
D19*
X91800000Y-138950000D03*
D18*
X116800000Y-138950000D03*
X113150000Y-103625000D03*
D19*
X113150000Y-128625000D03*
D17*
X124525000Y-109225000D03*
X122025000Y-109225000D03*
D21*
G36*
X121146955Y-98981324D02*
G01*
X121173650Y-98985284D01*
X121199828Y-98991841D01*
X121225238Y-99000933D01*
X121249634Y-99012472D01*
X121272782Y-99026346D01*
X121294458Y-99042422D01*
X121314454Y-99060546D01*
X121332578Y-99080542D01*
X121348654Y-99102218D01*
X121362528Y-99125366D01*
X121374067Y-99149762D01*
X121383159Y-99175172D01*
X121389716Y-99201350D01*
X121393676Y-99228045D01*
X121395000Y-99255000D01*
X121395000Y-100505000D01*
X121393676Y-100531955D01*
X121389716Y-100558650D01*
X121383159Y-100584828D01*
X121374067Y-100610238D01*
X121362528Y-100634634D01*
X121348654Y-100657782D01*
X121332578Y-100679458D01*
X121314454Y-100699454D01*
X121294458Y-100717578D01*
X121272782Y-100733654D01*
X121249634Y-100747528D01*
X121225238Y-100759067D01*
X121199828Y-100768159D01*
X121173650Y-100774716D01*
X121146955Y-100778676D01*
X121120000Y-100780000D01*
X120570000Y-100780000D01*
X120543045Y-100778676D01*
X120516350Y-100774716D01*
X120490172Y-100768159D01*
X120464762Y-100759067D01*
X120440366Y-100747528D01*
X120417218Y-100733654D01*
X120395542Y-100717578D01*
X120375546Y-100699454D01*
X120357422Y-100679458D01*
X120341346Y-100657782D01*
X120327472Y-100634634D01*
X120315933Y-100610238D01*
X120306841Y-100584828D01*
X120300284Y-100558650D01*
X120296324Y-100531955D01*
X120295000Y-100505000D01*
X120295000Y-99255000D01*
X120296324Y-99228045D01*
X120300284Y-99201350D01*
X120306841Y-99175172D01*
X120315933Y-99149762D01*
X120327472Y-99125366D01*
X120341346Y-99102218D01*
X120357422Y-99080542D01*
X120375546Y-99060546D01*
X120395542Y-99042422D01*
X120417218Y-99026346D01*
X120440366Y-99012472D01*
X120464762Y-99000933D01*
X120490172Y-98991841D01*
X120516350Y-98985284D01*
X120543045Y-98981324D01*
X120570000Y-98980000D01*
X121120000Y-98980000D01*
X121146955Y-98981324D01*
X121146955Y-98981324D01*
G37*
D22*
X120845000Y-99880000D03*
D21*
G36*
X122416955Y-101051324D02*
G01*
X122443650Y-101055284D01*
X122469828Y-101061841D01*
X122495238Y-101070933D01*
X122519634Y-101082472D01*
X122542782Y-101096346D01*
X122564458Y-101112422D01*
X122584454Y-101130546D01*
X122602578Y-101150542D01*
X122618654Y-101172218D01*
X122632528Y-101195366D01*
X122644067Y-101219762D01*
X122653159Y-101245172D01*
X122659716Y-101271350D01*
X122663676Y-101298045D01*
X122665000Y-101325000D01*
X122665000Y-102575000D01*
X122663676Y-102601955D01*
X122659716Y-102628650D01*
X122653159Y-102654828D01*
X122644067Y-102680238D01*
X122632528Y-102704634D01*
X122618654Y-102727782D01*
X122602578Y-102749458D01*
X122584454Y-102769454D01*
X122564458Y-102787578D01*
X122542782Y-102803654D01*
X122519634Y-102817528D01*
X122495238Y-102829067D01*
X122469828Y-102838159D01*
X122443650Y-102844716D01*
X122416955Y-102848676D01*
X122390000Y-102850000D01*
X121840000Y-102850000D01*
X121813045Y-102848676D01*
X121786350Y-102844716D01*
X121760172Y-102838159D01*
X121734762Y-102829067D01*
X121710366Y-102817528D01*
X121687218Y-102803654D01*
X121665542Y-102787578D01*
X121645546Y-102769454D01*
X121627422Y-102749458D01*
X121611346Y-102727782D01*
X121597472Y-102704634D01*
X121585933Y-102680238D01*
X121576841Y-102654828D01*
X121570284Y-102628650D01*
X121566324Y-102601955D01*
X121565000Y-102575000D01*
X121565000Y-101325000D01*
X121566324Y-101298045D01*
X121570284Y-101271350D01*
X121576841Y-101245172D01*
X121585933Y-101219762D01*
X121597472Y-101195366D01*
X121611346Y-101172218D01*
X121627422Y-101150542D01*
X121645546Y-101130546D01*
X121665542Y-101112422D01*
X121687218Y-101096346D01*
X121710366Y-101082472D01*
X121734762Y-101070933D01*
X121760172Y-101061841D01*
X121786350Y-101055284D01*
X121813045Y-101051324D01*
X121840000Y-101050000D01*
X122390000Y-101050000D01*
X122416955Y-101051324D01*
X122416955Y-101051324D01*
G37*
D22*
X122115000Y-101950000D03*
D23*
X119575000Y-101950000D03*
D13*
X132250000Y-120700000D03*
D12*
X137330000Y-120700000D03*
X132220000Y-118200000D03*
D13*
X137300000Y-118200000D03*
X121075000Y-130700000D03*
D12*
X126155000Y-130700000D03*
X121095000Y-133150000D03*
D13*
X126175000Y-133150000D03*
X125175000Y-103650000D03*
D12*
X125175000Y-98570000D03*
X127450000Y-103660000D03*
D13*
X127450000Y-98580000D03*
X122425000Y-106250000D03*
D12*
X127505000Y-106250000D03*
D13*
X127450000Y-113750000D03*
D12*
X127450000Y-108670000D03*
X96825000Y-104330000D03*
D13*
X96825000Y-99250000D03*
D11*
X107100000Y-91400000D03*
D17*
X104600000Y-91400000D03*
D24*
X175300000Y-93575000D03*
X203600000Y-94500000D03*
X175600000Y-129400000D03*
X89800000Y-127500000D03*
X94300000Y-127500000D03*
X159800000Y-96800000D03*
X148700000Y-96800000D03*
X166600000Y-122500000D03*
X126800000Y-122700000D03*
X122200000Y-98800000D03*
X182900000Y-109000000D03*
X163400000Y-109000000D03*
X185200000Y-97500000D03*
X185400000Y-109500000D03*
X165800000Y-109800000D03*
X171500000Y-128400000D03*
X181700000Y-128400000D03*
X181800000Y-101400000D03*
X184300000Y-130400000D03*
X181800000Y-127200000D03*
X176700000Y-125900000D03*
X143100000Y-131400000D03*
X141300000Y-134200000D03*
D25*
X175300000Y-93009315D02*
X175300000Y-93575000D01*
X175264999Y-92974314D02*
X175300000Y-93009315D01*
X175264999Y-89411997D02*
X175264999Y-92974314D01*
X174538001Y-88684999D02*
X175264999Y-89411997D01*
X172635001Y-88684999D02*
X174538001Y-88684999D01*
X171410000Y-89910000D02*
X172635001Y-88684999D01*
X203600000Y-101660000D02*
X202060000Y-103200000D01*
X203600000Y-94500000D02*
X203600000Y-101660000D01*
X171775001Y-134575001D02*
X170600000Y-133400000D01*
X171775001Y-140624999D02*
X171775001Y-134575001D01*
X170600000Y-141800000D02*
X171775001Y-140624999D01*
X174574999Y-94300001D02*
X175300000Y-93575000D01*
X174574999Y-97324999D02*
X174574999Y-94300001D01*
X175750000Y-98500000D02*
X174574999Y-97324999D01*
X168270000Y-131070000D02*
X170600000Y-133400000D01*
X168270000Y-128300000D02*
X168270000Y-131070000D01*
X175575001Y-113275001D02*
X174400000Y-112100000D01*
X175575001Y-115164001D02*
X175575001Y-113275001D01*
X175375001Y-115364001D02*
X175575001Y-115164001D01*
X175375001Y-128609316D02*
X175375001Y-115364001D01*
X175600000Y-128834315D02*
X175375001Y-128609316D01*
X175600000Y-129400000D02*
X175600000Y-128834315D01*
X171000000Y-108700000D02*
X174400000Y-112100000D01*
X171000000Y-107000000D02*
X171000000Y-108700000D01*
X172300001Y-100220001D02*
X168850000Y-96770000D01*
X171000000Y-105850000D02*
X172300001Y-104549999D01*
X172300001Y-104549999D02*
X172300001Y-100220001D01*
X171000000Y-107000000D02*
X171000000Y-105850000D01*
X157484999Y-91224999D02*
X158710000Y-92450000D01*
X154218001Y-91224999D02*
X157484999Y-91224999D01*
X153630000Y-90636998D02*
X154218001Y-91224999D01*
X153630000Y-89910000D02*
X153630000Y-90636998D01*
X132800000Y-91480000D02*
X132720000Y-91400000D01*
X151500000Y-136140000D02*
X146380000Y-131020000D01*
X151500000Y-139700000D02*
X151500000Y-136140000D01*
X115170001Y-95154999D02*
X112099999Y-98225001D01*
X115170001Y-92249999D02*
X115170001Y-95154999D01*
X112099999Y-98225001D02*
X111300000Y-99025000D01*
X116020000Y-91400000D02*
X115170001Y-92249999D01*
X115170001Y-90550001D02*
X116020000Y-91400000D01*
X105775001Y-90224999D02*
X114844999Y-90224999D01*
X114844999Y-90224999D02*
X115170001Y-90550001D01*
X104600000Y-91400000D02*
X105775001Y-90224999D01*
D26*
X125025000Y-127750000D02*
X125025000Y-124425000D01*
X129904999Y-136519999D02*
X129105000Y-135720000D01*
X130230001Y-136845001D02*
X129904999Y-136519999D01*
X130230001Y-138800001D02*
X130230001Y-136845001D01*
X129105000Y-139925002D02*
X130230001Y-138800001D01*
X129105000Y-140800000D02*
X129105000Y-139925002D01*
X125025000Y-128881370D02*
X125025000Y-127750000D01*
X125025000Y-131087002D02*
X125025000Y-128881370D01*
X125662999Y-131725001D02*
X125025000Y-131087002D01*
X127200001Y-132657999D02*
X126267003Y-131725001D01*
X127200001Y-133815001D02*
X127200001Y-132657999D01*
X126267003Y-131725001D02*
X125662999Y-131725001D01*
X129105000Y-135720000D02*
X127200001Y-133815001D01*
X166500000Y-101495000D02*
X166500000Y-101855000D01*
X164100000Y-99455000D02*
X166500000Y-101855000D01*
X164100000Y-96775000D02*
X164100000Y-99455000D01*
X159800000Y-113400000D02*
X159800000Y-96800000D01*
X159100000Y-114100000D02*
X159800000Y-113400000D01*
X148700000Y-92600000D02*
X148550000Y-92450000D01*
X148700000Y-96800000D02*
X148700000Y-92600000D01*
D25*
X170600000Y-135900000D02*
X170600000Y-139300000D01*
X167094999Y-132394999D02*
X170600000Y-135900000D01*
X167094999Y-122994999D02*
X167094999Y-132394999D01*
X166600000Y-122500000D02*
X167094999Y-122994999D01*
X122300000Y-91400000D02*
X121100000Y-91400000D01*
X125475010Y-88224990D02*
X122300000Y-91400000D01*
X146864990Y-88224990D02*
X125475010Y-88224990D01*
X148550000Y-89910000D02*
X146864990Y-88224990D01*
X154000000Y-136100000D02*
X154000000Y-139700000D01*
X159474999Y-131775001D02*
X159474999Y-121855001D01*
X159474999Y-121855001D02*
X160650000Y-120680000D01*
X155150000Y-136100000D02*
X159474999Y-131775001D01*
X154000000Y-136100000D02*
X155150000Y-136100000D01*
X127479989Y-123379989D02*
X126800000Y-122700000D01*
X127479989Y-131554989D02*
X127479989Y-123379989D01*
X129105000Y-133180000D02*
X127479989Y-131554989D01*
X122200000Y-101465000D02*
X122115000Y-101550000D01*
X122200000Y-98800000D02*
X122200000Y-101465000D01*
X123075000Y-101550000D02*
X125175000Y-103650000D01*
X122115000Y-101550000D02*
X123075000Y-101550000D01*
X125175000Y-105091002D02*
X125175000Y-104639949D01*
X123349999Y-106916003D02*
X125175000Y-105091002D01*
X125175000Y-104639949D02*
X125175000Y-103650000D01*
X121950000Y-120600000D02*
X123349999Y-119200001D01*
X123349999Y-119200001D02*
X123349999Y-106916003D01*
X120800000Y-120600000D02*
X121950000Y-120600000D01*
X121100000Y-97700000D02*
X122200000Y-98800000D01*
X121100000Y-91400000D02*
X121100000Y-97700000D01*
X152315001Y-91135001D02*
X151939999Y-90759999D01*
X151939999Y-90759999D02*
X151090000Y-89910000D01*
X158208999Y-119880001D02*
X152315001Y-113986003D01*
X159850001Y-119880001D02*
X158208999Y-119880001D01*
X152315001Y-113986003D02*
X152315001Y-91135001D01*
X160650000Y-120680000D02*
X159850001Y-119880001D01*
D26*
X151100000Y-92460000D02*
X151090000Y-92450000D01*
X153600000Y-92480000D02*
X153630000Y-92450000D01*
X182900000Y-93780000D02*
X182900000Y-109000000D01*
X181570000Y-92450000D02*
X182900000Y-93780000D01*
X163400000Y-114600000D02*
X163380000Y-114620000D01*
X163400000Y-109000000D02*
X163400000Y-114600000D01*
X185599999Y-109300001D02*
X185400000Y-109500000D01*
X185599999Y-97899999D02*
X185599999Y-109300001D01*
X185200000Y-97500000D02*
X185599999Y-97899999D01*
X165800000Y-114500000D02*
X165920000Y-114620000D01*
X165800000Y-109800000D02*
X165800000Y-114500000D01*
X195445001Y-91085001D02*
X194270000Y-89910000D01*
X196245999Y-93625001D02*
X195445001Y-92824003D01*
X197565001Y-93625001D02*
X196245999Y-93625001D01*
X195445001Y-92824003D02*
X195445001Y-91085001D01*
X199520000Y-95580000D02*
X197565001Y-93625001D01*
X197985001Y-91085001D02*
X196810000Y-89910000D01*
X197985001Y-93144637D02*
X197985001Y-91085001D01*
X198965374Y-94125010D02*
X197985001Y-93144637D01*
X200605010Y-94125010D02*
X198965374Y-94125010D01*
X202060000Y-95580000D02*
X200605010Y-94125010D01*
X189360000Y-92620000D02*
X189190000Y-92450000D01*
X189360000Y-95580000D02*
X189360000Y-92620000D01*
X194270000Y-92870000D02*
X194270000Y-92450000D01*
X196980000Y-95580000D02*
X194270000Y-92870000D01*
X192905001Y-91085001D02*
X191730000Y-89910000D01*
X192905001Y-94045001D02*
X192905001Y-91085001D01*
X194440000Y-95580000D02*
X192905001Y-94045001D01*
X187825001Y-91085001D02*
X186650000Y-89910000D01*
X187825001Y-94574999D02*
X187825001Y-91085001D01*
X186820000Y-95580000D02*
X187825001Y-94574999D01*
X191900000Y-92620000D02*
X191730000Y-92450000D01*
X191900000Y-95580000D02*
X191900000Y-92620000D01*
X186650000Y-93210000D02*
X186650000Y-92450000D01*
X184280000Y-95580000D02*
X186650000Y-93210000D01*
X166500000Y-92620000D02*
X166330000Y-92450000D01*
X166500000Y-96775000D02*
X166500000Y-92620000D01*
X173074999Y-132234999D02*
X176740000Y-135900000D01*
X173074999Y-120553589D02*
X173074999Y-132234999D01*
X169874999Y-117353589D02*
X173074999Y-120553589D01*
X169939999Y-105874999D02*
X169874999Y-105939999D01*
X169874999Y-105939999D02*
X169874999Y-117353589D01*
X169939999Y-101422997D02*
X169939999Y-105874999D01*
X166500000Y-97982998D02*
X169939999Y-101422997D01*
X166500000Y-96775000D02*
X166500000Y-97982998D01*
X164100000Y-136940000D02*
X163690000Y-137350000D01*
X164505001Y-136534999D02*
X163690000Y-137350000D01*
X164505001Y-106459999D02*
X164505001Y-136534999D01*
X164100000Y-106054998D02*
X164505001Y-106459999D01*
X164100000Y-101855000D02*
X164100000Y-106054998D01*
X184200000Y-135740000D02*
X184360000Y-135900000D01*
X183234999Y-134774999D02*
X184360000Y-135900000D01*
X179200000Y-116374998D02*
X183234999Y-120409997D01*
X183234999Y-120409997D02*
X183234999Y-134774999D01*
X179200000Y-103200000D02*
X179200000Y-116374998D01*
X179200000Y-102150000D02*
X179200000Y-103200000D01*
X177854999Y-91085001D02*
X177854999Y-100804999D01*
X177854999Y-100804999D02*
X179200000Y-102150000D01*
X179030000Y-89910000D02*
X177854999Y-91085001D01*
X194440000Y-112960000D02*
X202140000Y-120660000D01*
X194440000Y-103200000D02*
X194440000Y-112960000D01*
X191900000Y-112960000D02*
X199600000Y-120660000D01*
X191900000Y-103200000D02*
X191900000Y-112960000D01*
X172774999Y-91085001D02*
X173950000Y-89910000D01*
X177865001Y-102280003D02*
X172774999Y-97190001D01*
X177865001Y-134485001D02*
X177865001Y-102280003D01*
X172774999Y-97190001D02*
X172774999Y-91085001D01*
X179280000Y-135900000D02*
X177865001Y-134485001D01*
X189360000Y-112960000D02*
X197060000Y-120660000D01*
X189360000Y-103200000D02*
X189360000Y-112960000D01*
X181800000Y-135880000D02*
X181820000Y-135900000D01*
X167045001Y-102827001D02*
X167045001Y-115160001D01*
X167045001Y-115160001D02*
X171500000Y-119615000D01*
X167525001Y-102347001D02*
X167045001Y-102827001D01*
X165125001Y-98962999D02*
X167525001Y-101362999D01*
X165125001Y-93785001D02*
X165125001Y-98962999D01*
X167525001Y-101362999D02*
X167525001Y-102347001D01*
X171500000Y-119615000D02*
X171500000Y-128400000D01*
X163790000Y-92450000D02*
X165125001Y-93785001D01*
X181700000Y-135780000D02*
X181820000Y-135900000D01*
X181700000Y-128400000D02*
X181700000Y-135780000D01*
X186820000Y-112960000D02*
X194520000Y-120660000D01*
X186820000Y-103200000D02*
X186820000Y-112960000D01*
X184280000Y-112960000D02*
X191980000Y-120660000D01*
X184280000Y-103200000D02*
X184280000Y-112960000D01*
X181740000Y-112960000D02*
X189440000Y-120660000D01*
X181740000Y-103200000D02*
X181740000Y-112960000D01*
X189500000Y-135840000D02*
X189440000Y-135900000D01*
X180394999Y-94234999D02*
X181740000Y-95580000D01*
X180394999Y-89535997D02*
X180394999Y-94234999D01*
X179594001Y-88734999D02*
X180394999Y-89535997D01*
X177665001Y-88734999D02*
X179594001Y-88734999D01*
X176490000Y-89910000D02*
X177665001Y-88734999D01*
X181740000Y-101340000D02*
X181800000Y-101400000D01*
X181740000Y-95580000D02*
X181740000Y-101340000D01*
X185774999Y-132234999D02*
X189440000Y-135900000D01*
X185774999Y-120119999D02*
X185774999Y-132234999D01*
X180614999Y-114959999D02*
X185774999Y-120119999D01*
X180614999Y-102585001D02*
X180614999Y-114959999D01*
X181800000Y-101400000D02*
X180614999Y-102585001D01*
X184350000Y-120670000D02*
X184360000Y-120660000D01*
X184300000Y-120720000D02*
X184360000Y-120660000D01*
X184300000Y-130400000D02*
X184300000Y-120720000D01*
X181850000Y-120690000D02*
X181820000Y-120660000D01*
X181800000Y-120680000D02*
X181820000Y-120660000D01*
X181800000Y-127200000D02*
X181800000Y-120680000D01*
X203265001Y-129694999D02*
X197060000Y-135900000D01*
X203265001Y-120119999D02*
X203265001Y-129694999D01*
X196980000Y-113834998D02*
X203265001Y-120119999D01*
X196980000Y-103200000D02*
X196980000Y-113834998D01*
X203715011Y-131784989D02*
X199600000Y-135900000D01*
X203715011Y-108526381D02*
X203715011Y-131784989D01*
X199520000Y-104331370D02*
X203715011Y-108526381D01*
X199520000Y-103200000D02*
X199520000Y-104331370D01*
X176800000Y-120720000D02*
X176740000Y-120660000D01*
X176700000Y-120700000D02*
X176740000Y-120660000D01*
X176700000Y-125900000D02*
X176700000Y-120700000D01*
X142340000Y-130640000D02*
X136725000Y-130640000D01*
X143100000Y-131400000D02*
X142340000Y-130640000D01*
X135925001Y-136519999D02*
X136725000Y-135720000D01*
X135599999Y-136845001D02*
X135925001Y-136519999D01*
X135599999Y-138800001D02*
X135599999Y-136845001D01*
X136725000Y-139925002D02*
X135599999Y-138800001D01*
X136725000Y-140800000D02*
X136725000Y-139925002D01*
X136725000Y-140775000D02*
X136725000Y-140800000D01*
X142800000Y-129980000D02*
X142800000Y-127975000D01*
X146380000Y-133560000D02*
X142800000Y-129980000D01*
X140785000Y-134200000D02*
X141300000Y-134200000D01*
X136725000Y-138260000D02*
X140785000Y-134200000D01*
X137300000Y-116550000D02*
X135950000Y-115200000D01*
X137300000Y-118200000D02*
X137300000Y-116550000D01*
X136600001Y-118899999D02*
X137300000Y-118200000D01*
X130230001Y-125269999D02*
X136600001Y-118899999D01*
X130230001Y-126974999D02*
X130230001Y-125269999D01*
X129105000Y-128100000D02*
X130230001Y-126974999D01*
X129250000Y-125415000D02*
X129105000Y-125560000D01*
X129250000Y-120700000D02*
X129250000Y-125415000D01*
X128305001Y-129840001D02*
X129105000Y-130640000D01*
X127979999Y-129514999D02*
X128305001Y-129840001D01*
X127979999Y-126685001D02*
X127979999Y-129514999D01*
X129105000Y-125560000D02*
X127979999Y-126685001D01*
X132250000Y-118230000D02*
X132220000Y-118200000D01*
X132250000Y-120700000D02*
X132250000Y-118230000D01*
X121095000Y-130720000D02*
X121075000Y-130700000D01*
X121095000Y-133150000D02*
X121095000Y-130720000D01*
X122525000Y-129250000D02*
X122525000Y-127750000D01*
X121075000Y-130700000D02*
X122525000Y-129250000D01*
X122525000Y-126618630D02*
X122525000Y-124425000D01*
X122525000Y-127750000D02*
X122525000Y-126618630D01*
X94580000Y-96800000D02*
X94580000Y-106800000D01*
X101200000Y-103625000D02*
X96825000Y-99250000D01*
X103725000Y-103625000D02*
X101200000Y-103625000D01*
X94580000Y-97005000D02*
X94580000Y-96800000D01*
X96825000Y-99250000D02*
X94580000Y-97005000D01*
X155200000Y-114100000D02*
X154020000Y-114100000D01*
X158300000Y-111000000D02*
X155200000Y-114100000D01*
X158300000Y-109900000D02*
X158300000Y-111000000D01*
X135925001Y-128899999D02*
X136725000Y-128100000D01*
X135599999Y-129225001D02*
X135925001Y-128899999D01*
X135599999Y-131180001D02*
X135599999Y-129225001D01*
X136725000Y-132305002D02*
X135599999Y-131180001D01*
X136725000Y-133180000D02*
X136725000Y-132305002D01*
X136630001Y-121399999D02*
X137330000Y-120700000D01*
X136725000Y-127225002D02*
X135599999Y-126100001D01*
X135599999Y-122430001D02*
X136630001Y-121399999D01*
X135599999Y-126100001D02*
X135599999Y-122430001D01*
X136725000Y-128100000D02*
X136725000Y-127225002D01*
X126175000Y-138250000D02*
X125050000Y-139375000D01*
X126175000Y-133150000D02*
X126175000Y-138250000D01*
X91800000Y-138950000D02*
X91800000Y-128840000D01*
X124525000Y-110825000D02*
X127450000Y-113750000D01*
X124525000Y-109225000D02*
X124525000Y-110825000D01*
X121675000Y-109225000D02*
X122025000Y-109225000D01*
X103725000Y-127175000D02*
X121675000Y-109225000D01*
X103725000Y-128625000D02*
X103725000Y-127175000D01*
X119575000Y-103400000D02*
X122425000Y-106250000D01*
X119575000Y-101550000D02*
X119575000Y-103400000D01*
X122425000Y-108825000D02*
X122025000Y-109225000D01*
X122425000Y-106250000D02*
X122425000Y-108825000D01*
D27*
G36*
X113873000Y-94300000D02*
G01*
X113875440Y-94324776D01*
X113882667Y-94348601D01*
X113894403Y-94370557D01*
X113910197Y-94389803D01*
X113929443Y-94405597D01*
X113951399Y-94417333D01*
X113975224Y-94424560D01*
X114000000Y-94427000D01*
X120290000Y-94427000D01*
X120290001Y-97660202D01*
X120286081Y-97700000D01*
X120296401Y-97804774D01*
X120301721Y-97858788D01*
X120333356Y-97963072D01*
X120348038Y-98011473D01*
X120423251Y-98152189D01*
X120459532Y-98196397D01*
X120524473Y-98275528D01*
X120555383Y-98300895D01*
X120596416Y-98341928D01*
X120570000Y-98341928D01*
X120391868Y-98359472D01*
X120220582Y-98411431D01*
X120062724Y-98495808D01*
X119924361Y-98609361D01*
X119810808Y-98747724D01*
X119726431Y-98905582D01*
X119674472Y-99076868D01*
X119656928Y-99255000D01*
X119656928Y-100411928D01*
X119025000Y-100411928D01*
X118900518Y-100424188D01*
X118780820Y-100460498D01*
X118670506Y-100519463D01*
X118573815Y-100598815D01*
X118494463Y-100695506D01*
X118435498Y-100805820D01*
X118399188Y-100925518D01*
X118386928Y-101050000D01*
X118386928Y-102850000D01*
X118399188Y-102974482D01*
X118435498Y-103094180D01*
X118494463Y-103204494D01*
X118573815Y-103301185D01*
X118670506Y-103380537D01*
X118780820Y-103439502D01*
X118816274Y-103450257D01*
X118824424Y-103533000D01*
X118825998Y-103548985D01*
X118869454Y-103692246D01*
X118940026Y-103824276D01*
X118992312Y-103887986D01*
X119035000Y-103940001D01*
X119063998Y-103963799D01*
X121111355Y-106011157D01*
X121090000Y-106118514D01*
X121090000Y-106381486D01*
X121141304Y-106639405D01*
X121241939Y-106882359D01*
X121388038Y-107101013D01*
X121573987Y-107286962D01*
X121665000Y-107347775D01*
X121665001Y-107833496D01*
X121606426Y-107845147D01*
X121345273Y-107953320D01*
X121110241Y-108110363D01*
X120910363Y-108310241D01*
X120753320Y-108545273D01*
X120645147Y-108806426D01*
X120590000Y-109083665D01*
X120590000Y-109235197D01*
X103213998Y-126611201D01*
X103185000Y-126634999D01*
X103161202Y-126663997D01*
X103161201Y-126663998D01*
X103090026Y-126750724D01*
X103070674Y-126786928D01*
X102525000Y-126786928D01*
X102400518Y-126799188D01*
X102280820Y-126835498D01*
X102170506Y-126894463D01*
X102073815Y-126973815D01*
X101994463Y-127070506D01*
X101935498Y-127180820D01*
X101899188Y-127300518D01*
X101886928Y-127425000D01*
X101886928Y-129825000D01*
X101899188Y-129949482D01*
X101935498Y-130069180D01*
X101994463Y-130179494D01*
X102073815Y-130276185D01*
X102170506Y-130355537D01*
X102280820Y-130414502D01*
X102400518Y-130450812D01*
X102525000Y-130463072D01*
X104925000Y-130463072D01*
X105049482Y-130450812D01*
X105169180Y-130414502D01*
X105279494Y-130355537D01*
X105376185Y-130276185D01*
X105455537Y-130179494D01*
X105514502Y-130069180D01*
X105550812Y-129949482D01*
X105563072Y-129825000D01*
X105563072Y-128625000D01*
X111306122Y-128625000D01*
X111341552Y-128984723D01*
X111446479Y-129330622D01*
X111616871Y-129649404D01*
X111846181Y-129928819D01*
X112125596Y-130158129D01*
X112444378Y-130328521D01*
X112790277Y-130433448D01*
X113059861Y-130460000D01*
X113240139Y-130460000D01*
X113509723Y-130433448D01*
X113855622Y-130328521D01*
X114174404Y-130158129D01*
X114453819Y-129928819D01*
X114683129Y-129649404D01*
X114853521Y-129330622D01*
X114958448Y-128984723D01*
X114993878Y-128625000D01*
X114958448Y-128265277D01*
X114853521Y-127919378D01*
X114683129Y-127600596D01*
X114453819Y-127321181D01*
X114174404Y-127091871D01*
X113855622Y-126921479D01*
X113509723Y-126816552D01*
X113240139Y-126790000D01*
X113059861Y-126790000D01*
X112790277Y-126816552D01*
X112444378Y-126921479D01*
X112125596Y-127091871D01*
X111846181Y-127321181D01*
X111616871Y-127600596D01*
X111446479Y-127919378D01*
X111341552Y-128265277D01*
X111306122Y-128625000D01*
X105563072Y-128625000D01*
X105563072Y-127425000D01*
X105550812Y-127300518D01*
X105514502Y-127180820D01*
X105455537Y-127070506D01*
X105376185Y-126973815D01*
X105279494Y-126894463D01*
X105169180Y-126835498D01*
X105146257Y-126828544D01*
X113804290Y-118170512D01*
X119359783Y-118170512D01*
X119401213Y-118450130D01*
X119496397Y-118716292D01*
X119563329Y-118841514D01*
X119807298Y-118913097D01*
X120620395Y-118100000D01*
X120979605Y-118100000D01*
X121792702Y-118913097D01*
X122036671Y-118841514D01*
X122157571Y-118586004D01*
X122226300Y-118311816D01*
X122240217Y-118029488D01*
X122198787Y-117749870D01*
X122103603Y-117483708D01*
X122036671Y-117358486D01*
X121792702Y-117286903D01*
X120979605Y-118100000D01*
X120620395Y-118100000D01*
X119807298Y-117286903D01*
X119563329Y-117358486D01*
X119442429Y-117613996D01*
X119373700Y-117888184D01*
X119359783Y-118170512D01*
X113804290Y-118170512D01*
X114867504Y-117107298D01*
X119986903Y-117107298D01*
X120800000Y-117920395D01*
X121613097Y-117107298D01*
X121541514Y-116863329D01*
X121286004Y-116742429D01*
X121011816Y-116673700D01*
X120729488Y-116659783D01*
X120449870Y-116701213D01*
X120183708Y-116796397D01*
X120058486Y-116863329D01*
X119986903Y-117107298D01*
X114867504Y-117107298D01*
X121439212Y-110535591D01*
X121606426Y-110604853D01*
X121883665Y-110660000D01*
X122166335Y-110660000D01*
X122443574Y-110604853D01*
X122540000Y-110564912D01*
X122539999Y-118864488D01*
X122053208Y-119351280D01*
X122051185Y-119348815D01*
X121954494Y-119269463D01*
X121844180Y-119210498D01*
X121724482Y-119174188D01*
X121600000Y-119161928D01*
X121592785Y-119161928D01*
X121613097Y-119092702D01*
X120800000Y-118279605D01*
X119986903Y-119092702D01*
X120007215Y-119161928D01*
X120000000Y-119161928D01*
X119875518Y-119174188D01*
X119755820Y-119210498D01*
X119645506Y-119269463D01*
X119548815Y-119348815D01*
X119469463Y-119445506D01*
X119410498Y-119555820D01*
X119374188Y-119675518D01*
X119361928Y-119800000D01*
X119361928Y-121400000D01*
X119374188Y-121524482D01*
X119410498Y-121644180D01*
X119469463Y-121754494D01*
X119548815Y-121851185D01*
X119645506Y-121930537D01*
X119755820Y-121989502D01*
X119875518Y-122025812D01*
X120000000Y-122038072D01*
X121600000Y-122038072D01*
X121724482Y-122025812D01*
X121844180Y-121989502D01*
X121954494Y-121930537D01*
X122051185Y-121851185D01*
X122130537Y-121754494D01*
X122189502Y-121644180D01*
X122225812Y-121524482D01*
X122238072Y-121400000D01*
X122238072Y-121359062D01*
X122261473Y-121351963D01*
X122402189Y-121276749D01*
X122525528Y-121175528D01*
X122550899Y-121144613D01*
X123894618Y-119800895D01*
X123925527Y-119775529D01*
X124026748Y-119652190D01*
X124086599Y-119540217D01*
X124101962Y-119511475D01*
X124148279Y-119358789D01*
X124163918Y-119200001D01*
X124159999Y-119160210D01*
X124159999Y-116192702D01*
X132636903Y-116192702D01*
X132708486Y-116436671D01*
X132963996Y-116557571D01*
X133238184Y-116626300D01*
X133520512Y-116640217D01*
X133800130Y-116598787D01*
X134066292Y-116503603D01*
X134191514Y-116436671D01*
X134263097Y-116192702D01*
X133450000Y-115379605D01*
X132636903Y-116192702D01*
X124159999Y-116192702D01*
X124159999Y-115270512D01*
X132009783Y-115270512D01*
X132051213Y-115550130D01*
X132146397Y-115816292D01*
X132213329Y-115941514D01*
X132457298Y-116013097D01*
X133270395Y-115200000D01*
X132457298Y-114386903D01*
X132213329Y-114458486D01*
X132092429Y-114713996D01*
X132023700Y-114988184D01*
X132009783Y-115270512D01*
X124159999Y-115270512D01*
X124159999Y-111534800D01*
X126136355Y-113511157D01*
X126115000Y-113618514D01*
X126115000Y-113881486D01*
X126166304Y-114139405D01*
X126266939Y-114382359D01*
X126413038Y-114601013D01*
X126598987Y-114786962D01*
X126817641Y-114933061D01*
X127060595Y-115033696D01*
X127318514Y-115085000D01*
X127581486Y-115085000D01*
X127839405Y-115033696D01*
X128082359Y-114933061D01*
X128301013Y-114786962D01*
X128486962Y-114601013D01*
X128633061Y-114382359D01*
X128705573Y-114207298D01*
X132636903Y-114207298D01*
X133450000Y-115020395D01*
X134263097Y-114207298D01*
X134191514Y-113963329D01*
X133936004Y-113842429D01*
X133661816Y-113773700D01*
X133379488Y-113759783D01*
X133099870Y-113801213D01*
X132833708Y-113896397D01*
X132708486Y-113963329D01*
X132636903Y-114207298D01*
X128705573Y-114207298D01*
X128733696Y-114139405D01*
X128785000Y-113881486D01*
X128785000Y-113618514D01*
X128733696Y-113360595D01*
X128633061Y-113117641D01*
X128486962Y-112898987D01*
X128301013Y-112713038D01*
X128082359Y-112566939D01*
X127839405Y-112466304D01*
X127581486Y-112415000D01*
X127318514Y-112415000D01*
X127211157Y-112436355D01*
X125285000Y-110510199D01*
X125285000Y-110443043D01*
X125439759Y-110339637D01*
X125639637Y-110139759D01*
X125796680Y-109904727D01*
X125904853Y-109643574D01*
X125960000Y-109366335D01*
X125960000Y-109083665D01*
X125944021Y-109003330D01*
X126157278Y-109003330D01*
X126247147Y-109249123D01*
X126383241Y-109472660D01*
X126560330Y-109665351D01*
X126771608Y-109819792D01*
X127008956Y-109930047D01*
X127116671Y-109962716D01*
X127323000Y-109839374D01*
X127323000Y-108797000D01*
X127577000Y-108797000D01*
X127577000Y-109839374D01*
X127783329Y-109962716D01*
X127891044Y-109930047D01*
X128128392Y-109819792D01*
X128339670Y-109665351D01*
X128516759Y-109472660D01*
X128652853Y-109249123D01*
X128742722Y-109003330D01*
X128620201Y-108797000D01*
X127577000Y-108797000D01*
X127323000Y-108797000D01*
X126279799Y-108797000D01*
X126157278Y-109003330D01*
X125944021Y-109003330D01*
X125904853Y-108806426D01*
X125796680Y-108545273D01*
X125657297Y-108336670D01*
X126157278Y-108336670D01*
X126279799Y-108543000D01*
X127323000Y-108543000D01*
X127323000Y-107500626D01*
X127577000Y-107500626D01*
X127577000Y-108543000D01*
X128620201Y-108543000D01*
X128742722Y-108336670D01*
X128652853Y-108090877D01*
X128516759Y-107867340D01*
X128339670Y-107674649D01*
X128128392Y-107520208D01*
X128027759Y-107473461D01*
X128084123Y-107452853D01*
X128307660Y-107316759D01*
X128500351Y-107139670D01*
X128654792Y-106928392D01*
X128765047Y-106691044D01*
X128797716Y-106583329D01*
X128674374Y-106377000D01*
X127632000Y-106377000D01*
X127632000Y-107420201D01*
X127671901Y-107443895D01*
X127577000Y-107500626D01*
X127323000Y-107500626D01*
X127282915Y-107476663D01*
X127378000Y-107420201D01*
X127378000Y-106377000D01*
X126335626Y-106377000D01*
X126212284Y-106583329D01*
X126244953Y-106691044D01*
X126355208Y-106928392D01*
X126509649Y-107139670D01*
X126702340Y-107316759D01*
X126921864Y-107450410D01*
X126771608Y-107520208D01*
X126560330Y-107674649D01*
X126383241Y-107867340D01*
X126247147Y-108090877D01*
X126157278Y-108336670D01*
X125657297Y-108336670D01*
X125639637Y-108310241D01*
X125439759Y-108110363D01*
X125204727Y-107953320D01*
X124943574Y-107845147D01*
X124666335Y-107790000D01*
X124383665Y-107790000D01*
X124159999Y-107834491D01*
X124159999Y-107251515D01*
X125494843Y-105916671D01*
X126212284Y-105916671D01*
X126335626Y-106123000D01*
X127378000Y-106123000D01*
X127378000Y-105079799D01*
X127632000Y-105079799D01*
X127632000Y-106123000D01*
X128674374Y-106123000D01*
X128797716Y-105916671D01*
X128765047Y-105808956D01*
X128654792Y-105571608D01*
X128500351Y-105360330D01*
X128307660Y-105183241D01*
X128084123Y-105047147D01*
X127838330Y-104957278D01*
X127632000Y-105079799D01*
X127378000Y-105079799D01*
X127171670Y-104957278D01*
X126925877Y-105047147D01*
X126702340Y-105183241D01*
X126509649Y-105360330D01*
X126355208Y-105571608D01*
X126244953Y-105808956D01*
X126212284Y-105916671D01*
X125494843Y-105916671D01*
X125719619Y-105691896D01*
X125750528Y-105666530D01*
X125828428Y-105571608D01*
X125851749Y-105543192D01*
X125907852Y-105438229D01*
X125926963Y-105402475D01*
X125973280Y-105249790D01*
X125985000Y-105130793D01*
X125985000Y-105130791D01*
X125988919Y-105091003D01*
X125985000Y-105051215D01*
X125985000Y-104714366D01*
X126026013Y-104686962D01*
X126211962Y-104501013D01*
X126313800Y-104348601D01*
X126383241Y-104462660D01*
X126560330Y-104655351D01*
X126771608Y-104809792D01*
X127008956Y-104920047D01*
X127116671Y-104952716D01*
X127323000Y-104829374D01*
X127323000Y-103787000D01*
X127577000Y-103787000D01*
X127577000Y-104829374D01*
X127783329Y-104952716D01*
X127891044Y-104920047D01*
X128128392Y-104809792D01*
X128339670Y-104655351D01*
X128516759Y-104462660D01*
X128652853Y-104239123D01*
X128742722Y-103993330D01*
X128620201Y-103787000D01*
X127577000Y-103787000D01*
X127323000Y-103787000D01*
X127303000Y-103787000D01*
X127303000Y-103533000D01*
X127323000Y-103533000D01*
X127323000Y-102490626D01*
X127577000Y-102490626D01*
X127577000Y-103533000D01*
X128620201Y-103533000D01*
X128742722Y-103326670D01*
X128652853Y-103080877D01*
X128516759Y-102857340D01*
X128339670Y-102664649D01*
X128128392Y-102510208D01*
X127891044Y-102399953D01*
X127783329Y-102367284D01*
X127577000Y-102490626D01*
X127323000Y-102490626D01*
X127116671Y-102367284D01*
X127008956Y-102399953D01*
X126771608Y-102510208D01*
X126560330Y-102664649D01*
X126383241Y-102857340D01*
X126320171Y-102960934D01*
X126211962Y-102798987D01*
X126026013Y-102613038D01*
X125807359Y-102466939D01*
X125564405Y-102366304D01*
X125306486Y-102315000D01*
X125043514Y-102315000D01*
X124995136Y-102324623D01*
X123675899Y-101005387D01*
X123650528Y-100974472D01*
X123527189Y-100873251D01*
X123386473Y-100798037D01*
X123233788Y-100751720D01*
X123114791Y-100740000D01*
X123114788Y-100740000D01*
X123082821Y-100736851D01*
X123035639Y-100679361D01*
X123010000Y-100658319D01*
X123010000Y-99450700D01*
X123117205Y-99290256D01*
X123195226Y-99101898D01*
X123235000Y-98901939D01*
X123235000Y-98698061D01*
X123209528Y-98570000D01*
X123833541Y-98570000D01*
X123859317Y-98831706D01*
X123935653Y-99083354D01*
X124059618Y-99315275D01*
X124226445Y-99518555D01*
X124429725Y-99685382D01*
X124661646Y-99809347D01*
X124913294Y-99885683D01*
X125109421Y-99905000D01*
X125240579Y-99905000D01*
X125436706Y-99885683D01*
X125688354Y-99809347D01*
X125920275Y-99685382D01*
X126123555Y-99518555D01*
X126290382Y-99315275D01*
X126310525Y-99277590D01*
X126413038Y-99431013D01*
X126598987Y-99616962D01*
X126817641Y-99763061D01*
X127060595Y-99863696D01*
X127318514Y-99915000D01*
X127581486Y-99915000D01*
X127839405Y-99863696D01*
X128082359Y-99763061D01*
X128301013Y-99616962D01*
X128486962Y-99431013D01*
X128633061Y-99212359D01*
X128733696Y-98969405D01*
X128785000Y-98711486D01*
X128785000Y-98448514D01*
X128733696Y-98190595D01*
X128633061Y-97947641D01*
X128486962Y-97728987D01*
X128301013Y-97543038D01*
X128082359Y-97396939D01*
X127839405Y-97296304D01*
X127581486Y-97245000D01*
X127318514Y-97245000D01*
X127060595Y-97296304D01*
X126817641Y-97396939D01*
X126598987Y-97543038D01*
X126413038Y-97728987D01*
X126316464Y-97873521D01*
X126290382Y-97824725D01*
X126123555Y-97621445D01*
X125920275Y-97454618D01*
X125688354Y-97330653D01*
X125436706Y-97254317D01*
X125240579Y-97235000D01*
X125109421Y-97235000D01*
X124913294Y-97254317D01*
X124661646Y-97330653D01*
X124429725Y-97454618D01*
X124226445Y-97621445D01*
X124059618Y-97824725D01*
X123935653Y-98056646D01*
X123859317Y-98308294D01*
X123833541Y-98570000D01*
X123209528Y-98570000D01*
X123195226Y-98498102D01*
X123117205Y-98309744D01*
X123003937Y-98140226D01*
X122859774Y-97996063D01*
X122690256Y-97882795D01*
X122501898Y-97804774D01*
X122312641Y-97767129D01*
X121910000Y-97364488D01*
X121910000Y-95824361D01*
X123215222Y-96994560D01*
X123235299Y-97009283D01*
X123257862Y-97019806D01*
X123282044Y-97025724D01*
X123300000Y-97027000D01*
X129428786Y-97027000D01*
X146673000Y-125235743D01*
X146673000Y-126573000D01*
X144700000Y-126573000D01*
X144675224Y-126575440D01*
X144651399Y-126582667D01*
X144629443Y-126594403D01*
X144610197Y-126610197D01*
X144594403Y-126629443D01*
X144582667Y-126651399D01*
X144575440Y-126675224D01*
X144573000Y-126700000D01*
X144573000Y-129600000D01*
X144575440Y-129624776D01*
X144582667Y-129648601D01*
X144594403Y-129670557D01*
X144610197Y-129689803D01*
X144629443Y-129705597D01*
X144651399Y-129717333D01*
X144675224Y-129724560D01*
X144700000Y-129727000D01*
X145668827Y-129727000D01*
X145716682Y-129752579D01*
X145524869Y-129867615D01*
X145316481Y-130056586D01*
X145148963Y-130282580D01*
X145028754Y-130536913D01*
X144988096Y-130670961D01*
X145110085Y-130893000D01*
X146253000Y-130893000D01*
X146253000Y-130873000D01*
X146507000Y-130873000D01*
X146507000Y-130893000D01*
X147649915Y-130893000D01*
X147771904Y-130670961D01*
X147731246Y-130536913D01*
X147611037Y-130282580D01*
X147443519Y-130056586D01*
X147235131Y-129867615D01*
X147043318Y-129752579D01*
X147091173Y-129727000D01*
X152373000Y-129727000D01*
X152373000Y-132100000D01*
X152375440Y-132124776D01*
X152382667Y-132148601D01*
X152394403Y-132170557D01*
X152410197Y-132189803D01*
X152429443Y-132205597D01*
X152451399Y-132217333D01*
X152475224Y-132224560D01*
X152500000Y-132227000D01*
X153213993Y-132227000D01*
X153331858Y-132290000D01*
X153198899Y-132361068D01*
X152980392Y-132540392D01*
X152801068Y-132758899D01*
X152667818Y-133008192D01*
X152585764Y-133278691D01*
X152558057Y-133560000D01*
X152585764Y-133841309D01*
X152667818Y-134111808D01*
X152801068Y-134361101D01*
X152980392Y-134579608D01*
X153093482Y-134672419D01*
X153075518Y-134674188D01*
X152955820Y-134710498D01*
X152845506Y-134769463D01*
X152748815Y-134848815D01*
X152728967Y-134873000D01*
X152500000Y-134873000D01*
X152475224Y-134875440D01*
X152451399Y-134882667D01*
X152429443Y-134894403D01*
X152410197Y-134910197D01*
X152394403Y-134929443D01*
X152382667Y-134951399D01*
X152375440Y-134975224D01*
X152373000Y-135000000D01*
X152373000Y-137773000D01*
X149500000Y-137773000D01*
X149475224Y-137775440D01*
X149451399Y-137782667D01*
X149429443Y-137794403D01*
X149410197Y-137810197D01*
X149394403Y-137829443D01*
X149382667Y-137851399D01*
X149375440Y-137875224D01*
X149373000Y-137900000D01*
X149373000Y-143540000D01*
X79032279Y-143540000D01*
X78546106Y-143492330D01*
X78329723Y-143427000D01*
X82000000Y-143427000D01*
X82024776Y-143424560D01*
X82048601Y-143417333D01*
X82070557Y-143405597D01*
X82089803Y-143389803D01*
X82105597Y-143370557D01*
X82117333Y-143348601D01*
X82124560Y-143324776D01*
X82127000Y-143300000D01*
X82127000Y-138950000D01*
X89956122Y-138950000D01*
X89991552Y-139309723D01*
X90096479Y-139655622D01*
X90266871Y-139974404D01*
X90496181Y-140253819D01*
X90775596Y-140483129D01*
X91094378Y-140653521D01*
X91440277Y-140758448D01*
X91709861Y-140785000D01*
X91890139Y-140785000D01*
X92159723Y-140758448D01*
X92505622Y-140653521D01*
X92824404Y-140483129D01*
X93103819Y-140253819D01*
X93333129Y-139974404D01*
X93503521Y-139655622D01*
X93608448Y-139309723D01*
X93643878Y-138950000D01*
X93608448Y-138590277D01*
X93503521Y-138244378D01*
X93333129Y-137925596D01*
X93189022Y-137750000D01*
X114961928Y-137750000D01*
X114961928Y-140150000D01*
X114974188Y-140274482D01*
X115010498Y-140394180D01*
X115069463Y-140504494D01*
X115148815Y-140601185D01*
X115245506Y-140680537D01*
X115355820Y-140739502D01*
X115475518Y-140775812D01*
X115600000Y-140788072D01*
X118000000Y-140788072D01*
X118124482Y-140775812D01*
X118244180Y-140739502D01*
X118354494Y-140680537D01*
X118451185Y-140601185D01*
X118530537Y-140504494D01*
X118589502Y-140394180D01*
X118597534Y-140367702D01*
X121736903Y-140367702D01*
X121808486Y-140611671D01*
X122063996Y-140732571D01*
X122338184Y-140801300D01*
X122620512Y-140815217D01*
X122900130Y-140773787D01*
X123166292Y-140678603D01*
X123291514Y-140611671D01*
X123363097Y-140367702D01*
X122550000Y-139554605D01*
X121736903Y-140367702D01*
X118597534Y-140367702D01*
X118625812Y-140274482D01*
X118638072Y-140150000D01*
X118638072Y-139445512D01*
X121109783Y-139445512D01*
X121151213Y-139725130D01*
X121246397Y-139991292D01*
X121313329Y-140116514D01*
X121557298Y-140188097D01*
X122370395Y-139375000D01*
X121557298Y-138561903D01*
X121313329Y-138633486D01*
X121192429Y-138888996D01*
X121123700Y-139163184D01*
X121109783Y-139445512D01*
X118638072Y-139445512D01*
X118638072Y-138382298D01*
X121736903Y-138382298D01*
X122550000Y-139195395D01*
X123363097Y-138382298D01*
X123291514Y-138138329D01*
X123036004Y-138017429D01*
X122761816Y-137948700D01*
X122479488Y-137934783D01*
X122199870Y-137976213D01*
X121933708Y-138071397D01*
X121808486Y-138138329D01*
X121736903Y-138382298D01*
X118638072Y-138382298D01*
X118638072Y-137750000D01*
X118625812Y-137625518D01*
X118589502Y-137505820D01*
X118530537Y-137395506D01*
X118451185Y-137298815D01*
X118354494Y-137219463D01*
X118244180Y-137160498D01*
X118124482Y-137124188D01*
X118000000Y-137111928D01*
X115600000Y-137111928D01*
X115475518Y-137124188D01*
X115355820Y-137160498D01*
X115245506Y-137219463D01*
X115148815Y-137298815D01*
X115069463Y-137395506D01*
X115010498Y-137505820D01*
X114974188Y-137625518D01*
X114961928Y-137750000D01*
X93189022Y-137750000D01*
X93103819Y-137646181D01*
X92824404Y-137416871D01*
X92560000Y-137275545D01*
X92560000Y-137067702D01*
X121736903Y-137067702D01*
X121808486Y-137311671D01*
X122063996Y-137432571D01*
X122338184Y-137501300D01*
X122620512Y-137515217D01*
X122900130Y-137473787D01*
X123166292Y-137378603D01*
X123291514Y-137311671D01*
X123363097Y-137067702D01*
X122550000Y-136254605D01*
X121736903Y-137067702D01*
X92560000Y-137067702D01*
X92560000Y-136145512D01*
X121109783Y-136145512D01*
X121151213Y-136425130D01*
X121246397Y-136691292D01*
X121313329Y-136816514D01*
X121557298Y-136888097D01*
X122370395Y-136075000D01*
X121557298Y-135261903D01*
X121313329Y-135333486D01*
X121192429Y-135588996D01*
X121123700Y-135863184D01*
X121109783Y-136145512D01*
X92560000Y-136145512D01*
X92560000Y-135082298D01*
X121736903Y-135082298D01*
X122550000Y-135895395D01*
X123363097Y-135082298D01*
X123291514Y-134838329D01*
X123036004Y-134717429D01*
X122761816Y-134648700D01*
X122479488Y-134634783D01*
X122199870Y-134676213D01*
X121933708Y-134771397D01*
X121808486Y-134838329D01*
X121736903Y-135082298D01*
X92560000Y-135082298D01*
X92560000Y-130568514D01*
X119740000Y-130568514D01*
X119740000Y-130831486D01*
X119791304Y-131089405D01*
X119891939Y-131332359D01*
X120038038Y-131551013D01*
X120223987Y-131736962D01*
X120335001Y-131811138D01*
X120335000Y-132046702D01*
X120146445Y-132201445D01*
X119979618Y-132404725D01*
X119855653Y-132636646D01*
X119779317Y-132888294D01*
X119753541Y-133150000D01*
X119779317Y-133411706D01*
X119855653Y-133663354D01*
X119979618Y-133895275D01*
X120146445Y-134098555D01*
X120349725Y-134265382D01*
X120581646Y-134389347D01*
X120833294Y-134465683D01*
X121029421Y-134485000D01*
X121160579Y-134485000D01*
X121356706Y-134465683D01*
X121608354Y-134389347D01*
X121840275Y-134265382D01*
X122043555Y-134098555D01*
X122210382Y-133895275D01*
X122334347Y-133663354D01*
X122410683Y-133411706D01*
X122436459Y-133150000D01*
X122410683Y-132888294D01*
X122334347Y-132636646D01*
X122210382Y-132404725D01*
X122043555Y-132201445D01*
X121855000Y-132046702D01*
X121855000Y-131784411D01*
X121926013Y-131736962D01*
X122111962Y-131551013D01*
X122258061Y-131332359D01*
X122358696Y-131089405D01*
X122410000Y-130831486D01*
X122410000Y-130568514D01*
X122388645Y-130461157D01*
X123036004Y-129813798D01*
X123065001Y-129790001D01*
X123159974Y-129674276D01*
X123230546Y-129542247D01*
X123274003Y-129398986D01*
X123285000Y-129287333D01*
X123285000Y-129287325D01*
X123288676Y-129250000D01*
X123285000Y-129212675D01*
X123285000Y-128968043D01*
X123439759Y-128864637D01*
X123639637Y-128664759D01*
X123775000Y-128462173D01*
X123910363Y-128664759D01*
X124110241Y-128864637D01*
X124265001Y-128968044D01*
X124265000Y-131049679D01*
X124261324Y-131087002D01*
X124265000Y-131124324D01*
X124265000Y-131124334D01*
X124275997Y-131235987D01*
X124316357Y-131369039D01*
X124319454Y-131379248D01*
X124390026Y-131511278D01*
X124420972Y-131548985D01*
X124484999Y-131627003D01*
X124514002Y-131650805D01*
X125099199Y-132236003D01*
X125122998Y-132265002D01*
X125149925Y-132287100D01*
X125138038Y-132298987D01*
X124991939Y-132517641D01*
X124891304Y-132760595D01*
X124840000Y-133018514D01*
X124840000Y-133281486D01*
X124891304Y-133539405D01*
X124991939Y-133782359D01*
X125138038Y-134001013D01*
X125323987Y-134186962D01*
X125415000Y-134247775D01*
X125415000Y-134684490D01*
X125191335Y-134640000D01*
X124908665Y-134640000D01*
X124631426Y-134695147D01*
X124370273Y-134803320D01*
X124135241Y-134960363D01*
X123935363Y-135160241D01*
X123801308Y-135360869D01*
X123786671Y-135333486D01*
X123542702Y-135261903D01*
X122729605Y-136075000D01*
X123542702Y-136888097D01*
X123786671Y-136816514D01*
X123800324Y-136787659D01*
X123935363Y-136989759D01*
X124135241Y-137189637D01*
X124370273Y-137346680D01*
X124631426Y-137454853D01*
X124908665Y-137510000D01*
X125191335Y-137510000D01*
X125415001Y-137465510D01*
X125415001Y-137935197D01*
X125373886Y-137976312D01*
X125191335Y-137940000D01*
X124908665Y-137940000D01*
X124631426Y-137995147D01*
X124370273Y-138103320D01*
X124135241Y-138260363D01*
X123935363Y-138460241D01*
X123801308Y-138660869D01*
X123786671Y-138633486D01*
X123542702Y-138561903D01*
X122729605Y-139375000D01*
X123542702Y-140188097D01*
X123786671Y-140116514D01*
X123800324Y-140087659D01*
X123935363Y-140289759D01*
X124135241Y-140489637D01*
X124370273Y-140646680D01*
X124631426Y-140754853D01*
X124908665Y-140810000D01*
X125191335Y-140810000D01*
X125468574Y-140754853D01*
X125729727Y-140646680D01*
X125964759Y-140489637D01*
X126164637Y-140289759D01*
X126321680Y-140054727D01*
X126429853Y-139793574D01*
X126485000Y-139516335D01*
X126485000Y-139233665D01*
X126448688Y-139051114D01*
X126686003Y-138813799D01*
X126715001Y-138790001D01*
X126809974Y-138674276D01*
X126880546Y-138542247D01*
X126924003Y-138398986D01*
X126935000Y-138287333D01*
X126935000Y-138287324D01*
X126938676Y-138250001D01*
X126935000Y-138212678D01*
X126935000Y-134624801D01*
X127704292Y-135394094D01*
X127690764Y-135438691D01*
X127663057Y-135720000D01*
X127690764Y-136001309D01*
X127772818Y-136271808D01*
X127906068Y-136521101D01*
X128085392Y-136739608D01*
X128303899Y-136918932D01*
X128436858Y-136990000D01*
X128303899Y-137061068D01*
X128085392Y-137240392D01*
X127906068Y-137458899D01*
X127772818Y-137708192D01*
X127690764Y-137978691D01*
X127663057Y-138260000D01*
X127690764Y-138541309D01*
X127772818Y-138811808D01*
X127906068Y-139061101D01*
X128085392Y-139279608D01*
X128303899Y-139458932D01*
X128436858Y-139530000D01*
X128303899Y-139601068D01*
X128085392Y-139780392D01*
X127906068Y-139998899D01*
X127772818Y-140248192D01*
X127690764Y-140518691D01*
X127663057Y-140800000D01*
X127690764Y-141081309D01*
X127772818Y-141351808D01*
X127906068Y-141601101D01*
X128085392Y-141819608D01*
X128303899Y-141998932D01*
X128553192Y-142132182D01*
X128823691Y-142214236D01*
X129034508Y-142235000D01*
X129175492Y-142235000D01*
X129386309Y-142214236D01*
X129656808Y-142132182D01*
X129906101Y-141998932D01*
X130124608Y-141819608D01*
X130303932Y-141601101D01*
X130437182Y-141351808D01*
X130519236Y-141081309D01*
X130546943Y-140800000D01*
X130519236Y-140518691D01*
X130437182Y-140248192D01*
X130303932Y-139998899D01*
X130214670Y-139890133D01*
X130741005Y-139363799D01*
X130770002Y-139340002D01*
X130864975Y-139224277D01*
X130935547Y-139092248D01*
X130979004Y-138948987D01*
X130990001Y-138837334D01*
X130990001Y-138837326D01*
X130993677Y-138800001D01*
X130990001Y-138762676D01*
X130990001Y-136882323D01*
X130993677Y-136845000D01*
X130990001Y-136807677D01*
X130990001Y-136807668D01*
X130979004Y-136696015D01*
X130935547Y-136552754D01*
X130864975Y-136420725D01*
X130770002Y-136305000D01*
X130740998Y-136281197D01*
X130505708Y-136045907D01*
X130519236Y-136001309D01*
X130546943Y-135720000D01*
X130519236Y-135438691D01*
X130437182Y-135168192D01*
X130303932Y-134918899D01*
X130124608Y-134700392D01*
X129906101Y-134521068D01*
X129773142Y-134450000D01*
X129906101Y-134378932D01*
X130124608Y-134199608D01*
X130303932Y-133981101D01*
X130437182Y-133731808D01*
X130519236Y-133461309D01*
X130546943Y-133180000D01*
X130519236Y-132898691D01*
X130437182Y-132628192D01*
X130303932Y-132378899D01*
X130124608Y-132160392D01*
X129906101Y-131981068D01*
X129773142Y-131910000D01*
X129906101Y-131838932D01*
X130124608Y-131659608D01*
X130303932Y-131441101D01*
X130437182Y-131191808D01*
X130519236Y-130921309D01*
X130546943Y-130640000D01*
X130519236Y-130358691D01*
X130437182Y-130088192D01*
X130303932Y-129838899D01*
X130124608Y-129620392D01*
X129906101Y-129441068D01*
X129773142Y-129370000D01*
X129906101Y-129298932D01*
X130124608Y-129119608D01*
X130303932Y-128901101D01*
X130437182Y-128651808D01*
X130519236Y-128381309D01*
X130546943Y-128100000D01*
X130519236Y-127818691D01*
X130505708Y-127774094D01*
X130741005Y-127538797D01*
X130770002Y-127515000D01*
X130864975Y-127399275D01*
X130935547Y-127267246D01*
X130979004Y-127123985D01*
X130990001Y-127012332D01*
X130990001Y-127012324D01*
X130993677Y-126974999D01*
X130990001Y-126937674D01*
X130990001Y-125584800D01*
X136000967Y-120573835D01*
X135988541Y-120700000D01*
X136012450Y-120942748D01*
X135088997Y-121866202D01*
X135059999Y-121890000D01*
X135036201Y-121918998D01*
X135036200Y-121918999D01*
X134965025Y-122005725D01*
X134894453Y-122137755D01*
X134850997Y-122281016D01*
X134836323Y-122430001D01*
X134840000Y-122467333D01*
X134839999Y-126062678D01*
X134836323Y-126100001D01*
X134839999Y-126137323D01*
X134839999Y-126137333D01*
X134850996Y-126248986D01*
X134871021Y-126315000D01*
X134894453Y-126392247D01*
X134965025Y-126524277D01*
X134986729Y-126550723D01*
X135059998Y-126640002D01*
X135089001Y-126663805D01*
X135615330Y-127190133D01*
X135526068Y-127298899D01*
X135392818Y-127548192D01*
X135310764Y-127818691D01*
X135283057Y-128100000D01*
X135310764Y-128381309D01*
X135324292Y-128425907D01*
X135088997Y-128661202D01*
X135059999Y-128685000D01*
X135036201Y-128713998D01*
X135036200Y-128713999D01*
X134965025Y-128800725D01*
X134894453Y-128932755D01*
X134868237Y-129019180D01*
X134850997Y-129076015D01*
X134849548Y-129090723D01*
X134836323Y-129225001D01*
X134840000Y-129262333D01*
X134839999Y-131142678D01*
X134836323Y-131180001D01*
X134839999Y-131217323D01*
X134839999Y-131217333D01*
X134850996Y-131328986D01*
X134885005Y-131441101D01*
X134894453Y-131472247D01*
X134965025Y-131604277D01*
X135004870Y-131652827D01*
X135059998Y-131720002D01*
X135089001Y-131743805D01*
X135615330Y-132270133D01*
X135526068Y-132378899D01*
X135392818Y-132628192D01*
X135310764Y-132898691D01*
X135283057Y-133180000D01*
X135310764Y-133461309D01*
X135392818Y-133731808D01*
X135526068Y-133981101D01*
X135705392Y-134199608D01*
X135923899Y-134378932D01*
X136056858Y-134450000D01*
X135923899Y-134521068D01*
X135705392Y-134700392D01*
X135526068Y-134918899D01*
X135392818Y-135168192D01*
X135310764Y-135438691D01*
X135283057Y-135720000D01*
X135310764Y-136001309D01*
X135324292Y-136045907D01*
X135088997Y-136281202D01*
X135059999Y-136305000D01*
X135036201Y-136333998D01*
X135036200Y-136333999D01*
X134965025Y-136420725D01*
X134894453Y-136552755D01*
X134891951Y-136561004D01*
X134850998Y-136696014D01*
X134850997Y-136696016D01*
X134836323Y-136845001D01*
X134840000Y-136882333D01*
X134839999Y-138762678D01*
X134836323Y-138800001D01*
X134839999Y-138837323D01*
X134839999Y-138837333D01*
X134850996Y-138948986D01*
X134873653Y-139023676D01*
X134894453Y-139092247D01*
X134965025Y-139224277D01*
X134972730Y-139233665D01*
X135059998Y-139340002D01*
X135089001Y-139363805D01*
X135386187Y-139660990D01*
X135335498Y-139755820D01*
X135299188Y-139875518D01*
X135286928Y-140000000D01*
X135286928Y-141600000D01*
X135299188Y-141724482D01*
X135335498Y-141844180D01*
X135394463Y-141954494D01*
X135473815Y-142051185D01*
X135570506Y-142130537D01*
X135680820Y-142189502D01*
X135800518Y-142225812D01*
X135925000Y-142238072D01*
X137525000Y-142238072D01*
X137649482Y-142225812D01*
X137769180Y-142189502D01*
X137879494Y-142130537D01*
X137976185Y-142051185D01*
X138055537Y-141954494D01*
X138114502Y-141844180D01*
X138150812Y-141724482D01*
X138163072Y-141600000D01*
X138163072Y-140000000D01*
X138150812Y-139875518D01*
X138114502Y-139755820D01*
X138055537Y-139645506D01*
X137976185Y-139548815D01*
X137879494Y-139469463D01*
X137769180Y-139410498D01*
X137649482Y-139374188D01*
X137631518Y-139372419D01*
X137744608Y-139279608D01*
X137923932Y-139061101D01*
X138057182Y-138811808D01*
X138139236Y-138541309D01*
X138166943Y-138260000D01*
X138151185Y-138100000D01*
X140973000Y-138100000D01*
X140973000Y-143300000D01*
X140975440Y-143324776D01*
X140982667Y-143348601D01*
X140994403Y-143370557D01*
X141010197Y-143389803D01*
X141029443Y-143405597D01*
X141051399Y-143417333D01*
X141075224Y-143424560D01*
X141100000Y-143427000D01*
X146300000Y-143427000D01*
X146324776Y-143424560D01*
X146348601Y-143417333D01*
X146370557Y-143405597D01*
X146389803Y-143389803D01*
X146405597Y-143370557D01*
X146417333Y-143348601D01*
X146424560Y-143324776D01*
X146427000Y-143300000D01*
X146427000Y-138100000D01*
X146424560Y-138075224D01*
X146417333Y-138051399D01*
X146405597Y-138029443D01*
X146389803Y-138010197D01*
X146370557Y-137994403D01*
X146348601Y-137982667D01*
X146324776Y-137975440D01*
X146300000Y-137973000D01*
X141100000Y-137973000D01*
X141075224Y-137975440D01*
X141051399Y-137982667D01*
X141029443Y-137994403D01*
X141010197Y-138010197D01*
X140994403Y-138029443D01*
X140982667Y-138051399D01*
X140975440Y-138075224D01*
X140973000Y-138100000D01*
X138151185Y-138100000D01*
X138139236Y-137978691D01*
X138125708Y-137934094D01*
X140903685Y-135156117D01*
X140998102Y-135195226D01*
X141198061Y-135235000D01*
X141401939Y-135235000D01*
X141601898Y-135195226D01*
X141790256Y-135117205D01*
X141959774Y-135003937D01*
X142103937Y-134859774D01*
X142217205Y-134690256D01*
X142295226Y-134501898D01*
X142335000Y-134301939D01*
X142335000Y-134098061D01*
X142295226Y-133898102D01*
X142217205Y-133709744D01*
X142103937Y-133540226D01*
X141959774Y-133396063D01*
X141790256Y-133282795D01*
X141601898Y-133204774D01*
X141401939Y-133165000D01*
X141198061Y-133165000D01*
X140998102Y-133204774D01*
X140809744Y-133282795D01*
X140640226Y-133396063D01*
X140563206Y-133473083D01*
X140502580Y-133491473D01*
X140492753Y-133494454D01*
X140360723Y-133565026D01*
X140278886Y-133632189D01*
X140244999Y-133659999D01*
X140221201Y-133688997D01*
X138164402Y-135745796D01*
X138166943Y-135720000D01*
X138139236Y-135438691D01*
X138057182Y-135168192D01*
X137923932Y-134918899D01*
X137744608Y-134700392D01*
X137526101Y-134521068D01*
X137393142Y-134450000D01*
X137526101Y-134378932D01*
X137744608Y-134199608D01*
X137923932Y-133981101D01*
X138057182Y-133731808D01*
X138139236Y-133461309D01*
X138166943Y-133180000D01*
X138139236Y-132898691D01*
X138057182Y-132628192D01*
X137923932Y-132378899D01*
X137744608Y-132160392D01*
X137526101Y-131981068D01*
X137393142Y-131910000D01*
X137526101Y-131838932D01*
X137744608Y-131659608D01*
X137923932Y-131441101D01*
X137945901Y-131400000D01*
X142025199Y-131400000D01*
X142065000Y-131439801D01*
X142065000Y-131501939D01*
X142104774Y-131701898D01*
X142182795Y-131890256D01*
X142296063Y-132059774D01*
X142440226Y-132203937D01*
X142609744Y-132317205D01*
X142798102Y-132395226D01*
X142998061Y-132435000D01*
X143201939Y-132435000D01*
X143401898Y-132395226D01*
X143590256Y-132317205D01*
X143759774Y-132203937D01*
X143854455Y-132109256D01*
X144979292Y-133234094D01*
X144965764Y-133278691D01*
X144938057Y-133560000D01*
X144965764Y-133841309D01*
X145047818Y-134111808D01*
X145181068Y-134361101D01*
X145360392Y-134579608D01*
X145578899Y-134758932D01*
X145711858Y-134830000D01*
X145578899Y-134901068D01*
X145360392Y-135080392D01*
X145181068Y-135298899D01*
X145047818Y-135548192D01*
X144965764Y-135818691D01*
X144938057Y-136100000D01*
X144965764Y-136381309D01*
X145047818Y-136651808D01*
X145181068Y-136901101D01*
X145360392Y-137119608D01*
X145578899Y-137298932D01*
X145828192Y-137432182D01*
X146098691Y-137514236D01*
X146309508Y-137535000D01*
X146450492Y-137535000D01*
X146661309Y-137514236D01*
X146931808Y-137432182D01*
X147181101Y-137298932D01*
X147399608Y-137119608D01*
X147578932Y-136901101D01*
X147712182Y-136651808D01*
X147794236Y-136381309D01*
X147821943Y-136100000D01*
X147794236Y-135818691D01*
X147712182Y-135548192D01*
X147578932Y-135298899D01*
X147399608Y-135080392D01*
X147181101Y-134901068D01*
X147048142Y-134830000D01*
X147181101Y-134758932D01*
X147399608Y-134579608D01*
X147578932Y-134361101D01*
X147712182Y-134111808D01*
X147794236Y-133841309D01*
X147821943Y-133560000D01*
X147794236Y-133278691D01*
X147712182Y-133008192D01*
X147578932Y-132758899D01*
X147399608Y-132540392D01*
X147181101Y-132361068D01*
X147043318Y-132287421D01*
X147235131Y-132172385D01*
X147443519Y-131983414D01*
X147611037Y-131757420D01*
X147731246Y-131503087D01*
X147771904Y-131369039D01*
X147649915Y-131147000D01*
X146507000Y-131147000D01*
X146507000Y-131167000D01*
X146253000Y-131167000D01*
X146253000Y-131147000D01*
X145110085Y-131147000D01*
X145085872Y-131191071D01*
X143560000Y-129665199D01*
X143560000Y-129413072D01*
X143600000Y-129413072D01*
X143724482Y-129400812D01*
X143844180Y-129364502D01*
X143954494Y-129305537D01*
X144051185Y-129226185D01*
X144130537Y-129129494D01*
X144189502Y-129019180D01*
X144225812Y-128899482D01*
X144238072Y-128775000D01*
X144238072Y-127175000D01*
X144225812Y-127050518D01*
X144189502Y-126930820D01*
X144130537Y-126820506D01*
X144051185Y-126723815D01*
X143954494Y-126644463D01*
X143844180Y-126585498D01*
X143724482Y-126549188D01*
X143600000Y-126536928D01*
X142000000Y-126536928D01*
X141875518Y-126549188D01*
X141755820Y-126585498D01*
X141645506Y-126644463D01*
X141548815Y-126723815D01*
X141469463Y-126820506D01*
X141410498Y-126930820D01*
X141374188Y-127050518D01*
X141361928Y-127175000D01*
X141361928Y-127182215D01*
X141292702Y-127161903D01*
X140479605Y-127975000D01*
X141292702Y-128788097D01*
X141361928Y-128767785D01*
X141361928Y-128775000D01*
X141374188Y-128899482D01*
X141410498Y-129019180D01*
X141469463Y-129129494D01*
X141548815Y-129226185D01*
X141645506Y-129305537D01*
X141755820Y-129364502D01*
X141875518Y-129400812D01*
X142000000Y-129413072D01*
X142040000Y-129413072D01*
X142040000Y-129880000D01*
X137945901Y-129880000D01*
X137923932Y-129838899D01*
X137744608Y-129620392D01*
X137526101Y-129441068D01*
X137393142Y-129370000D01*
X137526101Y-129298932D01*
X137744608Y-129119608D01*
X137869273Y-128967702D01*
X139486903Y-128967702D01*
X139558486Y-129211671D01*
X139813996Y-129332571D01*
X140088184Y-129401300D01*
X140370512Y-129415217D01*
X140650130Y-129373787D01*
X140916292Y-129278603D01*
X141041514Y-129211671D01*
X141113097Y-128967702D01*
X140300000Y-128154605D01*
X139486903Y-128967702D01*
X137869273Y-128967702D01*
X137923932Y-128901101D01*
X138057182Y-128651808D01*
X138139236Y-128381309D01*
X138166943Y-128100000D01*
X138161577Y-128045512D01*
X138859783Y-128045512D01*
X138901213Y-128325130D01*
X138996397Y-128591292D01*
X139063329Y-128716514D01*
X139307298Y-128788097D01*
X140120395Y-127975000D01*
X139307298Y-127161903D01*
X139063329Y-127233486D01*
X138942429Y-127488996D01*
X138873700Y-127763184D01*
X138859783Y-128045512D01*
X138161577Y-128045512D01*
X138139236Y-127818691D01*
X138057182Y-127548192D01*
X137923932Y-127298899D01*
X137744608Y-127080392D01*
X137625081Y-126982298D01*
X139486903Y-126982298D01*
X140300000Y-127795395D01*
X141113097Y-126982298D01*
X141041514Y-126738329D01*
X140786004Y-126617429D01*
X140511816Y-126548700D01*
X140229488Y-126534783D01*
X139949870Y-126576213D01*
X139683708Y-126671397D01*
X139558486Y-126738329D01*
X139486903Y-126982298D01*
X137625081Y-126982298D01*
X137526101Y-126901068D01*
X137388318Y-126827421D01*
X137580131Y-126712385D01*
X137788519Y-126523414D01*
X137956037Y-126297420D01*
X138076246Y-126043087D01*
X138116904Y-125909039D01*
X137994915Y-125687000D01*
X136852000Y-125687000D01*
X136852000Y-125707000D01*
X136598000Y-125707000D01*
X136598000Y-125687000D01*
X136578000Y-125687000D01*
X136578000Y-125433000D01*
X136598000Y-125433000D01*
X136598000Y-124289376D01*
X136852000Y-124289376D01*
X136852000Y-125433000D01*
X137994915Y-125433000D01*
X138116904Y-125210961D01*
X138076246Y-125076913D01*
X137956037Y-124822580D01*
X137788519Y-124596586D01*
X137580131Y-124407615D01*
X137338881Y-124262930D01*
X137074040Y-124168091D01*
X136852000Y-124289376D01*
X136598000Y-124289376D01*
X136375960Y-124168091D01*
X136359999Y-124173807D01*
X136359999Y-122744802D01*
X137087252Y-122017550D01*
X137264421Y-122035000D01*
X137395579Y-122035000D01*
X137591706Y-122015683D01*
X137843354Y-121939347D01*
X138075275Y-121815382D01*
X138278555Y-121648555D01*
X138445382Y-121445275D01*
X138569347Y-121213354D01*
X138645683Y-120961706D01*
X138671459Y-120700000D01*
X138645683Y-120438294D01*
X138569347Y-120186646D01*
X138445382Y-119954725D01*
X138278555Y-119751445D01*
X138075275Y-119584618D01*
X137843354Y-119460653D01*
X137786599Y-119443437D01*
X137932359Y-119383061D01*
X138151013Y-119236962D01*
X138336962Y-119051013D01*
X138483061Y-118832359D01*
X138583696Y-118589405D01*
X138635000Y-118331486D01*
X138635000Y-118068514D01*
X138583696Y-117810595D01*
X138483061Y-117567641D01*
X138336962Y-117348987D01*
X138151013Y-117163038D01*
X138060000Y-117102225D01*
X138060000Y-116587322D01*
X138063676Y-116549999D01*
X138060000Y-116512676D01*
X138060000Y-116512667D01*
X138049003Y-116401014D01*
X138005546Y-116257753D01*
X137934974Y-116125724D01*
X137840001Y-116009999D01*
X137811003Y-115986201D01*
X137348688Y-115523886D01*
X137385000Y-115341335D01*
X137385000Y-115058665D01*
X137329853Y-114781426D01*
X137221680Y-114520273D01*
X137064637Y-114285241D01*
X136864759Y-114085363D01*
X136629727Y-113928320D01*
X136368574Y-113820147D01*
X136091335Y-113765000D01*
X135808665Y-113765000D01*
X135531426Y-113820147D01*
X135270273Y-113928320D01*
X135035241Y-114085363D01*
X134835363Y-114285241D01*
X134701308Y-114485869D01*
X134686671Y-114458486D01*
X134442702Y-114386903D01*
X133629605Y-115200000D01*
X134442702Y-116013097D01*
X134686671Y-115941514D01*
X134700324Y-115912659D01*
X134835363Y-116114759D01*
X135035241Y-116314637D01*
X135270273Y-116471680D01*
X135531426Y-116579853D01*
X135808665Y-116635000D01*
X136091335Y-116635000D01*
X136273886Y-116598688D01*
X136540001Y-116864803D01*
X136540001Y-117102225D01*
X136448987Y-117163038D01*
X136263038Y-117348987D01*
X136116939Y-117567641D01*
X136016304Y-117810595D01*
X135965000Y-118068514D01*
X135965000Y-118331486D01*
X135986355Y-118438842D01*
X133582837Y-120842361D01*
X133585000Y-120831486D01*
X133585000Y-120568514D01*
X133533696Y-120310595D01*
X133433061Y-120067641D01*
X133286962Y-119848987D01*
X133101013Y-119663038D01*
X133010000Y-119602225D01*
X133010000Y-119278677D01*
X133168555Y-119148555D01*
X133335382Y-118945275D01*
X133459347Y-118713354D01*
X133535683Y-118461706D01*
X133561459Y-118200000D01*
X133535683Y-117938294D01*
X133459347Y-117686646D01*
X133335382Y-117454725D01*
X133168555Y-117251445D01*
X132965275Y-117084618D01*
X132733354Y-116960653D01*
X132481706Y-116884317D01*
X132285579Y-116865000D01*
X132154421Y-116865000D01*
X131958294Y-116884317D01*
X131706646Y-116960653D01*
X131474725Y-117084618D01*
X131271445Y-117251445D01*
X131104618Y-117454725D01*
X130980653Y-117686646D01*
X130904317Y-117938294D01*
X130878541Y-118200000D01*
X130904317Y-118461706D01*
X130980653Y-118713354D01*
X131104618Y-118945275D01*
X131271445Y-119148555D01*
X131474725Y-119315382D01*
X131490001Y-119323547D01*
X131490000Y-119602225D01*
X131398987Y-119663038D01*
X131213038Y-119848987D01*
X131066939Y-120067641D01*
X130966304Y-120310595D01*
X130915000Y-120568514D01*
X130915000Y-120831486D01*
X130966304Y-121089405D01*
X131066939Y-121332359D01*
X131213038Y-121551013D01*
X131398987Y-121736962D01*
X131617641Y-121883061D01*
X131860595Y-121983696D01*
X132118514Y-122035000D01*
X132381486Y-122035000D01*
X132392361Y-122032837D01*
X130010000Y-124415199D01*
X130010000Y-121918043D01*
X130164759Y-121814637D01*
X130364637Y-121614759D01*
X130521680Y-121379727D01*
X130629853Y-121118574D01*
X130685000Y-120841335D01*
X130685000Y-120558665D01*
X130629853Y-120281426D01*
X130521680Y-120020273D01*
X130364637Y-119785241D01*
X130164759Y-119585363D01*
X129962173Y-119450000D01*
X130164759Y-119314637D01*
X130364637Y-119114759D01*
X130521680Y-118879727D01*
X130629853Y-118618574D01*
X130685000Y-118341335D01*
X130685000Y-118058665D01*
X130629853Y-117781426D01*
X130521680Y-117520273D01*
X130364637Y-117285241D01*
X130164759Y-117085363D01*
X129929727Y-116928320D01*
X129668574Y-116820147D01*
X129391335Y-116765000D01*
X129108665Y-116765000D01*
X128831426Y-116820147D01*
X128570273Y-116928320D01*
X128335241Y-117085363D01*
X128135363Y-117285241D01*
X127978320Y-117520273D01*
X127870147Y-117781426D01*
X127815000Y-118058665D01*
X127815000Y-118341335D01*
X127870147Y-118618574D01*
X127978320Y-118879727D01*
X128135363Y-119114759D01*
X128335241Y-119314637D01*
X128537827Y-119450000D01*
X128335241Y-119585363D01*
X128135363Y-119785241D01*
X127978320Y-120020273D01*
X127870147Y-120281426D01*
X127815000Y-120558665D01*
X127815000Y-120841335D01*
X127870147Y-121118574D01*
X127978320Y-121379727D01*
X128135363Y-121614759D01*
X128335241Y-121814637D01*
X128490000Y-121918044D01*
X128490001Y-124261594D01*
X128303899Y-124361068D01*
X128289989Y-124372484D01*
X128289989Y-123419777D01*
X128293908Y-123379989D01*
X128289989Y-123340198D01*
X128278269Y-123221201D01*
X128231952Y-123068516D01*
X128231952Y-123068515D01*
X128156738Y-122927800D01*
X128100101Y-122858787D01*
X128055517Y-122804461D01*
X128024607Y-122779094D01*
X127832871Y-122587358D01*
X127795226Y-122398102D01*
X127717205Y-122209744D01*
X127603937Y-122040226D01*
X127459774Y-121896063D01*
X127290256Y-121782795D01*
X127101898Y-121704774D01*
X126901939Y-121665000D01*
X126864396Y-121665000D01*
X126914637Y-121614759D01*
X127071680Y-121379727D01*
X127179853Y-121118574D01*
X127235000Y-120841335D01*
X127235000Y-120558665D01*
X127179853Y-120281426D01*
X127071680Y-120020273D01*
X126914637Y-119785241D01*
X126714759Y-119585363D01*
X126512173Y-119450000D01*
X126714759Y-119314637D01*
X126914637Y-119114759D01*
X127071680Y-118879727D01*
X127179853Y-118618574D01*
X127235000Y-118341335D01*
X127235000Y-118058665D01*
X127179853Y-117781426D01*
X127071680Y-117520273D01*
X126914637Y-117285241D01*
X126714759Y-117085363D01*
X126479727Y-116928320D01*
X126218574Y-116820147D01*
X125941335Y-116765000D01*
X125658665Y-116765000D01*
X125381426Y-116820147D01*
X125120273Y-116928320D01*
X124885241Y-117085363D01*
X124685363Y-117285241D01*
X124528320Y-117520273D01*
X124420147Y-117781426D01*
X124365000Y-118058665D01*
X124365000Y-118341335D01*
X124420147Y-118618574D01*
X124528320Y-118879727D01*
X124685363Y-119114759D01*
X124885241Y-119314637D01*
X125087827Y-119450000D01*
X124885241Y-119585363D01*
X124685363Y-119785241D01*
X124528320Y-120020273D01*
X124420147Y-120281426D01*
X124365000Y-120558665D01*
X124365000Y-120841335D01*
X124420147Y-121118574D01*
X124528320Y-121379727D01*
X124685363Y-121614759D01*
X124885241Y-121814637D01*
X125120273Y-121971680D01*
X125381426Y-122079853D01*
X125658665Y-122135000D01*
X125932737Y-122135000D01*
X125882795Y-122209744D01*
X125804774Y-122398102D01*
X125765000Y-122598061D01*
X125765000Y-122801939D01*
X125804774Y-123001898D01*
X125882795Y-123190256D01*
X125996063Y-123359774D01*
X126140226Y-123503937D01*
X126309744Y-123617205D01*
X126498102Y-123695226D01*
X126669990Y-123729416D01*
X126669989Y-129461527D01*
X126668354Y-129460653D01*
X126416706Y-129384317D01*
X126220579Y-129365000D01*
X126089421Y-129365000D01*
X125893294Y-129384317D01*
X125785000Y-129417167D01*
X125785000Y-128968043D01*
X125939759Y-128864637D01*
X126139637Y-128664759D01*
X126296680Y-128429727D01*
X126404853Y-128168574D01*
X126460000Y-127891335D01*
X126460000Y-127608665D01*
X126404853Y-127331426D01*
X126296680Y-127070273D01*
X126139637Y-126835241D01*
X125939759Y-126635363D01*
X125785000Y-126531957D01*
X125785000Y-125643043D01*
X125939759Y-125539637D01*
X126139637Y-125339759D01*
X126296680Y-125104727D01*
X126404853Y-124843574D01*
X126460000Y-124566335D01*
X126460000Y-124283665D01*
X126404853Y-124006426D01*
X126296680Y-123745273D01*
X126139637Y-123510241D01*
X125939759Y-123310363D01*
X125704727Y-123153320D01*
X125443574Y-123045147D01*
X125166335Y-122990000D01*
X124883665Y-122990000D01*
X124606426Y-123045147D01*
X124345273Y-123153320D01*
X124110241Y-123310363D01*
X123910363Y-123510241D01*
X123775000Y-123712827D01*
X123639637Y-123510241D01*
X123439759Y-123310363D01*
X123204727Y-123153320D01*
X122943574Y-123045147D01*
X122666335Y-122990000D01*
X122383665Y-122990000D01*
X122106426Y-123045147D01*
X121845273Y-123153320D01*
X121610241Y-123310363D01*
X121410363Y-123510241D01*
X121253320Y-123745273D01*
X121145147Y-124006426D01*
X121090000Y-124283665D01*
X121090000Y-124566335D01*
X121145147Y-124843574D01*
X121253320Y-125104727D01*
X121410363Y-125339759D01*
X121610241Y-125539637D01*
X121765000Y-125643044D01*
X121765000Y-126531957D01*
X121610241Y-126635363D01*
X121410363Y-126835241D01*
X121253320Y-127070273D01*
X121145147Y-127331426D01*
X121090000Y-127608665D01*
X121090000Y-127891335D01*
X121145147Y-128168574D01*
X121253320Y-128429727D01*
X121410363Y-128664759D01*
X121610241Y-128864637D01*
X121745311Y-128954887D01*
X121313843Y-129386355D01*
X121206486Y-129365000D01*
X120943514Y-129365000D01*
X120685595Y-129416304D01*
X120442641Y-129516939D01*
X120223987Y-129663038D01*
X120038038Y-129848987D01*
X119891939Y-130067641D01*
X119791304Y-130310595D01*
X119740000Y-130568514D01*
X92560000Y-130568514D01*
X92560000Y-130012341D01*
X92690535Y-129925120D01*
X92885120Y-129730535D01*
X93038005Y-129501727D01*
X93143314Y-129247490D01*
X93197000Y-128977592D01*
X93197000Y-128702408D01*
X93143314Y-128432510D01*
X93038005Y-128178273D01*
X92885120Y-127949465D01*
X92690535Y-127754880D01*
X92461727Y-127601995D01*
X92384485Y-127570000D01*
X92461727Y-127538005D01*
X92690535Y-127385120D01*
X92885120Y-127190535D01*
X93038005Y-126961727D01*
X93143314Y-126707490D01*
X93197000Y-126437592D01*
X93197000Y-126162408D01*
X94803000Y-126162408D01*
X94803000Y-126437592D01*
X94856686Y-126707490D01*
X94961995Y-126961727D01*
X95114880Y-127190535D01*
X95309465Y-127385120D01*
X95538273Y-127538005D01*
X95615515Y-127570000D01*
X95538273Y-127601995D01*
X95309465Y-127754880D01*
X95114880Y-127949465D01*
X94961995Y-128178273D01*
X94856686Y-128432510D01*
X94803000Y-128702408D01*
X94803000Y-128977592D01*
X94856686Y-129247490D01*
X94961995Y-129501727D01*
X95114880Y-129730535D01*
X95309465Y-129925120D01*
X95538273Y-130078005D01*
X95792510Y-130183314D01*
X96062408Y-130237000D01*
X96337592Y-130237000D01*
X96607490Y-130183314D01*
X96861727Y-130078005D01*
X97090535Y-129925120D01*
X97285120Y-129730535D01*
X97438005Y-129501727D01*
X97543314Y-129247490D01*
X97597000Y-128977592D01*
X97597000Y-128702408D01*
X97543314Y-128432510D01*
X97438005Y-128178273D01*
X97285120Y-127949465D01*
X97090535Y-127754880D01*
X96861727Y-127601995D01*
X96784485Y-127570000D01*
X96861727Y-127538005D01*
X97090535Y-127385120D01*
X97285120Y-127190535D01*
X97438005Y-126961727D01*
X97543314Y-126707490D01*
X97597000Y-126437592D01*
X97597000Y-126162408D01*
X97543314Y-125892510D01*
X97438005Y-125638273D01*
X97285120Y-125409465D01*
X97090535Y-125214880D01*
X96861727Y-125061995D01*
X96790057Y-125032308D01*
X96803023Y-125027636D01*
X96918980Y-124965656D01*
X96985960Y-124725565D01*
X96200000Y-123939605D01*
X95414040Y-124725565D01*
X95481020Y-124965656D01*
X95616760Y-125029485D01*
X95538273Y-125061995D01*
X95309465Y-125214880D01*
X95114880Y-125409465D01*
X94961995Y-125638273D01*
X94856686Y-125892510D01*
X94803000Y-126162408D01*
X93197000Y-126162408D01*
X93143314Y-125892510D01*
X93038005Y-125638273D01*
X92885120Y-125409465D01*
X92690535Y-125214880D01*
X92461727Y-125061995D01*
X92390057Y-125032308D01*
X92403023Y-125027636D01*
X92518980Y-124965656D01*
X92585960Y-124725565D01*
X91800000Y-123939605D01*
X91014040Y-124725565D01*
X91081020Y-124965656D01*
X91216760Y-125029485D01*
X91138273Y-125061995D01*
X90909465Y-125214880D01*
X90714880Y-125409465D01*
X90561995Y-125638273D01*
X90456686Y-125892510D01*
X90403000Y-126162408D01*
X90403000Y-126437592D01*
X90456686Y-126707490D01*
X90561995Y-126961727D01*
X90714880Y-127190535D01*
X90909465Y-127385120D01*
X91138273Y-127538005D01*
X91215515Y-127570000D01*
X91138273Y-127601995D01*
X90909465Y-127754880D01*
X90714880Y-127949465D01*
X90561995Y-128178273D01*
X90456686Y-128432510D01*
X90403000Y-128702408D01*
X90403000Y-128977592D01*
X90456686Y-129247490D01*
X90561995Y-129501727D01*
X90714880Y-129730535D01*
X90909465Y-129925120D01*
X91040001Y-130012342D01*
X91040000Y-137275544D01*
X90775596Y-137416871D01*
X90496181Y-137646181D01*
X90266871Y-137925596D01*
X90096479Y-138244378D01*
X89991552Y-138590277D01*
X89956122Y-138950000D01*
X82127000Y-138950000D01*
X82127000Y-138100000D01*
X82124560Y-138075224D01*
X82117333Y-138051399D01*
X82105597Y-138029443D01*
X82089803Y-138010197D01*
X82070557Y-137994403D01*
X82048601Y-137982667D01*
X82024776Y-137975440D01*
X82000000Y-137973000D01*
X76800000Y-137973000D01*
X76775224Y-137975440D01*
X76751399Y-137982667D01*
X76729443Y-137994403D01*
X76710197Y-138010197D01*
X76694403Y-138029443D01*
X76682667Y-138051399D01*
X76675440Y-138075224D01*
X76673000Y-138100000D01*
X76673000Y-141309352D01*
X76660000Y-141185664D01*
X76660000Y-126162408D01*
X85903000Y-126162408D01*
X85903000Y-126437592D01*
X85956686Y-126707490D01*
X86061995Y-126961727D01*
X86214880Y-127190535D01*
X86409465Y-127385120D01*
X86638273Y-127538005D01*
X86715515Y-127570000D01*
X86638273Y-127601995D01*
X86409465Y-127754880D01*
X86214880Y-127949465D01*
X86061995Y-128178273D01*
X85956686Y-128432510D01*
X85903000Y-128702408D01*
X85903000Y-128977592D01*
X85956686Y-129247490D01*
X86061995Y-129501727D01*
X86214880Y-129730535D01*
X86409465Y-129925120D01*
X86638273Y-130078005D01*
X86892510Y-130183314D01*
X87162408Y-130237000D01*
X87437592Y-130237000D01*
X87707490Y-130183314D01*
X87961727Y-130078005D01*
X88190535Y-129925120D01*
X88385120Y-129730535D01*
X88538005Y-129501727D01*
X88643314Y-129247490D01*
X88697000Y-128977592D01*
X88697000Y-128702408D01*
X88643314Y-128432510D01*
X88538005Y-128178273D01*
X88385120Y-127949465D01*
X88190535Y-127754880D01*
X87961727Y-127601995D01*
X87884485Y-127570000D01*
X87961727Y-127538005D01*
X88190535Y-127385120D01*
X88385120Y-127190535D01*
X88538005Y-126961727D01*
X88643314Y-126707490D01*
X88697000Y-126437592D01*
X88697000Y-126162408D01*
X88643314Y-125892510D01*
X88538005Y-125638273D01*
X88385120Y-125409465D01*
X88190535Y-125214880D01*
X87961727Y-125061995D01*
X87890057Y-125032308D01*
X87903023Y-125027636D01*
X88018980Y-124965656D01*
X88085960Y-124725565D01*
X87300000Y-123939605D01*
X86514040Y-124725565D01*
X86581020Y-124965656D01*
X86716760Y-125029485D01*
X86638273Y-125061995D01*
X86409465Y-125214880D01*
X86214880Y-125409465D01*
X86061995Y-125638273D01*
X85956686Y-125892510D01*
X85903000Y-126162408D01*
X76660000Y-126162408D01*
X76660000Y-123832017D01*
X85898090Y-123832017D01*
X85939078Y-124104133D01*
X86032364Y-124363023D01*
X86094344Y-124478980D01*
X86334435Y-124545960D01*
X87120395Y-123760000D01*
X87479605Y-123760000D01*
X88265565Y-124545960D01*
X88505656Y-124478980D01*
X88622756Y-124229952D01*
X88689023Y-123962865D01*
X88695157Y-123832017D01*
X90398090Y-123832017D01*
X90439078Y-124104133D01*
X90532364Y-124363023D01*
X90594344Y-124478980D01*
X90834435Y-124545960D01*
X91620395Y-123760000D01*
X91979605Y-123760000D01*
X92765565Y-124545960D01*
X93005656Y-124478980D01*
X93122756Y-124229952D01*
X93189023Y-123962865D01*
X93195157Y-123832017D01*
X94798090Y-123832017D01*
X94839078Y-124104133D01*
X94932364Y-124363023D01*
X94994344Y-124478980D01*
X95234435Y-124545960D01*
X96020395Y-123760000D01*
X96379605Y-123760000D01*
X97165565Y-124545960D01*
X97405656Y-124478980D01*
X97522756Y-124229952D01*
X97589023Y-123962865D01*
X97601910Y-123687983D01*
X97560922Y-123415867D01*
X97467636Y-123156977D01*
X97405656Y-123041020D01*
X97165565Y-122974040D01*
X96379605Y-123760000D01*
X96020395Y-123760000D01*
X95234435Y-122974040D01*
X94994344Y-123041020D01*
X94877244Y-123290048D01*
X94810977Y-123557135D01*
X94798090Y-123832017D01*
X93195157Y-123832017D01*
X93201910Y-123687983D01*
X93160922Y-123415867D01*
X93067636Y-123156977D01*
X93005656Y-123041020D01*
X92765565Y-122974040D01*
X91979605Y-123760000D01*
X91620395Y-123760000D01*
X90834435Y-122974040D01*
X90594344Y-123041020D01*
X90477244Y-123290048D01*
X90410977Y-123557135D01*
X90398090Y-123832017D01*
X88695157Y-123832017D01*
X88701910Y-123687983D01*
X88660922Y-123415867D01*
X88567636Y-123156977D01*
X88505656Y-123041020D01*
X88265565Y-122974040D01*
X87479605Y-123760000D01*
X87120395Y-123760000D01*
X86334435Y-122974040D01*
X86094344Y-123041020D01*
X85977244Y-123290048D01*
X85910977Y-123557135D01*
X85898090Y-123832017D01*
X76660000Y-123832017D01*
X76660000Y-122794435D01*
X86514040Y-122794435D01*
X87300000Y-123580395D01*
X88085960Y-122794435D01*
X91014040Y-122794435D01*
X91800000Y-123580395D01*
X92585960Y-122794435D01*
X95414040Y-122794435D01*
X96200000Y-123580395D01*
X96985960Y-122794435D01*
X96918980Y-122554344D01*
X96669952Y-122437244D01*
X96402865Y-122370977D01*
X96127983Y-122358090D01*
X95855867Y-122399078D01*
X95596977Y-122492364D01*
X95481020Y-122554344D01*
X95414040Y-122794435D01*
X92585960Y-122794435D01*
X92518980Y-122554344D01*
X92269952Y-122437244D01*
X92002865Y-122370977D01*
X91727983Y-122358090D01*
X91455867Y-122399078D01*
X91196977Y-122492364D01*
X91081020Y-122554344D01*
X91014040Y-122794435D01*
X88085960Y-122794435D01*
X88018980Y-122554344D01*
X87769952Y-122437244D01*
X87502865Y-122370977D01*
X87227983Y-122358090D01*
X86955867Y-122399078D01*
X86696977Y-122492364D01*
X86581020Y-122554344D01*
X86514040Y-122794435D01*
X76660000Y-122794435D01*
X76660000Y-106648816D01*
X82665000Y-106648816D01*
X82665000Y-106951184D01*
X82723989Y-107247743D01*
X82839701Y-107527095D01*
X83007688Y-107778505D01*
X83221495Y-107992312D01*
X83472905Y-108160299D01*
X83752257Y-108276011D01*
X84048816Y-108335000D01*
X84351184Y-108335000D01*
X84647743Y-108276011D01*
X84927095Y-108160299D01*
X85178505Y-107992312D01*
X85392312Y-107778505D01*
X85560299Y-107527095D01*
X85676011Y-107247743D01*
X85735000Y-106951184D01*
X85735000Y-106668514D01*
X88165000Y-106668514D01*
X88165000Y-106931486D01*
X88216304Y-107189405D01*
X88316939Y-107432359D01*
X88463038Y-107651013D01*
X88648987Y-107836962D01*
X88867641Y-107983061D01*
X89110595Y-108083696D01*
X89368514Y-108135000D01*
X89631486Y-108135000D01*
X89889405Y-108083696D01*
X90132359Y-107983061D01*
X90351013Y-107836962D01*
X90536962Y-107651013D01*
X90683061Y-107432359D01*
X90783696Y-107189405D01*
X90835000Y-106931486D01*
X90835000Y-106668514D01*
X90783696Y-106410595D01*
X90683061Y-106167641D01*
X90536962Y-105948987D01*
X90351013Y-105763038D01*
X90132359Y-105616939D01*
X89889405Y-105516304D01*
X89631486Y-105465000D01*
X89368514Y-105465000D01*
X89110595Y-105516304D01*
X88867641Y-105616939D01*
X88648987Y-105763038D01*
X88463038Y-105948987D01*
X88316939Y-106167641D01*
X88216304Y-106410595D01*
X88165000Y-106668514D01*
X85735000Y-106668514D01*
X85735000Y-106648816D01*
X85676011Y-106352257D01*
X85560299Y-106072905D01*
X85392312Y-105821495D01*
X85178505Y-105607688D01*
X84927095Y-105439701D01*
X84647743Y-105323989D01*
X84351184Y-105265000D01*
X84048816Y-105265000D01*
X83752257Y-105323989D01*
X83472905Y-105439701D01*
X83221495Y-105607688D01*
X83007688Y-105821495D01*
X82839701Y-106072905D01*
X82723989Y-106352257D01*
X82665000Y-106648816D01*
X76660000Y-106648816D01*
X76660000Y-102864080D01*
X78315525Y-102864080D01*
X78399208Y-103118261D01*
X78671775Y-103249158D01*
X78964642Y-103324365D01*
X79266553Y-103340991D01*
X79565907Y-103298397D01*
X79851199Y-103198222D01*
X80000792Y-103118261D01*
X80084475Y-102864080D01*
X79200000Y-101979605D01*
X78315525Y-102864080D01*
X76660000Y-102864080D01*
X76660000Y-101866553D01*
X77659009Y-101866553D01*
X77701603Y-102165907D01*
X77801778Y-102451199D01*
X77881739Y-102600792D01*
X78135920Y-102684475D01*
X79020395Y-101800000D01*
X79379605Y-101800000D01*
X80264080Y-102684475D01*
X80518261Y-102600792D01*
X80649158Y-102328225D01*
X80724365Y-102035358D01*
X80740991Y-101733447D01*
X80698397Y-101434093D01*
X80598222Y-101148801D01*
X80518261Y-100999208D01*
X80264080Y-100915525D01*
X79379605Y-101800000D01*
X79020395Y-101800000D01*
X78135920Y-100915525D01*
X77881739Y-100999208D01*
X77750842Y-101271775D01*
X77675635Y-101564642D01*
X77659009Y-101866553D01*
X76660000Y-101866553D01*
X76660000Y-100735920D01*
X78315525Y-100735920D01*
X79200000Y-101620395D01*
X80084475Y-100735920D01*
X80000792Y-100481739D01*
X79728225Y-100350842D01*
X79435358Y-100275635D01*
X79133447Y-100259009D01*
X78834093Y-100301603D01*
X78548801Y-100401778D01*
X78399208Y-100481739D01*
X78315525Y-100735920D01*
X76660000Y-100735920D01*
X76660000Y-96648816D01*
X82665000Y-96648816D01*
X82665000Y-96951184D01*
X82723989Y-97247743D01*
X82839701Y-97527095D01*
X83007688Y-97778505D01*
X83221495Y-97992312D01*
X83472905Y-98160299D01*
X83752257Y-98276011D01*
X84048816Y-98335000D01*
X84351184Y-98335000D01*
X84647743Y-98276011D01*
X84927095Y-98160299D01*
X85178505Y-97992312D01*
X85392312Y-97778505D01*
X85560299Y-97527095D01*
X85676011Y-97247743D01*
X85735000Y-96951184D01*
X85735000Y-96668514D01*
X88165000Y-96668514D01*
X88165000Y-96931486D01*
X88216304Y-97189405D01*
X88316939Y-97432359D01*
X88463038Y-97651013D01*
X88648987Y-97836962D01*
X88867641Y-97983061D01*
X89110595Y-98083696D01*
X89368514Y-98135000D01*
X89631486Y-98135000D01*
X89889405Y-98083696D01*
X90132359Y-97983061D01*
X90351013Y-97836962D01*
X90536962Y-97651013D01*
X90683061Y-97432359D01*
X90783696Y-97189405D01*
X90835000Y-96931486D01*
X90835000Y-96800000D01*
X93238541Y-96800000D01*
X93264317Y-97061706D01*
X93340653Y-97313354D01*
X93464618Y-97545275D01*
X93631445Y-97748555D01*
X93820000Y-97903298D01*
X93820001Y-105696702D01*
X93631445Y-105851445D01*
X93464618Y-106054725D01*
X93340653Y-106286646D01*
X93264317Y-106538294D01*
X93238541Y-106800000D01*
X93264317Y-107061706D01*
X93340653Y-107313354D01*
X93464618Y-107545275D01*
X93631445Y-107748555D01*
X93834725Y-107915382D01*
X94066646Y-108039347D01*
X94318294Y-108115683D01*
X94514421Y-108135000D01*
X94645579Y-108135000D01*
X94841706Y-108115683D01*
X95093354Y-108039347D01*
X95325275Y-107915382D01*
X95528555Y-107748555D01*
X95695382Y-107545275D01*
X95819347Y-107313354D01*
X95895683Y-107061706D01*
X95921459Y-106800000D01*
X95895683Y-106538294D01*
X95819347Y-106286646D01*
X95695382Y-106054725D01*
X95528555Y-105851445D01*
X95340000Y-105696702D01*
X95340000Y-104663330D01*
X95532278Y-104663330D01*
X95622147Y-104909123D01*
X95758241Y-105132660D01*
X95935330Y-105325351D01*
X96146608Y-105479792D01*
X96383956Y-105590047D01*
X96491671Y-105622716D01*
X96698000Y-105499374D01*
X96698000Y-104457000D01*
X96952000Y-104457000D01*
X96952000Y-105499374D01*
X97158329Y-105622716D01*
X97266044Y-105590047D01*
X97503392Y-105479792D01*
X97714670Y-105325351D01*
X97891759Y-105132660D01*
X98027853Y-104909123D01*
X98117722Y-104663330D01*
X97995201Y-104457000D01*
X96952000Y-104457000D01*
X96698000Y-104457000D01*
X95654799Y-104457000D01*
X95532278Y-104663330D01*
X95340000Y-104663330D01*
X95340000Y-103996670D01*
X95532278Y-103996670D01*
X95654799Y-104203000D01*
X96698000Y-104203000D01*
X96698000Y-103160626D01*
X96952000Y-103160626D01*
X96952000Y-104203000D01*
X97995201Y-104203000D01*
X98117722Y-103996670D01*
X98027853Y-103750877D01*
X97891759Y-103527340D01*
X97714670Y-103334649D01*
X97503392Y-103180208D01*
X97266044Y-103069953D01*
X97158329Y-103037284D01*
X96952000Y-103160626D01*
X96698000Y-103160626D01*
X96491671Y-103037284D01*
X96383956Y-103069953D01*
X96146608Y-103180208D01*
X95935330Y-103334649D01*
X95758241Y-103527340D01*
X95622147Y-103750877D01*
X95532278Y-103996670D01*
X95340000Y-103996670D01*
X95340000Y-98839802D01*
X95511355Y-99011157D01*
X95490000Y-99118514D01*
X95490000Y-99381486D01*
X95541304Y-99639405D01*
X95641939Y-99882359D01*
X95788038Y-100101013D01*
X95973987Y-100286962D01*
X96192641Y-100433061D01*
X96435595Y-100533696D01*
X96693514Y-100585000D01*
X96956486Y-100585000D01*
X97063844Y-100563645D01*
X100636201Y-104136003D01*
X100659999Y-104165001D01*
X100775724Y-104259974D01*
X100907753Y-104330546D01*
X101051014Y-104374003D01*
X101162667Y-104385000D01*
X101162676Y-104385000D01*
X101199999Y-104388676D01*
X101237322Y-104385000D01*
X102050545Y-104385000D01*
X102191871Y-104649404D01*
X102421181Y-104928819D01*
X102700596Y-105158129D01*
X103019378Y-105328521D01*
X103365277Y-105433448D01*
X103634861Y-105460000D01*
X103815139Y-105460000D01*
X104084723Y-105433448D01*
X104430622Y-105328521D01*
X104749404Y-105158129D01*
X105028819Y-104928819D01*
X105258129Y-104649404D01*
X105428521Y-104330622D01*
X105533448Y-103984723D01*
X105568878Y-103625000D01*
X105533448Y-103265277D01*
X105428521Y-102919378D01*
X105258129Y-102600596D01*
X105114022Y-102425000D01*
X111311928Y-102425000D01*
X111311928Y-104825000D01*
X111324188Y-104949482D01*
X111360498Y-105069180D01*
X111419463Y-105179494D01*
X111498815Y-105276185D01*
X111595506Y-105355537D01*
X111705820Y-105414502D01*
X111825518Y-105450812D01*
X111950000Y-105463072D01*
X114350000Y-105463072D01*
X114474482Y-105450812D01*
X114594180Y-105414502D01*
X114704494Y-105355537D01*
X114801185Y-105276185D01*
X114880537Y-105179494D01*
X114939502Y-105069180D01*
X114975812Y-104949482D01*
X114988072Y-104825000D01*
X114988072Y-102425000D01*
X114975812Y-102300518D01*
X114939502Y-102180820D01*
X114880537Y-102070506D01*
X114801185Y-101973815D01*
X114704494Y-101894463D01*
X114594180Y-101835498D01*
X114474482Y-101799188D01*
X114350000Y-101786928D01*
X111950000Y-101786928D01*
X111825518Y-101799188D01*
X111705820Y-101835498D01*
X111595506Y-101894463D01*
X111498815Y-101973815D01*
X111419463Y-102070506D01*
X111360498Y-102180820D01*
X111324188Y-102300518D01*
X111311928Y-102425000D01*
X105114022Y-102425000D01*
X105028819Y-102321181D01*
X104749404Y-102091871D01*
X104430622Y-101921479D01*
X104084723Y-101816552D01*
X103815139Y-101790000D01*
X103634861Y-101790000D01*
X103365277Y-101816552D01*
X103019378Y-101921479D01*
X102700596Y-102091871D01*
X102421181Y-102321181D01*
X102191871Y-102600596D01*
X102050545Y-102865000D01*
X101514802Y-102865000D01*
X99142504Y-100492702D01*
X115336903Y-100492702D01*
X115408486Y-100736671D01*
X115663996Y-100857571D01*
X115938184Y-100926300D01*
X116220512Y-100940217D01*
X116500130Y-100898787D01*
X116766292Y-100803603D01*
X116891514Y-100736671D01*
X116963097Y-100492702D01*
X116150000Y-99679605D01*
X115336903Y-100492702D01*
X99142504Y-100492702D01*
X98667504Y-100017702D01*
X110486903Y-100017702D01*
X110558486Y-100261671D01*
X110813996Y-100382571D01*
X111088184Y-100451300D01*
X111370512Y-100465217D01*
X111650130Y-100423787D01*
X111916292Y-100328603D01*
X112041514Y-100261671D01*
X112113097Y-100017702D01*
X111300000Y-99204605D01*
X110486903Y-100017702D01*
X98667504Y-100017702D01*
X98138645Y-99488844D01*
X98160000Y-99381486D01*
X98160000Y-99118514D01*
X98155425Y-99095512D01*
X109859783Y-99095512D01*
X109901213Y-99375130D01*
X109996397Y-99641292D01*
X110063329Y-99766514D01*
X110307298Y-99838097D01*
X111120395Y-99025000D01*
X111479605Y-99025000D01*
X112292702Y-99838097D01*
X112536671Y-99766514D01*
X112629413Y-99570512D01*
X114709783Y-99570512D01*
X114751213Y-99850130D01*
X114846397Y-100116292D01*
X114913329Y-100241514D01*
X115157298Y-100313097D01*
X115970395Y-99500000D01*
X116329605Y-99500000D01*
X117142702Y-100313097D01*
X117386671Y-100241514D01*
X117507571Y-99986004D01*
X117576300Y-99711816D01*
X117590217Y-99429488D01*
X117548787Y-99149870D01*
X117453603Y-98883708D01*
X117386671Y-98758486D01*
X117142702Y-98686903D01*
X116329605Y-99500000D01*
X115970395Y-99500000D01*
X115157298Y-98686903D01*
X114913329Y-98758486D01*
X114792429Y-99013996D01*
X114723700Y-99288184D01*
X114709783Y-99570512D01*
X112629413Y-99570512D01*
X112657571Y-99511004D01*
X112726300Y-99236816D01*
X112740217Y-98954488D01*
X112698787Y-98674870D01*
X112603603Y-98408708D01*
X112536671Y-98283486D01*
X112292702Y-98211903D01*
X111479605Y-99025000D01*
X111120395Y-99025000D01*
X110307298Y-98211903D01*
X110063329Y-98283486D01*
X109942429Y-98538996D01*
X109873700Y-98813184D01*
X109859783Y-99095512D01*
X98155425Y-99095512D01*
X98108696Y-98860595D01*
X98008061Y-98617641D01*
X97861962Y-98398987D01*
X97676013Y-98213038D01*
X97457359Y-98066939D01*
X97214405Y-97966304D01*
X96956486Y-97915000D01*
X96693514Y-97915000D01*
X96586157Y-97936355D01*
X95852817Y-97203016D01*
X95895683Y-97061706D01*
X95921459Y-96800000D01*
X95895683Y-96538294D01*
X95819347Y-96286646D01*
X95695382Y-96054725D01*
X95528555Y-95851445D01*
X95374481Y-95725000D01*
X109861928Y-95725000D01*
X109861928Y-97325000D01*
X109874188Y-97449482D01*
X109910498Y-97569180D01*
X109969463Y-97679494D01*
X110048815Y-97776185D01*
X110145506Y-97855537D01*
X110255820Y-97914502D01*
X110375518Y-97950812D01*
X110500000Y-97963072D01*
X110507215Y-97963072D01*
X110486903Y-98032298D01*
X111300000Y-98845395D01*
X112113097Y-98032298D01*
X112092785Y-97963072D01*
X112100000Y-97963072D01*
X112224482Y-97950812D01*
X112344180Y-97914502D01*
X112454494Y-97855537D01*
X112551185Y-97776185D01*
X112630537Y-97679494D01*
X112689502Y-97569180D01*
X112725812Y-97449482D01*
X112738072Y-97325000D01*
X112738072Y-96858665D01*
X114715000Y-96858665D01*
X114715000Y-97141335D01*
X114770147Y-97418574D01*
X114878320Y-97679727D01*
X115035363Y-97914759D01*
X115235241Y-98114637D01*
X115435869Y-98248692D01*
X115408486Y-98263329D01*
X115336903Y-98507298D01*
X116150000Y-99320395D01*
X116963097Y-98507298D01*
X116891514Y-98263329D01*
X116862659Y-98249676D01*
X117064759Y-98114637D01*
X117264637Y-97914759D01*
X117421680Y-97679727D01*
X117529853Y-97418574D01*
X117585000Y-97141335D01*
X117585000Y-96858665D01*
X117529853Y-96581426D01*
X117421680Y-96320273D01*
X117264637Y-96085241D01*
X117064759Y-95885363D01*
X116829727Y-95728320D01*
X116568574Y-95620147D01*
X116291335Y-95565000D01*
X116008665Y-95565000D01*
X115731426Y-95620147D01*
X115470273Y-95728320D01*
X115235241Y-95885363D01*
X115035363Y-96085241D01*
X114878320Y-96320273D01*
X114770147Y-96581426D01*
X114715000Y-96858665D01*
X112738072Y-96858665D01*
X112738072Y-95725000D01*
X112725812Y-95600518D01*
X112689502Y-95480820D01*
X112630537Y-95370506D01*
X112551185Y-95273815D01*
X112454494Y-95194463D01*
X112344180Y-95135498D01*
X112224482Y-95099188D01*
X112100000Y-95086928D01*
X110500000Y-95086928D01*
X110375518Y-95099188D01*
X110255820Y-95135498D01*
X110145506Y-95194463D01*
X110048815Y-95273815D01*
X109969463Y-95370506D01*
X109910498Y-95480820D01*
X109874188Y-95600518D01*
X109861928Y-95725000D01*
X95374481Y-95725000D01*
X95325275Y-95684618D01*
X95093354Y-95560653D01*
X94841706Y-95484317D01*
X94645579Y-95465000D01*
X94514421Y-95465000D01*
X94318294Y-95484317D01*
X94066646Y-95560653D01*
X93834725Y-95684618D01*
X93631445Y-95851445D01*
X93464618Y-96054725D01*
X93340653Y-96286646D01*
X93264317Y-96538294D01*
X93238541Y-96800000D01*
X90835000Y-96800000D01*
X90835000Y-96668514D01*
X90783696Y-96410595D01*
X90683061Y-96167641D01*
X90536962Y-95948987D01*
X90351013Y-95763038D01*
X90132359Y-95616939D01*
X89889405Y-95516304D01*
X89631486Y-95465000D01*
X89368514Y-95465000D01*
X89110595Y-95516304D01*
X88867641Y-95616939D01*
X88648987Y-95763038D01*
X88463038Y-95948987D01*
X88316939Y-96167641D01*
X88216304Y-96410595D01*
X88165000Y-96668514D01*
X85735000Y-96668514D01*
X85735000Y-96648816D01*
X85676011Y-96352257D01*
X85560299Y-96072905D01*
X85392312Y-95821495D01*
X85178505Y-95607688D01*
X84927095Y-95439701D01*
X84647743Y-95323989D01*
X84351184Y-95265000D01*
X84048816Y-95265000D01*
X83752257Y-95323989D01*
X83472905Y-95439701D01*
X83221495Y-95607688D01*
X83007688Y-95821495D01*
X82839701Y-96072905D01*
X82723989Y-96352257D01*
X82665000Y-96648816D01*
X76660000Y-96648816D01*
X76660000Y-90732279D01*
X76673000Y-90599696D01*
X76673000Y-93800000D01*
X76675440Y-93824776D01*
X76682667Y-93848601D01*
X76694403Y-93870557D01*
X76710197Y-93889803D01*
X76729443Y-93905597D01*
X76751399Y-93917333D01*
X76775224Y-93924560D01*
X76800000Y-93927000D01*
X82000000Y-93927000D01*
X82024776Y-93924560D01*
X82048601Y-93917333D01*
X82070557Y-93905597D01*
X82089803Y-93889803D01*
X82105597Y-93870557D01*
X82117333Y-93848601D01*
X82124560Y-93824776D01*
X82127000Y-93800000D01*
X82127000Y-92392702D01*
X103786903Y-92392702D01*
X103858486Y-92636671D01*
X104113996Y-92757571D01*
X104388184Y-92826300D01*
X104670512Y-92840217D01*
X104950130Y-92798787D01*
X105216292Y-92703603D01*
X105341514Y-92636671D01*
X105413097Y-92392702D01*
X104600000Y-91579605D01*
X103786903Y-92392702D01*
X82127000Y-92392702D01*
X82127000Y-91470512D01*
X103159783Y-91470512D01*
X103201213Y-91750130D01*
X103296397Y-92016292D01*
X103363329Y-92141514D01*
X103607298Y-92213097D01*
X104420395Y-91400000D01*
X104779605Y-91400000D01*
X105592702Y-92213097D01*
X105661928Y-92192785D01*
X105661928Y-92200000D01*
X105674188Y-92324482D01*
X105710498Y-92444180D01*
X105769463Y-92554494D01*
X105848815Y-92651185D01*
X105945506Y-92730537D01*
X106055820Y-92789502D01*
X106175518Y-92825812D01*
X106300000Y-92838072D01*
X107900000Y-92838072D01*
X108024482Y-92825812D01*
X108144180Y-92789502D01*
X108254494Y-92730537D01*
X108351185Y-92651185D01*
X108430537Y-92554494D01*
X108489502Y-92444180D01*
X108525812Y-92324482D01*
X108538072Y-92200000D01*
X108538072Y-90600000D01*
X108525812Y-90475518D01*
X108489502Y-90355820D01*
X108430537Y-90245506D01*
X108351185Y-90148815D01*
X108254494Y-90069463D01*
X108144180Y-90010498D01*
X108024482Y-89974188D01*
X107900000Y-89961928D01*
X106300000Y-89961928D01*
X106175518Y-89974188D01*
X106055820Y-90010498D01*
X105945506Y-90069463D01*
X105848815Y-90148815D01*
X105769463Y-90245506D01*
X105710498Y-90355820D01*
X105674188Y-90475518D01*
X105661928Y-90600000D01*
X105661928Y-90607215D01*
X105592702Y-90586903D01*
X104779605Y-91400000D01*
X104420395Y-91400000D01*
X103607298Y-90586903D01*
X103363329Y-90658486D01*
X103242429Y-90913996D01*
X103173700Y-91188184D01*
X103159783Y-91470512D01*
X82127000Y-91470512D01*
X82127000Y-90407298D01*
X103786903Y-90407298D01*
X104600000Y-91220395D01*
X105413097Y-90407298D01*
X105341514Y-90163329D01*
X105086004Y-90042429D01*
X104811816Y-89973700D01*
X104529488Y-89959783D01*
X104249870Y-90001213D01*
X103983708Y-90096397D01*
X103858486Y-90163329D01*
X103786903Y-90407298D01*
X82127000Y-90407298D01*
X82127000Y-88600000D01*
X82124560Y-88575224D01*
X82117333Y-88551399D01*
X82105597Y-88529443D01*
X82089803Y-88510197D01*
X82070557Y-88494403D01*
X82048601Y-88482667D01*
X82024776Y-88475440D01*
X82000000Y-88473000D01*
X78329481Y-88473000D01*
X78530113Y-88410894D01*
X79014344Y-88360000D01*
X113873000Y-88360000D01*
X113873000Y-94300000D01*
X113873000Y-94300000D01*
G37*
X113873000Y-94300000D02*
X113875440Y-94324776D01*
X113882667Y-94348601D01*
X113894403Y-94370557D01*
X113910197Y-94389803D01*
X113929443Y-94405597D01*
X113951399Y-94417333D01*
X113975224Y-94424560D01*
X114000000Y-94427000D01*
X120290000Y-94427000D01*
X120290001Y-97660202D01*
X120286081Y-97700000D01*
X120296401Y-97804774D01*
X120301721Y-97858788D01*
X120333356Y-97963072D01*
X120348038Y-98011473D01*
X120423251Y-98152189D01*
X120459532Y-98196397D01*
X120524473Y-98275528D01*
X120555383Y-98300895D01*
X120596416Y-98341928D01*
X120570000Y-98341928D01*
X120391868Y-98359472D01*
X120220582Y-98411431D01*
X120062724Y-98495808D01*
X119924361Y-98609361D01*
X119810808Y-98747724D01*
X119726431Y-98905582D01*
X119674472Y-99076868D01*
X119656928Y-99255000D01*
X119656928Y-100411928D01*
X119025000Y-100411928D01*
X118900518Y-100424188D01*
X118780820Y-100460498D01*
X118670506Y-100519463D01*
X118573815Y-100598815D01*
X118494463Y-100695506D01*
X118435498Y-100805820D01*
X118399188Y-100925518D01*
X118386928Y-101050000D01*
X118386928Y-102850000D01*
X118399188Y-102974482D01*
X118435498Y-103094180D01*
X118494463Y-103204494D01*
X118573815Y-103301185D01*
X118670506Y-103380537D01*
X118780820Y-103439502D01*
X118816274Y-103450257D01*
X118824424Y-103533000D01*
X118825998Y-103548985D01*
X118869454Y-103692246D01*
X118940026Y-103824276D01*
X118992312Y-103887986D01*
X119035000Y-103940001D01*
X119063998Y-103963799D01*
X121111355Y-106011157D01*
X121090000Y-106118514D01*
X121090000Y-106381486D01*
X121141304Y-106639405D01*
X121241939Y-106882359D01*
X121388038Y-107101013D01*
X121573987Y-107286962D01*
X121665000Y-107347775D01*
X121665001Y-107833496D01*
X121606426Y-107845147D01*
X121345273Y-107953320D01*
X121110241Y-108110363D01*
X120910363Y-108310241D01*
X120753320Y-108545273D01*
X120645147Y-108806426D01*
X120590000Y-109083665D01*
X120590000Y-109235197D01*
X103213998Y-126611201D01*
X103185000Y-126634999D01*
X103161202Y-126663997D01*
X103161201Y-126663998D01*
X103090026Y-126750724D01*
X103070674Y-126786928D01*
X102525000Y-126786928D01*
X102400518Y-126799188D01*
X102280820Y-126835498D01*
X102170506Y-126894463D01*
X102073815Y-126973815D01*
X101994463Y-127070506D01*
X101935498Y-127180820D01*
X101899188Y-127300518D01*
X101886928Y-127425000D01*
X101886928Y-129825000D01*
X101899188Y-129949482D01*
X101935498Y-130069180D01*
X101994463Y-130179494D01*
X102073815Y-130276185D01*
X102170506Y-130355537D01*
X102280820Y-130414502D01*
X102400518Y-130450812D01*
X102525000Y-130463072D01*
X104925000Y-130463072D01*
X105049482Y-130450812D01*
X105169180Y-130414502D01*
X105279494Y-130355537D01*
X105376185Y-130276185D01*
X105455537Y-130179494D01*
X105514502Y-130069180D01*
X105550812Y-129949482D01*
X105563072Y-129825000D01*
X105563072Y-128625000D01*
X111306122Y-128625000D01*
X111341552Y-128984723D01*
X111446479Y-129330622D01*
X111616871Y-129649404D01*
X111846181Y-129928819D01*
X112125596Y-130158129D01*
X112444378Y-130328521D01*
X112790277Y-130433448D01*
X113059861Y-130460000D01*
X113240139Y-130460000D01*
X113509723Y-130433448D01*
X113855622Y-130328521D01*
X114174404Y-130158129D01*
X114453819Y-129928819D01*
X114683129Y-129649404D01*
X114853521Y-129330622D01*
X114958448Y-128984723D01*
X114993878Y-128625000D01*
X114958448Y-128265277D01*
X114853521Y-127919378D01*
X114683129Y-127600596D01*
X114453819Y-127321181D01*
X114174404Y-127091871D01*
X113855622Y-126921479D01*
X113509723Y-126816552D01*
X113240139Y-126790000D01*
X113059861Y-126790000D01*
X112790277Y-126816552D01*
X112444378Y-126921479D01*
X112125596Y-127091871D01*
X111846181Y-127321181D01*
X111616871Y-127600596D01*
X111446479Y-127919378D01*
X111341552Y-128265277D01*
X111306122Y-128625000D01*
X105563072Y-128625000D01*
X105563072Y-127425000D01*
X105550812Y-127300518D01*
X105514502Y-127180820D01*
X105455537Y-127070506D01*
X105376185Y-126973815D01*
X105279494Y-126894463D01*
X105169180Y-126835498D01*
X105146257Y-126828544D01*
X113804290Y-118170512D01*
X119359783Y-118170512D01*
X119401213Y-118450130D01*
X119496397Y-118716292D01*
X119563329Y-118841514D01*
X119807298Y-118913097D01*
X120620395Y-118100000D01*
X120979605Y-118100000D01*
X121792702Y-118913097D01*
X122036671Y-118841514D01*
X122157571Y-118586004D01*
X122226300Y-118311816D01*
X122240217Y-118029488D01*
X122198787Y-117749870D01*
X122103603Y-117483708D01*
X122036671Y-117358486D01*
X121792702Y-117286903D01*
X120979605Y-118100000D01*
X120620395Y-118100000D01*
X119807298Y-117286903D01*
X119563329Y-117358486D01*
X119442429Y-117613996D01*
X119373700Y-117888184D01*
X119359783Y-118170512D01*
X113804290Y-118170512D01*
X114867504Y-117107298D01*
X119986903Y-117107298D01*
X120800000Y-117920395D01*
X121613097Y-117107298D01*
X121541514Y-116863329D01*
X121286004Y-116742429D01*
X121011816Y-116673700D01*
X120729488Y-116659783D01*
X120449870Y-116701213D01*
X120183708Y-116796397D01*
X120058486Y-116863329D01*
X119986903Y-117107298D01*
X114867504Y-117107298D01*
X121439212Y-110535591D01*
X121606426Y-110604853D01*
X121883665Y-110660000D01*
X122166335Y-110660000D01*
X122443574Y-110604853D01*
X122540000Y-110564912D01*
X122539999Y-118864488D01*
X122053208Y-119351280D01*
X122051185Y-119348815D01*
X121954494Y-119269463D01*
X121844180Y-119210498D01*
X121724482Y-119174188D01*
X121600000Y-119161928D01*
X121592785Y-119161928D01*
X121613097Y-119092702D01*
X120800000Y-118279605D01*
X119986903Y-119092702D01*
X120007215Y-119161928D01*
X120000000Y-119161928D01*
X119875518Y-119174188D01*
X119755820Y-119210498D01*
X119645506Y-119269463D01*
X119548815Y-119348815D01*
X119469463Y-119445506D01*
X119410498Y-119555820D01*
X119374188Y-119675518D01*
X119361928Y-119800000D01*
X119361928Y-121400000D01*
X119374188Y-121524482D01*
X119410498Y-121644180D01*
X119469463Y-121754494D01*
X119548815Y-121851185D01*
X119645506Y-121930537D01*
X119755820Y-121989502D01*
X119875518Y-122025812D01*
X120000000Y-122038072D01*
X121600000Y-122038072D01*
X121724482Y-122025812D01*
X121844180Y-121989502D01*
X121954494Y-121930537D01*
X122051185Y-121851185D01*
X122130537Y-121754494D01*
X122189502Y-121644180D01*
X122225812Y-121524482D01*
X122238072Y-121400000D01*
X122238072Y-121359062D01*
X122261473Y-121351963D01*
X122402189Y-121276749D01*
X122525528Y-121175528D01*
X122550899Y-121144613D01*
X123894618Y-119800895D01*
X123925527Y-119775529D01*
X124026748Y-119652190D01*
X124086599Y-119540217D01*
X124101962Y-119511475D01*
X124148279Y-119358789D01*
X124163918Y-119200001D01*
X124159999Y-119160210D01*
X124159999Y-116192702D01*
X132636903Y-116192702D01*
X132708486Y-116436671D01*
X132963996Y-116557571D01*
X133238184Y-116626300D01*
X133520512Y-116640217D01*
X133800130Y-116598787D01*
X134066292Y-116503603D01*
X134191514Y-116436671D01*
X134263097Y-116192702D01*
X133450000Y-115379605D01*
X132636903Y-116192702D01*
X124159999Y-116192702D01*
X124159999Y-115270512D01*
X132009783Y-115270512D01*
X132051213Y-115550130D01*
X132146397Y-115816292D01*
X132213329Y-115941514D01*
X132457298Y-116013097D01*
X133270395Y-115200000D01*
X132457298Y-114386903D01*
X132213329Y-114458486D01*
X132092429Y-114713996D01*
X132023700Y-114988184D01*
X132009783Y-115270512D01*
X124159999Y-115270512D01*
X124159999Y-111534800D01*
X126136355Y-113511157D01*
X126115000Y-113618514D01*
X126115000Y-113881486D01*
X126166304Y-114139405D01*
X126266939Y-114382359D01*
X126413038Y-114601013D01*
X126598987Y-114786962D01*
X126817641Y-114933061D01*
X127060595Y-115033696D01*
X127318514Y-115085000D01*
X127581486Y-115085000D01*
X127839405Y-115033696D01*
X128082359Y-114933061D01*
X128301013Y-114786962D01*
X128486962Y-114601013D01*
X128633061Y-114382359D01*
X128705573Y-114207298D01*
X132636903Y-114207298D01*
X133450000Y-115020395D01*
X134263097Y-114207298D01*
X134191514Y-113963329D01*
X133936004Y-113842429D01*
X133661816Y-113773700D01*
X133379488Y-113759783D01*
X133099870Y-113801213D01*
X132833708Y-113896397D01*
X132708486Y-113963329D01*
X132636903Y-114207298D01*
X128705573Y-114207298D01*
X128733696Y-114139405D01*
X128785000Y-113881486D01*
X128785000Y-113618514D01*
X128733696Y-113360595D01*
X128633061Y-113117641D01*
X128486962Y-112898987D01*
X128301013Y-112713038D01*
X128082359Y-112566939D01*
X127839405Y-112466304D01*
X127581486Y-112415000D01*
X127318514Y-112415000D01*
X127211157Y-112436355D01*
X125285000Y-110510199D01*
X125285000Y-110443043D01*
X125439759Y-110339637D01*
X125639637Y-110139759D01*
X125796680Y-109904727D01*
X125904853Y-109643574D01*
X125960000Y-109366335D01*
X125960000Y-109083665D01*
X125944021Y-109003330D01*
X126157278Y-109003330D01*
X126247147Y-109249123D01*
X126383241Y-109472660D01*
X126560330Y-109665351D01*
X126771608Y-109819792D01*
X127008956Y-109930047D01*
X127116671Y-109962716D01*
X127323000Y-109839374D01*
X127323000Y-108797000D01*
X127577000Y-108797000D01*
X127577000Y-109839374D01*
X127783329Y-109962716D01*
X127891044Y-109930047D01*
X128128392Y-109819792D01*
X128339670Y-109665351D01*
X128516759Y-109472660D01*
X128652853Y-109249123D01*
X128742722Y-109003330D01*
X128620201Y-108797000D01*
X127577000Y-108797000D01*
X127323000Y-108797000D01*
X126279799Y-108797000D01*
X126157278Y-109003330D01*
X125944021Y-109003330D01*
X125904853Y-108806426D01*
X125796680Y-108545273D01*
X125657297Y-108336670D01*
X126157278Y-108336670D01*
X126279799Y-108543000D01*
X127323000Y-108543000D01*
X127323000Y-107500626D01*
X127577000Y-107500626D01*
X127577000Y-108543000D01*
X128620201Y-108543000D01*
X128742722Y-108336670D01*
X128652853Y-108090877D01*
X128516759Y-107867340D01*
X128339670Y-107674649D01*
X128128392Y-107520208D01*
X128027759Y-107473461D01*
X128084123Y-107452853D01*
X128307660Y-107316759D01*
X128500351Y-107139670D01*
X128654792Y-106928392D01*
X128765047Y-106691044D01*
X128797716Y-106583329D01*
X128674374Y-106377000D01*
X127632000Y-106377000D01*
X127632000Y-107420201D01*
X127671901Y-107443895D01*
X127577000Y-107500626D01*
X127323000Y-107500626D01*
X127282915Y-107476663D01*
X127378000Y-107420201D01*
X127378000Y-106377000D01*
X126335626Y-106377000D01*
X126212284Y-106583329D01*
X126244953Y-106691044D01*
X126355208Y-106928392D01*
X126509649Y-107139670D01*
X126702340Y-107316759D01*
X126921864Y-107450410D01*
X126771608Y-107520208D01*
X126560330Y-107674649D01*
X126383241Y-107867340D01*
X126247147Y-108090877D01*
X126157278Y-108336670D01*
X125657297Y-108336670D01*
X125639637Y-108310241D01*
X125439759Y-108110363D01*
X125204727Y-107953320D01*
X124943574Y-107845147D01*
X124666335Y-107790000D01*
X124383665Y-107790000D01*
X124159999Y-107834491D01*
X124159999Y-107251515D01*
X125494843Y-105916671D01*
X126212284Y-105916671D01*
X126335626Y-106123000D01*
X127378000Y-106123000D01*
X127378000Y-105079799D01*
X127632000Y-105079799D01*
X127632000Y-106123000D01*
X128674374Y-106123000D01*
X128797716Y-105916671D01*
X128765047Y-105808956D01*
X128654792Y-105571608D01*
X128500351Y-105360330D01*
X128307660Y-105183241D01*
X128084123Y-105047147D01*
X127838330Y-104957278D01*
X127632000Y-105079799D01*
X127378000Y-105079799D01*
X127171670Y-104957278D01*
X126925877Y-105047147D01*
X126702340Y-105183241D01*
X126509649Y-105360330D01*
X126355208Y-105571608D01*
X126244953Y-105808956D01*
X126212284Y-105916671D01*
X125494843Y-105916671D01*
X125719619Y-105691896D01*
X125750528Y-105666530D01*
X125828428Y-105571608D01*
X125851749Y-105543192D01*
X125907852Y-105438229D01*
X125926963Y-105402475D01*
X125973280Y-105249790D01*
X125985000Y-105130793D01*
X125985000Y-105130791D01*
X125988919Y-105091003D01*
X125985000Y-105051215D01*
X125985000Y-104714366D01*
X126026013Y-104686962D01*
X126211962Y-104501013D01*
X126313800Y-104348601D01*
X126383241Y-104462660D01*
X126560330Y-104655351D01*
X126771608Y-104809792D01*
X127008956Y-104920047D01*
X127116671Y-104952716D01*
X127323000Y-104829374D01*
X127323000Y-103787000D01*
X127577000Y-103787000D01*
X127577000Y-104829374D01*
X127783329Y-104952716D01*
X127891044Y-104920047D01*
X128128392Y-104809792D01*
X128339670Y-104655351D01*
X128516759Y-104462660D01*
X128652853Y-104239123D01*
X128742722Y-103993330D01*
X128620201Y-103787000D01*
X127577000Y-103787000D01*
X127323000Y-103787000D01*
X127303000Y-103787000D01*
X127303000Y-103533000D01*
X127323000Y-103533000D01*
X127323000Y-102490626D01*
X127577000Y-102490626D01*
X127577000Y-103533000D01*
X128620201Y-103533000D01*
X128742722Y-103326670D01*
X128652853Y-103080877D01*
X128516759Y-102857340D01*
X128339670Y-102664649D01*
X128128392Y-102510208D01*
X127891044Y-102399953D01*
X127783329Y-102367284D01*
X127577000Y-102490626D01*
X127323000Y-102490626D01*
X127116671Y-102367284D01*
X127008956Y-102399953D01*
X126771608Y-102510208D01*
X126560330Y-102664649D01*
X126383241Y-102857340D01*
X126320171Y-102960934D01*
X126211962Y-102798987D01*
X126026013Y-102613038D01*
X125807359Y-102466939D01*
X125564405Y-102366304D01*
X125306486Y-102315000D01*
X125043514Y-102315000D01*
X124995136Y-102324623D01*
X123675899Y-101005387D01*
X123650528Y-100974472D01*
X123527189Y-100873251D01*
X123386473Y-100798037D01*
X123233788Y-100751720D01*
X123114791Y-100740000D01*
X123114788Y-100740000D01*
X123082821Y-100736851D01*
X123035639Y-100679361D01*
X123010000Y-100658319D01*
X123010000Y-99450700D01*
X123117205Y-99290256D01*
X123195226Y-99101898D01*
X123235000Y-98901939D01*
X123235000Y-98698061D01*
X123209528Y-98570000D01*
X123833541Y-98570000D01*
X123859317Y-98831706D01*
X123935653Y-99083354D01*
X124059618Y-99315275D01*
X124226445Y-99518555D01*
X124429725Y-99685382D01*
X124661646Y-99809347D01*
X124913294Y-99885683D01*
X125109421Y-99905000D01*
X125240579Y-99905000D01*
X125436706Y-99885683D01*
X125688354Y-99809347D01*
X125920275Y-99685382D01*
X126123555Y-99518555D01*
X126290382Y-99315275D01*
X126310525Y-99277590D01*
X126413038Y-99431013D01*
X126598987Y-99616962D01*
X126817641Y-99763061D01*
X127060595Y-99863696D01*
X127318514Y-99915000D01*
X127581486Y-99915000D01*
X127839405Y-99863696D01*
X128082359Y-99763061D01*
X128301013Y-99616962D01*
X128486962Y-99431013D01*
X128633061Y-99212359D01*
X128733696Y-98969405D01*
X128785000Y-98711486D01*
X128785000Y-98448514D01*
X128733696Y-98190595D01*
X128633061Y-97947641D01*
X128486962Y-97728987D01*
X128301013Y-97543038D01*
X128082359Y-97396939D01*
X127839405Y-97296304D01*
X127581486Y-97245000D01*
X127318514Y-97245000D01*
X127060595Y-97296304D01*
X126817641Y-97396939D01*
X126598987Y-97543038D01*
X126413038Y-97728987D01*
X126316464Y-97873521D01*
X126290382Y-97824725D01*
X126123555Y-97621445D01*
X125920275Y-97454618D01*
X125688354Y-97330653D01*
X125436706Y-97254317D01*
X125240579Y-97235000D01*
X125109421Y-97235000D01*
X124913294Y-97254317D01*
X124661646Y-97330653D01*
X124429725Y-97454618D01*
X124226445Y-97621445D01*
X124059618Y-97824725D01*
X123935653Y-98056646D01*
X123859317Y-98308294D01*
X123833541Y-98570000D01*
X123209528Y-98570000D01*
X123195226Y-98498102D01*
X123117205Y-98309744D01*
X123003937Y-98140226D01*
X122859774Y-97996063D01*
X122690256Y-97882795D01*
X122501898Y-97804774D01*
X122312641Y-97767129D01*
X121910000Y-97364488D01*
X121910000Y-95824361D01*
X123215222Y-96994560D01*
X123235299Y-97009283D01*
X123257862Y-97019806D01*
X123282044Y-97025724D01*
X123300000Y-97027000D01*
X129428786Y-97027000D01*
X146673000Y-125235743D01*
X146673000Y-126573000D01*
X144700000Y-126573000D01*
X144675224Y-126575440D01*
X144651399Y-126582667D01*
X144629443Y-126594403D01*
X144610197Y-126610197D01*
X144594403Y-126629443D01*
X144582667Y-126651399D01*
X144575440Y-126675224D01*
X144573000Y-126700000D01*
X144573000Y-129600000D01*
X144575440Y-129624776D01*
X144582667Y-129648601D01*
X144594403Y-129670557D01*
X144610197Y-129689803D01*
X144629443Y-129705597D01*
X144651399Y-129717333D01*
X144675224Y-129724560D01*
X144700000Y-129727000D01*
X145668827Y-129727000D01*
X145716682Y-129752579D01*
X145524869Y-129867615D01*
X145316481Y-130056586D01*
X145148963Y-130282580D01*
X145028754Y-130536913D01*
X144988096Y-130670961D01*
X145110085Y-130893000D01*
X146253000Y-130893000D01*
X146253000Y-130873000D01*
X146507000Y-130873000D01*
X146507000Y-130893000D01*
X147649915Y-130893000D01*
X147771904Y-130670961D01*
X147731246Y-130536913D01*
X147611037Y-130282580D01*
X147443519Y-130056586D01*
X147235131Y-129867615D01*
X147043318Y-129752579D01*
X147091173Y-129727000D01*
X152373000Y-129727000D01*
X152373000Y-132100000D01*
X152375440Y-132124776D01*
X152382667Y-132148601D01*
X152394403Y-132170557D01*
X152410197Y-132189803D01*
X152429443Y-132205597D01*
X152451399Y-132217333D01*
X152475224Y-132224560D01*
X152500000Y-132227000D01*
X153213993Y-132227000D01*
X153331858Y-132290000D01*
X153198899Y-132361068D01*
X152980392Y-132540392D01*
X152801068Y-132758899D01*
X152667818Y-133008192D01*
X152585764Y-133278691D01*
X152558057Y-133560000D01*
X152585764Y-133841309D01*
X152667818Y-134111808D01*
X152801068Y-134361101D01*
X152980392Y-134579608D01*
X153093482Y-134672419D01*
X153075518Y-134674188D01*
X152955820Y-134710498D01*
X152845506Y-134769463D01*
X152748815Y-134848815D01*
X152728967Y-134873000D01*
X152500000Y-134873000D01*
X152475224Y-134875440D01*
X152451399Y-134882667D01*
X152429443Y-134894403D01*
X152410197Y-134910197D01*
X152394403Y-134929443D01*
X152382667Y-134951399D01*
X152375440Y-134975224D01*
X152373000Y-135000000D01*
X152373000Y-137773000D01*
X149500000Y-137773000D01*
X149475224Y-137775440D01*
X149451399Y-137782667D01*
X149429443Y-137794403D01*
X149410197Y-137810197D01*
X149394403Y-137829443D01*
X149382667Y-137851399D01*
X149375440Y-137875224D01*
X149373000Y-137900000D01*
X149373000Y-143540000D01*
X79032279Y-143540000D01*
X78546106Y-143492330D01*
X78329723Y-143427000D01*
X82000000Y-143427000D01*
X82024776Y-143424560D01*
X82048601Y-143417333D01*
X82070557Y-143405597D01*
X82089803Y-143389803D01*
X82105597Y-143370557D01*
X82117333Y-143348601D01*
X82124560Y-143324776D01*
X82127000Y-143300000D01*
X82127000Y-138950000D01*
X89956122Y-138950000D01*
X89991552Y-139309723D01*
X90096479Y-139655622D01*
X90266871Y-139974404D01*
X90496181Y-140253819D01*
X90775596Y-140483129D01*
X91094378Y-140653521D01*
X91440277Y-140758448D01*
X91709861Y-140785000D01*
X91890139Y-140785000D01*
X92159723Y-140758448D01*
X92505622Y-140653521D01*
X92824404Y-140483129D01*
X93103819Y-140253819D01*
X93333129Y-139974404D01*
X93503521Y-139655622D01*
X93608448Y-139309723D01*
X93643878Y-138950000D01*
X93608448Y-138590277D01*
X93503521Y-138244378D01*
X93333129Y-137925596D01*
X93189022Y-137750000D01*
X114961928Y-137750000D01*
X114961928Y-140150000D01*
X114974188Y-140274482D01*
X115010498Y-140394180D01*
X115069463Y-140504494D01*
X115148815Y-140601185D01*
X115245506Y-140680537D01*
X115355820Y-140739502D01*
X115475518Y-140775812D01*
X115600000Y-140788072D01*
X118000000Y-140788072D01*
X118124482Y-140775812D01*
X118244180Y-140739502D01*
X118354494Y-140680537D01*
X118451185Y-140601185D01*
X118530537Y-140504494D01*
X118589502Y-140394180D01*
X118597534Y-140367702D01*
X121736903Y-140367702D01*
X121808486Y-140611671D01*
X122063996Y-140732571D01*
X122338184Y-140801300D01*
X122620512Y-140815217D01*
X122900130Y-140773787D01*
X123166292Y-140678603D01*
X123291514Y-140611671D01*
X123363097Y-140367702D01*
X122550000Y-139554605D01*
X121736903Y-140367702D01*
X118597534Y-140367702D01*
X118625812Y-140274482D01*
X118638072Y-140150000D01*
X118638072Y-139445512D01*
X121109783Y-139445512D01*
X121151213Y-139725130D01*
X121246397Y-139991292D01*
X121313329Y-140116514D01*
X121557298Y-140188097D01*
X122370395Y-139375000D01*
X121557298Y-138561903D01*
X121313329Y-138633486D01*
X121192429Y-138888996D01*
X121123700Y-139163184D01*
X121109783Y-139445512D01*
X118638072Y-139445512D01*
X118638072Y-138382298D01*
X121736903Y-138382298D01*
X122550000Y-139195395D01*
X123363097Y-138382298D01*
X123291514Y-138138329D01*
X123036004Y-138017429D01*
X122761816Y-137948700D01*
X122479488Y-137934783D01*
X122199870Y-137976213D01*
X121933708Y-138071397D01*
X121808486Y-138138329D01*
X121736903Y-138382298D01*
X118638072Y-138382298D01*
X118638072Y-137750000D01*
X118625812Y-137625518D01*
X118589502Y-137505820D01*
X118530537Y-137395506D01*
X118451185Y-137298815D01*
X118354494Y-137219463D01*
X118244180Y-137160498D01*
X118124482Y-137124188D01*
X118000000Y-137111928D01*
X115600000Y-137111928D01*
X115475518Y-137124188D01*
X115355820Y-137160498D01*
X115245506Y-137219463D01*
X115148815Y-137298815D01*
X115069463Y-137395506D01*
X115010498Y-137505820D01*
X114974188Y-137625518D01*
X114961928Y-137750000D01*
X93189022Y-137750000D01*
X93103819Y-137646181D01*
X92824404Y-137416871D01*
X92560000Y-137275545D01*
X92560000Y-137067702D01*
X121736903Y-137067702D01*
X121808486Y-137311671D01*
X122063996Y-137432571D01*
X122338184Y-137501300D01*
X122620512Y-137515217D01*
X122900130Y-137473787D01*
X123166292Y-137378603D01*
X123291514Y-137311671D01*
X123363097Y-137067702D01*
X122550000Y-136254605D01*
X121736903Y-137067702D01*
X92560000Y-137067702D01*
X92560000Y-136145512D01*
X121109783Y-136145512D01*
X121151213Y-136425130D01*
X121246397Y-136691292D01*
X121313329Y-136816514D01*
X121557298Y-136888097D01*
X122370395Y-136075000D01*
X121557298Y-135261903D01*
X121313329Y-135333486D01*
X121192429Y-135588996D01*
X121123700Y-135863184D01*
X121109783Y-136145512D01*
X92560000Y-136145512D01*
X92560000Y-135082298D01*
X121736903Y-135082298D01*
X122550000Y-135895395D01*
X123363097Y-135082298D01*
X123291514Y-134838329D01*
X123036004Y-134717429D01*
X122761816Y-134648700D01*
X122479488Y-134634783D01*
X122199870Y-134676213D01*
X121933708Y-134771397D01*
X121808486Y-134838329D01*
X121736903Y-135082298D01*
X92560000Y-135082298D01*
X92560000Y-130568514D01*
X119740000Y-130568514D01*
X119740000Y-130831486D01*
X119791304Y-131089405D01*
X119891939Y-131332359D01*
X120038038Y-131551013D01*
X120223987Y-131736962D01*
X120335001Y-131811138D01*
X120335000Y-132046702D01*
X120146445Y-132201445D01*
X119979618Y-132404725D01*
X119855653Y-132636646D01*
X119779317Y-132888294D01*
X119753541Y-133150000D01*
X119779317Y-133411706D01*
X119855653Y-133663354D01*
X119979618Y-133895275D01*
X120146445Y-134098555D01*
X120349725Y-134265382D01*
X120581646Y-134389347D01*
X120833294Y-134465683D01*
X121029421Y-134485000D01*
X121160579Y-134485000D01*
X121356706Y-134465683D01*
X121608354Y-134389347D01*
X121840275Y-134265382D01*
X122043555Y-134098555D01*
X122210382Y-133895275D01*
X122334347Y-133663354D01*
X122410683Y-133411706D01*
X122436459Y-133150000D01*
X122410683Y-132888294D01*
X122334347Y-132636646D01*
X122210382Y-132404725D01*
X122043555Y-132201445D01*
X121855000Y-132046702D01*
X121855000Y-131784411D01*
X121926013Y-131736962D01*
X122111962Y-131551013D01*
X122258061Y-131332359D01*
X122358696Y-131089405D01*
X122410000Y-130831486D01*
X122410000Y-130568514D01*
X122388645Y-130461157D01*
X123036004Y-129813798D01*
X123065001Y-129790001D01*
X123159974Y-129674276D01*
X123230546Y-129542247D01*
X123274003Y-129398986D01*
X123285000Y-129287333D01*
X123285000Y-129287325D01*
X123288676Y-129250000D01*
X123285000Y-129212675D01*
X123285000Y-128968043D01*
X123439759Y-128864637D01*
X123639637Y-128664759D01*
X123775000Y-128462173D01*
X123910363Y-128664759D01*
X124110241Y-128864637D01*
X124265001Y-128968044D01*
X124265000Y-131049679D01*
X124261324Y-131087002D01*
X124265000Y-131124324D01*
X124265000Y-131124334D01*
X124275997Y-131235987D01*
X124316357Y-131369039D01*
X124319454Y-131379248D01*
X124390026Y-131511278D01*
X124420972Y-131548985D01*
X124484999Y-131627003D01*
X124514002Y-131650805D01*
X125099199Y-132236003D01*
X125122998Y-132265002D01*
X125149925Y-132287100D01*
X125138038Y-132298987D01*
X124991939Y-132517641D01*
X124891304Y-132760595D01*
X124840000Y-133018514D01*
X124840000Y-133281486D01*
X124891304Y-133539405D01*
X124991939Y-133782359D01*
X125138038Y-134001013D01*
X125323987Y-134186962D01*
X125415000Y-134247775D01*
X125415000Y-134684490D01*
X125191335Y-134640000D01*
X124908665Y-134640000D01*
X124631426Y-134695147D01*
X124370273Y-134803320D01*
X124135241Y-134960363D01*
X123935363Y-135160241D01*
X123801308Y-135360869D01*
X123786671Y-135333486D01*
X123542702Y-135261903D01*
X122729605Y-136075000D01*
X123542702Y-136888097D01*
X123786671Y-136816514D01*
X123800324Y-136787659D01*
X123935363Y-136989759D01*
X124135241Y-137189637D01*
X124370273Y-137346680D01*
X124631426Y-137454853D01*
X124908665Y-137510000D01*
X125191335Y-137510000D01*
X125415001Y-137465510D01*
X125415001Y-137935197D01*
X125373886Y-137976312D01*
X125191335Y-137940000D01*
X124908665Y-137940000D01*
X124631426Y-137995147D01*
X124370273Y-138103320D01*
X124135241Y-138260363D01*
X123935363Y-138460241D01*
X123801308Y-138660869D01*
X123786671Y-138633486D01*
X123542702Y-138561903D01*
X122729605Y-139375000D01*
X123542702Y-140188097D01*
X123786671Y-140116514D01*
X123800324Y-140087659D01*
X123935363Y-140289759D01*
X124135241Y-140489637D01*
X124370273Y-140646680D01*
X124631426Y-140754853D01*
X124908665Y-140810000D01*
X125191335Y-140810000D01*
X125468574Y-140754853D01*
X125729727Y-140646680D01*
X125964759Y-140489637D01*
X126164637Y-140289759D01*
X126321680Y-140054727D01*
X126429853Y-139793574D01*
X126485000Y-139516335D01*
X126485000Y-139233665D01*
X126448688Y-139051114D01*
X126686003Y-138813799D01*
X126715001Y-138790001D01*
X126809974Y-138674276D01*
X126880546Y-138542247D01*
X126924003Y-138398986D01*
X126935000Y-138287333D01*
X126935000Y-138287324D01*
X126938676Y-138250001D01*
X126935000Y-138212678D01*
X126935000Y-134624801D01*
X127704292Y-135394094D01*
X127690764Y-135438691D01*
X127663057Y-135720000D01*
X127690764Y-136001309D01*
X127772818Y-136271808D01*
X127906068Y-136521101D01*
X128085392Y-136739608D01*
X128303899Y-136918932D01*
X128436858Y-136990000D01*
X128303899Y-137061068D01*
X128085392Y-137240392D01*
X127906068Y-137458899D01*
X127772818Y-137708192D01*
X127690764Y-137978691D01*
X127663057Y-138260000D01*
X127690764Y-138541309D01*
X127772818Y-138811808D01*
X127906068Y-139061101D01*
X128085392Y-139279608D01*
X128303899Y-139458932D01*
X128436858Y-139530000D01*
X128303899Y-139601068D01*
X128085392Y-139780392D01*
X127906068Y-139998899D01*
X127772818Y-140248192D01*
X127690764Y-140518691D01*
X127663057Y-140800000D01*
X127690764Y-141081309D01*
X127772818Y-141351808D01*
X127906068Y-141601101D01*
X128085392Y-141819608D01*
X128303899Y-141998932D01*
X128553192Y-142132182D01*
X128823691Y-142214236D01*
X129034508Y-142235000D01*
X129175492Y-142235000D01*
X129386309Y-142214236D01*
X129656808Y-142132182D01*
X129906101Y-141998932D01*
X130124608Y-141819608D01*
X130303932Y-141601101D01*
X130437182Y-141351808D01*
X130519236Y-141081309D01*
X130546943Y-140800000D01*
X130519236Y-140518691D01*
X130437182Y-140248192D01*
X130303932Y-139998899D01*
X130214670Y-139890133D01*
X130741005Y-139363799D01*
X130770002Y-139340002D01*
X130864975Y-139224277D01*
X130935547Y-139092248D01*
X130979004Y-138948987D01*
X130990001Y-138837334D01*
X130990001Y-138837326D01*
X130993677Y-138800001D01*
X130990001Y-138762676D01*
X130990001Y-136882323D01*
X130993677Y-136845000D01*
X130990001Y-136807677D01*
X130990001Y-136807668D01*
X130979004Y-136696015D01*
X130935547Y-136552754D01*
X130864975Y-136420725D01*
X130770002Y-136305000D01*
X130740998Y-136281197D01*
X130505708Y-136045907D01*
X130519236Y-136001309D01*
X130546943Y-135720000D01*
X130519236Y-135438691D01*
X130437182Y-135168192D01*
X130303932Y-134918899D01*
X130124608Y-134700392D01*
X129906101Y-134521068D01*
X129773142Y-134450000D01*
X129906101Y-134378932D01*
X130124608Y-134199608D01*
X130303932Y-133981101D01*
X130437182Y-133731808D01*
X130519236Y-133461309D01*
X130546943Y-133180000D01*
X130519236Y-132898691D01*
X130437182Y-132628192D01*
X130303932Y-132378899D01*
X130124608Y-132160392D01*
X129906101Y-131981068D01*
X129773142Y-131910000D01*
X129906101Y-131838932D01*
X130124608Y-131659608D01*
X130303932Y-131441101D01*
X130437182Y-131191808D01*
X130519236Y-130921309D01*
X130546943Y-130640000D01*
X130519236Y-130358691D01*
X130437182Y-130088192D01*
X130303932Y-129838899D01*
X130124608Y-129620392D01*
X129906101Y-129441068D01*
X129773142Y-129370000D01*
X129906101Y-129298932D01*
X130124608Y-129119608D01*
X130303932Y-128901101D01*
X130437182Y-128651808D01*
X130519236Y-128381309D01*
X130546943Y-128100000D01*
X130519236Y-127818691D01*
X130505708Y-127774094D01*
X130741005Y-127538797D01*
X130770002Y-127515000D01*
X130864975Y-127399275D01*
X130935547Y-127267246D01*
X130979004Y-127123985D01*
X130990001Y-127012332D01*
X130990001Y-127012324D01*
X130993677Y-126974999D01*
X130990001Y-126937674D01*
X130990001Y-125584800D01*
X136000967Y-120573835D01*
X135988541Y-120700000D01*
X136012450Y-120942748D01*
X135088997Y-121866202D01*
X135059999Y-121890000D01*
X135036201Y-121918998D01*
X135036200Y-121918999D01*
X134965025Y-122005725D01*
X134894453Y-122137755D01*
X134850997Y-122281016D01*
X134836323Y-122430001D01*
X134840000Y-122467333D01*
X134839999Y-126062678D01*
X134836323Y-126100001D01*
X134839999Y-126137323D01*
X134839999Y-126137333D01*
X134850996Y-126248986D01*
X134871021Y-126315000D01*
X134894453Y-126392247D01*
X134965025Y-126524277D01*
X134986729Y-126550723D01*
X135059998Y-126640002D01*
X135089001Y-126663805D01*
X135615330Y-127190133D01*
X135526068Y-127298899D01*
X135392818Y-127548192D01*
X135310764Y-127818691D01*
X135283057Y-128100000D01*
X135310764Y-128381309D01*
X135324292Y-128425907D01*
X135088997Y-128661202D01*
X135059999Y-128685000D01*
X135036201Y-128713998D01*
X135036200Y-128713999D01*
X134965025Y-128800725D01*
X134894453Y-128932755D01*
X134868237Y-129019180D01*
X134850997Y-129076015D01*
X134849548Y-129090723D01*
X134836323Y-129225001D01*
X134840000Y-129262333D01*
X134839999Y-131142678D01*
X134836323Y-131180001D01*
X134839999Y-131217323D01*
X134839999Y-131217333D01*
X134850996Y-131328986D01*
X134885005Y-131441101D01*
X134894453Y-131472247D01*
X134965025Y-131604277D01*
X135004870Y-131652827D01*
X135059998Y-131720002D01*
X135089001Y-131743805D01*
X135615330Y-132270133D01*
X135526068Y-132378899D01*
X135392818Y-132628192D01*
X135310764Y-132898691D01*
X135283057Y-133180000D01*
X135310764Y-133461309D01*
X135392818Y-133731808D01*
X135526068Y-133981101D01*
X135705392Y-134199608D01*
X135923899Y-134378932D01*
X136056858Y-134450000D01*
X135923899Y-134521068D01*
X135705392Y-134700392D01*
X135526068Y-134918899D01*
X135392818Y-135168192D01*
X135310764Y-135438691D01*
X135283057Y-135720000D01*
X135310764Y-136001309D01*
X135324292Y-136045907D01*
X135088997Y-136281202D01*
X135059999Y-136305000D01*
X135036201Y-136333998D01*
X135036200Y-136333999D01*
X134965025Y-136420725D01*
X134894453Y-136552755D01*
X134891951Y-136561004D01*
X134850998Y-136696014D01*
X134850997Y-136696016D01*
X134836323Y-136845001D01*
X134840000Y-136882333D01*
X134839999Y-138762678D01*
X134836323Y-138800001D01*
X134839999Y-138837323D01*
X134839999Y-138837333D01*
X134850996Y-138948986D01*
X134873653Y-139023676D01*
X134894453Y-139092247D01*
X134965025Y-139224277D01*
X134972730Y-139233665D01*
X135059998Y-139340002D01*
X135089001Y-139363805D01*
X135386187Y-139660990D01*
X135335498Y-139755820D01*
X135299188Y-139875518D01*
X135286928Y-140000000D01*
X135286928Y-141600000D01*
X135299188Y-141724482D01*
X135335498Y-141844180D01*
X135394463Y-141954494D01*
X135473815Y-142051185D01*
X135570506Y-142130537D01*
X135680820Y-142189502D01*
X135800518Y-142225812D01*
X135925000Y-142238072D01*
X137525000Y-142238072D01*
X137649482Y-142225812D01*
X137769180Y-142189502D01*
X137879494Y-142130537D01*
X137976185Y-142051185D01*
X138055537Y-141954494D01*
X138114502Y-141844180D01*
X138150812Y-141724482D01*
X138163072Y-141600000D01*
X138163072Y-140000000D01*
X138150812Y-139875518D01*
X138114502Y-139755820D01*
X138055537Y-139645506D01*
X137976185Y-139548815D01*
X137879494Y-139469463D01*
X137769180Y-139410498D01*
X137649482Y-139374188D01*
X137631518Y-139372419D01*
X137744608Y-139279608D01*
X137923932Y-139061101D01*
X138057182Y-138811808D01*
X138139236Y-138541309D01*
X138166943Y-138260000D01*
X138151185Y-138100000D01*
X140973000Y-138100000D01*
X140973000Y-143300000D01*
X140975440Y-143324776D01*
X140982667Y-143348601D01*
X140994403Y-143370557D01*
X141010197Y-143389803D01*
X141029443Y-143405597D01*
X141051399Y-143417333D01*
X141075224Y-143424560D01*
X141100000Y-143427000D01*
X146300000Y-143427000D01*
X146324776Y-143424560D01*
X146348601Y-143417333D01*
X146370557Y-143405597D01*
X146389803Y-143389803D01*
X146405597Y-143370557D01*
X146417333Y-143348601D01*
X146424560Y-143324776D01*
X146427000Y-143300000D01*
X146427000Y-138100000D01*
X146424560Y-138075224D01*
X146417333Y-138051399D01*
X146405597Y-138029443D01*
X146389803Y-138010197D01*
X146370557Y-137994403D01*
X146348601Y-137982667D01*
X146324776Y-137975440D01*
X146300000Y-137973000D01*
X141100000Y-137973000D01*
X141075224Y-137975440D01*
X141051399Y-137982667D01*
X141029443Y-137994403D01*
X141010197Y-138010197D01*
X140994403Y-138029443D01*
X140982667Y-138051399D01*
X140975440Y-138075224D01*
X140973000Y-138100000D01*
X138151185Y-138100000D01*
X138139236Y-137978691D01*
X138125708Y-137934094D01*
X140903685Y-135156117D01*
X140998102Y-135195226D01*
X141198061Y-135235000D01*
X141401939Y-135235000D01*
X141601898Y-135195226D01*
X141790256Y-135117205D01*
X141959774Y-135003937D01*
X142103937Y-134859774D01*
X142217205Y-134690256D01*
X142295226Y-134501898D01*
X142335000Y-134301939D01*
X142335000Y-134098061D01*
X142295226Y-133898102D01*
X142217205Y-133709744D01*
X142103937Y-133540226D01*
X141959774Y-133396063D01*
X141790256Y-133282795D01*
X141601898Y-133204774D01*
X141401939Y-133165000D01*
X141198061Y-133165000D01*
X140998102Y-133204774D01*
X140809744Y-133282795D01*
X140640226Y-133396063D01*
X140563206Y-133473083D01*
X140502580Y-133491473D01*
X140492753Y-133494454D01*
X140360723Y-133565026D01*
X140278886Y-133632189D01*
X140244999Y-133659999D01*
X140221201Y-133688997D01*
X138164402Y-135745796D01*
X138166943Y-135720000D01*
X138139236Y-135438691D01*
X138057182Y-135168192D01*
X137923932Y-134918899D01*
X137744608Y-134700392D01*
X137526101Y-134521068D01*
X137393142Y-134450000D01*
X137526101Y-134378932D01*
X137744608Y-134199608D01*
X137923932Y-133981101D01*
X138057182Y-133731808D01*
X138139236Y-133461309D01*
X138166943Y-133180000D01*
X138139236Y-132898691D01*
X138057182Y-132628192D01*
X137923932Y-132378899D01*
X137744608Y-132160392D01*
X137526101Y-131981068D01*
X137393142Y-131910000D01*
X137526101Y-131838932D01*
X137744608Y-131659608D01*
X137923932Y-131441101D01*
X137945901Y-131400000D01*
X142025199Y-131400000D01*
X142065000Y-131439801D01*
X142065000Y-131501939D01*
X142104774Y-131701898D01*
X142182795Y-131890256D01*
X142296063Y-132059774D01*
X142440226Y-132203937D01*
X142609744Y-132317205D01*
X142798102Y-132395226D01*
X142998061Y-132435000D01*
X143201939Y-132435000D01*
X143401898Y-132395226D01*
X143590256Y-132317205D01*
X143759774Y-132203937D01*
X143854455Y-132109256D01*
X144979292Y-133234094D01*
X144965764Y-133278691D01*
X144938057Y-133560000D01*
X144965764Y-133841309D01*
X145047818Y-134111808D01*
X145181068Y-134361101D01*
X145360392Y-134579608D01*
X145578899Y-134758932D01*
X145711858Y-134830000D01*
X145578899Y-134901068D01*
X145360392Y-135080392D01*
X145181068Y-135298899D01*
X145047818Y-135548192D01*
X144965764Y-135818691D01*
X144938057Y-136100000D01*
X144965764Y-136381309D01*
X145047818Y-136651808D01*
X145181068Y-136901101D01*
X145360392Y-137119608D01*
X145578899Y-137298932D01*
X145828192Y-137432182D01*
X146098691Y-137514236D01*
X146309508Y-137535000D01*
X146450492Y-137535000D01*
X146661309Y-137514236D01*
X146931808Y-137432182D01*
X147181101Y-137298932D01*
X147399608Y-137119608D01*
X147578932Y-136901101D01*
X147712182Y-136651808D01*
X147794236Y-136381309D01*
X147821943Y-136100000D01*
X147794236Y-135818691D01*
X147712182Y-135548192D01*
X147578932Y-135298899D01*
X147399608Y-135080392D01*
X147181101Y-134901068D01*
X147048142Y-134830000D01*
X147181101Y-134758932D01*
X147399608Y-134579608D01*
X147578932Y-134361101D01*
X147712182Y-134111808D01*
X147794236Y-133841309D01*
X147821943Y-133560000D01*
X147794236Y-133278691D01*
X147712182Y-133008192D01*
X147578932Y-132758899D01*
X147399608Y-132540392D01*
X147181101Y-132361068D01*
X147043318Y-132287421D01*
X147235131Y-132172385D01*
X147443519Y-131983414D01*
X147611037Y-131757420D01*
X147731246Y-131503087D01*
X147771904Y-131369039D01*
X147649915Y-131147000D01*
X146507000Y-131147000D01*
X146507000Y-131167000D01*
X146253000Y-131167000D01*
X146253000Y-131147000D01*
X145110085Y-131147000D01*
X145085872Y-131191071D01*
X143560000Y-129665199D01*
X143560000Y-129413072D01*
X143600000Y-129413072D01*
X143724482Y-129400812D01*
X143844180Y-129364502D01*
X143954494Y-129305537D01*
X144051185Y-129226185D01*
X144130537Y-129129494D01*
X144189502Y-129019180D01*
X144225812Y-128899482D01*
X144238072Y-128775000D01*
X144238072Y-127175000D01*
X144225812Y-127050518D01*
X144189502Y-126930820D01*
X144130537Y-126820506D01*
X144051185Y-126723815D01*
X143954494Y-126644463D01*
X143844180Y-126585498D01*
X143724482Y-126549188D01*
X143600000Y-126536928D01*
X142000000Y-126536928D01*
X141875518Y-126549188D01*
X141755820Y-126585498D01*
X141645506Y-126644463D01*
X141548815Y-126723815D01*
X141469463Y-126820506D01*
X141410498Y-126930820D01*
X141374188Y-127050518D01*
X141361928Y-127175000D01*
X141361928Y-127182215D01*
X141292702Y-127161903D01*
X140479605Y-127975000D01*
X141292702Y-128788097D01*
X141361928Y-128767785D01*
X141361928Y-128775000D01*
X141374188Y-128899482D01*
X141410498Y-129019180D01*
X141469463Y-129129494D01*
X141548815Y-129226185D01*
X141645506Y-129305537D01*
X141755820Y-129364502D01*
X141875518Y-129400812D01*
X142000000Y-129413072D01*
X142040000Y-129413072D01*
X142040000Y-129880000D01*
X137945901Y-129880000D01*
X137923932Y-129838899D01*
X137744608Y-129620392D01*
X137526101Y-129441068D01*
X137393142Y-129370000D01*
X137526101Y-129298932D01*
X137744608Y-129119608D01*
X137869273Y-128967702D01*
X139486903Y-128967702D01*
X139558486Y-129211671D01*
X139813996Y-129332571D01*
X140088184Y-129401300D01*
X140370512Y-129415217D01*
X140650130Y-129373787D01*
X140916292Y-129278603D01*
X141041514Y-129211671D01*
X141113097Y-128967702D01*
X140300000Y-128154605D01*
X139486903Y-128967702D01*
X137869273Y-128967702D01*
X137923932Y-128901101D01*
X138057182Y-128651808D01*
X138139236Y-128381309D01*
X138166943Y-128100000D01*
X138161577Y-128045512D01*
X138859783Y-128045512D01*
X138901213Y-128325130D01*
X138996397Y-128591292D01*
X139063329Y-128716514D01*
X139307298Y-128788097D01*
X140120395Y-127975000D01*
X139307298Y-127161903D01*
X139063329Y-127233486D01*
X138942429Y-127488996D01*
X138873700Y-127763184D01*
X138859783Y-128045512D01*
X138161577Y-128045512D01*
X138139236Y-127818691D01*
X138057182Y-127548192D01*
X137923932Y-127298899D01*
X137744608Y-127080392D01*
X137625081Y-126982298D01*
X139486903Y-126982298D01*
X140300000Y-127795395D01*
X141113097Y-126982298D01*
X141041514Y-126738329D01*
X140786004Y-126617429D01*
X140511816Y-126548700D01*
X140229488Y-126534783D01*
X139949870Y-126576213D01*
X139683708Y-126671397D01*
X139558486Y-126738329D01*
X139486903Y-126982298D01*
X137625081Y-126982298D01*
X137526101Y-126901068D01*
X137388318Y-126827421D01*
X137580131Y-126712385D01*
X137788519Y-126523414D01*
X137956037Y-126297420D01*
X138076246Y-126043087D01*
X138116904Y-125909039D01*
X137994915Y-125687000D01*
X136852000Y-125687000D01*
X136852000Y-125707000D01*
X136598000Y-125707000D01*
X136598000Y-125687000D01*
X136578000Y-125687000D01*
X136578000Y-125433000D01*
X136598000Y-125433000D01*
X136598000Y-124289376D01*
X136852000Y-124289376D01*
X136852000Y-125433000D01*
X137994915Y-125433000D01*
X138116904Y-125210961D01*
X138076246Y-125076913D01*
X137956037Y-124822580D01*
X137788519Y-124596586D01*
X137580131Y-124407615D01*
X137338881Y-124262930D01*
X137074040Y-124168091D01*
X136852000Y-124289376D01*
X136598000Y-124289376D01*
X136375960Y-124168091D01*
X136359999Y-124173807D01*
X136359999Y-122744802D01*
X137087252Y-122017550D01*
X137264421Y-122035000D01*
X137395579Y-122035000D01*
X137591706Y-122015683D01*
X137843354Y-121939347D01*
X138075275Y-121815382D01*
X138278555Y-121648555D01*
X138445382Y-121445275D01*
X138569347Y-121213354D01*
X138645683Y-120961706D01*
X138671459Y-120700000D01*
X138645683Y-120438294D01*
X138569347Y-120186646D01*
X138445382Y-119954725D01*
X138278555Y-119751445D01*
X138075275Y-119584618D01*
X137843354Y-119460653D01*
X137786599Y-119443437D01*
X137932359Y-119383061D01*
X138151013Y-119236962D01*
X138336962Y-119051013D01*
X138483061Y-118832359D01*
X138583696Y-118589405D01*
X138635000Y-118331486D01*
X138635000Y-118068514D01*
X138583696Y-117810595D01*
X138483061Y-117567641D01*
X138336962Y-117348987D01*
X138151013Y-117163038D01*
X138060000Y-117102225D01*
X138060000Y-116587322D01*
X138063676Y-116549999D01*
X138060000Y-116512676D01*
X138060000Y-116512667D01*
X138049003Y-116401014D01*
X138005546Y-116257753D01*
X137934974Y-116125724D01*
X137840001Y-116009999D01*
X137811003Y-115986201D01*
X137348688Y-115523886D01*
X137385000Y-115341335D01*
X137385000Y-115058665D01*
X137329853Y-114781426D01*
X137221680Y-114520273D01*
X137064637Y-114285241D01*
X136864759Y-114085363D01*
X136629727Y-113928320D01*
X136368574Y-113820147D01*
X136091335Y-113765000D01*
X135808665Y-113765000D01*
X135531426Y-113820147D01*
X135270273Y-113928320D01*
X135035241Y-114085363D01*
X134835363Y-114285241D01*
X134701308Y-114485869D01*
X134686671Y-114458486D01*
X134442702Y-114386903D01*
X133629605Y-115200000D01*
X134442702Y-116013097D01*
X134686671Y-115941514D01*
X134700324Y-115912659D01*
X134835363Y-116114759D01*
X135035241Y-116314637D01*
X135270273Y-116471680D01*
X135531426Y-116579853D01*
X135808665Y-116635000D01*
X136091335Y-116635000D01*
X136273886Y-116598688D01*
X136540001Y-116864803D01*
X136540001Y-117102225D01*
X136448987Y-117163038D01*
X136263038Y-117348987D01*
X136116939Y-117567641D01*
X136016304Y-117810595D01*
X135965000Y-118068514D01*
X135965000Y-118331486D01*
X135986355Y-118438842D01*
X133582837Y-120842361D01*
X133585000Y-120831486D01*
X133585000Y-120568514D01*
X133533696Y-120310595D01*
X133433061Y-120067641D01*
X133286962Y-119848987D01*
X133101013Y-119663038D01*
X133010000Y-119602225D01*
X133010000Y-119278677D01*
X133168555Y-119148555D01*
X133335382Y-118945275D01*
X133459347Y-118713354D01*
X133535683Y-118461706D01*
X133561459Y-118200000D01*
X133535683Y-117938294D01*
X133459347Y-117686646D01*
X133335382Y-117454725D01*
X133168555Y-117251445D01*
X132965275Y-117084618D01*
X132733354Y-116960653D01*
X132481706Y-116884317D01*
X132285579Y-116865000D01*
X132154421Y-116865000D01*
X131958294Y-116884317D01*
X131706646Y-116960653D01*
X131474725Y-117084618D01*
X131271445Y-117251445D01*
X131104618Y-117454725D01*
X130980653Y-117686646D01*
X130904317Y-117938294D01*
X130878541Y-118200000D01*
X130904317Y-118461706D01*
X130980653Y-118713354D01*
X131104618Y-118945275D01*
X131271445Y-119148555D01*
X131474725Y-119315382D01*
X131490001Y-119323547D01*
X131490000Y-119602225D01*
X131398987Y-119663038D01*
X131213038Y-119848987D01*
X131066939Y-120067641D01*
X130966304Y-120310595D01*
X130915000Y-120568514D01*
X130915000Y-120831486D01*
X130966304Y-121089405D01*
X131066939Y-121332359D01*
X131213038Y-121551013D01*
X131398987Y-121736962D01*
X131617641Y-121883061D01*
X131860595Y-121983696D01*
X132118514Y-122035000D01*
X132381486Y-122035000D01*
X132392361Y-122032837D01*
X130010000Y-124415199D01*
X130010000Y-121918043D01*
X130164759Y-121814637D01*
X130364637Y-121614759D01*
X130521680Y-121379727D01*
X130629853Y-121118574D01*
X130685000Y-120841335D01*
X130685000Y-120558665D01*
X130629853Y-120281426D01*
X130521680Y-120020273D01*
X130364637Y-119785241D01*
X130164759Y-119585363D01*
X129962173Y-119450000D01*
X130164759Y-119314637D01*
X130364637Y-119114759D01*
X130521680Y-118879727D01*
X130629853Y-118618574D01*
X130685000Y-118341335D01*
X130685000Y-118058665D01*
X130629853Y-117781426D01*
X130521680Y-117520273D01*
X130364637Y-117285241D01*
X130164759Y-117085363D01*
X129929727Y-116928320D01*
X129668574Y-116820147D01*
X129391335Y-116765000D01*
X129108665Y-116765000D01*
X128831426Y-116820147D01*
X128570273Y-116928320D01*
X128335241Y-117085363D01*
X128135363Y-117285241D01*
X127978320Y-117520273D01*
X127870147Y-117781426D01*
X127815000Y-118058665D01*
X127815000Y-118341335D01*
X127870147Y-118618574D01*
X127978320Y-118879727D01*
X128135363Y-119114759D01*
X128335241Y-119314637D01*
X128537827Y-119450000D01*
X128335241Y-119585363D01*
X128135363Y-119785241D01*
X127978320Y-120020273D01*
X127870147Y-120281426D01*
X127815000Y-120558665D01*
X127815000Y-120841335D01*
X127870147Y-121118574D01*
X127978320Y-121379727D01*
X128135363Y-121614759D01*
X128335241Y-121814637D01*
X128490000Y-121918044D01*
X128490001Y-124261594D01*
X128303899Y-124361068D01*
X128289989Y-124372484D01*
X128289989Y-123419777D01*
X128293908Y-123379989D01*
X128289989Y-123340198D01*
X128278269Y-123221201D01*
X128231952Y-123068516D01*
X128231952Y-123068515D01*
X128156738Y-122927800D01*
X128100101Y-122858787D01*
X128055517Y-122804461D01*
X128024607Y-122779094D01*
X127832871Y-122587358D01*
X127795226Y-122398102D01*
X127717205Y-122209744D01*
X127603937Y-122040226D01*
X127459774Y-121896063D01*
X127290256Y-121782795D01*
X127101898Y-121704774D01*
X126901939Y-121665000D01*
X126864396Y-121665000D01*
X126914637Y-121614759D01*
X127071680Y-121379727D01*
X127179853Y-121118574D01*
X127235000Y-120841335D01*
X127235000Y-120558665D01*
X127179853Y-120281426D01*
X127071680Y-120020273D01*
X126914637Y-119785241D01*
X126714759Y-119585363D01*
X126512173Y-119450000D01*
X126714759Y-119314637D01*
X126914637Y-119114759D01*
X127071680Y-118879727D01*
X127179853Y-118618574D01*
X127235000Y-118341335D01*
X127235000Y-118058665D01*
X127179853Y-117781426D01*
X127071680Y-117520273D01*
X126914637Y-117285241D01*
X126714759Y-117085363D01*
X126479727Y-116928320D01*
X126218574Y-116820147D01*
X125941335Y-116765000D01*
X125658665Y-116765000D01*
X125381426Y-116820147D01*
X125120273Y-116928320D01*
X124885241Y-117085363D01*
X124685363Y-117285241D01*
X124528320Y-117520273D01*
X124420147Y-117781426D01*
X124365000Y-118058665D01*
X124365000Y-118341335D01*
X124420147Y-118618574D01*
X124528320Y-118879727D01*
X124685363Y-119114759D01*
X124885241Y-119314637D01*
X125087827Y-119450000D01*
X124885241Y-119585363D01*
X124685363Y-119785241D01*
X124528320Y-120020273D01*
X124420147Y-120281426D01*
X124365000Y-120558665D01*
X124365000Y-120841335D01*
X124420147Y-121118574D01*
X124528320Y-121379727D01*
X124685363Y-121614759D01*
X124885241Y-121814637D01*
X125120273Y-121971680D01*
X125381426Y-122079853D01*
X125658665Y-122135000D01*
X125932737Y-122135000D01*
X125882795Y-122209744D01*
X125804774Y-122398102D01*
X125765000Y-122598061D01*
X125765000Y-122801939D01*
X125804774Y-123001898D01*
X125882795Y-123190256D01*
X125996063Y-123359774D01*
X126140226Y-123503937D01*
X126309744Y-123617205D01*
X126498102Y-123695226D01*
X126669990Y-123729416D01*
X126669989Y-129461527D01*
X126668354Y-129460653D01*
X126416706Y-129384317D01*
X126220579Y-129365000D01*
X126089421Y-129365000D01*
X125893294Y-129384317D01*
X125785000Y-129417167D01*
X125785000Y-128968043D01*
X125939759Y-128864637D01*
X126139637Y-128664759D01*
X126296680Y-128429727D01*
X126404853Y-128168574D01*
X126460000Y-127891335D01*
X126460000Y-127608665D01*
X126404853Y-127331426D01*
X126296680Y-127070273D01*
X126139637Y-126835241D01*
X125939759Y-126635363D01*
X125785000Y-126531957D01*
X125785000Y-125643043D01*
X125939759Y-125539637D01*
X126139637Y-125339759D01*
X126296680Y-125104727D01*
X126404853Y-124843574D01*
X126460000Y-124566335D01*
X126460000Y-124283665D01*
X126404853Y-124006426D01*
X126296680Y-123745273D01*
X126139637Y-123510241D01*
X125939759Y-123310363D01*
X125704727Y-123153320D01*
X125443574Y-123045147D01*
X125166335Y-122990000D01*
X124883665Y-122990000D01*
X124606426Y-123045147D01*
X124345273Y-123153320D01*
X124110241Y-123310363D01*
X123910363Y-123510241D01*
X123775000Y-123712827D01*
X123639637Y-123510241D01*
X123439759Y-123310363D01*
X123204727Y-123153320D01*
X122943574Y-123045147D01*
X122666335Y-122990000D01*
X122383665Y-122990000D01*
X122106426Y-123045147D01*
X121845273Y-123153320D01*
X121610241Y-123310363D01*
X121410363Y-123510241D01*
X121253320Y-123745273D01*
X121145147Y-124006426D01*
X121090000Y-124283665D01*
X121090000Y-124566335D01*
X121145147Y-124843574D01*
X121253320Y-125104727D01*
X121410363Y-125339759D01*
X121610241Y-125539637D01*
X121765000Y-125643044D01*
X121765000Y-126531957D01*
X121610241Y-126635363D01*
X121410363Y-126835241D01*
X121253320Y-127070273D01*
X121145147Y-127331426D01*
X121090000Y-127608665D01*
X121090000Y-127891335D01*
X121145147Y-128168574D01*
X121253320Y-128429727D01*
X121410363Y-128664759D01*
X121610241Y-128864637D01*
X121745311Y-128954887D01*
X121313843Y-129386355D01*
X121206486Y-129365000D01*
X120943514Y-129365000D01*
X120685595Y-129416304D01*
X120442641Y-129516939D01*
X120223987Y-129663038D01*
X120038038Y-129848987D01*
X119891939Y-130067641D01*
X119791304Y-130310595D01*
X119740000Y-130568514D01*
X92560000Y-130568514D01*
X92560000Y-130012341D01*
X92690535Y-129925120D01*
X92885120Y-129730535D01*
X93038005Y-129501727D01*
X93143314Y-129247490D01*
X93197000Y-128977592D01*
X93197000Y-128702408D01*
X93143314Y-128432510D01*
X93038005Y-128178273D01*
X92885120Y-127949465D01*
X92690535Y-127754880D01*
X92461727Y-127601995D01*
X92384485Y-127570000D01*
X92461727Y-127538005D01*
X92690535Y-127385120D01*
X92885120Y-127190535D01*
X93038005Y-126961727D01*
X93143314Y-126707490D01*
X93197000Y-126437592D01*
X93197000Y-126162408D01*
X94803000Y-126162408D01*
X94803000Y-126437592D01*
X94856686Y-126707490D01*
X94961995Y-126961727D01*
X95114880Y-127190535D01*
X95309465Y-127385120D01*
X95538273Y-127538005D01*
X95615515Y-127570000D01*
X95538273Y-127601995D01*
X95309465Y-127754880D01*
X95114880Y-127949465D01*
X94961995Y-128178273D01*
X94856686Y-128432510D01*
X94803000Y-128702408D01*
X94803000Y-128977592D01*
X94856686Y-129247490D01*
X94961995Y-129501727D01*
X95114880Y-129730535D01*
X95309465Y-129925120D01*
X95538273Y-130078005D01*
X95792510Y-130183314D01*
X96062408Y-130237000D01*
X96337592Y-130237000D01*
X96607490Y-130183314D01*
X96861727Y-130078005D01*
X97090535Y-129925120D01*
X97285120Y-129730535D01*
X97438005Y-129501727D01*
X97543314Y-129247490D01*
X97597000Y-128977592D01*
X97597000Y-128702408D01*
X97543314Y-128432510D01*
X97438005Y-128178273D01*
X97285120Y-127949465D01*
X97090535Y-127754880D01*
X96861727Y-127601995D01*
X96784485Y-127570000D01*
X96861727Y-127538005D01*
X97090535Y-127385120D01*
X97285120Y-127190535D01*
X97438005Y-126961727D01*
X97543314Y-126707490D01*
X97597000Y-126437592D01*
X97597000Y-126162408D01*
X97543314Y-125892510D01*
X97438005Y-125638273D01*
X97285120Y-125409465D01*
X97090535Y-125214880D01*
X96861727Y-125061995D01*
X96790057Y-125032308D01*
X96803023Y-125027636D01*
X96918980Y-124965656D01*
X96985960Y-124725565D01*
X96200000Y-123939605D01*
X95414040Y-124725565D01*
X95481020Y-124965656D01*
X95616760Y-125029485D01*
X95538273Y-125061995D01*
X95309465Y-125214880D01*
X95114880Y-125409465D01*
X94961995Y-125638273D01*
X94856686Y-125892510D01*
X94803000Y-126162408D01*
X93197000Y-126162408D01*
X93143314Y-125892510D01*
X93038005Y-125638273D01*
X92885120Y-125409465D01*
X92690535Y-125214880D01*
X92461727Y-125061995D01*
X92390057Y-125032308D01*
X92403023Y-125027636D01*
X92518980Y-124965656D01*
X92585960Y-124725565D01*
X91800000Y-123939605D01*
X91014040Y-124725565D01*
X91081020Y-124965656D01*
X91216760Y-125029485D01*
X91138273Y-125061995D01*
X90909465Y-125214880D01*
X90714880Y-125409465D01*
X90561995Y-125638273D01*
X90456686Y-125892510D01*
X90403000Y-126162408D01*
X90403000Y-126437592D01*
X90456686Y-126707490D01*
X90561995Y-126961727D01*
X90714880Y-127190535D01*
X90909465Y-127385120D01*
X91138273Y-127538005D01*
X91215515Y-127570000D01*
X91138273Y-127601995D01*
X90909465Y-127754880D01*
X90714880Y-127949465D01*
X90561995Y-128178273D01*
X90456686Y-128432510D01*
X90403000Y-128702408D01*
X90403000Y-128977592D01*
X90456686Y-129247490D01*
X90561995Y-129501727D01*
X90714880Y-129730535D01*
X90909465Y-129925120D01*
X91040001Y-130012342D01*
X91040000Y-137275544D01*
X90775596Y-137416871D01*
X90496181Y-137646181D01*
X90266871Y-137925596D01*
X90096479Y-138244378D01*
X89991552Y-138590277D01*
X89956122Y-138950000D01*
X82127000Y-138950000D01*
X82127000Y-138100000D01*
X82124560Y-138075224D01*
X82117333Y-138051399D01*
X82105597Y-138029443D01*
X82089803Y-138010197D01*
X82070557Y-137994403D01*
X82048601Y-137982667D01*
X82024776Y-137975440D01*
X82000000Y-137973000D01*
X76800000Y-137973000D01*
X76775224Y-137975440D01*
X76751399Y-137982667D01*
X76729443Y-137994403D01*
X76710197Y-138010197D01*
X76694403Y-138029443D01*
X76682667Y-138051399D01*
X76675440Y-138075224D01*
X76673000Y-138100000D01*
X76673000Y-141309352D01*
X76660000Y-141185664D01*
X76660000Y-126162408D01*
X85903000Y-126162408D01*
X85903000Y-126437592D01*
X85956686Y-126707490D01*
X86061995Y-126961727D01*
X86214880Y-127190535D01*
X86409465Y-127385120D01*
X86638273Y-127538005D01*
X86715515Y-127570000D01*
X86638273Y-127601995D01*
X86409465Y-127754880D01*
X86214880Y-127949465D01*
X86061995Y-128178273D01*
X85956686Y-128432510D01*
X85903000Y-128702408D01*
X85903000Y-128977592D01*
X85956686Y-129247490D01*
X86061995Y-129501727D01*
X86214880Y-129730535D01*
X86409465Y-129925120D01*
X86638273Y-130078005D01*
X86892510Y-130183314D01*
X87162408Y-130237000D01*
X87437592Y-130237000D01*
X87707490Y-130183314D01*
X87961727Y-130078005D01*
X88190535Y-129925120D01*
X88385120Y-129730535D01*
X88538005Y-129501727D01*
X88643314Y-129247490D01*
X88697000Y-128977592D01*
X88697000Y-128702408D01*
X88643314Y-128432510D01*
X88538005Y-128178273D01*
X88385120Y-127949465D01*
X88190535Y-127754880D01*
X87961727Y-127601995D01*
X87884485Y-127570000D01*
X87961727Y-127538005D01*
X88190535Y-127385120D01*
X88385120Y-127190535D01*
X88538005Y-126961727D01*
X88643314Y-126707490D01*
X88697000Y-126437592D01*
X88697000Y-126162408D01*
X88643314Y-125892510D01*
X88538005Y-125638273D01*
X88385120Y-125409465D01*
X88190535Y-125214880D01*
X87961727Y-125061995D01*
X87890057Y-125032308D01*
X87903023Y-125027636D01*
X88018980Y-124965656D01*
X88085960Y-124725565D01*
X87300000Y-123939605D01*
X86514040Y-124725565D01*
X86581020Y-124965656D01*
X86716760Y-125029485D01*
X86638273Y-125061995D01*
X86409465Y-125214880D01*
X86214880Y-125409465D01*
X86061995Y-125638273D01*
X85956686Y-125892510D01*
X85903000Y-126162408D01*
X76660000Y-126162408D01*
X76660000Y-123832017D01*
X85898090Y-123832017D01*
X85939078Y-124104133D01*
X86032364Y-124363023D01*
X86094344Y-124478980D01*
X86334435Y-124545960D01*
X87120395Y-123760000D01*
X87479605Y-123760000D01*
X88265565Y-124545960D01*
X88505656Y-124478980D01*
X88622756Y-124229952D01*
X88689023Y-123962865D01*
X88695157Y-123832017D01*
X90398090Y-123832017D01*
X90439078Y-124104133D01*
X90532364Y-124363023D01*
X90594344Y-124478980D01*
X90834435Y-124545960D01*
X91620395Y-123760000D01*
X91979605Y-123760000D01*
X92765565Y-124545960D01*
X93005656Y-124478980D01*
X93122756Y-124229952D01*
X93189023Y-123962865D01*
X93195157Y-123832017D01*
X94798090Y-123832017D01*
X94839078Y-124104133D01*
X94932364Y-124363023D01*
X94994344Y-124478980D01*
X95234435Y-124545960D01*
X96020395Y-123760000D01*
X96379605Y-123760000D01*
X97165565Y-124545960D01*
X97405656Y-124478980D01*
X97522756Y-124229952D01*
X97589023Y-123962865D01*
X97601910Y-123687983D01*
X97560922Y-123415867D01*
X97467636Y-123156977D01*
X97405656Y-123041020D01*
X97165565Y-122974040D01*
X96379605Y-123760000D01*
X96020395Y-123760000D01*
X95234435Y-122974040D01*
X94994344Y-123041020D01*
X94877244Y-123290048D01*
X94810977Y-123557135D01*
X94798090Y-123832017D01*
X93195157Y-123832017D01*
X93201910Y-123687983D01*
X93160922Y-123415867D01*
X93067636Y-123156977D01*
X93005656Y-123041020D01*
X92765565Y-122974040D01*
X91979605Y-123760000D01*
X91620395Y-123760000D01*
X90834435Y-122974040D01*
X90594344Y-123041020D01*
X90477244Y-123290048D01*
X90410977Y-123557135D01*
X90398090Y-123832017D01*
X88695157Y-123832017D01*
X88701910Y-123687983D01*
X88660922Y-123415867D01*
X88567636Y-123156977D01*
X88505656Y-123041020D01*
X88265565Y-122974040D01*
X87479605Y-123760000D01*
X87120395Y-123760000D01*
X86334435Y-122974040D01*
X86094344Y-123041020D01*
X85977244Y-123290048D01*
X85910977Y-123557135D01*
X85898090Y-123832017D01*
X76660000Y-123832017D01*
X76660000Y-122794435D01*
X86514040Y-122794435D01*
X87300000Y-123580395D01*
X88085960Y-122794435D01*
X91014040Y-122794435D01*
X91800000Y-123580395D01*
X92585960Y-122794435D01*
X95414040Y-122794435D01*
X96200000Y-123580395D01*
X96985960Y-122794435D01*
X96918980Y-122554344D01*
X96669952Y-122437244D01*
X96402865Y-122370977D01*
X96127983Y-122358090D01*
X95855867Y-122399078D01*
X95596977Y-122492364D01*
X95481020Y-122554344D01*
X95414040Y-122794435D01*
X92585960Y-122794435D01*
X92518980Y-122554344D01*
X92269952Y-122437244D01*
X92002865Y-122370977D01*
X91727983Y-122358090D01*
X91455867Y-122399078D01*
X91196977Y-122492364D01*
X91081020Y-122554344D01*
X91014040Y-122794435D01*
X88085960Y-122794435D01*
X88018980Y-122554344D01*
X87769952Y-122437244D01*
X87502865Y-122370977D01*
X87227983Y-122358090D01*
X86955867Y-122399078D01*
X86696977Y-122492364D01*
X86581020Y-122554344D01*
X86514040Y-122794435D01*
X76660000Y-122794435D01*
X76660000Y-106648816D01*
X82665000Y-106648816D01*
X82665000Y-106951184D01*
X82723989Y-107247743D01*
X82839701Y-107527095D01*
X83007688Y-107778505D01*
X83221495Y-107992312D01*
X83472905Y-108160299D01*
X83752257Y-108276011D01*
X84048816Y-108335000D01*
X84351184Y-108335000D01*
X84647743Y-108276011D01*
X84927095Y-108160299D01*
X85178505Y-107992312D01*
X85392312Y-107778505D01*
X85560299Y-107527095D01*
X85676011Y-107247743D01*
X85735000Y-106951184D01*
X85735000Y-106668514D01*
X88165000Y-106668514D01*
X88165000Y-106931486D01*
X88216304Y-107189405D01*
X88316939Y-107432359D01*
X88463038Y-107651013D01*
X88648987Y-107836962D01*
X88867641Y-107983061D01*
X89110595Y-108083696D01*
X89368514Y-108135000D01*
X89631486Y-108135000D01*
X89889405Y-108083696D01*
X90132359Y-107983061D01*
X90351013Y-107836962D01*
X90536962Y-107651013D01*
X90683061Y-107432359D01*
X90783696Y-107189405D01*
X90835000Y-106931486D01*
X90835000Y-106668514D01*
X90783696Y-106410595D01*
X90683061Y-106167641D01*
X90536962Y-105948987D01*
X90351013Y-105763038D01*
X90132359Y-105616939D01*
X89889405Y-105516304D01*
X89631486Y-105465000D01*
X89368514Y-105465000D01*
X89110595Y-105516304D01*
X88867641Y-105616939D01*
X88648987Y-105763038D01*
X88463038Y-105948987D01*
X88316939Y-106167641D01*
X88216304Y-106410595D01*
X88165000Y-106668514D01*
X85735000Y-106668514D01*
X85735000Y-106648816D01*
X85676011Y-106352257D01*
X85560299Y-106072905D01*
X85392312Y-105821495D01*
X85178505Y-105607688D01*
X84927095Y-105439701D01*
X84647743Y-105323989D01*
X84351184Y-105265000D01*
X84048816Y-105265000D01*
X83752257Y-105323989D01*
X83472905Y-105439701D01*
X83221495Y-105607688D01*
X83007688Y-105821495D01*
X82839701Y-106072905D01*
X82723989Y-106352257D01*
X82665000Y-106648816D01*
X76660000Y-106648816D01*
X76660000Y-102864080D01*
X78315525Y-102864080D01*
X78399208Y-103118261D01*
X78671775Y-103249158D01*
X78964642Y-103324365D01*
X79266553Y-103340991D01*
X79565907Y-103298397D01*
X79851199Y-103198222D01*
X80000792Y-103118261D01*
X80084475Y-102864080D01*
X79200000Y-101979605D01*
X78315525Y-102864080D01*
X76660000Y-102864080D01*
X76660000Y-101866553D01*
X77659009Y-101866553D01*
X77701603Y-102165907D01*
X77801778Y-102451199D01*
X77881739Y-102600792D01*
X78135920Y-102684475D01*
X79020395Y-101800000D01*
X79379605Y-101800000D01*
X80264080Y-102684475D01*
X80518261Y-102600792D01*
X80649158Y-102328225D01*
X80724365Y-102035358D01*
X80740991Y-101733447D01*
X80698397Y-101434093D01*
X80598222Y-101148801D01*
X80518261Y-100999208D01*
X80264080Y-100915525D01*
X79379605Y-101800000D01*
X79020395Y-101800000D01*
X78135920Y-100915525D01*
X77881739Y-100999208D01*
X77750842Y-101271775D01*
X77675635Y-101564642D01*
X77659009Y-101866553D01*
X76660000Y-101866553D01*
X76660000Y-100735920D01*
X78315525Y-100735920D01*
X79200000Y-101620395D01*
X80084475Y-100735920D01*
X80000792Y-100481739D01*
X79728225Y-100350842D01*
X79435358Y-100275635D01*
X79133447Y-100259009D01*
X78834093Y-100301603D01*
X78548801Y-100401778D01*
X78399208Y-100481739D01*
X78315525Y-100735920D01*
X76660000Y-100735920D01*
X76660000Y-96648816D01*
X82665000Y-96648816D01*
X82665000Y-96951184D01*
X82723989Y-97247743D01*
X82839701Y-97527095D01*
X83007688Y-97778505D01*
X83221495Y-97992312D01*
X83472905Y-98160299D01*
X83752257Y-98276011D01*
X84048816Y-98335000D01*
X84351184Y-98335000D01*
X84647743Y-98276011D01*
X84927095Y-98160299D01*
X85178505Y-97992312D01*
X85392312Y-97778505D01*
X85560299Y-97527095D01*
X85676011Y-97247743D01*
X85735000Y-96951184D01*
X85735000Y-96668514D01*
X88165000Y-96668514D01*
X88165000Y-96931486D01*
X88216304Y-97189405D01*
X88316939Y-97432359D01*
X88463038Y-97651013D01*
X88648987Y-97836962D01*
X88867641Y-97983061D01*
X89110595Y-98083696D01*
X89368514Y-98135000D01*
X89631486Y-98135000D01*
X89889405Y-98083696D01*
X90132359Y-97983061D01*
X90351013Y-97836962D01*
X90536962Y-97651013D01*
X90683061Y-97432359D01*
X90783696Y-97189405D01*
X90835000Y-96931486D01*
X90835000Y-96800000D01*
X93238541Y-96800000D01*
X93264317Y-97061706D01*
X93340653Y-97313354D01*
X93464618Y-97545275D01*
X93631445Y-97748555D01*
X93820000Y-97903298D01*
X93820001Y-105696702D01*
X93631445Y-105851445D01*
X93464618Y-106054725D01*
X93340653Y-106286646D01*
X93264317Y-106538294D01*
X93238541Y-106800000D01*
X93264317Y-107061706D01*
X93340653Y-107313354D01*
X93464618Y-107545275D01*
X93631445Y-107748555D01*
X93834725Y-107915382D01*
X94066646Y-108039347D01*
X94318294Y-108115683D01*
X94514421Y-108135000D01*
X94645579Y-108135000D01*
X94841706Y-108115683D01*
X95093354Y-108039347D01*
X95325275Y-107915382D01*
X95528555Y-107748555D01*
X95695382Y-107545275D01*
X95819347Y-107313354D01*
X95895683Y-107061706D01*
X95921459Y-106800000D01*
X95895683Y-106538294D01*
X95819347Y-106286646D01*
X95695382Y-106054725D01*
X95528555Y-105851445D01*
X95340000Y-105696702D01*
X95340000Y-104663330D01*
X95532278Y-104663330D01*
X95622147Y-104909123D01*
X95758241Y-105132660D01*
X95935330Y-105325351D01*
X96146608Y-105479792D01*
X96383956Y-105590047D01*
X96491671Y-105622716D01*
X96698000Y-105499374D01*
X96698000Y-104457000D01*
X96952000Y-104457000D01*
X96952000Y-105499374D01*
X97158329Y-105622716D01*
X97266044Y-105590047D01*
X97503392Y-105479792D01*
X97714670Y-105325351D01*
X97891759Y-105132660D01*
X98027853Y-104909123D01*
X98117722Y-104663330D01*
X97995201Y-104457000D01*
X96952000Y-104457000D01*
X96698000Y-104457000D01*
X95654799Y-104457000D01*
X95532278Y-104663330D01*
X95340000Y-104663330D01*
X95340000Y-103996670D01*
X95532278Y-103996670D01*
X95654799Y-104203000D01*
X96698000Y-104203000D01*
X96698000Y-103160626D01*
X96952000Y-103160626D01*
X96952000Y-104203000D01*
X97995201Y-104203000D01*
X98117722Y-103996670D01*
X98027853Y-103750877D01*
X97891759Y-103527340D01*
X97714670Y-103334649D01*
X97503392Y-103180208D01*
X97266044Y-103069953D01*
X97158329Y-103037284D01*
X96952000Y-103160626D01*
X96698000Y-103160626D01*
X96491671Y-103037284D01*
X96383956Y-103069953D01*
X96146608Y-103180208D01*
X95935330Y-103334649D01*
X95758241Y-103527340D01*
X95622147Y-103750877D01*
X95532278Y-103996670D01*
X95340000Y-103996670D01*
X95340000Y-98839802D01*
X95511355Y-99011157D01*
X95490000Y-99118514D01*
X95490000Y-99381486D01*
X95541304Y-99639405D01*
X95641939Y-99882359D01*
X95788038Y-100101013D01*
X95973987Y-100286962D01*
X96192641Y-100433061D01*
X96435595Y-100533696D01*
X96693514Y-100585000D01*
X96956486Y-100585000D01*
X97063844Y-100563645D01*
X100636201Y-104136003D01*
X100659999Y-104165001D01*
X100775724Y-104259974D01*
X100907753Y-104330546D01*
X101051014Y-104374003D01*
X101162667Y-104385000D01*
X101162676Y-104385000D01*
X101199999Y-104388676D01*
X101237322Y-104385000D01*
X102050545Y-104385000D01*
X102191871Y-104649404D01*
X102421181Y-104928819D01*
X102700596Y-105158129D01*
X103019378Y-105328521D01*
X103365277Y-105433448D01*
X103634861Y-105460000D01*
X103815139Y-105460000D01*
X104084723Y-105433448D01*
X104430622Y-105328521D01*
X104749404Y-105158129D01*
X105028819Y-104928819D01*
X105258129Y-104649404D01*
X105428521Y-104330622D01*
X105533448Y-103984723D01*
X105568878Y-103625000D01*
X105533448Y-103265277D01*
X105428521Y-102919378D01*
X105258129Y-102600596D01*
X105114022Y-102425000D01*
X111311928Y-102425000D01*
X111311928Y-104825000D01*
X111324188Y-104949482D01*
X111360498Y-105069180D01*
X111419463Y-105179494D01*
X111498815Y-105276185D01*
X111595506Y-105355537D01*
X111705820Y-105414502D01*
X111825518Y-105450812D01*
X111950000Y-105463072D01*
X114350000Y-105463072D01*
X114474482Y-105450812D01*
X114594180Y-105414502D01*
X114704494Y-105355537D01*
X114801185Y-105276185D01*
X114880537Y-105179494D01*
X114939502Y-105069180D01*
X114975812Y-104949482D01*
X114988072Y-104825000D01*
X114988072Y-102425000D01*
X114975812Y-102300518D01*
X114939502Y-102180820D01*
X114880537Y-102070506D01*
X114801185Y-101973815D01*
X114704494Y-101894463D01*
X114594180Y-101835498D01*
X114474482Y-101799188D01*
X114350000Y-101786928D01*
X111950000Y-101786928D01*
X111825518Y-101799188D01*
X111705820Y-101835498D01*
X111595506Y-101894463D01*
X111498815Y-101973815D01*
X111419463Y-102070506D01*
X111360498Y-102180820D01*
X111324188Y-102300518D01*
X111311928Y-102425000D01*
X105114022Y-102425000D01*
X105028819Y-102321181D01*
X104749404Y-102091871D01*
X104430622Y-101921479D01*
X104084723Y-101816552D01*
X103815139Y-101790000D01*
X103634861Y-101790000D01*
X103365277Y-101816552D01*
X103019378Y-101921479D01*
X102700596Y-102091871D01*
X102421181Y-102321181D01*
X102191871Y-102600596D01*
X102050545Y-102865000D01*
X101514802Y-102865000D01*
X99142504Y-100492702D01*
X115336903Y-100492702D01*
X115408486Y-100736671D01*
X115663996Y-100857571D01*
X115938184Y-100926300D01*
X116220512Y-100940217D01*
X116500130Y-100898787D01*
X116766292Y-100803603D01*
X116891514Y-100736671D01*
X116963097Y-100492702D01*
X116150000Y-99679605D01*
X115336903Y-100492702D01*
X99142504Y-100492702D01*
X98667504Y-100017702D01*
X110486903Y-100017702D01*
X110558486Y-100261671D01*
X110813996Y-100382571D01*
X111088184Y-100451300D01*
X111370512Y-100465217D01*
X111650130Y-100423787D01*
X111916292Y-100328603D01*
X112041514Y-100261671D01*
X112113097Y-100017702D01*
X111300000Y-99204605D01*
X110486903Y-100017702D01*
X98667504Y-100017702D01*
X98138645Y-99488844D01*
X98160000Y-99381486D01*
X98160000Y-99118514D01*
X98155425Y-99095512D01*
X109859783Y-99095512D01*
X109901213Y-99375130D01*
X109996397Y-99641292D01*
X110063329Y-99766514D01*
X110307298Y-99838097D01*
X111120395Y-99025000D01*
X111479605Y-99025000D01*
X112292702Y-99838097D01*
X112536671Y-99766514D01*
X112629413Y-99570512D01*
X114709783Y-99570512D01*
X114751213Y-99850130D01*
X114846397Y-100116292D01*
X114913329Y-100241514D01*
X115157298Y-100313097D01*
X115970395Y-99500000D01*
X116329605Y-99500000D01*
X117142702Y-100313097D01*
X117386671Y-100241514D01*
X117507571Y-99986004D01*
X117576300Y-99711816D01*
X117590217Y-99429488D01*
X117548787Y-99149870D01*
X117453603Y-98883708D01*
X117386671Y-98758486D01*
X117142702Y-98686903D01*
X116329605Y-99500000D01*
X115970395Y-99500000D01*
X115157298Y-98686903D01*
X114913329Y-98758486D01*
X114792429Y-99013996D01*
X114723700Y-99288184D01*
X114709783Y-99570512D01*
X112629413Y-99570512D01*
X112657571Y-99511004D01*
X112726300Y-99236816D01*
X112740217Y-98954488D01*
X112698787Y-98674870D01*
X112603603Y-98408708D01*
X112536671Y-98283486D01*
X112292702Y-98211903D01*
X111479605Y-99025000D01*
X111120395Y-99025000D01*
X110307298Y-98211903D01*
X110063329Y-98283486D01*
X109942429Y-98538996D01*
X109873700Y-98813184D01*
X109859783Y-99095512D01*
X98155425Y-99095512D01*
X98108696Y-98860595D01*
X98008061Y-98617641D01*
X97861962Y-98398987D01*
X97676013Y-98213038D01*
X97457359Y-98066939D01*
X97214405Y-97966304D01*
X96956486Y-97915000D01*
X96693514Y-97915000D01*
X96586157Y-97936355D01*
X95852817Y-97203016D01*
X95895683Y-97061706D01*
X95921459Y-96800000D01*
X95895683Y-96538294D01*
X95819347Y-96286646D01*
X95695382Y-96054725D01*
X95528555Y-95851445D01*
X95374481Y-95725000D01*
X109861928Y-95725000D01*
X109861928Y-97325000D01*
X109874188Y-97449482D01*
X109910498Y-97569180D01*
X109969463Y-97679494D01*
X110048815Y-97776185D01*
X110145506Y-97855537D01*
X110255820Y-97914502D01*
X110375518Y-97950812D01*
X110500000Y-97963072D01*
X110507215Y-97963072D01*
X110486903Y-98032298D01*
X111300000Y-98845395D01*
X112113097Y-98032298D01*
X112092785Y-97963072D01*
X112100000Y-97963072D01*
X112224482Y-97950812D01*
X112344180Y-97914502D01*
X112454494Y-97855537D01*
X112551185Y-97776185D01*
X112630537Y-97679494D01*
X112689502Y-97569180D01*
X112725812Y-97449482D01*
X112738072Y-97325000D01*
X112738072Y-96858665D01*
X114715000Y-96858665D01*
X114715000Y-97141335D01*
X114770147Y-97418574D01*
X114878320Y-97679727D01*
X115035363Y-97914759D01*
X115235241Y-98114637D01*
X115435869Y-98248692D01*
X115408486Y-98263329D01*
X115336903Y-98507298D01*
X116150000Y-99320395D01*
X116963097Y-98507298D01*
X116891514Y-98263329D01*
X116862659Y-98249676D01*
X117064759Y-98114637D01*
X117264637Y-97914759D01*
X117421680Y-97679727D01*
X117529853Y-97418574D01*
X117585000Y-97141335D01*
X117585000Y-96858665D01*
X117529853Y-96581426D01*
X117421680Y-96320273D01*
X117264637Y-96085241D01*
X117064759Y-95885363D01*
X116829727Y-95728320D01*
X116568574Y-95620147D01*
X116291335Y-95565000D01*
X116008665Y-95565000D01*
X115731426Y-95620147D01*
X115470273Y-95728320D01*
X115235241Y-95885363D01*
X115035363Y-96085241D01*
X114878320Y-96320273D01*
X114770147Y-96581426D01*
X114715000Y-96858665D01*
X112738072Y-96858665D01*
X112738072Y-95725000D01*
X112725812Y-95600518D01*
X112689502Y-95480820D01*
X112630537Y-95370506D01*
X112551185Y-95273815D01*
X112454494Y-95194463D01*
X112344180Y-95135498D01*
X112224482Y-95099188D01*
X112100000Y-95086928D01*
X110500000Y-95086928D01*
X110375518Y-95099188D01*
X110255820Y-95135498D01*
X110145506Y-95194463D01*
X110048815Y-95273815D01*
X109969463Y-95370506D01*
X109910498Y-95480820D01*
X109874188Y-95600518D01*
X109861928Y-95725000D01*
X95374481Y-95725000D01*
X95325275Y-95684618D01*
X95093354Y-95560653D01*
X94841706Y-95484317D01*
X94645579Y-95465000D01*
X94514421Y-95465000D01*
X94318294Y-95484317D01*
X94066646Y-95560653D01*
X93834725Y-95684618D01*
X93631445Y-95851445D01*
X93464618Y-96054725D01*
X93340653Y-96286646D01*
X93264317Y-96538294D01*
X93238541Y-96800000D01*
X90835000Y-96800000D01*
X90835000Y-96668514D01*
X90783696Y-96410595D01*
X90683061Y-96167641D01*
X90536962Y-95948987D01*
X90351013Y-95763038D01*
X90132359Y-95616939D01*
X89889405Y-95516304D01*
X89631486Y-95465000D01*
X89368514Y-95465000D01*
X89110595Y-95516304D01*
X88867641Y-95616939D01*
X88648987Y-95763038D01*
X88463038Y-95948987D01*
X88316939Y-96167641D01*
X88216304Y-96410595D01*
X88165000Y-96668514D01*
X85735000Y-96668514D01*
X85735000Y-96648816D01*
X85676011Y-96352257D01*
X85560299Y-96072905D01*
X85392312Y-95821495D01*
X85178505Y-95607688D01*
X84927095Y-95439701D01*
X84647743Y-95323989D01*
X84351184Y-95265000D01*
X84048816Y-95265000D01*
X83752257Y-95323989D01*
X83472905Y-95439701D01*
X83221495Y-95607688D01*
X83007688Y-95821495D01*
X82839701Y-96072905D01*
X82723989Y-96352257D01*
X82665000Y-96648816D01*
X76660000Y-96648816D01*
X76660000Y-90732279D01*
X76673000Y-90599696D01*
X76673000Y-93800000D01*
X76675440Y-93824776D01*
X76682667Y-93848601D01*
X76694403Y-93870557D01*
X76710197Y-93889803D01*
X76729443Y-93905597D01*
X76751399Y-93917333D01*
X76775224Y-93924560D01*
X76800000Y-93927000D01*
X82000000Y-93927000D01*
X82024776Y-93924560D01*
X82048601Y-93917333D01*
X82070557Y-93905597D01*
X82089803Y-93889803D01*
X82105597Y-93870557D01*
X82117333Y-93848601D01*
X82124560Y-93824776D01*
X82127000Y-93800000D01*
X82127000Y-92392702D01*
X103786903Y-92392702D01*
X103858486Y-92636671D01*
X104113996Y-92757571D01*
X104388184Y-92826300D01*
X104670512Y-92840217D01*
X104950130Y-92798787D01*
X105216292Y-92703603D01*
X105341514Y-92636671D01*
X105413097Y-92392702D01*
X104600000Y-91579605D01*
X103786903Y-92392702D01*
X82127000Y-92392702D01*
X82127000Y-91470512D01*
X103159783Y-91470512D01*
X103201213Y-91750130D01*
X103296397Y-92016292D01*
X103363329Y-92141514D01*
X103607298Y-92213097D01*
X104420395Y-91400000D01*
X104779605Y-91400000D01*
X105592702Y-92213097D01*
X105661928Y-92192785D01*
X105661928Y-92200000D01*
X105674188Y-92324482D01*
X105710498Y-92444180D01*
X105769463Y-92554494D01*
X105848815Y-92651185D01*
X105945506Y-92730537D01*
X106055820Y-92789502D01*
X106175518Y-92825812D01*
X106300000Y-92838072D01*
X107900000Y-92838072D01*
X108024482Y-92825812D01*
X108144180Y-92789502D01*
X108254494Y-92730537D01*
X108351185Y-92651185D01*
X108430537Y-92554494D01*
X108489502Y-92444180D01*
X108525812Y-92324482D01*
X108538072Y-92200000D01*
X108538072Y-90600000D01*
X108525812Y-90475518D01*
X108489502Y-90355820D01*
X108430537Y-90245506D01*
X108351185Y-90148815D01*
X108254494Y-90069463D01*
X108144180Y-90010498D01*
X108024482Y-89974188D01*
X107900000Y-89961928D01*
X106300000Y-89961928D01*
X106175518Y-89974188D01*
X106055820Y-90010498D01*
X105945506Y-90069463D01*
X105848815Y-90148815D01*
X105769463Y-90245506D01*
X105710498Y-90355820D01*
X105674188Y-90475518D01*
X105661928Y-90600000D01*
X105661928Y-90607215D01*
X105592702Y-90586903D01*
X104779605Y-91400000D01*
X104420395Y-91400000D01*
X103607298Y-90586903D01*
X103363329Y-90658486D01*
X103242429Y-90913996D01*
X103173700Y-91188184D01*
X103159783Y-91470512D01*
X82127000Y-91470512D01*
X82127000Y-90407298D01*
X103786903Y-90407298D01*
X104600000Y-91220395D01*
X105413097Y-90407298D01*
X105341514Y-90163329D01*
X105086004Y-90042429D01*
X104811816Y-89973700D01*
X104529488Y-89959783D01*
X104249870Y-90001213D01*
X103983708Y-90096397D01*
X103858486Y-90163329D01*
X103786903Y-90407298D01*
X82127000Y-90407298D01*
X82127000Y-88600000D01*
X82124560Y-88575224D01*
X82117333Y-88551399D01*
X82105597Y-88529443D01*
X82089803Y-88510197D01*
X82070557Y-88494403D01*
X82048601Y-88482667D01*
X82024776Y-88475440D01*
X82000000Y-88473000D01*
X78329481Y-88473000D01*
X78530113Y-88410894D01*
X79014344Y-88360000D01*
X113873000Y-88360000D01*
X113873000Y-94300000D01*
M02*
