%TF.GenerationSoftware,KiCad,Pcbnew,(5.1.12-1-10_14)*%
%TF.CreationDate,2022-01-01T08:23:09-08:00*%
%TF.ProjectId,panel-supply,70616e65-6c2d-4737-9570-706c792e6b69,0.1*%
%TF.SameCoordinates,Original*%
%TF.FileFunction,Soldermask,Bot*%
%TF.FilePolarity,Negative*%
%FSLAX46Y46*%
G04 Gerber Fmt 4.6, Leading zero omitted, Abs format (unit mm)*
G04 Created by KiCad (PCBNEW (5.1.12-1-10_14)) date 2022-01-01 08:23:09*
%MOMM*%
%LPD*%
G01*
G04 APERTURE LIST*
%ADD10C,3.200000*%
%ADD11R,1.600000X1.600000*%
%ADD12O,1.600000X1.600000*%
%ADD13C,1.600000*%
%ADD14R,2.400000X2.400000*%
%ADD15C,2.400000*%
%ADD16R,2.100000X2.100000*%
%ADD17C,2.100000*%
%ADD18R,1.905000X2.000000*%
%ADD19O,1.905000X2.000000*%
G04 APERTURE END LIST*
D10*
%TO.C,REF\u002A\u002A*%
X132080000Y-120650000D03*
%TD*%
%TO.C,REF\u002A\u002A*%
X187960000Y-120650000D03*
%TD*%
%TO.C,REF\u002A\u002A*%
X132080000Y-88900000D03*
%TD*%
%TO.C,REF\u002A\u002A*%
X187960000Y-88900000D03*
%TD*%
D11*
%TO.C,D1*%
X142240000Y-100330000D03*
D12*
X137160000Y-107950000D03*
X137160000Y-100330000D03*
X142240000Y-107950000D03*
%TD*%
D13*
%TO.C,C2*%
X176530000Y-119340000D03*
D11*
X176530000Y-116840000D03*
%TD*%
D14*
%TO.C,C1*%
X142240000Y-114300000D03*
D15*
X142240000Y-119300000D03*
%TD*%
D16*
%TO.C,J1*%
X138430000Y-88900000D03*
D17*
X140970000Y-88900000D03*
%TD*%
%TO.C,J2*%
X151130000Y-88900000D03*
D16*
X148590000Y-88900000D03*
%TD*%
%TO.C,J3*%
X158750000Y-88900000D03*
D17*
X161290000Y-88900000D03*
%TD*%
%TO.C,J4*%
X171450000Y-88900000D03*
D16*
X168910000Y-88900000D03*
%TD*%
%TO.C,J5*%
X179070000Y-88900000D03*
D17*
X181610000Y-88900000D03*
%TD*%
D13*
%TO.C,R1*%
X148590000Y-101600000D03*
D12*
X148590000Y-104140000D03*
%TD*%
D18*
%TO.C,U1*%
X163830000Y-116840000D03*
D19*
X161290000Y-116840000D03*
X158750000Y-116840000D03*
%TD*%
D11*
%TO.C,U2*%
X152400000Y-101600000D03*
D12*
X160020000Y-109220000D03*
X152400000Y-104140000D03*
X160020000Y-106680000D03*
X152400000Y-106680000D03*
X160020000Y-104140000D03*
X152400000Y-109220000D03*
X160020000Y-101600000D03*
%TD*%
%TO.C,U3*%
X171450000Y-101600000D03*
X163830000Y-109220000D03*
X171450000Y-104140000D03*
X163830000Y-106680000D03*
X171450000Y-106680000D03*
X163830000Y-104140000D03*
X171450000Y-109220000D03*
D11*
X163830000Y-101600000D03*
%TD*%
%TO.C,U4*%
X175260000Y-101600000D03*
D12*
X182880000Y-109220000D03*
X175260000Y-104140000D03*
X182880000Y-106680000D03*
X175260000Y-106680000D03*
X182880000Y-104140000D03*
X175260000Y-109220000D03*
X182880000Y-101600000D03*
%TD*%
M02*
