%TF.GenerationSoftware,KiCad,Pcbnew,(5.1.12-1-10_14)*%
%TF.CreationDate,2022-01-02T10:33:00-08:00*%
%TF.ProjectId,panel-supply,70616e65-6c2d-4737-9570-706c792e6b69,1.0*%
%TF.SameCoordinates,Original*%
%TF.FileFunction,Copper,L1,Top*%
%TF.FilePolarity,Positive*%
%FSLAX46Y46*%
G04 Gerber Fmt 4.6, Leading zero omitted, Abs format (unit mm)*
G04 Created by KiCad (PCBNEW (5.1.12-1-10_14)) date 2022-01-02 10:33:00*
%MOMM*%
%LPD*%
G01*
G04 APERTURE LIST*
%TA.AperFunction,ComponentPad*%
%ADD10R,1.600000X1.600000*%
%TD*%
%TA.AperFunction,ComponentPad*%
%ADD11O,1.600000X1.600000*%
%TD*%
%TA.AperFunction,ComponentPad*%
%ADD12C,1.600000*%
%TD*%
%TA.AperFunction,ComponentPad*%
%ADD13R,2.400000X2.400000*%
%TD*%
%TA.AperFunction,ComponentPad*%
%ADD14C,2.400000*%
%TD*%
%TA.AperFunction,ComponentPad*%
%ADD15R,2.100000X2.100000*%
%TD*%
%TA.AperFunction,ComponentPad*%
%ADD16C,2.100000*%
%TD*%
%TA.AperFunction,ComponentPad*%
%ADD17R,1.905000X2.000000*%
%TD*%
%TA.AperFunction,ComponentPad*%
%ADD18O,1.905000X2.000000*%
%TD*%
%TA.AperFunction,Conductor*%
%ADD19C,0.300000*%
%TD*%
G04 APERTURE END LIST*
D10*
%TO.P,D1,1*%
%TO.N,Net-(D1-Pad1)*%
X142240000Y-100330000D03*
D11*
%TO.P,D1,3*%
%TO.N,Net-(C1-Pad1)*%
X137160000Y-107950000D03*
%TO.P,D1,2*%
%TO.N,Net-(D1-Pad2)*%
X137160000Y-100330000D03*
%TO.P,D1,4*%
%TO.N,Net-(C1-Pad2)*%
X142240000Y-107950000D03*
%TD*%
D12*
%TO.P,C2,2*%
%TO.N,Net-(C1-Pad2)*%
X176530000Y-119340000D03*
D10*
%TO.P,C2,1*%
%TO.N,Net-(C2-Pad1)*%
X176530000Y-116840000D03*
%TD*%
D13*
%TO.P,C1,1*%
%TO.N,Net-(C1-Pad1)*%
X142240000Y-114300000D03*
D14*
%TO.P,C1,2*%
%TO.N,Net-(C1-Pad2)*%
X142240000Y-119300000D03*
%TD*%
D15*
%TO.P,J1,1*%
%TO.N,Net-(D1-Pad2)*%
X138430000Y-88900000D03*
D16*
%TO.P,J1,2*%
%TO.N,Net-(D1-Pad1)*%
X140970000Y-88900000D03*
%TD*%
%TO.P,J2,2*%
%TO.N,Net-(C1-Pad2)*%
X151130000Y-88900000D03*
D15*
%TO.P,J2,1*%
%TO.N,Net-(J2-Pad1)*%
X148590000Y-88900000D03*
%TD*%
%TO.P,J3,1*%
%TO.N,Net-(J3-Pad1)*%
X158750000Y-88900000D03*
D16*
%TO.P,J3,2*%
%TO.N,Net-(J3-Pad2)*%
X161290000Y-88900000D03*
%TD*%
%TO.P,J4,2*%
%TO.N,Net-(J4-Pad2)*%
X171450000Y-88900000D03*
D15*
%TO.P,J4,1*%
%TO.N,Net-(J4-Pad1)*%
X168910000Y-88900000D03*
%TD*%
%TO.P,J5,1*%
%TO.N,Net-(J5-Pad1)*%
X179070000Y-88900000D03*
D16*
%TO.P,J5,2*%
%TO.N,Net-(J5-Pad2)*%
X181610000Y-88900000D03*
%TD*%
D12*
%TO.P,R1,1*%
%TO.N,Net-(J2-Pad1)*%
X148590000Y-101600000D03*
D11*
%TO.P,R1,2*%
%TO.N,Net-(C2-Pad1)*%
X148590000Y-104140000D03*
%TD*%
D17*
%TO.P,U1,1*%
%TO.N,Net-(C1-Pad1)*%
X163830000Y-116840000D03*
D18*
%TO.P,U1,2*%
%TO.N,Net-(C1-Pad2)*%
X161290000Y-116840000D03*
%TO.P,U1,3*%
%TO.N,Net-(C2-Pad1)*%
X158750000Y-116840000D03*
%TD*%
D10*
%TO.P,U2,1*%
%TO.N,Net-(C1-Pad2)*%
X152400000Y-101600000D03*
D11*
%TO.P,U2,5*%
%TO.N,Net-(J3-Pad1)*%
X160020000Y-109220000D03*
%TO.P,U2,2*%
%TO.N,N/C*%
X152400000Y-104140000D03*
%TO.P,U2,6*%
X160020000Y-106680000D03*
%TO.P,U2,3*%
X152400000Y-106680000D03*
%TO.P,U2,7*%
%TO.N,Net-(J3-Pad2)*%
X160020000Y-104140000D03*
%TO.P,U2,4*%
%TO.N,Net-(C2-Pad1)*%
X152400000Y-109220000D03*
%TO.P,U2,8*%
%TO.N,N/C*%
X160020000Y-101600000D03*
%TD*%
%TO.P,U3,8*%
%TO.N,N/C*%
X171450000Y-101600000D03*
%TO.P,U3,4*%
%TO.N,Net-(C2-Pad1)*%
X163830000Y-109220000D03*
%TO.P,U3,7*%
%TO.N,Net-(J4-Pad2)*%
X171450000Y-104140000D03*
%TO.P,U3,3*%
%TO.N,N/C*%
X163830000Y-106680000D03*
%TO.P,U3,6*%
X171450000Y-106680000D03*
%TO.P,U3,2*%
X163830000Y-104140000D03*
%TO.P,U3,5*%
%TO.N,Net-(J4-Pad1)*%
X171450000Y-109220000D03*
D10*
%TO.P,U3,1*%
%TO.N,Net-(C1-Pad2)*%
X163830000Y-101600000D03*
%TD*%
%TO.P,U4,1*%
%TO.N,Net-(C1-Pad2)*%
X175260000Y-101600000D03*
D11*
%TO.P,U4,5*%
%TO.N,Net-(J5-Pad1)*%
X182880000Y-109220000D03*
%TO.P,U4,2*%
%TO.N,N/C*%
X175260000Y-104140000D03*
%TO.P,U4,6*%
X182880000Y-106680000D03*
%TO.P,U4,3*%
X175260000Y-106680000D03*
%TO.P,U4,7*%
%TO.N,Net-(J5-Pad2)*%
X182880000Y-104140000D03*
%TO.P,U4,4*%
%TO.N,Net-(C2-Pad1)*%
X175260000Y-109220000D03*
%TO.P,U4,8*%
%TO.N,N/C*%
X182880000Y-101600000D03*
%TD*%
D19*
%TO.N,Net-(C1-Pad1)*%
X137160000Y-109220000D02*
X142240000Y-114300000D01*
X137160000Y-107950000D02*
X137160000Y-109220000D01*
%TO.N,Net-(C1-Pad2)*%
X161790010Y-103639990D02*
X163830000Y-101600000D01*
X161790010Y-116339990D02*
X161790010Y-103639990D01*
X161290000Y-116840000D02*
X161790010Y-116339990D01*
X163790000Y-119340000D02*
X161290000Y-116840000D01*
X176530000Y-119340000D02*
X163790000Y-119340000D01*
X151130000Y-100330000D02*
X152400000Y-101600000D01*
X151130000Y-88900000D02*
X151130000Y-100330000D01*
X143790001Y-117749999D02*
X142240000Y-119300000D01*
X143790001Y-109500001D02*
X143790001Y-117749999D01*
X142240000Y-107950000D02*
X143790001Y-109500001D01*
%TO.N,Net-(C2-Pad1)*%
X176530000Y-110490000D02*
X175260000Y-109220000D01*
X176530000Y-116840000D02*
X176530000Y-110490000D01*
X158750000Y-115570000D02*
X152400000Y-109220000D01*
X158750000Y-116840000D02*
X158750000Y-115570000D01*
X148590000Y-105410000D02*
X152400000Y-109220000D01*
X148590000Y-104140000D02*
X148590000Y-105410000D01*
%TO.N,Net-(D1-Pad1)*%
X140970000Y-99060000D02*
X142240000Y-100330000D01*
X140970000Y-88900000D02*
X140970000Y-99060000D01*
%TO.N,Net-(D1-Pad2)*%
X138430000Y-99060000D02*
X137160000Y-100330000D01*
X138430000Y-88900000D02*
X138430000Y-99060000D01*
%TO.N,Net-(J2-Pad1)*%
X148590000Y-88900000D02*
X148590000Y-101600000D01*
%TO.N,Net-(J3-Pad1)*%
X158750000Y-107112002D02*
X160020000Y-108382002D01*
X160020000Y-108382002D02*
X160020000Y-109220000D01*
X158750000Y-88900000D02*
X158750000Y-107112002D01*
%TO.N,Net-(J3-Pad2)*%
X160020000Y-103302002D02*
X160020000Y-104140000D01*
X161290000Y-102032002D02*
X160020000Y-103302002D01*
X161290000Y-88900000D02*
X161290000Y-102032002D01*
%TO.N,Net-(J4-Pad2)*%
X170299999Y-102989999D02*
X171450000Y-104140000D01*
X170299999Y-101047999D02*
X170299999Y-102989999D01*
X171450000Y-99897998D02*
X170299999Y-101047999D01*
X171450000Y-88900000D02*
X171450000Y-99897998D01*
%TO.N,Net-(J4-Pad1)*%
X168910000Y-106680000D02*
X171450000Y-109220000D01*
X168910000Y-88900000D02*
X168910000Y-106680000D01*
%TO.N,Net-(J5-Pad1)*%
X179070000Y-105410000D02*
X182880000Y-109220000D01*
X179070000Y-88900000D02*
X179070000Y-105410000D01*
%TO.N,Net-(J5-Pad2)*%
X181610000Y-102870000D02*
X182880000Y-104140000D01*
X181610000Y-88900000D02*
X181610000Y-102870000D01*
%TD*%
M02*
