M48
; DRILL file {KiCad (5.1.12-1-10_14)} date Sunday, January 02, 2022 at 10:33:03 AM
; FORMAT={-:-/ absolute / inch / decimal}
; #@! TF.CreationDate,2022-01-02T10:33:03-08:00
; #@! TF.GenerationSoftware,Kicad,Pcbnew,(5.1.12-1-10_14)
; #@! TF.FileFunction,Plated,1,2,PTH
FMAT,2
INCH
T1C0.0315
T2C0.0433
T3C0.0472
%
G90
G05
T1
X5.4Y-3.95
X5.4Y-4.25
X5.6Y-3.95
X5.6Y-4.25
X5.85Y-4.0
X5.85Y-4.1
X6.0Y-4.0
X6.0Y-4.1
X6.0Y-4.2
X6.0Y-4.3
X6.3Y-4.0
X6.3Y-4.1
X6.3Y-4.2
X6.3Y-4.3
X6.45Y-4.0
X6.45Y-4.1
X6.45Y-4.2
X6.45Y-4.3
X6.75Y-4.0
X6.75Y-4.1
X6.75Y-4.2
X6.75Y-4.3
X6.9Y-4.0
X6.9Y-4.1
X6.9Y-4.2
X6.9Y-4.3
X6.95Y-4.6
X6.95Y-4.6984
X7.2Y-4.0
X7.2Y-4.1
X7.2Y-4.2
X7.2Y-4.3
T2
X5.45Y-3.5
X5.55Y-3.5
X5.85Y-3.5
X5.95Y-3.5
X6.25Y-3.5
X6.25Y-4.6
X6.35Y-3.5
X6.35Y-4.6
X6.45Y-4.6
X6.65Y-3.5
X6.75Y-3.5
X7.05Y-3.5
X7.15Y-3.5
T3
X5.6Y-4.5
X5.6Y-4.6969
T0
M30
