%TF.GenerationSoftware,KiCad,Pcbnew,(5.1.12-1-10_14)*%
%TF.CreationDate,2022-01-01T08:23:09-08:00*%
%TF.ProjectId,panel-supply,70616e65-6c2d-4737-9570-706c792e6b69,0.1*%
%TF.SameCoordinates,Original*%
%TF.FileFunction,Legend,Top*%
%TF.FilePolarity,Positive*%
%FSLAX46Y46*%
G04 Gerber Fmt 4.6, Leading zero omitted, Abs format (unit mm)*
G04 Created by KiCad (PCBNEW (5.1.12-1-10_14)) date 2022-01-01 08:23:09*
%MOMM*%
%LPD*%
G01*
G04 APERTURE LIST*
%ADD10C,0.150000*%
%ADD11C,0.120000*%
G04 APERTURE END LIST*
D10*
X130357619Y-98290952D02*
X131357619Y-98290952D01*
X131357619Y-98671904D01*
X131310000Y-98767142D01*
X131262380Y-98814761D01*
X131167142Y-98862380D01*
X131024285Y-98862380D01*
X130929047Y-98814761D01*
X130881428Y-98767142D01*
X130833809Y-98671904D01*
X130833809Y-98290952D01*
X130357619Y-99719523D02*
X130881428Y-99719523D01*
X130976666Y-99671904D01*
X131024285Y-99576666D01*
X131024285Y-99386190D01*
X130976666Y-99290952D01*
X130405238Y-99719523D02*
X130357619Y-99624285D01*
X130357619Y-99386190D01*
X130405238Y-99290952D01*
X130500476Y-99243333D01*
X130595714Y-99243333D01*
X130690952Y-99290952D01*
X130738571Y-99386190D01*
X130738571Y-99624285D01*
X130786190Y-99719523D01*
X131024285Y-100195714D02*
X130357619Y-100195714D01*
X130929047Y-100195714D02*
X130976666Y-100243333D01*
X131024285Y-100338571D01*
X131024285Y-100481428D01*
X130976666Y-100576666D01*
X130881428Y-100624285D01*
X130357619Y-100624285D01*
X130405238Y-101481428D02*
X130357619Y-101386190D01*
X130357619Y-101195714D01*
X130405238Y-101100476D01*
X130500476Y-101052857D01*
X130881428Y-101052857D01*
X130976666Y-101100476D01*
X131024285Y-101195714D01*
X131024285Y-101386190D01*
X130976666Y-101481428D01*
X130881428Y-101529047D01*
X130786190Y-101529047D01*
X130690952Y-101052857D01*
X130357619Y-102100476D02*
X130405238Y-102005238D01*
X130500476Y-101957619D01*
X131357619Y-101957619D01*
X130357619Y-103243333D02*
X131357619Y-103243333D01*
X130643333Y-103576666D01*
X131357619Y-103910000D01*
X130357619Y-103910000D01*
X130405238Y-104767142D02*
X130357619Y-104671904D01*
X130357619Y-104481428D01*
X130405238Y-104386190D01*
X130500476Y-104338571D01*
X130881428Y-104338571D01*
X130976666Y-104386190D01*
X131024285Y-104481428D01*
X131024285Y-104671904D01*
X130976666Y-104767142D01*
X130881428Y-104814761D01*
X130786190Y-104814761D01*
X130690952Y-104338571D01*
X131024285Y-105100476D02*
X131024285Y-105481428D01*
X131357619Y-105243333D02*
X130500476Y-105243333D01*
X130405238Y-105290952D01*
X130357619Y-105386190D01*
X130357619Y-105481428D01*
X130405238Y-106195714D02*
X130357619Y-106100476D01*
X130357619Y-105910000D01*
X130405238Y-105814761D01*
X130500476Y-105767142D01*
X130881428Y-105767142D01*
X130976666Y-105814761D01*
X131024285Y-105910000D01*
X131024285Y-106100476D01*
X130976666Y-106195714D01*
X130881428Y-106243333D01*
X130786190Y-106243333D01*
X130690952Y-105767142D01*
X130357619Y-106671904D02*
X131024285Y-106671904D01*
X130833809Y-106671904D02*
X130929047Y-106719523D01*
X130976666Y-106767142D01*
X131024285Y-106862380D01*
X131024285Y-106957619D01*
X130405238Y-108005238D02*
X130357619Y-108148095D01*
X130357619Y-108386190D01*
X130405238Y-108481428D01*
X130452857Y-108529047D01*
X130548095Y-108576666D01*
X130643333Y-108576666D01*
X130738571Y-108529047D01*
X130786190Y-108481428D01*
X130833809Y-108386190D01*
X130881428Y-108195714D01*
X130929047Y-108100476D01*
X130976666Y-108052857D01*
X131071904Y-108005238D01*
X131167142Y-108005238D01*
X131262380Y-108052857D01*
X131310000Y-108100476D01*
X131357619Y-108195714D01*
X131357619Y-108433809D01*
X131310000Y-108576666D01*
X131024285Y-109433809D02*
X130357619Y-109433809D01*
X131024285Y-109005238D02*
X130500476Y-109005238D01*
X130405238Y-109052857D01*
X130357619Y-109148095D01*
X130357619Y-109290952D01*
X130405238Y-109386190D01*
X130452857Y-109433809D01*
X131024285Y-109910000D02*
X130024285Y-109910000D01*
X130976666Y-109910000D02*
X131024285Y-110005238D01*
X131024285Y-110195714D01*
X130976666Y-110290952D01*
X130929047Y-110338571D01*
X130833809Y-110386190D01*
X130548095Y-110386190D01*
X130452857Y-110338571D01*
X130405238Y-110290952D01*
X130357619Y-110195714D01*
X130357619Y-110005238D01*
X130405238Y-109910000D01*
X131024285Y-110814761D02*
X130024285Y-110814761D01*
X130976666Y-110814761D02*
X131024285Y-110910000D01*
X131024285Y-111100476D01*
X130976666Y-111195714D01*
X130929047Y-111243333D01*
X130833809Y-111290952D01*
X130548095Y-111290952D01*
X130452857Y-111243333D01*
X130405238Y-111195714D01*
X130357619Y-111100476D01*
X130357619Y-110910000D01*
X130405238Y-110814761D01*
X130357619Y-111862380D02*
X130405238Y-111767142D01*
X130500476Y-111719523D01*
X131357619Y-111719523D01*
X131024285Y-112148095D02*
X130357619Y-112386190D01*
X131024285Y-112624285D02*
X130357619Y-112386190D01*
X130119523Y-112290952D01*
X130071904Y-112243333D01*
X130024285Y-112148095D01*
X187587380Y-111981428D02*
X186587380Y-111981428D01*
X187587380Y-111410000D02*
X187015952Y-111838571D01*
X186587380Y-111410000D02*
X187158809Y-111981428D01*
X186587380Y-111076666D02*
X187587380Y-110838571D01*
X186873095Y-110648095D01*
X187587380Y-110457619D01*
X186587380Y-110219523D01*
X187587380Y-109410000D02*
X187063571Y-109410000D01*
X186968333Y-109457619D01*
X186920714Y-109552857D01*
X186920714Y-109743333D01*
X186968333Y-109838571D01*
X187539761Y-109410000D02*
X187587380Y-109505238D01*
X187587380Y-109743333D01*
X187539761Y-109838571D01*
X187444523Y-109886190D01*
X187349285Y-109886190D01*
X187254047Y-109838571D01*
X187206428Y-109743333D01*
X187206428Y-109505238D01*
X187158809Y-109410000D01*
X187587380Y-108933809D02*
X186920714Y-108933809D01*
X187111190Y-108933809D02*
X187015952Y-108886190D01*
X186968333Y-108838571D01*
X186920714Y-108743333D01*
X186920714Y-108648095D01*
X187587380Y-107886190D02*
X186587380Y-107886190D01*
X187539761Y-107886190D02*
X187587380Y-107981428D01*
X187587380Y-108171904D01*
X187539761Y-108267142D01*
X187492142Y-108314761D01*
X187396904Y-108362380D01*
X187111190Y-108362380D01*
X187015952Y-108314761D01*
X186968333Y-108267142D01*
X186920714Y-108171904D01*
X186920714Y-107981428D01*
X186968333Y-107886190D01*
X187063571Y-106314761D02*
X187111190Y-106171904D01*
X187158809Y-106124285D01*
X187254047Y-106076666D01*
X187396904Y-106076666D01*
X187492142Y-106124285D01*
X187539761Y-106171904D01*
X187587380Y-106267142D01*
X187587380Y-106648095D01*
X186587380Y-106648095D01*
X186587380Y-106314761D01*
X186635000Y-106219523D01*
X186682619Y-106171904D01*
X186777857Y-106124285D01*
X186873095Y-106124285D01*
X186968333Y-106171904D01*
X187015952Y-106219523D01*
X187063571Y-106314761D01*
X187063571Y-106648095D01*
X187539761Y-105267142D02*
X187587380Y-105362380D01*
X187587380Y-105552857D01*
X187539761Y-105648095D01*
X187444523Y-105695714D01*
X187063571Y-105695714D01*
X186968333Y-105648095D01*
X186920714Y-105552857D01*
X186920714Y-105362380D01*
X186968333Y-105267142D01*
X187063571Y-105219523D01*
X187158809Y-105219523D01*
X187254047Y-105695714D01*
X186920714Y-104790952D02*
X187587380Y-104790952D01*
X187015952Y-104790952D02*
X186968333Y-104743333D01*
X186920714Y-104648095D01*
X186920714Y-104505238D01*
X186968333Y-104410000D01*
X187063571Y-104362380D01*
X187587380Y-104362380D01*
X187539761Y-103457619D02*
X187587380Y-103552857D01*
X187587380Y-103743333D01*
X187539761Y-103838571D01*
X187492142Y-103886190D01*
X187396904Y-103933809D01*
X187111190Y-103933809D01*
X187015952Y-103886190D01*
X186968333Y-103838571D01*
X186920714Y-103743333D01*
X186920714Y-103552857D01*
X186968333Y-103457619D01*
X187587380Y-103029047D02*
X186587380Y-103029047D01*
X187587380Y-102600476D02*
X187063571Y-102600476D01*
X186968333Y-102648095D01*
X186920714Y-102743333D01*
X186920714Y-102886190D01*
X186968333Y-102981428D01*
X187015952Y-103029047D01*
X187587380Y-101362380D02*
X186587380Y-101362380D01*
X186587380Y-100981428D01*
X186635000Y-100886190D01*
X186682619Y-100838571D01*
X186777857Y-100790952D01*
X186920714Y-100790952D01*
X187015952Y-100838571D01*
X187063571Y-100886190D01*
X187111190Y-100981428D01*
X187111190Y-101362380D01*
X187539761Y-100410000D02*
X187587380Y-100267142D01*
X187587380Y-100029047D01*
X187539761Y-99933809D01*
X187492142Y-99886190D01*
X187396904Y-99838571D01*
X187301666Y-99838571D01*
X187206428Y-99886190D01*
X187158809Y-99933809D01*
X187111190Y-100029047D01*
X187063571Y-100219523D01*
X187015952Y-100314761D01*
X186968333Y-100362380D01*
X186873095Y-100410000D01*
X186777857Y-100410000D01*
X186682619Y-100362380D01*
X186635000Y-100314761D01*
X186587380Y-100219523D01*
X186587380Y-99981428D01*
X186635000Y-99838571D01*
X186587380Y-99410000D02*
X187396904Y-99410000D01*
X187492142Y-99362380D01*
X187539761Y-99314761D01*
X187587380Y-99219523D01*
X187587380Y-99029047D01*
X187539761Y-98933809D01*
X187492142Y-98886190D01*
X187396904Y-98838571D01*
X186587380Y-98838571D01*
X189237380Y-114790952D02*
X188237380Y-114790952D01*
X188237380Y-114410000D01*
X188285000Y-114314761D01*
X188332619Y-114267142D01*
X188427857Y-114219523D01*
X188570714Y-114219523D01*
X188665952Y-114267142D01*
X188713571Y-114314761D01*
X188761190Y-114410000D01*
X188761190Y-114790952D01*
X189142142Y-113219523D02*
X189189761Y-113267142D01*
X189237380Y-113410000D01*
X189237380Y-113505238D01*
X189189761Y-113648095D01*
X189094523Y-113743333D01*
X188999285Y-113790952D01*
X188808809Y-113838571D01*
X188665952Y-113838571D01*
X188475476Y-113790952D01*
X188380238Y-113743333D01*
X188285000Y-113648095D01*
X188237380Y-113505238D01*
X188237380Y-113410000D01*
X188285000Y-113267142D01*
X188332619Y-113219523D01*
X188713571Y-112457619D02*
X188761190Y-112314761D01*
X188808809Y-112267142D01*
X188904047Y-112219523D01*
X189046904Y-112219523D01*
X189142142Y-112267142D01*
X189189761Y-112314761D01*
X189237380Y-112410000D01*
X189237380Y-112790952D01*
X188237380Y-112790952D01*
X188237380Y-112457619D01*
X188285000Y-112362380D01*
X188332619Y-112314761D01*
X188427857Y-112267142D01*
X188523095Y-112267142D01*
X188618333Y-112314761D01*
X188665952Y-112362380D01*
X188713571Y-112457619D01*
X188713571Y-112790952D01*
X189189761Y-111838571D02*
X189237380Y-111743333D01*
X189237380Y-111552857D01*
X189189761Y-111457619D01*
X189094523Y-111410000D01*
X189046904Y-111410000D01*
X188951666Y-111457619D01*
X188904047Y-111552857D01*
X188904047Y-111695714D01*
X188856428Y-111790952D01*
X188761190Y-111838571D01*
X188713571Y-111838571D01*
X188618333Y-111790952D01*
X188570714Y-111695714D01*
X188570714Y-111552857D01*
X188618333Y-111457619D01*
X189237380Y-110219523D02*
X188237380Y-110219523D01*
X188618333Y-110219523D02*
X188570714Y-110124285D01*
X188570714Y-109933809D01*
X188618333Y-109838571D01*
X188665952Y-109790952D01*
X188761190Y-109743333D01*
X189046904Y-109743333D01*
X189142142Y-109790952D01*
X189189761Y-109838571D01*
X189237380Y-109933809D01*
X189237380Y-110124285D01*
X189189761Y-110219523D01*
X188570714Y-109410000D02*
X189237380Y-109171904D01*
X188570714Y-108933809D02*
X189237380Y-109171904D01*
X189475476Y-109267142D01*
X189523095Y-109314761D01*
X189570714Y-109410000D01*
X188237380Y-107505238D02*
X188951666Y-107505238D01*
X189094523Y-107552857D01*
X189189761Y-107648095D01*
X189237380Y-107790952D01*
X189237380Y-107886190D01*
X189237380Y-106600476D02*
X188713571Y-106600476D01*
X188618333Y-106648095D01*
X188570714Y-106743333D01*
X188570714Y-106933809D01*
X188618333Y-107029047D01*
X189189761Y-106600476D02*
X189237380Y-106695714D01*
X189237380Y-106933809D01*
X189189761Y-107029047D01*
X189094523Y-107076666D01*
X188999285Y-107076666D01*
X188904047Y-107029047D01*
X188856428Y-106933809D01*
X188856428Y-106695714D01*
X188808809Y-106600476D01*
X189189761Y-106171904D02*
X189237380Y-106076666D01*
X189237380Y-105886190D01*
X189189761Y-105790952D01*
X189094523Y-105743333D01*
X189046904Y-105743333D01*
X188951666Y-105790952D01*
X188904047Y-105886190D01*
X188904047Y-106029047D01*
X188856428Y-106124285D01*
X188761190Y-106171904D01*
X188713571Y-106171904D01*
X188618333Y-106124285D01*
X188570714Y-106029047D01*
X188570714Y-105886190D01*
X188618333Y-105790952D01*
X189237380Y-105171904D02*
X189189761Y-105267142D01*
X189142142Y-105314761D01*
X189046904Y-105362380D01*
X188761190Y-105362380D01*
X188665952Y-105314761D01*
X188618333Y-105267142D01*
X188570714Y-105171904D01*
X188570714Y-105029047D01*
X188618333Y-104933809D01*
X188665952Y-104886190D01*
X188761190Y-104838571D01*
X189046904Y-104838571D01*
X189142142Y-104886190D01*
X189189761Y-104933809D01*
X189237380Y-105029047D01*
X189237380Y-105171904D01*
X188570714Y-104410000D02*
X189237380Y-104410000D01*
X188665952Y-104410000D02*
X188618333Y-104362380D01*
X188570714Y-104267142D01*
X188570714Y-104124285D01*
X188618333Y-104029047D01*
X188713571Y-103981428D01*
X189237380Y-103981428D01*
X189237380Y-102171904D02*
X188761190Y-102505238D01*
X189237380Y-102743333D02*
X188237380Y-102743333D01*
X188237380Y-102362380D01*
X188285000Y-102267142D01*
X188332619Y-102219523D01*
X188427857Y-102171904D01*
X188570714Y-102171904D01*
X188665952Y-102219523D01*
X188713571Y-102267142D01*
X188761190Y-102362380D01*
X188761190Y-102743333D01*
X189142142Y-101743333D02*
X189189761Y-101695714D01*
X189237380Y-101743333D01*
X189189761Y-101790952D01*
X189142142Y-101743333D01*
X189237380Y-101743333D01*
X188237380Y-100648095D02*
X188237380Y-100076666D01*
X189237380Y-100362380D02*
X188237380Y-100362380D01*
X189237380Y-99743333D02*
X188237380Y-99743333D01*
X189237380Y-99314761D02*
X188713571Y-99314761D01*
X188618333Y-99362380D01*
X188570714Y-99457619D01*
X188570714Y-99600476D01*
X188618333Y-99695714D01*
X188665952Y-99743333D01*
X189237380Y-98695714D02*
X189189761Y-98790952D01*
X189142142Y-98838571D01*
X189046904Y-98886190D01*
X188761190Y-98886190D01*
X188665952Y-98838571D01*
X188618333Y-98790952D01*
X188570714Y-98695714D01*
X188570714Y-98552857D01*
X188618333Y-98457619D01*
X188665952Y-98410000D01*
X188761190Y-98362380D01*
X189046904Y-98362380D01*
X189142142Y-98410000D01*
X189189761Y-98457619D01*
X189237380Y-98552857D01*
X189237380Y-98695714D01*
X189237380Y-97933809D02*
X188570714Y-97933809D01*
X188761190Y-97933809D02*
X188665952Y-97886190D01*
X188618333Y-97838571D01*
X188570714Y-97743333D01*
X188570714Y-97648095D01*
X188570714Y-97314761D02*
X189570714Y-97314761D01*
X188618333Y-97314761D02*
X188570714Y-97219523D01*
X188570714Y-97029047D01*
X188618333Y-96933809D01*
X188665952Y-96886190D01*
X188761190Y-96838571D01*
X189046904Y-96838571D01*
X189142142Y-96886190D01*
X189189761Y-96933809D01*
X189237380Y-97029047D01*
X189237380Y-97219523D01*
X189189761Y-97314761D01*
X189189761Y-96029047D02*
X189237380Y-96124285D01*
X189237380Y-96314761D01*
X189189761Y-96410000D01*
X189094523Y-96457619D01*
X188713571Y-96457619D01*
X188618333Y-96410000D01*
X188570714Y-96314761D01*
X188570714Y-96124285D01*
X188618333Y-96029047D01*
X188713571Y-95981428D01*
X188808809Y-95981428D01*
X188904047Y-96457619D01*
X135072380Y-103790476D02*
X134072380Y-103790476D01*
X134072380Y-103552380D01*
X134120000Y-103409523D01*
X134215238Y-103314285D01*
X134310476Y-103266666D01*
X134500952Y-103219047D01*
X134643809Y-103219047D01*
X134834285Y-103266666D01*
X134929523Y-103314285D01*
X135024761Y-103409523D01*
X135072380Y-103552380D01*
X135072380Y-103790476D01*
X134548571Y-102457142D02*
X134596190Y-102314285D01*
X134643809Y-102266666D01*
X134739047Y-102219047D01*
X134881904Y-102219047D01*
X134977142Y-102266666D01*
X135024761Y-102314285D01*
X135072380Y-102409523D01*
X135072380Y-102790476D01*
X134072380Y-102790476D01*
X134072380Y-102457142D01*
X134120000Y-102361904D01*
X134167619Y-102314285D01*
X134262857Y-102266666D01*
X134358095Y-102266666D01*
X134453333Y-102314285D01*
X134500952Y-102361904D01*
X134548571Y-102457142D01*
X134548571Y-102790476D01*
X135072380Y-101266666D02*
X135072380Y-101838095D01*
X135072380Y-101552380D02*
X134072380Y-101552380D01*
X134215238Y-101647619D01*
X134310476Y-101742857D01*
X134358095Y-101838095D01*
X134072380Y-100647619D02*
X134072380Y-100552380D01*
X134120000Y-100457142D01*
X134167619Y-100409523D01*
X134262857Y-100361904D01*
X134453333Y-100314285D01*
X134691428Y-100314285D01*
X134881904Y-100361904D01*
X134977142Y-100409523D01*
X135024761Y-100457142D01*
X135072380Y-100552380D01*
X135072380Y-100647619D01*
X135024761Y-100742857D01*
X134977142Y-100790476D01*
X134881904Y-100838095D01*
X134691428Y-100885714D01*
X134453333Y-100885714D01*
X134262857Y-100838095D01*
X134167619Y-100790476D01*
X134120000Y-100742857D01*
X134072380Y-100647619D01*
X135072380Y-99361904D02*
X135072380Y-99933333D01*
X135072380Y-99647619D02*
X134072380Y-99647619D01*
X134215238Y-99742857D01*
X134310476Y-99838095D01*
X134358095Y-99933333D01*
X182499047Y-94051428D02*
X183260952Y-94051428D01*
X172339047Y-94051428D02*
X173100952Y-94051428D01*
X162179047Y-94051428D02*
X162940952Y-94051428D01*
X152019047Y-94051428D02*
X152780952Y-94051428D01*
X177419047Y-94051428D02*
X178180952Y-94051428D01*
X177800000Y-94432380D02*
X177800000Y-93670476D01*
X167259047Y-94051428D02*
X168020952Y-94051428D01*
X167640000Y-94432380D02*
X167640000Y-93670476D01*
X157099047Y-94051428D02*
X157860952Y-94051428D01*
X157480000Y-94432380D02*
X157480000Y-93670476D01*
X146939047Y-94051428D02*
X147700952Y-94051428D01*
X147320000Y-94432380D02*
X147320000Y-93670476D01*
X156583333Y-114752380D02*
X156107142Y-114752380D01*
X156107142Y-113752380D01*
X156916666Y-114752380D02*
X156916666Y-113752380D01*
X157250000Y-114466666D01*
X157583333Y-113752380D01*
X157583333Y-114752380D01*
X158011904Y-113847619D02*
X158059523Y-113800000D01*
X158154761Y-113752380D01*
X158392857Y-113752380D01*
X158488095Y-113800000D01*
X158535714Y-113847619D01*
X158583333Y-113942857D01*
X158583333Y-114038095D01*
X158535714Y-114180952D01*
X157964285Y-114752380D01*
X158583333Y-114752380D01*
X159059523Y-114752380D02*
X159250000Y-114752380D01*
X159345238Y-114704761D01*
X159392857Y-114657142D01*
X159488095Y-114514285D01*
X159535714Y-114323809D01*
X159535714Y-113942857D01*
X159488095Y-113847619D01*
X159440476Y-113800000D01*
X159345238Y-113752380D01*
X159154761Y-113752380D01*
X159059523Y-113800000D01*
X159011904Y-113847619D01*
X158964285Y-113942857D01*
X158964285Y-114180952D01*
X159011904Y-114276190D01*
X159059523Y-114323809D01*
X159154761Y-114371428D01*
X159345238Y-114371428D01*
X159440476Y-114323809D01*
X159488095Y-114276190D01*
X159535714Y-114180952D01*
X160392857Y-114085714D02*
X160392857Y-114752380D01*
X160154761Y-113704761D02*
X159916666Y-114419047D01*
X160535714Y-114419047D01*
X161107142Y-113752380D02*
X161202380Y-113752380D01*
X161297619Y-113800000D01*
X161345238Y-113847619D01*
X161392857Y-113942857D01*
X161440476Y-114133333D01*
X161440476Y-114371428D01*
X161392857Y-114561904D01*
X161345238Y-114657142D01*
X161297619Y-114704761D01*
X161202380Y-114752380D01*
X161107142Y-114752380D01*
X161011904Y-114704761D01*
X160964285Y-114657142D01*
X160916666Y-114561904D01*
X160869047Y-114371428D01*
X160869047Y-114133333D01*
X160916666Y-113942857D01*
X160964285Y-113847619D01*
X161011904Y-113800000D01*
X161107142Y-113752380D01*
X174117619Y-112212380D02*
X174117619Y-111212380D01*
X174450952Y-111926666D01*
X174784285Y-111212380D01*
X174784285Y-112212380D01*
X175260476Y-111688571D02*
X175593809Y-111688571D01*
X175736666Y-112212380D02*
X175260476Y-112212380D01*
X175260476Y-111212380D01*
X175736666Y-111212380D01*
X176165238Y-111688571D02*
X176498571Y-111688571D01*
X176641428Y-112212380D02*
X176165238Y-112212380D01*
X176165238Y-111212380D01*
X176641428Y-111212380D01*
X177593809Y-112212380D02*
X177022380Y-112212380D01*
X177308095Y-112212380D02*
X177308095Y-111212380D01*
X177212857Y-111355238D01*
X177117619Y-111450476D01*
X177022380Y-111498095D01*
X177974761Y-112164761D02*
X178117619Y-112212380D01*
X178355714Y-112212380D01*
X178450952Y-112164761D01*
X178498571Y-112117142D01*
X178546190Y-112021904D01*
X178546190Y-111926666D01*
X178498571Y-111831428D01*
X178450952Y-111783809D01*
X178355714Y-111736190D01*
X178165238Y-111688571D01*
X178070000Y-111640952D01*
X178022380Y-111593333D01*
X177974761Y-111498095D01*
X177974761Y-111402857D01*
X178022380Y-111307619D01*
X178070000Y-111260000D01*
X178165238Y-111212380D01*
X178403333Y-111212380D01*
X178546190Y-111260000D01*
X179498571Y-112212380D02*
X178927142Y-112212380D01*
X179212857Y-112212380D02*
X179212857Y-111212380D01*
X179117619Y-111355238D01*
X179022380Y-111450476D01*
X178927142Y-111498095D01*
X179879523Y-111307619D02*
X179927142Y-111260000D01*
X180022380Y-111212380D01*
X180260476Y-111212380D01*
X180355714Y-111260000D01*
X180403333Y-111307619D01*
X180450952Y-111402857D01*
X180450952Y-111498095D01*
X180403333Y-111640952D01*
X179831904Y-112212380D01*
X180450952Y-112212380D01*
X180784285Y-112212380D02*
X181308095Y-111545714D01*
X180784285Y-111545714D02*
X181308095Y-112212380D01*
X181593809Y-112212380D02*
X182117619Y-111545714D01*
X181593809Y-111545714D02*
X182117619Y-112212380D01*
X182498571Y-112212380D02*
X182498571Y-111212380D01*
X182736666Y-111212380D01*
X182879523Y-111260000D01*
X182974761Y-111355238D01*
X183022380Y-111450476D01*
X183070000Y-111640952D01*
X183070000Y-111783809D01*
X183022380Y-111974285D01*
X182974761Y-112069523D01*
X182879523Y-112164761D01*
X182736666Y-112212380D01*
X182498571Y-112212380D01*
X184070000Y-112117142D02*
X184022380Y-112164761D01*
X183879523Y-112212380D01*
X183784285Y-112212380D01*
X183641428Y-112164761D01*
X183546190Y-112069523D01*
X183498571Y-111974285D01*
X183450952Y-111783809D01*
X183450952Y-111640952D01*
X183498571Y-111450476D01*
X183546190Y-111355238D01*
X183641428Y-111260000D01*
X183784285Y-111212380D01*
X183879523Y-111212380D01*
X184022380Y-111260000D01*
X184070000Y-111307619D01*
X162687619Y-112212380D02*
X162687619Y-111212380D01*
X163020952Y-111926666D01*
X163354285Y-111212380D01*
X163354285Y-112212380D01*
X163830476Y-111688571D02*
X164163809Y-111688571D01*
X164306666Y-112212380D02*
X163830476Y-112212380D01*
X163830476Y-111212380D01*
X164306666Y-111212380D01*
X164735238Y-111688571D02*
X165068571Y-111688571D01*
X165211428Y-112212380D02*
X164735238Y-112212380D01*
X164735238Y-111212380D01*
X165211428Y-111212380D01*
X166163809Y-112212380D02*
X165592380Y-112212380D01*
X165878095Y-112212380D02*
X165878095Y-111212380D01*
X165782857Y-111355238D01*
X165687619Y-111450476D01*
X165592380Y-111498095D01*
X166544761Y-112164761D02*
X166687619Y-112212380D01*
X166925714Y-112212380D01*
X167020952Y-112164761D01*
X167068571Y-112117142D01*
X167116190Y-112021904D01*
X167116190Y-111926666D01*
X167068571Y-111831428D01*
X167020952Y-111783809D01*
X166925714Y-111736190D01*
X166735238Y-111688571D01*
X166640000Y-111640952D01*
X166592380Y-111593333D01*
X166544761Y-111498095D01*
X166544761Y-111402857D01*
X166592380Y-111307619D01*
X166640000Y-111260000D01*
X166735238Y-111212380D01*
X166973333Y-111212380D01*
X167116190Y-111260000D01*
X168068571Y-112212380D02*
X167497142Y-112212380D01*
X167782857Y-112212380D02*
X167782857Y-111212380D01*
X167687619Y-111355238D01*
X167592380Y-111450476D01*
X167497142Y-111498095D01*
X168449523Y-111307619D02*
X168497142Y-111260000D01*
X168592380Y-111212380D01*
X168830476Y-111212380D01*
X168925714Y-111260000D01*
X168973333Y-111307619D01*
X169020952Y-111402857D01*
X169020952Y-111498095D01*
X168973333Y-111640952D01*
X168401904Y-112212380D01*
X169020952Y-112212380D01*
X169354285Y-112212380D02*
X169878095Y-111545714D01*
X169354285Y-111545714D02*
X169878095Y-112212380D01*
X170163809Y-112212380D02*
X170687619Y-111545714D01*
X170163809Y-111545714D02*
X170687619Y-112212380D01*
X171068571Y-112212380D02*
X171068571Y-111212380D01*
X171306666Y-111212380D01*
X171449523Y-111260000D01*
X171544761Y-111355238D01*
X171592380Y-111450476D01*
X171640000Y-111640952D01*
X171640000Y-111783809D01*
X171592380Y-111974285D01*
X171544761Y-112069523D01*
X171449523Y-112164761D01*
X171306666Y-112212380D01*
X171068571Y-112212380D01*
X172640000Y-112117142D02*
X172592380Y-112164761D01*
X172449523Y-112212380D01*
X172354285Y-112212380D01*
X172211428Y-112164761D01*
X172116190Y-112069523D01*
X172068571Y-111974285D01*
X172020952Y-111783809D01*
X172020952Y-111640952D01*
X172068571Y-111450476D01*
X172116190Y-111355238D01*
X172211428Y-111260000D01*
X172354285Y-111212380D01*
X172449523Y-111212380D01*
X172592380Y-111260000D01*
X172640000Y-111307619D01*
X151257619Y-112212380D02*
X151257619Y-111212380D01*
X151590952Y-111926666D01*
X151924285Y-111212380D01*
X151924285Y-112212380D01*
X152400476Y-111688571D02*
X152733809Y-111688571D01*
X152876666Y-112212380D02*
X152400476Y-112212380D01*
X152400476Y-111212380D01*
X152876666Y-111212380D01*
X153305238Y-111688571D02*
X153638571Y-111688571D01*
X153781428Y-112212380D02*
X153305238Y-112212380D01*
X153305238Y-111212380D01*
X153781428Y-111212380D01*
X154733809Y-112212380D02*
X154162380Y-112212380D01*
X154448095Y-112212380D02*
X154448095Y-111212380D01*
X154352857Y-111355238D01*
X154257619Y-111450476D01*
X154162380Y-111498095D01*
X155114761Y-112164761D02*
X155257619Y-112212380D01*
X155495714Y-112212380D01*
X155590952Y-112164761D01*
X155638571Y-112117142D01*
X155686190Y-112021904D01*
X155686190Y-111926666D01*
X155638571Y-111831428D01*
X155590952Y-111783809D01*
X155495714Y-111736190D01*
X155305238Y-111688571D01*
X155210000Y-111640952D01*
X155162380Y-111593333D01*
X155114761Y-111498095D01*
X155114761Y-111402857D01*
X155162380Y-111307619D01*
X155210000Y-111260000D01*
X155305238Y-111212380D01*
X155543333Y-111212380D01*
X155686190Y-111260000D01*
X156638571Y-112212380D02*
X156067142Y-112212380D01*
X156352857Y-112212380D02*
X156352857Y-111212380D01*
X156257619Y-111355238D01*
X156162380Y-111450476D01*
X156067142Y-111498095D01*
X157019523Y-111307619D02*
X157067142Y-111260000D01*
X157162380Y-111212380D01*
X157400476Y-111212380D01*
X157495714Y-111260000D01*
X157543333Y-111307619D01*
X157590952Y-111402857D01*
X157590952Y-111498095D01*
X157543333Y-111640952D01*
X156971904Y-112212380D01*
X157590952Y-112212380D01*
X157924285Y-112212380D02*
X158448095Y-111545714D01*
X157924285Y-111545714D02*
X158448095Y-112212380D01*
X158733809Y-112212380D02*
X159257619Y-111545714D01*
X158733809Y-111545714D02*
X159257619Y-112212380D01*
X159638571Y-112212380D02*
X159638571Y-111212380D01*
X159876666Y-111212380D01*
X160019523Y-111260000D01*
X160114761Y-111355238D01*
X160162380Y-111450476D01*
X160210000Y-111640952D01*
X160210000Y-111783809D01*
X160162380Y-111974285D01*
X160114761Y-112069523D01*
X160019523Y-112164761D01*
X159876666Y-112212380D01*
X159638571Y-112212380D01*
X161210000Y-112117142D02*
X161162380Y-112164761D01*
X161019523Y-112212380D01*
X160924285Y-112212380D01*
X160781428Y-112164761D01*
X160686190Y-112069523D01*
X160638571Y-111974285D01*
X160590952Y-111783809D01*
X160590952Y-111640952D01*
X160638571Y-111450476D01*
X160686190Y-111355238D01*
X160781428Y-111260000D01*
X160924285Y-111212380D01*
X161019523Y-111212380D01*
X161162380Y-111260000D01*
X161210000Y-111307619D01*
X150677619Y-119506666D02*
X150630000Y-119459047D01*
X150582380Y-119363809D01*
X150582380Y-119125714D01*
X150630000Y-119030476D01*
X150677619Y-118982857D01*
X150772857Y-118935238D01*
X150868095Y-118935238D01*
X151010952Y-118982857D01*
X151582380Y-119554285D01*
X151582380Y-118935238D01*
X150677619Y-118554285D02*
X150630000Y-118506666D01*
X150582380Y-118411428D01*
X150582380Y-118173333D01*
X150630000Y-118078095D01*
X150677619Y-118030476D01*
X150772857Y-117982857D01*
X150868095Y-117982857D01*
X151010952Y-118030476D01*
X151582380Y-118601904D01*
X151582380Y-117982857D01*
X150582380Y-117363809D02*
X150582380Y-117268571D01*
X150630000Y-117173333D01*
X150677619Y-117125714D01*
X150772857Y-117078095D01*
X150963333Y-117030476D01*
X151201428Y-117030476D01*
X151391904Y-117078095D01*
X151487142Y-117125714D01*
X151534761Y-117173333D01*
X151582380Y-117268571D01*
X151582380Y-117363809D01*
X151534761Y-117459047D01*
X151487142Y-117506666D01*
X151391904Y-117554285D01*
X151201428Y-117601904D01*
X150963333Y-117601904D01*
X150772857Y-117554285D01*
X150677619Y-117506666D01*
X150630000Y-117459047D01*
X150582380Y-117363809D01*
X150582380Y-116411428D02*
X150582380Y-116316190D01*
X150630000Y-116220952D01*
X150677619Y-116173333D01*
X150772857Y-116125714D01*
X150963333Y-116078095D01*
X151201428Y-116078095D01*
X151391904Y-116125714D01*
X151487142Y-116173333D01*
X151534761Y-116220952D01*
X151582380Y-116316190D01*
X151582380Y-116411428D01*
X151534761Y-116506666D01*
X151487142Y-116554285D01*
X151391904Y-116601904D01*
X151201428Y-116649523D01*
X150963333Y-116649523D01*
X150772857Y-116601904D01*
X150677619Y-116554285D01*
X150630000Y-116506666D01*
X150582380Y-116411428D01*
X150915714Y-115649523D02*
X151915714Y-115649523D01*
X151439523Y-115173333D02*
X151534761Y-115125714D01*
X151582380Y-115030476D01*
X151439523Y-115649523D02*
X151534761Y-115601904D01*
X151582380Y-115506666D01*
X151582380Y-115316190D01*
X151534761Y-115220952D01*
X151439523Y-115173333D01*
X150915714Y-115173333D01*
X151058571Y-114268571D02*
X151058571Y-114601904D01*
X151582380Y-114601904D02*
X150582380Y-114601904D01*
X150582380Y-114125714D01*
X179419523Y-113847619D02*
X179467142Y-113800000D01*
X179562380Y-113752380D01*
X179800476Y-113752380D01*
X179895714Y-113800000D01*
X179943333Y-113847619D01*
X179990952Y-113942857D01*
X179990952Y-114038095D01*
X179943333Y-114180952D01*
X179371904Y-114752380D01*
X179990952Y-114752380D01*
X180371904Y-113847619D02*
X180419523Y-113800000D01*
X180514761Y-113752380D01*
X180752857Y-113752380D01*
X180848095Y-113800000D01*
X180895714Y-113847619D01*
X180943333Y-113942857D01*
X180943333Y-114038095D01*
X180895714Y-114180952D01*
X180324285Y-114752380D01*
X180943333Y-114752380D01*
X181562380Y-113752380D02*
X181657619Y-113752380D01*
X181752857Y-113800000D01*
X181800476Y-113847619D01*
X181848095Y-113942857D01*
X181895714Y-114133333D01*
X181895714Y-114371428D01*
X181848095Y-114561904D01*
X181800476Y-114657142D01*
X181752857Y-114704761D01*
X181657619Y-114752380D01*
X181562380Y-114752380D01*
X181467142Y-114704761D01*
X181419523Y-114657142D01*
X181371904Y-114561904D01*
X181324285Y-114371428D01*
X181324285Y-114133333D01*
X181371904Y-113942857D01*
X181419523Y-113847619D01*
X181467142Y-113800000D01*
X181562380Y-113752380D01*
X182324285Y-114085714D02*
X182324285Y-115085714D01*
X182800476Y-114609523D02*
X182848095Y-114704761D01*
X182943333Y-114752380D01*
X182324285Y-114609523D02*
X182371904Y-114704761D01*
X182467142Y-114752380D01*
X182657619Y-114752380D01*
X182752857Y-114704761D01*
X182800476Y-114609523D01*
X182800476Y-114085714D01*
X183705238Y-114228571D02*
X183371904Y-114228571D01*
X183371904Y-114752380D02*
X183371904Y-113752380D01*
X183848095Y-113752380D01*
X179220952Y-96877142D02*
X179173333Y-96924761D01*
X179030476Y-96972380D01*
X178935238Y-96972380D01*
X178792380Y-96924761D01*
X178697142Y-96829523D01*
X178649523Y-96734285D01*
X178601904Y-96543809D01*
X178601904Y-96400952D01*
X178649523Y-96210476D01*
X178697142Y-96115238D01*
X178792380Y-96020000D01*
X178935238Y-95972380D01*
X179030476Y-95972380D01*
X179173333Y-96020000D01*
X179220952Y-96067619D01*
X179649523Y-96591428D02*
X180411428Y-96591428D01*
X181506666Y-95972380D02*
X181840000Y-96972380D01*
X182173333Y-95972380D01*
X169013333Y-96448571D02*
X169156190Y-96496190D01*
X169203809Y-96543809D01*
X169251428Y-96639047D01*
X169251428Y-96781904D01*
X169203809Y-96877142D01*
X169156190Y-96924761D01*
X169060952Y-96972380D01*
X168680000Y-96972380D01*
X168680000Y-95972380D01*
X169013333Y-95972380D01*
X169108571Y-96020000D01*
X169156190Y-96067619D01*
X169203809Y-96162857D01*
X169203809Y-96258095D01*
X169156190Y-96353333D01*
X169108571Y-96400952D01*
X169013333Y-96448571D01*
X168680000Y-96448571D01*
X169680000Y-96591428D02*
X170441904Y-96591428D01*
X170060952Y-96972380D02*
X170060952Y-96210476D01*
X171680000Y-96972380D02*
X171680000Y-95972380D01*
X158662857Y-96448571D02*
X158805714Y-96496190D01*
X158853333Y-96543809D01*
X158900952Y-96639047D01*
X158900952Y-96781904D01*
X158853333Y-96877142D01*
X158805714Y-96924761D01*
X158710476Y-96972380D01*
X158329523Y-96972380D01*
X158329523Y-95972380D01*
X158662857Y-95972380D01*
X158758095Y-96020000D01*
X158805714Y-96067619D01*
X158853333Y-96162857D01*
X158853333Y-96258095D01*
X158805714Y-96353333D01*
X158758095Y-96400952D01*
X158662857Y-96448571D01*
X158329523Y-96448571D01*
X159329523Y-96591428D02*
X160091428Y-96591428D01*
X159710476Y-96972380D02*
X159710476Y-96210476D01*
X161186666Y-95972380D02*
X161520000Y-96972380D01*
X161853333Y-95972380D01*
X149098095Y-96448571D02*
X148764761Y-96448571D01*
X148764761Y-96972380D02*
X148764761Y-95972380D01*
X149240952Y-95972380D01*
X150050476Y-96972380D02*
X150050476Y-96448571D01*
X150002857Y-96353333D01*
X149907619Y-96305714D01*
X149717142Y-96305714D01*
X149621904Y-96353333D01*
X150050476Y-96924761D02*
X149955238Y-96972380D01*
X149717142Y-96972380D01*
X149621904Y-96924761D01*
X149574285Y-96829523D01*
X149574285Y-96734285D01*
X149621904Y-96639047D01*
X149717142Y-96591428D01*
X149955238Y-96591428D01*
X150050476Y-96543809D01*
X150526666Y-96305714D02*
X150526666Y-96972380D01*
X150526666Y-96400952D02*
X150574285Y-96353333D01*
X150669523Y-96305714D01*
X150812380Y-96305714D01*
X150907619Y-96353333D01*
X150955238Y-96448571D01*
X150955238Y-96972380D01*
X137438095Y-96972380D02*
X136866666Y-96972380D01*
X137152380Y-96972380D02*
X137152380Y-95972380D01*
X137057142Y-96115238D01*
X136961904Y-96210476D01*
X136866666Y-96258095D01*
X137819047Y-96067619D02*
X137866666Y-96020000D01*
X137961904Y-95972380D01*
X138200000Y-95972380D01*
X138295238Y-96020000D01*
X138342857Y-96067619D01*
X138390476Y-96162857D01*
X138390476Y-96258095D01*
X138342857Y-96400952D01*
X137771428Y-96972380D01*
X138390476Y-96972380D01*
X138819047Y-96877142D02*
X138866666Y-96924761D01*
X138819047Y-96972380D01*
X138771428Y-96924761D01*
X138819047Y-96877142D01*
X138819047Y-96972380D01*
X139723809Y-95972380D02*
X139533333Y-95972380D01*
X139438095Y-96020000D01*
X139390476Y-96067619D01*
X139295238Y-96210476D01*
X139247619Y-96400952D01*
X139247619Y-96781904D01*
X139295238Y-96877142D01*
X139342857Y-96924761D01*
X139438095Y-96972380D01*
X139628571Y-96972380D01*
X139723809Y-96924761D01*
X139771428Y-96877142D01*
X139819047Y-96781904D01*
X139819047Y-96543809D01*
X139771428Y-96448571D01*
X139723809Y-96400952D01*
X139628571Y-96353333D01*
X139438095Y-96353333D01*
X139342857Y-96400952D01*
X139295238Y-96448571D01*
X139247619Y-96543809D01*
X140104761Y-95972380D02*
X140438095Y-96972380D01*
X140771428Y-95972380D01*
X141057142Y-96686666D02*
X141533333Y-96686666D01*
X140961904Y-96972380D02*
X141295238Y-95972380D01*
X141628571Y-96972380D01*
X142533333Y-96877142D02*
X142485714Y-96924761D01*
X142342857Y-96972380D01*
X142247619Y-96972380D01*
X142104761Y-96924761D01*
X142009523Y-96829523D01*
X141961904Y-96734285D01*
X141914285Y-96543809D01*
X141914285Y-96400952D01*
X141961904Y-96210476D01*
X142009523Y-96115238D01*
X142104761Y-96020000D01*
X142247619Y-95972380D01*
X142342857Y-95972380D01*
X142485714Y-96020000D01*
X142533333Y-96067619D01*
D11*
%TO.C,D1*%
X144140000Y-103140000D02*
X144140000Y-101370000D01*
X144140000Y-101370000D02*
X135540000Y-101370000D01*
X135540000Y-101370000D02*
X135540000Y-106910000D01*
X135540000Y-106910000D02*
X144140000Y-106910000D01*
X144140000Y-106910000D02*
X144140000Y-105140000D01*
X144140000Y-105140000D02*
G75*
G02*
X144140000Y-103140000I0J1000000D01*
G01*
%TO.C,C2*%
X179800000Y-118090000D02*
G75*
G03*
X179800000Y-118090000I-3270000J0D01*
G01*
X179760000Y-118090000D02*
X173300000Y-118090000D01*
X179760000Y-118130000D02*
X173300000Y-118130000D01*
X179760000Y-118170000D02*
X173300000Y-118170000D01*
X179758000Y-118210000D02*
X173302000Y-118210000D01*
X179757000Y-118250000D02*
X173303000Y-118250000D01*
X179754000Y-118290000D02*
X173306000Y-118290000D01*
X179752000Y-118330000D02*
X177570000Y-118330000D01*
X175490000Y-118330000D02*
X173308000Y-118330000D01*
X179748000Y-118370000D02*
X177570000Y-118370000D01*
X175490000Y-118370000D02*
X173312000Y-118370000D01*
X179745000Y-118410000D02*
X177570000Y-118410000D01*
X175490000Y-118410000D02*
X173315000Y-118410000D01*
X179741000Y-118450000D02*
X177570000Y-118450000D01*
X175490000Y-118450000D02*
X173319000Y-118450000D01*
X179736000Y-118490000D02*
X177570000Y-118490000D01*
X175490000Y-118490000D02*
X173324000Y-118490000D01*
X179731000Y-118530000D02*
X177570000Y-118530000D01*
X175490000Y-118530000D02*
X173329000Y-118530000D01*
X179725000Y-118570000D02*
X177570000Y-118570000D01*
X175490000Y-118570000D02*
X173335000Y-118570000D01*
X179719000Y-118610000D02*
X177570000Y-118610000D01*
X175490000Y-118610000D02*
X173341000Y-118610000D01*
X179712000Y-118650000D02*
X177570000Y-118650000D01*
X175490000Y-118650000D02*
X173348000Y-118650000D01*
X179705000Y-118690000D02*
X177570000Y-118690000D01*
X175490000Y-118690000D02*
X173355000Y-118690000D01*
X179697000Y-118730000D02*
X177570000Y-118730000D01*
X175490000Y-118730000D02*
X173363000Y-118730000D01*
X179689000Y-118770000D02*
X177570000Y-118770000D01*
X175490000Y-118770000D02*
X173371000Y-118770000D01*
X179680000Y-118811000D02*
X177570000Y-118811000D01*
X175490000Y-118811000D02*
X173380000Y-118811000D01*
X179671000Y-118851000D02*
X177570000Y-118851000D01*
X175490000Y-118851000D02*
X173389000Y-118851000D01*
X179661000Y-118891000D02*
X177570000Y-118891000D01*
X175490000Y-118891000D02*
X173399000Y-118891000D01*
X179651000Y-118931000D02*
X177570000Y-118931000D01*
X175490000Y-118931000D02*
X173409000Y-118931000D01*
X179640000Y-118971000D02*
X177570000Y-118971000D01*
X175490000Y-118971000D02*
X173420000Y-118971000D01*
X179628000Y-119011000D02*
X177570000Y-119011000D01*
X175490000Y-119011000D02*
X173432000Y-119011000D01*
X179616000Y-119051000D02*
X177570000Y-119051000D01*
X175490000Y-119051000D02*
X173444000Y-119051000D01*
X179604000Y-119091000D02*
X177570000Y-119091000D01*
X175490000Y-119091000D02*
X173456000Y-119091000D01*
X179591000Y-119131000D02*
X177570000Y-119131000D01*
X175490000Y-119131000D02*
X173469000Y-119131000D01*
X179577000Y-119171000D02*
X177570000Y-119171000D01*
X175490000Y-119171000D02*
X173483000Y-119171000D01*
X179563000Y-119211000D02*
X177570000Y-119211000D01*
X175490000Y-119211000D02*
X173497000Y-119211000D01*
X179548000Y-119251000D02*
X177570000Y-119251000D01*
X175490000Y-119251000D02*
X173512000Y-119251000D01*
X179532000Y-119291000D02*
X177570000Y-119291000D01*
X175490000Y-119291000D02*
X173528000Y-119291000D01*
X179516000Y-119331000D02*
X177570000Y-119331000D01*
X175490000Y-119331000D02*
X173544000Y-119331000D01*
X179500000Y-119371000D02*
X177570000Y-119371000D01*
X175490000Y-119371000D02*
X173560000Y-119371000D01*
X179482000Y-119411000D02*
X177570000Y-119411000D01*
X175490000Y-119411000D02*
X173578000Y-119411000D01*
X179464000Y-119451000D02*
X177570000Y-119451000D01*
X175490000Y-119451000D02*
X173596000Y-119451000D01*
X179446000Y-119491000D02*
X177570000Y-119491000D01*
X175490000Y-119491000D02*
X173614000Y-119491000D01*
X179426000Y-119531000D02*
X177570000Y-119531000D01*
X175490000Y-119531000D02*
X173634000Y-119531000D01*
X179406000Y-119571000D02*
X177570000Y-119571000D01*
X175490000Y-119571000D02*
X173654000Y-119571000D01*
X179386000Y-119611000D02*
X177570000Y-119611000D01*
X175490000Y-119611000D02*
X173674000Y-119611000D01*
X179364000Y-119651000D02*
X177570000Y-119651000D01*
X175490000Y-119651000D02*
X173696000Y-119651000D01*
X179342000Y-119691000D02*
X177570000Y-119691000D01*
X175490000Y-119691000D02*
X173718000Y-119691000D01*
X179320000Y-119731000D02*
X177570000Y-119731000D01*
X175490000Y-119731000D02*
X173740000Y-119731000D01*
X179296000Y-119771000D02*
X177570000Y-119771000D01*
X175490000Y-119771000D02*
X173764000Y-119771000D01*
X179272000Y-119811000D02*
X177570000Y-119811000D01*
X175490000Y-119811000D02*
X173788000Y-119811000D01*
X179246000Y-119851000D02*
X177570000Y-119851000D01*
X175490000Y-119851000D02*
X173814000Y-119851000D01*
X179220000Y-119891000D02*
X177570000Y-119891000D01*
X175490000Y-119891000D02*
X173840000Y-119891000D01*
X179194000Y-119931000D02*
X177570000Y-119931000D01*
X175490000Y-119931000D02*
X173866000Y-119931000D01*
X179166000Y-119971000D02*
X177570000Y-119971000D01*
X175490000Y-119971000D02*
X173894000Y-119971000D01*
X179137000Y-120011000D02*
X177570000Y-120011000D01*
X175490000Y-120011000D02*
X173923000Y-120011000D01*
X179108000Y-120051000D02*
X177570000Y-120051000D01*
X175490000Y-120051000D02*
X173952000Y-120051000D01*
X179078000Y-120091000D02*
X177570000Y-120091000D01*
X175490000Y-120091000D02*
X173982000Y-120091000D01*
X179046000Y-120131000D02*
X177570000Y-120131000D01*
X175490000Y-120131000D02*
X174014000Y-120131000D01*
X179014000Y-120171000D02*
X177570000Y-120171000D01*
X175490000Y-120171000D02*
X174046000Y-120171000D01*
X178980000Y-120211000D02*
X177570000Y-120211000D01*
X175490000Y-120211000D02*
X174080000Y-120211000D01*
X178946000Y-120251000D02*
X177570000Y-120251000D01*
X175490000Y-120251000D02*
X174114000Y-120251000D01*
X178910000Y-120291000D02*
X177570000Y-120291000D01*
X175490000Y-120291000D02*
X174150000Y-120291000D01*
X178873000Y-120331000D02*
X177570000Y-120331000D01*
X175490000Y-120331000D02*
X174187000Y-120331000D01*
X178835000Y-120371000D02*
X177570000Y-120371000D01*
X175490000Y-120371000D02*
X174225000Y-120371000D01*
X178795000Y-120411000D02*
X174265000Y-120411000D01*
X178754000Y-120451000D02*
X174306000Y-120451000D01*
X178712000Y-120491000D02*
X174348000Y-120491000D01*
X178667000Y-120531000D02*
X174393000Y-120531000D01*
X178622000Y-120571000D02*
X174438000Y-120571000D01*
X178574000Y-120611000D02*
X174486000Y-120611000D01*
X178525000Y-120651000D02*
X174535000Y-120651000D01*
X178474000Y-120691000D02*
X174586000Y-120691000D01*
X178420000Y-120731000D02*
X174640000Y-120731000D01*
X178364000Y-120771000D02*
X174696000Y-120771000D01*
X178306000Y-120811000D02*
X174754000Y-120811000D01*
X178244000Y-120851000D02*
X174816000Y-120851000D01*
X178180000Y-120891000D02*
X174880000Y-120891000D01*
X178111000Y-120931000D02*
X174949000Y-120931000D01*
X178039000Y-120971000D02*
X175021000Y-120971000D01*
X177962000Y-121011000D02*
X175098000Y-121011000D01*
X177880000Y-121051000D02*
X175180000Y-121051000D01*
X177792000Y-121091000D02*
X175268000Y-121091000D01*
X177695000Y-121131000D02*
X175365000Y-121131000D01*
X177589000Y-121171000D02*
X175471000Y-121171000D01*
X177470000Y-121211000D02*
X175590000Y-121211000D01*
X177332000Y-121251000D02*
X175728000Y-121251000D01*
X177163000Y-121291000D02*
X175897000Y-121291000D01*
X176932000Y-121331000D02*
X176128000Y-121331000D01*
X178369000Y-114589759D02*
X178369000Y-115219759D01*
X178684000Y-114904759D02*
X178054000Y-114904759D01*
%TO.C,C1*%
X146440000Y-110607918D02*
X145190000Y-110607918D01*
X145815000Y-109982918D02*
X145815000Y-111232918D01*
X142557000Y-123161000D02*
X141923000Y-123161000D01*
X142997000Y-123121000D02*
X141483000Y-123121000D01*
X143268000Y-123081000D02*
X141212000Y-123081000D01*
X143481000Y-123041000D02*
X140999000Y-123041000D01*
X143662000Y-123001000D02*
X140818000Y-123001000D01*
X143823000Y-122961000D02*
X140657000Y-122961000D01*
X143968000Y-122921000D02*
X140512000Y-122921000D01*
X144101000Y-122881000D02*
X140379000Y-122881000D01*
X144224000Y-122841000D02*
X140256000Y-122841000D01*
X144340000Y-122801000D02*
X140140000Y-122801000D01*
X144449000Y-122761000D02*
X140031000Y-122761000D01*
X144552000Y-122721000D02*
X139928000Y-122721000D01*
X144650000Y-122681000D02*
X139830000Y-122681000D01*
X144744000Y-122641000D02*
X139736000Y-122641000D01*
X144834000Y-122601000D02*
X139646000Y-122601000D01*
X144921000Y-122561000D02*
X139559000Y-122561000D01*
X145004000Y-122521000D02*
X139476000Y-122521000D01*
X145084000Y-122481000D02*
X139396000Y-122481000D01*
X145161000Y-122441000D02*
X139319000Y-122441000D01*
X145236000Y-122401000D02*
X139244000Y-122401000D01*
X145309000Y-122361000D02*
X139171000Y-122361000D01*
X145380000Y-122321000D02*
X139100000Y-122321000D01*
X145448000Y-122281000D02*
X139032000Y-122281000D01*
X145515000Y-122241000D02*
X138965000Y-122241000D01*
X145579000Y-122201000D02*
X138901000Y-122201000D01*
X145642000Y-122161000D02*
X138838000Y-122161000D01*
X145704000Y-122121000D02*
X138776000Y-122121000D01*
X145764000Y-122081000D02*
X138716000Y-122081000D01*
X145823000Y-122041000D02*
X138657000Y-122041000D01*
X145880000Y-122001000D02*
X138600000Y-122001000D01*
X145936000Y-121961000D02*
X138544000Y-121961000D01*
X145990000Y-121921000D02*
X138490000Y-121921000D01*
X146044000Y-121881000D02*
X138436000Y-121881000D01*
X146096000Y-121841000D02*
X138384000Y-121841000D01*
X146147000Y-121801000D02*
X138333000Y-121801000D01*
X146197000Y-121761000D02*
X138283000Y-121761000D01*
X146247000Y-121721000D02*
X138233000Y-121721000D01*
X146295000Y-121681000D02*
X138185000Y-121681000D01*
X146342000Y-121641000D02*
X138138000Y-121641000D01*
X146388000Y-121601000D02*
X138092000Y-121601000D01*
X146434000Y-121561000D02*
X138046000Y-121561000D01*
X146478000Y-121521000D02*
X138002000Y-121521000D01*
X146522000Y-121481000D02*
X137958000Y-121481000D01*
X146565000Y-121441000D02*
X137915000Y-121441000D01*
X146607000Y-121401000D02*
X137873000Y-121401000D01*
X146648000Y-121361000D02*
X137832000Y-121361000D01*
X146689000Y-121321000D02*
X137791000Y-121321000D01*
X146729000Y-121281000D02*
X137751000Y-121281000D01*
X146768000Y-121241000D02*
X137712000Y-121241000D01*
X146807000Y-121201000D02*
X137673000Y-121201000D01*
X146845000Y-121161000D02*
X137635000Y-121161000D01*
X146882000Y-121121000D02*
X137598000Y-121121000D01*
X146918000Y-121081000D02*
X137562000Y-121081000D01*
X146954000Y-121041000D02*
X137526000Y-121041000D01*
X146990000Y-121001000D02*
X137490000Y-121001000D01*
X147025000Y-120961000D02*
X137455000Y-120961000D01*
X147059000Y-120921000D02*
X137421000Y-120921000D01*
X147092000Y-120881000D02*
X137388000Y-120881000D01*
X147125000Y-120841000D02*
X137355000Y-120841000D01*
X147158000Y-120801000D02*
X137322000Y-120801000D01*
X147190000Y-120761000D02*
X137290000Y-120761000D01*
X140800000Y-120721000D02*
X137258000Y-120721000D01*
X147222000Y-120721000D02*
X143680000Y-120721000D01*
X140800000Y-120681000D02*
X137228000Y-120681000D01*
X147252000Y-120681000D02*
X143680000Y-120681000D01*
X140800000Y-120641000D02*
X137197000Y-120641000D01*
X147283000Y-120641000D02*
X143680000Y-120641000D01*
X140800000Y-120601000D02*
X137167000Y-120601000D01*
X147313000Y-120601000D02*
X143680000Y-120601000D01*
X140800000Y-120561000D02*
X137138000Y-120561000D01*
X147342000Y-120561000D02*
X143680000Y-120561000D01*
X140800000Y-120521000D02*
X137109000Y-120521000D01*
X147371000Y-120521000D02*
X143680000Y-120521000D01*
X140800000Y-120481000D02*
X137080000Y-120481000D01*
X147400000Y-120481000D02*
X143680000Y-120481000D01*
X140800000Y-120441000D02*
X137052000Y-120441000D01*
X147428000Y-120441000D02*
X143680000Y-120441000D01*
X140800000Y-120401000D02*
X137024000Y-120401000D01*
X147456000Y-120401000D02*
X143680000Y-120401000D01*
X140800000Y-120361000D02*
X136997000Y-120361000D01*
X147483000Y-120361000D02*
X143680000Y-120361000D01*
X140800000Y-120321000D02*
X136970000Y-120321000D01*
X147510000Y-120321000D02*
X143680000Y-120321000D01*
X140800000Y-120281000D02*
X136944000Y-120281000D01*
X147536000Y-120281000D02*
X143680000Y-120281000D01*
X140800000Y-120241000D02*
X136918000Y-120241000D01*
X147562000Y-120241000D02*
X143680000Y-120241000D01*
X140800000Y-120201000D02*
X136893000Y-120201000D01*
X147587000Y-120201000D02*
X143680000Y-120201000D01*
X140800000Y-120161000D02*
X136868000Y-120161000D01*
X147612000Y-120161000D02*
X143680000Y-120161000D01*
X140800000Y-120121000D02*
X136843000Y-120121000D01*
X147637000Y-120121000D02*
X143680000Y-120121000D01*
X140800000Y-120081000D02*
X136819000Y-120081000D01*
X147661000Y-120081000D02*
X143680000Y-120081000D01*
X140800000Y-120041000D02*
X136795000Y-120041000D01*
X147685000Y-120041000D02*
X143680000Y-120041000D01*
X140800000Y-120001000D02*
X136772000Y-120001000D01*
X147708000Y-120001000D02*
X143680000Y-120001000D01*
X140800000Y-119961000D02*
X136749000Y-119961000D01*
X147731000Y-119961000D02*
X143680000Y-119961000D01*
X140800000Y-119921000D02*
X136726000Y-119921000D01*
X147754000Y-119921000D02*
X143680000Y-119921000D01*
X140800000Y-119881000D02*
X136704000Y-119881000D01*
X147776000Y-119881000D02*
X143680000Y-119881000D01*
X140800000Y-119841000D02*
X136682000Y-119841000D01*
X147798000Y-119841000D02*
X143680000Y-119841000D01*
X140800000Y-119801000D02*
X136660000Y-119801000D01*
X147820000Y-119801000D02*
X143680000Y-119801000D01*
X140800000Y-119761000D02*
X136639000Y-119761000D01*
X147841000Y-119761000D02*
X143680000Y-119761000D01*
X140800000Y-119721000D02*
X136618000Y-119721000D01*
X147862000Y-119721000D02*
X143680000Y-119721000D01*
X140800000Y-119681000D02*
X136598000Y-119681000D01*
X147882000Y-119681000D02*
X143680000Y-119681000D01*
X140800000Y-119641000D02*
X136578000Y-119641000D01*
X147902000Y-119641000D02*
X143680000Y-119641000D01*
X140800000Y-119601000D02*
X136558000Y-119601000D01*
X147922000Y-119601000D02*
X143680000Y-119601000D01*
X140800000Y-119561000D02*
X136538000Y-119561000D01*
X147942000Y-119561000D02*
X143680000Y-119561000D01*
X140800000Y-119521000D02*
X136519000Y-119521000D01*
X147961000Y-119521000D02*
X143680000Y-119521000D01*
X140800000Y-119481000D02*
X136501000Y-119481000D01*
X147979000Y-119481000D02*
X143680000Y-119481000D01*
X140800000Y-119441000D02*
X136482000Y-119441000D01*
X147998000Y-119441000D02*
X143680000Y-119441000D01*
X140800000Y-119401000D02*
X136464000Y-119401000D01*
X148016000Y-119401000D02*
X143680000Y-119401000D01*
X140800000Y-119361000D02*
X136447000Y-119361000D01*
X148033000Y-119361000D02*
X143680000Y-119361000D01*
X140800000Y-119321000D02*
X136429000Y-119321000D01*
X148051000Y-119321000D02*
X143680000Y-119321000D01*
X140800000Y-119281000D02*
X136412000Y-119281000D01*
X148068000Y-119281000D02*
X143680000Y-119281000D01*
X140800000Y-119241000D02*
X136395000Y-119241000D01*
X148085000Y-119241000D02*
X143680000Y-119241000D01*
X140800000Y-119201000D02*
X136379000Y-119201000D01*
X148101000Y-119201000D02*
X143680000Y-119201000D01*
X140800000Y-119161000D02*
X136363000Y-119161000D01*
X148117000Y-119161000D02*
X143680000Y-119161000D01*
X140800000Y-119121000D02*
X136347000Y-119121000D01*
X148133000Y-119121000D02*
X143680000Y-119121000D01*
X140800000Y-119081000D02*
X136332000Y-119081000D01*
X148148000Y-119081000D02*
X143680000Y-119081000D01*
X140800000Y-119041000D02*
X136316000Y-119041000D01*
X148164000Y-119041000D02*
X143680000Y-119041000D01*
X140800000Y-119001000D02*
X136301000Y-119001000D01*
X148179000Y-119001000D02*
X143680000Y-119001000D01*
X140800000Y-118961000D02*
X136287000Y-118961000D01*
X148193000Y-118961000D02*
X143680000Y-118961000D01*
X140800000Y-118921000D02*
X136273000Y-118921000D01*
X148207000Y-118921000D02*
X143680000Y-118921000D01*
X140800000Y-118881000D02*
X136259000Y-118881000D01*
X148221000Y-118881000D02*
X143680000Y-118881000D01*
X140800000Y-118841000D02*
X136245000Y-118841000D01*
X148235000Y-118841000D02*
X143680000Y-118841000D01*
X140800000Y-118801000D02*
X136232000Y-118801000D01*
X148248000Y-118801000D02*
X143680000Y-118801000D01*
X140800000Y-118761000D02*
X136219000Y-118761000D01*
X148261000Y-118761000D02*
X143680000Y-118761000D01*
X140800000Y-118721000D02*
X136206000Y-118721000D01*
X148274000Y-118721000D02*
X143680000Y-118721000D01*
X140800000Y-118681000D02*
X136193000Y-118681000D01*
X148287000Y-118681000D02*
X143680000Y-118681000D01*
X140800000Y-118641000D02*
X136181000Y-118641000D01*
X148299000Y-118641000D02*
X143680000Y-118641000D01*
X140800000Y-118601000D02*
X136169000Y-118601000D01*
X148311000Y-118601000D02*
X143680000Y-118601000D01*
X140800000Y-118561000D02*
X136157000Y-118561000D01*
X148323000Y-118561000D02*
X143680000Y-118561000D01*
X140800000Y-118521000D02*
X136146000Y-118521000D01*
X148334000Y-118521000D02*
X143680000Y-118521000D01*
X140800000Y-118481000D02*
X136135000Y-118481000D01*
X148345000Y-118481000D02*
X143680000Y-118481000D01*
X140800000Y-118441000D02*
X136124000Y-118441000D01*
X148356000Y-118441000D02*
X143680000Y-118441000D01*
X140800000Y-118401000D02*
X136114000Y-118401000D01*
X148366000Y-118401000D02*
X143680000Y-118401000D01*
X140800000Y-118361000D02*
X136103000Y-118361000D01*
X148377000Y-118361000D02*
X143680000Y-118361000D01*
X140800000Y-118321000D02*
X136094000Y-118321000D01*
X148386000Y-118321000D02*
X143680000Y-118321000D01*
X140800000Y-118281000D02*
X136084000Y-118281000D01*
X148396000Y-118281000D02*
X143680000Y-118281000D01*
X140800000Y-118241000D02*
X136074000Y-118241000D01*
X148406000Y-118241000D02*
X143680000Y-118241000D01*
X140800000Y-118201000D02*
X136065000Y-118201000D01*
X148415000Y-118201000D02*
X143680000Y-118201000D01*
X140800000Y-118161000D02*
X136056000Y-118161000D01*
X148424000Y-118161000D02*
X143680000Y-118161000D01*
X140800000Y-118121000D02*
X136048000Y-118121000D01*
X148432000Y-118121000D02*
X143680000Y-118121000D01*
X140800000Y-118081000D02*
X136039000Y-118081000D01*
X148441000Y-118081000D02*
X143680000Y-118081000D01*
X140800000Y-118041000D02*
X136031000Y-118041000D01*
X148449000Y-118041000D02*
X143680000Y-118041000D01*
X140800000Y-118001000D02*
X136024000Y-118001000D01*
X148456000Y-118001000D02*
X143680000Y-118001000D01*
X140800000Y-117961000D02*
X136016000Y-117961000D01*
X148464000Y-117961000D02*
X143680000Y-117961000D01*
X140800000Y-117921000D02*
X136009000Y-117921000D01*
X148471000Y-117921000D02*
X143680000Y-117921000D01*
X140800000Y-117881000D02*
X136002000Y-117881000D01*
X148478000Y-117881000D02*
X143680000Y-117881000D01*
X148485000Y-117841000D02*
X135995000Y-117841000D01*
X148492000Y-117801000D02*
X135988000Y-117801000D01*
X148498000Y-117761000D02*
X135982000Y-117761000D01*
X148504000Y-117721000D02*
X135976000Y-117721000D01*
X148509000Y-117681000D02*
X135971000Y-117681000D01*
X148515000Y-117641000D02*
X135965000Y-117641000D01*
X148520000Y-117601000D02*
X135960000Y-117601000D01*
X148525000Y-117561000D02*
X135955000Y-117561000D01*
X148530000Y-117521000D02*
X135950000Y-117521000D01*
X148534000Y-117480000D02*
X135946000Y-117480000D01*
X148538000Y-117440000D02*
X135942000Y-117440000D01*
X148542000Y-117400000D02*
X135938000Y-117400000D01*
X148546000Y-117360000D02*
X135934000Y-117360000D01*
X148549000Y-117320000D02*
X135931000Y-117320000D01*
X148552000Y-117280000D02*
X135928000Y-117280000D01*
X148555000Y-117240000D02*
X135925000Y-117240000D01*
X148558000Y-117200000D02*
X135922000Y-117200000D01*
X148560000Y-117160000D02*
X135920000Y-117160000D01*
X148562000Y-117120000D02*
X135918000Y-117120000D01*
X148564000Y-117080000D02*
X135916000Y-117080000D01*
X148566000Y-117040000D02*
X135914000Y-117040000D01*
X148567000Y-117000000D02*
X135913000Y-117000000D01*
X148568000Y-116960000D02*
X135912000Y-116960000D01*
X148569000Y-116920000D02*
X135911000Y-116920000D01*
X148570000Y-116880000D02*
X135910000Y-116880000D01*
X148570000Y-116840000D02*
X135910000Y-116840000D01*
X148570000Y-116800000D02*
X135910000Y-116800000D01*
X148610000Y-116800000D02*
G75*
G03*
X148610000Y-116800000I-6370000J0D01*
G01*
%TO.C,J1*%
X136570000Y-92510000D02*
X136970000Y-92510000D01*
X136570000Y-91870000D02*
X136570000Y-92510000D01*
X142590000Y-85530000D02*
X142590000Y-92270000D01*
X136810000Y-85530000D02*
X136810000Y-92270000D01*
X136810000Y-92270000D02*
X142590000Y-92270000D01*
X136810000Y-85530000D02*
X142590000Y-85530000D01*
X136810000Y-86650000D02*
X142590000Y-86650000D01*
X136810000Y-91750000D02*
X142590000Y-91750000D01*
%TO.C,J2*%
X146970000Y-91750000D02*
X152750000Y-91750000D01*
X146970000Y-86650000D02*
X152750000Y-86650000D01*
X146970000Y-85530000D02*
X152750000Y-85530000D01*
X146970000Y-92270000D02*
X152750000Y-92270000D01*
X146970000Y-85530000D02*
X146970000Y-92270000D01*
X152750000Y-85530000D02*
X152750000Y-92270000D01*
X146730000Y-91870000D02*
X146730000Y-92510000D01*
X146730000Y-92510000D02*
X147130000Y-92510000D01*
%TO.C,J3*%
X156890000Y-92510000D02*
X157290000Y-92510000D01*
X156890000Y-91870000D02*
X156890000Y-92510000D01*
X162910000Y-85530000D02*
X162910000Y-92270000D01*
X157130000Y-85530000D02*
X157130000Y-92270000D01*
X157130000Y-92270000D02*
X162910000Y-92270000D01*
X157130000Y-85530000D02*
X162910000Y-85530000D01*
X157130000Y-86650000D02*
X162910000Y-86650000D01*
X157130000Y-91750000D02*
X162910000Y-91750000D01*
%TO.C,J4*%
X167290000Y-91750000D02*
X173070000Y-91750000D01*
X167290000Y-86650000D02*
X173070000Y-86650000D01*
X167290000Y-85530000D02*
X173070000Y-85530000D01*
X167290000Y-92270000D02*
X173070000Y-92270000D01*
X167290000Y-85530000D02*
X167290000Y-92270000D01*
X173070000Y-85530000D02*
X173070000Y-92270000D01*
X167050000Y-91870000D02*
X167050000Y-92510000D01*
X167050000Y-92510000D02*
X167450000Y-92510000D01*
%TO.C,J5*%
X177210000Y-92510000D02*
X177610000Y-92510000D01*
X177210000Y-91870000D02*
X177210000Y-92510000D01*
X183230000Y-85530000D02*
X183230000Y-92270000D01*
X177450000Y-85530000D02*
X177450000Y-92270000D01*
X177450000Y-92270000D02*
X183230000Y-92270000D01*
X177450000Y-85530000D02*
X183230000Y-85530000D01*
X177450000Y-86650000D02*
X183230000Y-86650000D01*
X177450000Y-91750000D02*
X183230000Y-91750000D01*
%TO.C,R1*%
X147618620Y-102944775D02*
G75*
G02*
X149390000Y-103053272I971380J1344775D01*
G01*
%TO.C,U1*%
X159439000Y-120110000D02*
X159439000Y-118600000D01*
X163140000Y-120110000D02*
X163140000Y-118600000D01*
X166410000Y-118600000D02*
X156170000Y-118600000D01*
X156170000Y-120110000D02*
X156170000Y-115469000D01*
X166410000Y-120110000D02*
X166410000Y-115469000D01*
X166410000Y-115469000D02*
X156170000Y-115469000D01*
X166410000Y-120110000D02*
X156170000Y-120110000D01*
%TO.C,U2*%
X158860000Y-100270000D02*
X157210000Y-100270000D01*
X158860000Y-110550000D02*
X158860000Y-100270000D01*
X153560000Y-110550000D02*
X158860000Y-110550000D01*
X153560000Y-100270000D02*
X153560000Y-110550000D01*
X155210000Y-100270000D02*
X153560000Y-100270000D01*
X157210000Y-100270000D02*
G75*
G02*
X155210000Y-100270000I-1000000J0D01*
G01*
%TO.C,U3*%
X166640000Y-100270000D02*
X164990000Y-100270000D01*
X164990000Y-100270000D02*
X164990000Y-110550000D01*
X164990000Y-110550000D02*
X170290000Y-110550000D01*
X170290000Y-110550000D02*
X170290000Y-100270000D01*
X170290000Y-100270000D02*
X168640000Y-100270000D01*
X168640000Y-100270000D02*
G75*
G02*
X166640000Y-100270000I-1000000J0D01*
G01*
%TO.C,U4*%
X181720000Y-100270000D02*
X180070000Y-100270000D01*
X181720000Y-110550000D02*
X181720000Y-100270000D01*
X176420000Y-110550000D02*
X181720000Y-110550000D01*
X176420000Y-100270000D02*
X176420000Y-110550000D01*
X178070000Y-100270000D02*
X176420000Y-100270000D01*
X180070000Y-100270000D02*
G75*
G02*
X178070000Y-100270000I-1000000J0D01*
G01*
%TO.C,D1*%
D10*
X135072380Y-108688095D02*
X134072380Y-108688095D01*
X134072380Y-108450000D01*
X134120000Y-108307142D01*
X134215238Y-108211904D01*
X134310476Y-108164285D01*
X134500952Y-108116666D01*
X134643809Y-108116666D01*
X134834285Y-108164285D01*
X134929523Y-108211904D01*
X135024761Y-108307142D01*
X135072380Y-108450000D01*
X135072380Y-108688095D01*
X135072380Y-107164285D02*
X135072380Y-107735714D01*
X135072380Y-107450000D02*
X134072380Y-107450000D01*
X134215238Y-107545238D01*
X134310476Y-107640476D01*
X134358095Y-107735714D01*
%TO.C,C2*%
X181443333Y-117197142D02*
X181395714Y-117244761D01*
X181252857Y-117292380D01*
X181157619Y-117292380D01*
X181014761Y-117244761D01*
X180919523Y-117149523D01*
X180871904Y-117054285D01*
X180824285Y-116863809D01*
X180824285Y-116720952D01*
X180871904Y-116530476D01*
X180919523Y-116435238D01*
X181014761Y-116340000D01*
X181157619Y-116292380D01*
X181252857Y-116292380D01*
X181395714Y-116340000D01*
X181443333Y-116387619D01*
X181824285Y-116387619D02*
X181871904Y-116340000D01*
X181967142Y-116292380D01*
X182205238Y-116292380D01*
X182300476Y-116340000D01*
X182348095Y-116387619D01*
X182395714Y-116482857D01*
X182395714Y-116578095D01*
X182348095Y-116720952D01*
X181776666Y-117292380D01*
X182395714Y-117292380D01*
%TO.C,C1*%
X150097142Y-116966666D02*
X150144761Y-117014285D01*
X150192380Y-117157142D01*
X150192380Y-117252380D01*
X150144761Y-117395238D01*
X150049523Y-117490476D01*
X149954285Y-117538095D01*
X149763809Y-117585714D01*
X149620952Y-117585714D01*
X149430476Y-117538095D01*
X149335238Y-117490476D01*
X149240000Y-117395238D01*
X149192380Y-117252380D01*
X149192380Y-117157142D01*
X149240000Y-117014285D01*
X149287619Y-116966666D01*
X150192380Y-116014285D02*
X150192380Y-116585714D01*
X150192380Y-116300000D02*
X149192380Y-116300000D01*
X149335238Y-116395238D01*
X149430476Y-116490476D01*
X149478095Y-116585714D01*
%TO.C,J1*%
X139366666Y-93432380D02*
X139366666Y-94146666D01*
X139319047Y-94289523D01*
X139223809Y-94384761D01*
X139080952Y-94432380D01*
X138985714Y-94432380D01*
X140366666Y-94432380D02*
X139795238Y-94432380D01*
X140080952Y-94432380D02*
X140080952Y-93432380D01*
X139985714Y-93575238D01*
X139890476Y-93670476D01*
X139795238Y-93718095D01*
%TO.C,J2*%
X149526666Y-93432380D02*
X149526666Y-94146666D01*
X149479047Y-94289523D01*
X149383809Y-94384761D01*
X149240952Y-94432380D01*
X149145714Y-94432380D01*
X149955238Y-93527619D02*
X150002857Y-93480000D01*
X150098095Y-93432380D01*
X150336190Y-93432380D01*
X150431428Y-93480000D01*
X150479047Y-93527619D01*
X150526666Y-93622857D01*
X150526666Y-93718095D01*
X150479047Y-93860952D01*
X149907619Y-94432380D01*
X150526666Y-94432380D01*
%TO.C,J3*%
X159686666Y-93432380D02*
X159686666Y-94146666D01*
X159639047Y-94289523D01*
X159543809Y-94384761D01*
X159400952Y-94432380D01*
X159305714Y-94432380D01*
X160067619Y-93432380D02*
X160686666Y-93432380D01*
X160353333Y-93813333D01*
X160496190Y-93813333D01*
X160591428Y-93860952D01*
X160639047Y-93908571D01*
X160686666Y-94003809D01*
X160686666Y-94241904D01*
X160639047Y-94337142D01*
X160591428Y-94384761D01*
X160496190Y-94432380D01*
X160210476Y-94432380D01*
X160115238Y-94384761D01*
X160067619Y-94337142D01*
%TO.C,J4*%
X169846666Y-93432380D02*
X169846666Y-94146666D01*
X169799047Y-94289523D01*
X169703809Y-94384761D01*
X169560952Y-94432380D01*
X169465714Y-94432380D01*
X170751428Y-93765714D02*
X170751428Y-94432380D01*
X170513333Y-93384761D02*
X170275238Y-94099047D01*
X170894285Y-94099047D01*
%TO.C,J5*%
X180006666Y-93432380D02*
X180006666Y-94146666D01*
X179959047Y-94289523D01*
X179863809Y-94384761D01*
X179720952Y-94432380D01*
X179625714Y-94432380D01*
X180959047Y-93432380D02*
X180482857Y-93432380D01*
X180435238Y-93908571D01*
X180482857Y-93860952D01*
X180578095Y-93813333D01*
X180816190Y-93813333D01*
X180911428Y-93860952D01*
X180959047Y-93908571D01*
X181006666Y-94003809D01*
X181006666Y-94241904D01*
X180959047Y-94337142D01*
X180911428Y-94384761D01*
X180816190Y-94432380D01*
X180578095Y-94432380D01*
X180482857Y-94384761D01*
X180435238Y-94337142D01*
%TO.C,R1*%
X148423333Y-107132380D02*
X148090000Y-106656190D01*
X147851904Y-107132380D02*
X147851904Y-106132380D01*
X148232857Y-106132380D01*
X148328095Y-106180000D01*
X148375714Y-106227619D01*
X148423333Y-106322857D01*
X148423333Y-106465714D01*
X148375714Y-106560952D01*
X148328095Y-106608571D01*
X148232857Y-106656190D01*
X147851904Y-106656190D01*
X149375714Y-107132380D02*
X148804285Y-107132380D01*
X149090000Y-107132380D02*
X149090000Y-106132380D01*
X148994761Y-106275238D01*
X148899523Y-106370476D01*
X148804285Y-106418095D01*
%TO.C,U1*%
X164338095Y-113752380D02*
X164338095Y-114561904D01*
X164385714Y-114657142D01*
X164433333Y-114704761D01*
X164528571Y-114752380D01*
X164719047Y-114752380D01*
X164814285Y-114704761D01*
X164861904Y-114657142D01*
X164909523Y-114561904D01*
X164909523Y-113752380D01*
X165909523Y-114752380D02*
X165338095Y-114752380D01*
X165623809Y-114752380D02*
X165623809Y-113752380D01*
X165528571Y-113895238D01*
X165433333Y-113990476D01*
X165338095Y-114038095D01*
%TO.C,U2*%
X155448095Y-98722380D02*
X155448095Y-99531904D01*
X155495714Y-99627142D01*
X155543333Y-99674761D01*
X155638571Y-99722380D01*
X155829047Y-99722380D01*
X155924285Y-99674761D01*
X155971904Y-99627142D01*
X156019523Y-99531904D01*
X156019523Y-98722380D01*
X156448095Y-98817619D02*
X156495714Y-98770000D01*
X156590952Y-98722380D01*
X156829047Y-98722380D01*
X156924285Y-98770000D01*
X156971904Y-98817619D01*
X157019523Y-98912857D01*
X157019523Y-99008095D01*
X156971904Y-99150952D01*
X156400476Y-99722380D01*
X157019523Y-99722380D01*
%TO.C,U3*%
X166878095Y-98722380D02*
X166878095Y-99531904D01*
X166925714Y-99627142D01*
X166973333Y-99674761D01*
X167068571Y-99722380D01*
X167259047Y-99722380D01*
X167354285Y-99674761D01*
X167401904Y-99627142D01*
X167449523Y-99531904D01*
X167449523Y-98722380D01*
X167830476Y-98722380D02*
X168449523Y-98722380D01*
X168116190Y-99103333D01*
X168259047Y-99103333D01*
X168354285Y-99150952D01*
X168401904Y-99198571D01*
X168449523Y-99293809D01*
X168449523Y-99531904D01*
X168401904Y-99627142D01*
X168354285Y-99674761D01*
X168259047Y-99722380D01*
X167973333Y-99722380D01*
X167878095Y-99674761D01*
X167830476Y-99627142D01*
%TO.C,U4*%
X178308095Y-98722380D02*
X178308095Y-99531904D01*
X178355714Y-99627142D01*
X178403333Y-99674761D01*
X178498571Y-99722380D01*
X178689047Y-99722380D01*
X178784285Y-99674761D01*
X178831904Y-99627142D01*
X178879523Y-99531904D01*
X178879523Y-98722380D01*
X179784285Y-99055714D02*
X179784285Y-99722380D01*
X179546190Y-98674761D02*
X179308095Y-99389047D01*
X179927142Y-99389047D01*
%TD*%
M02*
