M48
;DRILL file {KiCad 4.0.7} date Tuesday, March 20, 2018 'PMt' 01:52:52 PM
;FORMAT={-:-/ absolute / metric / decimal}
FMAT,2
METRIC,TZ
T1C0.800
T2C1.000
T3C1.200
T4C1.520
T5C2.499
T6C3.048
%
G90
G05
M71
T1
X140.97Y-107.95
X143.51Y-105.41
X143.51Y-110.49
X148.59Y-107.95
X151.13Y-105.41
X151.13Y-110.49
T2
X120.65Y-110.49
X120.65Y-113.03
X120.65Y-115.57
X165.1Y-110.49
X165.1Y-113.03
X165.1Y-115.57
T3
X128.27Y-116.205
X134.62Y-95.25
X134.62Y-110.49
X143.51Y-116.205
X143.51Y-123.825
X157.48Y-95.25
X157.48Y-110.49
X158.75Y-123.825
T4
X140.97Y-96.52
X146.05Y-96.52
X151.13Y-96.52
T5
X124.46Y-100.33
X124.46Y-125.73
X168.91Y-100.33
X168.91Y-125.73
T6
X115.57Y-92.71
X115.57Y-133.35
X177.8Y-92.71
X177.8Y-133.35
T0
M30
