G04 #@! TF.FileFunction,Copper,L1,Top,Signal*
%FSLAX46Y46*%
G04 Gerber Fmt 4.6, Leading zero omitted, Abs format (unit mm)*
G04 Created by KiCad (PCBNEW 4.0.7) date Tuesday, March 20, 2018 'PMt' 01:52:30 PM*
%MOMM*%
%LPD*%
G01*
G04 APERTURE LIST*
%ADD10C,0.100000*%
%ADD11C,5.999480*%
%ADD12C,1.440000*%
%ADD13R,3.000000X3.000000*%
%ADD14C,3.000000*%
%ADD15R,1.800000X1.800000*%
%ADD16O,1.800000X1.800000*%
%ADD17C,2.400000*%
%ADD18O,2.400000X2.400000*%
%ADD19C,4.064000*%
%ADD20C,0.500000*%
G04 APERTURE END LIST*
D10*
D11*
X124460000Y-100330000D03*
X124460000Y-125730000D03*
D12*
X151130000Y-105410000D03*
X148590000Y-107950000D03*
X151130000Y-110490000D03*
D13*
X140970000Y-96520000D03*
D14*
X146050000Y-96520000D03*
X151130000Y-96520000D03*
D15*
X120650000Y-110490000D03*
D16*
X120650000Y-113030000D03*
X120650000Y-115570000D03*
D15*
X165100000Y-110490000D03*
D16*
X165100000Y-113030000D03*
X165100000Y-115570000D03*
D17*
X134620000Y-110490000D03*
D18*
X134620000Y-95250000D03*
D17*
X128270000Y-116205000D03*
D18*
X143510000Y-116205000D03*
D17*
X157480000Y-95250000D03*
D18*
X157480000Y-110490000D03*
D17*
X158750000Y-123825000D03*
D18*
X143510000Y-123825000D03*
D12*
X143510000Y-105410000D03*
X140970000Y-107950000D03*
X143510000Y-110490000D03*
D19*
X177800000Y-92710000D03*
X115570000Y-92710000D03*
X177800000Y-133350000D03*
X115570000Y-133350000D03*
D11*
X168910000Y-100330000D03*
X168910000Y-125730000D03*
D20*
X151130000Y-105410000D02*
X152400000Y-105410000D01*
X152400000Y-105410000D02*
X157480000Y-110490000D01*
X148590000Y-107950000D02*
X151130000Y-105410000D01*
X140970000Y-107950000D02*
X148590000Y-107950000D01*
X143510000Y-105410000D02*
X140970000Y-107950000D01*
X143510000Y-105410000D02*
X143510000Y-102870000D01*
X146050000Y-100330000D02*
X146050000Y-96520000D01*
X143510000Y-102870000D02*
X146050000Y-100330000D01*
X134620000Y-95250000D02*
X137160000Y-92710000D01*
X143510000Y-92710000D02*
X146050000Y-95250000D01*
X137160000Y-92710000D02*
X143510000Y-92710000D01*
X146050000Y-95250000D02*
X146050000Y-96520000D01*
X143510000Y-110490000D02*
X143510000Y-116205000D01*
X143510000Y-123825000D02*
X143510000Y-123190000D01*
X143510000Y-123190000D02*
X151130000Y-115570000D01*
X151130000Y-115570000D02*
X151130000Y-110490000D01*
M02*
