G04 #@! TF.GenerationSoftware,KiCad,Pcbnew,(5.1.4-0-10_14)*
G04 #@! TF.CreationDate,2019-09-24T17:45:29-07:00*
G04 #@! TF.ProjectId,CCS_Tail_x2,4343535f-5461-4696-9c5f-78322e6b6963,3.0*
G04 #@! TF.SameCoordinates,Original*
G04 #@! TF.FileFunction,Copper,L1,Top*
G04 #@! TF.FilePolarity,Positive*
%FSLAX46Y46*%
G04 Gerber Fmt 4.6, Leading zero omitted, Abs format (unit mm)*
G04 Created by KiCad (PCBNEW (5.1.4-0-10_14)) date 2019-09-24 17:45:29*
%MOMM*%
%LPD*%
G04 APERTURE LIST*
%ADD10R,3.000000X3.000000*%
%ADD11C,3.000000*%
%ADD12C,5.600000*%
%ADD13C,1.750000*%
%ADD14C,5.999480*%
%ADD15R,1.800000X1.800000*%
%ADD16O,1.800000X1.800000*%
%ADD17C,2.400000*%
%ADD18O,2.400000X2.400000*%
%ADD19C,0.500000*%
G04 APERTURE END LIST*
D10*
X141605000Y-93980000D03*
D11*
X146685000Y-93980000D03*
X151765000Y-93980000D03*
D12*
X116840000Y-129540000D03*
X176530000Y-129540000D03*
X176530000Y-93980000D03*
X116840000Y-93980000D03*
D13*
X146050000Y-104140000D03*
X148590000Y-106680000D03*
X146050000Y-109220000D03*
X146050000Y-116840000D03*
X148590000Y-119380000D03*
X146050000Y-121920000D03*
D14*
X127000000Y-101600000D03*
X127000000Y-127000000D03*
D15*
X123190000Y-111760000D03*
D16*
X123190000Y-114300000D03*
X123190000Y-116840000D03*
D15*
X162560000Y-111760000D03*
D16*
X162560000Y-114300000D03*
X162560000Y-116840000D03*
D17*
X121920000Y-93345000D03*
D18*
X137160000Y-93345000D03*
D17*
X137160000Y-118110000D03*
D18*
X137160000Y-102870000D03*
D17*
X171450000Y-93345000D03*
D18*
X156210000Y-93345000D03*
D17*
X154940000Y-102870000D03*
D18*
X154940000Y-118110000D03*
D14*
X166370000Y-101600000D03*
X166370000Y-127000000D03*
D19*
X148590000Y-106680000D02*
X146050000Y-109220000D01*
X148590000Y-111760000D02*
X148590000Y-119380000D01*
X146050000Y-109220000D02*
X148590000Y-111760000D01*
X148590000Y-119380000D02*
X146050000Y-121920000D01*
X144684999Y-91979999D02*
X145185001Y-92480001D01*
X145185001Y-92480001D02*
X146685000Y-93980000D01*
X138525001Y-91979999D02*
X144684999Y-91979999D01*
X137160000Y-93345000D02*
X138525001Y-91979999D01*
X155010001Y-92145001D02*
X156210000Y-93345000D01*
X154844999Y-91979999D02*
X155010001Y-92145001D01*
X148685001Y-91979999D02*
X154844999Y-91979999D01*
X146685000Y-93980000D02*
X148685001Y-91979999D01*
X148590000Y-105442564D02*
X148590000Y-106680000D01*
X148590000Y-98006320D02*
X148590000Y-105442564D01*
X146685000Y-96101320D02*
X148590000Y-98006320D01*
X146685000Y-93980000D02*
X146685000Y-96101320D01*
X152629999Y-95479999D02*
X151130000Y-93980000D01*
X156640001Y-108380001D02*
X156640001Y-98855001D01*
X153264999Y-95479999D02*
X151765000Y-93980000D01*
X156640001Y-98855001D02*
X153264999Y-95479999D01*
X162560000Y-114300000D02*
X156640001Y-108380001D01*
X137160000Y-107950000D02*
X146050000Y-116840000D01*
X137160000Y-102870000D02*
X137160000Y-107950000D01*
X154940000Y-109220000D02*
X154940000Y-102870000D01*
X162560000Y-116840000D02*
X154940000Y-109220000D01*
M02*
