M48
;DRILL file {KiCad 4.0.7} date Sunday, September 16, 2018 'AMt' 08:41:31 AM
;FORMAT={-:-/ absolute / metric / decimal}
FMAT,2
METRIC,TZ
T1C0.800
T2C1.520
T3C3.048
%
G90
G05
M71
T1
X137.16Y-86.4
X137.16Y-88.9
X148.59Y-86.4
X148.59Y-88.9
X152.4Y-69.85
X152.4Y-80.01
X157.48Y-69.85
X157.48Y-80.01
X160.02Y-86.4
X160.02Y-88.9
X162.56Y-69.85
X162.56Y-80.01
X167.64Y-69.85
X167.64Y-80.01
X171.45Y-86.4
X171.45Y-88.9
T2
X142.24Y-63.5
X147.32Y-63.5
X152.4Y-63.5
X157.48Y-63.5
X162.56Y-63.5
X167.64Y-63.5
T3
X130.81Y-59.69
X130.81Y-96.52
X177.8Y-59.69
X177.8Y-96.52
T0
M30
