G04 #@! TF.FileFunction,Legend,Top*
%FSLAX46Y46*%
G04 Gerber Fmt 4.6, Leading zero omitted, Abs format (unit mm)*
G04 Created by KiCad (PCBNEW 4.0.7) date Sunday, September 16, 2018 'AMt' 08:41:20 AM*
%MOMM*%
%LPD*%
G01*
G04 APERTURE LIST*
%ADD10C,0.100000*%
%ADD11C,0.300000*%
%ADD12C,0.120000*%
%ADD13C,0.150000*%
G04 APERTURE END LIST*
D10*
D11*
X134732143Y-64461429D02*
X134660714Y-64675715D01*
X134589286Y-64747143D01*
X134446429Y-64818572D01*
X134232143Y-64818572D01*
X134089286Y-64747143D01*
X134017857Y-64675715D01*
X133946429Y-64532857D01*
X133946429Y-63961429D01*
X135446429Y-63961429D01*
X135446429Y-64461429D01*
X135375000Y-64604286D01*
X135303571Y-64675715D01*
X135160714Y-64747143D01*
X135017857Y-64747143D01*
X134875000Y-64675715D01*
X134803571Y-64604286D01*
X134732143Y-64461429D01*
X134732143Y-63961429D01*
X133946429Y-65461429D02*
X134946429Y-65461429D01*
X135446429Y-65461429D02*
X135375000Y-65390000D01*
X135303571Y-65461429D01*
X135375000Y-65532857D01*
X135446429Y-65461429D01*
X135303571Y-65461429D01*
X133946429Y-66818572D02*
X134732143Y-66818572D01*
X134875000Y-66747143D01*
X134946429Y-66604286D01*
X134946429Y-66318572D01*
X134875000Y-66175715D01*
X134017857Y-66818572D02*
X133946429Y-66675715D01*
X133946429Y-66318572D01*
X134017857Y-66175715D01*
X134160714Y-66104286D01*
X134303571Y-66104286D01*
X134446429Y-66175715D01*
X134517857Y-66318572D01*
X134517857Y-66675715D01*
X134589286Y-66818572D01*
X134017857Y-67461429D02*
X133946429Y-67604286D01*
X133946429Y-67890001D01*
X134017857Y-68032858D01*
X134160714Y-68104286D01*
X134232143Y-68104286D01*
X134375000Y-68032858D01*
X134446429Y-67890001D01*
X134446429Y-67675715D01*
X134517857Y-67532858D01*
X134660714Y-67461429D01*
X134732143Y-67461429D01*
X134875000Y-67532858D01*
X134946429Y-67675715D01*
X134946429Y-67890001D01*
X134875000Y-68032858D01*
X135517857Y-70961429D02*
X133589286Y-69675715D01*
X134732143Y-73104287D02*
X134660714Y-73318573D01*
X134589286Y-73390001D01*
X134446429Y-73461430D01*
X134232143Y-73461430D01*
X134089286Y-73390001D01*
X134017857Y-73318573D01*
X133946429Y-73175715D01*
X133946429Y-72604287D01*
X135446429Y-72604287D01*
X135446429Y-73104287D01*
X135375000Y-73247144D01*
X135303571Y-73318573D01*
X135160714Y-73390001D01*
X135017857Y-73390001D01*
X134875000Y-73318573D01*
X134803571Y-73247144D01*
X134732143Y-73104287D01*
X134732143Y-72604287D01*
X133946429Y-74747144D02*
X134732143Y-74747144D01*
X134875000Y-74675715D01*
X134946429Y-74532858D01*
X134946429Y-74247144D01*
X134875000Y-74104287D01*
X134017857Y-74747144D02*
X133946429Y-74604287D01*
X133946429Y-74247144D01*
X134017857Y-74104287D01*
X134160714Y-74032858D01*
X134303571Y-74032858D01*
X134446429Y-74104287D01*
X134517857Y-74247144D01*
X134517857Y-74604287D01*
X134589286Y-74747144D01*
X133946429Y-75675716D02*
X134017857Y-75532858D01*
X134160714Y-75461430D01*
X135446429Y-75461430D01*
X133946429Y-76890001D02*
X134732143Y-76890001D01*
X134875000Y-76818572D01*
X134946429Y-76675715D01*
X134946429Y-76390001D01*
X134875000Y-76247144D01*
X134017857Y-76890001D02*
X133946429Y-76747144D01*
X133946429Y-76390001D01*
X134017857Y-76247144D01*
X134160714Y-76175715D01*
X134303571Y-76175715D01*
X134446429Y-76247144D01*
X134517857Y-76390001D01*
X134517857Y-76747144D01*
X134589286Y-76890001D01*
X134946429Y-77604287D02*
X133946429Y-77604287D01*
X134803571Y-77604287D02*
X134875000Y-77675715D01*
X134946429Y-77818573D01*
X134946429Y-78032858D01*
X134875000Y-78175715D01*
X134732143Y-78247144D01*
X133946429Y-78247144D01*
X134017857Y-79604287D02*
X133946429Y-79461430D01*
X133946429Y-79175716D01*
X134017857Y-79032858D01*
X134089286Y-78961430D01*
X134232143Y-78890001D01*
X134660714Y-78890001D01*
X134803571Y-78961430D01*
X134875000Y-79032858D01*
X134946429Y-79175716D01*
X134946429Y-79461430D01*
X134875000Y-79604287D01*
X134017857Y-80818572D02*
X133946429Y-80675715D01*
X133946429Y-80390001D01*
X134017857Y-80247144D01*
X134160714Y-80175715D01*
X134732143Y-80175715D01*
X134875000Y-80247144D01*
X134946429Y-80390001D01*
X134946429Y-80675715D01*
X134875000Y-80818572D01*
X134732143Y-80890001D01*
X134589286Y-80890001D01*
X134446429Y-80175715D01*
X131396429Y-64175716D02*
X132896429Y-64175716D01*
X132182143Y-64175716D02*
X132182143Y-65032859D01*
X131396429Y-65032859D02*
X132896429Y-65032859D01*
X131467857Y-66318573D02*
X131396429Y-66175716D01*
X131396429Y-65890002D01*
X131467857Y-65747145D01*
X131610714Y-65675716D01*
X132182143Y-65675716D01*
X132325000Y-65747145D01*
X132396429Y-65890002D01*
X132396429Y-66175716D01*
X132325000Y-66318573D01*
X132182143Y-66390002D01*
X132039286Y-66390002D01*
X131896429Y-65675716D01*
X131396429Y-67247145D02*
X131467857Y-67104287D01*
X131610714Y-67032859D01*
X132896429Y-67032859D01*
X132396429Y-67818573D02*
X130896429Y-67818573D01*
X132325000Y-67818573D02*
X132396429Y-67961430D01*
X132396429Y-68247144D01*
X132325000Y-68390001D01*
X132253571Y-68461430D01*
X132110714Y-68532859D01*
X131682143Y-68532859D01*
X131539286Y-68461430D01*
X131467857Y-68390001D01*
X131396429Y-68247144D01*
X131396429Y-67961430D01*
X131467857Y-67818573D01*
X131467857Y-69747144D02*
X131396429Y-69604287D01*
X131396429Y-69318573D01*
X131467857Y-69175716D01*
X131610714Y-69104287D01*
X132182143Y-69104287D01*
X132325000Y-69175716D01*
X132396429Y-69318573D01*
X132396429Y-69604287D01*
X132325000Y-69747144D01*
X132182143Y-69818573D01*
X132039286Y-69818573D01*
X131896429Y-69104287D01*
X131396429Y-70461430D02*
X132396429Y-70461430D01*
X132110714Y-70461430D02*
X132253571Y-70532858D01*
X132325000Y-70604287D01*
X132396429Y-70747144D01*
X132396429Y-70890001D01*
X131396429Y-72532858D02*
X132396429Y-72532858D01*
X132110714Y-72532858D02*
X132253571Y-72604286D01*
X132325000Y-72675715D01*
X132396429Y-72818572D01*
X132396429Y-72961429D01*
X131467857Y-74032857D02*
X131396429Y-73890000D01*
X131396429Y-73604286D01*
X131467857Y-73461429D01*
X131610714Y-73390000D01*
X132182143Y-73390000D01*
X132325000Y-73461429D01*
X132396429Y-73604286D01*
X132396429Y-73890000D01*
X132325000Y-74032857D01*
X132182143Y-74104286D01*
X132039286Y-74104286D01*
X131896429Y-73390000D01*
X132396429Y-74604286D02*
X131396429Y-74961429D01*
X132396429Y-75318571D01*
X131539286Y-75890000D02*
X131467857Y-75961428D01*
X131396429Y-75890000D01*
X131467857Y-75818571D01*
X131539286Y-75890000D01*
X131396429Y-75890000D01*
X131396429Y-78532857D02*
X131396429Y-77675714D01*
X131396429Y-78104286D02*
X132896429Y-78104286D01*
X132682143Y-77961429D01*
X132539286Y-77818571D01*
X132467857Y-77675714D01*
X131539286Y-79175714D02*
X131467857Y-79247142D01*
X131396429Y-79175714D01*
X131467857Y-79104285D01*
X131539286Y-79175714D01*
X131396429Y-79175714D01*
X131396429Y-80675714D02*
X131396429Y-79818571D01*
X131396429Y-80247143D02*
X132896429Y-80247143D01*
X132682143Y-80104286D01*
X132539286Y-79961428D01*
X132467857Y-79818571D01*
X139634287Y-97770000D02*
X139562859Y-97698571D01*
X139420002Y-97484286D01*
X139348573Y-97341429D01*
X139277144Y-97127143D01*
X139205716Y-96770000D01*
X139205716Y-96484286D01*
X139277144Y-96127143D01*
X139348573Y-95912857D01*
X139420002Y-95770000D01*
X139562859Y-95555714D01*
X139634287Y-95484286D01*
X140848573Y-97127143D02*
X140705716Y-97198571D01*
X140420002Y-97198571D01*
X140277144Y-97127143D01*
X140205716Y-97055714D01*
X140134287Y-96912857D01*
X140134287Y-96484286D01*
X140205716Y-96341429D01*
X140277144Y-96270000D01*
X140420002Y-96198571D01*
X140705716Y-96198571D01*
X140848573Y-96270000D01*
X141348573Y-97770000D02*
X141420001Y-97698571D01*
X141562858Y-97484286D01*
X141634287Y-97341429D01*
X141705716Y-97127143D01*
X141777144Y-96770000D01*
X141777144Y-96484286D01*
X141705716Y-96127143D01*
X141634287Y-95912857D01*
X141562858Y-95770000D01*
X141420001Y-95555714D01*
X141348573Y-95484286D01*
X143562858Y-95841429D02*
X143634287Y-95770000D01*
X143777144Y-95698571D01*
X144134287Y-95698571D01*
X144277144Y-95770000D01*
X144348573Y-95841429D01*
X144420001Y-95984286D01*
X144420001Y-96127143D01*
X144348573Y-96341429D01*
X143491430Y-97198571D01*
X144420001Y-97198571D01*
X145348572Y-95698571D02*
X145491429Y-95698571D01*
X145634286Y-95770000D01*
X145705715Y-95841429D01*
X145777144Y-95984286D01*
X145848572Y-96270000D01*
X145848572Y-96627143D01*
X145777144Y-96912857D01*
X145705715Y-97055714D01*
X145634286Y-97127143D01*
X145491429Y-97198571D01*
X145348572Y-97198571D01*
X145205715Y-97127143D01*
X145134286Y-97055714D01*
X145062858Y-96912857D01*
X144991429Y-96627143D01*
X144991429Y-96270000D01*
X145062858Y-95984286D01*
X145134286Y-95841429D01*
X145205715Y-95770000D01*
X145348572Y-95698571D01*
X147277143Y-97198571D02*
X146420000Y-97198571D01*
X146848572Y-97198571D02*
X146848572Y-95698571D01*
X146705715Y-95912857D01*
X146562857Y-96055714D01*
X146420000Y-96127143D01*
X147777143Y-95698571D02*
X148777143Y-95698571D01*
X148134286Y-97198571D01*
X150919999Y-95698571D02*
X150919999Y-96770000D01*
X150848571Y-96984286D01*
X150705714Y-97127143D01*
X150491428Y-97198571D01*
X150348571Y-97198571D01*
X152277142Y-97198571D02*
X152277142Y-96412857D01*
X152205713Y-96270000D01*
X152062856Y-96198571D01*
X151777142Y-96198571D01*
X151634285Y-96270000D01*
X152277142Y-97127143D02*
X152134285Y-97198571D01*
X151777142Y-97198571D01*
X151634285Y-97127143D01*
X151562856Y-96984286D01*
X151562856Y-96841429D01*
X151634285Y-96698571D01*
X151777142Y-96627143D01*
X152134285Y-96627143D01*
X152277142Y-96555714D01*
X152919999Y-97127143D02*
X153062856Y-97198571D01*
X153348571Y-97198571D01*
X153491428Y-97127143D01*
X153562856Y-96984286D01*
X153562856Y-96912857D01*
X153491428Y-96770000D01*
X153348571Y-96698571D01*
X153134285Y-96698571D01*
X152991428Y-96627143D01*
X152919999Y-96484286D01*
X152919999Y-96412857D01*
X152991428Y-96270000D01*
X153134285Y-96198571D01*
X153348571Y-96198571D01*
X153491428Y-96270000D01*
X154420000Y-97198571D02*
X154277142Y-97127143D01*
X154205714Y-97055714D01*
X154134285Y-96912857D01*
X154134285Y-96484286D01*
X154205714Y-96341429D01*
X154277142Y-96270000D01*
X154420000Y-96198571D01*
X154634285Y-96198571D01*
X154777142Y-96270000D01*
X154848571Y-96341429D01*
X154920000Y-96484286D01*
X154920000Y-96912857D01*
X154848571Y-97055714D01*
X154777142Y-97127143D01*
X154634285Y-97198571D01*
X154420000Y-97198571D01*
X155562857Y-96198571D02*
X155562857Y-97198571D01*
X155562857Y-96341429D02*
X155634285Y-96270000D01*
X155777143Y-96198571D01*
X155991428Y-96198571D01*
X156134285Y-96270000D01*
X156205714Y-96412857D01*
X156205714Y-97198571D01*
X158920000Y-97198571D02*
X158420000Y-96484286D01*
X158062857Y-97198571D02*
X158062857Y-95698571D01*
X158634285Y-95698571D01*
X158777143Y-95770000D01*
X158848571Y-95841429D01*
X158920000Y-95984286D01*
X158920000Y-96198571D01*
X158848571Y-96341429D01*
X158777143Y-96412857D01*
X158634285Y-96484286D01*
X158062857Y-96484286D01*
X159562857Y-97055714D02*
X159634285Y-97127143D01*
X159562857Y-97198571D01*
X159491428Y-97127143D01*
X159562857Y-97055714D01*
X159562857Y-97198571D01*
X161205714Y-95698571D02*
X162062857Y-95698571D01*
X161634286Y-97198571D02*
X161634286Y-95698571D01*
X162562857Y-97198571D02*
X162562857Y-95698571D01*
X163205714Y-97198571D02*
X163205714Y-96412857D01*
X163134285Y-96270000D01*
X162991428Y-96198571D01*
X162777143Y-96198571D01*
X162634285Y-96270000D01*
X162562857Y-96341429D01*
X164134286Y-97198571D02*
X163991428Y-97127143D01*
X163920000Y-97055714D01*
X163848571Y-96912857D01*
X163848571Y-96484286D01*
X163920000Y-96341429D01*
X163991428Y-96270000D01*
X164134286Y-96198571D01*
X164348571Y-96198571D01*
X164491428Y-96270000D01*
X164562857Y-96341429D01*
X164634286Y-96484286D01*
X164634286Y-96912857D01*
X164562857Y-97055714D01*
X164491428Y-97127143D01*
X164348571Y-97198571D01*
X164134286Y-97198571D01*
X165277143Y-97198571D02*
X165277143Y-96198571D01*
X165277143Y-96484286D02*
X165348571Y-96341429D01*
X165420000Y-96270000D01*
X165562857Y-96198571D01*
X165705714Y-96198571D01*
X166205714Y-96198571D02*
X166205714Y-97698571D01*
X166205714Y-96270000D02*
X166348571Y-96198571D01*
X166634285Y-96198571D01*
X166777142Y-96270000D01*
X166848571Y-96341429D01*
X166920000Y-96484286D01*
X166920000Y-96912857D01*
X166848571Y-97055714D01*
X166777142Y-97127143D01*
X166634285Y-97198571D01*
X166348571Y-97198571D01*
X166205714Y-97127143D01*
X168134285Y-97127143D02*
X167991428Y-97198571D01*
X167705714Y-97198571D01*
X167562857Y-97127143D01*
X167491428Y-96984286D01*
X167491428Y-96412857D01*
X167562857Y-96270000D01*
X167705714Y-96198571D01*
X167991428Y-96198571D01*
X168134285Y-96270000D01*
X168205714Y-96412857D01*
X168205714Y-96555714D01*
X167491428Y-96698571D01*
X141097143Y-69100000D02*
X140954286Y-69028571D01*
X140740000Y-69028571D01*
X140525715Y-69100000D01*
X140382857Y-69242857D01*
X140311429Y-69385714D01*
X140240000Y-69671429D01*
X140240000Y-69885714D01*
X140311429Y-70171429D01*
X140382857Y-70314286D01*
X140525715Y-70457143D01*
X140740000Y-70528571D01*
X140882857Y-70528571D01*
X141097143Y-70457143D01*
X141168572Y-70385714D01*
X141168572Y-69885714D01*
X140882857Y-69885714D01*
X141811429Y-70528571D02*
X141811429Y-69028571D01*
X142668572Y-70528571D01*
X142668572Y-69028571D01*
X143382858Y-70528571D02*
X143382858Y-69028571D01*
X143740001Y-69028571D01*
X143954286Y-69100000D01*
X144097144Y-69242857D01*
X144168572Y-69385714D01*
X144240001Y-69671429D01*
X144240001Y-69885714D01*
X144168572Y-70171429D01*
X144097144Y-70314286D01*
X143954286Y-70457143D01*
X143740001Y-70528571D01*
X143382858Y-70528571D01*
X146855715Y-70385714D02*
X146784286Y-70457143D01*
X146570000Y-70528571D01*
X146427143Y-70528571D01*
X146212858Y-70457143D01*
X146070000Y-70314286D01*
X145998572Y-70171429D01*
X145927143Y-69885714D01*
X145927143Y-69671429D01*
X145998572Y-69385714D01*
X146070000Y-69242857D01*
X146212858Y-69100000D01*
X146427143Y-69028571D01*
X146570000Y-69028571D01*
X146784286Y-69100000D01*
X146855715Y-69171429D01*
X147498572Y-69957143D02*
X148641429Y-69957143D01*
D12*
X142250000Y-87650000D02*
G75*
G03X142250000Y-87650000I-5090000J0D01*
G01*
X132110000Y-87650000D02*
X142210000Y-87650000D01*
X132110000Y-87610000D02*
X142210000Y-87610000D01*
X132110000Y-87570000D02*
X142210000Y-87570000D01*
X132111000Y-87530000D02*
X142209000Y-87530000D01*
X132112000Y-87490000D02*
X142208000Y-87490000D01*
X132113000Y-87450000D02*
X142207000Y-87450000D01*
X132115000Y-87410000D02*
X142205000Y-87410000D01*
X132117000Y-87370000D02*
X136180000Y-87370000D01*
X138140000Y-87370000D02*
X142203000Y-87370000D01*
X132120000Y-87330000D02*
X136180000Y-87330000D01*
X138140000Y-87330000D02*
X142200000Y-87330000D01*
X132122000Y-87290000D02*
X136180000Y-87290000D01*
X138140000Y-87290000D02*
X142198000Y-87290000D01*
X132125000Y-87250000D02*
X136180000Y-87250000D01*
X138140000Y-87250000D02*
X142195000Y-87250000D01*
X132129000Y-87210000D02*
X136180000Y-87210000D01*
X138140000Y-87210000D02*
X142191000Y-87210000D01*
X132132000Y-87170000D02*
X136180000Y-87170000D01*
X138140000Y-87170000D02*
X142188000Y-87170000D01*
X132136000Y-87130000D02*
X136180000Y-87130000D01*
X138140000Y-87130000D02*
X142184000Y-87130000D01*
X132140000Y-87090000D02*
X136180000Y-87090000D01*
X138140000Y-87090000D02*
X142180000Y-87090000D01*
X132145000Y-87050000D02*
X136180000Y-87050000D01*
X138140000Y-87050000D02*
X142175000Y-87050000D01*
X132150000Y-87010000D02*
X136180000Y-87010000D01*
X138140000Y-87010000D02*
X142170000Y-87010000D01*
X132155000Y-86970000D02*
X136180000Y-86970000D01*
X138140000Y-86970000D02*
X142165000Y-86970000D01*
X132161000Y-86929000D02*
X136180000Y-86929000D01*
X138140000Y-86929000D02*
X142159000Y-86929000D01*
X132167000Y-86889000D02*
X136180000Y-86889000D01*
X138140000Y-86889000D02*
X142153000Y-86889000D01*
X132173000Y-86849000D02*
X136180000Y-86849000D01*
X138140000Y-86849000D02*
X142147000Y-86849000D01*
X132179000Y-86809000D02*
X136180000Y-86809000D01*
X138140000Y-86809000D02*
X142141000Y-86809000D01*
X132186000Y-86769000D02*
X136180000Y-86769000D01*
X138140000Y-86769000D02*
X142134000Y-86769000D01*
X132193000Y-86729000D02*
X136180000Y-86729000D01*
X138140000Y-86729000D02*
X142127000Y-86729000D01*
X132201000Y-86689000D02*
X136180000Y-86689000D01*
X138140000Y-86689000D02*
X142119000Y-86689000D01*
X132209000Y-86649000D02*
X136180000Y-86649000D01*
X138140000Y-86649000D02*
X142111000Y-86649000D01*
X132217000Y-86609000D02*
X136180000Y-86609000D01*
X138140000Y-86609000D02*
X142103000Y-86609000D01*
X132225000Y-86569000D02*
X136180000Y-86569000D01*
X138140000Y-86569000D02*
X142095000Y-86569000D01*
X132234000Y-86529000D02*
X136180000Y-86529000D01*
X138140000Y-86529000D02*
X142086000Y-86529000D01*
X132243000Y-86489000D02*
X136180000Y-86489000D01*
X138140000Y-86489000D02*
X142077000Y-86489000D01*
X132253000Y-86449000D02*
X136180000Y-86449000D01*
X138140000Y-86449000D02*
X142067000Y-86449000D01*
X132263000Y-86409000D02*
X136180000Y-86409000D01*
X138140000Y-86409000D02*
X142057000Y-86409000D01*
X132273000Y-86369000D02*
X136180000Y-86369000D01*
X138140000Y-86369000D02*
X142047000Y-86369000D01*
X132284000Y-86329000D02*
X136180000Y-86329000D01*
X138140000Y-86329000D02*
X142036000Y-86329000D01*
X132295000Y-86289000D02*
X136180000Y-86289000D01*
X138140000Y-86289000D02*
X142025000Y-86289000D01*
X132306000Y-86249000D02*
X136180000Y-86249000D01*
X138140000Y-86249000D02*
X142014000Y-86249000D01*
X132317000Y-86209000D02*
X136180000Y-86209000D01*
X138140000Y-86209000D02*
X142003000Y-86209000D01*
X132329000Y-86169000D02*
X136180000Y-86169000D01*
X138140000Y-86169000D02*
X141991000Y-86169000D01*
X132342000Y-86129000D02*
X136180000Y-86129000D01*
X138140000Y-86129000D02*
X141978000Y-86129000D01*
X132354000Y-86089000D02*
X136180000Y-86089000D01*
X138140000Y-86089000D02*
X141966000Y-86089000D01*
X132368000Y-86049000D02*
X136180000Y-86049000D01*
X138140000Y-86049000D02*
X141952000Y-86049000D01*
X132381000Y-86009000D02*
X136180000Y-86009000D01*
X138140000Y-86009000D02*
X141939000Y-86009000D01*
X132395000Y-85969000D02*
X136180000Y-85969000D01*
X138140000Y-85969000D02*
X141925000Y-85969000D01*
X132409000Y-85929000D02*
X136180000Y-85929000D01*
X138140000Y-85929000D02*
X141911000Y-85929000D01*
X132423000Y-85889000D02*
X136180000Y-85889000D01*
X138140000Y-85889000D02*
X141897000Y-85889000D01*
X132438000Y-85849000D02*
X136180000Y-85849000D01*
X138140000Y-85849000D02*
X141882000Y-85849000D01*
X132454000Y-85809000D02*
X136180000Y-85809000D01*
X138140000Y-85809000D02*
X141866000Y-85809000D01*
X132469000Y-85769000D02*
X136180000Y-85769000D01*
X138140000Y-85769000D02*
X141851000Y-85769000D01*
X132486000Y-85729000D02*
X136180000Y-85729000D01*
X138140000Y-85729000D02*
X141834000Y-85729000D01*
X132502000Y-85689000D02*
X136180000Y-85689000D01*
X138140000Y-85689000D02*
X141818000Y-85689000D01*
X132519000Y-85649000D02*
X136180000Y-85649000D01*
X138140000Y-85649000D02*
X141801000Y-85649000D01*
X132536000Y-85609000D02*
X136180000Y-85609000D01*
X138140000Y-85609000D02*
X141784000Y-85609000D01*
X132554000Y-85569000D02*
X136180000Y-85569000D01*
X138140000Y-85569000D02*
X141766000Y-85569000D01*
X132572000Y-85529000D02*
X136180000Y-85529000D01*
X138140000Y-85529000D02*
X141748000Y-85529000D01*
X132591000Y-85489000D02*
X136180000Y-85489000D01*
X138140000Y-85489000D02*
X141729000Y-85489000D01*
X132610000Y-85449000D02*
X136180000Y-85449000D01*
X138140000Y-85449000D02*
X141710000Y-85449000D01*
X132629000Y-85409000D02*
X141691000Y-85409000D01*
X132649000Y-85369000D02*
X141671000Y-85369000D01*
X132669000Y-85329000D02*
X141651000Y-85329000D01*
X132690000Y-85289000D02*
X141630000Y-85289000D01*
X132711000Y-85249000D02*
X141609000Y-85249000D01*
X132732000Y-85209000D02*
X141588000Y-85209000D01*
X132755000Y-85169000D02*
X141565000Y-85169000D01*
X132777000Y-85129000D02*
X141543000Y-85129000D01*
X132800000Y-85089000D02*
X141520000Y-85089000D01*
X132824000Y-85049000D02*
X141496000Y-85049000D01*
X132848000Y-85009000D02*
X141472000Y-85009000D01*
X132872000Y-84969000D02*
X141448000Y-84969000D01*
X132897000Y-84929000D02*
X141423000Y-84929000D01*
X132923000Y-84889000D02*
X141397000Y-84889000D01*
X132949000Y-84849000D02*
X141371000Y-84849000D01*
X132975000Y-84809000D02*
X141345000Y-84809000D01*
X133003000Y-84769000D02*
X141317000Y-84769000D01*
X133030000Y-84729000D02*
X141290000Y-84729000D01*
X133059000Y-84689000D02*
X141261000Y-84689000D01*
X133088000Y-84649000D02*
X141232000Y-84649000D01*
X133117000Y-84609000D02*
X141203000Y-84609000D01*
X133147000Y-84569000D02*
X141173000Y-84569000D01*
X133178000Y-84529000D02*
X141142000Y-84529000D01*
X133209000Y-84489000D02*
X141111000Y-84489000D01*
X133241000Y-84449000D02*
X141079000Y-84449000D01*
X133274000Y-84409000D02*
X141046000Y-84409000D01*
X133307000Y-84369000D02*
X141013000Y-84369000D01*
X133341000Y-84329000D02*
X140979000Y-84329000D01*
X133376000Y-84289000D02*
X140944000Y-84289000D01*
X133412000Y-84249000D02*
X140908000Y-84249000D01*
X133448000Y-84209000D02*
X140872000Y-84209000D01*
X133485000Y-84169000D02*
X140835000Y-84169000D01*
X133523000Y-84129000D02*
X140797000Y-84129000D01*
X133562000Y-84089000D02*
X140758000Y-84089000D01*
X133601000Y-84049000D02*
X140719000Y-84049000D01*
X133642000Y-84009000D02*
X140678000Y-84009000D01*
X133683000Y-83969000D02*
X140637000Y-83969000D01*
X133725000Y-83929000D02*
X140595000Y-83929000D01*
X133769000Y-83889000D02*
X140551000Y-83889000D01*
X133813000Y-83849000D02*
X140507000Y-83849000D01*
X133858000Y-83809000D02*
X140462000Y-83809000D01*
X133905000Y-83769000D02*
X140415000Y-83769000D01*
X133953000Y-83729000D02*
X140367000Y-83729000D01*
X134002000Y-83689000D02*
X140318000Y-83689000D01*
X134052000Y-83649000D02*
X140268000Y-83649000D01*
X134103000Y-83609000D02*
X140217000Y-83609000D01*
X134156000Y-83569000D02*
X140164000Y-83569000D01*
X134211000Y-83529000D02*
X140109000Y-83529000D01*
X134266000Y-83489000D02*
X140054000Y-83489000D01*
X134324000Y-83449000D02*
X139996000Y-83449000D01*
X134383000Y-83409000D02*
X139937000Y-83409000D01*
X134445000Y-83369000D02*
X139875000Y-83369000D01*
X134508000Y-83329000D02*
X139812000Y-83329000D01*
X134573000Y-83289000D02*
X139747000Y-83289000D01*
X134641000Y-83249000D02*
X139679000Y-83249000D01*
X134711000Y-83209000D02*
X139609000Y-83209000D01*
X134783000Y-83169000D02*
X139537000Y-83169000D01*
X134859000Y-83129000D02*
X139461000Y-83129000D01*
X134938000Y-83089000D02*
X139382000Y-83089000D01*
X135020000Y-83049000D02*
X139300000Y-83049000D01*
X135107000Y-83009000D02*
X139213000Y-83009000D01*
X135198000Y-82969000D02*
X139122000Y-82969000D01*
X135294000Y-82929000D02*
X139026000Y-82929000D01*
X135397000Y-82889000D02*
X138923000Y-82889000D01*
X135506000Y-82849000D02*
X138814000Y-82849000D01*
X135624000Y-82809000D02*
X138696000Y-82809000D01*
X135753000Y-82769000D02*
X138567000Y-82769000D01*
X135895000Y-82729000D02*
X138425000Y-82729000D01*
X136056000Y-82689000D02*
X138264000Y-82689000D01*
X136247000Y-82649000D02*
X138073000Y-82649000D01*
X136488000Y-82609000D02*
X137832000Y-82609000D01*
X136881000Y-82569000D02*
X137439000Y-82569000D01*
X137160000Y-91100000D02*
X137160000Y-89900000D01*
X136510000Y-90500000D02*
X137810000Y-90500000D01*
X153680000Y-87650000D02*
G75*
G03X153680000Y-87650000I-5090000J0D01*
G01*
X143540000Y-87650000D02*
X153640000Y-87650000D01*
X143540000Y-87610000D02*
X153640000Y-87610000D01*
X143540000Y-87570000D02*
X153640000Y-87570000D01*
X143541000Y-87530000D02*
X153639000Y-87530000D01*
X143542000Y-87490000D02*
X153638000Y-87490000D01*
X143543000Y-87450000D02*
X153637000Y-87450000D01*
X143545000Y-87410000D02*
X153635000Y-87410000D01*
X143547000Y-87370000D02*
X147610000Y-87370000D01*
X149570000Y-87370000D02*
X153633000Y-87370000D01*
X143550000Y-87330000D02*
X147610000Y-87330000D01*
X149570000Y-87330000D02*
X153630000Y-87330000D01*
X143552000Y-87290000D02*
X147610000Y-87290000D01*
X149570000Y-87290000D02*
X153628000Y-87290000D01*
X143555000Y-87250000D02*
X147610000Y-87250000D01*
X149570000Y-87250000D02*
X153625000Y-87250000D01*
X143559000Y-87210000D02*
X147610000Y-87210000D01*
X149570000Y-87210000D02*
X153621000Y-87210000D01*
X143562000Y-87170000D02*
X147610000Y-87170000D01*
X149570000Y-87170000D02*
X153618000Y-87170000D01*
X143566000Y-87130000D02*
X147610000Y-87130000D01*
X149570000Y-87130000D02*
X153614000Y-87130000D01*
X143570000Y-87090000D02*
X147610000Y-87090000D01*
X149570000Y-87090000D02*
X153610000Y-87090000D01*
X143575000Y-87050000D02*
X147610000Y-87050000D01*
X149570000Y-87050000D02*
X153605000Y-87050000D01*
X143580000Y-87010000D02*
X147610000Y-87010000D01*
X149570000Y-87010000D02*
X153600000Y-87010000D01*
X143585000Y-86970000D02*
X147610000Y-86970000D01*
X149570000Y-86970000D02*
X153595000Y-86970000D01*
X143591000Y-86929000D02*
X147610000Y-86929000D01*
X149570000Y-86929000D02*
X153589000Y-86929000D01*
X143597000Y-86889000D02*
X147610000Y-86889000D01*
X149570000Y-86889000D02*
X153583000Y-86889000D01*
X143603000Y-86849000D02*
X147610000Y-86849000D01*
X149570000Y-86849000D02*
X153577000Y-86849000D01*
X143609000Y-86809000D02*
X147610000Y-86809000D01*
X149570000Y-86809000D02*
X153571000Y-86809000D01*
X143616000Y-86769000D02*
X147610000Y-86769000D01*
X149570000Y-86769000D02*
X153564000Y-86769000D01*
X143623000Y-86729000D02*
X147610000Y-86729000D01*
X149570000Y-86729000D02*
X153557000Y-86729000D01*
X143631000Y-86689000D02*
X147610000Y-86689000D01*
X149570000Y-86689000D02*
X153549000Y-86689000D01*
X143639000Y-86649000D02*
X147610000Y-86649000D01*
X149570000Y-86649000D02*
X153541000Y-86649000D01*
X143647000Y-86609000D02*
X147610000Y-86609000D01*
X149570000Y-86609000D02*
X153533000Y-86609000D01*
X143655000Y-86569000D02*
X147610000Y-86569000D01*
X149570000Y-86569000D02*
X153525000Y-86569000D01*
X143664000Y-86529000D02*
X147610000Y-86529000D01*
X149570000Y-86529000D02*
X153516000Y-86529000D01*
X143673000Y-86489000D02*
X147610000Y-86489000D01*
X149570000Y-86489000D02*
X153507000Y-86489000D01*
X143683000Y-86449000D02*
X147610000Y-86449000D01*
X149570000Y-86449000D02*
X153497000Y-86449000D01*
X143693000Y-86409000D02*
X147610000Y-86409000D01*
X149570000Y-86409000D02*
X153487000Y-86409000D01*
X143703000Y-86369000D02*
X147610000Y-86369000D01*
X149570000Y-86369000D02*
X153477000Y-86369000D01*
X143714000Y-86329000D02*
X147610000Y-86329000D01*
X149570000Y-86329000D02*
X153466000Y-86329000D01*
X143725000Y-86289000D02*
X147610000Y-86289000D01*
X149570000Y-86289000D02*
X153455000Y-86289000D01*
X143736000Y-86249000D02*
X147610000Y-86249000D01*
X149570000Y-86249000D02*
X153444000Y-86249000D01*
X143747000Y-86209000D02*
X147610000Y-86209000D01*
X149570000Y-86209000D02*
X153433000Y-86209000D01*
X143759000Y-86169000D02*
X147610000Y-86169000D01*
X149570000Y-86169000D02*
X153421000Y-86169000D01*
X143772000Y-86129000D02*
X147610000Y-86129000D01*
X149570000Y-86129000D02*
X153408000Y-86129000D01*
X143784000Y-86089000D02*
X147610000Y-86089000D01*
X149570000Y-86089000D02*
X153396000Y-86089000D01*
X143798000Y-86049000D02*
X147610000Y-86049000D01*
X149570000Y-86049000D02*
X153382000Y-86049000D01*
X143811000Y-86009000D02*
X147610000Y-86009000D01*
X149570000Y-86009000D02*
X153369000Y-86009000D01*
X143825000Y-85969000D02*
X147610000Y-85969000D01*
X149570000Y-85969000D02*
X153355000Y-85969000D01*
X143839000Y-85929000D02*
X147610000Y-85929000D01*
X149570000Y-85929000D02*
X153341000Y-85929000D01*
X143853000Y-85889000D02*
X147610000Y-85889000D01*
X149570000Y-85889000D02*
X153327000Y-85889000D01*
X143868000Y-85849000D02*
X147610000Y-85849000D01*
X149570000Y-85849000D02*
X153312000Y-85849000D01*
X143884000Y-85809000D02*
X147610000Y-85809000D01*
X149570000Y-85809000D02*
X153296000Y-85809000D01*
X143899000Y-85769000D02*
X147610000Y-85769000D01*
X149570000Y-85769000D02*
X153281000Y-85769000D01*
X143916000Y-85729000D02*
X147610000Y-85729000D01*
X149570000Y-85729000D02*
X153264000Y-85729000D01*
X143932000Y-85689000D02*
X147610000Y-85689000D01*
X149570000Y-85689000D02*
X153248000Y-85689000D01*
X143949000Y-85649000D02*
X147610000Y-85649000D01*
X149570000Y-85649000D02*
X153231000Y-85649000D01*
X143966000Y-85609000D02*
X147610000Y-85609000D01*
X149570000Y-85609000D02*
X153214000Y-85609000D01*
X143984000Y-85569000D02*
X147610000Y-85569000D01*
X149570000Y-85569000D02*
X153196000Y-85569000D01*
X144002000Y-85529000D02*
X147610000Y-85529000D01*
X149570000Y-85529000D02*
X153178000Y-85529000D01*
X144021000Y-85489000D02*
X147610000Y-85489000D01*
X149570000Y-85489000D02*
X153159000Y-85489000D01*
X144040000Y-85449000D02*
X147610000Y-85449000D01*
X149570000Y-85449000D02*
X153140000Y-85449000D01*
X144059000Y-85409000D02*
X153121000Y-85409000D01*
X144079000Y-85369000D02*
X153101000Y-85369000D01*
X144099000Y-85329000D02*
X153081000Y-85329000D01*
X144120000Y-85289000D02*
X153060000Y-85289000D01*
X144141000Y-85249000D02*
X153039000Y-85249000D01*
X144162000Y-85209000D02*
X153018000Y-85209000D01*
X144185000Y-85169000D02*
X152995000Y-85169000D01*
X144207000Y-85129000D02*
X152973000Y-85129000D01*
X144230000Y-85089000D02*
X152950000Y-85089000D01*
X144254000Y-85049000D02*
X152926000Y-85049000D01*
X144278000Y-85009000D02*
X152902000Y-85009000D01*
X144302000Y-84969000D02*
X152878000Y-84969000D01*
X144327000Y-84929000D02*
X152853000Y-84929000D01*
X144353000Y-84889000D02*
X152827000Y-84889000D01*
X144379000Y-84849000D02*
X152801000Y-84849000D01*
X144405000Y-84809000D02*
X152775000Y-84809000D01*
X144433000Y-84769000D02*
X152747000Y-84769000D01*
X144460000Y-84729000D02*
X152720000Y-84729000D01*
X144489000Y-84689000D02*
X152691000Y-84689000D01*
X144518000Y-84649000D02*
X152662000Y-84649000D01*
X144547000Y-84609000D02*
X152633000Y-84609000D01*
X144577000Y-84569000D02*
X152603000Y-84569000D01*
X144608000Y-84529000D02*
X152572000Y-84529000D01*
X144639000Y-84489000D02*
X152541000Y-84489000D01*
X144671000Y-84449000D02*
X152509000Y-84449000D01*
X144704000Y-84409000D02*
X152476000Y-84409000D01*
X144737000Y-84369000D02*
X152443000Y-84369000D01*
X144771000Y-84329000D02*
X152409000Y-84329000D01*
X144806000Y-84289000D02*
X152374000Y-84289000D01*
X144842000Y-84249000D02*
X152338000Y-84249000D01*
X144878000Y-84209000D02*
X152302000Y-84209000D01*
X144915000Y-84169000D02*
X152265000Y-84169000D01*
X144953000Y-84129000D02*
X152227000Y-84129000D01*
X144992000Y-84089000D02*
X152188000Y-84089000D01*
X145031000Y-84049000D02*
X152149000Y-84049000D01*
X145072000Y-84009000D02*
X152108000Y-84009000D01*
X145113000Y-83969000D02*
X152067000Y-83969000D01*
X145155000Y-83929000D02*
X152025000Y-83929000D01*
X145199000Y-83889000D02*
X151981000Y-83889000D01*
X145243000Y-83849000D02*
X151937000Y-83849000D01*
X145288000Y-83809000D02*
X151892000Y-83809000D01*
X145335000Y-83769000D02*
X151845000Y-83769000D01*
X145383000Y-83729000D02*
X151797000Y-83729000D01*
X145432000Y-83689000D02*
X151748000Y-83689000D01*
X145482000Y-83649000D02*
X151698000Y-83649000D01*
X145533000Y-83609000D02*
X151647000Y-83609000D01*
X145586000Y-83569000D02*
X151594000Y-83569000D01*
X145641000Y-83529000D02*
X151539000Y-83529000D01*
X145696000Y-83489000D02*
X151484000Y-83489000D01*
X145754000Y-83449000D02*
X151426000Y-83449000D01*
X145813000Y-83409000D02*
X151367000Y-83409000D01*
X145875000Y-83369000D02*
X151305000Y-83369000D01*
X145938000Y-83329000D02*
X151242000Y-83329000D01*
X146003000Y-83289000D02*
X151177000Y-83289000D01*
X146071000Y-83249000D02*
X151109000Y-83249000D01*
X146141000Y-83209000D02*
X151039000Y-83209000D01*
X146213000Y-83169000D02*
X150967000Y-83169000D01*
X146289000Y-83129000D02*
X150891000Y-83129000D01*
X146368000Y-83089000D02*
X150812000Y-83089000D01*
X146450000Y-83049000D02*
X150730000Y-83049000D01*
X146537000Y-83009000D02*
X150643000Y-83009000D01*
X146628000Y-82969000D02*
X150552000Y-82969000D01*
X146724000Y-82929000D02*
X150456000Y-82929000D01*
X146827000Y-82889000D02*
X150353000Y-82889000D01*
X146936000Y-82849000D02*
X150244000Y-82849000D01*
X147054000Y-82809000D02*
X150126000Y-82809000D01*
X147183000Y-82769000D02*
X149997000Y-82769000D01*
X147325000Y-82729000D02*
X149855000Y-82729000D01*
X147486000Y-82689000D02*
X149694000Y-82689000D01*
X147677000Y-82649000D02*
X149503000Y-82649000D01*
X147918000Y-82609000D02*
X149262000Y-82609000D01*
X148311000Y-82569000D02*
X148869000Y-82569000D01*
X148590000Y-91100000D02*
X148590000Y-89900000D01*
X147940000Y-90500000D02*
X149240000Y-90500000D01*
X165110000Y-87650000D02*
G75*
G03X165110000Y-87650000I-5090000J0D01*
G01*
X154970000Y-87650000D02*
X165070000Y-87650000D01*
X154970000Y-87610000D02*
X165070000Y-87610000D01*
X154970000Y-87570000D02*
X165070000Y-87570000D01*
X154971000Y-87530000D02*
X165069000Y-87530000D01*
X154972000Y-87490000D02*
X165068000Y-87490000D01*
X154973000Y-87450000D02*
X165067000Y-87450000D01*
X154975000Y-87410000D02*
X165065000Y-87410000D01*
X154977000Y-87370000D02*
X159040000Y-87370000D01*
X161000000Y-87370000D02*
X165063000Y-87370000D01*
X154980000Y-87330000D02*
X159040000Y-87330000D01*
X161000000Y-87330000D02*
X165060000Y-87330000D01*
X154982000Y-87290000D02*
X159040000Y-87290000D01*
X161000000Y-87290000D02*
X165058000Y-87290000D01*
X154985000Y-87250000D02*
X159040000Y-87250000D01*
X161000000Y-87250000D02*
X165055000Y-87250000D01*
X154989000Y-87210000D02*
X159040000Y-87210000D01*
X161000000Y-87210000D02*
X165051000Y-87210000D01*
X154992000Y-87170000D02*
X159040000Y-87170000D01*
X161000000Y-87170000D02*
X165048000Y-87170000D01*
X154996000Y-87130000D02*
X159040000Y-87130000D01*
X161000000Y-87130000D02*
X165044000Y-87130000D01*
X155000000Y-87090000D02*
X159040000Y-87090000D01*
X161000000Y-87090000D02*
X165040000Y-87090000D01*
X155005000Y-87050000D02*
X159040000Y-87050000D01*
X161000000Y-87050000D02*
X165035000Y-87050000D01*
X155010000Y-87010000D02*
X159040000Y-87010000D01*
X161000000Y-87010000D02*
X165030000Y-87010000D01*
X155015000Y-86970000D02*
X159040000Y-86970000D01*
X161000000Y-86970000D02*
X165025000Y-86970000D01*
X155021000Y-86929000D02*
X159040000Y-86929000D01*
X161000000Y-86929000D02*
X165019000Y-86929000D01*
X155027000Y-86889000D02*
X159040000Y-86889000D01*
X161000000Y-86889000D02*
X165013000Y-86889000D01*
X155033000Y-86849000D02*
X159040000Y-86849000D01*
X161000000Y-86849000D02*
X165007000Y-86849000D01*
X155039000Y-86809000D02*
X159040000Y-86809000D01*
X161000000Y-86809000D02*
X165001000Y-86809000D01*
X155046000Y-86769000D02*
X159040000Y-86769000D01*
X161000000Y-86769000D02*
X164994000Y-86769000D01*
X155053000Y-86729000D02*
X159040000Y-86729000D01*
X161000000Y-86729000D02*
X164987000Y-86729000D01*
X155061000Y-86689000D02*
X159040000Y-86689000D01*
X161000000Y-86689000D02*
X164979000Y-86689000D01*
X155069000Y-86649000D02*
X159040000Y-86649000D01*
X161000000Y-86649000D02*
X164971000Y-86649000D01*
X155077000Y-86609000D02*
X159040000Y-86609000D01*
X161000000Y-86609000D02*
X164963000Y-86609000D01*
X155085000Y-86569000D02*
X159040000Y-86569000D01*
X161000000Y-86569000D02*
X164955000Y-86569000D01*
X155094000Y-86529000D02*
X159040000Y-86529000D01*
X161000000Y-86529000D02*
X164946000Y-86529000D01*
X155103000Y-86489000D02*
X159040000Y-86489000D01*
X161000000Y-86489000D02*
X164937000Y-86489000D01*
X155113000Y-86449000D02*
X159040000Y-86449000D01*
X161000000Y-86449000D02*
X164927000Y-86449000D01*
X155123000Y-86409000D02*
X159040000Y-86409000D01*
X161000000Y-86409000D02*
X164917000Y-86409000D01*
X155133000Y-86369000D02*
X159040000Y-86369000D01*
X161000000Y-86369000D02*
X164907000Y-86369000D01*
X155144000Y-86329000D02*
X159040000Y-86329000D01*
X161000000Y-86329000D02*
X164896000Y-86329000D01*
X155155000Y-86289000D02*
X159040000Y-86289000D01*
X161000000Y-86289000D02*
X164885000Y-86289000D01*
X155166000Y-86249000D02*
X159040000Y-86249000D01*
X161000000Y-86249000D02*
X164874000Y-86249000D01*
X155177000Y-86209000D02*
X159040000Y-86209000D01*
X161000000Y-86209000D02*
X164863000Y-86209000D01*
X155189000Y-86169000D02*
X159040000Y-86169000D01*
X161000000Y-86169000D02*
X164851000Y-86169000D01*
X155202000Y-86129000D02*
X159040000Y-86129000D01*
X161000000Y-86129000D02*
X164838000Y-86129000D01*
X155214000Y-86089000D02*
X159040000Y-86089000D01*
X161000000Y-86089000D02*
X164826000Y-86089000D01*
X155228000Y-86049000D02*
X159040000Y-86049000D01*
X161000000Y-86049000D02*
X164812000Y-86049000D01*
X155241000Y-86009000D02*
X159040000Y-86009000D01*
X161000000Y-86009000D02*
X164799000Y-86009000D01*
X155255000Y-85969000D02*
X159040000Y-85969000D01*
X161000000Y-85969000D02*
X164785000Y-85969000D01*
X155269000Y-85929000D02*
X159040000Y-85929000D01*
X161000000Y-85929000D02*
X164771000Y-85929000D01*
X155283000Y-85889000D02*
X159040000Y-85889000D01*
X161000000Y-85889000D02*
X164757000Y-85889000D01*
X155298000Y-85849000D02*
X159040000Y-85849000D01*
X161000000Y-85849000D02*
X164742000Y-85849000D01*
X155314000Y-85809000D02*
X159040000Y-85809000D01*
X161000000Y-85809000D02*
X164726000Y-85809000D01*
X155329000Y-85769000D02*
X159040000Y-85769000D01*
X161000000Y-85769000D02*
X164711000Y-85769000D01*
X155346000Y-85729000D02*
X159040000Y-85729000D01*
X161000000Y-85729000D02*
X164694000Y-85729000D01*
X155362000Y-85689000D02*
X159040000Y-85689000D01*
X161000000Y-85689000D02*
X164678000Y-85689000D01*
X155379000Y-85649000D02*
X159040000Y-85649000D01*
X161000000Y-85649000D02*
X164661000Y-85649000D01*
X155396000Y-85609000D02*
X159040000Y-85609000D01*
X161000000Y-85609000D02*
X164644000Y-85609000D01*
X155414000Y-85569000D02*
X159040000Y-85569000D01*
X161000000Y-85569000D02*
X164626000Y-85569000D01*
X155432000Y-85529000D02*
X159040000Y-85529000D01*
X161000000Y-85529000D02*
X164608000Y-85529000D01*
X155451000Y-85489000D02*
X159040000Y-85489000D01*
X161000000Y-85489000D02*
X164589000Y-85489000D01*
X155470000Y-85449000D02*
X159040000Y-85449000D01*
X161000000Y-85449000D02*
X164570000Y-85449000D01*
X155489000Y-85409000D02*
X164551000Y-85409000D01*
X155509000Y-85369000D02*
X164531000Y-85369000D01*
X155529000Y-85329000D02*
X164511000Y-85329000D01*
X155550000Y-85289000D02*
X164490000Y-85289000D01*
X155571000Y-85249000D02*
X164469000Y-85249000D01*
X155592000Y-85209000D02*
X164448000Y-85209000D01*
X155615000Y-85169000D02*
X164425000Y-85169000D01*
X155637000Y-85129000D02*
X164403000Y-85129000D01*
X155660000Y-85089000D02*
X164380000Y-85089000D01*
X155684000Y-85049000D02*
X164356000Y-85049000D01*
X155708000Y-85009000D02*
X164332000Y-85009000D01*
X155732000Y-84969000D02*
X164308000Y-84969000D01*
X155757000Y-84929000D02*
X164283000Y-84929000D01*
X155783000Y-84889000D02*
X164257000Y-84889000D01*
X155809000Y-84849000D02*
X164231000Y-84849000D01*
X155835000Y-84809000D02*
X164205000Y-84809000D01*
X155863000Y-84769000D02*
X164177000Y-84769000D01*
X155890000Y-84729000D02*
X164150000Y-84729000D01*
X155919000Y-84689000D02*
X164121000Y-84689000D01*
X155948000Y-84649000D02*
X164092000Y-84649000D01*
X155977000Y-84609000D02*
X164063000Y-84609000D01*
X156007000Y-84569000D02*
X164033000Y-84569000D01*
X156038000Y-84529000D02*
X164002000Y-84529000D01*
X156069000Y-84489000D02*
X163971000Y-84489000D01*
X156101000Y-84449000D02*
X163939000Y-84449000D01*
X156134000Y-84409000D02*
X163906000Y-84409000D01*
X156167000Y-84369000D02*
X163873000Y-84369000D01*
X156201000Y-84329000D02*
X163839000Y-84329000D01*
X156236000Y-84289000D02*
X163804000Y-84289000D01*
X156272000Y-84249000D02*
X163768000Y-84249000D01*
X156308000Y-84209000D02*
X163732000Y-84209000D01*
X156345000Y-84169000D02*
X163695000Y-84169000D01*
X156383000Y-84129000D02*
X163657000Y-84129000D01*
X156422000Y-84089000D02*
X163618000Y-84089000D01*
X156461000Y-84049000D02*
X163579000Y-84049000D01*
X156502000Y-84009000D02*
X163538000Y-84009000D01*
X156543000Y-83969000D02*
X163497000Y-83969000D01*
X156585000Y-83929000D02*
X163455000Y-83929000D01*
X156629000Y-83889000D02*
X163411000Y-83889000D01*
X156673000Y-83849000D02*
X163367000Y-83849000D01*
X156718000Y-83809000D02*
X163322000Y-83809000D01*
X156765000Y-83769000D02*
X163275000Y-83769000D01*
X156813000Y-83729000D02*
X163227000Y-83729000D01*
X156862000Y-83689000D02*
X163178000Y-83689000D01*
X156912000Y-83649000D02*
X163128000Y-83649000D01*
X156963000Y-83609000D02*
X163077000Y-83609000D01*
X157016000Y-83569000D02*
X163024000Y-83569000D01*
X157071000Y-83529000D02*
X162969000Y-83529000D01*
X157126000Y-83489000D02*
X162914000Y-83489000D01*
X157184000Y-83449000D02*
X162856000Y-83449000D01*
X157243000Y-83409000D02*
X162797000Y-83409000D01*
X157305000Y-83369000D02*
X162735000Y-83369000D01*
X157368000Y-83329000D02*
X162672000Y-83329000D01*
X157433000Y-83289000D02*
X162607000Y-83289000D01*
X157501000Y-83249000D02*
X162539000Y-83249000D01*
X157571000Y-83209000D02*
X162469000Y-83209000D01*
X157643000Y-83169000D02*
X162397000Y-83169000D01*
X157719000Y-83129000D02*
X162321000Y-83129000D01*
X157798000Y-83089000D02*
X162242000Y-83089000D01*
X157880000Y-83049000D02*
X162160000Y-83049000D01*
X157967000Y-83009000D02*
X162073000Y-83009000D01*
X158058000Y-82969000D02*
X161982000Y-82969000D01*
X158154000Y-82929000D02*
X161886000Y-82929000D01*
X158257000Y-82889000D02*
X161783000Y-82889000D01*
X158366000Y-82849000D02*
X161674000Y-82849000D01*
X158484000Y-82809000D02*
X161556000Y-82809000D01*
X158613000Y-82769000D02*
X161427000Y-82769000D01*
X158755000Y-82729000D02*
X161285000Y-82729000D01*
X158916000Y-82689000D02*
X161124000Y-82689000D01*
X159107000Y-82649000D02*
X160933000Y-82649000D01*
X159348000Y-82609000D02*
X160692000Y-82609000D01*
X159741000Y-82569000D02*
X160299000Y-82569000D01*
X160020000Y-91100000D02*
X160020000Y-89900000D01*
X159370000Y-90500000D02*
X160670000Y-90500000D01*
X180086000Y-96520000D02*
G75*
G03X180086000Y-96520000I-2286000J0D01*
G01*
X133096000Y-96520000D02*
G75*
G03X133096000Y-96520000I-2286000J0D01*
G01*
X133096000Y-59690000D02*
G75*
G03X133096000Y-59690000I-2286000J0D01*
G01*
X176540000Y-87650000D02*
G75*
G03X176540000Y-87650000I-5090000J0D01*
G01*
X166400000Y-87650000D02*
X176500000Y-87650000D01*
X166400000Y-87610000D02*
X176500000Y-87610000D01*
X166400000Y-87570000D02*
X176500000Y-87570000D01*
X166401000Y-87530000D02*
X176499000Y-87530000D01*
X166402000Y-87490000D02*
X176498000Y-87490000D01*
X166403000Y-87450000D02*
X176497000Y-87450000D01*
X166405000Y-87410000D02*
X176495000Y-87410000D01*
X166407000Y-87370000D02*
X170470000Y-87370000D01*
X172430000Y-87370000D02*
X176493000Y-87370000D01*
X166410000Y-87330000D02*
X170470000Y-87330000D01*
X172430000Y-87330000D02*
X176490000Y-87330000D01*
X166412000Y-87290000D02*
X170470000Y-87290000D01*
X172430000Y-87290000D02*
X176488000Y-87290000D01*
X166415000Y-87250000D02*
X170470000Y-87250000D01*
X172430000Y-87250000D02*
X176485000Y-87250000D01*
X166419000Y-87210000D02*
X170470000Y-87210000D01*
X172430000Y-87210000D02*
X176481000Y-87210000D01*
X166422000Y-87170000D02*
X170470000Y-87170000D01*
X172430000Y-87170000D02*
X176478000Y-87170000D01*
X166426000Y-87130000D02*
X170470000Y-87130000D01*
X172430000Y-87130000D02*
X176474000Y-87130000D01*
X166430000Y-87090000D02*
X170470000Y-87090000D01*
X172430000Y-87090000D02*
X176470000Y-87090000D01*
X166435000Y-87050000D02*
X170470000Y-87050000D01*
X172430000Y-87050000D02*
X176465000Y-87050000D01*
X166440000Y-87010000D02*
X170470000Y-87010000D01*
X172430000Y-87010000D02*
X176460000Y-87010000D01*
X166445000Y-86970000D02*
X170470000Y-86970000D01*
X172430000Y-86970000D02*
X176455000Y-86970000D01*
X166451000Y-86929000D02*
X170470000Y-86929000D01*
X172430000Y-86929000D02*
X176449000Y-86929000D01*
X166457000Y-86889000D02*
X170470000Y-86889000D01*
X172430000Y-86889000D02*
X176443000Y-86889000D01*
X166463000Y-86849000D02*
X170470000Y-86849000D01*
X172430000Y-86849000D02*
X176437000Y-86849000D01*
X166469000Y-86809000D02*
X170470000Y-86809000D01*
X172430000Y-86809000D02*
X176431000Y-86809000D01*
X166476000Y-86769000D02*
X170470000Y-86769000D01*
X172430000Y-86769000D02*
X176424000Y-86769000D01*
X166483000Y-86729000D02*
X170470000Y-86729000D01*
X172430000Y-86729000D02*
X176417000Y-86729000D01*
X166491000Y-86689000D02*
X170470000Y-86689000D01*
X172430000Y-86689000D02*
X176409000Y-86689000D01*
X166499000Y-86649000D02*
X170470000Y-86649000D01*
X172430000Y-86649000D02*
X176401000Y-86649000D01*
X166507000Y-86609000D02*
X170470000Y-86609000D01*
X172430000Y-86609000D02*
X176393000Y-86609000D01*
X166515000Y-86569000D02*
X170470000Y-86569000D01*
X172430000Y-86569000D02*
X176385000Y-86569000D01*
X166524000Y-86529000D02*
X170470000Y-86529000D01*
X172430000Y-86529000D02*
X176376000Y-86529000D01*
X166533000Y-86489000D02*
X170470000Y-86489000D01*
X172430000Y-86489000D02*
X176367000Y-86489000D01*
X166543000Y-86449000D02*
X170470000Y-86449000D01*
X172430000Y-86449000D02*
X176357000Y-86449000D01*
X166553000Y-86409000D02*
X170470000Y-86409000D01*
X172430000Y-86409000D02*
X176347000Y-86409000D01*
X166563000Y-86369000D02*
X170470000Y-86369000D01*
X172430000Y-86369000D02*
X176337000Y-86369000D01*
X166574000Y-86329000D02*
X170470000Y-86329000D01*
X172430000Y-86329000D02*
X176326000Y-86329000D01*
X166585000Y-86289000D02*
X170470000Y-86289000D01*
X172430000Y-86289000D02*
X176315000Y-86289000D01*
X166596000Y-86249000D02*
X170470000Y-86249000D01*
X172430000Y-86249000D02*
X176304000Y-86249000D01*
X166607000Y-86209000D02*
X170470000Y-86209000D01*
X172430000Y-86209000D02*
X176293000Y-86209000D01*
X166619000Y-86169000D02*
X170470000Y-86169000D01*
X172430000Y-86169000D02*
X176281000Y-86169000D01*
X166632000Y-86129000D02*
X170470000Y-86129000D01*
X172430000Y-86129000D02*
X176268000Y-86129000D01*
X166644000Y-86089000D02*
X170470000Y-86089000D01*
X172430000Y-86089000D02*
X176256000Y-86089000D01*
X166658000Y-86049000D02*
X170470000Y-86049000D01*
X172430000Y-86049000D02*
X176242000Y-86049000D01*
X166671000Y-86009000D02*
X170470000Y-86009000D01*
X172430000Y-86009000D02*
X176229000Y-86009000D01*
X166685000Y-85969000D02*
X170470000Y-85969000D01*
X172430000Y-85969000D02*
X176215000Y-85969000D01*
X166699000Y-85929000D02*
X170470000Y-85929000D01*
X172430000Y-85929000D02*
X176201000Y-85929000D01*
X166713000Y-85889000D02*
X170470000Y-85889000D01*
X172430000Y-85889000D02*
X176187000Y-85889000D01*
X166728000Y-85849000D02*
X170470000Y-85849000D01*
X172430000Y-85849000D02*
X176172000Y-85849000D01*
X166744000Y-85809000D02*
X170470000Y-85809000D01*
X172430000Y-85809000D02*
X176156000Y-85809000D01*
X166759000Y-85769000D02*
X170470000Y-85769000D01*
X172430000Y-85769000D02*
X176141000Y-85769000D01*
X166776000Y-85729000D02*
X170470000Y-85729000D01*
X172430000Y-85729000D02*
X176124000Y-85729000D01*
X166792000Y-85689000D02*
X170470000Y-85689000D01*
X172430000Y-85689000D02*
X176108000Y-85689000D01*
X166809000Y-85649000D02*
X170470000Y-85649000D01*
X172430000Y-85649000D02*
X176091000Y-85649000D01*
X166826000Y-85609000D02*
X170470000Y-85609000D01*
X172430000Y-85609000D02*
X176074000Y-85609000D01*
X166844000Y-85569000D02*
X170470000Y-85569000D01*
X172430000Y-85569000D02*
X176056000Y-85569000D01*
X166862000Y-85529000D02*
X170470000Y-85529000D01*
X172430000Y-85529000D02*
X176038000Y-85529000D01*
X166881000Y-85489000D02*
X170470000Y-85489000D01*
X172430000Y-85489000D02*
X176019000Y-85489000D01*
X166900000Y-85449000D02*
X170470000Y-85449000D01*
X172430000Y-85449000D02*
X176000000Y-85449000D01*
X166919000Y-85409000D02*
X175981000Y-85409000D01*
X166939000Y-85369000D02*
X175961000Y-85369000D01*
X166959000Y-85329000D02*
X175941000Y-85329000D01*
X166980000Y-85289000D02*
X175920000Y-85289000D01*
X167001000Y-85249000D02*
X175899000Y-85249000D01*
X167022000Y-85209000D02*
X175878000Y-85209000D01*
X167045000Y-85169000D02*
X175855000Y-85169000D01*
X167067000Y-85129000D02*
X175833000Y-85129000D01*
X167090000Y-85089000D02*
X175810000Y-85089000D01*
X167114000Y-85049000D02*
X175786000Y-85049000D01*
X167138000Y-85009000D02*
X175762000Y-85009000D01*
X167162000Y-84969000D02*
X175738000Y-84969000D01*
X167187000Y-84929000D02*
X175713000Y-84929000D01*
X167213000Y-84889000D02*
X175687000Y-84889000D01*
X167239000Y-84849000D02*
X175661000Y-84849000D01*
X167265000Y-84809000D02*
X175635000Y-84809000D01*
X167293000Y-84769000D02*
X175607000Y-84769000D01*
X167320000Y-84729000D02*
X175580000Y-84729000D01*
X167349000Y-84689000D02*
X175551000Y-84689000D01*
X167378000Y-84649000D02*
X175522000Y-84649000D01*
X167407000Y-84609000D02*
X175493000Y-84609000D01*
X167437000Y-84569000D02*
X175463000Y-84569000D01*
X167468000Y-84529000D02*
X175432000Y-84529000D01*
X167499000Y-84489000D02*
X175401000Y-84489000D01*
X167531000Y-84449000D02*
X175369000Y-84449000D01*
X167564000Y-84409000D02*
X175336000Y-84409000D01*
X167597000Y-84369000D02*
X175303000Y-84369000D01*
X167631000Y-84329000D02*
X175269000Y-84329000D01*
X167666000Y-84289000D02*
X175234000Y-84289000D01*
X167702000Y-84249000D02*
X175198000Y-84249000D01*
X167738000Y-84209000D02*
X175162000Y-84209000D01*
X167775000Y-84169000D02*
X175125000Y-84169000D01*
X167813000Y-84129000D02*
X175087000Y-84129000D01*
X167852000Y-84089000D02*
X175048000Y-84089000D01*
X167891000Y-84049000D02*
X175009000Y-84049000D01*
X167932000Y-84009000D02*
X174968000Y-84009000D01*
X167973000Y-83969000D02*
X174927000Y-83969000D01*
X168015000Y-83929000D02*
X174885000Y-83929000D01*
X168059000Y-83889000D02*
X174841000Y-83889000D01*
X168103000Y-83849000D02*
X174797000Y-83849000D01*
X168148000Y-83809000D02*
X174752000Y-83809000D01*
X168195000Y-83769000D02*
X174705000Y-83769000D01*
X168243000Y-83729000D02*
X174657000Y-83729000D01*
X168292000Y-83689000D02*
X174608000Y-83689000D01*
X168342000Y-83649000D02*
X174558000Y-83649000D01*
X168393000Y-83609000D02*
X174507000Y-83609000D01*
X168446000Y-83569000D02*
X174454000Y-83569000D01*
X168501000Y-83529000D02*
X174399000Y-83529000D01*
X168556000Y-83489000D02*
X174344000Y-83489000D01*
X168614000Y-83449000D02*
X174286000Y-83449000D01*
X168673000Y-83409000D02*
X174227000Y-83409000D01*
X168735000Y-83369000D02*
X174165000Y-83369000D01*
X168798000Y-83329000D02*
X174102000Y-83329000D01*
X168863000Y-83289000D02*
X174037000Y-83289000D01*
X168931000Y-83249000D02*
X173969000Y-83249000D01*
X169001000Y-83209000D02*
X173899000Y-83209000D01*
X169073000Y-83169000D02*
X173827000Y-83169000D01*
X169149000Y-83129000D02*
X173751000Y-83129000D01*
X169228000Y-83089000D02*
X173672000Y-83089000D01*
X169310000Y-83049000D02*
X173590000Y-83049000D01*
X169397000Y-83009000D02*
X173503000Y-83009000D01*
X169488000Y-82969000D02*
X173412000Y-82969000D01*
X169584000Y-82929000D02*
X173316000Y-82929000D01*
X169687000Y-82889000D02*
X173213000Y-82889000D01*
X169796000Y-82849000D02*
X173104000Y-82849000D01*
X169914000Y-82809000D02*
X172986000Y-82809000D01*
X170043000Y-82769000D02*
X172857000Y-82769000D01*
X170185000Y-82729000D02*
X172715000Y-82729000D01*
X170346000Y-82689000D02*
X172554000Y-82689000D01*
X170537000Y-82649000D02*
X172363000Y-82649000D01*
X170778000Y-82609000D02*
X172122000Y-82609000D01*
X171171000Y-82569000D02*
X171729000Y-82569000D01*
X171450000Y-91100000D02*
X171450000Y-89900000D01*
X170800000Y-90500000D02*
X172100000Y-90500000D01*
X139700000Y-59690000D02*
X139700000Y-67310000D01*
X170180000Y-67310000D02*
X170180000Y-59690000D01*
X139700000Y-66040000D02*
X170180000Y-66040000D01*
X139700000Y-59690000D02*
X170180000Y-59690000D01*
X139700000Y-67310000D02*
X170180000Y-67310000D01*
X151090000Y-78140000D02*
X153710000Y-78140000D01*
X153710000Y-78140000D02*
X153710000Y-71720000D01*
X153710000Y-71720000D02*
X151090000Y-71720000D01*
X151090000Y-71720000D02*
X151090000Y-78140000D01*
X152400000Y-79030000D02*
X152400000Y-78140000D01*
X152400000Y-70830000D02*
X152400000Y-71720000D01*
X156170000Y-78140000D02*
X158790000Y-78140000D01*
X158790000Y-78140000D02*
X158790000Y-71720000D01*
X158790000Y-71720000D02*
X156170000Y-71720000D01*
X156170000Y-71720000D02*
X156170000Y-78140000D01*
X157480000Y-79030000D02*
X157480000Y-78140000D01*
X157480000Y-70830000D02*
X157480000Y-71720000D01*
X161250000Y-78140000D02*
X163870000Y-78140000D01*
X163870000Y-78140000D02*
X163870000Y-71720000D01*
X163870000Y-71720000D02*
X161250000Y-71720000D01*
X161250000Y-71720000D02*
X161250000Y-78140000D01*
X162560000Y-79030000D02*
X162560000Y-78140000D01*
X162560000Y-70830000D02*
X162560000Y-71720000D01*
X166330000Y-78140000D02*
X168950000Y-78140000D01*
X168950000Y-78140000D02*
X168950000Y-71720000D01*
X168950000Y-71720000D02*
X166330000Y-71720000D01*
X166330000Y-71720000D02*
X166330000Y-78140000D01*
X167640000Y-79030000D02*
X167640000Y-78140000D01*
X167640000Y-70830000D02*
X167640000Y-71720000D01*
X180086000Y-59690000D02*
G75*
G03X180086000Y-59690000I-2286000J0D01*
G01*
D13*
X136993334Y-94337143D02*
X136945715Y-94384762D01*
X136802858Y-94432381D01*
X136707620Y-94432381D01*
X136564762Y-94384762D01*
X136469524Y-94289524D01*
X136421905Y-94194286D01*
X136374286Y-94003810D01*
X136374286Y-93860952D01*
X136421905Y-93670476D01*
X136469524Y-93575238D01*
X136564762Y-93480000D01*
X136707620Y-93432381D01*
X136802858Y-93432381D01*
X136945715Y-93480000D01*
X136993334Y-93527619D01*
X137945715Y-94432381D02*
X137374286Y-94432381D01*
X137660000Y-94432381D02*
X137660000Y-93432381D01*
X137564762Y-93575238D01*
X137469524Y-93670476D01*
X137374286Y-93718095D01*
X148423334Y-94337143D02*
X148375715Y-94384762D01*
X148232858Y-94432381D01*
X148137620Y-94432381D01*
X147994762Y-94384762D01*
X147899524Y-94289524D01*
X147851905Y-94194286D01*
X147804286Y-94003810D01*
X147804286Y-93860952D01*
X147851905Y-93670476D01*
X147899524Y-93575238D01*
X147994762Y-93480000D01*
X148137620Y-93432381D01*
X148232858Y-93432381D01*
X148375715Y-93480000D01*
X148423334Y-93527619D01*
X148804286Y-93527619D02*
X148851905Y-93480000D01*
X148947143Y-93432381D01*
X149185239Y-93432381D01*
X149280477Y-93480000D01*
X149328096Y-93527619D01*
X149375715Y-93622857D01*
X149375715Y-93718095D01*
X149328096Y-93860952D01*
X148756667Y-94432381D01*
X149375715Y-94432381D01*
X159853334Y-94337143D02*
X159805715Y-94384762D01*
X159662858Y-94432381D01*
X159567620Y-94432381D01*
X159424762Y-94384762D01*
X159329524Y-94289524D01*
X159281905Y-94194286D01*
X159234286Y-94003810D01*
X159234286Y-93860952D01*
X159281905Y-93670476D01*
X159329524Y-93575238D01*
X159424762Y-93480000D01*
X159567620Y-93432381D01*
X159662858Y-93432381D01*
X159805715Y-93480000D01*
X159853334Y-93527619D01*
X160186667Y-93432381D02*
X160805715Y-93432381D01*
X160472381Y-93813333D01*
X160615239Y-93813333D01*
X160710477Y-93860952D01*
X160758096Y-93908571D01*
X160805715Y-94003810D01*
X160805715Y-94241905D01*
X160758096Y-94337143D01*
X160710477Y-94384762D01*
X160615239Y-94432381D01*
X160329524Y-94432381D01*
X160234286Y-94384762D01*
X160186667Y-94337143D01*
X171283334Y-94337143D02*
X171235715Y-94384762D01*
X171092858Y-94432381D01*
X170997620Y-94432381D01*
X170854762Y-94384762D01*
X170759524Y-94289524D01*
X170711905Y-94194286D01*
X170664286Y-94003810D01*
X170664286Y-93860952D01*
X170711905Y-93670476D01*
X170759524Y-93575238D01*
X170854762Y-93480000D01*
X170997620Y-93432381D01*
X171092858Y-93432381D01*
X171235715Y-93480000D01*
X171283334Y-93527619D01*
X172140477Y-93765714D02*
X172140477Y-94432381D01*
X171902381Y-93384762D02*
X171664286Y-94099048D01*
X172283334Y-94099048D01*
X154556667Y-58402381D02*
X154556667Y-59116667D01*
X154509047Y-59259524D01*
X154413809Y-59354762D01*
X154270952Y-59402381D01*
X154175714Y-59402381D01*
X155556667Y-59402381D02*
X154985238Y-59402381D01*
X155270952Y-59402381D02*
X155270952Y-58402381D01*
X155175714Y-58545238D01*
X155080476Y-58640476D01*
X154985238Y-58688095D01*
X150542381Y-75096666D02*
X150066190Y-75430000D01*
X150542381Y-75668095D02*
X149542381Y-75668095D01*
X149542381Y-75287142D01*
X149590000Y-75191904D01*
X149637619Y-75144285D01*
X149732857Y-75096666D01*
X149875714Y-75096666D01*
X149970952Y-75144285D01*
X150018571Y-75191904D01*
X150066190Y-75287142D01*
X150066190Y-75668095D01*
X150542381Y-74144285D02*
X150542381Y-74715714D01*
X150542381Y-74430000D02*
X149542381Y-74430000D01*
X149685238Y-74525238D01*
X149780476Y-74620476D01*
X149828095Y-74715714D01*
X155622381Y-75096666D02*
X155146190Y-75430000D01*
X155622381Y-75668095D02*
X154622381Y-75668095D01*
X154622381Y-75287142D01*
X154670000Y-75191904D01*
X154717619Y-75144285D01*
X154812857Y-75096666D01*
X154955714Y-75096666D01*
X155050952Y-75144285D01*
X155098571Y-75191904D01*
X155146190Y-75287142D01*
X155146190Y-75668095D01*
X154717619Y-74715714D02*
X154670000Y-74668095D01*
X154622381Y-74572857D01*
X154622381Y-74334761D01*
X154670000Y-74239523D01*
X154717619Y-74191904D01*
X154812857Y-74144285D01*
X154908095Y-74144285D01*
X155050952Y-74191904D01*
X155622381Y-74763333D01*
X155622381Y-74144285D01*
X160702381Y-75096666D02*
X160226190Y-75430000D01*
X160702381Y-75668095D02*
X159702381Y-75668095D01*
X159702381Y-75287142D01*
X159750000Y-75191904D01*
X159797619Y-75144285D01*
X159892857Y-75096666D01*
X160035714Y-75096666D01*
X160130952Y-75144285D01*
X160178571Y-75191904D01*
X160226190Y-75287142D01*
X160226190Y-75668095D01*
X159702381Y-74763333D02*
X159702381Y-74144285D01*
X160083333Y-74477619D01*
X160083333Y-74334761D01*
X160130952Y-74239523D01*
X160178571Y-74191904D01*
X160273810Y-74144285D01*
X160511905Y-74144285D01*
X160607143Y-74191904D01*
X160654762Y-74239523D01*
X160702381Y-74334761D01*
X160702381Y-74620476D01*
X160654762Y-74715714D01*
X160607143Y-74763333D01*
X165782381Y-75096666D02*
X165306190Y-75430000D01*
X165782381Y-75668095D02*
X164782381Y-75668095D01*
X164782381Y-75287142D01*
X164830000Y-75191904D01*
X164877619Y-75144285D01*
X164972857Y-75096666D01*
X165115714Y-75096666D01*
X165210952Y-75144285D01*
X165258571Y-75191904D01*
X165306190Y-75287142D01*
X165306190Y-75668095D01*
X165115714Y-74239523D02*
X165782381Y-74239523D01*
X164734762Y-74477619D02*
X165449048Y-74715714D01*
X165449048Y-74096666D01*
M02*
