G04 #@! TF.FileFunction,Copper,L1,Top,Signal*
%FSLAX46Y46*%
G04 Gerber Fmt 4.6, Leading zero omitted, Abs format (unit mm)*
G04 Created by KiCad (PCBNEW 4.0.7) date Sunday, September 16, 2018 'AMt' 08:41:19 AM*
%MOMM*%
%LPD*%
G01*
G04 APERTURE LIST*
%ADD10C,0.100000*%
%ADD11R,1.600000X1.600000*%
%ADD12C,1.600000*%
%ADD13C,4.064000*%
%ADD14C,3.000000*%
%ADD15R,3.000000X3.000000*%
%ADD16O,1.600000X1.600000*%
%ADD17C,0.500000*%
G04 APERTURE END LIST*
D10*
D11*
X137160000Y-88900000D03*
D12*
X137160000Y-86400000D03*
D11*
X148590000Y-88900000D03*
D12*
X148590000Y-86400000D03*
D11*
X160020000Y-88900000D03*
D12*
X160020000Y-86400000D03*
D13*
X177800000Y-96520000D03*
X130810000Y-96520000D03*
X130810000Y-59690000D03*
D11*
X171450000Y-88900000D03*
D12*
X171450000Y-86400000D03*
D14*
X147320000Y-63500000D03*
X152400000Y-63500000D03*
D15*
X142240000Y-63500000D03*
D14*
X157480000Y-63500000D03*
X162560000Y-63500000D03*
X167640000Y-63500000D03*
D12*
X152400000Y-80010000D03*
D16*
X152400000Y-69850000D03*
D12*
X157480000Y-80010000D03*
D16*
X157480000Y-69850000D03*
D12*
X162560000Y-80010000D03*
D16*
X162560000Y-69850000D03*
D12*
X167640000Y-80010000D03*
D16*
X167640000Y-69850000D03*
D13*
X177800000Y-59690000D03*
D17*
X160020000Y-88900000D02*
X171450000Y-88900000D01*
X148590000Y-88900000D02*
X160020000Y-88900000D01*
X137160000Y-88900000D02*
X148590000Y-88900000D01*
X137160000Y-88900000D02*
X142240000Y-83820000D01*
X142240000Y-83820000D02*
X142240000Y-63500000D01*
X162560000Y-80010000D02*
X167640000Y-80010000D01*
X157480000Y-80010000D02*
X162560000Y-80010000D01*
X152400000Y-80010000D02*
X157480000Y-80010000D01*
X147320000Y-63500000D02*
X147320000Y-74930000D01*
X147320000Y-74930000D02*
X152400000Y-80010000D01*
M02*
