G04 #@! TF.FileFunction,Other,Fab,Top*
%FSLAX46Y46*%
G04 Gerber Fmt 4.6, Leading zero omitted, Abs format (unit mm)*
G04 Created by KiCad (PCBNEW 4.0.7) date Sunday, September 16, 2018 'AMt' 08:41:20 AM*
%MOMM*%
%LPD*%
G01*
G04 APERTURE LIST*
%ADD10C,0.100000*%
%ADD11C,0.300000*%
G04 APERTURE END LIST*
D10*
D11*
X123931429Y-71819287D02*
X123931429Y-72747858D01*
X123360000Y-72247858D01*
X123360000Y-72462144D01*
X123288571Y-72605001D01*
X123217143Y-72676430D01*
X123074286Y-72747858D01*
X122717143Y-72747858D01*
X122574286Y-72676430D01*
X122502857Y-72605001D01*
X122431429Y-72462144D01*
X122431429Y-72033572D01*
X122502857Y-71890715D01*
X122574286Y-71819287D01*
X123931429Y-74033572D02*
X123931429Y-73747858D01*
X123860000Y-73605001D01*
X123788571Y-73533572D01*
X123574286Y-73390715D01*
X123288571Y-73319286D01*
X122717143Y-73319286D01*
X122574286Y-73390715D01*
X122502857Y-73462143D01*
X122431429Y-73605001D01*
X122431429Y-73890715D01*
X122502857Y-74033572D01*
X122574286Y-74105001D01*
X122717143Y-74176429D01*
X123074286Y-74176429D01*
X123217143Y-74105001D01*
X123288571Y-74033572D01*
X123360000Y-73890715D01*
X123360000Y-73605001D01*
X123288571Y-73462143D01*
X123217143Y-73390715D01*
X123074286Y-73319286D01*
X122574286Y-74819286D02*
X122502857Y-74890714D01*
X122431429Y-74819286D01*
X122502857Y-74747857D01*
X122574286Y-74819286D01*
X122431429Y-74819286D01*
X123288571Y-75747858D02*
X123360000Y-75605000D01*
X123431429Y-75533572D01*
X123574286Y-75462143D01*
X123645714Y-75462143D01*
X123788571Y-75533572D01*
X123860000Y-75605000D01*
X123931429Y-75747858D01*
X123931429Y-76033572D01*
X123860000Y-76176429D01*
X123788571Y-76247858D01*
X123645714Y-76319286D01*
X123574286Y-76319286D01*
X123431429Y-76247858D01*
X123360000Y-76176429D01*
X123288571Y-76033572D01*
X123288571Y-75747858D01*
X123217143Y-75605000D01*
X123145714Y-75533572D01*
X123002857Y-75462143D01*
X122717143Y-75462143D01*
X122574286Y-75533572D01*
X122502857Y-75605000D01*
X122431429Y-75747858D01*
X122431429Y-76033572D01*
X122502857Y-76176429D01*
X122574286Y-76247858D01*
X122717143Y-76319286D01*
X123002857Y-76319286D01*
X123145714Y-76247858D01*
X123217143Y-76176429D01*
X123288571Y-76033572D01*
X123931429Y-76819286D02*
X123931429Y-77747857D01*
X123360000Y-77247857D01*
X123360000Y-77462143D01*
X123288571Y-77605000D01*
X123217143Y-77676429D01*
X123074286Y-77747857D01*
X122717143Y-77747857D01*
X122574286Y-77676429D01*
X122502857Y-77605000D01*
X122431429Y-77462143D01*
X122431429Y-77033571D01*
X122502857Y-76890714D01*
X122574286Y-76819286D01*
X123931429Y-78676428D02*
X123931429Y-78819285D01*
X123860000Y-78962142D01*
X123788571Y-79033571D01*
X123645714Y-79105000D01*
X123360000Y-79176428D01*
X123002857Y-79176428D01*
X122717143Y-79105000D01*
X122574286Y-79033571D01*
X122502857Y-78962142D01*
X122431429Y-78819285D01*
X122431429Y-78676428D01*
X122502857Y-78533571D01*
X122574286Y-78462142D01*
X122717143Y-78390714D01*
X123002857Y-78319285D01*
X123360000Y-78319285D01*
X123645714Y-78390714D01*
X123788571Y-78462142D01*
X123860000Y-78533571D01*
X123931429Y-78676428D01*
X122431429Y-80962142D02*
X123431429Y-80962142D01*
X123288571Y-80962142D02*
X123360000Y-81033570D01*
X123431429Y-81176428D01*
X123431429Y-81390713D01*
X123360000Y-81533570D01*
X123217143Y-81604999D01*
X122431429Y-81604999D01*
X123217143Y-81604999D02*
X123360000Y-81676428D01*
X123431429Y-81819285D01*
X123431429Y-82033570D01*
X123360000Y-82176428D01*
X123217143Y-82247856D01*
X122431429Y-82247856D01*
X122431429Y-82962142D02*
X123431429Y-82962142D01*
X123288571Y-82962142D02*
X123360000Y-83033570D01*
X123431429Y-83176428D01*
X123431429Y-83390713D01*
X123360000Y-83533570D01*
X123217143Y-83604999D01*
X122431429Y-83604999D01*
X123217143Y-83604999D02*
X123360000Y-83676428D01*
X123431429Y-83819285D01*
X123431429Y-84033570D01*
X123360000Y-84176428D01*
X123217143Y-84247856D01*
X122431429Y-84247856D01*
X124460000Y-59690000D02*
X124460000Y-96520000D01*
X127000000Y-59690000D02*
X121760000Y-59690000D01*
X127000000Y-96520000D02*
X121760000Y-96520000D01*
X124460000Y-96520000D02*
X123873579Y-95393496D01*
X124460000Y-96520000D02*
X125046421Y-95393496D01*
X124460000Y-59690000D02*
X123873579Y-60816504D01*
X124460000Y-59690000D02*
X125046421Y-60816504D01*
X148805001Y-103898571D02*
X148805001Y-104898571D01*
X148447858Y-103327143D02*
X148090715Y-104398571D01*
X149019287Y-104398571D01*
X150233572Y-103398571D02*
X149947858Y-103398571D01*
X149805001Y-103470000D01*
X149733572Y-103541429D01*
X149590715Y-103755714D01*
X149519286Y-104041429D01*
X149519286Y-104612857D01*
X149590715Y-104755714D01*
X149662143Y-104827143D01*
X149805001Y-104898571D01*
X150090715Y-104898571D01*
X150233572Y-104827143D01*
X150305001Y-104755714D01*
X150376429Y-104612857D01*
X150376429Y-104255714D01*
X150305001Y-104112857D01*
X150233572Y-104041429D01*
X150090715Y-103970000D01*
X149805001Y-103970000D01*
X149662143Y-104041429D01*
X149590715Y-104112857D01*
X149519286Y-104255714D01*
X151019286Y-104755714D02*
X151090714Y-104827143D01*
X151019286Y-104898571D01*
X150947857Y-104827143D01*
X151019286Y-104755714D01*
X151019286Y-104898571D01*
X151805000Y-104898571D02*
X152090715Y-104898571D01*
X152233572Y-104827143D01*
X152305000Y-104755714D01*
X152447858Y-104541429D01*
X152519286Y-104255714D01*
X152519286Y-103684286D01*
X152447858Y-103541429D01*
X152376429Y-103470000D01*
X152233572Y-103398571D01*
X151947858Y-103398571D01*
X151805000Y-103470000D01*
X151733572Y-103541429D01*
X151662143Y-103684286D01*
X151662143Y-104041429D01*
X151733572Y-104184286D01*
X151805000Y-104255714D01*
X151947858Y-104327143D01*
X152233572Y-104327143D01*
X152376429Y-104255714D01*
X152447858Y-104184286D01*
X152519286Y-104041429D01*
X153233571Y-104898571D02*
X153519286Y-104898571D01*
X153662143Y-104827143D01*
X153733571Y-104755714D01*
X153876429Y-104541429D01*
X153947857Y-104255714D01*
X153947857Y-103684286D01*
X153876429Y-103541429D01*
X153805000Y-103470000D01*
X153662143Y-103398571D01*
X153376429Y-103398571D01*
X153233571Y-103470000D01*
X153162143Y-103541429D01*
X153090714Y-103684286D01*
X153090714Y-104041429D01*
X153162143Y-104184286D01*
X153233571Y-104255714D01*
X153376429Y-104327143D01*
X153662143Y-104327143D01*
X153805000Y-104255714D01*
X153876429Y-104184286D01*
X153947857Y-104041429D01*
X154876428Y-103398571D02*
X155019285Y-103398571D01*
X155162142Y-103470000D01*
X155233571Y-103541429D01*
X155305000Y-103684286D01*
X155376428Y-103970000D01*
X155376428Y-104327143D01*
X155305000Y-104612857D01*
X155233571Y-104755714D01*
X155162142Y-104827143D01*
X155019285Y-104898571D01*
X154876428Y-104898571D01*
X154733571Y-104827143D01*
X154662142Y-104755714D01*
X154590714Y-104612857D01*
X154519285Y-104327143D01*
X154519285Y-103970000D01*
X154590714Y-103684286D01*
X154662142Y-103541429D01*
X154733571Y-103470000D01*
X154876428Y-103398571D01*
X157162142Y-104898571D02*
X157162142Y-103898571D01*
X157162142Y-104041429D02*
X157233570Y-103970000D01*
X157376428Y-103898571D01*
X157590713Y-103898571D01*
X157733570Y-103970000D01*
X157804999Y-104112857D01*
X157804999Y-104898571D01*
X157804999Y-104112857D02*
X157876428Y-103970000D01*
X158019285Y-103898571D01*
X158233570Y-103898571D01*
X158376428Y-103970000D01*
X158447856Y-104112857D01*
X158447856Y-104898571D01*
X159162142Y-104898571D02*
X159162142Y-103898571D01*
X159162142Y-104041429D02*
X159233570Y-103970000D01*
X159376428Y-103898571D01*
X159590713Y-103898571D01*
X159733570Y-103970000D01*
X159804999Y-104112857D01*
X159804999Y-104898571D01*
X159804999Y-104112857D02*
X159876428Y-103970000D01*
X160019285Y-103898571D01*
X160233570Y-103898571D01*
X160376428Y-103970000D01*
X160447856Y-104112857D01*
X160447856Y-104898571D01*
X130810000Y-102870000D02*
X177800000Y-102870000D01*
X130810000Y-100330000D02*
X130810000Y-105570000D01*
X177800000Y-100330000D02*
X177800000Y-105570000D01*
X177800000Y-102870000D02*
X176673496Y-103456421D01*
X177800000Y-102870000D02*
X176673496Y-102283579D01*
X130810000Y-102870000D02*
X131936504Y-103456421D01*
X130810000Y-102870000D02*
X131936504Y-102283579D01*
X185821429Y-72605001D02*
X184821429Y-72605001D01*
X186392857Y-72247858D02*
X185321429Y-71890715D01*
X185321429Y-72819287D01*
X184821429Y-74176429D02*
X184821429Y-73319286D01*
X184821429Y-73747858D02*
X186321429Y-73747858D01*
X186107143Y-73605001D01*
X185964286Y-73462143D01*
X185892857Y-73319286D01*
X184964286Y-74819286D02*
X184892857Y-74890714D01*
X184821429Y-74819286D01*
X184892857Y-74747857D01*
X184964286Y-74819286D01*
X184821429Y-74819286D01*
X184821429Y-75605000D02*
X184821429Y-75890715D01*
X184892857Y-76033572D01*
X184964286Y-76105000D01*
X185178571Y-76247858D01*
X185464286Y-76319286D01*
X186035714Y-76319286D01*
X186178571Y-76247858D01*
X186250000Y-76176429D01*
X186321429Y-76033572D01*
X186321429Y-75747858D01*
X186250000Y-75605000D01*
X186178571Y-75533572D01*
X186035714Y-75462143D01*
X185678571Y-75462143D01*
X185535714Y-75533572D01*
X185464286Y-75605000D01*
X185392857Y-75747858D01*
X185392857Y-76033572D01*
X185464286Y-76176429D01*
X185535714Y-76247858D01*
X185678571Y-76319286D01*
X184821429Y-77747857D02*
X184821429Y-76890714D01*
X184821429Y-77319286D02*
X186321429Y-77319286D01*
X186107143Y-77176429D01*
X185964286Y-77033571D01*
X185892857Y-76890714D01*
X186321429Y-78676428D02*
X186321429Y-78819285D01*
X186250000Y-78962142D01*
X186178571Y-79033571D01*
X186035714Y-79105000D01*
X185750000Y-79176428D01*
X185392857Y-79176428D01*
X185107143Y-79105000D01*
X184964286Y-79033571D01*
X184892857Y-78962142D01*
X184821429Y-78819285D01*
X184821429Y-78676428D01*
X184892857Y-78533571D01*
X184964286Y-78462142D01*
X185107143Y-78390714D01*
X185392857Y-78319285D01*
X185750000Y-78319285D01*
X186035714Y-78390714D01*
X186178571Y-78462142D01*
X186250000Y-78533571D01*
X186321429Y-78676428D01*
X184821429Y-80962142D02*
X185821429Y-80962142D01*
X185678571Y-80962142D02*
X185750000Y-81033570D01*
X185821429Y-81176428D01*
X185821429Y-81390713D01*
X185750000Y-81533570D01*
X185607143Y-81604999D01*
X184821429Y-81604999D01*
X185607143Y-81604999D02*
X185750000Y-81676428D01*
X185821429Y-81819285D01*
X185821429Y-82033570D01*
X185750000Y-82176428D01*
X185607143Y-82247856D01*
X184821429Y-82247856D01*
X184821429Y-82962142D02*
X185821429Y-82962142D01*
X185678571Y-82962142D02*
X185750000Y-83033570D01*
X185821429Y-83176428D01*
X185821429Y-83390713D01*
X185750000Y-83533570D01*
X185607143Y-83604999D01*
X184821429Y-83604999D01*
X185607143Y-83604999D02*
X185750000Y-83676428D01*
X185821429Y-83819285D01*
X185821429Y-84033570D01*
X185750000Y-84176428D01*
X185607143Y-84247856D01*
X184821429Y-84247856D01*
X184150000Y-57150000D02*
X184150000Y-99060000D01*
X181610000Y-57150000D02*
X186850000Y-57150000D01*
X181610000Y-99060000D02*
X186850000Y-99060000D01*
X184150000Y-99060000D02*
X183563579Y-97933496D01*
X184150000Y-99060000D02*
X184736421Y-97933496D01*
X184150000Y-57150000D02*
X183563579Y-58276504D01*
X184150000Y-57150000D02*
X184736421Y-58276504D01*
X148876430Y-51168571D02*
X148162144Y-51168571D01*
X148090715Y-51882857D01*
X148162144Y-51811429D01*
X148305001Y-51740000D01*
X148662144Y-51740000D01*
X148805001Y-51811429D01*
X148876430Y-51882857D01*
X148947858Y-52025714D01*
X148947858Y-52382857D01*
X148876430Y-52525714D01*
X148805001Y-52597143D01*
X148662144Y-52668571D01*
X148305001Y-52668571D01*
X148162144Y-52597143D01*
X148090715Y-52525714D01*
X149519286Y-51311429D02*
X149590715Y-51240000D01*
X149733572Y-51168571D01*
X150090715Y-51168571D01*
X150233572Y-51240000D01*
X150305001Y-51311429D01*
X150376429Y-51454286D01*
X150376429Y-51597143D01*
X150305001Y-51811429D01*
X149447858Y-52668571D01*
X150376429Y-52668571D01*
X151019286Y-52525714D02*
X151090714Y-52597143D01*
X151019286Y-52668571D01*
X150947857Y-52597143D01*
X151019286Y-52525714D01*
X151019286Y-52668571D01*
X152019286Y-51168571D02*
X152162143Y-51168571D01*
X152305000Y-51240000D01*
X152376429Y-51311429D01*
X152447858Y-51454286D01*
X152519286Y-51740000D01*
X152519286Y-52097143D01*
X152447858Y-52382857D01*
X152376429Y-52525714D01*
X152305000Y-52597143D01*
X152162143Y-52668571D01*
X152019286Y-52668571D01*
X151876429Y-52597143D01*
X151805000Y-52525714D01*
X151733572Y-52382857D01*
X151662143Y-52097143D01*
X151662143Y-51740000D01*
X151733572Y-51454286D01*
X151805000Y-51311429D01*
X151876429Y-51240000D01*
X152019286Y-51168571D01*
X153019286Y-51168571D02*
X154019286Y-51168571D01*
X153376429Y-52668571D01*
X154876428Y-51168571D02*
X155019285Y-51168571D01*
X155162142Y-51240000D01*
X155233571Y-51311429D01*
X155305000Y-51454286D01*
X155376428Y-51740000D01*
X155376428Y-52097143D01*
X155305000Y-52382857D01*
X155233571Y-52525714D01*
X155162142Y-52597143D01*
X155019285Y-52668571D01*
X154876428Y-52668571D01*
X154733571Y-52597143D01*
X154662142Y-52525714D01*
X154590714Y-52382857D01*
X154519285Y-52097143D01*
X154519285Y-51740000D01*
X154590714Y-51454286D01*
X154662142Y-51311429D01*
X154733571Y-51240000D01*
X154876428Y-51168571D01*
X157162142Y-52668571D02*
X157162142Y-51668571D01*
X157162142Y-51811429D02*
X157233570Y-51740000D01*
X157376428Y-51668571D01*
X157590713Y-51668571D01*
X157733570Y-51740000D01*
X157804999Y-51882857D01*
X157804999Y-52668571D01*
X157804999Y-51882857D02*
X157876428Y-51740000D01*
X158019285Y-51668571D01*
X158233570Y-51668571D01*
X158376428Y-51740000D01*
X158447856Y-51882857D01*
X158447856Y-52668571D01*
X159162142Y-52668571D02*
X159162142Y-51668571D01*
X159162142Y-51811429D02*
X159233570Y-51740000D01*
X159376428Y-51668571D01*
X159590713Y-51668571D01*
X159733570Y-51740000D01*
X159804999Y-51882857D01*
X159804999Y-52668571D01*
X159804999Y-51882857D02*
X159876428Y-51740000D01*
X160019285Y-51668571D01*
X160233570Y-51668571D01*
X160376428Y-51740000D01*
X160447856Y-51882857D01*
X160447856Y-52668571D01*
X128270000Y-53340000D02*
X180340000Y-53340000D01*
X128270000Y-55880000D02*
X128270000Y-50640000D01*
X180340000Y-55880000D02*
X180340000Y-50640000D01*
X180340000Y-53340000D02*
X179213496Y-53926421D01*
X180340000Y-53340000D02*
X179213496Y-52753579D01*
X128270000Y-53340000D02*
X129396504Y-53926421D01*
X128270000Y-53340000D02*
X129396504Y-52753579D01*
D10*
X142160000Y-87650000D02*
G75*
G03X142160000Y-87650000I-5000000J0D01*
G01*
X137160000Y-91100000D02*
X137160000Y-89900000D01*
X136510000Y-90500000D02*
X137810000Y-90500000D01*
X153590000Y-87650000D02*
G75*
G03X153590000Y-87650000I-5000000J0D01*
G01*
X148590000Y-91100000D02*
X148590000Y-89900000D01*
X147940000Y-90500000D02*
X149240000Y-90500000D01*
X165020000Y-87650000D02*
G75*
G03X165020000Y-87650000I-5000000J0D01*
G01*
X160020000Y-91100000D02*
X160020000Y-89900000D01*
X159370000Y-90500000D02*
X160670000Y-90500000D01*
X179954066Y-96520000D02*
G75*
G03X179954066Y-96520000I-2154066J0D01*
G01*
X132964066Y-96520000D02*
G75*
G03X132964066Y-96520000I-2154066J0D01*
G01*
X132964066Y-59690000D02*
G75*
G03X132964066Y-59690000I-2154066J0D01*
G01*
X176450000Y-87650000D02*
G75*
G03X176450000Y-87650000I-5000000J0D01*
G01*
X171450000Y-91100000D02*
X171450000Y-89900000D01*
X170800000Y-90500000D02*
X172100000Y-90500000D01*
X139740000Y-66050000D02*
X170140000Y-66050000D01*
X139740000Y-59750000D02*
X139740000Y-67250000D01*
X139740000Y-67250000D02*
X170140000Y-67250000D01*
X170140000Y-67250000D02*
X170140000Y-59750000D01*
X170140000Y-59750000D02*
X139740000Y-59750000D01*
X151150000Y-78080000D02*
X153650000Y-78080000D01*
X153650000Y-78080000D02*
X153650000Y-71780000D01*
X153650000Y-71780000D02*
X151150000Y-71780000D01*
X151150000Y-71780000D02*
X151150000Y-78080000D01*
X152400000Y-80010000D02*
X152400000Y-78080000D01*
X152400000Y-69850000D02*
X152400000Y-71780000D01*
X156230000Y-78080000D02*
X158730000Y-78080000D01*
X158730000Y-78080000D02*
X158730000Y-71780000D01*
X158730000Y-71780000D02*
X156230000Y-71780000D01*
X156230000Y-71780000D02*
X156230000Y-78080000D01*
X157480000Y-80010000D02*
X157480000Y-78080000D01*
X157480000Y-69850000D02*
X157480000Y-71780000D01*
X161310000Y-78080000D02*
X163810000Y-78080000D01*
X163810000Y-78080000D02*
X163810000Y-71780000D01*
X163810000Y-71780000D02*
X161310000Y-71780000D01*
X161310000Y-71780000D02*
X161310000Y-78080000D01*
X162560000Y-80010000D02*
X162560000Y-78080000D01*
X162560000Y-69850000D02*
X162560000Y-71780000D01*
X166390000Y-78080000D02*
X168890000Y-78080000D01*
X168890000Y-78080000D02*
X168890000Y-71780000D01*
X168890000Y-71780000D02*
X166390000Y-71780000D01*
X166390000Y-71780000D02*
X166390000Y-78080000D01*
X167640000Y-80010000D02*
X167640000Y-78080000D01*
X167640000Y-69850000D02*
X167640000Y-71780000D01*
X179954066Y-59690000D02*
G75*
G03X179954066Y-59690000I-2154066J0D01*
G01*
M02*
