G04 #@! TF.GenerationSoftware,KiCad,Pcbnew,(5.1.4-0-10_14)*
G04 #@! TF.CreationDate,2019-09-24T21:23:23-07:00*
G04 #@! TF.ProjectId,CCS_Load_x2,4343535f-4c6f-4616-945f-78322e6b6963,2.0*
G04 #@! TF.SameCoordinates,Original*
G04 #@! TF.FileFunction,Copper,L2,Bot*
G04 #@! TF.FilePolarity,Positive*
%FSLAX46Y46*%
G04 Gerber Fmt 4.6, Leading zero omitted, Abs format (unit mm)*
G04 Created by KiCad (PCBNEW (5.1.4-0-10_14)) date 2019-09-24 21:23:23*
%MOMM*%
%LPD*%
G04 APERTURE LIST*
%ADD10R,3.000000X3.000000*%
%ADD11C,3.000000*%
%ADD12C,5.600000*%
%ADD13C,1.750000*%
%ADD14C,5.999480*%
%ADD15R,1.800000X1.800000*%
%ADD16O,1.800000X1.800000*%
%ADD17C,2.400000*%
%ADD18O,2.400000X2.400000*%
%ADD19C,0.500000*%
G04 APERTURE END LIST*
D10*
X141605000Y-93980000D03*
D11*
X146685000Y-93980000D03*
X151765000Y-93980000D03*
D12*
X116840000Y-129540000D03*
X176530000Y-129540000D03*
X176530000Y-93980000D03*
X116840000Y-93980000D03*
D13*
X146050000Y-104140000D03*
X148590000Y-106680000D03*
X146050000Y-109220000D03*
X146050000Y-116840000D03*
X148590000Y-119380000D03*
X146050000Y-121920000D03*
D14*
X127000000Y-101600000D03*
X127000000Y-127000000D03*
D15*
X123190000Y-111760000D03*
D16*
X123190000Y-114300000D03*
X123190000Y-116840000D03*
D15*
X162560000Y-111760000D03*
D16*
X162560000Y-114300000D03*
X162560000Y-116840000D03*
D17*
X121920000Y-93345000D03*
D18*
X137160000Y-93345000D03*
D17*
X137160000Y-118110000D03*
D18*
X137160000Y-102870000D03*
D17*
X171450000Y-93345000D03*
D18*
X156210000Y-93345000D03*
D17*
X154940000Y-102870000D03*
D18*
X154940000Y-118110000D03*
D14*
X166370000Y-101600000D03*
X166370000Y-127000000D03*
D19*
X145185001Y-95479999D02*
X146685000Y-93980000D01*
X144684999Y-95980001D02*
X145185001Y-95479999D01*
X141509999Y-95980001D02*
X144684999Y-95980001D01*
X123190000Y-114300000D02*
X141509999Y-95980001D01*
X148184999Y-95479999D02*
X146685000Y-93980000D01*
X150066001Y-95479999D02*
X148184999Y-95479999D01*
X156640001Y-108540003D02*
X156640001Y-102053999D01*
X161259999Y-113160001D02*
X156640001Y-108540003D01*
X156640001Y-102053999D02*
X150066001Y-95479999D01*
X162055001Y-113160001D02*
X161259999Y-113160001D01*
X162560000Y-113665000D02*
X162055001Y-113160001D01*
X162560000Y-114300000D02*
X162560000Y-113665000D01*
X146050000Y-105377436D02*
X146050000Y-104140000D01*
X146050000Y-106175002D02*
X146050000Y-105377436D01*
X154940000Y-115065002D02*
X146050000Y-106175002D01*
X154940000Y-118110000D02*
X154940000Y-115065002D01*
X121920000Y-110490000D02*
X123190000Y-111760000D01*
X121920000Y-93345000D02*
X121920000Y-110490000D01*
X135890000Y-116840000D02*
X137160000Y-118110000D01*
X123190000Y-116840000D02*
X135890000Y-116840000D01*
X162560000Y-110360000D02*
X162560000Y-111760000D01*
X169869741Y-103050259D02*
X162560000Y-110360000D01*
X169869741Y-94925259D02*
X169869741Y-103050259D01*
X171450000Y-93345000D02*
X169869741Y-94925259D01*
M02*
