G04 #@! TF.GenerationSoftware,KiCad,Pcbnew,(5.1.4-0-10_14)*
G04 #@! TF.CreationDate,2019-09-24T21:23:23-07:00*
G04 #@! TF.ProjectId,CCS_Load_x2,4343535f-4c6f-4616-945f-78322e6b6963,2.0*
G04 #@! TF.SameCoordinates,Original*
G04 #@! TF.FileFunction,Legend,Top*
G04 #@! TF.FilePolarity,Positive*
%FSLAX46Y46*%
G04 Gerber Fmt 4.6, Leading zero omitted, Abs format (unit mm)*
G04 Created by KiCad (PCBNEW (5.1.4-0-10_14)) date 2019-09-24 21:23:23*
%MOMM*%
%LPD*%
G04 APERTURE LIST*
%ADD10C,0.150000*%
%ADD11C,0.250000*%
%ADD12C,0.187500*%
%ADD13C,0.300000*%
%ADD14C,0.120000*%
G04 APERTURE END LIST*
D10*
X138430000Y-121920000D02*
X137160000Y-120650000D01*
X135890000Y-121920000D02*
X137160000Y-120650000D01*
X137160000Y-120650000D02*
X135890000Y-121920000D01*
X137160000Y-120650000D02*
X137160000Y-125730000D01*
X156210000Y-121920000D02*
X154940000Y-120650000D01*
X153670000Y-121920000D02*
X154940000Y-120650000D01*
X154940000Y-120650000D02*
X153670000Y-121920000D01*
X154940000Y-125730000D02*
X154940000Y-120650000D01*
D11*
X139764333Y-127357142D02*
X139716714Y-127404761D01*
X139573857Y-127452380D01*
X139478619Y-127452380D01*
X139335761Y-127404761D01*
X139240523Y-127309523D01*
X139192904Y-127214285D01*
X139145285Y-127023809D01*
X139145285Y-126880952D01*
X139192904Y-126690476D01*
X139240523Y-126595238D01*
X139335761Y-126500000D01*
X139478619Y-126452380D01*
X139573857Y-126452380D01*
X139716714Y-126500000D01*
X139764333Y-126547619D01*
X140621476Y-126785714D02*
X140621476Y-127452380D01*
X140192904Y-126785714D02*
X140192904Y-127309523D01*
X140240523Y-127404761D01*
X140335761Y-127452380D01*
X140478619Y-127452380D01*
X140573857Y-127404761D01*
X140621476Y-127357142D01*
X141097666Y-127452380D02*
X141097666Y-126785714D01*
X141097666Y-126976190D02*
X141145285Y-126880952D01*
X141192904Y-126833333D01*
X141288142Y-126785714D01*
X141383380Y-126785714D01*
X141716714Y-127452380D02*
X141716714Y-126785714D01*
X141716714Y-126976190D02*
X141764333Y-126880952D01*
X141811952Y-126833333D01*
X141907190Y-126785714D01*
X142002428Y-126785714D01*
X142716714Y-127404761D02*
X142621476Y-127452380D01*
X142431000Y-127452380D01*
X142335761Y-127404761D01*
X142288142Y-127309523D01*
X142288142Y-126928571D01*
X142335761Y-126833333D01*
X142431000Y-126785714D01*
X142621476Y-126785714D01*
X142716714Y-126833333D01*
X142764333Y-126928571D01*
X142764333Y-127023809D01*
X142288142Y-127119047D01*
X143192904Y-126785714D02*
X143192904Y-127452380D01*
X143192904Y-126880952D02*
X143240523Y-126833333D01*
X143335761Y-126785714D01*
X143478619Y-126785714D01*
X143573857Y-126833333D01*
X143621476Y-126928571D01*
X143621476Y-127452380D01*
X143954809Y-126785714D02*
X144335761Y-126785714D01*
X144097666Y-126452380D02*
X144097666Y-127309523D01*
X144145285Y-127404761D01*
X144240523Y-127452380D01*
X144335761Y-127452380D01*
X145383380Y-127404761D02*
X145478619Y-127452380D01*
X145669095Y-127452380D01*
X145764333Y-127404761D01*
X145811952Y-127309523D01*
X145811952Y-127261904D01*
X145764333Y-127166666D01*
X145669095Y-127119047D01*
X145526238Y-127119047D01*
X145431000Y-127071428D01*
X145383380Y-126976190D01*
X145383380Y-126928571D01*
X145431000Y-126833333D01*
X145526238Y-126785714D01*
X145669095Y-126785714D01*
X145764333Y-126833333D01*
X146621476Y-127404761D02*
X146526238Y-127452380D01*
X146335761Y-127452380D01*
X146240523Y-127404761D01*
X146192904Y-127309523D01*
X146192904Y-126928571D01*
X146240523Y-126833333D01*
X146335761Y-126785714D01*
X146526238Y-126785714D01*
X146621476Y-126833333D01*
X146669095Y-126928571D01*
X146669095Y-127023809D01*
X146192904Y-127119047D01*
X147097666Y-126785714D02*
X147097666Y-127452380D01*
X147097666Y-126880952D02*
X147145285Y-126833333D01*
X147240523Y-126785714D01*
X147383380Y-126785714D01*
X147478619Y-126833333D01*
X147526238Y-126928571D01*
X147526238Y-127452380D01*
X147954809Y-127404761D02*
X148050047Y-127452380D01*
X148240523Y-127452380D01*
X148335761Y-127404761D01*
X148383380Y-127309523D01*
X148383380Y-127261904D01*
X148335761Y-127166666D01*
X148240523Y-127119047D01*
X148097666Y-127119047D01*
X148002428Y-127071428D01*
X147954809Y-126976190D01*
X147954809Y-126928571D01*
X148002428Y-126833333D01*
X148097666Y-126785714D01*
X148240523Y-126785714D01*
X148335761Y-126833333D01*
X149192904Y-127404761D02*
X149097666Y-127452380D01*
X148907190Y-127452380D01*
X148811952Y-127404761D01*
X148764333Y-127309523D01*
X148764333Y-126928571D01*
X148811952Y-126833333D01*
X148907190Y-126785714D01*
X149097666Y-126785714D01*
X149192904Y-126833333D01*
X149240523Y-126928571D01*
X149240523Y-127023809D01*
X148764333Y-127119047D01*
X150431000Y-127452380D02*
X150431000Y-126452380D01*
X150859571Y-127452380D02*
X150859571Y-126928571D01*
X150811952Y-126833333D01*
X150716714Y-126785714D01*
X150573857Y-126785714D01*
X150478619Y-126833333D01*
X150431000Y-126880952D01*
X151716714Y-127404761D02*
X151621476Y-127452380D01*
X151431000Y-127452380D01*
X151335761Y-127404761D01*
X151288142Y-127309523D01*
X151288142Y-126928571D01*
X151335761Y-126833333D01*
X151431000Y-126785714D01*
X151621476Y-126785714D01*
X151716714Y-126833333D01*
X151764333Y-126928571D01*
X151764333Y-127023809D01*
X151288142Y-127119047D01*
X152192904Y-127452380D02*
X152192904Y-126785714D01*
X152192904Y-126976190D02*
X152240523Y-126880952D01*
X152288142Y-126833333D01*
X152383380Y-126785714D01*
X152478619Y-126785714D01*
X153192904Y-127404761D02*
X153097666Y-127452380D01*
X152907190Y-127452380D01*
X152811952Y-127404761D01*
X152764333Y-127309523D01*
X152764333Y-126928571D01*
X152811952Y-126833333D01*
X152907190Y-126785714D01*
X153097666Y-126785714D01*
X153192904Y-126833333D01*
X153240523Y-126928571D01*
X153240523Y-127023809D01*
X152764333Y-127119047D01*
X153669095Y-127357142D02*
X153716714Y-127404761D01*
X153669095Y-127452380D01*
X153621476Y-127404761D01*
X153669095Y-127357142D01*
X153669095Y-127452380D01*
D12*
X141685000Y-99327857D02*
X141649285Y-99363571D01*
X141542142Y-99399285D01*
X141470714Y-99399285D01*
X141363571Y-99363571D01*
X141292142Y-99292142D01*
X141256428Y-99220714D01*
X141220714Y-99077857D01*
X141220714Y-98970714D01*
X141256428Y-98827857D01*
X141292142Y-98756428D01*
X141363571Y-98685000D01*
X141470714Y-98649285D01*
X141542142Y-98649285D01*
X141649285Y-98685000D01*
X141685000Y-98720714D01*
X142006428Y-99399285D02*
X142006428Y-98649285D01*
X142327857Y-99399285D02*
X142327857Y-99006428D01*
X142292142Y-98935000D01*
X142220714Y-98899285D01*
X142113571Y-98899285D01*
X142042142Y-98935000D01*
X142006428Y-98970714D01*
X143077857Y-99399285D02*
X142649285Y-99399285D01*
X142863571Y-99399285D02*
X142863571Y-98649285D01*
X142792142Y-98756428D01*
X142720714Y-98827857D01*
X142649285Y-98863571D01*
X145685000Y-99399285D02*
X145685000Y-98649285D01*
X145685000Y-99006428D02*
X146113571Y-99006428D01*
X146113571Y-99399285D02*
X146113571Y-98649285D01*
X146363571Y-98649285D02*
X146613571Y-99399285D01*
X146863571Y-98649285D01*
X147113571Y-99113571D02*
X147685000Y-99113571D01*
X147399285Y-99399285D02*
X147399285Y-98827857D01*
X150756428Y-99327857D02*
X150720714Y-99363571D01*
X150613571Y-99399285D01*
X150542142Y-99399285D01*
X150435000Y-99363571D01*
X150363571Y-99292142D01*
X150327857Y-99220714D01*
X150292142Y-99077857D01*
X150292142Y-98970714D01*
X150327857Y-98827857D01*
X150363571Y-98756428D01*
X150435000Y-98685000D01*
X150542142Y-98649285D01*
X150613571Y-98649285D01*
X150720714Y-98685000D01*
X150756428Y-98720714D01*
X151077857Y-99399285D02*
X151077857Y-98649285D01*
X151399285Y-99399285D02*
X151399285Y-99006428D01*
X151363571Y-98935000D01*
X151292142Y-98899285D01*
X151185000Y-98899285D01*
X151113571Y-98935000D01*
X151077857Y-98970714D01*
X151720714Y-98720714D02*
X151756428Y-98685000D01*
X151827857Y-98649285D01*
X152006428Y-98649285D01*
X152077857Y-98685000D01*
X152113571Y-98720714D01*
X152149285Y-98792142D01*
X152149285Y-98863571D01*
X152113571Y-98970714D01*
X151685000Y-99399285D01*
X152149285Y-99399285D01*
D13*
X118793571Y-100260000D02*
X118865000Y-100331428D01*
X118936428Y-100474285D01*
X118936428Y-100831428D01*
X118865000Y-100974285D01*
X118793571Y-101045714D01*
X118650714Y-101117142D01*
X118507857Y-101117142D01*
X118293571Y-101045714D01*
X117436428Y-100188571D01*
X117436428Y-101117142D01*
X117579285Y-103760000D02*
X117507857Y-103688571D01*
X117436428Y-103474285D01*
X117436428Y-103331428D01*
X117507857Y-103117142D01*
X117650714Y-102974285D01*
X117793571Y-102902857D01*
X118079285Y-102831428D01*
X118293571Y-102831428D01*
X118579285Y-102902857D01*
X118722142Y-102974285D01*
X118865000Y-103117142D01*
X118936428Y-103331428D01*
X118936428Y-103474285D01*
X118865000Y-103688571D01*
X118793571Y-103760000D01*
X117436428Y-104402857D02*
X118936428Y-104402857D01*
X117436428Y-105045714D02*
X118222142Y-105045714D01*
X118365000Y-104974285D01*
X118436428Y-104831428D01*
X118436428Y-104617142D01*
X118365000Y-104474285D01*
X118293571Y-104402857D01*
X117436428Y-106402857D02*
X118222142Y-106402857D01*
X118365000Y-106331428D01*
X118436428Y-106188571D01*
X118436428Y-105902857D01*
X118365000Y-105760000D01*
X117507857Y-106402857D02*
X117436428Y-106260000D01*
X117436428Y-105902857D01*
X117507857Y-105760000D01*
X117650714Y-105688571D01*
X117793571Y-105688571D01*
X117936428Y-105760000D01*
X118007857Y-105902857D01*
X118007857Y-106260000D01*
X118079285Y-106402857D01*
X118436428Y-107117142D02*
X117436428Y-107117142D01*
X118293571Y-107117142D02*
X118365000Y-107188571D01*
X118436428Y-107331428D01*
X118436428Y-107545714D01*
X118365000Y-107688571D01*
X118222142Y-107760000D01*
X117436428Y-107760000D01*
X118436428Y-108474285D02*
X117436428Y-108474285D01*
X118293571Y-108474285D02*
X118365000Y-108545714D01*
X118436428Y-108688571D01*
X118436428Y-108902857D01*
X118365000Y-109045714D01*
X118222142Y-109117142D01*
X117436428Y-109117142D01*
X117507857Y-110402857D02*
X117436428Y-110260000D01*
X117436428Y-109974285D01*
X117507857Y-109831428D01*
X117650714Y-109760000D01*
X118222142Y-109760000D01*
X118365000Y-109831428D01*
X118436428Y-109974285D01*
X118436428Y-110260000D01*
X118365000Y-110402857D01*
X118222142Y-110474285D01*
X118079285Y-110474285D01*
X117936428Y-109760000D01*
X117436428Y-111331428D02*
X117507857Y-111188571D01*
X117650714Y-111117142D01*
X118936428Y-111117142D01*
X117579285Y-113902857D02*
X117507857Y-113831428D01*
X117436428Y-113617142D01*
X117436428Y-113474285D01*
X117507857Y-113260000D01*
X117650714Y-113117142D01*
X117793571Y-113045714D01*
X118079285Y-112974285D01*
X118293571Y-112974285D01*
X118579285Y-113045714D01*
X118722142Y-113117142D01*
X118865000Y-113260000D01*
X118936428Y-113474285D01*
X118936428Y-113617142D01*
X118865000Y-113831428D01*
X118793571Y-113902857D01*
X117579285Y-115402857D02*
X117507857Y-115331428D01*
X117436428Y-115117142D01*
X117436428Y-114974285D01*
X117507857Y-114760000D01*
X117650714Y-114617142D01*
X117793571Y-114545714D01*
X118079285Y-114474285D01*
X118293571Y-114474285D01*
X118579285Y-114545714D01*
X118722142Y-114617142D01*
X118865000Y-114760000D01*
X118936428Y-114974285D01*
X118936428Y-115117142D01*
X118865000Y-115331428D01*
X118793571Y-115402857D01*
X117507857Y-115974285D02*
X117436428Y-116188571D01*
X117436428Y-116545714D01*
X117507857Y-116688571D01*
X117579285Y-116760000D01*
X117722142Y-116831428D01*
X117865000Y-116831428D01*
X118007857Y-116760000D01*
X118079285Y-116688571D01*
X118150714Y-116545714D01*
X118222142Y-116260000D01*
X118293571Y-116117142D01*
X118365000Y-116045714D01*
X118507857Y-115974285D01*
X118650714Y-115974285D01*
X118793571Y-116045714D01*
X118865000Y-116117142D01*
X118936428Y-116260000D01*
X118936428Y-116617142D01*
X118865000Y-116831428D01*
X117436428Y-119331428D02*
X117436428Y-118617142D01*
X118936428Y-118617142D01*
X117436428Y-120045714D02*
X117507857Y-119902857D01*
X117579285Y-119831428D01*
X117722142Y-119760000D01*
X118150714Y-119760000D01*
X118293571Y-119831428D01*
X118365000Y-119902857D01*
X118436428Y-120045714D01*
X118436428Y-120260000D01*
X118365000Y-120402857D01*
X118293571Y-120474285D01*
X118150714Y-120545714D01*
X117722142Y-120545714D01*
X117579285Y-120474285D01*
X117507857Y-120402857D01*
X117436428Y-120260000D01*
X117436428Y-120045714D01*
X117436428Y-121831428D02*
X118222142Y-121831428D01*
X118365000Y-121760000D01*
X118436428Y-121617142D01*
X118436428Y-121331428D01*
X118365000Y-121188571D01*
X117507857Y-121831428D02*
X117436428Y-121688571D01*
X117436428Y-121331428D01*
X117507857Y-121188571D01*
X117650714Y-121117142D01*
X117793571Y-121117142D01*
X117936428Y-121188571D01*
X118007857Y-121331428D01*
X118007857Y-121688571D01*
X118079285Y-121831428D01*
X117436428Y-123188571D02*
X118936428Y-123188571D01*
X117507857Y-123188571D02*
X117436428Y-123045714D01*
X117436428Y-122760000D01*
X117507857Y-122617142D01*
X117579285Y-122545714D01*
X117722142Y-122474285D01*
X118150714Y-122474285D01*
X118293571Y-122545714D01*
X118365000Y-122617142D01*
X118436428Y-122760000D01*
X118436428Y-123045714D01*
X118365000Y-123188571D01*
X114886428Y-108795714D02*
X115886428Y-108795714D01*
X115600714Y-108795714D02*
X115743571Y-108867142D01*
X115815000Y-108938571D01*
X115886428Y-109081428D01*
X115886428Y-109224285D01*
X114957857Y-110295714D02*
X114886428Y-110152857D01*
X114886428Y-109867142D01*
X114957857Y-109724285D01*
X115100714Y-109652857D01*
X115672142Y-109652857D01*
X115815000Y-109724285D01*
X115886428Y-109867142D01*
X115886428Y-110152857D01*
X115815000Y-110295714D01*
X115672142Y-110367142D01*
X115529285Y-110367142D01*
X115386428Y-109652857D01*
X115886428Y-110867142D02*
X114886428Y-111224285D01*
X115886428Y-111581428D01*
X115029285Y-112152857D02*
X114957857Y-112224285D01*
X114886428Y-112152857D01*
X114957857Y-112081428D01*
X115029285Y-112152857D01*
X114886428Y-112152857D01*
X116243571Y-113938571D02*
X116315000Y-114010000D01*
X116386428Y-114152857D01*
X116386428Y-114510000D01*
X116315000Y-114652857D01*
X116243571Y-114724285D01*
X116100714Y-114795714D01*
X115957857Y-114795714D01*
X115743571Y-114724285D01*
X114886428Y-113867142D01*
X114886428Y-114795714D01*
D10*
X174792142Y-120553809D02*
X174839761Y-120601428D01*
X174887380Y-120744285D01*
X174887380Y-120839523D01*
X174839761Y-120982380D01*
X174744523Y-121077619D01*
X174649285Y-121125238D01*
X174458809Y-121172857D01*
X174315952Y-121172857D01*
X174125476Y-121125238D01*
X174030238Y-121077619D01*
X173935000Y-120982380D01*
X173887380Y-120839523D01*
X173887380Y-120744285D01*
X173935000Y-120601428D01*
X173982619Y-120553809D01*
X174887380Y-119982380D02*
X174839761Y-120077619D01*
X174792142Y-120125238D01*
X174696904Y-120172857D01*
X174411190Y-120172857D01*
X174315952Y-120125238D01*
X174268333Y-120077619D01*
X174220714Y-119982380D01*
X174220714Y-119839523D01*
X174268333Y-119744285D01*
X174315952Y-119696666D01*
X174411190Y-119649047D01*
X174696904Y-119649047D01*
X174792142Y-119696666D01*
X174839761Y-119744285D01*
X174887380Y-119839523D01*
X174887380Y-119982380D01*
X174220714Y-119220476D02*
X175220714Y-119220476D01*
X174268333Y-119220476D02*
X174220714Y-119125238D01*
X174220714Y-118934761D01*
X174268333Y-118839523D01*
X174315952Y-118791904D01*
X174411190Y-118744285D01*
X174696904Y-118744285D01*
X174792142Y-118791904D01*
X174839761Y-118839523D01*
X174887380Y-118934761D01*
X174887380Y-119125238D01*
X174839761Y-119220476D01*
X174220714Y-118410952D02*
X174887380Y-118172857D01*
X174220714Y-117934761D02*
X174887380Y-118172857D01*
X175125476Y-118268095D01*
X175173095Y-118315714D01*
X175220714Y-118410952D01*
X174887380Y-117553809D02*
X174220714Y-117553809D01*
X174411190Y-117553809D02*
X174315952Y-117506190D01*
X174268333Y-117458571D01*
X174220714Y-117363333D01*
X174220714Y-117268095D01*
X174887380Y-116934761D02*
X174220714Y-116934761D01*
X173887380Y-116934761D02*
X173935000Y-116982380D01*
X173982619Y-116934761D01*
X173935000Y-116887142D01*
X173887380Y-116934761D01*
X173982619Y-116934761D01*
X174220714Y-116030000D02*
X175030238Y-116030000D01*
X175125476Y-116077619D01*
X175173095Y-116125238D01*
X175220714Y-116220476D01*
X175220714Y-116363333D01*
X175173095Y-116458571D01*
X174839761Y-116030000D02*
X174887380Y-116125238D01*
X174887380Y-116315714D01*
X174839761Y-116410952D01*
X174792142Y-116458571D01*
X174696904Y-116506190D01*
X174411190Y-116506190D01*
X174315952Y-116458571D01*
X174268333Y-116410952D01*
X174220714Y-116315714D01*
X174220714Y-116125238D01*
X174268333Y-116030000D01*
X174887380Y-115553809D02*
X173887380Y-115553809D01*
X174887380Y-115125238D02*
X174363571Y-115125238D01*
X174268333Y-115172857D01*
X174220714Y-115268095D01*
X174220714Y-115410952D01*
X174268333Y-115506190D01*
X174315952Y-115553809D01*
X174220714Y-114791904D02*
X174220714Y-114410952D01*
X173887380Y-114649047D02*
X174744523Y-114649047D01*
X174839761Y-114601428D01*
X174887380Y-114506190D01*
X174887380Y-114410952D01*
X173982619Y-113363333D02*
X173935000Y-113315714D01*
X173887380Y-113220476D01*
X173887380Y-112982380D01*
X173935000Y-112887142D01*
X173982619Y-112839523D01*
X174077857Y-112791904D01*
X174173095Y-112791904D01*
X174315952Y-112839523D01*
X174887380Y-113410952D01*
X174887380Y-112791904D01*
X173887380Y-112172857D02*
X173887380Y-112077619D01*
X173935000Y-111982380D01*
X173982619Y-111934761D01*
X174077857Y-111887142D01*
X174268333Y-111839523D01*
X174506428Y-111839523D01*
X174696904Y-111887142D01*
X174792142Y-111934761D01*
X174839761Y-111982380D01*
X174887380Y-112077619D01*
X174887380Y-112172857D01*
X174839761Y-112268095D01*
X174792142Y-112315714D01*
X174696904Y-112363333D01*
X174506428Y-112410952D01*
X174268333Y-112410952D01*
X174077857Y-112363333D01*
X173982619Y-112315714D01*
X173935000Y-112268095D01*
X173887380Y-112172857D01*
X174887380Y-110887142D02*
X174887380Y-111458571D01*
X174887380Y-111172857D02*
X173887380Y-111172857D01*
X174030238Y-111268095D01*
X174125476Y-111363333D01*
X174173095Y-111458571D01*
X174315952Y-110315714D02*
X174268333Y-110410952D01*
X174220714Y-110458571D01*
X174125476Y-110506190D01*
X174077857Y-110506190D01*
X173982619Y-110458571D01*
X173935000Y-110410952D01*
X173887380Y-110315714D01*
X173887380Y-110125238D01*
X173935000Y-110030000D01*
X173982619Y-109982380D01*
X174077857Y-109934761D01*
X174125476Y-109934761D01*
X174220714Y-109982380D01*
X174268333Y-110030000D01*
X174315952Y-110125238D01*
X174315952Y-110315714D01*
X174363571Y-110410952D01*
X174411190Y-110458571D01*
X174506428Y-110506190D01*
X174696904Y-110506190D01*
X174792142Y-110458571D01*
X174839761Y-110410952D01*
X174887380Y-110315714D01*
X174887380Y-110125238D01*
X174839761Y-110030000D01*
X174792142Y-109982380D01*
X174696904Y-109934761D01*
X174506428Y-109934761D01*
X174411190Y-109982380D01*
X174363571Y-110030000D01*
X174315952Y-110125238D01*
X174839761Y-109458571D02*
X174887380Y-109458571D01*
X174982619Y-109506190D01*
X175030238Y-109553809D01*
X173982619Y-108315714D02*
X173935000Y-108268095D01*
X173887380Y-108172857D01*
X173887380Y-107934761D01*
X173935000Y-107839523D01*
X173982619Y-107791904D01*
X174077857Y-107744285D01*
X174173095Y-107744285D01*
X174315952Y-107791904D01*
X174887380Y-108363333D01*
X174887380Y-107744285D01*
X173887380Y-107125238D02*
X173887380Y-107030000D01*
X173935000Y-106934761D01*
X173982619Y-106887142D01*
X174077857Y-106839523D01*
X174268333Y-106791904D01*
X174506428Y-106791904D01*
X174696904Y-106839523D01*
X174792142Y-106887142D01*
X174839761Y-106934761D01*
X174887380Y-107030000D01*
X174887380Y-107125238D01*
X174839761Y-107220476D01*
X174792142Y-107268095D01*
X174696904Y-107315714D01*
X174506428Y-107363333D01*
X174268333Y-107363333D01*
X174077857Y-107315714D01*
X173982619Y-107268095D01*
X173935000Y-107220476D01*
X173887380Y-107125238D01*
X174887380Y-105839523D02*
X174887380Y-106410952D01*
X174887380Y-106125238D02*
X173887380Y-106125238D01*
X174030238Y-106220476D01*
X174125476Y-106315714D01*
X174173095Y-106410952D01*
X174887380Y-105363333D02*
X174887380Y-105172857D01*
X174839761Y-105077619D01*
X174792142Y-105030000D01*
X174649285Y-104934761D01*
X174458809Y-104887142D01*
X174077857Y-104887142D01*
X173982619Y-104934761D01*
X173935000Y-104982380D01*
X173887380Y-105077619D01*
X173887380Y-105268095D01*
X173935000Y-105363333D01*
X173982619Y-105410952D01*
X174077857Y-105458571D01*
X174315952Y-105458571D01*
X174411190Y-105410952D01*
X174458809Y-105363333D01*
X174506428Y-105268095D01*
X174506428Y-105077619D01*
X174458809Y-104982380D01*
X174411190Y-104934761D01*
X174315952Y-104887142D01*
X175537380Y-118625238D02*
X176251666Y-118625238D01*
X176394523Y-118672857D01*
X176489761Y-118768095D01*
X176537380Y-118910952D01*
X176537380Y-119006190D01*
X176537380Y-117720476D02*
X176013571Y-117720476D01*
X175918333Y-117768095D01*
X175870714Y-117863333D01*
X175870714Y-118053809D01*
X175918333Y-118149047D01*
X176489761Y-117720476D02*
X176537380Y-117815714D01*
X176537380Y-118053809D01*
X176489761Y-118149047D01*
X176394523Y-118196666D01*
X176299285Y-118196666D01*
X176204047Y-118149047D01*
X176156428Y-118053809D01*
X176156428Y-117815714D01*
X176108809Y-117720476D01*
X176489761Y-117291904D02*
X176537380Y-117196666D01*
X176537380Y-117006190D01*
X176489761Y-116910952D01*
X176394523Y-116863333D01*
X176346904Y-116863333D01*
X176251666Y-116910952D01*
X176204047Y-117006190D01*
X176204047Y-117149047D01*
X176156428Y-117244285D01*
X176061190Y-117291904D01*
X176013571Y-117291904D01*
X175918333Y-117244285D01*
X175870714Y-117149047D01*
X175870714Y-117006190D01*
X175918333Y-116910952D01*
X176537380Y-116291904D02*
X176489761Y-116387142D01*
X176442142Y-116434761D01*
X176346904Y-116482380D01*
X176061190Y-116482380D01*
X175965952Y-116434761D01*
X175918333Y-116387142D01*
X175870714Y-116291904D01*
X175870714Y-116149047D01*
X175918333Y-116053809D01*
X175965952Y-116006190D01*
X176061190Y-115958571D01*
X176346904Y-115958571D01*
X176442142Y-116006190D01*
X176489761Y-116053809D01*
X176537380Y-116149047D01*
X176537380Y-116291904D01*
X175870714Y-115530000D02*
X176537380Y-115530000D01*
X175965952Y-115530000D02*
X175918333Y-115482380D01*
X175870714Y-115387142D01*
X175870714Y-115244285D01*
X175918333Y-115149047D01*
X176013571Y-115101428D01*
X176537380Y-115101428D01*
X176537380Y-113291904D02*
X176061190Y-113625238D01*
X176537380Y-113863333D02*
X175537380Y-113863333D01*
X175537380Y-113482380D01*
X175585000Y-113387142D01*
X175632619Y-113339523D01*
X175727857Y-113291904D01*
X175870714Y-113291904D01*
X175965952Y-113339523D01*
X176013571Y-113387142D01*
X176061190Y-113482380D01*
X176061190Y-113863333D01*
X176442142Y-112863333D02*
X176489761Y-112815714D01*
X176537380Y-112863333D01*
X176489761Y-112910952D01*
X176442142Y-112863333D01*
X176537380Y-112863333D01*
X175537380Y-111768095D02*
X175537380Y-111196666D01*
X176537380Y-111482380D02*
X175537380Y-111482380D01*
X176537380Y-110863333D02*
X175537380Y-110863333D01*
X176537380Y-110434761D02*
X176013571Y-110434761D01*
X175918333Y-110482380D01*
X175870714Y-110577619D01*
X175870714Y-110720476D01*
X175918333Y-110815714D01*
X175965952Y-110863333D01*
X176537380Y-109815714D02*
X176489761Y-109910952D01*
X176442142Y-109958571D01*
X176346904Y-110006190D01*
X176061190Y-110006190D01*
X175965952Y-109958571D01*
X175918333Y-109910952D01*
X175870714Y-109815714D01*
X175870714Y-109672857D01*
X175918333Y-109577619D01*
X175965952Y-109530000D01*
X176061190Y-109482380D01*
X176346904Y-109482380D01*
X176442142Y-109530000D01*
X176489761Y-109577619D01*
X176537380Y-109672857D01*
X176537380Y-109815714D01*
X176537380Y-109053809D02*
X175870714Y-109053809D01*
X176061190Y-109053809D02*
X175965952Y-109006190D01*
X175918333Y-108958571D01*
X175870714Y-108863333D01*
X175870714Y-108768095D01*
X175870714Y-108434761D02*
X176870714Y-108434761D01*
X175918333Y-108434761D02*
X175870714Y-108339523D01*
X175870714Y-108149047D01*
X175918333Y-108053809D01*
X175965952Y-108006190D01*
X176061190Y-107958571D01*
X176346904Y-107958571D01*
X176442142Y-108006190D01*
X176489761Y-108053809D01*
X176537380Y-108149047D01*
X176537380Y-108339523D01*
X176489761Y-108434761D01*
X176489761Y-107149047D02*
X176537380Y-107244285D01*
X176537380Y-107434761D01*
X176489761Y-107530000D01*
X176394523Y-107577619D01*
X176013571Y-107577619D01*
X175918333Y-107530000D01*
X175870714Y-107434761D01*
X175870714Y-107244285D01*
X175918333Y-107149047D01*
X176013571Y-107101428D01*
X176108809Y-107101428D01*
X176204047Y-107577619D01*
D14*
X139065000Y-97790000D02*
X139065000Y-90170000D01*
X154305000Y-97790000D02*
X154305000Y-90170000D01*
X139065000Y-96520000D02*
X154305000Y-96520000D01*
X139065000Y-90170000D02*
X154305000Y-90170000D01*
X139065000Y-97790000D02*
X154305000Y-97790000D01*
X149980000Y-106680000D02*
G75*
G03X149980000Y-106680000I-3930000J0D01*
G01*
X149980000Y-119380000D02*
G75*
G03X149980000Y-119380000I-3930000J0D01*
G01*
D10*
X126238000Y-116078000D02*
X127762000Y-116078000D01*
X126238000Y-112522000D02*
X127762000Y-112522000D01*
X133350000Y-122809000D02*
X133350000Y-122301000D01*
X120650000Y-96774000D02*
X123444000Y-102235000D01*
X123444000Y-102235000D02*
X120650000Y-101600000D01*
X124333000Y-124333000D02*
X120650000Y-127000000D01*
X120650000Y-127000000D02*
X123444000Y-126492000D01*
X123444000Y-126492000D02*
X120650000Y-131826000D01*
X129667000Y-124460000D02*
X133350000Y-127000000D01*
X133350000Y-127000000D02*
X130683000Y-126492000D01*
X130683000Y-126492000D02*
X133350000Y-131826000D01*
X129540000Y-129540000D02*
X133350000Y-131826000D01*
X124460000Y-129540000D02*
X120650000Y-131826000D01*
X120650000Y-106299000D02*
X120650000Y-105918000D01*
X133350000Y-106299000D02*
X133350000Y-105791000D01*
X129667000Y-104267000D02*
X133350000Y-101600000D01*
X133350000Y-101600000D02*
X130556000Y-102235000D01*
X130556000Y-102235000D02*
X133350000Y-96774000D01*
X129413000Y-99060000D02*
X130302000Y-96774000D01*
X130302000Y-96774000D02*
X128524000Y-98298000D01*
X133350000Y-96774000D02*
X129413000Y-99060000D01*
X124460000Y-99060000D02*
X123698000Y-96901000D01*
X123698000Y-96901000D02*
X125222000Y-98425000D01*
X120650000Y-96774000D02*
X124460000Y-99060000D01*
X124333000Y-104140000D02*
X120650000Y-101600000D01*
X133350000Y-105791000D02*
X129667000Y-104267000D01*
X120650000Y-105791000D02*
X124333000Y-104140000D01*
X133350000Y-122809000D02*
X129540000Y-124460000D01*
X120650000Y-122301000D02*
X120650000Y-122809000D01*
X120650000Y-122809000D02*
X124333000Y-124333000D01*
X130302000Y-131826000D02*
X128905000Y-130048000D01*
X123698000Y-131953000D02*
X125222000Y-130175000D01*
X130302000Y-131826000D02*
X129540000Y-129540000D01*
X123698000Y-131826000D02*
X124460000Y-129540000D01*
X127762000Y-114300000D02*
X127762000Y-122301000D01*
X127762000Y-122301000D02*
X133350000Y-122301000D01*
X127762000Y-114300000D02*
X127762000Y-106299000D01*
X127762000Y-106299000D02*
X133350000Y-106299000D01*
X126238000Y-114300000D02*
X126238000Y-122301000D01*
X126238000Y-122301000D02*
X120650000Y-122301000D01*
X126238000Y-114300000D02*
X126238000Y-106299000D01*
X126238000Y-106299000D02*
X120650000Y-106299000D01*
D14*
X125810000Y-109180000D02*
X125810000Y-119420000D01*
X121169000Y-109180000D02*
X121169000Y-119420000D01*
X125810000Y-109180000D02*
X121169000Y-109180000D01*
X125810000Y-119420000D02*
X121169000Y-119420000D01*
X124300000Y-109180000D02*
X124300000Y-119420000D01*
X125810000Y-112450000D02*
X124300000Y-112450000D01*
X125810000Y-116151000D02*
X124300000Y-116151000D01*
X165180000Y-109180000D02*
X165180000Y-119420000D01*
X160539000Y-109180000D02*
X160539000Y-119420000D01*
X165180000Y-109180000D02*
X160539000Y-109180000D01*
X165180000Y-119420000D02*
X160539000Y-119420000D01*
X163670000Y-109180000D02*
X163670000Y-119420000D01*
X165180000Y-112450000D02*
X163670000Y-112450000D01*
X165180000Y-116151000D02*
X163670000Y-116151000D01*
X123530000Y-91035000D02*
X123530000Y-95655000D01*
X123530000Y-95655000D02*
X135550000Y-95655000D01*
X135550000Y-95655000D02*
X135550000Y-91035000D01*
X135550000Y-91035000D02*
X123530000Y-91035000D01*
X123300000Y-93345000D02*
X123530000Y-93345000D01*
X135780000Y-93345000D02*
X135550000Y-93345000D01*
X134850000Y-116500000D02*
X139470000Y-116500000D01*
X139470000Y-116500000D02*
X139470000Y-104480000D01*
X139470000Y-104480000D02*
X134850000Y-104480000D01*
X134850000Y-104480000D02*
X134850000Y-116500000D01*
X137160000Y-116730000D02*
X137160000Y-116500000D01*
X137160000Y-104250000D02*
X137160000Y-104480000D01*
X169840000Y-95655000D02*
X169840000Y-91035000D01*
X169840000Y-91035000D02*
X157820000Y-91035000D01*
X157820000Y-91035000D02*
X157820000Y-95655000D01*
X157820000Y-95655000D02*
X169840000Y-95655000D01*
X170070000Y-93345000D02*
X169840000Y-93345000D01*
X157590000Y-93345000D02*
X157820000Y-93345000D01*
X157250000Y-104480000D02*
X152630000Y-104480000D01*
X152630000Y-104480000D02*
X152630000Y-116500000D01*
X152630000Y-116500000D02*
X157250000Y-116500000D01*
X157250000Y-116500000D02*
X157250000Y-104480000D01*
X154940000Y-104250000D02*
X154940000Y-104480000D01*
X154940000Y-116730000D02*
X154940000Y-116500000D01*
D10*
X165608000Y-116078000D02*
X167132000Y-116078000D01*
X165608000Y-112522000D02*
X167132000Y-112522000D01*
X172720000Y-122809000D02*
X172720000Y-122301000D01*
X160020000Y-96774000D02*
X162814000Y-102235000D01*
X162814000Y-102235000D02*
X160020000Y-101600000D01*
X163703000Y-124333000D02*
X160020000Y-127000000D01*
X160020000Y-127000000D02*
X162814000Y-126492000D01*
X162814000Y-126492000D02*
X160020000Y-131826000D01*
X169037000Y-124460000D02*
X172720000Y-127000000D01*
X172720000Y-127000000D02*
X170053000Y-126492000D01*
X170053000Y-126492000D02*
X172720000Y-131826000D01*
X168910000Y-129540000D02*
X172720000Y-131826000D01*
X163830000Y-129540000D02*
X160020000Y-131826000D01*
X160020000Y-106299000D02*
X160020000Y-105918000D01*
X172720000Y-106299000D02*
X172720000Y-105791000D01*
X169037000Y-104267000D02*
X172720000Y-101600000D01*
X172720000Y-101600000D02*
X169926000Y-102235000D01*
X169926000Y-102235000D02*
X172720000Y-96774000D01*
X168783000Y-99060000D02*
X169672000Y-96774000D01*
X169672000Y-96774000D02*
X167894000Y-98298000D01*
X172720000Y-96774000D02*
X168783000Y-99060000D01*
X163830000Y-99060000D02*
X163068000Y-96901000D01*
X163068000Y-96901000D02*
X164592000Y-98425000D01*
X160020000Y-96774000D02*
X163830000Y-99060000D01*
X163703000Y-104140000D02*
X160020000Y-101600000D01*
X172720000Y-105791000D02*
X169037000Y-104267000D01*
X160020000Y-105791000D02*
X163703000Y-104140000D01*
X172720000Y-122809000D02*
X168910000Y-124460000D01*
X160020000Y-122301000D02*
X160020000Y-122809000D01*
X160020000Y-122809000D02*
X163703000Y-124333000D01*
X169672000Y-131826000D02*
X168275000Y-130048000D01*
X163068000Y-131953000D02*
X164592000Y-130175000D01*
X169672000Y-131826000D02*
X168910000Y-129540000D01*
X163068000Y-131826000D02*
X163830000Y-129540000D01*
X167132000Y-114300000D02*
X167132000Y-122301000D01*
X167132000Y-122301000D02*
X172720000Y-122301000D01*
X167132000Y-114300000D02*
X167132000Y-106299000D01*
X167132000Y-106299000D02*
X172720000Y-106299000D01*
X165608000Y-114300000D02*
X165608000Y-122301000D01*
X165608000Y-122301000D02*
X160020000Y-122301000D01*
X165608000Y-114300000D02*
X165608000Y-106299000D01*
X165608000Y-106299000D02*
X160020000Y-106299000D01*
X153971666Y-98512380D02*
X153971666Y-99226666D01*
X153924047Y-99369523D01*
X153828809Y-99464761D01*
X153685952Y-99512380D01*
X153590714Y-99512380D01*
X154971666Y-99512380D02*
X154400238Y-99512380D01*
X154685952Y-99512380D02*
X154685952Y-98512380D01*
X154590714Y-98655238D01*
X154495476Y-98750476D01*
X154400238Y-98798095D01*
X145454761Y-112212380D02*
X145121428Y-111736190D01*
X144883333Y-112212380D02*
X144883333Y-111212380D01*
X145264285Y-111212380D01*
X145359523Y-111260000D01*
X145407142Y-111307619D01*
X145454761Y-111402857D01*
X145454761Y-111545714D01*
X145407142Y-111640952D01*
X145359523Y-111688571D01*
X145264285Y-111736190D01*
X144883333Y-111736190D01*
X145740476Y-111212380D02*
X146073809Y-112212380D01*
X146407142Y-111212380D01*
X146692857Y-111307619D02*
X146740476Y-111260000D01*
X146835714Y-111212380D01*
X147073809Y-111212380D01*
X147169047Y-111260000D01*
X147216666Y-111307619D01*
X147264285Y-111402857D01*
X147264285Y-111498095D01*
X147216666Y-111640952D01*
X146645238Y-112212380D01*
X147264285Y-112212380D01*
X144288095Y-102052380D02*
X143716666Y-102052380D01*
X144002380Y-102052380D02*
X144002380Y-101052380D01*
X143907142Y-101195238D01*
X143811904Y-101290476D01*
X143716666Y-101338095D01*
X144716666Y-102052380D02*
X144716666Y-101052380D01*
X145288095Y-102052380D02*
X144859523Y-101480952D01*
X145288095Y-101052380D02*
X144716666Y-101623809D01*
X146954761Y-102052380D02*
X146478571Y-102052380D01*
X146478571Y-101052380D01*
X147288095Y-102052380D02*
X147288095Y-101052380D01*
X147764285Y-102052380D02*
X147764285Y-101052380D01*
X148335714Y-102052380D01*
X148335714Y-101052380D01*
X145454761Y-124912380D02*
X145121428Y-124436190D01*
X144883333Y-124912380D02*
X144883333Y-123912380D01*
X145264285Y-123912380D01*
X145359523Y-123960000D01*
X145407142Y-124007619D01*
X145454761Y-124102857D01*
X145454761Y-124245714D01*
X145407142Y-124340952D01*
X145359523Y-124388571D01*
X145264285Y-124436190D01*
X144883333Y-124436190D01*
X145740476Y-123912380D02*
X146073809Y-124912380D01*
X146407142Y-123912380D01*
X147264285Y-124912380D02*
X146692857Y-124912380D01*
X146978571Y-124912380D02*
X146978571Y-123912380D01*
X146883333Y-124055238D01*
X146788095Y-124150476D01*
X146692857Y-124198095D01*
X144288095Y-114752380D02*
X143716666Y-114752380D01*
X144002380Y-114752380D02*
X144002380Y-113752380D01*
X143907142Y-113895238D01*
X143811904Y-113990476D01*
X143716666Y-114038095D01*
X144716666Y-114752380D02*
X144716666Y-113752380D01*
X145288095Y-114752380D02*
X144859523Y-114180952D01*
X145288095Y-113752380D02*
X144716666Y-114323809D01*
X146954761Y-114752380D02*
X146478571Y-114752380D01*
X146478571Y-113752380D01*
X147288095Y-114752380D02*
X147288095Y-113752380D01*
X147764285Y-114752380D02*
X147764285Y-113752380D01*
X148335714Y-114752380D01*
X148335714Y-113752380D01*
X122642380Y-108711904D02*
X123451904Y-108711904D01*
X123547142Y-108664285D01*
X123594761Y-108616666D01*
X123642380Y-108521428D01*
X123642380Y-108330952D01*
X123594761Y-108235714D01*
X123547142Y-108188095D01*
X123451904Y-108140476D01*
X122642380Y-108140476D01*
X123642380Y-107140476D02*
X123642380Y-107711904D01*
X123642380Y-107426190D02*
X122642380Y-107426190D01*
X122785238Y-107521428D01*
X122880476Y-107616666D01*
X122928095Y-107711904D01*
X129992380Y-118728571D02*
X128992380Y-118728571D01*
X128992380Y-118347619D02*
X129992380Y-117680952D01*
X128992380Y-117680952D02*
X129992380Y-118347619D01*
X129897142Y-116728571D02*
X129944761Y-116776190D01*
X129992380Y-116919047D01*
X129992380Y-117014285D01*
X129944761Y-117157142D01*
X129849523Y-117252380D01*
X129754285Y-117300000D01*
X129563809Y-117347619D01*
X129420952Y-117347619D01*
X129230476Y-117300000D01*
X129135238Y-117252380D01*
X129040000Y-117157142D01*
X128992380Y-117014285D01*
X128992380Y-116919047D01*
X129040000Y-116776190D01*
X129087619Y-116728571D01*
X129992380Y-116300000D02*
X128992380Y-116300000D01*
X128992380Y-115919047D01*
X129040000Y-115823809D01*
X129087619Y-115776190D01*
X129182857Y-115728571D01*
X129325714Y-115728571D01*
X129420952Y-115776190D01*
X129468571Y-115823809D01*
X129516190Y-115919047D01*
X129516190Y-116300000D01*
X129992380Y-114776190D02*
X129992380Y-115347619D01*
X129992380Y-115061904D02*
X128992380Y-115061904D01*
X129135238Y-115157142D01*
X129230476Y-115252380D01*
X129278095Y-115347619D01*
X128992380Y-114157142D02*
X128992380Y-114061904D01*
X129040000Y-113966666D01*
X129087619Y-113919047D01*
X129182857Y-113871428D01*
X129373333Y-113823809D01*
X129611428Y-113823809D01*
X129801904Y-113871428D01*
X129897142Y-113919047D01*
X129944761Y-113966666D01*
X129992380Y-114061904D01*
X129992380Y-114157142D01*
X129944761Y-114252380D01*
X129897142Y-114300000D01*
X129801904Y-114347619D01*
X129611428Y-114395238D01*
X129373333Y-114395238D01*
X129182857Y-114347619D01*
X129087619Y-114300000D01*
X129040000Y-114252380D01*
X128992380Y-114157142D01*
X129992380Y-113395238D02*
X128992380Y-113395238D01*
X129706666Y-113061904D01*
X128992380Y-112728571D01*
X129992380Y-112728571D01*
X129325714Y-111823809D02*
X129992380Y-111823809D01*
X128944761Y-112061904D02*
X129659047Y-112300000D01*
X129659047Y-111680952D01*
X128992380Y-110823809D02*
X128992380Y-111300000D01*
X129468571Y-111347619D01*
X129420952Y-111300000D01*
X129373333Y-111204761D01*
X129373333Y-110966666D01*
X129420952Y-110871428D01*
X129468571Y-110823809D01*
X129563809Y-110776190D01*
X129801904Y-110776190D01*
X129897142Y-110823809D01*
X129944761Y-110871428D01*
X129992380Y-110966666D01*
X129992380Y-111204761D01*
X129944761Y-111300000D01*
X129897142Y-111347619D01*
X129944761Y-110395238D02*
X129992380Y-110252380D01*
X129992380Y-110014285D01*
X129944761Y-109919047D01*
X129897142Y-109871428D01*
X129801904Y-109823809D01*
X129706666Y-109823809D01*
X129611428Y-109871428D01*
X129563809Y-109919047D01*
X129516190Y-110014285D01*
X129468571Y-110204761D01*
X129420952Y-110300000D01*
X129373333Y-110347619D01*
X129278095Y-110395238D01*
X129182857Y-110395238D01*
X129087619Y-110347619D01*
X129040000Y-110300000D01*
X128992380Y-110204761D01*
X128992380Y-109966666D01*
X129040000Y-109823809D01*
X162012380Y-108711904D02*
X162821904Y-108711904D01*
X162917142Y-108664285D01*
X162964761Y-108616666D01*
X163012380Y-108521428D01*
X163012380Y-108330952D01*
X162964761Y-108235714D01*
X162917142Y-108188095D01*
X162821904Y-108140476D01*
X162012380Y-108140476D01*
X162107619Y-107711904D02*
X162060000Y-107664285D01*
X162012380Y-107569047D01*
X162012380Y-107330952D01*
X162060000Y-107235714D01*
X162107619Y-107188095D01*
X162202857Y-107140476D01*
X162298095Y-107140476D01*
X162440952Y-107188095D01*
X163012380Y-107759523D01*
X163012380Y-107140476D01*
X169362380Y-118728571D02*
X168362380Y-118728571D01*
X168362380Y-118347619D02*
X169362380Y-117680952D01*
X168362380Y-117680952D02*
X169362380Y-118347619D01*
X169267142Y-116728571D02*
X169314761Y-116776190D01*
X169362380Y-116919047D01*
X169362380Y-117014285D01*
X169314761Y-117157142D01*
X169219523Y-117252380D01*
X169124285Y-117300000D01*
X168933809Y-117347619D01*
X168790952Y-117347619D01*
X168600476Y-117300000D01*
X168505238Y-117252380D01*
X168410000Y-117157142D01*
X168362380Y-117014285D01*
X168362380Y-116919047D01*
X168410000Y-116776190D01*
X168457619Y-116728571D01*
X169362380Y-116300000D02*
X168362380Y-116300000D01*
X168362380Y-115919047D01*
X168410000Y-115823809D01*
X168457619Y-115776190D01*
X168552857Y-115728571D01*
X168695714Y-115728571D01*
X168790952Y-115776190D01*
X168838571Y-115823809D01*
X168886190Y-115919047D01*
X168886190Y-116300000D01*
X169362380Y-114776190D02*
X169362380Y-115347619D01*
X169362380Y-115061904D02*
X168362380Y-115061904D01*
X168505238Y-115157142D01*
X168600476Y-115252380D01*
X168648095Y-115347619D01*
X168362380Y-114157142D02*
X168362380Y-114061904D01*
X168410000Y-113966666D01*
X168457619Y-113919047D01*
X168552857Y-113871428D01*
X168743333Y-113823809D01*
X168981428Y-113823809D01*
X169171904Y-113871428D01*
X169267142Y-113919047D01*
X169314761Y-113966666D01*
X169362380Y-114061904D01*
X169362380Y-114157142D01*
X169314761Y-114252380D01*
X169267142Y-114300000D01*
X169171904Y-114347619D01*
X168981428Y-114395238D01*
X168743333Y-114395238D01*
X168552857Y-114347619D01*
X168457619Y-114300000D01*
X168410000Y-114252380D01*
X168362380Y-114157142D01*
X169362380Y-113395238D02*
X168362380Y-113395238D01*
X169076666Y-113061904D01*
X168362380Y-112728571D01*
X169362380Y-112728571D01*
X168695714Y-111823809D02*
X169362380Y-111823809D01*
X168314761Y-112061904D02*
X169029047Y-112300000D01*
X169029047Y-111680952D01*
X168362380Y-110823809D02*
X168362380Y-111300000D01*
X168838571Y-111347619D01*
X168790952Y-111300000D01*
X168743333Y-111204761D01*
X168743333Y-110966666D01*
X168790952Y-110871428D01*
X168838571Y-110823809D01*
X168933809Y-110776190D01*
X169171904Y-110776190D01*
X169267142Y-110823809D01*
X169314761Y-110871428D01*
X169362380Y-110966666D01*
X169362380Y-111204761D01*
X169314761Y-111300000D01*
X169267142Y-111347619D01*
X169314761Y-110395238D02*
X169362380Y-110252380D01*
X169362380Y-110014285D01*
X169314761Y-109919047D01*
X169267142Y-109871428D01*
X169171904Y-109823809D01*
X169076666Y-109823809D01*
X168981428Y-109871428D01*
X168933809Y-109919047D01*
X168886190Y-110014285D01*
X168838571Y-110204761D01*
X168790952Y-110300000D01*
X168743333Y-110347619D01*
X168648095Y-110395238D01*
X168552857Y-110395238D01*
X168457619Y-110347619D01*
X168410000Y-110300000D01*
X168362380Y-110204761D01*
X168362380Y-109966666D01*
X168410000Y-109823809D01*
X135088333Y-97607380D02*
X134755000Y-97131190D01*
X134516904Y-97607380D02*
X134516904Y-96607380D01*
X134897857Y-96607380D01*
X134993095Y-96655000D01*
X135040714Y-96702619D01*
X135088333Y-96797857D01*
X135088333Y-96940714D01*
X135040714Y-97035952D01*
X134993095Y-97083571D01*
X134897857Y-97131190D01*
X134516904Y-97131190D01*
X136040714Y-97607380D02*
X135469285Y-97607380D01*
X135755000Y-97607380D02*
X135755000Y-96607380D01*
X135659761Y-96750238D01*
X135564523Y-96845476D01*
X135469285Y-96893095D01*
X129325714Y-93797380D02*
X128754285Y-93797380D01*
X129040000Y-93797380D02*
X129040000Y-92797380D01*
X128944761Y-92940238D01*
X128849523Y-93035476D01*
X128754285Y-93083095D01*
X129754285Y-93797380D02*
X129754285Y-92797380D01*
X130325714Y-93797380D02*
X129897142Y-93225952D01*
X130325714Y-92797380D02*
X129754285Y-93368809D01*
X141422380Y-110656666D02*
X140946190Y-110990000D01*
X141422380Y-111228095D02*
X140422380Y-111228095D01*
X140422380Y-110847142D01*
X140470000Y-110751904D01*
X140517619Y-110704285D01*
X140612857Y-110656666D01*
X140755714Y-110656666D01*
X140850952Y-110704285D01*
X140898571Y-110751904D01*
X140946190Y-110847142D01*
X140946190Y-111228095D01*
X140517619Y-110275714D02*
X140470000Y-110228095D01*
X140422380Y-110132857D01*
X140422380Y-109894761D01*
X140470000Y-109799523D01*
X140517619Y-109751904D01*
X140612857Y-109704285D01*
X140708095Y-109704285D01*
X140850952Y-109751904D01*
X141422380Y-110323333D01*
X141422380Y-109704285D01*
X137612380Y-110680476D02*
X137612380Y-111251904D01*
X137612380Y-110966190D02*
X136612380Y-110966190D01*
X136755238Y-111061428D01*
X136850476Y-111156666D01*
X136898095Y-111251904D01*
X136612380Y-110061428D02*
X136612380Y-109966190D01*
X136660000Y-109870952D01*
X136707619Y-109823333D01*
X136802857Y-109775714D01*
X136993333Y-109728095D01*
X137231428Y-109728095D01*
X137421904Y-109775714D01*
X137517142Y-109823333D01*
X137564761Y-109870952D01*
X137612380Y-109966190D01*
X137612380Y-110061428D01*
X137564761Y-110156666D01*
X137517142Y-110204285D01*
X137421904Y-110251904D01*
X137231428Y-110299523D01*
X136993333Y-110299523D01*
X136802857Y-110251904D01*
X136707619Y-110204285D01*
X136660000Y-110156666D01*
X136612380Y-110061428D01*
X157948333Y-97607380D02*
X157615000Y-97131190D01*
X157376904Y-97607380D02*
X157376904Y-96607380D01*
X157757857Y-96607380D01*
X157853095Y-96655000D01*
X157900714Y-96702619D01*
X157948333Y-96797857D01*
X157948333Y-96940714D01*
X157900714Y-97035952D01*
X157853095Y-97083571D01*
X157757857Y-97131190D01*
X157376904Y-97131190D01*
X158281666Y-96607380D02*
X158900714Y-96607380D01*
X158567380Y-96988333D01*
X158710238Y-96988333D01*
X158805476Y-97035952D01*
X158853095Y-97083571D01*
X158900714Y-97178809D01*
X158900714Y-97416904D01*
X158853095Y-97512142D01*
X158805476Y-97559761D01*
X158710238Y-97607380D01*
X158424523Y-97607380D01*
X158329285Y-97559761D01*
X158281666Y-97512142D01*
X163615714Y-93797380D02*
X163044285Y-93797380D01*
X163330000Y-93797380D02*
X163330000Y-92797380D01*
X163234761Y-92940238D01*
X163139523Y-93035476D01*
X163044285Y-93083095D01*
X164044285Y-93797380D02*
X164044285Y-92797380D01*
X164615714Y-93797380D02*
X164187142Y-93225952D01*
X164615714Y-92797380D02*
X164044285Y-93368809D01*
X159202380Y-110656666D02*
X158726190Y-110990000D01*
X159202380Y-111228095D02*
X158202380Y-111228095D01*
X158202380Y-110847142D01*
X158250000Y-110751904D01*
X158297619Y-110704285D01*
X158392857Y-110656666D01*
X158535714Y-110656666D01*
X158630952Y-110704285D01*
X158678571Y-110751904D01*
X158726190Y-110847142D01*
X158726190Y-111228095D01*
X158535714Y-109799523D02*
X159202380Y-109799523D01*
X158154761Y-110037619D02*
X158869047Y-110275714D01*
X158869047Y-109656666D01*
X155392380Y-110680476D02*
X155392380Y-111251904D01*
X155392380Y-110966190D02*
X154392380Y-110966190D01*
X154535238Y-111061428D01*
X154630476Y-111156666D01*
X154678095Y-111251904D01*
X154392380Y-110061428D02*
X154392380Y-109966190D01*
X154440000Y-109870952D01*
X154487619Y-109823333D01*
X154582857Y-109775714D01*
X154773333Y-109728095D01*
X155011428Y-109728095D01*
X155201904Y-109775714D01*
X155297142Y-109823333D01*
X155344761Y-109870952D01*
X155392380Y-109966190D01*
X155392380Y-110061428D01*
X155344761Y-110156666D01*
X155297142Y-110204285D01*
X155201904Y-110251904D01*
X155011428Y-110299523D01*
X154773333Y-110299523D01*
X154582857Y-110251904D01*
X154487619Y-110204285D01*
X154440000Y-110156666D01*
X154392380Y-110061428D01*
M02*
