M48
; DRILL file {KiCad (5.1.4-0-10_14)} date Tuesday, September 24, 2019 at 09:23:33 PM
; FORMAT={-:-/ absolute / inch / decimal}
; #@! TF.CreationDate,2019-09-24T21:23:33-07:00
; #@! TF.GenerationSoftware,Kicad,Pcbnew,(5.1.4-0-10_14)
; #@! TF.FileFunction,Plated,1,2,PTH
FMAT,2
INCH
T1C0.0276
T2C0.0394
T3C0.0472
T4C0.0598
T5C0.0984
T6C0.1260
%
G90
G05
T1
X5.75Y-4.6
X5.75Y-4.8
X5.85Y-4.7
X5.75Y-4.1
X5.75Y-4.3
X5.85Y-4.2
T2
X6.4Y-4.4
X6.4Y-4.5
X6.4Y-4.6
X4.85Y-4.4
X4.85Y-4.5
X4.85Y-4.6
T3
X6.15Y-3.675
X6.75Y-3.675
X4.8Y-3.675
X5.4Y-3.675
X6.1Y-4.05
X6.1Y-4.65
X5.4Y-4.05
X5.4Y-4.65
T4
X5.575Y-3.7
X5.775Y-3.7
X5.975Y-3.7
T5
X5.0Y-4.0
X5.0Y-5.0
X6.55Y-4.0
X6.55Y-5.0
T6
X6.95Y-5.1
X6.95Y-3.7
X4.6Y-3.7
X4.6Y-5.1
T0
M30
