G04 #@! TF.FileFunction,Legend,Top*
%FSLAX46Y46*%
G04 Gerber Fmt 4.6, Leading zero omitted, Abs format (unit mm)*
G04 Created by KiCad (PCBNEW 4.0.7) date Wednesday, October 03, 2018 'AMt' 10:44:15 AM*
%MOMM*%
%LPD*%
G01*
G04 APERTURE LIST*
%ADD10C,0.100000*%
%ADD11C,0.187500*%
%ADD12C,0.125000*%
%ADD13C,0.250000*%
%ADD14C,0.300000*%
%ADD15C,0.120000*%
%ADD16C,0.150000*%
G04 APERTURE END LIST*
D10*
D11*
X125158572Y-79635000D02*
X125087143Y-79599286D01*
X124980000Y-79599286D01*
X124872857Y-79635000D01*
X124801429Y-79706429D01*
X124765714Y-79777857D01*
X124730000Y-79920714D01*
X124730000Y-80027857D01*
X124765714Y-80170714D01*
X124801429Y-80242143D01*
X124872857Y-80313571D01*
X124980000Y-80349286D01*
X125051429Y-80349286D01*
X125158572Y-80313571D01*
X125194286Y-80277857D01*
X125194286Y-80027857D01*
X125051429Y-80027857D01*
X125515714Y-80349286D02*
X125515714Y-79599286D01*
X125944286Y-80349286D01*
X125944286Y-79599286D01*
X126301428Y-80349286D02*
X126301428Y-79599286D01*
X126480000Y-79599286D01*
X126587143Y-79635000D01*
X126658571Y-79706429D01*
X126694286Y-79777857D01*
X126730000Y-79920714D01*
X126730000Y-80027857D01*
X126694286Y-80170714D01*
X126658571Y-80242143D01*
X126587143Y-80313571D01*
X126480000Y-80349286D01*
X126301428Y-80349286D01*
X124587144Y-75154286D02*
X124837144Y-75904286D01*
X125087144Y-75154286D01*
X125444286Y-75904286D02*
X125372858Y-75868571D01*
X125337143Y-75832857D01*
X125301429Y-75761429D01*
X125301429Y-75547143D01*
X125337143Y-75475714D01*
X125372858Y-75440000D01*
X125444286Y-75404286D01*
X125551429Y-75404286D01*
X125622858Y-75440000D01*
X125658572Y-75475714D01*
X125694286Y-75547143D01*
X125694286Y-75761429D01*
X125658572Y-75832857D01*
X125622858Y-75868571D01*
X125551429Y-75904286D01*
X125444286Y-75904286D01*
X126337143Y-75404286D02*
X126337143Y-75904286D01*
X126015714Y-75404286D02*
X126015714Y-75797143D01*
X126051429Y-75868571D01*
X126122857Y-75904286D01*
X126230000Y-75904286D01*
X126301429Y-75868571D01*
X126337143Y-75832857D01*
X126587143Y-75404286D02*
X126872857Y-75404286D01*
X126694285Y-75154286D02*
X126694285Y-75797143D01*
X126730000Y-75868571D01*
X126801428Y-75904286D01*
X126872857Y-75904286D01*
X124962144Y-64994286D02*
X125212144Y-65744286D01*
X125462144Y-64994286D01*
X125712143Y-65744286D02*
X125712143Y-65244286D01*
X125712143Y-64994286D02*
X125676429Y-65030000D01*
X125712143Y-65065714D01*
X125747858Y-65030000D01*
X125712143Y-64994286D01*
X125712143Y-65065714D01*
X126069286Y-65244286D02*
X126069286Y-65744286D01*
X126069286Y-65315714D02*
X126105001Y-65280000D01*
X126176429Y-65244286D01*
X126283572Y-65244286D01*
X126355001Y-65280000D01*
X126390715Y-65351429D01*
X126390715Y-65744286D01*
D12*
X180054286Y-80017142D02*
X179304286Y-80017142D01*
X179840000Y-79767142D01*
X179304286Y-79517142D01*
X180054286Y-79517142D01*
X179304286Y-79017141D02*
X179304286Y-78874284D01*
X179340000Y-78802856D01*
X179411429Y-78731427D01*
X179554286Y-78695713D01*
X179804286Y-78695713D01*
X179947143Y-78731427D01*
X180018571Y-78802856D01*
X180054286Y-78874284D01*
X180054286Y-79017141D01*
X180018571Y-79088570D01*
X179947143Y-79159999D01*
X179804286Y-79195713D01*
X179554286Y-79195713D01*
X179411429Y-79159999D01*
X179340000Y-79088570D01*
X179304286Y-79017141D01*
X180018571Y-78409999D02*
X180054286Y-78302856D01*
X180054286Y-78124285D01*
X180018571Y-78052856D01*
X179982857Y-78017142D01*
X179911429Y-77981427D01*
X179840000Y-77981427D01*
X179768571Y-78017142D01*
X179732857Y-78052856D01*
X179697143Y-78124285D01*
X179661429Y-78267142D01*
X179625714Y-78338570D01*
X179590000Y-78374285D01*
X179518571Y-78409999D01*
X179447143Y-78409999D01*
X179375714Y-78374285D01*
X179340000Y-78338570D01*
X179304286Y-78267142D01*
X179304286Y-78088570D01*
X179340000Y-77981427D01*
X179661429Y-77409999D02*
X179661429Y-77659999D01*
X180054286Y-77659999D02*
X179304286Y-77659999D01*
X179304286Y-77302856D01*
X179661429Y-77017142D02*
X179661429Y-76767142D01*
X180054286Y-76659999D02*
X180054286Y-77017142D01*
X179304286Y-77017142D01*
X179304286Y-76659999D01*
X179304286Y-76445713D02*
X179304286Y-76017142D01*
X180054286Y-76231428D02*
X179304286Y-76231428D01*
X179554286Y-75195713D02*
X180304286Y-75195713D01*
X179590000Y-75195713D02*
X179554286Y-75124284D01*
X179554286Y-74981427D01*
X179590000Y-74909998D01*
X179625714Y-74874284D01*
X179697143Y-74838570D01*
X179911429Y-74838570D01*
X179982857Y-74874284D01*
X180018571Y-74909998D01*
X180054286Y-74981427D01*
X180054286Y-75124284D01*
X180018571Y-75195713D01*
X180054286Y-74195713D02*
X179661429Y-74195713D01*
X179590000Y-74231427D01*
X179554286Y-74302856D01*
X179554286Y-74445713D01*
X179590000Y-74517142D01*
X180018571Y-74195713D02*
X180054286Y-74267142D01*
X180054286Y-74445713D01*
X180018571Y-74517142D01*
X179947143Y-74552856D01*
X179875714Y-74552856D01*
X179804286Y-74517142D01*
X179768571Y-74445713D01*
X179768571Y-74267142D01*
X179732857Y-74195713D01*
X180018571Y-73874285D02*
X180054286Y-73802856D01*
X180054286Y-73659999D01*
X180018571Y-73588571D01*
X179947143Y-73552856D01*
X179911429Y-73552856D01*
X179840000Y-73588571D01*
X179804286Y-73659999D01*
X179804286Y-73767142D01*
X179768571Y-73838571D01*
X179697143Y-73874285D01*
X179661429Y-73874285D01*
X179590000Y-73838571D01*
X179554286Y-73767142D01*
X179554286Y-73659999D01*
X179590000Y-73588571D01*
X180018571Y-73267142D02*
X180054286Y-73195713D01*
X180054286Y-73052856D01*
X180018571Y-72981428D01*
X179947143Y-72945713D01*
X179911429Y-72945713D01*
X179840000Y-72981428D01*
X179804286Y-73052856D01*
X179804286Y-73159999D01*
X179768571Y-73231428D01*
X179697143Y-73267142D01*
X179661429Y-73267142D01*
X179590000Y-73231428D01*
X179554286Y-73159999D01*
X179554286Y-73052856D01*
X179590000Y-72981428D01*
X180054286Y-72052856D02*
X179554286Y-72052856D01*
X179697143Y-72052856D02*
X179625714Y-72017141D01*
X179590000Y-71981427D01*
X179554286Y-71909998D01*
X179554286Y-71838570D01*
X180018571Y-71302855D02*
X180054286Y-71374284D01*
X180054286Y-71517141D01*
X180018571Y-71588570D01*
X179947143Y-71624284D01*
X179661429Y-71624284D01*
X179590000Y-71588570D01*
X179554286Y-71517141D01*
X179554286Y-71374284D01*
X179590000Y-71302855D01*
X179661429Y-71267141D01*
X179732857Y-71267141D01*
X179804286Y-71624284D01*
X179554286Y-70624284D02*
X180161429Y-70624284D01*
X180232857Y-70659998D01*
X180268571Y-70695713D01*
X180304286Y-70767141D01*
X180304286Y-70874284D01*
X180268571Y-70945713D01*
X180018571Y-70624284D02*
X180054286Y-70695713D01*
X180054286Y-70838570D01*
X180018571Y-70909998D01*
X179982857Y-70945713D01*
X179911429Y-70981427D01*
X179697143Y-70981427D01*
X179625714Y-70945713D01*
X179590000Y-70909998D01*
X179554286Y-70838570D01*
X179554286Y-70695713D01*
X179590000Y-70624284D01*
X179554286Y-69945713D02*
X180054286Y-69945713D01*
X179554286Y-70267142D02*
X179947143Y-70267142D01*
X180018571Y-70231427D01*
X180054286Y-70159999D01*
X180054286Y-70052856D01*
X180018571Y-69981427D01*
X179982857Y-69945713D01*
X180054286Y-69481428D02*
X180018571Y-69552856D01*
X179947143Y-69588571D01*
X179304286Y-69588571D01*
X180054286Y-68874285D02*
X179661429Y-68874285D01*
X179590000Y-68909999D01*
X179554286Y-68981428D01*
X179554286Y-69124285D01*
X179590000Y-69195714D01*
X180018571Y-68874285D02*
X180054286Y-68945714D01*
X180054286Y-69124285D01*
X180018571Y-69195714D01*
X179947143Y-69231428D01*
X179875714Y-69231428D01*
X179804286Y-69195714D01*
X179768571Y-69124285D01*
X179768571Y-68945714D01*
X179732857Y-68874285D01*
X179554286Y-68624285D02*
X179554286Y-68338571D01*
X179304286Y-68517143D02*
X179947143Y-68517143D01*
X180018571Y-68481428D01*
X180054286Y-68410000D01*
X180054286Y-68338571D01*
X180054286Y-67981429D02*
X180018571Y-68052857D01*
X179982857Y-68088572D01*
X179911429Y-68124286D01*
X179697143Y-68124286D01*
X179625714Y-68088572D01*
X179590000Y-68052857D01*
X179554286Y-67981429D01*
X179554286Y-67874286D01*
X179590000Y-67802857D01*
X179625714Y-67767143D01*
X179697143Y-67731429D01*
X179911429Y-67731429D01*
X179982857Y-67767143D01*
X180018571Y-67802857D01*
X180054286Y-67874286D01*
X180054286Y-67981429D01*
X180054286Y-67410001D02*
X179554286Y-67410001D01*
X179697143Y-67410001D02*
X179625714Y-67374286D01*
X179590000Y-67338572D01*
X179554286Y-67267143D01*
X179554286Y-67195715D01*
X180911429Y-85035002D02*
X180947143Y-84927859D01*
X180982857Y-84892144D01*
X181054286Y-84856430D01*
X181161429Y-84856430D01*
X181232857Y-84892144D01*
X181268571Y-84927859D01*
X181304286Y-84999287D01*
X181304286Y-85285002D01*
X180554286Y-85285002D01*
X180554286Y-85035002D01*
X180590000Y-84963573D01*
X180625714Y-84927859D01*
X180697143Y-84892144D01*
X180768571Y-84892144D01*
X180840000Y-84927859D01*
X180875714Y-84963573D01*
X180911429Y-85035002D01*
X180911429Y-85285002D01*
X181304286Y-84427859D02*
X181268571Y-84499287D01*
X181232857Y-84535002D01*
X181161429Y-84570716D01*
X180947143Y-84570716D01*
X180875714Y-84535002D01*
X180840000Y-84499287D01*
X180804286Y-84427859D01*
X180804286Y-84320716D01*
X180840000Y-84249287D01*
X180875714Y-84213573D01*
X180947143Y-84177859D01*
X181161429Y-84177859D01*
X181232857Y-84213573D01*
X181268571Y-84249287D01*
X181304286Y-84320716D01*
X181304286Y-84427859D01*
X181304286Y-83535002D02*
X180911429Y-83535002D01*
X180840000Y-83570716D01*
X180804286Y-83642145D01*
X180804286Y-83785002D01*
X180840000Y-83856431D01*
X181268571Y-83535002D02*
X181304286Y-83606431D01*
X181304286Y-83785002D01*
X181268571Y-83856431D01*
X181197143Y-83892145D01*
X181125714Y-83892145D01*
X181054286Y-83856431D01*
X181018571Y-83785002D01*
X181018571Y-83606431D01*
X180982857Y-83535002D01*
X181304286Y-83177860D02*
X180804286Y-83177860D01*
X180947143Y-83177860D02*
X180875714Y-83142145D01*
X180840000Y-83106431D01*
X180804286Y-83035002D01*
X180804286Y-82963574D01*
X181304286Y-82392145D02*
X180554286Y-82392145D01*
X181268571Y-82392145D02*
X181304286Y-82463574D01*
X181304286Y-82606431D01*
X181268571Y-82677859D01*
X181232857Y-82713574D01*
X181161429Y-82749288D01*
X180947143Y-82749288D01*
X180875714Y-82713574D01*
X180840000Y-82677859D01*
X180804286Y-82606431D01*
X180804286Y-82463574D01*
X180840000Y-82392145D01*
X181304286Y-81463574D02*
X180804286Y-81463574D01*
X180947143Y-81463574D02*
X180875714Y-81427859D01*
X180840000Y-81392145D01*
X180804286Y-81320716D01*
X180804286Y-81249288D01*
X181268571Y-80713573D02*
X181304286Y-80785002D01*
X181304286Y-80927859D01*
X181268571Y-80999288D01*
X181197143Y-81035002D01*
X180911429Y-81035002D01*
X180840000Y-80999288D01*
X180804286Y-80927859D01*
X180804286Y-80785002D01*
X180840000Y-80713573D01*
X180911429Y-80677859D01*
X180982857Y-80677859D01*
X181054286Y-81035002D01*
X180804286Y-80427859D02*
X181304286Y-80249288D01*
X180804286Y-80070716D01*
X181304286Y-78820715D02*
X181304286Y-79249287D01*
X181304286Y-79035001D02*
X180554286Y-79035001D01*
X180661429Y-79106430D01*
X180732857Y-79177858D01*
X180768571Y-79249287D01*
X181232857Y-78499287D02*
X181268571Y-78463572D01*
X181304286Y-78499287D01*
X181268571Y-78535001D01*
X181232857Y-78499287D01*
X181304286Y-78499287D01*
X181304286Y-77749286D02*
X181304286Y-78177858D01*
X181304286Y-77963572D02*
X180554286Y-77963572D01*
X180661429Y-78035001D01*
X180732857Y-78106429D01*
X180768571Y-78177858D01*
X181268571Y-77392143D02*
X181304286Y-77392143D01*
X181375714Y-77427858D01*
X181411429Y-77463572D01*
X181590000Y-76285000D02*
X181554286Y-76320714D01*
X181447143Y-76392143D01*
X181375714Y-76427857D01*
X181268571Y-76463571D01*
X181090000Y-76499286D01*
X180947143Y-76499286D01*
X180768571Y-76463571D01*
X180661429Y-76427857D01*
X180590000Y-76392143D01*
X180482857Y-76320714D01*
X180447143Y-76285000D01*
X181268571Y-75677857D02*
X181304286Y-75749286D01*
X181304286Y-75892143D01*
X181268571Y-75963571D01*
X181232857Y-75999286D01*
X181161429Y-76035000D01*
X180947143Y-76035000D01*
X180875714Y-75999286D01*
X180840000Y-75963571D01*
X180804286Y-75892143D01*
X180804286Y-75749286D01*
X180840000Y-75677857D01*
X181590000Y-75427857D02*
X181554286Y-75392143D01*
X181447143Y-75320714D01*
X181375714Y-75285000D01*
X181268571Y-75249286D01*
X181090000Y-75213571D01*
X180947143Y-75213571D01*
X180768571Y-75249286D01*
X180661429Y-75285000D01*
X180590000Y-75320714D01*
X180482857Y-75392143D01*
X180447143Y-75427857D01*
X180625714Y-74320714D02*
X180590000Y-74285000D01*
X180554286Y-74213571D01*
X180554286Y-74035000D01*
X180590000Y-73963571D01*
X180625714Y-73927857D01*
X180697143Y-73892142D01*
X180768571Y-73892142D01*
X180875714Y-73927857D01*
X181304286Y-74356428D01*
X181304286Y-73892142D01*
X180554286Y-73427856D02*
X180554286Y-73356428D01*
X180590000Y-73284999D01*
X180625714Y-73249285D01*
X180697143Y-73213571D01*
X180840000Y-73177856D01*
X181018571Y-73177856D01*
X181161429Y-73213571D01*
X181232857Y-73249285D01*
X181268571Y-73284999D01*
X181304286Y-73356428D01*
X181304286Y-73427856D01*
X181268571Y-73499285D01*
X181232857Y-73534999D01*
X181161429Y-73570714D01*
X181018571Y-73606428D01*
X180840000Y-73606428D01*
X180697143Y-73570714D01*
X180625714Y-73534999D01*
X180590000Y-73499285D01*
X180554286Y-73427856D01*
X181304286Y-72463570D02*
X181304286Y-72892142D01*
X181304286Y-72677856D02*
X180554286Y-72677856D01*
X180661429Y-72749285D01*
X180732857Y-72820713D01*
X180768571Y-72892142D01*
X180875714Y-72034999D02*
X180840000Y-72106427D01*
X180804286Y-72142142D01*
X180732857Y-72177856D01*
X180697143Y-72177856D01*
X180625714Y-72142142D01*
X180590000Y-72106427D01*
X180554286Y-72034999D01*
X180554286Y-71892142D01*
X180590000Y-71820713D01*
X180625714Y-71784999D01*
X180697143Y-71749284D01*
X180732857Y-71749284D01*
X180804286Y-71784999D01*
X180840000Y-71820713D01*
X180875714Y-71892142D01*
X180875714Y-72034999D01*
X180911429Y-72106427D01*
X180947143Y-72142142D01*
X181018571Y-72177856D01*
X181161429Y-72177856D01*
X181232857Y-72142142D01*
X181268571Y-72106427D01*
X181304286Y-72034999D01*
X181304286Y-71892142D01*
X181268571Y-71820713D01*
X181232857Y-71784999D01*
X181161429Y-71749284D01*
X181018571Y-71749284D01*
X180947143Y-71784999D01*
X180911429Y-71820713D01*
X180875714Y-71892142D01*
X180554286Y-70642141D02*
X181090000Y-70642141D01*
X181197143Y-70677855D01*
X181268571Y-70749284D01*
X181304286Y-70856427D01*
X181304286Y-70927855D01*
X181304286Y-69963569D02*
X180911429Y-69963569D01*
X180840000Y-69999283D01*
X180804286Y-70070712D01*
X180804286Y-70213569D01*
X180840000Y-70284998D01*
X181268571Y-69963569D02*
X181304286Y-70034998D01*
X181304286Y-70213569D01*
X181268571Y-70284998D01*
X181197143Y-70320712D01*
X181125714Y-70320712D01*
X181054286Y-70284998D01*
X181018571Y-70213569D01*
X181018571Y-70034998D01*
X180982857Y-69963569D01*
X181268571Y-69642141D02*
X181304286Y-69570712D01*
X181304286Y-69427855D01*
X181268571Y-69356427D01*
X181197143Y-69320712D01*
X181161429Y-69320712D01*
X181090000Y-69356427D01*
X181054286Y-69427855D01*
X181054286Y-69534998D01*
X181018571Y-69606427D01*
X180947143Y-69642141D01*
X180911429Y-69642141D01*
X180840000Y-69606427D01*
X180804286Y-69534998D01*
X180804286Y-69427855D01*
X180840000Y-69356427D01*
X181304286Y-68892141D02*
X181268571Y-68963569D01*
X181232857Y-68999284D01*
X181161429Y-69034998D01*
X180947143Y-69034998D01*
X180875714Y-68999284D01*
X180840000Y-68963569D01*
X180804286Y-68892141D01*
X180804286Y-68784998D01*
X180840000Y-68713569D01*
X180875714Y-68677855D01*
X180947143Y-68642141D01*
X181161429Y-68642141D01*
X181232857Y-68677855D01*
X181268571Y-68713569D01*
X181304286Y-68784998D01*
X181304286Y-68892141D01*
X180804286Y-68320713D02*
X181304286Y-68320713D01*
X180875714Y-68320713D02*
X180840000Y-68284998D01*
X180804286Y-68213570D01*
X180804286Y-68106427D01*
X180840000Y-68034998D01*
X180911429Y-67999284D01*
X181304286Y-67999284D01*
X181304286Y-66642141D02*
X180947143Y-66892141D01*
X181304286Y-67070713D02*
X180554286Y-67070713D01*
X180554286Y-66784998D01*
X180590000Y-66713570D01*
X180625714Y-66677855D01*
X180697143Y-66642141D01*
X180804286Y-66642141D01*
X180875714Y-66677855D01*
X180911429Y-66713570D01*
X180947143Y-66784998D01*
X180947143Y-67070713D01*
X181232857Y-66320713D02*
X181268571Y-66284998D01*
X181304286Y-66320713D01*
X181268571Y-66356427D01*
X181232857Y-66320713D01*
X181304286Y-66320713D01*
X180554286Y-65499283D02*
X180554286Y-65070712D01*
X181304286Y-65284998D02*
X180554286Y-65284998D01*
X181304286Y-64820712D02*
X180554286Y-64820712D01*
X181304286Y-64499283D02*
X180911429Y-64499283D01*
X180840000Y-64534997D01*
X180804286Y-64606426D01*
X180804286Y-64713569D01*
X180840000Y-64784997D01*
X180875714Y-64820712D01*
X181304286Y-64034998D02*
X181268571Y-64106426D01*
X181232857Y-64142141D01*
X181161429Y-64177855D01*
X180947143Y-64177855D01*
X180875714Y-64142141D01*
X180840000Y-64106426D01*
X180804286Y-64034998D01*
X180804286Y-63927855D01*
X180840000Y-63856426D01*
X180875714Y-63820712D01*
X180947143Y-63784998D01*
X181161429Y-63784998D01*
X181232857Y-63820712D01*
X181268571Y-63856426D01*
X181304286Y-63927855D01*
X181304286Y-64034998D01*
X181304286Y-63463570D02*
X180804286Y-63463570D01*
X180947143Y-63463570D02*
X180875714Y-63427855D01*
X180840000Y-63392141D01*
X180804286Y-63320712D01*
X180804286Y-63249284D01*
X180804286Y-62999284D02*
X181554286Y-62999284D01*
X180840000Y-62999284D02*
X180804286Y-62927855D01*
X180804286Y-62784998D01*
X180840000Y-62713569D01*
X180875714Y-62677855D01*
X180947143Y-62642141D01*
X181161429Y-62642141D01*
X181232857Y-62677855D01*
X181268571Y-62713569D01*
X181304286Y-62784998D01*
X181304286Y-62927855D01*
X181268571Y-62999284D01*
X181268571Y-62034998D02*
X181304286Y-62106427D01*
X181304286Y-62249284D01*
X181268571Y-62320713D01*
X181197143Y-62356427D01*
X180911429Y-62356427D01*
X180840000Y-62320713D01*
X180804286Y-62249284D01*
X180804286Y-62106427D01*
X180840000Y-62034998D01*
X180911429Y-61999284D01*
X180982857Y-61999284D01*
X181054286Y-62356427D01*
D13*
X137628572Y-77398571D02*
X137771429Y-77446190D01*
X137819048Y-77493810D01*
X137866667Y-77589048D01*
X137866667Y-77731905D01*
X137819048Y-77827143D01*
X137771429Y-77874762D01*
X137676191Y-77922381D01*
X137295238Y-77922381D01*
X137295238Y-76922381D01*
X137628572Y-76922381D01*
X137723810Y-76970000D01*
X137771429Y-77017619D01*
X137819048Y-77112857D01*
X137819048Y-77208095D01*
X137771429Y-77303333D01*
X137723810Y-77350952D01*
X137628572Y-77398571D01*
X137295238Y-77398571D01*
X138438095Y-77922381D02*
X138342857Y-77874762D01*
X138295238Y-77827143D01*
X138247619Y-77731905D01*
X138247619Y-77446190D01*
X138295238Y-77350952D01*
X138342857Y-77303333D01*
X138438095Y-77255714D01*
X138580953Y-77255714D01*
X138676191Y-77303333D01*
X138723810Y-77350952D01*
X138771429Y-77446190D01*
X138771429Y-77731905D01*
X138723810Y-77827143D01*
X138676191Y-77874762D01*
X138580953Y-77922381D01*
X138438095Y-77922381D01*
X139057143Y-77255714D02*
X139438095Y-77255714D01*
X139200000Y-76922381D02*
X139200000Y-77779524D01*
X139247619Y-77874762D01*
X139342857Y-77922381D01*
X139438095Y-77922381D01*
X139628572Y-77255714D02*
X140009524Y-77255714D01*
X139771429Y-76922381D02*
X139771429Y-77779524D01*
X139819048Y-77874762D01*
X139914286Y-77922381D01*
X140009524Y-77922381D01*
X140485715Y-77922381D02*
X140390477Y-77874762D01*
X140342858Y-77827143D01*
X140295239Y-77731905D01*
X140295239Y-77446190D01*
X140342858Y-77350952D01*
X140390477Y-77303333D01*
X140485715Y-77255714D01*
X140628573Y-77255714D01*
X140723811Y-77303333D01*
X140771430Y-77350952D01*
X140819049Y-77446190D01*
X140819049Y-77731905D01*
X140771430Y-77827143D01*
X140723811Y-77874762D01*
X140628573Y-77922381D01*
X140485715Y-77922381D01*
X141247620Y-77922381D02*
X141247620Y-77255714D01*
X141247620Y-77350952D02*
X141295239Y-77303333D01*
X141390477Y-77255714D01*
X141533335Y-77255714D01*
X141628573Y-77303333D01*
X141676192Y-77398571D01*
X141676192Y-77922381D01*
X141676192Y-77398571D02*
X141723811Y-77303333D01*
X141819049Y-77255714D01*
X141961906Y-77255714D01*
X142057144Y-77303333D01*
X142104763Y-77398571D01*
X142104763Y-77922381D01*
X137628572Y-82478571D02*
X137771429Y-82526190D01*
X137819048Y-82573810D01*
X137866667Y-82669048D01*
X137866667Y-82811905D01*
X137819048Y-82907143D01*
X137771429Y-82954762D01*
X137676191Y-83002381D01*
X137295238Y-83002381D01*
X137295238Y-82002381D01*
X137628572Y-82002381D01*
X137723810Y-82050000D01*
X137771429Y-82097619D01*
X137819048Y-82192857D01*
X137819048Y-82288095D01*
X137771429Y-82383333D01*
X137723810Y-82430952D01*
X137628572Y-82478571D01*
X137295238Y-82478571D01*
X138438095Y-83002381D02*
X138342857Y-82954762D01*
X138295238Y-82907143D01*
X138247619Y-82811905D01*
X138247619Y-82526190D01*
X138295238Y-82430952D01*
X138342857Y-82383333D01*
X138438095Y-82335714D01*
X138580953Y-82335714D01*
X138676191Y-82383333D01*
X138723810Y-82430952D01*
X138771429Y-82526190D01*
X138771429Y-82811905D01*
X138723810Y-82907143D01*
X138676191Y-82954762D01*
X138580953Y-83002381D01*
X138438095Y-83002381D01*
X139057143Y-82335714D02*
X139438095Y-82335714D01*
X139200000Y-82002381D02*
X139200000Y-82859524D01*
X139247619Y-82954762D01*
X139342857Y-83002381D01*
X139438095Y-83002381D01*
X139628572Y-82335714D02*
X140009524Y-82335714D01*
X139771429Y-82002381D02*
X139771429Y-82859524D01*
X139819048Y-82954762D01*
X139914286Y-83002381D01*
X140009524Y-83002381D01*
X140485715Y-83002381D02*
X140390477Y-82954762D01*
X140342858Y-82907143D01*
X140295239Y-82811905D01*
X140295239Y-82526190D01*
X140342858Y-82430952D01*
X140390477Y-82383333D01*
X140485715Y-82335714D01*
X140628573Y-82335714D01*
X140723811Y-82383333D01*
X140771430Y-82430952D01*
X140819049Y-82526190D01*
X140819049Y-82811905D01*
X140771430Y-82907143D01*
X140723811Y-82954762D01*
X140628573Y-83002381D01*
X140485715Y-83002381D01*
X141247620Y-83002381D02*
X141247620Y-82335714D01*
X141247620Y-82430952D02*
X141295239Y-82383333D01*
X141390477Y-82335714D01*
X141533335Y-82335714D01*
X141628573Y-82383333D01*
X141676192Y-82478571D01*
X141676192Y-83002381D01*
X141676192Y-82478571D02*
X141723811Y-82383333D01*
X141819049Y-82335714D01*
X141961906Y-82335714D01*
X142057144Y-82383333D01*
X142104763Y-82478571D01*
X142104763Y-83002381D01*
X136612381Y-64690476D02*
X136612381Y-64119047D01*
X137612381Y-64404762D02*
X136612381Y-64404762D01*
X137612381Y-63642857D02*
X137564762Y-63738095D01*
X137517143Y-63785714D01*
X137421905Y-63833333D01*
X137136190Y-63833333D01*
X137040952Y-63785714D01*
X136993333Y-63738095D01*
X136945714Y-63642857D01*
X136945714Y-63499999D01*
X136993333Y-63404761D01*
X137040952Y-63357142D01*
X137136190Y-63309523D01*
X137421905Y-63309523D01*
X137517143Y-63357142D01*
X137564762Y-63404761D01*
X137612381Y-63499999D01*
X137612381Y-63642857D01*
X136945714Y-62880952D02*
X137945714Y-62880952D01*
X136993333Y-62880952D02*
X136945714Y-62785714D01*
X136945714Y-62595237D01*
X136993333Y-62499999D01*
X137040952Y-62452380D01*
X137136190Y-62404761D01*
X137421905Y-62404761D01*
X137517143Y-62452380D01*
X137564762Y-62499999D01*
X137612381Y-62595237D01*
X137612381Y-62785714D01*
X137564762Y-62880952D01*
X131532381Y-64690476D02*
X131532381Y-64119047D01*
X132532381Y-64404762D02*
X131532381Y-64404762D01*
X132532381Y-63642857D02*
X132484762Y-63738095D01*
X132437143Y-63785714D01*
X132341905Y-63833333D01*
X132056190Y-63833333D01*
X131960952Y-63785714D01*
X131913333Y-63738095D01*
X131865714Y-63642857D01*
X131865714Y-63499999D01*
X131913333Y-63404761D01*
X131960952Y-63357142D01*
X132056190Y-63309523D01*
X132341905Y-63309523D01*
X132437143Y-63357142D01*
X132484762Y-63404761D01*
X132532381Y-63499999D01*
X132532381Y-63642857D01*
X131865714Y-62880952D02*
X132865714Y-62880952D01*
X131913333Y-62880952D02*
X131865714Y-62785714D01*
X131865714Y-62595237D01*
X131913333Y-62499999D01*
X131960952Y-62452380D01*
X132056190Y-62404761D01*
X132341905Y-62404761D01*
X132437143Y-62452380D01*
X132484762Y-62499999D01*
X132532381Y-62595237D01*
X132532381Y-62785714D01*
X132484762Y-62880952D01*
D14*
X162830000Y-80688571D02*
X161972857Y-80688571D01*
X162401429Y-80688571D02*
X162401429Y-79188571D01*
X162258572Y-79402857D01*
X162115714Y-79545714D01*
X161972857Y-79617143D01*
X163472857Y-79688571D02*
X163472857Y-81188571D01*
X164187143Y-80474286D02*
X164258571Y-80617143D01*
X164401428Y-80688571D01*
X163472857Y-80474286D02*
X163544285Y-80617143D01*
X163687143Y-80688571D01*
X163972857Y-80688571D01*
X164115714Y-80617143D01*
X164187143Y-80474286D01*
X164187143Y-79688571D01*
X165544286Y-79902857D02*
X165044286Y-79902857D01*
X165044286Y-80688571D02*
X165044286Y-79188571D01*
X165758572Y-79188571D01*
D13*
X156678572Y-71048571D02*
X156821429Y-71096190D01*
X156869048Y-71143810D01*
X156916667Y-71239048D01*
X156916667Y-71381905D01*
X156869048Y-71477143D01*
X156821429Y-71524762D01*
X156726191Y-71572381D01*
X156345238Y-71572381D01*
X156345238Y-70572381D01*
X156678572Y-70572381D01*
X156773810Y-70620000D01*
X156821429Y-70667619D01*
X156869048Y-70762857D01*
X156869048Y-70858095D01*
X156821429Y-70953333D01*
X156773810Y-71000952D01*
X156678572Y-71048571D01*
X156345238Y-71048571D01*
X157488095Y-71572381D02*
X157392857Y-71524762D01*
X157345238Y-71477143D01*
X157297619Y-71381905D01*
X157297619Y-71096190D01*
X157345238Y-71000952D01*
X157392857Y-70953333D01*
X157488095Y-70905714D01*
X157630953Y-70905714D01*
X157726191Y-70953333D01*
X157773810Y-71000952D01*
X157821429Y-71096190D01*
X157821429Y-71381905D01*
X157773810Y-71477143D01*
X157726191Y-71524762D01*
X157630953Y-71572381D01*
X157488095Y-71572381D01*
X158107143Y-70905714D02*
X158488095Y-70905714D01*
X158250000Y-70572381D02*
X158250000Y-71429524D01*
X158297619Y-71524762D01*
X158392857Y-71572381D01*
X158488095Y-71572381D01*
X158678572Y-70905714D02*
X159059524Y-70905714D01*
X158821429Y-70572381D02*
X158821429Y-71429524D01*
X158869048Y-71524762D01*
X158964286Y-71572381D01*
X159059524Y-71572381D01*
X159535715Y-71572381D02*
X159440477Y-71524762D01*
X159392858Y-71477143D01*
X159345239Y-71381905D01*
X159345239Y-71096190D01*
X159392858Y-71000952D01*
X159440477Y-70953333D01*
X159535715Y-70905714D01*
X159678573Y-70905714D01*
X159773811Y-70953333D01*
X159821430Y-71000952D01*
X159869049Y-71096190D01*
X159869049Y-71381905D01*
X159821430Y-71477143D01*
X159773811Y-71524762D01*
X159678573Y-71572381D01*
X159535715Y-71572381D01*
X160297620Y-71572381D02*
X160297620Y-70905714D01*
X160297620Y-71000952D02*
X160345239Y-70953333D01*
X160440477Y-70905714D01*
X160583335Y-70905714D01*
X160678573Y-70953333D01*
X160726192Y-71048571D01*
X160726192Y-71572381D01*
X160726192Y-71048571D02*
X160773811Y-70953333D01*
X160869049Y-70905714D01*
X161011906Y-70905714D01*
X161107144Y-70953333D01*
X161154763Y-71048571D01*
X161154763Y-71572381D01*
X157559524Y-65492381D02*
X158130953Y-65492381D01*
X157845238Y-66492381D02*
X157845238Y-65492381D01*
X158607143Y-66492381D02*
X158511905Y-66444762D01*
X158464286Y-66397143D01*
X158416667Y-66301905D01*
X158416667Y-66016190D01*
X158464286Y-65920952D01*
X158511905Y-65873333D01*
X158607143Y-65825714D01*
X158750001Y-65825714D01*
X158845239Y-65873333D01*
X158892858Y-65920952D01*
X158940477Y-66016190D01*
X158940477Y-66301905D01*
X158892858Y-66397143D01*
X158845239Y-66444762D01*
X158750001Y-66492381D01*
X158607143Y-66492381D01*
X159369048Y-65825714D02*
X159369048Y-66825714D01*
X159369048Y-65873333D02*
X159464286Y-65825714D01*
X159654763Y-65825714D01*
X159750001Y-65873333D01*
X159797620Y-65920952D01*
X159845239Y-66016190D01*
X159845239Y-66301905D01*
X159797620Y-66397143D01*
X159750001Y-66444762D01*
X159654763Y-66492381D01*
X159464286Y-66492381D01*
X159369048Y-66444762D01*
D15*
X126746000Y-100330000D02*
G75*
G03X126746000Y-100330000I-2286000J0D01*
G01*
X150340000Y-74700000D02*
X176960000Y-74700000D01*
X150340000Y-85320000D02*
X176960000Y-85320000D01*
X150340000Y-74700000D02*
X150340000Y-85320000D01*
X176960000Y-74700000D02*
X176960000Y-85320000D01*
X121920000Y-59690000D02*
X129540000Y-59690000D01*
X121920000Y-85090000D02*
X129540000Y-85090000D01*
X123190000Y-59690000D02*
X123190000Y-85090000D01*
X129540000Y-59690000D02*
X129540000Y-85090000D01*
X121920000Y-59690000D02*
X121920000Y-85090000D01*
X153740000Y-64180000D02*
X153740000Y-67900000D01*
X153740000Y-67900000D02*
X163760000Y-67900000D01*
X163760000Y-67900000D02*
X163760000Y-64180000D01*
X163760000Y-64180000D02*
X153740000Y-64180000D01*
X152510000Y-66040000D02*
X153740000Y-66040000D01*
X164990000Y-66040000D02*
X163760000Y-66040000D01*
X163760000Y-72980000D02*
X163760000Y-69260000D01*
X163760000Y-69260000D02*
X153740000Y-69260000D01*
X153740000Y-69260000D02*
X153740000Y-72980000D01*
X153740000Y-72980000D02*
X163760000Y-72980000D01*
X164990000Y-71120000D02*
X163760000Y-71120000D01*
X152510000Y-71120000D02*
X153740000Y-71120000D01*
X133940000Y-58490000D02*
X130220000Y-58490000D01*
X130220000Y-58490000D02*
X130220000Y-68510000D01*
X130220000Y-68510000D02*
X133940000Y-68510000D01*
X133940000Y-68510000D02*
X133940000Y-58490000D01*
X132080000Y-57260000D02*
X132080000Y-58490000D01*
X132080000Y-69740000D02*
X132080000Y-68510000D01*
X135300000Y-68510000D02*
X139020000Y-68510000D01*
X139020000Y-68510000D02*
X139020000Y-58490000D01*
X139020000Y-58490000D02*
X135300000Y-58490000D01*
X135300000Y-58490000D02*
X135300000Y-68510000D01*
X137160000Y-69740000D02*
X137160000Y-68510000D01*
X137160000Y-57260000D02*
X137160000Y-58490000D01*
X144710000Y-84410000D02*
X144710000Y-80690000D01*
X144710000Y-80690000D02*
X134690000Y-80690000D01*
X134690000Y-80690000D02*
X134690000Y-84410000D01*
X134690000Y-84410000D02*
X144710000Y-84410000D01*
X145940000Y-82550000D02*
X144710000Y-82550000D01*
X133460000Y-82550000D02*
X134690000Y-82550000D01*
X134690000Y-75610000D02*
X134690000Y-79330000D01*
X134690000Y-79330000D02*
X144710000Y-79330000D01*
X144710000Y-79330000D02*
X144710000Y-75610000D01*
X144710000Y-75610000D02*
X134690000Y-75610000D01*
X133460000Y-77470000D02*
X134690000Y-77470000D01*
X145940000Y-77470000D02*
X144710000Y-77470000D01*
X153630000Y-57070000D02*
X163870000Y-57070000D01*
X153630000Y-61711000D02*
X163870000Y-61711000D01*
X153630000Y-57070000D02*
X153630000Y-61711000D01*
X163870000Y-57070000D02*
X163870000Y-61711000D01*
X153630000Y-58580000D02*
X163870000Y-58580000D01*
X156900000Y-57070000D02*
X156900000Y-58580000D01*
X160601000Y-57070000D02*
X160601000Y-58580000D01*
D16*
X147700000Y-56740000D02*
X169800000Y-56740000D01*
X147700000Y-73340000D02*
X147700000Y-56740000D01*
X147700000Y-73340000D02*
X139700000Y-73340000D01*
X139700000Y-53340000D02*
X139700000Y-73340000D01*
X177800000Y-73340000D02*
X169800000Y-73340000D01*
X169800000Y-73340000D02*
X169800000Y-56740000D01*
X177800000Y-53340000D02*
X177800000Y-73340000D01*
X139700000Y-53340000D02*
X177800000Y-53340000D01*
D15*
X126746000Y-55880000D02*
G75*
G03X126746000Y-55880000I-2286000J0D01*
G01*
X182626000Y-55880000D02*
G75*
G03X182626000Y-55880000I-2286000J0D01*
G01*
X182626000Y-100330000D02*
G75*
G03X182626000Y-100330000I-2286000J0D01*
G01*
X176460000Y-100290000D02*
X176460000Y-87670000D01*
X176460000Y-87670000D02*
X128340000Y-87670000D01*
X128340000Y-87670000D02*
X128340000Y-100290000D01*
X128340000Y-100290000D02*
X176460000Y-100290000D01*
X178960000Y-93980000D02*
X176460000Y-93980000D01*
X125840000Y-93980000D02*
X128340000Y-93980000D01*
D16*
X156043334Y-80367143D02*
X155995715Y-80414762D01*
X155852858Y-80462381D01*
X155757620Y-80462381D01*
X155614762Y-80414762D01*
X155519524Y-80319524D01*
X155471905Y-80224286D01*
X155424286Y-80033810D01*
X155424286Y-79890952D01*
X155471905Y-79700476D01*
X155519524Y-79605238D01*
X155614762Y-79510000D01*
X155757620Y-79462381D01*
X155852858Y-79462381D01*
X155995715Y-79510000D01*
X156043334Y-79557619D01*
X156995715Y-80462381D02*
X156424286Y-80462381D01*
X156710000Y-80462381D02*
X156710000Y-79462381D01*
X156614762Y-79605238D01*
X156519524Y-79700476D01*
X156424286Y-79748095D01*
X130262381Y-73993333D02*
X130976667Y-73993333D01*
X131119524Y-74040953D01*
X131214762Y-74136191D01*
X131262381Y-74279048D01*
X131262381Y-74374286D01*
X131262381Y-72993333D02*
X131262381Y-73564762D01*
X131262381Y-73279048D02*
X130262381Y-73279048D01*
X130405238Y-73374286D01*
X130500476Y-73469524D01*
X130548095Y-73564762D01*
X154773334Y-66492381D02*
X154440000Y-66016190D01*
X154201905Y-66492381D02*
X154201905Y-65492381D01*
X154582858Y-65492381D01*
X154678096Y-65540000D01*
X154725715Y-65587619D01*
X154773334Y-65682857D01*
X154773334Y-65825714D01*
X154725715Y-65920952D01*
X154678096Y-65968571D01*
X154582858Y-66016190D01*
X154201905Y-66016190D01*
X155725715Y-66492381D02*
X155154286Y-66492381D01*
X155440000Y-66492381D02*
X155440000Y-65492381D01*
X155344762Y-65635238D01*
X155249524Y-65730476D01*
X155154286Y-65778095D01*
X154773334Y-71572381D02*
X154440000Y-71096190D01*
X154201905Y-71572381D02*
X154201905Y-70572381D01*
X154582858Y-70572381D01*
X154678096Y-70620000D01*
X154725715Y-70667619D01*
X154773334Y-70762857D01*
X154773334Y-70905714D01*
X154725715Y-71000952D01*
X154678096Y-71048571D01*
X154582858Y-71096190D01*
X154201905Y-71096190D01*
X155154286Y-70667619D02*
X155201905Y-70620000D01*
X155297143Y-70572381D01*
X155535239Y-70572381D01*
X155630477Y-70620000D01*
X155678096Y-70667619D01*
X155725715Y-70762857D01*
X155725715Y-70858095D01*
X155678096Y-71000952D01*
X155106667Y-71572381D01*
X155725715Y-71572381D01*
X132532381Y-67476666D02*
X132056190Y-67810000D01*
X132532381Y-68048095D02*
X131532381Y-68048095D01*
X131532381Y-67667142D01*
X131580000Y-67571904D01*
X131627619Y-67524285D01*
X131722857Y-67476666D01*
X131865714Y-67476666D01*
X131960952Y-67524285D01*
X132008571Y-67571904D01*
X132056190Y-67667142D01*
X132056190Y-68048095D01*
X131532381Y-67143333D02*
X131532381Y-66524285D01*
X131913333Y-66857619D01*
X131913333Y-66714761D01*
X131960952Y-66619523D01*
X132008571Y-66571904D01*
X132103810Y-66524285D01*
X132341905Y-66524285D01*
X132437143Y-66571904D01*
X132484762Y-66619523D01*
X132532381Y-66714761D01*
X132532381Y-67000476D01*
X132484762Y-67095714D01*
X132437143Y-67143333D01*
X137612381Y-67476666D02*
X137136190Y-67810000D01*
X137612381Y-68048095D02*
X136612381Y-68048095D01*
X136612381Y-67667142D01*
X136660000Y-67571904D01*
X136707619Y-67524285D01*
X136802857Y-67476666D01*
X136945714Y-67476666D01*
X137040952Y-67524285D01*
X137088571Y-67571904D01*
X137136190Y-67667142D01*
X137136190Y-68048095D01*
X136945714Y-66619523D02*
X137612381Y-66619523D01*
X136564762Y-66857619D02*
X137279048Y-67095714D01*
X137279048Y-66476666D01*
X135723334Y-83002381D02*
X135390000Y-82526190D01*
X135151905Y-83002381D02*
X135151905Y-82002381D01*
X135532858Y-82002381D01*
X135628096Y-82050000D01*
X135675715Y-82097619D01*
X135723334Y-82192857D01*
X135723334Y-82335714D01*
X135675715Y-82430952D01*
X135628096Y-82478571D01*
X135532858Y-82526190D01*
X135151905Y-82526190D01*
X136628096Y-82002381D02*
X136151905Y-82002381D01*
X136104286Y-82478571D01*
X136151905Y-82430952D01*
X136247143Y-82383333D01*
X136485239Y-82383333D01*
X136580477Y-82430952D01*
X136628096Y-82478571D01*
X136675715Y-82573810D01*
X136675715Y-82811905D01*
X136628096Y-82907143D01*
X136580477Y-82954762D01*
X136485239Y-83002381D01*
X136247143Y-83002381D01*
X136151905Y-82954762D01*
X136104286Y-82907143D01*
X135723334Y-77922381D02*
X135390000Y-77446190D01*
X135151905Y-77922381D02*
X135151905Y-76922381D01*
X135532858Y-76922381D01*
X135628096Y-76970000D01*
X135675715Y-77017619D01*
X135723334Y-77112857D01*
X135723334Y-77255714D01*
X135675715Y-77350952D01*
X135628096Y-77398571D01*
X135532858Y-77446190D01*
X135151905Y-77446190D01*
X136580477Y-76922381D02*
X136390000Y-76922381D01*
X136294762Y-76970000D01*
X136247143Y-77017619D01*
X136151905Y-77160476D01*
X136104286Y-77350952D01*
X136104286Y-77731905D01*
X136151905Y-77827143D01*
X136199524Y-77874762D01*
X136294762Y-77922381D01*
X136485239Y-77922381D01*
X136580477Y-77874762D01*
X136628096Y-77827143D01*
X136675715Y-77731905D01*
X136675715Y-77493810D01*
X136628096Y-77398571D01*
X136580477Y-77350952D01*
X136485239Y-77303333D01*
X136294762Y-77303333D01*
X136199524Y-77350952D01*
X136151905Y-77398571D01*
X136104286Y-77493810D01*
X158654762Y-56617619D02*
X158559524Y-56570000D01*
X158464286Y-56474762D01*
X158321429Y-56331905D01*
X158226190Y-56284286D01*
X158130952Y-56284286D01*
X158178571Y-56522381D02*
X158083333Y-56474762D01*
X157988095Y-56379524D01*
X157940476Y-56189048D01*
X157940476Y-55855714D01*
X157988095Y-55665238D01*
X158083333Y-55570000D01*
X158178571Y-55522381D01*
X158369048Y-55522381D01*
X158464286Y-55570000D01*
X158559524Y-55665238D01*
X158607143Y-55855714D01*
X158607143Y-56189048D01*
X158559524Y-56379524D01*
X158464286Y-56474762D01*
X158369048Y-56522381D01*
X158178571Y-56522381D01*
X159559524Y-56522381D02*
X158988095Y-56522381D01*
X159273809Y-56522381D02*
X159273809Y-55522381D01*
X159178571Y-55665238D01*
X159083333Y-55760476D01*
X158988095Y-55808095D01*
X154178571Y-55014762D02*
X154321428Y-55062381D01*
X154559524Y-55062381D01*
X154654762Y-55014762D01*
X154702381Y-54967143D01*
X154750000Y-54871905D01*
X154750000Y-54776667D01*
X154702381Y-54681429D01*
X154654762Y-54633810D01*
X154559524Y-54586190D01*
X154369047Y-54538571D01*
X154273809Y-54490952D01*
X154226190Y-54443333D01*
X154178571Y-54348095D01*
X154178571Y-54252857D01*
X154226190Y-54157619D01*
X154273809Y-54110000D01*
X154369047Y-54062381D01*
X154607143Y-54062381D01*
X154750000Y-54110000D01*
X155035714Y-54062381D02*
X155607143Y-54062381D01*
X155321428Y-55062381D02*
X155321428Y-54062381D01*
X156273810Y-54538571D02*
X155940476Y-54538571D01*
X155940476Y-55062381D02*
X155940476Y-54062381D01*
X156416667Y-54062381D01*
X157321429Y-55062381D02*
X156750000Y-55062381D01*
X157035714Y-55062381D02*
X157035714Y-54062381D01*
X156940476Y-54205238D01*
X156845238Y-54300476D01*
X156750000Y-54348095D01*
X158178572Y-54062381D02*
X157988095Y-54062381D01*
X157892857Y-54110000D01*
X157845238Y-54157619D01*
X157750000Y-54300476D01*
X157702381Y-54490952D01*
X157702381Y-54871905D01*
X157750000Y-54967143D01*
X157797619Y-55014762D01*
X157892857Y-55062381D01*
X158083334Y-55062381D01*
X158178572Y-55014762D01*
X158226191Y-54967143D01*
X158273810Y-54871905D01*
X158273810Y-54633810D01*
X158226191Y-54538571D01*
X158178572Y-54490952D01*
X158083334Y-54443333D01*
X157892857Y-54443333D01*
X157797619Y-54490952D01*
X157750000Y-54538571D01*
X157702381Y-54633810D01*
X158702381Y-55062381D02*
X158702381Y-54062381D01*
X159273810Y-55062381D01*
X159273810Y-54062381D01*
X160226191Y-54062381D02*
X159750000Y-54062381D01*
X159702381Y-54538571D01*
X159750000Y-54490952D01*
X159845238Y-54443333D01*
X160083334Y-54443333D01*
X160178572Y-54490952D01*
X160226191Y-54538571D01*
X160273810Y-54633810D01*
X160273810Y-54871905D01*
X160226191Y-54967143D01*
X160178572Y-55014762D01*
X160083334Y-55062381D01*
X159845238Y-55062381D01*
X159750000Y-55014762D01*
X159702381Y-54967143D01*
X160892857Y-54062381D02*
X160988096Y-54062381D01*
X161083334Y-54110000D01*
X161130953Y-54157619D01*
X161178572Y-54252857D01*
X161226191Y-54443333D01*
X161226191Y-54681429D01*
X161178572Y-54871905D01*
X161130953Y-54967143D01*
X161083334Y-55014762D01*
X160988096Y-55062381D01*
X160892857Y-55062381D01*
X160797619Y-55014762D01*
X160750000Y-54967143D01*
X160702381Y-54871905D01*
X160654762Y-54681429D01*
X160654762Y-54443333D01*
X160702381Y-54252857D01*
X160750000Y-54157619D01*
X160797619Y-54110000D01*
X160892857Y-54062381D01*
X161654762Y-55062381D02*
X161654762Y-54062381D01*
X161988096Y-54776667D01*
X162321429Y-54062381D01*
X162321429Y-55062381D01*
X162750000Y-54157619D02*
X162797619Y-54110000D01*
X162892857Y-54062381D01*
X163130953Y-54062381D01*
X163226191Y-54110000D01*
X163273810Y-54157619D01*
X163321429Y-54252857D01*
X163321429Y-54348095D01*
X163273810Y-54490952D01*
X162702381Y-55062381D01*
X163321429Y-55062381D01*
X152233334Y-101742381D02*
X151900000Y-101266190D01*
X151661905Y-101742381D02*
X151661905Y-100742381D01*
X152042858Y-100742381D01*
X152138096Y-100790000D01*
X152185715Y-100837619D01*
X152233334Y-100932857D01*
X152233334Y-101075714D01*
X152185715Y-101170952D01*
X152138096Y-101218571D01*
X152042858Y-101266190D01*
X151661905Y-101266190D01*
X152566667Y-100742381D02*
X153233334Y-100742381D01*
X152804762Y-101742381D01*
M02*
