M48
;DRILL file {KiCad 4.0.7} date Wednesday, October 03, 2018 'AMt' 10:44:20 AM
;FORMAT={-:-/ absolute / metric / decimal}
FMAT,2
METRIC,TZ
T1C1.000
T2C1.200
T3C1.520
T4C3.048
%
G90
G05
M71
T1
X156.21Y-59.69
X158.75Y-59.69
X161.29Y-59.69
T2
X124.46Y-93.98
X132.08Y-55.88
X132.08Y-71.12
X132.08Y-77.47
X132.08Y-82.55
X137.16Y-55.88
X137.16Y-71.12
X147.32Y-77.47
X147.32Y-82.55
X151.13Y-66.04
X151.13Y-71.12
X152.4Y-80.01
X166.37Y-66.04
X166.37Y-71.12
X174.9Y-80.01
X180.34Y-93.98
T3
X125.73Y-62.23
X125.73Y-72.39
X125.73Y-82.55
T4
X124.46Y-55.88
X124.46Y-100.33
X180.34Y-55.88
X180.34Y-100.33
T0
M30
