%TF.GenerationSoftware,KiCad,Pcbnew,(5.1.12-1-10_14)*%
%TF.CreationDate,2022-01-06T07:48:41-08:00*%
%TF.ProjectId,SnapInCapStack,536e6170-496e-4436-9170-537461636b2e,3.0*%
%TF.SameCoordinates,Original*%
%TF.FileFunction,Legend,Top*%
%TF.FilePolarity,Positive*%
%FSLAX46Y46*%
G04 Gerber Fmt 4.6, Leading zero omitted, Abs format (unit mm)*
G04 Created by KiCad (PCBNEW (5.1.12-1-10_14)) date 2022-01-06 07:48:41*
%MOMM*%
%LPD*%
G01*
G04 APERTURE LIST*
%ADD10C,0.300000*%
%ADD11C,0.120000*%
%ADD12C,0.150000*%
G04 APERTURE END LIST*
D10*
X143410714Y-85832142D02*
X143482142Y-85903571D01*
X143553571Y-86117857D01*
X143553571Y-86260714D01*
X143482142Y-86475000D01*
X143339285Y-86617857D01*
X143196428Y-86689285D01*
X142910714Y-86760714D01*
X142696428Y-86760714D01*
X142410714Y-86689285D01*
X142267857Y-86617857D01*
X142125000Y-86475000D01*
X142053571Y-86260714D01*
X142053571Y-86117857D01*
X142125000Y-85903571D01*
X142196428Y-85832142D01*
X142053571Y-85403571D02*
X142053571Y-84546428D01*
X143553571Y-84975000D02*
X142053571Y-84975000D01*
X142053571Y-92233571D02*
X143553571Y-91733571D01*
X142053571Y-91233571D01*
X142982142Y-90733571D02*
X142982142Y-89590714D01*
X142053571Y-82073571D02*
X143553571Y-81573571D01*
X142053571Y-81073571D01*
X142982142Y-80573571D02*
X142982142Y-79430714D01*
X143553571Y-80002142D02*
X142410714Y-80002142D01*
D11*
%TO.C,C1*%
X138625000Y-50760998D02*
X135125000Y-50760998D01*
X136875000Y-49010998D02*
X136875000Y-52510998D01*
X127800000Y-85465000D02*
X126200000Y-85465000D01*
X128413000Y-85425000D02*
X125587000Y-85425000D01*
X128835000Y-85385000D02*
X125165000Y-85385000D01*
X129177000Y-85345000D02*
X124823000Y-85345000D01*
X129473000Y-85305000D02*
X124527000Y-85305000D01*
X129736000Y-85265000D02*
X124264000Y-85265000D01*
X129976000Y-85225000D02*
X124024000Y-85225000D01*
X130198000Y-85185000D02*
X123802000Y-85185000D01*
X130405000Y-85145000D02*
X123595000Y-85145000D01*
X130600000Y-85105000D02*
X123400000Y-85105000D01*
X130785000Y-85065000D02*
X123215000Y-85065000D01*
X130960000Y-85025000D02*
X123040000Y-85025000D01*
X131128000Y-84985000D02*
X122872000Y-84985000D01*
X131289000Y-84945000D02*
X122711000Y-84945000D01*
X131444000Y-84905000D02*
X122556000Y-84905000D01*
X131593000Y-84865000D02*
X122407000Y-84865000D01*
X131738000Y-84825000D02*
X122262000Y-84825000D01*
X131878000Y-84785000D02*
X122122000Y-84785000D01*
X132013000Y-84745000D02*
X121987000Y-84745000D01*
X132145000Y-84705000D02*
X121855000Y-84705000D01*
X132273000Y-84665000D02*
X121727000Y-84665000D01*
X132398000Y-84625000D02*
X121602000Y-84625000D01*
X132520000Y-84585000D02*
X121480000Y-84585000D01*
X132639000Y-84545000D02*
X121361000Y-84545000D01*
X132755000Y-84505000D02*
X121245000Y-84505000D01*
X132868000Y-84465000D02*
X121132000Y-84465000D01*
X132980000Y-84425000D02*
X121020000Y-84425000D01*
X133089000Y-84385000D02*
X120911000Y-84385000D01*
X133195000Y-84345000D02*
X120805000Y-84345000D01*
X133300000Y-84305000D02*
X120700000Y-84305000D01*
X133403000Y-84265000D02*
X120597000Y-84265000D01*
X133504000Y-84225000D02*
X120496000Y-84225000D01*
X133603000Y-84185000D02*
X120397000Y-84185000D01*
X133700000Y-84145000D02*
X120300000Y-84145000D01*
X133796000Y-84105000D02*
X120204000Y-84105000D01*
X133890000Y-84065000D02*
X120110000Y-84065000D01*
X133983000Y-84025000D02*
X120017000Y-84025000D01*
X134075000Y-83985000D02*
X119925000Y-83985000D01*
X134165000Y-83945000D02*
X119835000Y-83945000D01*
X134253000Y-83905000D02*
X119747000Y-83905000D01*
X134341000Y-83865000D02*
X119659000Y-83865000D01*
X134427000Y-83825000D02*
X119573000Y-83825000D01*
X134512000Y-83785000D02*
X119488000Y-83785000D01*
X134595000Y-83745000D02*
X119405000Y-83745000D01*
X134678000Y-83705000D02*
X119322000Y-83705000D01*
X134759000Y-83665000D02*
X119241000Y-83665000D01*
X134840000Y-83625000D02*
X119160000Y-83625000D01*
X134920000Y-83585000D02*
X119080000Y-83585000D01*
X134998000Y-83545000D02*
X119002000Y-83545000D01*
X135076000Y-83505000D02*
X118924000Y-83505000D01*
X135152000Y-83465000D02*
X118848000Y-83465000D01*
X135228000Y-83425000D02*
X118772000Y-83425000D01*
X135303000Y-83385000D02*
X118697000Y-83385000D01*
X135377000Y-83345000D02*
X118623000Y-83345000D01*
X135450000Y-83305000D02*
X118550000Y-83305000D01*
X135522000Y-83265000D02*
X118478000Y-83265000D01*
X135594000Y-83225000D02*
X118406000Y-83225000D01*
X135665000Y-83185000D02*
X118335000Y-83185000D01*
X135735000Y-83145000D02*
X118265000Y-83145000D01*
X135804000Y-83105000D02*
X118196000Y-83105000D01*
X135873000Y-83065000D02*
X118127000Y-83065000D01*
X135940000Y-83025000D02*
X118060000Y-83025000D01*
X136008000Y-82985000D02*
X117992000Y-82985000D01*
X136074000Y-82945000D02*
X117926000Y-82945000D01*
X136140000Y-82905000D02*
X117860000Y-82905000D01*
X136205000Y-82865000D02*
X117795000Y-82865000D01*
X136270000Y-82825000D02*
X117730000Y-82825000D01*
X136334000Y-82785000D02*
X117666000Y-82785000D01*
X136397000Y-82745000D02*
X117603000Y-82745000D01*
X136460000Y-82705000D02*
X117540000Y-82705000D01*
X136522000Y-82665000D02*
X117478000Y-82665000D01*
X136584000Y-82625000D02*
X117416000Y-82625000D01*
X136645000Y-82585000D02*
X117355000Y-82585000D01*
X136705000Y-82545000D02*
X117295000Y-82545000D01*
X136765000Y-82505000D02*
X117235000Y-82505000D01*
X136825000Y-82465000D02*
X117175000Y-82465000D01*
X136884000Y-82425000D02*
X117116000Y-82425000D01*
X136942000Y-82385000D02*
X117058000Y-82385000D01*
X137000000Y-82345000D02*
X117000000Y-82345000D01*
X137058000Y-82305000D02*
X116942000Y-82305000D01*
X137115000Y-82265000D02*
X116885000Y-82265000D01*
X137171000Y-82225000D02*
X116829000Y-82225000D01*
X137227000Y-82185000D02*
X116773000Y-82185000D01*
X137283000Y-82145000D02*
X116717000Y-82145000D01*
X137338000Y-82105000D02*
X116662000Y-82105000D01*
X137392000Y-82065000D02*
X116608000Y-82065000D01*
X137447000Y-82025000D02*
X116553000Y-82025000D01*
X137500000Y-81985000D02*
X116500000Y-81985000D01*
X137554000Y-81945000D02*
X116446000Y-81945000D01*
X137607000Y-81905000D02*
X116393000Y-81905000D01*
X137659000Y-81865000D02*
X116341000Y-81865000D01*
X137711000Y-81825000D02*
X116289000Y-81825000D01*
X137763000Y-81785000D02*
X116237000Y-81785000D01*
X137815000Y-81745000D02*
X116185000Y-81745000D01*
X137865000Y-81705000D02*
X116135000Y-81705000D01*
X137916000Y-81665000D02*
X116084000Y-81665000D01*
X137966000Y-81625000D02*
X116034000Y-81625000D01*
X138016000Y-81585000D02*
X115984000Y-81585000D01*
X138066000Y-81545000D02*
X115934000Y-81545000D01*
X138115000Y-81505000D02*
X115885000Y-81505000D01*
X138163000Y-81465000D02*
X115837000Y-81465000D01*
X138212000Y-81425000D02*
X115788000Y-81425000D01*
X138260000Y-81385000D02*
X115740000Y-81385000D01*
X138307000Y-81345000D02*
X115693000Y-81345000D01*
X138355000Y-81305000D02*
X115645000Y-81305000D01*
X138402000Y-81265000D02*
X115598000Y-81265000D01*
X138449000Y-81225000D02*
X115551000Y-81225000D01*
X138495000Y-81185000D02*
X115505000Y-81185000D01*
X138541000Y-81145000D02*
X115459000Y-81145000D01*
X138587000Y-81105000D02*
X115413000Y-81105000D01*
X138632000Y-81065000D02*
X115368000Y-81065000D01*
X138677000Y-81025000D02*
X115323000Y-81025000D01*
X138722000Y-80985000D02*
X115278000Y-80985000D01*
X138766000Y-80945000D02*
X115234000Y-80945000D01*
X138811000Y-80905000D02*
X115189000Y-80905000D01*
X138854000Y-80865000D02*
X115146000Y-80865000D01*
X138898000Y-80825000D02*
X115102000Y-80825000D01*
X138941000Y-80785000D02*
X115059000Y-80785000D01*
X138984000Y-80745000D02*
X115016000Y-80745000D01*
X139027000Y-80705000D02*
X114973000Y-80705000D01*
X139069000Y-80665000D02*
X114931000Y-80665000D01*
X139111000Y-80625000D02*
X114889000Y-80625000D01*
X139153000Y-80585000D02*
X114847000Y-80585000D01*
X139195000Y-80545000D02*
X114805000Y-80545000D01*
X139236000Y-80505000D02*
X114764000Y-80505000D01*
X139277000Y-80465000D02*
X114723000Y-80465000D01*
X139318000Y-80425000D02*
X114682000Y-80425000D01*
X139359000Y-80385000D02*
X114641000Y-80385000D01*
X139399000Y-80345000D02*
X114601000Y-80345000D01*
X139439000Y-80305000D02*
X114561000Y-80305000D01*
X139479000Y-80265000D02*
X114521000Y-80265000D01*
X139518000Y-80225000D02*
X114482000Y-80225000D01*
X139557000Y-80185000D02*
X114443000Y-80185000D01*
X139596000Y-80145000D02*
X114404000Y-80145000D01*
X139635000Y-80105000D02*
X114365000Y-80105000D01*
X139674000Y-80065000D02*
X114326000Y-80065000D01*
X139712000Y-80025000D02*
X114288000Y-80025000D01*
X139750000Y-79985000D02*
X114250000Y-79985000D01*
X139788000Y-79945000D02*
X114212000Y-79945000D01*
X139825000Y-79905000D02*
X114175000Y-79905000D01*
X139863000Y-79865000D02*
X114137000Y-79865000D01*
X139900000Y-79825000D02*
X114100000Y-79825000D01*
X139937000Y-79785000D02*
X114063000Y-79785000D01*
X139973000Y-79745000D02*
X114027000Y-79745000D01*
X140010000Y-79705000D02*
X113990000Y-79705000D01*
X140046000Y-79665000D02*
X113954000Y-79665000D01*
X140082000Y-79625000D02*
X113918000Y-79625000D01*
X140117000Y-79585000D02*
X113883000Y-79585000D01*
X140153000Y-79545000D02*
X113847000Y-79545000D01*
X140188000Y-79505000D02*
X113812000Y-79505000D01*
X140223000Y-79465000D02*
X113777000Y-79465000D01*
X140258000Y-79425000D02*
X113742000Y-79425000D01*
X140293000Y-79385000D02*
X113707000Y-79385000D01*
X140327000Y-79345000D02*
X113673000Y-79345000D01*
X140362000Y-79305000D02*
X113638000Y-79305000D01*
X140396000Y-79265000D02*
X113604000Y-79265000D01*
X140430000Y-79225000D02*
X113570000Y-79225000D01*
X140463000Y-79185000D02*
X113537000Y-79185000D01*
X140497000Y-79145000D02*
X113503000Y-79145000D01*
X140530000Y-79105000D02*
X113470000Y-79105000D01*
X140563000Y-79065000D02*
X113437000Y-79065000D01*
X140596000Y-79025000D02*
X113404000Y-79025000D01*
X140628000Y-78985000D02*
X113372000Y-78985000D01*
X140661000Y-78945000D02*
X113339000Y-78945000D01*
X140693000Y-78905000D02*
X113307000Y-78905000D01*
X140725000Y-78865000D02*
X113275000Y-78865000D01*
X140757000Y-78825000D02*
X113243000Y-78825000D01*
X140789000Y-78785000D02*
X113211000Y-78785000D01*
X140820000Y-78745000D02*
X113180000Y-78745000D01*
X140851000Y-78705000D02*
X113149000Y-78705000D01*
X140883000Y-78665000D02*
X113117000Y-78665000D01*
X140914000Y-78625000D02*
X113086000Y-78625000D01*
X140944000Y-78585000D02*
X113056000Y-78585000D01*
X140975000Y-78545000D02*
X113025000Y-78545000D01*
X141005000Y-78505000D02*
X112995000Y-78505000D01*
X141035000Y-78465000D02*
X112965000Y-78465000D01*
X141065000Y-78425000D02*
X112935000Y-78425000D01*
X141095000Y-78385000D02*
X112905000Y-78385000D01*
X141125000Y-78345000D02*
X112875000Y-78345000D01*
X141155000Y-78305000D02*
X112845000Y-78305000D01*
X141184000Y-78265000D02*
X112816000Y-78265000D01*
X141213000Y-78225000D02*
X112787000Y-78225000D01*
X141242000Y-78185000D02*
X112758000Y-78185000D01*
X141271000Y-78145000D02*
X112729000Y-78145000D01*
X141299000Y-78105000D02*
X112701000Y-78105000D01*
X141328000Y-78065000D02*
X112672000Y-78065000D01*
X141356000Y-78025000D02*
X112644000Y-78025000D01*
X141384000Y-77985000D02*
X112616000Y-77985000D01*
X141412000Y-77945000D02*
X112588000Y-77945000D01*
X141440000Y-77905000D02*
X112560000Y-77905000D01*
X141468000Y-77865000D02*
X112532000Y-77865000D01*
X141495000Y-77825000D02*
X112505000Y-77825000D01*
X141523000Y-77785000D02*
X112477000Y-77785000D01*
X141550000Y-77745000D02*
X112450000Y-77745000D01*
X141577000Y-77705000D02*
X112423000Y-77705000D01*
X141604000Y-77665000D02*
X112396000Y-77665000D01*
X141630000Y-77625000D02*
X112370000Y-77625000D01*
X141657000Y-77585000D02*
X112343000Y-77585000D01*
X141683000Y-77545000D02*
X112317000Y-77545000D01*
X141710000Y-77505000D02*
X112290000Y-77505000D01*
X141736000Y-77465000D02*
X112264000Y-77465000D01*
X141762000Y-77425000D02*
X112238000Y-77425000D01*
X141787000Y-77385000D02*
X112213000Y-77385000D01*
X141813000Y-77345000D02*
X112187000Y-77345000D01*
X141838000Y-77305000D02*
X112162000Y-77305000D01*
X141864000Y-77265000D02*
X112136000Y-77265000D01*
X141889000Y-77225000D02*
X112111000Y-77225000D01*
X141914000Y-77185000D02*
X112086000Y-77185000D01*
X141939000Y-77145000D02*
X112061000Y-77145000D01*
X141963000Y-77105000D02*
X112037000Y-77105000D01*
X141988000Y-77065000D02*
X112012000Y-77065000D01*
X142012000Y-77025000D02*
X111988000Y-77025000D01*
X142037000Y-76985000D02*
X111963000Y-76985000D01*
X142061000Y-76945000D02*
X111939000Y-76945000D01*
X142085000Y-76905000D02*
X111915000Y-76905000D01*
X142109000Y-76865000D02*
X111891000Y-76865000D01*
X142132000Y-76825000D02*
X111868000Y-76825000D01*
X142156000Y-76785000D02*
X111844000Y-76785000D01*
X142179000Y-76745000D02*
X111821000Y-76745000D01*
X142203000Y-76705000D02*
X111797000Y-76705000D01*
X142226000Y-76665000D02*
X111774000Y-76665000D01*
X142249000Y-76625000D02*
X111751000Y-76625000D01*
X142271000Y-76585000D02*
X111729000Y-76585000D01*
X142294000Y-76545000D02*
X111706000Y-76545000D01*
X142317000Y-76505000D02*
X111683000Y-76505000D01*
X142339000Y-76465000D02*
X111661000Y-76465000D01*
X142361000Y-76425000D02*
X111639000Y-76425000D01*
X142384000Y-76385000D02*
X111616000Y-76385000D01*
X142406000Y-76345000D02*
X111594000Y-76345000D01*
X142428000Y-76305000D02*
X111572000Y-76305000D01*
X142449000Y-76265000D02*
X111551000Y-76265000D01*
X142471000Y-76225000D02*
X111529000Y-76225000D01*
X142492000Y-76185000D02*
X111508000Y-76185000D01*
X142514000Y-76145000D02*
X111486000Y-76145000D01*
X142535000Y-76105000D02*
X111465000Y-76105000D01*
X142556000Y-76065000D02*
X111444000Y-76065000D01*
X142577000Y-76026000D02*
X111423000Y-76026000D01*
X142598000Y-75986000D02*
X111402000Y-75986000D01*
X142619000Y-75946000D02*
X111381000Y-75946000D01*
X142639000Y-75906000D02*
X111361000Y-75906000D01*
X142660000Y-75866000D02*
X111340000Y-75866000D01*
X142680000Y-75826000D02*
X111320000Y-75826000D01*
X142700000Y-75786000D02*
X111300000Y-75786000D01*
X142720000Y-75746000D02*
X111280000Y-75746000D01*
X142740000Y-75706000D02*
X111260000Y-75706000D01*
X142760000Y-75666000D02*
X111240000Y-75666000D01*
X142780000Y-75626000D02*
X111220000Y-75626000D01*
X142799000Y-75586000D02*
X111201000Y-75586000D01*
X142819000Y-75546000D02*
X111181000Y-75546000D01*
X142838000Y-75506000D02*
X111162000Y-75506000D01*
X142857000Y-75466000D02*
X111143000Y-75466000D01*
X142876000Y-75426000D02*
X111124000Y-75426000D01*
X142895000Y-75386000D02*
X111105000Y-75386000D01*
X142914000Y-75346000D02*
X111086000Y-75346000D01*
X142933000Y-75306000D02*
X111067000Y-75306000D01*
X142951000Y-75266000D02*
X111049000Y-75266000D01*
X142970000Y-75226000D02*
X111030000Y-75226000D01*
X142988000Y-75186000D02*
X111012000Y-75186000D01*
X143006000Y-75146000D02*
X110994000Y-75146000D01*
X143024000Y-75106000D02*
X110976000Y-75106000D01*
X124760000Y-75066000D02*
X110958000Y-75066000D01*
X143042000Y-75066000D02*
X129240000Y-75066000D01*
X124760000Y-75026000D02*
X110940000Y-75026000D01*
X143060000Y-75026000D02*
X129240000Y-75026000D01*
X124760000Y-74986000D02*
X110922000Y-74986000D01*
X143078000Y-74986000D02*
X129240000Y-74986000D01*
X124760000Y-74946000D02*
X110905000Y-74946000D01*
X143095000Y-74946000D02*
X129240000Y-74946000D01*
X124760000Y-74906000D02*
X110887000Y-74906000D01*
X143113000Y-74906000D02*
X129240000Y-74906000D01*
X124760000Y-74866000D02*
X110870000Y-74866000D01*
X143130000Y-74866000D02*
X129240000Y-74866000D01*
X124760000Y-74826000D02*
X110852000Y-74826000D01*
X143148000Y-74826000D02*
X129240000Y-74826000D01*
X124760000Y-74786000D02*
X110835000Y-74786000D01*
X143165000Y-74786000D02*
X129240000Y-74786000D01*
X124760000Y-74746000D02*
X110818000Y-74746000D01*
X143182000Y-74746000D02*
X129240000Y-74746000D01*
X124760000Y-74706000D02*
X110801000Y-74706000D01*
X143199000Y-74706000D02*
X129240000Y-74706000D01*
X124760000Y-74666000D02*
X110785000Y-74666000D01*
X143215000Y-74666000D02*
X129240000Y-74666000D01*
X124760000Y-74626000D02*
X110768000Y-74626000D01*
X143232000Y-74626000D02*
X129240000Y-74626000D01*
X124760000Y-74586000D02*
X110751000Y-74586000D01*
X143249000Y-74586000D02*
X129240000Y-74586000D01*
X124760000Y-74546000D02*
X110735000Y-74546000D01*
X143265000Y-74546000D02*
X129240000Y-74546000D01*
X124760000Y-74506000D02*
X110719000Y-74506000D01*
X143281000Y-74506000D02*
X129240000Y-74506000D01*
X124760000Y-74466000D02*
X110702000Y-74466000D01*
X143298000Y-74466000D02*
X129240000Y-74466000D01*
X124760000Y-74426000D02*
X110686000Y-74426000D01*
X143314000Y-74426000D02*
X129240000Y-74426000D01*
X124760000Y-74386000D02*
X110670000Y-74386000D01*
X143330000Y-74386000D02*
X129240000Y-74386000D01*
X124760000Y-74346000D02*
X110654000Y-74346000D01*
X143346000Y-74346000D02*
X129240000Y-74346000D01*
X124760000Y-74306000D02*
X110639000Y-74306000D01*
X143361000Y-74306000D02*
X129240000Y-74306000D01*
X124760000Y-74266000D02*
X110623000Y-74266000D01*
X143377000Y-74266000D02*
X129240000Y-74266000D01*
X124760000Y-74226000D02*
X110607000Y-74226000D01*
X143393000Y-74226000D02*
X129240000Y-74226000D01*
X124760000Y-74186000D02*
X110592000Y-74186000D01*
X143408000Y-74186000D02*
X129240000Y-74186000D01*
X124760000Y-74146000D02*
X110577000Y-74146000D01*
X143423000Y-74146000D02*
X129240000Y-74146000D01*
X124760000Y-74106000D02*
X110561000Y-74106000D01*
X143439000Y-74106000D02*
X129240000Y-74106000D01*
X124760000Y-74066000D02*
X110546000Y-74066000D01*
X143454000Y-74066000D02*
X129240000Y-74066000D01*
X124760000Y-74026000D02*
X110531000Y-74026000D01*
X143469000Y-74026000D02*
X129240000Y-74026000D01*
X124760000Y-73986000D02*
X110516000Y-73986000D01*
X143484000Y-73986000D02*
X129240000Y-73986000D01*
X124760000Y-73946000D02*
X110502000Y-73946000D01*
X143498000Y-73946000D02*
X129240000Y-73946000D01*
X124760000Y-73906000D02*
X110487000Y-73906000D01*
X143513000Y-73906000D02*
X129240000Y-73906000D01*
X124760000Y-73866000D02*
X110473000Y-73866000D01*
X143527000Y-73866000D02*
X129240000Y-73866000D01*
X124760000Y-73826000D02*
X110458000Y-73826000D01*
X143542000Y-73826000D02*
X129240000Y-73826000D01*
X124760000Y-73786000D02*
X110444000Y-73786000D01*
X143556000Y-73786000D02*
X129240000Y-73786000D01*
X124760000Y-73746000D02*
X110430000Y-73746000D01*
X143570000Y-73746000D02*
X129240000Y-73746000D01*
X124760000Y-73706000D02*
X110415000Y-73706000D01*
X143585000Y-73706000D02*
X129240000Y-73706000D01*
X124760000Y-73666000D02*
X110401000Y-73666000D01*
X143599000Y-73666000D02*
X129240000Y-73666000D01*
X124760000Y-73626000D02*
X110388000Y-73626000D01*
X143612000Y-73626000D02*
X129240000Y-73626000D01*
X124760000Y-73586000D02*
X110374000Y-73586000D01*
X143626000Y-73586000D02*
X129240000Y-73586000D01*
X124760000Y-73546000D02*
X110360000Y-73546000D01*
X143640000Y-73546000D02*
X129240000Y-73546000D01*
X124760000Y-73506000D02*
X110347000Y-73506000D01*
X143653000Y-73506000D02*
X129240000Y-73506000D01*
X124760000Y-73466000D02*
X110333000Y-73466000D01*
X143667000Y-73466000D02*
X129240000Y-73466000D01*
X124760000Y-73426000D02*
X110320000Y-73426000D01*
X143680000Y-73426000D02*
X129240000Y-73426000D01*
X124760000Y-73386000D02*
X110306000Y-73386000D01*
X143694000Y-73386000D02*
X129240000Y-73386000D01*
X124760000Y-73346000D02*
X110293000Y-73346000D01*
X143707000Y-73346000D02*
X129240000Y-73346000D01*
X124760000Y-73306000D02*
X110280000Y-73306000D01*
X143720000Y-73306000D02*
X129240000Y-73306000D01*
X124760000Y-73266000D02*
X110267000Y-73266000D01*
X143733000Y-73266000D02*
X129240000Y-73266000D01*
X124760000Y-73226000D02*
X110255000Y-73226000D01*
X143745000Y-73226000D02*
X129240000Y-73226000D01*
X124760000Y-73186000D02*
X110242000Y-73186000D01*
X143758000Y-73186000D02*
X129240000Y-73186000D01*
X124760000Y-73146000D02*
X110229000Y-73146000D01*
X143771000Y-73146000D02*
X129240000Y-73146000D01*
X124760000Y-73106000D02*
X110217000Y-73106000D01*
X143783000Y-73106000D02*
X129240000Y-73106000D01*
X124760000Y-73066000D02*
X110204000Y-73066000D01*
X143796000Y-73066000D02*
X129240000Y-73066000D01*
X124760000Y-73026000D02*
X110192000Y-73026000D01*
X143808000Y-73026000D02*
X129240000Y-73026000D01*
X124760000Y-72986000D02*
X110180000Y-72986000D01*
X143820000Y-72986000D02*
X129240000Y-72986000D01*
X124760000Y-72946000D02*
X110168000Y-72946000D01*
X143832000Y-72946000D02*
X129240000Y-72946000D01*
X124760000Y-72906000D02*
X110156000Y-72906000D01*
X143844000Y-72906000D02*
X129240000Y-72906000D01*
X124760000Y-72866000D02*
X110144000Y-72866000D01*
X143856000Y-72866000D02*
X129240000Y-72866000D01*
X124760000Y-72826000D02*
X110132000Y-72826000D01*
X143868000Y-72826000D02*
X129240000Y-72826000D01*
X124760000Y-72786000D02*
X110120000Y-72786000D01*
X143880000Y-72786000D02*
X129240000Y-72786000D01*
X124760000Y-72746000D02*
X110109000Y-72746000D01*
X143891000Y-72746000D02*
X129240000Y-72746000D01*
X124760000Y-72706000D02*
X110097000Y-72706000D01*
X143903000Y-72706000D02*
X129240000Y-72706000D01*
X124760000Y-72666000D02*
X110086000Y-72666000D01*
X143914000Y-72666000D02*
X129240000Y-72666000D01*
X124760000Y-72626000D02*
X110075000Y-72626000D01*
X143925000Y-72626000D02*
X129240000Y-72626000D01*
X124760000Y-72586000D02*
X110063000Y-72586000D01*
X143937000Y-72586000D02*
X129240000Y-72586000D01*
X124760000Y-72546000D02*
X110052000Y-72546000D01*
X143948000Y-72546000D02*
X129240000Y-72546000D01*
X124760000Y-72506000D02*
X110041000Y-72506000D01*
X143959000Y-72506000D02*
X129240000Y-72506000D01*
X124760000Y-72466000D02*
X110031000Y-72466000D01*
X143969000Y-72466000D02*
X129240000Y-72466000D01*
X124760000Y-72426000D02*
X110020000Y-72426000D01*
X143980000Y-72426000D02*
X129240000Y-72426000D01*
X124760000Y-72386000D02*
X110009000Y-72386000D01*
X143991000Y-72386000D02*
X129240000Y-72386000D01*
X124760000Y-72346000D02*
X109999000Y-72346000D01*
X144001000Y-72346000D02*
X129240000Y-72346000D01*
X124760000Y-72306000D02*
X109988000Y-72306000D01*
X144012000Y-72306000D02*
X129240000Y-72306000D01*
X144022000Y-72266000D02*
X134490000Y-72266000D01*
X124760000Y-72266000D02*
X109978000Y-72266000D01*
X144033000Y-72226000D02*
X134490000Y-72226000D01*
X124760000Y-72226000D02*
X109967000Y-72226000D01*
X144043000Y-72186000D02*
X134490000Y-72186000D01*
X124760000Y-72186000D02*
X109957000Y-72186000D01*
X144053000Y-72146000D02*
X134490000Y-72146000D01*
X124760000Y-72146000D02*
X109947000Y-72146000D01*
X144063000Y-72106000D02*
X134490000Y-72106000D01*
X124760000Y-72106000D02*
X109937000Y-72106000D01*
X144073000Y-72066000D02*
X134490000Y-72066000D01*
X124760000Y-72066000D02*
X109927000Y-72066000D01*
X144082000Y-72026000D02*
X134490000Y-72026000D01*
X124760000Y-72026000D02*
X109918000Y-72026000D01*
X144092000Y-71986000D02*
X134490000Y-71986000D01*
X124760000Y-71986000D02*
X109908000Y-71986000D01*
X144102000Y-71946000D02*
X134490000Y-71946000D01*
X124760000Y-71946000D02*
X109898000Y-71946000D01*
X144111000Y-71906000D02*
X134490000Y-71906000D01*
X124760000Y-71906000D02*
X109889000Y-71906000D01*
X144120000Y-71866000D02*
X134490000Y-71866000D01*
X124760000Y-71866000D02*
X109880000Y-71866000D01*
X144130000Y-71826000D02*
X134490000Y-71826000D01*
X124760000Y-71826000D02*
X109870000Y-71826000D01*
X144139000Y-71786000D02*
X134490000Y-71786000D01*
X124760000Y-71786000D02*
X109861000Y-71786000D01*
X144148000Y-71746000D02*
X134490000Y-71746000D01*
X124760000Y-71746000D02*
X109852000Y-71746000D01*
X144157000Y-71706000D02*
X134490000Y-71706000D01*
X124760000Y-71706000D02*
X109843000Y-71706000D01*
X144166000Y-71666000D02*
X134490000Y-71666000D01*
X124760000Y-71666000D02*
X109834000Y-71666000D01*
X144175000Y-71626000D02*
X134490000Y-71626000D01*
X124760000Y-71626000D02*
X109825000Y-71626000D01*
X144183000Y-71586000D02*
X134490000Y-71586000D01*
X124760000Y-71586000D02*
X109817000Y-71586000D01*
X144192000Y-71546000D02*
X134490000Y-71546000D01*
X124760000Y-71546000D02*
X109808000Y-71546000D01*
X144200000Y-71506000D02*
X134490000Y-71506000D01*
X124760000Y-71506000D02*
X109800000Y-71506000D01*
X144209000Y-71466000D02*
X134490000Y-71466000D01*
X124760000Y-71466000D02*
X109791000Y-71466000D01*
X144217000Y-71426000D02*
X134490000Y-71426000D01*
X124760000Y-71426000D02*
X109783000Y-71426000D01*
X144225000Y-71386000D02*
X134490000Y-71386000D01*
X124760000Y-71386000D02*
X109775000Y-71386000D01*
X144233000Y-71346000D02*
X134490000Y-71346000D01*
X124760000Y-71346000D02*
X109767000Y-71346000D01*
X144241000Y-71306000D02*
X134490000Y-71306000D01*
X124760000Y-71306000D02*
X109759000Y-71306000D01*
X144249000Y-71266000D02*
X134490000Y-71266000D01*
X124760000Y-71266000D02*
X109751000Y-71266000D01*
X144257000Y-71226000D02*
X134490000Y-71226000D01*
X124760000Y-71226000D02*
X109743000Y-71226000D01*
X144265000Y-71186000D02*
X134490000Y-71186000D01*
X124760000Y-71186000D02*
X109735000Y-71186000D01*
X144273000Y-71146000D02*
X134490000Y-71146000D01*
X124760000Y-71146000D02*
X109727000Y-71146000D01*
X144280000Y-71106000D02*
X134490000Y-71106000D01*
X124760000Y-71106000D02*
X109720000Y-71106000D01*
X144287000Y-71066000D02*
X134490000Y-71066000D01*
X124760000Y-71066000D02*
X109713000Y-71066000D01*
X144295000Y-71026000D02*
X134490000Y-71026000D01*
X124760000Y-71026000D02*
X109705000Y-71026000D01*
X144302000Y-70986000D02*
X134490000Y-70986000D01*
X124760000Y-70986000D02*
X109698000Y-70986000D01*
X144309000Y-70946000D02*
X134490000Y-70946000D01*
X124760000Y-70946000D02*
X109691000Y-70946000D01*
X144316000Y-70906000D02*
X134490000Y-70906000D01*
X124760000Y-70906000D02*
X109684000Y-70906000D01*
X144323000Y-70866000D02*
X134490000Y-70866000D01*
X124760000Y-70866000D02*
X109677000Y-70866000D01*
X144330000Y-70826000D02*
X134490000Y-70826000D01*
X124760000Y-70826000D02*
X109670000Y-70826000D01*
X144337000Y-70786000D02*
X134490000Y-70786000D01*
X124760000Y-70786000D02*
X109663000Y-70786000D01*
X144344000Y-70746000D02*
X134490000Y-70746000D01*
X124760000Y-70746000D02*
X109656000Y-70746000D01*
X144350000Y-70706000D02*
X134490000Y-70706000D01*
X124760000Y-70706000D02*
X109650000Y-70706000D01*
X144357000Y-70666000D02*
X134490000Y-70666000D01*
X124760000Y-70666000D02*
X109643000Y-70666000D01*
X144363000Y-70626000D02*
X134490000Y-70626000D01*
X124760000Y-70626000D02*
X109637000Y-70626000D01*
X129010000Y-70586000D02*
X109631000Y-70586000D01*
X144369000Y-70586000D02*
X134490000Y-70586000D01*
X129010000Y-70546000D02*
X109625000Y-70546000D01*
X144375000Y-70546000D02*
X134490000Y-70546000D01*
X129010000Y-70506000D02*
X109618000Y-70506000D01*
X144382000Y-70506000D02*
X134490000Y-70506000D01*
X129010000Y-70466000D02*
X109612000Y-70466000D01*
X144388000Y-70466000D02*
X134490000Y-70466000D01*
X129010000Y-70426000D02*
X109606000Y-70426000D01*
X144394000Y-70426000D02*
X134490000Y-70426000D01*
X129010000Y-70386000D02*
X109601000Y-70386000D01*
X144399000Y-70386000D02*
X134490000Y-70386000D01*
X129010000Y-70346000D02*
X109595000Y-70346000D01*
X144405000Y-70346000D02*
X134490000Y-70346000D01*
X129010000Y-70306000D02*
X109589000Y-70306000D01*
X144411000Y-70306000D02*
X134490000Y-70306000D01*
X129010000Y-70266000D02*
X109584000Y-70266000D01*
X144416000Y-70266000D02*
X134490000Y-70266000D01*
X129010000Y-70226000D02*
X109578000Y-70226000D01*
X144422000Y-70226000D02*
X134490000Y-70226000D01*
X129010000Y-70186000D02*
X109573000Y-70186000D01*
X144427000Y-70186000D02*
X134490000Y-70186000D01*
X129010000Y-70146000D02*
X109568000Y-70146000D01*
X144432000Y-70146000D02*
X134490000Y-70146000D01*
X129010000Y-70106000D02*
X109562000Y-70106000D01*
X144438000Y-70106000D02*
X134490000Y-70106000D01*
X129010000Y-70066000D02*
X109557000Y-70066000D01*
X144443000Y-70066000D02*
X134490000Y-70066000D01*
X129010000Y-70026000D02*
X109552000Y-70026000D01*
X144448000Y-70026000D02*
X134490000Y-70026000D01*
X129010000Y-69986000D02*
X109548000Y-69986000D01*
X144452000Y-69986000D02*
X134490000Y-69986000D01*
X129010000Y-69946000D02*
X109543000Y-69946000D01*
X144457000Y-69946000D02*
X134490000Y-69946000D01*
X129010000Y-69906000D02*
X109538000Y-69906000D01*
X144462000Y-69906000D02*
X134490000Y-69906000D01*
X129010000Y-69866000D02*
X109533000Y-69866000D01*
X144467000Y-69866000D02*
X134490000Y-69866000D01*
X129010000Y-69826000D02*
X109529000Y-69826000D01*
X144471000Y-69826000D02*
X134490000Y-69826000D01*
X129010000Y-69786000D02*
X109524000Y-69786000D01*
X144476000Y-69786000D02*
X134490000Y-69786000D01*
X129010000Y-69746000D02*
X109520000Y-69746000D01*
X144480000Y-69746000D02*
X134490000Y-69746000D01*
X129010000Y-69706000D02*
X109516000Y-69706000D01*
X144484000Y-69706000D02*
X134490000Y-69706000D01*
X129010000Y-69666000D02*
X109512000Y-69666000D01*
X144488000Y-69666000D02*
X134490000Y-69666000D01*
X129010000Y-69626000D02*
X109508000Y-69626000D01*
X144492000Y-69626000D02*
X134490000Y-69626000D01*
X129010000Y-69586000D02*
X109504000Y-69586000D01*
X144496000Y-69586000D02*
X134490000Y-69586000D01*
X129010000Y-69546000D02*
X109500000Y-69546000D01*
X144500000Y-69546000D02*
X134490000Y-69546000D01*
X129010000Y-69506000D02*
X109496000Y-69506000D01*
X144504000Y-69506000D02*
X134490000Y-69506000D01*
X129010000Y-69466000D02*
X109492000Y-69466000D01*
X144508000Y-69466000D02*
X134490000Y-69466000D01*
X129010000Y-69426000D02*
X109489000Y-69426000D01*
X144511000Y-69426000D02*
X134490000Y-69426000D01*
X129010000Y-69386000D02*
X109485000Y-69386000D01*
X144515000Y-69386000D02*
X134490000Y-69386000D01*
X129010000Y-69346000D02*
X109482000Y-69346000D01*
X144518000Y-69346000D02*
X134490000Y-69346000D01*
X129010000Y-69306000D02*
X109478000Y-69306000D01*
X144522000Y-69306000D02*
X134490000Y-69306000D01*
X129010000Y-69266000D02*
X109475000Y-69266000D01*
X144525000Y-69266000D02*
X134490000Y-69266000D01*
X129010000Y-69226000D02*
X109472000Y-69226000D01*
X144528000Y-69226000D02*
X134490000Y-69226000D01*
X129010000Y-69186000D02*
X109469000Y-69186000D01*
X144531000Y-69186000D02*
X134490000Y-69186000D01*
X129010000Y-69146000D02*
X109466000Y-69146000D01*
X144534000Y-69146000D02*
X134490000Y-69146000D01*
X129010000Y-69106000D02*
X109463000Y-69106000D01*
X144537000Y-69106000D02*
X134490000Y-69106000D01*
X129010000Y-69066000D02*
X109460000Y-69066000D01*
X144540000Y-69066000D02*
X134490000Y-69066000D01*
X129010000Y-69026000D02*
X109458000Y-69026000D01*
X144542000Y-69026000D02*
X134490000Y-69026000D01*
X129010000Y-68986000D02*
X109455000Y-68986000D01*
X144545000Y-68986000D02*
X134490000Y-68986000D01*
X129010000Y-68946000D02*
X109453000Y-68946000D01*
X144547000Y-68946000D02*
X134490000Y-68946000D01*
X129010000Y-68906000D02*
X109450000Y-68906000D01*
X144550000Y-68906000D02*
X134490000Y-68906000D01*
X129010000Y-68866000D02*
X109448000Y-68866000D01*
X144552000Y-68866000D02*
X134490000Y-68866000D01*
X129010000Y-68826000D02*
X109446000Y-68826000D01*
X144554000Y-68826000D02*
X134490000Y-68826000D01*
X129010000Y-68786000D02*
X109444000Y-68786000D01*
X144556000Y-68786000D02*
X134490000Y-68786000D01*
X129010000Y-68746000D02*
X109441000Y-68746000D01*
X144559000Y-68746000D02*
X134490000Y-68746000D01*
X129010000Y-68706000D02*
X109440000Y-68706000D01*
X144560000Y-68706000D02*
X134490000Y-68706000D01*
X129010000Y-68666000D02*
X109438000Y-68666000D01*
X144562000Y-68666000D02*
X134490000Y-68666000D01*
X129010000Y-68626000D02*
X109436000Y-68626000D01*
X144564000Y-68626000D02*
X134490000Y-68626000D01*
X129010000Y-68586000D02*
X109434000Y-68586000D01*
X144566000Y-68586000D02*
X134490000Y-68586000D01*
X129010000Y-68545000D02*
X109433000Y-68545000D01*
X144567000Y-68545000D02*
X134490000Y-68545000D01*
X129010000Y-68505000D02*
X109431000Y-68505000D01*
X144569000Y-68505000D02*
X134490000Y-68505000D01*
X129010000Y-68465000D02*
X109430000Y-68465000D01*
X144570000Y-68465000D02*
X134490000Y-68465000D01*
X129010000Y-68425000D02*
X109428000Y-68425000D01*
X144572000Y-68425000D02*
X134490000Y-68425000D01*
X129010000Y-68385000D02*
X109427000Y-68385000D01*
X144573000Y-68385000D02*
X134490000Y-68385000D01*
X129010000Y-68345000D02*
X109426000Y-68345000D01*
X144574000Y-68345000D02*
X134490000Y-68345000D01*
X129010000Y-68305000D02*
X109425000Y-68305000D01*
X144575000Y-68305000D02*
X134490000Y-68305000D01*
X129010000Y-68265000D02*
X109424000Y-68265000D01*
X144576000Y-68265000D02*
X134490000Y-68265000D01*
X129010000Y-68225000D02*
X109423000Y-68225000D01*
X144577000Y-68225000D02*
X134490000Y-68225000D01*
X129010000Y-68185000D02*
X109422000Y-68185000D01*
X144578000Y-68185000D02*
X134490000Y-68185000D01*
X129010000Y-68145000D02*
X109422000Y-68145000D01*
X144578000Y-68145000D02*
X134490000Y-68145000D01*
X129010000Y-68105000D02*
X109421000Y-68105000D01*
X144579000Y-68105000D02*
X134490000Y-68105000D01*
X129010000Y-68065000D02*
X109421000Y-68065000D01*
X144579000Y-68065000D02*
X134490000Y-68065000D01*
X129010000Y-68025000D02*
X109420000Y-68025000D01*
X144580000Y-68025000D02*
X134490000Y-68025000D01*
X129010000Y-67985000D02*
X109420000Y-67985000D01*
X144580000Y-67985000D02*
X134490000Y-67985000D01*
X129010000Y-67945000D02*
X109420000Y-67945000D01*
X144580000Y-67945000D02*
X134490000Y-67945000D01*
X129010000Y-67905000D02*
X109420000Y-67905000D01*
X144580000Y-67905000D02*
X134490000Y-67905000D01*
X129010000Y-67865000D02*
X109420000Y-67865000D01*
X144580000Y-67865000D02*
X134490000Y-67865000D01*
X144620000Y-67865000D02*
G75*
G03*
X144620000Y-67865000I-17620000J0D01*
G01*
%TO.C,C2*%
X144620000Y-104695000D02*
G75*
G03*
X144620000Y-104695000I-17620000J0D01*
G01*
X144580000Y-104695000D02*
X134490000Y-104695000D01*
X129010000Y-104695000D02*
X109420000Y-104695000D01*
X144580000Y-104735000D02*
X134490000Y-104735000D01*
X129010000Y-104735000D02*
X109420000Y-104735000D01*
X144580000Y-104775000D02*
X134490000Y-104775000D01*
X129010000Y-104775000D02*
X109420000Y-104775000D01*
X144580000Y-104815000D02*
X134490000Y-104815000D01*
X129010000Y-104815000D02*
X109420000Y-104815000D01*
X144580000Y-104855000D02*
X134490000Y-104855000D01*
X129010000Y-104855000D02*
X109420000Y-104855000D01*
X144579000Y-104895000D02*
X134490000Y-104895000D01*
X129010000Y-104895000D02*
X109421000Y-104895000D01*
X144579000Y-104935000D02*
X134490000Y-104935000D01*
X129010000Y-104935000D02*
X109421000Y-104935000D01*
X144578000Y-104975000D02*
X134490000Y-104975000D01*
X129010000Y-104975000D02*
X109422000Y-104975000D01*
X144578000Y-105015000D02*
X134490000Y-105015000D01*
X129010000Y-105015000D02*
X109422000Y-105015000D01*
X144577000Y-105055000D02*
X134490000Y-105055000D01*
X129010000Y-105055000D02*
X109423000Y-105055000D01*
X144576000Y-105095000D02*
X134490000Y-105095000D01*
X129010000Y-105095000D02*
X109424000Y-105095000D01*
X144575000Y-105135000D02*
X134490000Y-105135000D01*
X129010000Y-105135000D02*
X109425000Y-105135000D01*
X144574000Y-105175000D02*
X134490000Y-105175000D01*
X129010000Y-105175000D02*
X109426000Y-105175000D01*
X144573000Y-105215000D02*
X134490000Y-105215000D01*
X129010000Y-105215000D02*
X109427000Y-105215000D01*
X144572000Y-105255000D02*
X134490000Y-105255000D01*
X129010000Y-105255000D02*
X109428000Y-105255000D01*
X144570000Y-105295000D02*
X134490000Y-105295000D01*
X129010000Y-105295000D02*
X109430000Y-105295000D01*
X144569000Y-105335000D02*
X134490000Y-105335000D01*
X129010000Y-105335000D02*
X109431000Y-105335000D01*
X144567000Y-105375000D02*
X134490000Y-105375000D01*
X129010000Y-105375000D02*
X109433000Y-105375000D01*
X144566000Y-105416000D02*
X134490000Y-105416000D01*
X129010000Y-105416000D02*
X109434000Y-105416000D01*
X144564000Y-105456000D02*
X134490000Y-105456000D01*
X129010000Y-105456000D02*
X109436000Y-105456000D01*
X144562000Y-105496000D02*
X134490000Y-105496000D01*
X129010000Y-105496000D02*
X109438000Y-105496000D01*
X144560000Y-105536000D02*
X134490000Y-105536000D01*
X129010000Y-105536000D02*
X109440000Y-105536000D01*
X144559000Y-105576000D02*
X134490000Y-105576000D01*
X129010000Y-105576000D02*
X109441000Y-105576000D01*
X144556000Y-105616000D02*
X134490000Y-105616000D01*
X129010000Y-105616000D02*
X109444000Y-105616000D01*
X144554000Y-105656000D02*
X134490000Y-105656000D01*
X129010000Y-105656000D02*
X109446000Y-105656000D01*
X144552000Y-105696000D02*
X134490000Y-105696000D01*
X129010000Y-105696000D02*
X109448000Y-105696000D01*
X144550000Y-105736000D02*
X134490000Y-105736000D01*
X129010000Y-105736000D02*
X109450000Y-105736000D01*
X144547000Y-105776000D02*
X134490000Y-105776000D01*
X129010000Y-105776000D02*
X109453000Y-105776000D01*
X144545000Y-105816000D02*
X134490000Y-105816000D01*
X129010000Y-105816000D02*
X109455000Y-105816000D01*
X144542000Y-105856000D02*
X134490000Y-105856000D01*
X129010000Y-105856000D02*
X109458000Y-105856000D01*
X144540000Y-105896000D02*
X134490000Y-105896000D01*
X129010000Y-105896000D02*
X109460000Y-105896000D01*
X144537000Y-105936000D02*
X134490000Y-105936000D01*
X129010000Y-105936000D02*
X109463000Y-105936000D01*
X144534000Y-105976000D02*
X134490000Y-105976000D01*
X129010000Y-105976000D02*
X109466000Y-105976000D01*
X144531000Y-106016000D02*
X134490000Y-106016000D01*
X129010000Y-106016000D02*
X109469000Y-106016000D01*
X144528000Y-106056000D02*
X134490000Y-106056000D01*
X129010000Y-106056000D02*
X109472000Y-106056000D01*
X144525000Y-106096000D02*
X134490000Y-106096000D01*
X129010000Y-106096000D02*
X109475000Y-106096000D01*
X144522000Y-106136000D02*
X134490000Y-106136000D01*
X129010000Y-106136000D02*
X109478000Y-106136000D01*
X144518000Y-106176000D02*
X134490000Y-106176000D01*
X129010000Y-106176000D02*
X109482000Y-106176000D01*
X144515000Y-106216000D02*
X134490000Y-106216000D01*
X129010000Y-106216000D02*
X109485000Y-106216000D01*
X144511000Y-106256000D02*
X134490000Y-106256000D01*
X129010000Y-106256000D02*
X109489000Y-106256000D01*
X144508000Y-106296000D02*
X134490000Y-106296000D01*
X129010000Y-106296000D02*
X109492000Y-106296000D01*
X144504000Y-106336000D02*
X134490000Y-106336000D01*
X129010000Y-106336000D02*
X109496000Y-106336000D01*
X144500000Y-106376000D02*
X134490000Y-106376000D01*
X129010000Y-106376000D02*
X109500000Y-106376000D01*
X144496000Y-106416000D02*
X134490000Y-106416000D01*
X129010000Y-106416000D02*
X109504000Y-106416000D01*
X144492000Y-106456000D02*
X134490000Y-106456000D01*
X129010000Y-106456000D02*
X109508000Y-106456000D01*
X144488000Y-106496000D02*
X134490000Y-106496000D01*
X129010000Y-106496000D02*
X109512000Y-106496000D01*
X144484000Y-106536000D02*
X134490000Y-106536000D01*
X129010000Y-106536000D02*
X109516000Y-106536000D01*
X144480000Y-106576000D02*
X134490000Y-106576000D01*
X129010000Y-106576000D02*
X109520000Y-106576000D01*
X144476000Y-106616000D02*
X134490000Y-106616000D01*
X129010000Y-106616000D02*
X109524000Y-106616000D01*
X144471000Y-106656000D02*
X134490000Y-106656000D01*
X129010000Y-106656000D02*
X109529000Y-106656000D01*
X144467000Y-106696000D02*
X134490000Y-106696000D01*
X129010000Y-106696000D02*
X109533000Y-106696000D01*
X144462000Y-106736000D02*
X134490000Y-106736000D01*
X129010000Y-106736000D02*
X109538000Y-106736000D01*
X144457000Y-106776000D02*
X134490000Y-106776000D01*
X129010000Y-106776000D02*
X109543000Y-106776000D01*
X144452000Y-106816000D02*
X134490000Y-106816000D01*
X129010000Y-106816000D02*
X109548000Y-106816000D01*
X144448000Y-106856000D02*
X134490000Y-106856000D01*
X129010000Y-106856000D02*
X109552000Y-106856000D01*
X144443000Y-106896000D02*
X134490000Y-106896000D01*
X129010000Y-106896000D02*
X109557000Y-106896000D01*
X144438000Y-106936000D02*
X134490000Y-106936000D01*
X129010000Y-106936000D02*
X109562000Y-106936000D01*
X144432000Y-106976000D02*
X134490000Y-106976000D01*
X129010000Y-106976000D02*
X109568000Y-106976000D01*
X144427000Y-107016000D02*
X134490000Y-107016000D01*
X129010000Y-107016000D02*
X109573000Y-107016000D01*
X144422000Y-107056000D02*
X134490000Y-107056000D01*
X129010000Y-107056000D02*
X109578000Y-107056000D01*
X144416000Y-107096000D02*
X134490000Y-107096000D01*
X129010000Y-107096000D02*
X109584000Y-107096000D01*
X144411000Y-107136000D02*
X134490000Y-107136000D01*
X129010000Y-107136000D02*
X109589000Y-107136000D01*
X144405000Y-107176000D02*
X134490000Y-107176000D01*
X129010000Y-107176000D02*
X109595000Y-107176000D01*
X144399000Y-107216000D02*
X134490000Y-107216000D01*
X129010000Y-107216000D02*
X109601000Y-107216000D01*
X144394000Y-107256000D02*
X134490000Y-107256000D01*
X129010000Y-107256000D02*
X109606000Y-107256000D01*
X144388000Y-107296000D02*
X134490000Y-107296000D01*
X129010000Y-107296000D02*
X109612000Y-107296000D01*
X144382000Y-107336000D02*
X134490000Y-107336000D01*
X129010000Y-107336000D02*
X109618000Y-107336000D01*
X144375000Y-107376000D02*
X134490000Y-107376000D01*
X129010000Y-107376000D02*
X109625000Y-107376000D01*
X144369000Y-107416000D02*
X134490000Y-107416000D01*
X129010000Y-107416000D02*
X109631000Y-107416000D01*
X124760000Y-107456000D02*
X109637000Y-107456000D01*
X144363000Y-107456000D02*
X134490000Y-107456000D01*
X124760000Y-107496000D02*
X109643000Y-107496000D01*
X144357000Y-107496000D02*
X134490000Y-107496000D01*
X124760000Y-107536000D02*
X109650000Y-107536000D01*
X144350000Y-107536000D02*
X134490000Y-107536000D01*
X124760000Y-107576000D02*
X109656000Y-107576000D01*
X144344000Y-107576000D02*
X134490000Y-107576000D01*
X124760000Y-107616000D02*
X109663000Y-107616000D01*
X144337000Y-107616000D02*
X134490000Y-107616000D01*
X124760000Y-107656000D02*
X109670000Y-107656000D01*
X144330000Y-107656000D02*
X134490000Y-107656000D01*
X124760000Y-107696000D02*
X109677000Y-107696000D01*
X144323000Y-107696000D02*
X134490000Y-107696000D01*
X124760000Y-107736000D02*
X109684000Y-107736000D01*
X144316000Y-107736000D02*
X134490000Y-107736000D01*
X124760000Y-107776000D02*
X109691000Y-107776000D01*
X144309000Y-107776000D02*
X134490000Y-107776000D01*
X124760000Y-107816000D02*
X109698000Y-107816000D01*
X144302000Y-107816000D02*
X134490000Y-107816000D01*
X124760000Y-107856000D02*
X109705000Y-107856000D01*
X144295000Y-107856000D02*
X134490000Y-107856000D01*
X124760000Y-107896000D02*
X109713000Y-107896000D01*
X144287000Y-107896000D02*
X134490000Y-107896000D01*
X124760000Y-107936000D02*
X109720000Y-107936000D01*
X144280000Y-107936000D02*
X134490000Y-107936000D01*
X124760000Y-107976000D02*
X109727000Y-107976000D01*
X144273000Y-107976000D02*
X134490000Y-107976000D01*
X124760000Y-108016000D02*
X109735000Y-108016000D01*
X144265000Y-108016000D02*
X134490000Y-108016000D01*
X124760000Y-108056000D02*
X109743000Y-108056000D01*
X144257000Y-108056000D02*
X134490000Y-108056000D01*
X124760000Y-108096000D02*
X109751000Y-108096000D01*
X144249000Y-108096000D02*
X134490000Y-108096000D01*
X124760000Y-108136000D02*
X109759000Y-108136000D01*
X144241000Y-108136000D02*
X134490000Y-108136000D01*
X124760000Y-108176000D02*
X109767000Y-108176000D01*
X144233000Y-108176000D02*
X134490000Y-108176000D01*
X124760000Y-108216000D02*
X109775000Y-108216000D01*
X144225000Y-108216000D02*
X134490000Y-108216000D01*
X124760000Y-108256000D02*
X109783000Y-108256000D01*
X144217000Y-108256000D02*
X134490000Y-108256000D01*
X124760000Y-108296000D02*
X109791000Y-108296000D01*
X144209000Y-108296000D02*
X134490000Y-108296000D01*
X124760000Y-108336000D02*
X109800000Y-108336000D01*
X144200000Y-108336000D02*
X134490000Y-108336000D01*
X124760000Y-108376000D02*
X109808000Y-108376000D01*
X144192000Y-108376000D02*
X134490000Y-108376000D01*
X124760000Y-108416000D02*
X109817000Y-108416000D01*
X144183000Y-108416000D02*
X134490000Y-108416000D01*
X124760000Y-108456000D02*
X109825000Y-108456000D01*
X144175000Y-108456000D02*
X134490000Y-108456000D01*
X124760000Y-108496000D02*
X109834000Y-108496000D01*
X144166000Y-108496000D02*
X134490000Y-108496000D01*
X124760000Y-108536000D02*
X109843000Y-108536000D01*
X144157000Y-108536000D02*
X134490000Y-108536000D01*
X124760000Y-108576000D02*
X109852000Y-108576000D01*
X144148000Y-108576000D02*
X134490000Y-108576000D01*
X124760000Y-108616000D02*
X109861000Y-108616000D01*
X144139000Y-108616000D02*
X134490000Y-108616000D01*
X124760000Y-108656000D02*
X109870000Y-108656000D01*
X144130000Y-108656000D02*
X134490000Y-108656000D01*
X124760000Y-108696000D02*
X109880000Y-108696000D01*
X144120000Y-108696000D02*
X134490000Y-108696000D01*
X124760000Y-108736000D02*
X109889000Y-108736000D01*
X144111000Y-108736000D02*
X134490000Y-108736000D01*
X124760000Y-108776000D02*
X109898000Y-108776000D01*
X144102000Y-108776000D02*
X134490000Y-108776000D01*
X124760000Y-108816000D02*
X109908000Y-108816000D01*
X144092000Y-108816000D02*
X134490000Y-108816000D01*
X124760000Y-108856000D02*
X109918000Y-108856000D01*
X144082000Y-108856000D02*
X134490000Y-108856000D01*
X124760000Y-108896000D02*
X109927000Y-108896000D01*
X144073000Y-108896000D02*
X134490000Y-108896000D01*
X124760000Y-108936000D02*
X109937000Y-108936000D01*
X144063000Y-108936000D02*
X134490000Y-108936000D01*
X124760000Y-108976000D02*
X109947000Y-108976000D01*
X144053000Y-108976000D02*
X134490000Y-108976000D01*
X124760000Y-109016000D02*
X109957000Y-109016000D01*
X144043000Y-109016000D02*
X134490000Y-109016000D01*
X124760000Y-109056000D02*
X109967000Y-109056000D01*
X144033000Y-109056000D02*
X134490000Y-109056000D01*
X124760000Y-109096000D02*
X109978000Y-109096000D01*
X144022000Y-109096000D02*
X134490000Y-109096000D01*
X144012000Y-109136000D02*
X129240000Y-109136000D01*
X124760000Y-109136000D02*
X109988000Y-109136000D01*
X144001000Y-109176000D02*
X129240000Y-109176000D01*
X124760000Y-109176000D02*
X109999000Y-109176000D01*
X143991000Y-109216000D02*
X129240000Y-109216000D01*
X124760000Y-109216000D02*
X110009000Y-109216000D01*
X143980000Y-109256000D02*
X129240000Y-109256000D01*
X124760000Y-109256000D02*
X110020000Y-109256000D01*
X143969000Y-109296000D02*
X129240000Y-109296000D01*
X124760000Y-109296000D02*
X110031000Y-109296000D01*
X143959000Y-109336000D02*
X129240000Y-109336000D01*
X124760000Y-109336000D02*
X110041000Y-109336000D01*
X143948000Y-109376000D02*
X129240000Y-109376000D01*
X124760000Y-109376000D02*
X110052000Y-109376000D01*
X143937000Y-109416000D02*
X129240000Y-109416000D01*
X124760000Y-109416000D02*
X110063000Y-109416000D01*
X143925000Y-109456000D02*
X129240000Y-109456000D01*
X124760000Y-109456000D02*
X110075000Y-109456000D01*
X143914000Y-109496000D02*
X129240000Y-109496000D01*
X124760000Y-109496000D02*
X110086000Y-109496000D01*
X143903000Y-109536000D02*
X129240000Y-109536000D01*
X124760000Y-109536000D02*
X110097000Y-109536000D01*
X143891000Y-109576000D02*
X129240000Y-109576000D01*
X124760000Y-109576000D02*
X110109000Y-109576000D01*
X143880000Y-109616000D02*
X129240000Y-109616000D01*
X124760000Y-109616000D02*
X110120000Y-109616000D01*
X143868000Y-109656000D02*
X129240000Y-109656000D01*
X124760000Y-109656000D02*
X110132000Y-109656000D01*
X143856000Y-109696000D02*
X129240000Y-109696000D01*
X124760000Y-109696000D02*
X110144000Y-109696000D01*
X143844000Y-109736000D02*
X129240000Y-109736000D01*
X124760000Y-109736000D02*
X110156000Y-109736000D01*
X143832000Y-109776000D02*
X129240000Y-109776000D01*
X124760000Y-109776000D02*
X110168000Y-109776000D01*
X143820000Y-109816000D02*
X129240000Y-109816000D01*
X124760000Y-109816000D02*
X110180000Y-109816000D01*
X143808000Y-109856000D02*
X129240000Y-109856000D01*
X124760000Y-109856000D02*
X110192000Y-109856000D01*
X143796000Y-109896000D02*
X129240000Y-109896000D01*
X124760000Y-109896000D02*
X110204000Y-109896000D01*
X143783000Y-109936000D02*
X129240000Y-109936000D01*
X124760000Y-109936000D02*
X110217000Y-109936000D01*
X143771000Y-109976000D02*
X129240000Y-109976000D01*
X124760000Y-109976000D02*
X110229000Y-109976000D01*
X143758000Y-110016000D02*
X129240000Y-110016000D01*
X124760000Y-110016000D02*
X110242000Y-110016000D01*
X143745000Y-110056000D02*
X129240000Y-110056000D01*
X124760000Y-110056000D02*
X110255000Y-110056000D01*
X143733000Y-110096000D02*
X129240000Y-110096000D01*
X124760000Y-110096000D02*
X110267000Y-110096000D01*
X143720000Y-110136000D02*
X129240000Y-110136000D01*
X124760000Y-110136000D02*
X110280000Y-110136000D01*
X143707000Y-110176000D02*
X129240000Y-110176000D01*
X124760000Y-110176000D02*
X110293000Y-110176000D01*
X143694000Y-110216000D02*
X129240000Y-110216000D01*
X124760000Y-110216000D02*
X110306000Y-110216000D01*
X143680000Y-110256000D02*
X129240000Y-110256000D01*
X124760000Y-110256000D02*
X110320000Y-110256000D01*
X143667000Y-110296000D02*
X129240000Y-110296000D01*
X124760000Y-110296000D02*
X110333000Y-110296000D01*
X143653000Y-110336000D02*
X129240000Y-110336000D01*
X124760000Y-110336000D02*
X110347000Y-110336000D01*
X143640000Y-110376000D02*
X129240000Y-110376000D01*
X124760000Y-110376000D02*
X110360000Y-110376000D01*
X143626000Y-110416000D02*
X129240000Y-110416000D01*
X124760000Y-110416000D02*
X110374000Y-110416000D01*
X143612000Y-110456000D02*
X129240000Y-110456000D01*
X124760000Y-110456000D02*
X110388000Y-110456000D01*
X143599000Y-110496000D02*
X129240000Y-110496000D01*
X124760000Y-110496000D02*
X110401000Y-110496000D01*
X143585000Y-110536000D02*
X129240000Y-110536000D01*
X124760000Y-110536000D02*
X110415000Y-110536000D01*
X143570000Y-110576000D02*
X129240000Y-110576000D01*
X124760000Y-110576000D02*
X110430000Y-110576000D01*
X143556000Y-110616000D02*
X129240000Y-110616000D01*
X124760000Y-110616000D02*
X110444000Y-110616000D01*
X143542000Y-110656000D02*
X129240000Y-110656000D01*
X124760000Y-110656000D02*
X110458000Y-110656000D01*
X143527000Y-110696000D02*
X129240000Y-110696000D01*
X124760000Y-110696000D02*
X110473000Y-110696000D01*
X143513000Y-110736000D02*
X129240000Y-110736000D01*
X124760000Y-110736000D02*
X110487000Y-110736000D01*
X143498000Y-110776000D02*
X129240000Y-110776000D01*
X124760000Y-110776000D02*
X110502000Y-110776000D01*
X143484000Y-110816000D02*
X129240000Y-110816000D01*
X124760000Y-110816000D02*
X110516000Y-110816000D01*
X143469000Y-110856000D02*
X129240000Y-110856000D01*
X124760000Y-110856000D02*
X110531000Y-110856000D01*
X143454000Y-110896000D02*
X129240000Y-110896000D01*
X124760000Y-110896000D02*
X110546000Y-110896000D01*
X143439000Y-110936000D02*
X129240000Y-110936000D01*
X124760000Y-110936000D02*
X110561000Y-110936000D01*
X143423000Y-110976000D02*
X129240000Y-110976000D01*
X124760000Y-110976000D02*
X110577000Y-110976000D01*
X143408000Y-111016000D02*
X129240000Y-111016000D01*
X124760000Y-111016000D02*
X110592000Y-111016000D01*
X143393000Y-111056000D02*
X129240000Y-111056000D01*
X124760000Y-111056000D02*
X110607000Y-111056000D01*
X143377000Y-111096000D02*
X129240000Y-111096000D01*
X124760000Y-111096000D02*
X110623000Y-111096000D01*
X143361000Y-111136000D02*
X129240000Y-111136000D01*
X124760000Y-111136000D02*
X110639000Y-111136000D01*
X143346000Y-111176000D02*
X129240000Y-111176000D01*
X124760000Y-111176000D02*
X110654000Y-111176000D01*
X143330000Y-111216000D02*
X129240000Y-111216000D01*
X124760000Y-111216000D02*
X110670000Y-111216000D01*
X143314000Y-111256000D02*
X129240000Y-111256000D01*
X124760000Y-111256000D02*
X110686000Y-111256000D01*
X143298000Y-111296000D02*
X129240000Y-111296000D01*
X124760000Y-111296000D02*
X110702000Y-111296000D01*
X143281000Y-111336000D02*
X129240000Y-111336000D01*
X124760000Y-111336000D02*
X110719000Y-111336000D01*
X143265000Y-111376000D02*
X129240000Y-111376000D01*
X124760000Y-111376000D02*
X110735000Y-111376000D01*
X143249000Y-111416000D02*
X129240000Y-111416000D01*
X124760000Y-111416000D02*
X110751000Y-111416000D01*
X143232000Y-111456000D02*
X129240000Y-111456000D01*
X124760000Y-111456000D02*
X110768000Y-111456000D01*
X143215000Y-111496000D02*
X129240000Y-111496000D01*
X124760000Y-111496000D02*
X110785000Y-111496000D01*
X143199000Y-111536000D02*
X129240000Y-111536000D01*
X124760000Y-111536000D02*
X110801000Y-111536000D01*
X143182000Y-111576000D02*
X129240000Y-111576000D01*
X124760000Y-111576000D02*
X110818000Y-111576000D01*
X143165000Y-111616000D02*
X129240000Y-111616000D01*
X124760000Y-111616000D02*
X110835000Y-111616000D01*
X143148000Y-111656000D02*
X129240000Y-111656000D01*
X124760000Y-111656000D02*
X110852000Y-111656000D01*
X143130000Y-111696000D02*
X129240000Y-111696000D01*
X124760000Y-111696000D02*
X110870000Y-111696000D01*
X143113000Y-111736000D02*
X129240000Y-111736000D01*
X124760000Y-111736000D02*
X110887000Y-111736000D01*
X143095000Y-111776000D02*
X129240000Y-111776000D01*
X124760000Y-111776000D02*
X110905000Y-111776000D01*
X143078000Y-111816000D02*
X129240000Y-111816000D01*
X124760000Y-111816000D02*
X110922000Y-111816000D01*
X143060000Y-111856000D02*
X129240000Y-111856000D01*
X124760000Y-111856000D02*
X110940000Y-111856000D01*
X143042000Y-111896000D02*
X129240000Y-111896000D01*
X124760000Y-111896000D02*
X110958000Y-111896000D01*
X143024000Y-111936000D02*
X110976000Y-111936000D01*
X143006000Y-111976000D02*
X110994000Y-111976000D01*
X142988000Y-112016000D02*
X111012000Y-112016000D01*
X142970000Y-112056000D02*
X111030000Y-112056000D01*
X142951000Y-112096000D02*
X111049000Y-112096000D01*
X142933000Y-112136000D02*
X111067000Y-112136000D01*
X142914000Y-112176000D02*
X111086000Y-112176000D01*
X142895000Y-112216000D02*
X111105000Y-112216000D01*
X142876000Y-112256000D02*
X111124000Y-112256000D01*
X142857000Y-112296000D02*
X111143000Y-112296000D01*
X142838000Y-112336000D02*
X111162000Y-112336000D01*
X142819000Y-112376000D02*
X111181000Y-112376000D01*
X142799000Y-112416000D02*
X111201000Y-112416000D01*
X142780000Y-112456000D02*
X111220000Y-112456000D01*
X142760000Y-112496000D02*
X111240000Y-112496000D01*
X142740000Y-112536000D02*
X111260000Y-112536000D01*
X142720000Y-112576000D02*
X111280000Y-112576000D01*
X142700000Y-112616000D02*
X111300000Y-112616000D01*
X142680000Y-112656000D02*
X111320000Y-112656000D01*
X142660000Y-112696000D02*
X111340000Y-112696000D01*
X142639000Y-112736000D02*
X111361000Y-112736000D01*
X142619000Y-112776000D02*
X111381000Y-112776000D01*
X142598000Y-112816000D02*
X111402000Y-112816000D01*
X142577000Y-112856000D02*
X111423000Y-112856000D01*
X142556000Y-112895000D02*
X111444000Y-112895000D01*
X142535000Y-112935000D02*
X111465000Y-112935000D01*
X142514000Y-112975000D02*
X111486000Y-112975000D01*
X142492000Y-113015000D02*
X111508000Y-113015000D01*
X142471000Y-113055000D02*
X111529000Y-113055000D01*
X142449000Y-113095000D02*
X111551000Y-113095000D01*
X142428000Y-113135000D02*
X111572000Y-113135000D01*
X142406000Y-113175000D02*
X111594000Y-113175000D01*
X142384000Y-113215000D02*
X111616000Y-113215000D01*
X142361000Y-113255000D02*
X111639000Y-113255000D01*
X142339000Y-113295000D02*
X111661000Y-113295000D01*
X142317000Y-113335000D02*
X111683000Y-113335000D01*
X142294000Y-113375000D02*
X111706000Y-113375000D01*
X142271000Y-113415000D02*
X111729000Y-113415000D01*
X142249000Y-113455000D02*
X111751000Y-113455000D01*
X142226000Y-113495000D02*
X111774000Y-113495000D01*
X142203000Y-113535000D02*
X111797000Y-113535000D01*
X142179000Y-113575000D02*
X111821000Y-113575000D01*
X142156000Y-113615000D02*
X111844000Y-113615000D01*
X142132000Y-113655000D02*
X111868000Y-113655000D01*
X142109000Y-113695000D02*
X111891000Y-113695000D01*
X142085000Y-113735000D02*
X111915000Y-113735000D01*
X142061000Y-113775000D02*
X111939000Y-113775000D01*
X142037000Y-113815000D02*
X111963000Y-113815000D01*
X142012000Y-113855000D02*
X111988000Y-113855000D01*
X141988000Y-113895000D02*
X112012000Y-113895000D01*
X141963000Y-113935000D02*
X112037000Y-113935000D01*
X141939000Y-113975000D02*
X112061000Y-113975000D01*
X141914000Y-114015000D02*
X112086000Y-114015000D01*
X141889000Y-114055000D02*
X112111000Y-114055000D01*
X141864000Y-114095000D02*
X112136000Y-114095000D01*
X141838000Y-114135000D02*
X112162000Y-114135000D01*
X141813000Y-114175000D02*
X112187000Y-114175000D01*
X141787000Y-114215000D02*
X112213000Y-114215000D01*
X141762000Y-114255000D02*
X112238000Y-114255000D01*
X141736000Y-114295000D02*
X112264000Y-114295000D01*
X141710000Y-114335000D02*
X112290000Y-114335000D01*
X141683000Y-114375000D02*
X112317000Y-114375000D01*
X141657000Y-114415000D02*
X112343000Y-114415000D01*
X141630000Y-114455000D02*
X112370000Y-114455000D01*
X141604000Y-114495000D02*
X112396000Y-114495000D01*
X141577000Y-114535000D02*
X112423000Y-114535000D01*
X141550000Y-114575000D02*
X112450000Y-114575000D01*
X141523000Y-114615000D02*
X112477000Y-114615000D01*
X141495000Y-114655000D02*
X112505000Y-114655000D01*
X141468000Y-114695000D02*
X112532000Y-114695000D01*
X141440000Y-114735000D02*
X112560000Y-114735000D01*
X141412000Y-114775000D02*
X112588000Y-114775000D01*
X141384000Y-114815000D02*
X112616000Y-114815000D01*
X141356000Y-114855000D02*
X112644000Y-114855000D01*
X141328000Y-114895000D02*
X112672000Y-114895000D01*
X141299000Y-114935000D02*
X112701000Y-114935000D01*
X141271000Y-114975000D02*
X112729000Y-114975000D01*
X141242000Y-115015000D02*
X112758000Y-115015000D01*
X141213000Y-115055000D02*
X112787000Y-115055000D01*
X141184000Y-115095000D02*
X112816000Y-115095000D01*
X141155000Y-115135000D02*
X112845000Y-115135000D01*
X141125000Y-115175000D02*
X112875000Y-115175000D01*
X141095000Y-115215000D02*
X112905000Y-115215000D01*
X141065000Y-115255000D02*
X112935000Y-115255000D01*
X141035000Y-115295000D02*
X112965000Y-115295000D01*
X141005000Y-115335000D02*
X112995000Y-115335000D01*
X140975000Y-115375000D02*
X113025000Y-115375000D01*
X140944000Y-115415000D02*
X113056000Y-115415000D01*
X140914000Y-115455000D02*
X113086000Y-115455000D01*
X140883000Y-115495000D02*
X113117000Y-115495000D01*
X140851000Y-115535000D02*
X113149000Y-115535000D01*
X140820000Y-115575000D02*
X113180000Y-115575000D01*
X140789000Y-115615000D02*
X113211000Y-115615000D01*
X140757000Y-115655000D02*
X113243000Y-115655000D01*
X140725000Y-115695000D02*
X113275000Y-115695000D01*
X140693000Y-115735000D02*
X113307000Y-115735000D01*
X140661000Y-115775000D02*
X113339000Y-115775000D01*
X140628000Y-115815000D02*
X113372000Y-115815000D01*
X140596000Y-115855000D02*
X113404000Y-115855000D01*
X140563000Y-115895000D02*
X113437000Y-115895000D01*
X140530000Y-115935000D02*
X113470000Y-115935000D01*
X140497000Y-115975000D02*
X113503000Y-115975000D01*
X140463000Y-116015000D02*
X113537000Y-116015000D01*
X140430000Y-116055000D02*
X113570000Y-116055000D01*
X140396000Y-116095000D02*
X113604000Y-116095000D01*
X140362000Y-116135000D02*
X113638000Y-116135000D01*
X140327000Y-116175000D02*
X113673000Y-116175000D01*
X140293000Y-116215000D02*
X113707000Y-116215000D01*
X140258000Y-116255000D02*
X113742000Y-116255000D01*
X140223000Y-116295000D02*
X113777000Y-116295000D01*
X140188000Y-116335000D02*
X113812000Y-116335000D01*
X140153000Y-116375000D02*
X113847000Y-116375000D01*
X140117000Y-116415000D02*
X113883000Y-116415000D01*
X140082000Y-116455000D02*
X113918000Y-116455000D01*
X140046000Y-116495000D02*
X113954000Y-116495000D01*
X140010000Y-116535000D02*
X113990000Y-116535000D01*
X139973000Y-116575000D02*
X114027000Y-116575000D01*
X139937000Y-116615000D02*
X114063000Y-116615000D01*
X139900000Y-116655000D02*
X114100000Y-116655000D01*
X139863000Y-116695000D02*
X114137000Y-116695000D01*
X139825000Y-116735000D02*
X114175000Y-116735000D01*
X139788000Y-116775000D02*
X114212000Y-116775000D01*
X139750000Y-116815000D02*
X114250000Y-116815000D01*
X139712000Y-116855000D02*
X114288000Y-116855000D01*
X139674000Y-116895000D02*
X114326000Y-116895000D01*
X139635000Y-116935000D02*
X114365000Y-116935000D01*
X139596000Y-116975000D02*
X114404000Y-116975000D01*
X139557000Y-117015000D02*
X114443000Y-117015000D01*
X139518000Y-117055000D02*
X114482000Y-117055000D01*
X139479000Y-117095000D02*
X114521000Y-117095000D01*
X139439000Y-117135000D02*
X114561000Y-117135000D01*
X139399000Y-117175000D02*
X114601000Y-117175000D01*
X139359000Y-117215000D02*
X114641000Y-117215000D01*
X139318000Y-117255000D02*
X114682000Y-117255000D01*
X139277000Y-117295000D02*
X114723000Y-117295000D01*
X139236000Y-117335000D02*
X114764000Y-117335000D01*
X139195000Y-117375000D02*
X114805000Y-117375000D01*
X139153000Y-117415000D02*
X114847000Y-117415000D01*
X139111000Y-117455000D02*
X114889000Y-117455000D01*
X139069000Y-117495000D02*
X114931000Y-117495000D01*
X139027000Y-117535000D02*
X114973000Y-117535000D01*
X138984000Y-117575000D02*
X115016000Y-117575000D01*
X138941000Y-117615000D02*
X115059000Y-117615000D01*
X138898000Y-117655000D02*
X115102000Y-117655000D01*
X138854000Y-117695000D02*
X115146000Y-117695000D01*
X138811000Y-117735000D02*
X115189000Y-117735000D01*
X138766000Y-117775000D02*
X115234000Y-117775000D01*
X138722000Y-117815000D02*
X115278000Y-117815000D01*
X138677000Y-117855000D02*
X115323000Y-117855000D01*
X138632000Y-117895000D02*
X115368000Y-117895000D01*
X138587000Y-117935000D02*
X115413000Y-117935000D01*
X138541000Y-117975000D02*
X115459000Y-117975000D01*
X138495000Y-118015000D02*
X115505000Y-118015000D01*
X138449000Y-118055000D02*
X115551000Y-118055000D01*
X138402000Y-118095000D02*
X115598000Y-118095000D01*
X138355000Y-118135000D02*
X115645000Y-118135000D01*
X138307000Y-118175000D02*
X115693000Y-118175000D01*
X138260000Y-118215000D02*
X115740000Y-118215000D01*
X138212000Y-118255000D02*
X115788000Y-118255000D01*
X138163000Y-118295000D02*
X115837000Y-118295000D01*
X138115000Y-118335000D02*
X115885000Y-118335000D01*
X138066000Y-118375000D02*
X115934000Y-118375000D01*
X138016000Y-118415000D02*
X115984000Y-118415000D01*
X137966000Y-118455000D02*
X116034000Y-118455000D01*
X137916000Y-118495000D02*
X116084000Y-118495000D01*
X137865000Y-118535000D02*
X116135000Y-118535000D01*
X137815000Y-118575000D02*
X116185000Y-118575000D01*
X137763000Y-118615000D02*
X116237000Y-118615000D01*
X137711000Y-118655000D02*
X116289000Y-118655000D01*
X137659000Y-118695000D02*
X116341000Y-118695000D01*
X137607000Y-118735000D02*
X116393000Y-118735000D01*
X137554000Y-118775000D02*
X116446000Y-118775000D01*
X137500000Y-118815000D02*
X116500000Y-118815000D01*
X137447000Y-118855000D02*
X116553000Y-118855000D01*
X137392000Y-118895000D02*
X116608000Y-118895000D01*
X137338000Y-118935000D02*
X116662000Y-118935000D01*
X137283000Y-118975000D02*
X116717000Y-118975000D01*
X137227000Y-119015000D02*
X116773000Y-119015000D01*
X137171000Y-119055000D02*
X116829000Y-119055000D01*
X137115000Y-119095000D02*
X116885000Y-119095000D01*
X137058000Y-119135000D02*
X116942000Y-119135000D01*
X137000000Y-119175000D02*
X117000000Y-119175000D01*
X136942000Y-119215000D02*
X117058000Y-119215000D01*
X136884000Y-119255000D02*
X117116000Y-119255000D01*
X136825000Y-119295000D02*
X117175000Y-119295000D01*
X136765000Y-119335000D02*
X117235000Y-119335000D01*
X136705000Y-119375000D02*
X117295000Y-119375000D01*
X136645000Y-119415000D02*
X117355000Y-119415000D01*
X136584000Y-119455000D02*
X117416000Y-119455000D01*
X136522000Y-119495000D02*
X117478000Y-119495000D01*
X136460000Y-119535000D02*
X117540000Y-119535000D01*
X136397000Y-119575000D02*
X117603000Y-119575000D01*
X136334000Y-119615000D02*
X117666000Y-119615000D01*
X136270000Y-119655000D02*
X117730000Y-119655000D01*
X136205000Y-119695000D02*
X117795000Y-119695000D01*
X136140000Y-119735000D02*
X117860000Y-119735000D01*
X136074000Y-119775000D02*
X117926000Y-119775000D01*
X136008000Y-119815000D02*
X117992000Y-119815000D01*
X135940000Y-119855000D02*
X118060000Y-119855000D01*
X135873000Y-119895000D02*
X118127000Y-119895000D01*
X135804000Y-119935000D02*
X118196000Y-119935000D01*
X135735000Y-119975000D02*
X118265000Y-119975000D01*
X135665000Y-120015000D02*
X118335000Y-120015000D01*
X135594000Y-120055000D02*
X118406000Y-120055000D01*
X135522000Y-120095000D02*
X118478000Y-120095000D01*
X135450000Y-120135000D02*
X118550000Y-120135000D01*
X135377000Y-120175000D02*
X118623000Y-120175000D01*
X135303000Y-120215000D02*
X118697000Y-120215000D01*
X135228000Y-120255000D02*
X118772000Y-120255000D01*
X135152000Y-120295000D02*
X118848000Y-120295000D01*
X135076000Y-120335000D02*
X118924000Y-120335000D01*
X134998000Y-120375000D02*
X119002000Y-120375000D01*
X134920000Y-120415000D02*
X119080000Y-120415000D01*
X134840000Y-120455000D02*
X119160000Y-120455000D01*
X134759000Y-120495000D02*
X119241000Y-120495000D01*
X134678000Y-120535000D02*
X119322000Y-120535000D01*
X134595000Y-120575000D02*
X119405000Y-120575000D01*
X134512000Y-120615000D02*
X119488000Y-120615000D01*
X134427000Y-120655000D02*
X119573000Y-120655000D01*
X134341000Y-120695000D02*
X119659000Y-120695000D01*
X134253000Y-120735000D02*
X119747000Y-120735000D01*
X134165000Y-120775000D02*
X119835000Y-120775000D01*
X134075000Y-120815000D02*
X119925000Y-120815000D01*
X133983000Y-120855000D02*
X120017000Y-120855000D01*
X133890000Y-120895000D02*
X120110000Y-120895000D01*
X133796000Y-120935000D02*
X120204000Y-120935000D01*
X133700000Y-120975000D02*
X120300000Y-120975000D01*
X133603000Y-121015000D02*
X120397000Y-121015000D01*
X133504000Y-121055000D02*
X120496000Y-121055000D01*
X133403000Y-121095000D02*
X120597000Y-121095000D01*
X133300000Y-121135000D02*
X120700000Y-121135000D01*
X133195000Y-121175000D02*
X120805000Y-121175000D01*
X133089000Y-121215000D02*
X120911000Y-121215000D01*
X132980000Y-121255000D02*
X121020000Y-121255000D01*
X132868000Y-121295000D02*
X121132000Y-121295000D01*
X132755000Y-121335000D02*
X121245000Y-121335000D01*
X132639000Y-121375000D02*
X121361000Y-121375000D01*
X132520000Y-121415000D02*
X121480000Y-121415000D01*
X132398000Y-121455000D02*
X121602000Y-121455000D01*
X132273000Y-121495000D02*
X121727000Y-121495000D01*
X132145000Y-121535000D02*
X121855000Y-121535000D01*
X132013000Y-121575000D02*
X121987000Y-121575000D01*
X131878000Y-121615000D02*
X122122000Y-121615000D01*
X131738000Y-121655000D02*
X122262000Y-121655000D01*
X131593000Y-121695000D02*
X122407000Y-121695000D01*
X131444000Y-121735000D02*
X122556000Y-121735000D01*
X131289000Y-121775000D02*
X122711000Y-121775000D01*
X131128000Y-121815000D02*
X122872000Y-121815000D01*
X130960000Y-121855000D02*
X123040000Y-121855000D01*
X130785000Y-121895000D02*
X123215000Y-121895000D01*
X130600000Y-121935000D02*
X123400000Y-121935000D01*
X130405000Y-121975000D02*
X123595000Y-121975000D01*
X130198000Y-122015000D02*
X123802000Y-122015000D01*
X129976000Y-122055000D02*
X124024000Y-122055000D01*
X129736000Y-122095000D02*
X124264000Y-122095000D01*
X129473000Y-122135000D02*
X124527000Y-122135000D01*
X129177000Y-122175000D02*
X124823000Y-122175000D01*
X128835000Y-122215000D02*
X125165000Y-122215000D01*
X128413000Y-122255000D02*
X125587000Y-122255000D01*
X127800000Y-122295000D02*
X126200000Y-122295000D01*
X136875000Y-85840998D02*
X136875000Y-89340998D01*
X138625000Y-87590998D02*
X135125000Y-87590998D01*
%TO.C,J1*%
X144780000Y-73660000D02*
X152400000Y-73660000D01*
X144780000Y-99060000D02*
X152400000Y-99060000D01*
X146050000Y-73660000D02*
X146050000Y-99060000D01*
X152400000Y-73660000D02*
X152400000Y-99060000D01*
X144780000Y-73660000D02*
X144780000Y-99060000D01*
%TO.C,R1*%
X151595000Y-65405000D02*
G75*
G03*
X151595000Y-65405000I-2370000J0D01*
G01*
X149225000Y-67775000D02*
X149225000Y-68985000D01*
%TO.C,R2*%
X149225000Y-105240000D02*
X149225000Y-106450000D01*
X151595000Y-102870000D02*
G75*
G03*
X151595000Y-102870000I-2370000J0D01*
G01*
%TO.C,C1*%
D12*
X146107142Y-68031666D02*
X146154761Y-68079285D01*
X146202380Y-68222142D01*
X146202380Y-68317380D01*
X146154761Y-68460238D01*
X146059523Y-68555476D01*
X145964285Y-68603095D01*
X145773809Y-68650714D01*
X145630952Y-68650714D01*
X145440476Y-68603095D01*
X145345238Y-68555476D01*
X145250000Y-68460238D01*
X145202380Y-68317380D01*
X145202380Y-68222142D01*
X145250000Y-68079285D01*
X145297619Y-68031666D01*
X146202380Y-67079285D02*
X146202380Y-67650714D01*
X146202380Y-67365000D02*
X145202380Y-67365000D01*
X145345238Y-67460238D01*
X145440476Y-67555476D01*
X145488095Y-67650714D01*
%TO.C,C2*%
X146107142Y-104861666D02*
X146154761Y-104909285D01*
X146202380Y-105052142D01*
X146202380Y-105147380D01*
X146154761Y-105290238D01*
X146059523Y-105385476D01*
X145964285Y-105433095D01*
X145773809Y-105480714D01*
X145630952Y-105480714D01*
X145440476Y-105433095D01*
X145345238Y-105385476D01*
X145250000Y-105290238D01*
X145202380Y-105147380D01*
X145202380Y-105052142D01*
X145250000Y-104909285D01*
X145297619Y-104861666D01*
X145297619Y-104480714D02*
X145250000Y-104433095D01*
X145202380Y-104337857D01*
X145202380Y-104099761D01*
X145250000Y-104004523D01*
X145297619Y-103956904D01*
X145392857Y-103909285D01*
X145488095Y-103909285D01*
X145630952Y-103956904D01*
X146202380Y-104528333D01*
X146202380Y-103909285D01*
%TO.C,J1*%
X139787380Y-86058333D02*
X140501666Y-86058333D01*
X140644523Y-86105952D01*
X140739761Y-86201190D01*
X140787380Y-86344047D01*
X140787380Y-86439285D01*
X140787380Y-85058333D02*
X140787380Y-85629761D01*
X140787380Y-85344047D02*
X139787380Y-85344047D01*
X139930238Y-85439285D01*
X140025476Y-85534523D01*
X140073095Y-85629761D01*
%TO.C,R1*%
X151582380Y-61761666D02*
X151106190Y-62095000D01*
X151582380Y-62333095D02*
X150582380Y-62333095D01*
X150582380Y-61952142D01*
X150630000Y-61856904D01*
X150677619Y-61809285D01*
X150772857Y-61761666D01*
X150915714Y-61761666D01*
X151010952Y-61809285D01*
X151058571Y-61856904D01*
X151106190Y-61952142D01*
X151106190Y-62333095D01*
X151582380Y-60809285D02*
X151582380Y-61380714D01*
X151582380Y-61095000D02*
X150582380Y-61095000D01*
X150725238Y-61190238D01*
X150820476Y-61285476D01*
X150868095Y-61380714D01*
%TO.C,R2*%
X151582380Y-111291666D02*
X151106190Y-111625000D01*
X151582380Y-111863095D02*
X150582380Y-111863095D01*
X150582380Y-111482142D01*
X150630000Y-111386904D01*
X150677619Y-111339285D01*
X150772857Y-111291666D01*
X150915714Y-111291666D01*
X151010952Y-111339285D01*
X151058571Y-111386904D01*
X151106190Y-111482142D01*
X151106190Y-111863095D01*
X150677619Y-110910714D02*
X150630000Y-110863095D01*
X150582380Y-110767857D01*
X150582380Y-110529761D01*
X150630000Y-110434523D01*
X150677619Y-110386904D01*
X150772857Y-110339285D01*
X150868095Y-110339285D01*
X151010952Y-110386904D01*
X151582380Y-110958333D01*
X151582380Y-110339285D01*
%TD*%
M02*
