G04 #@! TF.GenerationSoftware,KiCad,Pcbnew,(5.1.4-0-10_14)*
G04 #@! TF.CreationDate,2019-09-24T11:38:50-07:00*
G04 #@! TF.ProjectId,STPre6080PSU,53545072-6536-4303-9830-5053552e6b69,1.0*
G04 #@! TF.SameCoordinates,Original*
G04 #@! TF.FileFunction,Copper,L2,Bot*
G04 #@! TF.FilePolarity,Positive*
%FSLAX46Y46*%
G04 Gerber Fmt 4.6, Leading zero omitted, Abs format (unit mm)*
G04 Created by KiCad (PCBNEW (5.1.4-0-10_14)) date 2019-09-24 11:38:50*
%MOMM*%
%LPD*%
G04 APERTURE LIST*
%ADD10C,1.400000*%
%ADD11C,7.000000*%
%ADD12R,2.400000X2.400000*%
%ADD13C,2.400000*%
%ADD14R,2.200000X2.200000*%
%ADD15O,2.200000X2.200000*%
%ADD16R,3.000000X3.000000*%
%ADD17C,3.000000*%
%ADD18C,1.600000*%
%ADD19O,1.600000X1.600000*%
%ADD20C,1.750000*%
%ADD21C,2.000000*%
%ADD22C,0.750000*%
%ADD23C,0.250000*%
%ADD24C,0.254000*%
G04 APERTURE END LIST*
D10*
X119380000Y-87630000D03*
X119380000Y-85090000D03*
D11*
X180340000Y-62230000D03*
X180340000Y-134620000D03*
X96520000Y-134620000D03*
X96520000Y-62230000D03*
D12*
X129540000Y-69850000D03*
D13*
X137040000Y-69850000D03*
X158630000Y-69850000D03*
D12*
X151130000Y-69850000D03*
D13*
X127120000Y-92710000D03*
D12*
X134620000Y-92710000D03*
X172720000Y-76200000D03*
D13*
X172720000Y-71200000D03*
D12*
X152400000Y-96520000D03*
D13*
X152400000Y-89020000D03*
D12*
X177800000Y-93980000D03*
D13*
X170300000Y-93980000D03*
D12*
X130810000Y-118110000D03*
D13*
X118110000Y-118110000D03*
X158750000Y-118110000D03*
D12*
X146050000Y-118110000D03*
D14*
X119380000Y-69850000D03*
D15*
X109220000Y-69850000D03*
X119380000Y-77470000D03*
D14*
X109220000Y-77470000D03*
D16*
X96520000Y-71120000D03*
D17*
X96520000Y-76200000D03*
X96520000Y-88900000D03*
D16*
X96520000Y-83820000D03*
X96520000Y-96520000D03*
D17*
X96520000Y-101600000D03*
D16*
X180340000Y-121920000D03*
D17*
X180340000Y-116840000D03*
X180340000Y-111760000D03*
D16*
X96520000Y-109220000D03*
D17*
X96520000Y-114300000D03*
X96520000Y-127000000D03*
D16*
X96520000Y-121920000D03*
D18*
X115570000Y-95250000D03*
D19*
X107950000Y-95250000D03*
X115570000Y-102870000D03*
D18*
X107950000Y-102870000D03*
X147320000Y-81280000D03*
D19*
X139700000Y-81280000D03*
X160020000Y-82550000D03*
D18*
X167640000Y-82550000D03*
D20*
X111760000Y-88900000D03*
X114300000Y-86360000D03*
X111760000Y-83820000D03*
D21*
X152400000Y-76080000D02*
X152400000Y-89020000D01*
X158630000Y-69850000D02*
X152400000Y-76080000D01*
X127120000Y-85210000D02*
X127120000Y-92710000D01*
X119380000Y-77470000D02*
X127120000Y-85210000D01*
X115570000Y-115570000D02*
X118110000Y-118110000D01*
X115570000Y-102870000D02*
X115570000Y-115570000D01*
X116960000Y-102870000D02*
X127120000Y-92710000D01*
X115570000Y-102870000D02*
X116960000Y-102870000D01*
X158750000Y-105530000D02*
X170300000Y-93980000D01*
X158750000Y-118110000D02*
X158750000Y-105530000D01*
X130810000Y-89020000D02*
X127120000Y-92710000D01*
X152400000Y-89020000D02*
X130810000Y-89020000D01*
D22*
X175850000Y-93980000D02*
X177800000Y-93980000D01*
X167640000Y-85770000D02*
X175850000Y-93980000D01*
X167640000Y-82550000D02*
X167640000Y-85770000D01*
X177800000Y-109220000D02*
X180340000Y-111760000D01*
X177800000Y-93980000D02*
X177800000Y-109220000D01*
X96520000Y-119670000D02*
X96520000Y-121920000D01*
X113694990Y-102495010D02*
X96520000Y-119670000D01*
X113694990Y-97125010D02*
X113694990Y-102495010D01*
X115570000Y-95250000D02*
X113694990Y-97125010D01*
X109220000Y-69850000D02*
X109220000Y-77470000D01*
D21*
X99270001Y-98849999D02*
X99270001Y-91650001D01*
X98019999Y-90399999D02*
X96520000Y-88900000D01*
X99270001Y-91650001D02*
X98019999Y-90399999D01*
X96520000Y-101600000D02*
X99270001Y-98849999D01*
X92715010Y-84124990D02*
X93020000Y-83820000D01*
X92715010Y-89215010D02*
X92715010Y-84124990D01*
X96520000Y-93020000D02*
X92715010Y-89215010D01*
X93020000Y-83820000D02*
X96520000Y-83820000D01*
X96520000Y-96520000D02*
X96520000Y-93020000D01*
D22*
X139020000Y-81280000D02*
X139700000Y-81280000D01*
X129540000Y-71800000D02*
X139020000Y-81280000D01*
X129540000Y-69850000D02*
X129540000Y-71800000D01*
D23*
X107950000Y-95250000D02*
X107950000Y-102870000D01*
X114300000Y-88900000D02*
X114300000Y-86360000D01*
X107950000Y-95250000D02*
X114300000Y-88900000D01*
X118110000Y-86360000D02*
X119380000Y-85090000D01*
X114300000Y-86360000D02*
X118110000Y-86360000D01*
X119380000Y-85090000D02*
X119380000Y-87630000D01*
D24*
G36*
X181122249Y-57882437D02*
G01*
X181879774Y-58089672D01*
X182588625Y-58427777D01*
X183226404Y-58886067D01*
X183772946Y-59450055D01*
X184210977Y-60101913D01*
X184526651Y-60821038D01*
X184711206Y-61589768D01*
X184760000Y-62254207D01*
X184760001Y-134590597D01*
X184687563Y-135402249D01*
X184480328Y-136159774D01*
X184142221Y-136868627D01*
X183683928Y-137506410D01*
X183119945Y-138052946D01*
X182468085Y-138490978D01*
X181748963Y-138806651D01*
X180980232Y-138991206D01*
X180315792Y-139040000D01*
X96549392Y-139040000D01*
X95737751Y-138967563D01*
X94980226Y-138760328D01*
X94271373Y-138422221D01*
X93633590Y-137963928D01*
X93087054Y-137399945D01*
X92649022Y-136748085D01*
X92333349Y-136028963D01*
X92148794Y-135260232D01*
X92100000Y-134595792D01*
X92100000Y-134212738D01*
X92385000Y-134212738D01*
X92385000Y-135027262D01*
X92543906Y-135826135D01*
X92855611Y-136578657D01*
X93308136Y-137255909D01*
X93884091Y-137831864D01*
X94561343Y-138284389D01*
X95313865Y-138596094D01*
X96112738Y-138755000D01*
X96927262Y-138755000D01*
X97726135Y-138596094D01*
X98478657Y-138284389D01*
X99155909Y-137831864D01*
X99731864Y-137255909D01*
X100184389Y-136578657D01*
X100496094Y-135826135D01*
X100655000Y-135027262D01*
X100655000Y-134212738D01*
X176205000Y-134212738D01*
X176205000Y-135027262D01*
X176363906Y-135826135D01*
X176675611Y-136578657D01*
X177128136Y-137255909D01*
X177704091Y-137831864D01*
X178381343Y-138284389D01*
X179133865Y-138596094D01*
X179932738Y-138755000D01*
X180747262Y-138755000D01*
X181546135Y-138596094D01*
X182298657Y-138284389D01*
X182975909Y-137831864D01*
X183551864Y-137255909D01*
X184004389Y-136578657D01*
X184316094Y-135826135D01*
X184475000Y-135027262D01*
X184475000Y-134212738D01*
X184316094Y-133413865D01*
X184004389Y-132661343D01*
X183551864Y-131984091D01*
X182975909Y-131408136D01*
X182298657Y-130955611D01*
X181546135Y-130643906D01*
X180747262Y-130485000D01*
X179932738Y-130485000D01*
X179133865Y-130643906D01*
X178381343Y-130955611D01*
X177704091Y-131408136D01*
X177128136Y-131984091D01*
X176675611Y-132661343D01*
X176363906Y-133413865D01*
X176205000Y-134212738D01*
X100655000Y-134212738D01*
X100496094Y-133413865D01*
X100184389Y-132661343D01*
X99731864Y-131984091D01*
X99155909Y-131408136D01*
X98478657Y-130955611D01*
X97726135Y-130643906D01*
X96927262Y-130485000D01*
X96112738Y-130485000D01*
X95313865Y-130643906D01*
X94561343Y-130955611D01*
X93884091Y-131408136D01*
X93308136Y-131984091D01*
X92855611Y-132661343D01*
X92543906Y-133413865D01*
X92385000Y-134212738D01*
X92100000Y-134212738D01*
X92100000Y-126789721D01*
X94385000Y-126789721D01*
X94385000Y-127210279D01*
X94467047Y-127622756D01*
X94627988Y-128011302D01*
X94861637Y-128360983D01*
X95159017Y-128658363D01*
X95508698Y-128892012D01*
X95897244Y-129052953D01*
X96309721Y-129135000D01*
X96730279Y-129135000D01*
X97142756Y-129052953D01*
X97531302Y-128892012D01*
X97880983Y-128658363D01*
X98178363Y-128360983D01*
X98412012Y-128011302D01*
X98572953Y-127622756D01*
X98655000Y-127210279D01*
X98655000Y-126789721D01*
X98572953Y-126377244D01*
X98412012Y-125988698D01*
X98178363Y-125639017D01*
X97880983Y-125341637D01*
X97531302Y-125107988D01*
X97142756Y-124947047D01*
X96730279Y-124865000D01*
X96309721Y-124865000D01*
X95897244Y-124947047D01*
X95508698Y-125107988D01*
X95159017Y-125341637D01*
X94861637Y-125639017D01*
X94627988Y-125988698D01*
X94467047Y-126377244D01*
X94385000Y-126789721D01*
X92100000Y-126789721D01*
X92100000Y-120420000D01*
X94381928Y-120420000D01*
X94381928Y-123420000D01*
X94394188Y-123544482D01*
X94430498Y-123664180D01*
X94489463Y-123774494D01*
X94568815Y-123871185D01*
X94665506Y-123950537D01*
X94775820Y-124009502D01*
X94895518Y-124045812D01*
X95020000Y-124058072D01*
X98020000Y-124058072D01*
X98144482Y-124045812D01*
X98264180Y-124009502D01*
X98374494Y-123950537D01*
X98471185Y-123871185D01*
X98550537Y-123774494D01*
X98609502Y-123664180D01*
X98645812Y-123544482D01*
X98658072Y-123420000D01*
X178201928Y-123420000D01*
X178214188Y-123544482D01*
X178250498Y-123664180D01*
X178309463Y-123774494D01*
X178388815Y-123871185D01*
X178485506Y-123950537D01*
X178595820Y-124009502D01*
X178715518Y-124045812D01*
X178840000Y-124058072D01*
X180054250Y-124055000D01*
X180213000Y-123896250D01*
X180213000Y-122047000D01*
X180467000Y-122047000D01*
X180467000Y-123896250D01*
X180625750Y-124055000D01*
X181840000Y-124058072D01*
X181964482Y-124045812D01*
X182084180Y-124009502D01*
X182194494Y-123950537D01*
X182291185Y-123871185D01*
X182370537Y-123774494D01*
X182429502Y-123664180D01*
X182465812Y-123544482D01*
X182478072Y-123420000D01*
X182475000Y-122205750D01*
X182316250Y-122047000D01*
X180467000Y-122047000D01*
X180213000Y-122047000D01*
X178363750Y-122047000D01*
X178205000Y-122205750D01*
X178201928Y-123420000D01*
X98658072Y-123420000D01*
X98658072Y-120420000D01*
X178201928Y-120420000D01*
X178205000Y-121634250D01*
X178363750Y-121793000D01*
X180213000Y-121793000D01*
X180213000Y-119943750D01*
X180467000Y-119943750D01*
X180467000Y-121793000D01*
X182316250Y-121793000D01*
X182475000Y-121634250D01*
X182478072Y-120420000D01*
X182465812Y-120295518D01*
X182429502Y-120175820D01*
X182370537Y-120065506D01*
X182291185Y-119968815D01*
X182194494Y-119889463D01*
X182084180Y-119830498D01*
X181964482Y-119794188D01*
X181840000Y-119781928D01*
X180625750Y-119785000D01*
X180467000Y-119943750D01*
X180213000Y-119943750D01*
X180054250Y-119785000D01*
X178840000Y-119781928D01*
X178715518Y-119794188D01*
X178595820Y-119830498D01*
X178485506Y-119889463D01*
X178388815Y-119968815D01*
X178309463Y-120065506D01*
X178250498Y-120175820D01*
X178214188Y-120295518D01*
X178201928Y-120420000D01*
X98658072Y-120420000D01*
X98645812Y-120295518D01*
X98609502Y-120175820D01*
X98550537Y-120065506D01*
X98471185Y-119968815D01*
X98374494Y-119889463D01*
X98264180Y-119830498D01*
X98144482Y-119794188D01*
X98020000Y-119781928D01*
X97836427Y-119781928D01*
X98230375Y-119387980D01*
X117011626Y-119387980D01*
X117131514Y-119672836D01*
X117455210Y-119833699D01*
X117804069Y-119928322D01*
X118164684Y-119953067D01*
X118523198Y-119906985D01*
X118865833Y-119791846D01*
X119088486Y-119672836D01*
X119208374Y-119387980D01*
X118110000Y-118289605D01*
X117011626Y-119387980D01*
X98230375Y-119387980D01*
X99453671Y-118164684D01*
X116266933Y-118164684D01*
X116313015Y-118523198D01*
X116428154Y-118865833D01*
X116547164Y-119088486D01*
X116832020Y-119208374D01*
X117930395Y-118110000D01*
X118289605Y-118110000D01*
X119387980Y-119208374D01*
X119672836Y-119088486D01*
X119833699Y-118764790D01*
X119928322Y-118415931D01*
X119953067Y-118055316D01*
X119906985Y-117696802D01*
X119791846Y-117354167D01*
X119672836Y-117131514D01*
X119387980Y-117011626D01*
X118289605Y-118110000D01*
X117930395Y-118110000D01*
X116832020Y-117011626D01*
X116547164Y-117131514D01*
X116386301Y-117455210D01*
X116291678Y-117804069D01*
X116266933Y-118164684D01*
X99453671Y-118164684D01*
X100786335Y-116832020D01*
X117011626Y-116832020D01*
X118110000Y-117930395D01*
X119130394Y-116910000D01*
X128971928Y-116910000D01*
X128971928Y-119310000D01*
X128984188Y-119434482D01*
X129020498Y-119554180D01*
X129079463Y-119664494D01*
X129158815Y-119761185D01*
X129255506Y-119840537D01*
X129365820Y-119899502D01*
X129485518Y-119935812D01*
X129610000Y-119948072D01*
X132010000Y-119948072D01*
X132134482Y-119935812D01*
X132254180Y-119899502D01*
X132364494Y-119840537D01*
X132461185Y-119761185D01*
X132540537Y-119664494D01*
X132599502Y-119554180D01*
X132635812Y-119434482D01*
X132648072Y-119310000D01*
X132648072Y-116910000D01*
X144211928Y-116910000D01*
X144211928Y-119310000D01*
X144224188Y-119434482D01*
X144260498Y-119554180D01*
X144319463Y-119664494D01*
X144398815Y-119761185D01*
X144495506Y-119840537D01*
X144605820Y-119899502D01*
X144725518Y-119935812D01*
X144850000Y-119948072D01*
X147250000Y-119948072D01*
X147374482Y-119935812D01*
X147494180Y-119899502D01*
X147604494Y-119840537D01*
X147701185Y-119761185D01*
X147780537Y-119664494D01*
X147839502Y-119554180D01*
X147875812Y-119434482D01*
X147880391Y-119387980D01*
X157651626Y-119387980D01*
X157771514Y-119672836D01*
X158095210Y-119833699D01*
X158444069Y-119928322D01*
X158804684Y-119953067D01*
X159163198Y-119906985D01*
X159505833Y-119791846D01*
X159728486Y-119672836D01*
X159848374Y-119387980D01*
X158750000Y-118289605D01*
X157651626Y-119387980D01*
X147880391Y-119387980D01*
X147888072Y-119310000D01*
X147888072Y-118164684D01*
X156906933Y-118164684D01*
X156953015Y-118523198D01*
X157068154Y-118865833D01*
X157187164Y-119088486D01*
X157472020Y-119208374D01*
X158570395Y-118110000D01*
X158929605Y-118110000D01*
X160027980Y-119208374D01*
X160312836Y-119088486D01*
X160473699Y-118764790D01*
X160568322Y-118415931D01*
X160593067Y-118055316D01*
X160546985Y-117696802D01*
X160431846Y-117354167D01*
X160312836Y-117131514D01*
X160027980Y-117011626D01*
X158929605Y-118110000D01*
X158570395Y-118110000D01*
X157472020Y-117011626D01*
X157187164Y-117131514D01*
X157026301Y-117455210D01*
X156931678Y-117804069D01*
X156906933Y-118164684D01*
X147888072Y-118164684D01*
X147888072Y-116910000D01*
X147880392Y-116832020D01*
X157651626Y-116832020D01*
X158750000Y-117930395D01*
X159848374Y-116832020D01*
X159763232Y-116629721D01*
X178205000Y-116629721D01*
X178205000Y-117050279D01*
X178287047Y-117462756D01*
X178447988Y-117851302D01*
X178681637Y-118200983D01*
X178979017Y-118498363D01*
X179328698Y-118732012D01*
X179717244Y-118892953D01*
X180129721Y-118975000D01*
X180550279Y-118975000D01*
X180962756Y-118892953D01*
X181351302Y-118732012D01*
X181700983Y-118498363D01*
X181998363Y-118200983D01*
X182232012Y-117851302D01*
X182392953Y-117462756D01*
X182475000Y-117050279D01*
X182475000Y-116629721D01*
X182392953Y-116217244D01*
X182232012Y-115828698D01*
X181998363Y-115479017D01*
X181700983Y-115181637D01*
X181351302Y-114947988D01*
X180962756Y-114787047D01*
X180550279Y-114705000D01*
X180129721Y-114705000D01*
X179717244Y-114787047D01*
X179328698Y-114947988D01*
X178979017Y-115181637D01*
X178681637Y-115479017D01*
X178447988Y-115828698D01*
X178287047Y-116217244D01*
X178205000Y-116629721D01*
X159763232Y-116629721D01*
X159728486Y-116547164D01*
X159404790Y-116386301D01*
X159055931Y-116291678D01*
X158695316Y-116266933D01*
X158336802Y-116313015D01*
X157994167Y-116428154D01*
X157771514Y-116547164D01*
X157651626Y-116832020D01*
X147880392Y-116832020D01*
X147875812Y-116785518D01*
X147839502Y-116665820D01*
X147780537Y-116555506D01*
X147701185Y-116458815D01*
X147604494Y-116379463D01*
X147494180Y-116320498D01*
X147374482Y-116284188D01*
X147250000Y-116271928D01*
X144850000Y-116271928D01*
X144725518Y-116284188D01*
X144605820Y-116320498D01*
X144495506Y-116379463D01*
X144398815Y-116458815D01*
X144319463Y-116555506D01*
X144260498Y-116665820D01*
X144224188Y-116785518D01*
X144211928Y-116910000D01*
X132648072Y-116910000D01*
X132635812Y-116785518D01*
X132599502Y-116665820D01*
X132540537Y-116555506D01*
X132461185Y-116458815D01*
X132364494Y-116379463D01*
X132254180Y-116320498D01*
X132134482Y-116284188D01*
X132010000Y-116271928D01*
X129610000Y-116271928D01*
X129485518Y-116284188D01*
X129365820Y-116320498D01*
X129255506Y-116379463D01*
X129158815Y-116458815D01*
X129079463Y-116555506D01*
X129020498Y-116665820D01*
X128984188Y-116785518D01*
X128971928Y-116910000D01*
X119130394Y-116910000D01*
X119208374Y-116832020D01*
X119088486Y-116547164D01*
X118764790Y-116386301D01*
X118415931Y-116291678D01*
X118055316Y-116266933D01*
X117696802Y-116313015D01*
X117354167Y-116428154D01*
X117131514Y-116547164D01*
X117011626Y-116832020D01*
X100786335Y-116832020D01*
X114233683Y-103384673D01*
X114338963Y-103607420D01*
X114506481Y-103833414D01*
X114714869Y-104022385D01*
X114956119Y-104167070D01*
X115220960Y-104261909D01*
X115443000Y-104140624D01*
X115443000Y-102997000D01*
X115697000Y-102997000D01*
X115697000Y-104140624D01*
X115919040Y-104261909D01*
X116183881Y-104167070D01*
X116425131Y-104022385D01*
X116633519Y-103833414D01*
X116801037Y-103607420D01*
X116921246Y-103353087D01*
X116961904Y-103219039D01*
X116839915Y-102997000D01*
X115697000Y-102997000D01*
X115443000Y-102997000D01*
X115423000Y-102997000D01*
X115423000Y-102743000D01*
X115443000Y-102743000D01*
X115443000Y-101599376D01*
X115697000Y-101599376D01*
X115697000Y-102743000D01*
X116839915Y-102743000D01*
X116961904Y-102520961D01*
X116921246Y-102386913D01*
X116801037Y-102132580D01*
X116633519Y-101906586D01*
X116425131Y-101717615D01*
X116183881Y-101572930D01*
X115919040Y-101478091D01*
X115697000Y-101599376D01*
X115443000Y-101599376D01*
X115220960Y-101478091D01*
X114956119Y-101572930D01*
X114714869Y-101717615D01*
X114704990Y-101726574D01*
X114704990Y-97543365D01*
X115563356Y-96685000D01*
X115711335Y-96685000D01*
X115988574Y-96629853D01*
X116249727Y-96521680D01*
X116484759Y-96364637D01*
X116684637Y-96164759D01*
X116841680Y-95929727D01*
X116949853Y-95668574D01*
X117005000Y-95391335D01*
X117005000Y-95320000D01*
X150561928Y-95320000D01*
X150561928Y-97720000D01*
X150574188Y-97844482D01*
X150610498Y-97964180D01*
X150669463Y-98074494D01*
X150748815Y-98171185D01*
X150845506Y-98250537D01*
X150955820Y-98309502D01*
X151075518Y-98345812D01*
X151200000Y-98358072D01*
X153600000Y-98358072D01*
X153724482Y-98345812D01*
X153844180Y-98309502D01*
X153954494Y-98250537D01*
X154051185Y-98171185D01*
X154130537Y-98074494D01*
X154189502Y-97964180D01*
X154225812Y-97844482D01*
X154238072Y-97720000D01*
X154238072Y-95320000D01*
X154231964Y-95257980D01*
X169201626Y-95257980D01*
X169321514Y-95542836D01*
X169645210Y-95703699D01*
X169994069Y-95798322D01*
X170354684Y-95823067D01*
X170713198Y-95776985D01*
X171055833Y-95661846D01*
X171278486Y-95542836D01*
X171398374Y-95257980D01*
X170300000Y-94159605D01*
X169201626Y-95257980D01*
X154231964Y-95257980D01*
X154225812Y-95195518D01*
X154189502Y-95075820D01*
X154130537Y-94965506D01*
X154051185Y-94868815D01*
X153954494Y-94789463D01*
X153844180Y-94730498D01*
X153724482Y-94694188D01*
X153600000Y-94681928D01*
X151200000Y-94681928D01*
X151075518Y-94694188D01*
X150955820Y-94730498D01*
X150845506Y-94789463D01*
X150748815Y-94868815D01*
X150669463Y-94965506D01*
X150610498Y-95075820D01*
X150574188Y-95195518D01*
X150561928Y-95320000D01*
X117005000Y-95320000D01*
X117005000Y-95108665D01*
X116949853Y-94831426D01*
X116841680Y-94570273D01*
X116684637Y-94335241D01*
X116484759Y-94135363D01*
X116264185Y-93987980D01*
X126021626Y-93987980D01*
X126141514Y-94272836D01*
X126465210Y-94433699D01*
X126814069Y-94528322D01*
X127174684Y-94553067D01*
X127533198Y-94506985D01*
X127875833Y-94391846D01*
X128098486Y-94272836D01*
X128218374Y-93987980D01*
X127120000Y-92889605D01*
X126021626Y-93987980D01*
X116264185Y-93987980D01*
X116249727Y-93978320D01*
X115988574Y-93870147D01*
X115711335Y-93815000D01*
X115428665Y-93815000D01*
X115151426Y-93870147D01*
X114890273Y-93978320D01*
X114655241Y-94135363D01*
X114455363Y-94335241D01*
X114298320Y-94570273D01*
X114190147Y-94831426D01*
X114135000Y-95108665D01*
X114135000Y-95256644D01*
X113015896Y-96375749D01*
X112977357Y-96407377D01*
X112851143Y-96561170D01*
X112814432Y-96629853D01*
X112757358Y-96736631D01*
X112699605Y-96927016D01*
X112680104Y-97125010D01*
X112684990Y-97174618D01*
X112684991Y-102076653D01*
X95840906Y-118920739D01*
X95802367Y-118952367D01*
X95676153Y-119106160D01*
X95621519Y-119208374D01*
X95582368Y-119281621D01*
X95524615Y-119472006D01*
X95505114Y-119670000D01*
X95510000Y-119719608D01*
X95510000Y-119781928D01*
X95020000Y-119781928D01*
X94895518Y-119794188D01*
X94775820Y-119830498D01*
X94665506Y-119889463D01*
X94568815Y-119968815D01*
X94489463Y-120065506D01*
X94430498Y-120175820D01*
X94394188Y-120295518D01*
X94381928Y-120420000D01*
X92100000Y-120420000D01*
X92100000Y-114089721D01*
X94385000Y-114089721D01*
X94385000Y-114510279D01*
X94467047Y-114922756D01*
X94627988Y-115311302D01*
X94861637Y-115660983D01*
X95159017Y-115958363D01*
X95508698Y-116192012D01*
X95897244Y-116352953D01*
X96309721Y-116435000D01*
X96730279Y-116435000D01*
X97142756Y-116352953D01*
X97531302Y-116192012D01*
X97880983Y-115958363D01*
X98178363Y-115660983D01*
X98412012Y-115311302D01*
X98572953Y-114922756D01*
X98655000Y-114510279D01*
X98655000Y-114089721D01*
X98572953Y-113677244D01*
X98412012Y-113288698D01*
X98178363Y-112939017D01*
X97880983Y-112641637D01*
X97531302Y-112407988D01*
X97142756Y-112247047D01*
X96730279Y-112165000D01*
X96309721Y-112165000D01*
X95897244Y-112247047D01*
X95508698Y-112407988D01*
X95159017Y-112641637D01*
X94861637Y-112939017D01*
X94627988Y-113288698D01*
X94467047Y-113677244D01*
X94385000Y-114089721D01*
X92100000Y-114089721D01*
X92100000Y-107720000D01*
X94381928Y-107720000D01*
X94381928Y-110720000D01*
X94394188Y-110844482D01*
X94430498Y-110964180D01*
X94489463Y-111074494D01*
X94568815Y-111171185D01*
X94665506Y-111250537D01*
X94775820Y-111309502D01*
X94895518Y-111345812D01*
X95020000Y-111358072D01*
X98020000Y-111358072D01*
X98144482Y-111345812D01*
X98264180Y-111309502D01*
X98374494Y-111250537D01*
X98471185Y-111171185D01*
X98550537Y-111074494D01*
X98609502Y-110964180D01*
X98645812Y-110844482D01*
X98658072Y-110720000D01*
X98658072Y-107720000D01*
X98645812Y-107595518D01*
X98609502Y-107475820D01*
X98550537Y-107365506D01*
X98471185Y-107268815D01*
X98374494Y-107189463D01*
X98264180Y-107130498D01*
X98144482Y-107094188D01*
X98020000Y-107081928D01*
X95020000Y-107081928D01*
X94895518Y-107094188D01*
X94775820Y-107130498D01*
X94665506Y-107189463D01*
X94568815Y-107268815D01*
X94489463Y-107365506D01*
X94430498Y-107475820D01*
X94394188Y-107595518D01*
X94381928Y-107720000D01*
X92100000Y-107720000D01*
X92100000Y-90912238D01*
X94885001Y-93697240D01*
X94885001Y-94397378D01*
X94775820Y-94430498D01*
X94665506Y-94489463D01*
X94568815Y-94568815D01*
X94489463Y-94665506D01*
X94430498Y-94775820D01*
X94394188Y-94895518D01*
X94381928Y-95020000D01*
X94381928Y-98020000D01*
X94394188Y-98144482D01*
X94430498Y-98264180D01*
X94489463Y-98374494D01*
X94568815Y-98471185D01*
X94665506Y-98550537D01*
X94775820Y-98609502D01*
X94895518Y-98645812D01*
X95020000Y-98658072D01*
X97149689Y-98658072D01*
X96342761Y-99465000D01*
X96309721Y-99465000D01*
X95897244Y-99547047D01*
X95508698Y-99707988D01*
X95159017Y-99941637D01*
X94861637Y-100239017D01*
X94627988Y-100588698D01*
X94467047Y-100977244D01*
X94385000Y-101389721D01*
X94385000Y-101810279D01*
X94467047Y-102222756D01*
X94627988Y-102611302D01*
X94861637Y-102960983D01*
X95159017Y-103258363D01*
X95508698Y-103492012D01*
X95897244Y-103652953D01*
X96309721Y-103735000D01*
X96730279Y-103735000D01*
X97142756Y-103652953D01*
X97531302Y-103492012D01*
X97880983Y-103258363D01*
X98178363Y-102960983D01*
X98412012Y-102611302D01*
X98572953Y-102222756D01*
X98655000Y-101810279D01*
X98655000Y-101777239D01*
X100369326Y-100062914D01*
X100431715Y-100011713D01*
X100636032Y-99762751D01*
X100787853Y-99478714D01*
X100881344Y-99170515D01*
X100905001Y-98930321D01*
X100905001Y-98930320D01*
X100912912Y-98849999D01*
X100905001Y-98769677D01*
X100905001Y-95250000D01*
X106508057Y-95250000D01*
X106535764Y-95531309D01*
X106617818Y-95801808D01*
X106751068Y-96051101D01*
X106930392Y-96269608D01*
X107148899Y-96448932D01*
X107190000Y-96470901D01*
X107190001Y-101651956D01*
X107035241Y-101755363D01*
X106835363Y-101955241D01*
X106678320Y-102190273D01*
X106570147Y-102451426D01*
X106515000Y-102728665D01*
X106515000Y-103011335D01*
X106570147Y-103288574D01*
X106678320Y-103549727D01*
X106835363Y-103784759D01*
X107035241Y-103984637D01*
X107270273Y-104141680D01*
X107531426Y-104249853D01*
X107808665Y-104305000D01*
X108091335Y-104305000D01*
X108368574Y-104249853D01*
X108629727Y-104141680D01*
X108864759Y-103984637D01*
X109064637Y-103784759D01*
X109221680Y-103549727D01*
X109329853Y-103288574D01*
X109385000Y-103011335D01*
X109385000Y-102728665D01*
X109329853Y-102451426D01*
X109221680Y-102190273D01*
X109064637Y-101955241D01*
X108864759Y-101755363D01*
X108710000Y-101651957D01*
X108710000Y-96470901D01*
X108751101Y-96448932D01*
X108969608Y-96269608D01*
X109148932Y-96051101D01*
X109282182Y-95801808D01*
X109364236Y-95531309D01*
X109391943Y-95250000D01*
X109364236Y-94968691D01*
X109350708Y-94924093D01*
X111510117Y-92764684D01*
X125276933Y-92764684D01*
X125323015Y-93123198D01*
X125438154Y-93465833D01*
X125557164Y-93688486D01*
X125842020Y-93808374D01*
X126940395Y-92710000D01*
X127299605Y-92710000D01*
X128397980Y-93808374D01*
X128682836Y-93688486D01*
X128843699Y-93364790D01*
X128938322Y-93015931D01*
X128963067Y-92655316D01*
X128916985Y-92296802D01*
X128801846Y-91954167D01*
X128682836Y-91731514D01*
X128397980Y-91611626D01*
X127299605Y-92710000D01*
X126940395Y-92710000D01*
X125842020Y-91611626D01*
X125557164Y-91731514D01*
X125396301Y-92055210D01*
X125301678Y-92404069D01*
X125276933Y-92764684D01*
X111510117Y-92764684D01*
X112842781Y-91432020D01*
X126021626Y-91432020D01*
X127120000Y-92530395D01*
X128140394Y-91510000D01*
X132781928Y-91510000D01*
X132781928Y-93910000D01*
X132794188Y-94034482D01*
X132830498Y-94154180D01*
X132889463Y-94264494D01*
X132968815Y-94361185D01*
X133065506Y-94440537D01*
X133175820Y-94499502D01*
X133295518Y-94535812D01*
X133420000Y-94548072D01*
X135820000Y-94548072D01*
X135944482Y-94535812D01*
X136064180Y-94499502D01*
X136174494Y-94440537D01*
X136271185Y-94361185D01*
X136350537Y-94264494D01*
X136409502Y-94154180D01*
X136445750Y-94034684D01*
X168456933Y-94034684D01*
X168503015Y-94393198D01*
X168618154Y-94735833D01*
X168737164Y-94958486D01*
X169022020Y-95078374D01*
X170120395Y-93980000D01*
X170479605Y-93980000D01*
X171577980Y-95078374D01*
X171862836Y-94958486D01*
X172023699Y-94634790D01*
X172118322Y-94285931D01*
X172143067Y-93925316D01*
X172096985Y-93566802D01*
X171981846Y-93224167D01*
X171862836Y-93001514D01*
X171577980Y-92881626D01*
X170479605Y-93980000D01*
X170120395Y-93980000D01*
X169022020Y-92881626D01*
X168737164Y-93001514D01*
X168576301Y-93325210D01*
X168481678Y-93674069D01*
X168456933Y-94034684D01*
X136445750Y-94034684D01*
X136445812Y-94034482D01*
X136458072Y-93910000D01*
X136458072Y-92702020D01*
X169201626Y-92702020D01*
X170300000Y-93800395D01*
X171398374Y-92702020D01*
X171278486Y-92417164D01*
X170954790Y-92256301D01*
X170605931Y-92161678D01*
X170245316Y-92136933D01*
X169886802Y-92183015D01*
X169544167Y-92298154D01*
X169321514Y-92417164D01*
X169201626Y-92702020D01*
X136458072Y-92702020D01*
X136458072Y-91510000D01*
X136445812Y-91385518D01*
X136409502Y-91265820D01*
X136350537Y-91155506D01*
X136271185Y-91058815D01*
X136174494Y-90979463D01*
X136064180Y-90920498D01*
X135944482Y-90884188D01*
X135820000Y-90871928D01*
X133420000Y-90871928D01*
X133295518Y-90884188D01*
X133175820Y-90920498D01*
X133065506Y-90979463D01*
X132968815Y-91058815D01*
X132889463Y-91155506D01*
X132830498Y-91265820D01*
X132794188Y-91385518D01*
X132781928Y-91510000D01*
X128140394Y-91510000D01*
X128218374Y-91432020D01*
X128098486Y-91147164D01*
X127774790Y-90986301D01*
X127425931Y-90891678D01*
X127065316Y-90866933D01*
X126706802Y-90913015D01*
X126364167Y-91028154D01*
X126141514Y-91147164D01*
X126021626Y-91432020D01*
X112842781Y-91432020D01*
X113976821Y-90297980D01*
X151301626Y-90297980D01*
X151421514Y-90582836D01*
X151745210Y-90743699D01*
X152094069Y-90838322D01*
X152454684Y-90863067D01*
X152813198Y-90816985D01*
X153155833Y-90701846D01*
X153378486Y-90582836D01*
X153498374Y-90297980D01*
X152400000Y-89199605D01*
X151301626Y-90297980D01*
X113976821Y-90297980D01*
X114811004Y-89463798D01*
X114840001Y-89440001D01*
X114921700Y-89340451D01*
X114934974Y-89324277D01*
X115005546Y-89192247D01*
X115030410Y-89110279D01*
X115041207Y-89074684D01*
X150556933Y-89074684D01*
X150603015Y-89433198D01*
X150718154Y-89775833D01*
X150837164Y-89998486D01*
X151122020Y-90118374D01*
X152220395Y-89020000D01*
X152579605Y-89020000D01*
X153677980Y-90118374D01*
X153962836Y-89998486D01*
X154123699Y-89674790D01*
X154218322Y-89325931D01*
X154243067Y-88965316D01*
X154196985Y-88606802D01*
X154081846Y-88264167D01*
X153962836Y-88041514D01*
X153677980Y-87921626D01*
X152579605Y-89020000D01*
X152220395Y-89020000D01*
X151122020Y-87921626D01*
X150837164Y-88041514D01*
X150676301Y-88365210D01*
X150581678Y-88714069D01*
X150556933Y-89074684D01*
X115041207Y-89074684D01*
X115049003Y-89048986D01*
X115060000Y-88937333D01*
X115060000Y-88937324D01*
X115063676Y-88900001D01*
X115060000Y-88862678D01*
X115060000Y-87668245D01*
X115262569Y-87532893D01*
X115472893Y-87322569D01*
X115608245Y-87120000D01*
X118072678Y-87120000D01*
X118110000Y-87123676D01*
X118146211Y-87120109D01*
X118096304Y-87240595D01*
X118045000Y-87498514D01*
X118045000Y-87761486D01*
X118096304Y-88019405D01*
X118196939Y-88262359D01*
X118343038Y-88481013D01*
X118528987Y-88666962D01*
X118747641Y-88813061D01*
X118990595Y-88913696D01*
X119248514Y-88965000D01*
X119511486Y-88965000D01*
X119769405Y-88913696D01*
X120012359Y-88813061D01*
X120231013Y-88666962D01*
X120416962Y-88481013D01*
X120563061Y-88262359D01*
X120663696Y-88019405D01*
X120715000Y-87761486D01*
X120715000Y-87742020D01*
X151301626Y-87742020D01*
X152400000Y-88840395D01*
X153498374Y-87742020D01*
X153378486Y-87457164D01*
X153054790Y-87296301D01*
X152705931Y-87201678D01*
X152345316Y-87176933D01*
X151986802Y-87223015D01*
X151644167Y-87338154D01*
X151421514Y-87457164D01*
X151301626Y-87742020D01*
X120715000Y-87742020D01*
X120715000Y-87498514D01*
X120663696Y-87240595D01*
X120563061Y-86997641D01*
X120416962Y-86778987D01*
X120231013Y-86593038D01*
X120140000Y-86532225D01*
X120140000Y-86187775D01*
X120231013Y-86126962D01*
X120416962Y-85941013D01*
X120563061Y-85722359D01*
X120663696Y-85479405D01*
X120715000Y-85221486D01*
X120715000Y-84958514D01*
X120663696Y-84700595D01*
X120563061Y-84457641D01*
X120416962Y-84238987D01*
X120231013Y-84053038D01*
X120012359Y-83906939D01*
X119769405Y-83806304D01*
X119511486Y-83755000D01*
X119248514Y-83755000D01*
X118990595Y-83806304D01*
X118747641Y-83906939D01*
X118528987Y-84053038D01*
X118343038Y-84238987D01*
X118196939Y-84457641D01*
X118096304Y-84700595D01*
X118045000Y-84958514D01*
X118045000Y-85221486D01*
X118066355Y-85328844D01*
X117795199Y-85600000D01*
X115608245Y-85600000D01*
X115472893Y-85397431D01*
X115262569Y-85187107D01*
X115015253Y-85021856D01*
X114740451Y-84908029D01*
X114448722Y-84850000D01*
X114151278Y-84850000D01*
X113859549Y-84908029D01*
X113584747Y-85021856D01*
X113337431Y-85187107D01*
X113127107Y-85397431D01*
X112961856Y-85644747D01*
X112848029Y-85919549D01*
X112790000Y-86211278D01*
X112790000Y-86508722D01*
X112848029Y-86800451D01*
X112961856Y-87075253D01*
X113127107Y-87322569D01*
X113337431Y-87532893D01*
X113540000Y-87668245D01*
X113540000Y-88585198D01*
X113270000Y-88855198D01*
X113270000Y-88751278D01*
X113211971Y-88459549D01*
X113098144Y-88184747D01*
X112932893Y-87937431D01*
X112722569Y-87727107D01*
X112475253Y-87561856D01*
X112200451Y-87448029D01*
X111908722Y-87390000D01*
X111611278Y-87390000D01*
X111319549Y-87448029D01*
X111044747Y-87561856D01*
X110797431Y-87727107D01*
X110587107Y-87937431D01*
X110421856Y-88184747D01*
X110308029Y-88459549D01*
X110250000Y-88751278D01*
X110250000Y-89048722D01*
X110308029Y-89340451D01*
X110421856Y-89615253D01*
X110587107Y-89862569D01*
X110797431Y-90072893D01*
X111044747Y-90238144D01*
X111319549Y-90351971D01*
X111611278Y-90410000D01*
X111715198Y-90410000D01*
X108275907Y-93849292D01*
X108231309Y-93835764D01*
X108020492Y-93815000D01*
X107879508Y-93815000D01*
X107668691Y-93835764D01*
X107398192Y-93917818D01*
X107148899Y-94051068D01*
X106930392Y-94230392D01*
X106751068Y-94448899D01*
X106617818Y-94698192D01*
X106535764Y-94968691D01*
X106508057Y-95250000D01*
X100905001Y-95250000D01*
X100905001Y-91730323D01*
X100912912Y-91650001D01*
X100881344Y-91329484D01*
X100787853Y-91021286D01*
X100718576Y-90891678D01*
X100636032Y-90737249D01*
X100431715Y-90488287D01*
X100369319Y-90437080D01*
X99232918Y-89300680D01*
X99232914Y-89300675D01*
X98655000Y-88722761D01*
X98655000Y-88689721D01*
X98572953Y-88277244D01*
X98412012Y-87888698D01*
X98178363Y-87539017D01*
X97880983Y-87241637D01*
X97531302Y-87007988D01*
X97142756Y-86847047D01*
X96730279Y-86765000D01*
X96309721Y-86765000D01*
X95897244Y-86847047D01*
X95508698Y-87007988D01*
X95159017Y-87241637D01*
X94861637Y-87539017D01*
X94627988Y-87888698D01*
X94467047Y-88277244D01*
X94404405Y-88592167D01*
X94350010Y-88537772D01*
X94350010Y-85455000D01*
X94397379Y-85455000D01*
X94430498Y-85564180D01*
X94489463Y-85674494D01*
X94568815Y-85771185D01*
X94665506Y-85850537D01*
X94775820Y-85909502D01*
X94895518Y-85945812D01*
X95020000Y-85958072D01*
X98020000Y-85958072D01*
X98144482Y-85945812D01*
X98264180Y-85909502D01*
X98374494Y-85850537D01*
X98471185Y-85771185D01*
X98550537Y-85674494D01*
X98609502Y-85564180D01*
X98645812Y-85444482D01*
X98658072Y-85320000D01*
X98658072Y-83671278D01*
X110250000Y-83671278D01*
X110250000Y-83968722D01*
X110308029Y-84260451D01*
X110421856Y-84535253D01*
X110587107Y-84782569D01*
X110797431Y-84992893D01*
X111044747Y-85158144D01*
X111319549Y-85271971D01*
X111611278Y-85330000D01*
X111908722Y-85330000D01*
X112200451Y-85271971D01*
X112475253Y-85158144D01*
X112722569Y-84992893D01*
X112932893Y-84782569D01*
X113098144Y-84535253D01*
X113211971Y-84260451D01*
X113270000Y-83968722D01*
X113270000Y-83671278D01*
X113211971Y-83379549D01*
X113098144Y-83104747D01*
X112932893Y-82857431D01*
X112722569Y-82647107D01*
X112475253Y-82481856D01*
X112200451Y-82368029D01*
X111908722Y-82310000D01*
X111611278Y-82310000D01*
X111319549Y-82368029D01*
X111044747Y-82481856D01*
X110797431Y-82647107D01*
X110587107Y-82857431D01*
X110421856Y-83104747D01*
X110308029Y-83379549D01*
X110250000Y-83671278D01*
X98658072Y-83671278D01*
X98658072Y-82320000D01*
X98645812Y-82195518D01*
X98609502Y-82075820D01*
X98550537Y-81965506D01*
X98471185Y-81868815D01*
X98374494Y-81789463D01*
X98264180Y-81730498D01*
X98144482Y-81694188D01*
X98020000Y-81681928D01*
X95020000Y-81681928D01*
X94895518Y-81694188D01*
X94775820Y-81730498D01*
X94665506Y-81789463D01*
X94568815Y-81868815D01*
X94489463Y-81965506D01*
X94430498Y-82075820D01*
X94397379Y-82185000D01*
X93100319Y-82185000D01*
X93020000Y-82177089D01*
X92939681Y-82185000D01*
X92939678Y-82185000D01*
X92699484Y-82208657D01*
X92391285Y-82302148D01*
X92107248Y-82453969D01*
X92100000Y-82459917D01*
X92100000Y-75989721D01*
X94385000Y-75989721D01*
X94385000Y-76410279D01*
X94467047Y-76822756D01*
X94627988Y-77211302D01*
X94861637Y-77560983D01*
X95159017Y-77858363D01*
X95508698Y-78092012D01*
X95897244Y-78252953D01*
X96309721Y-78335000D01*
X96730279Y-78335000D01*
X97142756Y-78252953D01*
X97531302Y-78092012D01*
X97880983Y-77858363D01*
X98178363Y-77560983D01*
X98412012Y-77211302D01*
X98572953Y-76822756D01*
X98655000Y-76410279D01*
X98655000Y-75989721D01*
X98572953Y-75577244D01*
X98412012Y-75188698D01*
X98178363Y-74839017D01*
X97880983Y-74541637D01*
X97531302Y-74307988D01*
X97142756Y-74147047D01*
X96730279Y-74065000D01*
X96309721Y-74065000D01*
X95897244Y-74147047D01*
X95508698Y-74307988D01*
X95159017Y-74541637D01*
X94861637Y-74839017D01*
X94627988Y-75188698D01*
X94467047Y-75577244D01*
X94385000Y-75989721D01*
X92100000Y-75989721D01*
X92100000Y-69620000D01*
X94381928Y-69620000D01*
X94381928Y-72620000D01*
X94394188Y-72744482D01*
X94430498Y-72864180D01*
X94489463Y-72974494D01*
X94568815Y-73071185D01*
X94665506Y-73150537D01*
X94775820Y-73209502D01*
X94895518Y-73245812D01*
X95020000Y-73258072D01*
X98020000Y-73258072D01*
X98144482Y-73245812D01*
X98264180Y-73209502D01*
X98374494Y-73150537D01*
X98471185Y-73071185D01*
X98550537Y-72974494D01*
X98609502Y-72864180D01*
X98645812Y-72744482D01*
X98658072Y-72620000D01*
X98658072Y-69850000D01*
X107476606Y-69850000D01*
X107510105Y-70190119D01*
X107609314Y-70517168D01*
X107770421Y-70818578D01*
X107987234Y-71082766D01*
X108210000Y-71265585D01*
X108210001Y-75731928D01*
X108120000Y-75731928D01*
X107995518Y-75744188D01*
X107875820Y-75780498D01*
X107765506Y-75839463D01*
X107668815Y-75918815D01*
X107589463Y-76015506D01*
X107530498Y-76125820D01*
X107494188Y-76245518D01*
X107481928Y-76370000D01*
X107481928Y-78570000D01*
X107494188Y-78694482D01*
X107530498Y-78814180D01*
X107589463Y-78924494D01*
X107668815Y-79021185D01*
X107765506Y-79100537D01*
X107875820Y-79159502D01*
X107995518Y-79195812D01*
X108120000Y-79208072D01*
X110320000Y-79208072D01*
X110444482Y-79195812D01*
X110564180Y-79159502D01*
X110674494Y-79100537D01*
X110771185Y-79021185D01*
X110850537Y-78924494D01*
X110909502Y-78814180D01*
X110945812Y-78694482D01*
X110958072Y-78570000D01*
X110958072Y-77866122D01*
X117690825Y-77866122D01*
X117755425Y-78079094D01*
X117905469Y-78384329D01*
X118112178Y-78654427D01*
X118367609Y-78879008D01*
X118661946Y-79049442D01*
X118983877Y-79159179D01*
X119253000Y-79041600D01*
X119253000Y-77597000D01*
X119507000Y-77597000D01*
X119507000Y-79041600D01*
X119776123Y-79159179D01*
X120098054Y-79049442D01*
X120392391Y-78879008D01*
X120647822Y-78654427D01*
X120854531Y-78384329D01*
X121004575Y-78079094D01*
X121069175Y-77866122D01*
X120951125Y-77597000D01*
X119507000Y-77597000D01*
X119253000Y-77597000D01*
X117808875Y-77597000D01*
X117690825Y-77866122D01*
X110958072Y-77866122D01*
X110958072Y-77073878D01*
X117690825Y-77073878D01*
X117808875Y-77343000D01*
X119253000Y-77343000D01*
X119253000Y-75898400D01*
X119507000Y-75898400D01*
X119507000Y-77343000D01*
X120951125Y-77343000D01*
X121069175Y-77073878D01*
X121004575Y-76860906D01*
X120854531Y-76555671D01*
X120647822Y-76285573D01*
X120392391Y-76060992D01*
X120098054Y-75890558D01*
X119776123Y-75780821D01*
X119507000Y-75898400D01*
X119253000Y-75898400D01*
X118983877Y-75780821D01*
X118661946Y-75890558D01*
X118367609Y-76060992D01*
X118112178Y-76285573D01*
X117905469Y-76555671D01*
X117755425Y-76860906D01*
X117690825Y-77073878D01*
X110958072Y-77073878D01*
X110958072Y-76370000D01*
X110945812Y-76245518D01*
X110909502Y-76125820D01*
X110850537Y-76015506D01*
X110771185Y-75918815D01*
X110674494Y-75839463D01*
X110564180Y-75780498D01*
X110444482Y-75744188D01*
X110320000Y-75731928D01*
X110230000Y-75731928D01*
X110230000Y-71265585D01*
X110452766Y-71082766D01*
X110669579Y-70818578D01*
X110830686Y-70517168D01*
X110929895Y-70190119D01*
X110963394Y-69850000D01*
X110929895Y-69509881D01*
X110830686Y-69182832D01*
X110669579Y-68881422D01*
X110561724Y-68750000D01*
X117641928Y-68750000D01*
X117641928Y-70950000D01*
X117654188Y-71074482D01*
X117690498Y-71194180D01*
X117749463Y-71304494D01*
X117828815Y-71401185D01*
X117925506Y-71480537D01*
X118035820Y-71539502D01*
X118155518Y-71575812D01*
X118280000Y-71588072D01*
X120480000Y-71588072D01*
X120604482Y-71575812D01*
X120724180Y-71539502D01*
X120834494Y-71480537D01*
X120931185Y-71401185D01*
X121010537Y-71304494D01*
X121069502Y-71194180D01*
X121105812Y-71074482D01*
X121118072Y-70950000D01*
X121118072Y-68750000D01*
X121108224Y-68650000D01*
X127701928Y-68650000D01*
X127701928Y-71050000D01*
X127714188Y-71174482D01*
X127750498Y-71294180D01*
X127809463Y-71404494D01*
X127888815Y-71501185D01*
X127985506Y-71580537D01*
X128095820Y-71639502D01*
X128215518Y-71675812D01*
X128340000Y-71688072D01*
X128530001Y-71688072D01*
X128530001Y-71750383D01*
X128525114Y-71800000D01*
X128544615Y-71997994D01*
X128602368Y-72188379D01*
X128602369Y-72188380D01*
X128696154Y-72363840D01*
X128822368Y-72517633D01*
X128860901Y-72549256D01*
X138270744Y-81959100D01*
X138302367Y-81997633D01*
X138456160Y-82123847D01*
X138598656Y-82200012D01*
X138680392Y-82299608D01*
X138898899Y-82478932D01*
X139148192Y-82612182D01*
X139418691Y-82694236D01*
X139629508Y-82715000D01*
X139770492Y-82715000D01*
X139981309Y-82694236D01*
X140251808Y-82612182D01*
X140501101Y-82478932D01*
X140719608Y-82299608D01*
X140898932Y-82081101D01*
X141032182Y-81831808D01*
X141114236Y-81561309D01*
X141141943Y-81280000D01*
X141128023Y-81138665D01*
X145885000Y-81138665D01*
X145885000Y-81421335D01*
X145940147Y-81698574D01*
X146048320Y-81959727D01*
X146205363Y-82194759D01*
X146405241Y-82394637D01*
X146640273Y-82551680D01*
X146901426Y-82659853D01*
X147178665Y-82715000D01*
X147461335Y-82715000D01*
X147738574Y-82659853D01*
X147999727Y-82551680D01*
X148002241Y-82550000D01*
X158578057Y-82550000D01*
X158605764Y-82831309D01*
X158687818Y-83101808D01*
X158821068Y-83351101D01*
X159000392Y-83569608D01*
X159218899Y-83748932D01*
X159468192Y-83882182D01*
X159738691Y-83964236D01*
X159949508Y-83985000D01*
X160090492Y-83985000D01*
X160301309Y-83964236D01*
X160571808Y-83882182D01*
X160821101Y-83748932D01*
X161039608Y-83569608D01*
X161218932Y-83351101D01*
X161352182Y-83101808D01*
X161434236Y-82831309D01*
X161461943Y-82550000D01*
X161448023Y-82408665D01*
X166205000Y-82408665D01*
X166205000Y-82691335D01*
X166260147Y-82968574D01*
X166368320Y-83229727D01*
X166525363Y-83464759D01*
X166630000Y-83569396D01*
X166630001Y-85720383D01*
X166625114Y-85770000D01*
X166644615Y-85967994D01*
X166702368Y-86158379D01*
X166702369Y-86158380D01*
X166796154Y-86333840D01*
X166922368Y-86487633D01*
X166960901Y-86519256D01*
X175100739Y-94659094D01*
X175132367Y-94697633D01*
X175286160Y-94823847D01*
X175461620Y-94917632D01*
X175652006Y-94975385D01*
X175800392Y-94990000D01*
X175800394Y-94990000D01*
X175849999Y-94994886D01*
X175899604Y-94990000D01*
X175961928Y-94990000D01*
X175961928Y-95180000D01*
X175974188Y-95304482D01*
X176010498Y-95424180D01*
X176069463Y-95534494D01*
X176148815Y-95631185D01*
X176245506Y-95710537D01*
X176355820Y-95769502D01*
X176475518Y-95805812D01*
X176600000Y-95818072D01*
X176790000Y-95818072D01*
X176790001Y-109170382D01*
X176785114Y-109220000D01*
X176804615Y-109417994D01*
X176862368Y-109608379D01*
X176915107Y-109707047D01*
X176956154Y-109783840D01*
X177082368Y-109937633D01*
X177120901Y-109969256D01*
X178287586Y-111135942D01*
X178287047Y-111137244D01*
X178205000Y-111549721D01*
X178205000Y-111970279D01*
X178287047Y-112382756D01*
X178447988Y-112771302D01*
X178681637Y-113120983D01*
X178979017Y-113418363D01*
X179328698Y-113652012D01*
X179717244Y-113812953D01*
X180129721Y-113895000D01*
X180550279Y-113895000D01*
X180962756Y-113812953D01*
X181351302Y-113652012D01*
X181700983Y-113418363D01*
X181998363Y-113120983D01*
X182232012Y-112771302D01*
X182392953Y-112382756D01*
X182475000Y-111970279D01*
X182475000Y-111549721D01*
X182392953Y-111137244D01*
X182232012Y-110748698D01*
X181998363Y-110399017D01*
X181700983Y-110101637D01*
X181351302Y-109867988D01*
X180962756Y-109707047D01*
X180550279Y-109625000D01*
X180129721Y-109625000D01*
X179717244Y-109707047D01*
X179715942Y-109707586D01*
X178810000Y-108801645D01*
X178810000Y-95818072D01*
X179000000Y-95818072D01*
X179124482Y-95805812D01*
X179244180Y-95769502D01*
X179354494Y-95710537D01*
X179451185Y-95631185D01*
X179530537Y-95534494D01*
X179589502Y-95424180D01*
X179625812Y-95304482D01*
X179638072Y-95180000D01*
X179638072Y-92780000D01*
X179625812Y-92655518D01*
X179589502Y-92535820D01*
X179530537Y-92425506D01*
X179451185Y-92328815D01*
X179354494Y-92249463D01*
X179244180Y-92190498D01*
X179124482Y-92154188D01*
X179000000Y-92141928D01*
X176600000Y-92141928D01*
X176475518Y-92154188D01*
X176355820Y-92190498D01*
X176245506Y-92249463D01*
X176148815Y-92328815D01*
X176069463Y-92425506D01*
X176010498Y-92535820D01*
X175974188Y-92655518D01*
X175972367Y-92674012D01*
X168650000Y-85351645D01*
X168650000Y-83569396D01*
X168754637Y-83464759D01*
X168911680Y-83229727D01*
X169019853Y-82968574D01*
X169075000Y-82691335D01*
X169075000Y-82408665D01*
X169019853Y-82131426D01*
X168911680Y-81870273D01*
X168754637Y-81635241D01*
X168554759Y-81435363D01*
X168319727Y-81278320D01*
X168058574Y-81170147D01*
X167781335Y-81115000D01*
X167498665Y-81115000D01*
X167221426Y-81170147D01*
X166960273Y-81278320D01*
X166725241Y-81435363D01*
X166525363Y-81635241D01*
X166368320Y-81870273D01*
X166260147Y-82131426D01*
X166205000Y-82408665D01*
X161448023Y-82408665D01*
X161434236Y-82268691D01*
X161352182Y-81998192D01*
X161218932Y-81748899D01*
X161039608Y-81530392D01*
X160821101Y-81351068D01*
X160571808Y-81217818D01*
X160301309Y-81135764D01*
X160090492Y-81115000D01*
X159949508Y-81115000D01*
X159738691Y-81135764D01*
X159468192Y-81217818D01*
X159218899Y-81351068D01*
X159000392Y-81530392D01*
X158821068Y-81748899D01*
X158687818Y-81998192D01*
X158605764Y-82268691D01*
X158578057Y-82550000D01*
X148002241Y-82550000D01*
X148234759Y-82394637D01*
X148434637Y-82194759D01*
X148591680Y-81959727D01*
X148699853Y-81698574D01*
X148755000Y-81421335D01*
X148755000Y-81138665D01*
X148699853Y-80861426D01*
X148591680Y-80600273D01*
X148434637Y-80365241D01*
X148234759Y-80165363D01*
X147999727Y-80008320D01*
X147738574Y-79900147D01*
X147461335Y-79845000D01*
X147178665Y-79845000D01*
X146901426Y-79900147D01*
X146640273Y-80008320D01*
X146405241Y-80165363D01*
X146205363Y-80365241D01*
X146048320Y-80600273D01*
X145940147Y-80861426D01*
X145885000Y-81138665D01*
X141128023Y-81138665D01*
X141114236Y-80998691D01*
X141032182Y-80728192D01*
X140898932Y-80478899D01*
X140719608Y-80260392D01*
X140501101Y-80081068D01*
X140251808Y-79947818D01*
X139981309Y-79865764D01*
X139770492Y-79845000D01*
X139629508Y-79845000D01*
X139418691Y-79865764D01*
X139148192Y-79947818D01*
X139127327Y-79958971D01*
X134168356Y-75000000D01*
X170881928Y-75000000D01*
X170881928Y-77400000D01*
X170894188Y-77524482D01*
X170930498Y-77644180D01*
X170989463Y-77754494D01*
X171068815Y-77851185D01*
X171165506Y-77930537D01*
X171275820Y-77989502D01*
X171395518Y-78025812D01*
X171520000Y-78038072D01*
X173920000Y-78038072D01*
X174044482Y-78025812D01*
X174164180Y-77989502D01*
X174274494Y-77930537D01*
X174371185Y-77851185D01*
X174450537Y-77754494D01*
X174509502Y-77644180D01*
X174545812Y-77524482D01*
X174558072Y-77400000D01*
X174558072Y-75000000D01*
X174545812Y-74875518D01*
X174509502Y-74755820D01*
X174450537Y-74645506D01*
X174371185Y-74548815D01*
X174274494Y-74469463D01*
X174164180Y-74410498D01*
X174044482Y-74374188D01*
X173920000Y-74361928D01*
X171520000Y-74361928D01*
X171395518Y-74374188D01*
X171275820Y-74410498D01*
X171165506Y-74469463D01*
X171068815Y-74548815D01*
X170989463Y-74645506D01*
X170930498Y-74755820D01*
X170894188Y-74875518D01*
X170881928Y-75000000D01*
X134168356Y-75000000D01*
X131646336Y-72477980D01*
X171621626Y-72477980D01*
X171741514Y-72762836D01*
X172065210Y-72923699D01*
X172414069Y-73018322D01*
X172774684Y-73043067D01*
X173133198Y-72996985D01*
X173475833Y-72881846D01*
X173698486Y-72762836D01*
X173818374Y-72477980D01*
X172720000Y-71379605D01*
X171621626Y-72477980D01*
X131646336Y-72477980D01*
X130845988Y-71677633D01*
X130864482Y-71675812D01*
X130984180Y-71639502D01*
X131094494Y-71580537D01*
X131191185Y-71501185D01*
X131270537Y-71404494D01*
X131329502Y-71294180D01*
X131365812Y-71174482D01*
X131378072Y-71050000D01*
X131378072Y-69669268D01*
X135205000Y-69669268D01*
X135205000Y-70030732D01*
X135275518Y-70385250D01*
X135413844Y-70719199D01*
X135614662Y-71019744D01*
X135870256Y-71275338D01*
X136170801Y-71476156D01*
X136504750Y-71614482D01*
X136859268Y-71685000D01*
X137220732Y-71685000D01*
X137575250Y-71614482D01*
X137909199Y-71476156D01*
X138209744Y-71275338D01*
X138465338Y-71019744D01*
X138666156Y-70719199D01*
X138804482Y-70385250D01*
X138875000Y-70030732D01*
X138875000Y-69669268D01*
X138804482Y-69314750D01*
X138666156Y-68980801D01*
X138465338Y-68680256D01*
X138435082Y-68650000D01*
X149291928Y-68650000D01*
X149291928Y-71050000D01*
X149304188Y-71174482D01*
X149340498Y-71294180D01*
X149399463Y-71404494D01*
X149478815Y-71501185D01*
X149575506Y-71580537D01*
X149685820Y-71639502D01*
X149805518Y-71675812D01*
X149930000Y-71688072D01*
X152330000Y-71688072D01*
X152454482Y-71675812D01*
X152574180Y-71639502D01*
X152684494Y-71580537D01*
X152781185Y-71501185D01*
X152860537Y-71404494D01*
X152919502Y-71294180D01*
X152955812Y-71174482D01*
X152960391Y-71127980D01*
X157531626Y-71127980D01*
X157651514Y-71412836D01*
X157975210Y-71573699D01*
X158324069Y-71668322D01*
X158684684Y-71693067D01*
X159043198Y-71646985D01*
X159385833Y-71531846D01*
X159608486Y-71412836D01*
X159675047Y-71254684D01*
X170876933Y-71254684D01*
X170923015Y-71613198D01*
X171038154Y-71955833D01*
X171157164Y-72178486D01*
X171442020Y-72298374D01*
X172540395Y-71200000D01*
X172899605Y-71200000D01*
X173997980Y-72298374D01*
X174282836Y-72178486D01*
X174443699Y-71854790D01*
X174538322Y-71505931D01*
X174563067Y-71145316D01*
X174516985Y-70786802D01*
X174401846Y-70444167D01*
X174282836Y-70221514D01*
X173997980Y-70101626D01*
X172899605Y-71200000D01*
X172540395Y-71200000D01*
X171442020Y-70101626D01*
X171157164Y-70221514D01*
X170996301Y-70545210D01*
X170901678Y-70894069D01*
X170876933Y-71254684D01*
X159675047Y-71254684D01*
X159728374Y-71127980D01*
X158630000Y-70029605D01*
X157531626Y-71127980D01*
X152960391Y-71127980D01*
X152968072Y-71050000D01*
X152968072Y-69904684D01*
X156786933Y-69904684D01*
X156833015Y-70263198D01*
X156948154Y-70605833D01*
X157067164Y-70828486D01*
X157352020Y-70948374D01*
X158450395Y-69850000D01*
X158809605Y-69850000D01*
X159907980Y-70948374D01*
X160192836Y-70828486D01*
X160353699Y-70504790D01*
X160448322Y-70155931D01*
X160464372Y-69922020D01*
X171621626Y-69922020D01*
X172720000Y-71020395D01*
X173818374Y-69922020D01*
X173698486Y-69637164D01*
X173374790Y-69476301D01*
X173025931Y-69381678D01*
X172665316Y-69356933D01*
X172306802Y-69403015D01*
X171964167Y-69518154D01*
X171741514Y-69637164D01*
X171621626Y-69922020D01*
X160464372Y-69922020D01*
X160473067Y-69795316D01*
X160426985Y-69436802D01*
X160311846Y-69094167D01*
X160192836Y-68871514D01*
X159907980Y-68751626D01*
X158809605Y-69850000D01*
X158450395Y-69850000D01*
X157352020Y-68751626D01*
X157067164Y-68871514D01*
X156906301Y-69195210D01*
X156811678Y-69544069D01*
X156786933Y-69904684D01*
X152968072Y-69904684D01*
X152968072Y-68650000D01*
X152960392Y-68572020D01*
X157531626Y-68572020D01*
X158630000Y-69670395D01*
X159728374Y-68572020D01*
X159608486Y-68287164D01*
X159284790Y-68126301D01*
X158935931Y-68031678D01*
X158575316Y-68006933D01*
X158216802Y-68053015D01*
X157874167Y-68168154D01*
X157651514Y-68287164D01*
X157531626Y-68572020D01*
X152960392Y-68572020D01*
X152955812Y-68525518D01*
X152919502Y-68405820D01*
X152860537Y-68295506D01*
X152781185Y-68198815D01*
X152684494Y-68119463D01*
X152574180Y-68060498D01*
X152454482Y-68024188D01*
X152330000Y-68011928D01*
X149930000Y-68011928D01*
X149805518Y-68024188D01*
X149685820Y-68060498D01*
X149575506Y-68119463D01*
X149478815Y-68198815D01*
X149399463Y-68295506D01*
X149340498Y-68405820D01*
X149304188Y-68525518D01*
X149291928Y-68650000D01*
X138435082Y-68650000D01*
X138209744Y-68424662D01*
X137909199Y-68223844D01*
X137575250Y-68085518D01*
X137220732Y-68015000D01*
X136859268Y-68015000D01*
X136504750Y-68085518D01*
X136170801Y-68223844D01*
X135870256Y-68424662D01*
X135614662Y-68680256D01*
X135413844Y-68980801D01*
X135275518Y-69314750D01*
X135205000Y-69669268D01*
X131378072Y-69669268D01*
X131378072Y-68650000D01*
X131365812Y-68525518D01*
X131329502Y-68405820D01*
X131270537Y-68295506D01*
X131191185Y-68198815D01*
X131094494Y-68119463D01*
X130984180Y-68060498D01*
X130864482Y-68024188D01*
X130740000Y-68011928D01*
X128340000Y-68011928D01*
X128215518Y-68024188D01*
X128095820Y-68060498D01*
X127985506Y-68119463D01*
X127888815Y-68198815D01*
X127809463Y-68295506D01*
X127750498Y-68405820D01*
X127714188Y-68525518D01*
X127701928Y-68650000D01*
X121108224Y-68650000D01*
X121105812Y-68625518D01*
X121069502Y-68505820D01*
X121010537Y-68395506D01*
X120931185Y-68298815D01*
X120834494Y-68219463D01*
X120724180Y-68160498D01*
X120604482Y-68124188D01*
X120480000Y-68111928D01*
X118280000Y-68111928D01*
X118155518Y-68124188D01*
X118035820Y-68160498D01*
X117925506Y-68219463D01*
X117828815Y-68298815D01*
X117749463Y-68395506D01*
X117690498Y-68505820D01*
X117654188Y-68625518D01*
X117641928Y-68750000D01*
X110561724Y-68750000D01*
X110452766Y-68617234D01*
X110188578Y-68400421D01*
X109887168Y-68239314D01*
X109560119Y-68140105D01*
X109305225Y-68115000D01*
X109134775Y-68115000D01*
X108879881Y-68140105D01*
X108552832Y-68239314D01*
X108251422Y-68400421D01*
X107987234Y-68617234D01*
X107770421Y-68881422D01*
X107609314Y-69182832D01*
X107510105Y-69509881D01*
X107476606Y-69850000D01*
X98658072Y-69850000D01*
X98658072Y-69620000D01*
X98645812Y-69495518D01*
X98609502Y-69375820D01*
X98550537Y-69265506D01*
X98471185Y-69168815D01*
X98374494Y-69089463D01*
X98264180Y-69030498D01*
X98144482Y-68994188D01*
X98020000Y-68981928D01*
X95020000Y-68981928D01*
X94895518Y-68994188D01*
X94775820Y-69030498D01*
X94665506Y-69089463D01*
X94568815Y-69168815D01*
X94489463Y-69265506D01*
X94430498Y-69375820D01*
X94394188Y-69495518D01*
X94381928Y-69620000D01*
X92100000Y-69620000D01*
X92100000Y-62259392D01*
X92138970Y-61822738D01*
X92385000Y-61822738D01*
X92385000Y-62637262D01*
X92543906Y-63436135D01*
X92855611Y-64188657D01*
X93308136Y-64865909D01*
X93884091Y-65441864D01*
X94561343Y-65894389D01*
X95313865Y-66206094D01*
X96112738Y-66365000D01*
X96927262Y-66365000D01*
X97726135Y-66206094D01*
X98478657Y-65894389D01*
X99155909Y-65441864D01*
X99731864Y-64865909D01*
X100184389Y-64188657D01*
X100496094Y-63436135D01*
X100655000Y-62637262D01*
X100655000Y-61822738D01*
X176205000Y-61822738D01*
X176205000Y-62637262D01*
X176363906Y-63436135D01*
X176675611Y-64188657D01*
X177128136Y-64865909D01*
X177704091Y-65441864D01*
X178381343Y-65894389D01*
X179133865Y-66206094D01*
X179932738Y-66365000D01*
X180747262Y-66365000D01*
X181546135Y-66206094D01*
X182298657Y-65894389D01*
X182975909Y-65441864D01*
X183551864Y-64865909D01*
X184004389Y-64188657D01*
X184316094Y-63436135D01*
X184475000Y-62637262D01*
X184475000Y-61822738D01*
X184316094Y-61023865D01*
X184004389Y-60271343D01*
X183551864Y-59594091D01*
X182975909Y-59018136D01*
X182298657Y-58565611D01*
X181546135Y-58253906D01*
X180747262Y-58095000D01*
X179932738Y-58095000D01*
X179133865Y-58253906D01*
X178381343Y-58565611D01*
X177704091Y-59018136D01*
X177128136Y-59594091D01*
X176675611Y-60271343D01*
X176363906Y-61023865D01*
X176205000Y-61822738D01*
X100655000Y-61822738D01*
X100496094Y-61023865D01*
X100184389Y-60271343D01*
X99731864Y-59594091D01*
X99155909Y-59018136D01*
X98478657Y-58565611D01*
X97726135Y-58253906D01*
X96927262Y-58095000D01*
X96112738Y-58095000D01*
X95313865Y-58253906D01*
X94561343Y-58565611D01*
X93884091Y-59018136D01*
X93308136Y-59594091D01*
X92855611Y-60271343D01*
X92543906Y-61023865D01*
X92385000Y-61822738D01*
X92138970Y-61822738D01*
X92172437Y-61447751D01*
X92379672Y-60690226D01*
X92717777Y-59981375D01*
X93176067Y-59343596D01*
X93740055Y-58797054D01*
X94391913Y-58359023D01*
X95111038Y-58043349D01*
X95879768Y-57858794D01*
X96544207Y-57810000D01*
X180310608Y-57810000D01*
X181122249Y-57882437D01*
X181122249Y-57882437D01*
G37*
X181122249Y-57882437D02*
X181879774Y-58089672D01*
X182588625Y-58427777D01*
X183226404Y-58886067D01*
X183772946Y-59450055D01*
X184210977Y-60101913D01*
X184526651Y-60821038D01*
X184711206Y-61589768D01*
X184760000Y-62254207D01*
X184760001Y-134590597D01*
X184687563Y-135402249D01*
X184480328Y-136159774D01*
X184142221Y-136868627D01*
X183683928Y-137506410D01*
X183119945Y-138052946D01*
X182468085Y-138490978D01*
X181748963Y-138806651D01*
X180980232Y-138991206D01*
X180315792Y-139040000D01*
X96549392Y-139040000D01*
X95737751Y-138967563D01*
X94980226Y-138760328D01*
X94271373Y-138422221D01*
X93633590Y-137963928D01*
X93087054Y-137399945D01*
X92649022Y-136748085D01*
X92333349Y-136028963D01*
X92148794Y-135260232D01*
X92100000Y-134595792D01*
X92100000Y-134212738D01*
X92385000Y-134212738D01*
X92385000Y-135027262D01*
X92543906Y-135826135D01*
X92855611Y-136578657D01*
X93308136Y-137255909D01*
X93884091Y-137831864D01*
X94561343Y-138284389D01*
X95313865Y-138596094D01*
X96112738Y-138755000D01*
X96927262Y-138755000D01*
X97726135Y-138596094D01*
X98478657Y-138284389D01*
X99155909Y-137831864D01*
X99731864Y-137255909D01*
X100184389Y-136578657D01*
X100496094Y-135826135D01*
X100655000Y-135027262D01*
X100655000Y-134212738D01*
X176205000Y-134212738D01*
X176205000Y-135027262D01*
X176363906Y-135826135D01*
X176675611Y-136578657D01*
X177128136Y-137255909D01*
X177704091Y-137831864D01*
X178381343Y-138284389D01*
X179133865Y-138596094D01*
X179932738Y-138755000D01*
X180747262Y-138755000D01*
X181546135Y-138596094D01*
X182298657Y-138284389D01*
X182975909Y-137831864D01*
X183551864Y-137255909D01*
X184004389Y-136578657D01*
X184316094Y-135826135D01*
X184475000Y-135027262D01*
X184475000Y-134212738D01*
X184316094Y-133413865D01*
X184004389Y-132661343D01*
X183551864Y-131984091D01*
X182975909Y-131408136D01*
X182298657Y-130955611D01*
X181546135Y-130643906D01*
X180747262Y-130485000D01*
X179932738Y-130485000D01*
X179133865Y-130643906D01*
X178381343Y-130955611D01*
X177704091Y-131408136D01*
X177128136Y-131984091D01*
X176675611Y-132661343D01*
X176363906Y-133413865D01*
X176205000Y-134212738D01*
X100655000Y-134212738D01*
X100496094Y-133413865D01*
X100184389Y-132661343D01*
X99731864Y-131984091D01*
X99155909Y-131408136D01*
X98478657Y-130955611D01*
X97726135Y-130643906D01*
X96927262Y-130485000D01*
X96112738Y-130485000D01*
X95313865Y-130643906D01*
X94561343Y-130955611D01*
X93884091Y-131408136D01*
X93308136Y-131984091D01*
X92855611Y-132661343D01*
X92543906Y-133413865D01*
X92385000Y-134212738D01*
X92100000Y-134212738D01*
X92100000Y-126789721D01*
X94385000Y-126789721D01*
X94385000Y-127210279D01*
X94467047Y-127622756D01*
X94627988Y-128011302D01*
X94861637Y-128360983D01*
X95159017Y-128658363D01*
X95508698Y-128892012D01*
X95897244Y-129052953D01*
X96309721Y-129135000D01*
X96730279Y-129135000D01*
X97142756Y-129052953D01*
X97531302Y-128892012D01*
X97880983Y-128658363D01*
X98178363Y-128360983D01*
X98412012Y-128011302D01*
X98572953Y-127622756D01*
X98655000Y-127210279D01*
X98655000Y-126789721D01*
X98572953Y-126377244D01*
X98412012Y-125988698D01*
X98178363Y-125639017D01*
X97880983Y-125341637D01*
X97531302Y-125107988D01*
X97142756Y-124947047D01*
X96730279Y-124865000D01*
X96309721Y-124865000D01*
X95897244Y-124947047D01*
X95508698Y-125107988D01*
X95159017Y-125341637D01*
X94861637Y-125639017D01*
X94627988Y-125988698D01*
X94467047Y-126377244D01*
X94385000Y-126789721D01*
X92100000Y-126789721D01*
X92100000Y-120420000D01*
X94381928Y-120420000D01*
X94381928Y-123420000D01*
X94394188Y-123544482D01*
X94430498Y-123664180D01*
X94489463Y-123774494D01*
X94568815Y-123871185D01*
X94665506Y-123950537D01*
X94775820Y-124009502D01*
X94895518Y-124045812D01*
X95020000Y-124058072D01*
X98020000Y-124058072D01*
X98144482Y-124045812D01*
X98264180Y-124009502D01*
X98374494Y-123950537D01*
X98471185Y-123871185D01*
X98550537Y-123774494D01*
X98609502Y-123664180D01*
X98645812Y-123544482D01*
X98658072Y-123420000D01*
X178201928Y-123420000D01*
X178214188Y-123544482D01*
X178250498Y-123664180D01*
X178309463Y-123774494D01*
X178388815Y-123871185D01*
X178485506Y-123950537D01*
X178595820Y-124009502D01*
X178715518Y-124045812D01*
X178840000Y-124058072D01*
X180054250Y-124055000D01*
X180213000Y-123896250D01*
X180213000Y-122047000D01*
X180467000Y-122047000D01*
X180467000Y-123896250D01*
X180625750Y-124055000D01*
X181840000Y-124058072D01*
X181964482Y-124045812D01*
X182084180Y-124009502D01*
X182194494Y-123950537D01*
X182291185Y-123871185D01*
X182370537Y-123774494D01*
X182429502Y-123664180D01*
X182465812Y-123544482D01*
X182478072Y-123420000D01*
X182475000Y-122205750D01*
X182316250Y-122047000D01*
X180467000Y-122047000D01*
X180213000Y-122047000D01*
X178363750Y-122047000D01*
X178205000Y-122205750D01*
X178201928Y-123420000D01*
X98658072Y-123420000D01*
X98658072Y-120420000D01*
X178201928Y-120420000D01*
X178205000Y-121634250D01*
X178363750Y-121793000D01*
X180213000Y-121793000D01*
X180213000Y-119943750D01*
X180467000Y-119943750D01*
X180467000Y-121793000D01*
X182316250Y-121793000D01*
X182475000Y-121634250D01*
X182478072Y-120420000D01*
X182465812Y-120295518D01*
X182429502Y-120175820D01*
X182370537Y-120065506D01*
X182291185Y-119968815D01*
X182194494Y-119889463D01*
X182084180Y-119830498D01*
X181964482Y-119794188D01*
X181840000Y-119781928D01*
X180625750Y-119785000D01*
X180467000Y-119943750D01*
X180213000Y-119943750D01*
X180054250Y-119785000D01*
X178840000Y-119781928D01*
X178715518Y-119794188D01*
X178595820Y-119830498D01*
X178485506Y-119889463D01*
X178388815Y-119968815D01*
X178309463Y-120065506D01*
X178250498Y-120175820D01*
X178214188Y-120295518D01*
X178201928Y-120420000D01*
X98658072Y-120420000D01*
X98645812Y-120295518D01*
X98609502Y-120175820D01*
X98550537Y-120065506D01*
X98471185Y-119968815D01*
X98374494Y-119889463D01*
X98264180Y-119830498D01*
X98144482Y-119794188D01*
X98020000Y-119781928D01*
X97836427Y-119781928D01*
X98230375Y-119387980D01*
X117011626Y-119387980D01*
X117131514Y-119672836D01*
X117455210Y-119833699D01*
X117804069Y-119928322D01*
X118164684Y-119953067D01*
X118523198Y-119906985D01*
X118865833Y-119791846D01*
X119088486Y-119672836D01*
X119208374Y-119387980D01*
X118110000Y-118289605D01*
X117011626Y-119387980D01*
X98230375Y-119387980D01*
X99453671Y-118164684D01*
X116266933Y-118164684D01*
X116313015Y-118523198D01*
X116428154Y-118865833D01*
X116547164Y-119088486D01*
X116832020Y-119208374D01*
X117930395Y-118110000D01*
X118289605Y-118110000D01*
X119387980Y-119208374D01*
X119672836Y-119088486D01*
X119833699Y-118764790D01*
X119928322Y-118415931D01*
X119953067Y-118055316D01*
X119906985Y-117696802D01*
X119791846Y-117354167D01*
X119672836Y-117131514D01*
X119387980Y-117011626D01*
X118289605Y-118110000D01*
X117930395Y-118110000D01*
X116832020Y-117011626D01*
X116547164Y-117131514D01*
X116386301Y-117455210D01*
X116291678Y-117804069D01*
X116266933Y-118164684D01*
X99453671Y-118164684D01*
X100786335Y-116832020D01*
X117011626Y-116832020D01*
X118110000Y-117930395D01*
X119130394Y-116910000D01*
X128971928Y-116910000D01*
X128971928Y-119310000D01*
X128984188Y-119434482D01*
X129020498Y-119554180D01*
X129079463Y-119664494D01*
X129158815Y-119761185D01*
X129255506Y-119840537D01*
X129365820Y-119899502D01*
X129485518Y-119935812D01*
X129610000Y-119948072D01*
X132010000Y-119948072D01*
X132134482Y-119935812D01*
X132254180Y-119899502D01*
X132364494Y-119840537D01*
X132461185Y-119761185D01*
X132540537Y-119664494D01*
X132599502Y-119554180D01*
X132635812Y-119434482D01*
X132648072Y-119310000D01*
X132648072Y-116910000D01*
X144211928Y-116910000D01*
X144211928Y-119310000D01*
X144224188Y-119434482D01*
X144260498Y-119554180D01*
X144319463Y-119664494D01*
X144398815Y-119761185D01*
X144495506Y-119840537D01*
X144605820Y-119899502D01*
X144725518Y-119935812D01*
X144850000Y-119948072D01*
X147250000Y-119948072D01*
X147374482Y-119935812D01*
X147494180Y-119899502D01*
X147604494Y-119840537D01*
X147701185Y-119761185D01*
X147780537Y-119664494D01*
X147839502Y-119554180D01*
X147875812Y-119434482D01*
X147880391Y-119387980D01*
X157651626Y-119387980D01*
X157771514Y-119672836D01*
X158095210Y-119833699D01*
X158444069Y-119928322D01*
X158804684Y-119953067D01*
X159163198Y-119906985D01*
X159505833Y-119791846D01*
X159728486Y-119672836D01*
X159848374Y-119387980D01*
X158750000Y-118289605D01*
X157651626Y-119387980D01*
X147880391Y-119387980D01*
X147888072Y-119310000D01*
X147888072Y-118164684D01*
X156906933Y-118164684D01*
X156953015Y-118523198D01*
X157068154Y-118865833D01*
X157187164Y-119088486D01*
X157472020Y-119208374D01*
X158570395Y-118110000D01*
X158929605Y-118110000D01*
X160027980Y-119208374D01*
X160312836Y-119088486D01*
X160473699Y-118764790D01*
X160568322Y-118415931D01*
X160593067Y-118055316D01*
X160546985Y-117696802D01*
X160431846Y-117354167D01*
X160312836Y-117131514D01*
X160027980Y-117011626D01*
X158929605Y-118110000D01*
X158570395Y-118110000D01*
X157472020Y-117011626D01*
X157187164Y-117131514D01*
X157026301Y-117455210D01*
X156931678Y-117804069D01*
X156906933Y-118164684D01*
X147888072Y-118164684D01*
X147888072Y-116910000D01*
X147880392Y-116832020D01*
X157651626Y-116832020D01*
X158750000Y-117930395D01*
X159848374Y-116832020D01*
X159763232Y-116629721D01*
X178205000Y-116629721D01*
X178205000Y-117050279D01*
X178287047Y-117462756D01*
X178447988Y-117851302D01*
X178681637Y-118200983D01*
X178979017Y-118498363D01*
X179328698Y-118732012D01*
X179717244Y-118892953D01*
X180129721Y-118975000D01*
X180550279Y-118975000D01*
X180962756Y-118892953D01*
X181351302Y-118732012D01*
X181700983Y-118498363D01*
X181998363Y-118200983D01*
X182232012Y-117851302D01*
X182392953Y-117462756D01*
X182475000Y-117050279D01*
X182475000Y-116629721D01*
X182392953Y-116217244D01*
X182232012Y-115828698D01*
X181998363Y-115479017D01*
X181700983Y-115181637D01*
X181351302Y-114947988D01*
X180962756Y-114787047D01*
X180550279Y-114705000D01*
X180129721Y-114705000D01*
X179717244Y-114787047D01*
X179328698Y-114947988D01*
X178979017Y-115181637D01*
X178681637Y-115479017D01*
X178447988Y-115828698D01*
X178287047Y-116217244D01*
X178205000Y-116629721D01*
X159763232Y-116629721D01*
X159728486Y-116547164D01*
X159404790Y-116386301D01*
X159055931Y-116291678D01*
X158695316Y-116266933D01*
X158336802Y-116313015D01*
X157994167Y-116428154D01*
X157771514Y-116547164D01*
X157651626Y-116832020D01*
X147880392Y-116832020D01*
X147875812Y-116785518D01*
X147839502Y-116665820D01*
X147780537Y-116555506D01*
X147701185Y-116458815D01*
X147604494Y-116379463D01*
X147494180Y-116320498D01*
X147374482Y-116284188D01*
X147250000Y-116271928D01*
X144850000Y-116271928D01*
X144725518Y-116284188D01*
X144605820Y-116320498D01*
X144495506Y-116379463D01*
X144398815Y-116458815D01*
X144319463Y-116555506D01*
X144260498Y-116665820D01*
X144224188Y-116785518D01*
X144211928Y-116910000D01*
X132648072Y-116910000D01*
X132635812Y-116785518D01*
X132599502Y-116665820D01*
X132540537Y-116555506D01*
X132461185Y-116458815D01*
X132364494Y-116379463D01*
X132254180Y-116320498D01*
X132134482Y-116284188D01*
X132010000Y-116271928D01*
X129610000Y-116271928D01*
X129485518Y-116284188D01*
X129365820Y-116320498D01*
X129255506Y-116379463D01*
X129158815Y-116458815D01*
X129079463Y-116555506D01*
X129020498Y-116665820D01*
X128984188Y-116785518D01*
X128971928Y-116910000D01*
X119130394Y-116910000D01*
X119208374Y-116832020D01*
X119088486Y-116547164D01*
X118764790Y-116386301D01*
X118415931Y-116291678D01*
X118055316Y-116266933D01*
X117696802Y-116313015D01*
X117354167Y-116428154D01*
X117131514Y-116547164D01*
X117011626Y-116832020D01*
X100786335Y-116832020D01*
X114233683Y-103384673D01*
X114338963Y-103607420D01*
X114506481Y-103833414D01*
X114714869Y-104022385D01*
X114956119Y-104167070D01*
X115220960Y-104261909D01*
X115443000Y-104140624D01*
X115443000Y-102997000D01*
X115697000Y-102997000D01*
X115697000Y-104140624D01*
X115919040Y-104261909D01*
X116183881Y-104167070D01*
X116425131Y-104022385D01*
X116633519Y-103833414D01*
X116801037Y-103607420D01*
X116921246Y-103353087D01*
X116961904Y-103219039D01*
X116839915Y-102997000D01*
X115697000Y-102997000D01*
X115443000Y-102997000D01*
X115423000Y-102997000D01*
X115423000Y-102743000D01*
X115443000Y-102743000D01*
X115443000Y-101599376D01*
X115697000Y-101599376D01*
X115697000Y-102743000D01*
X116839915Y-102743000D01*
X116961904Y-102520961D01*
X116921246Y-102386913D01*
X116801037Y-102132580D01*
X116633519Y-101906586D01*
X116425131Y-101717615D01*
X116183881Y-101572930D01*
X115919040Y-101478091D01*
X115697000Y-101599376D01*
X115443000Y-101599376D01*
X115220960Y-101478091D01*
X114956119Y-101572930D01*
X114714869Y-101717615D01*
X114704990Y-101726574D01*
X114704990Y-97543365D01*
X115563356Y-96685000D01*
X115711335Y-96685000D01*
X115988574Y-96629853D01*
X116249727Y-96521680D01*
X116484759Y-96364637D01*
X116684637Y-96164759D01*
X116841680Y-95929727D01*
X116949853Y-95668574D01*
X117005000Y-95391335D01*
X117005000Y-95320000D01*
X150561928Y-95320000D01*
X150561928Y-97720000D01*
X150574188Y-97844482D01*
X150610498Y-97964180D01*
X150669463Y-98074494D01*
X150748815Y-98171185D01*
X150845506Y-98250537D01*
X150955820Y-98309502D01*
X151075518Y-98345812D01*
X151200000Y-98358072D01*
X153600000Y-98358072D01*
X153724482Y-98345812D01*
X153844180Y-98309502D01*
X153954494Y-98250537D01*
X154051185Y-98171185D01*
X154130537Y-98074494D01*
X154189502Y-97964180D01*
X154225812Y-97844482D01*
X154238072Y-97720000D01*
X154238072Y-95320000D01*
X154231964Y-95257980D01*
X169201626Y-95257980D01*
X169321514Y-95542836D01*
X169645210Y-95703699D01*
X169994069Y-95798322D01*
X170354684Y-95823067D01*
X170713198Y-95776985D01*
X171055833Y-95661846D01*
X171278486Y-95542836D01*
X171398374Y-95257980D01*
X170300000Y-94159605D01*
X169201626Y-95257980D01*
X154231964Y-95257980D01*
X154225812Y-95195518D01*
X154189502Y-95075820D01*
X154130537Y-94965506D01*
X154051185Y-94868815D01*
X153954494Y-94789463D01*
X153844180Y-94730498D01*
X153724482Y-94694188D01*
X153600000Y-94681928D01*
X151200000Y-94681928D01*
X151075518Y-94694188D01*
X150955820Y-94730498D01*
X150845506Y-94789463D01*
X150748815Y-94868815D01*
X150669463Y-94965506D01*
X150610498Y-95075820D01*
X150574188Y-95195518D01*
X150561928Y-95320000D01*
X117005000Y-95320000D01*
X117005000Y-95108665D01*
X116949853Y-94831426D01*
X116841680Y-94570273D01*
X116684637Y-94335241D01*
X116484759Y-94135363D01*
X116264185Y-93987980D01*
X126021626Y-93987980D01*
X126141514Y-94272836D01*
X126465210Y-94433699D01*
X126814069Y-94528322D01*
X127174684Y-94553067D01*
X127533198Y-94506985D01*
X127875833Y-94391846D01*
X128098486Y-94272836D01*
X128218374Y-93987980D01*
X127120000Y-92889605D01*
X126021626Y-93987980D01*
X116264185Y-93987980D01*
X116249727Y-93978320D01*
X115988574Y-93870147D01*
X115711335Y-93815000D01*
X115428665Y-93815000D01*
X115151426Y-93870147D01*
X114890273Y-93978320D01*
X114655241Y-94135363D01*
X114455363Y-94335241D01*
X114298320Y-94570273D01*
X114190147Y-94831426D01*
X114135000Y-95108665D01*
X114135000Y-95256644D01*
X113015896Y-96375749D01*
X112977357Y-96407377D01*
X112851143Y-96561170D01*
X112814432Y-96629853D01*
X112757358Y-96736631D01*
X112699605Y-96927016D01*
X112680104Y-97125010D01*
X112684990Y-97174618D01*
X112684991Y-102076653D01*
X95840906Y-118920739D01*
X95802367Y-118952367D01*
X95676153Y-119106160D01*
X95621519Y-119208374D01*
X95582368Y-119281621D01*
X95524615Y-119472006D01*
X95505114Y-119670000D01*
X95510000Y-119719608D01*
X95510000Y-119781928D01*
X95020000Y-119781928D01*
X94895518Y-119794188D01*
X94775820Y-119830498D01*
X94665506Y-119889463D01*
X94568815Y-119968815D01*
X94489463Y-120065506D01*
X94430498Y-120175820D01*
X94394188Y-120295518D01*
X94381928Y-120420000D01*
X92100000Y-120420000D01*
X92100000Y-114089721D01*
X94385000Y-114089721D01*
X94385000Y-114510279D01*
X94467047Y-114922756D01*
X94627988Y-115311302D01*
X94861637Y-115660983D01*
X95159017Y-115958363D01*
X95508698Y-116192012D01*
X95897244Y-116352953D01*
X96309721Y-116435000D01*
X96730279Y-116435000D01*
X97142756Y-116352953D01*
X97531302Y-116192012D01*
X97880983Y-115958363D01*
X98178363Y-115660983D01*
X98412012Y-115311302D01*
X98572953Y-114922756D01*
X98655000Y-114510279D01*
X98655000Y-114089721D01*
X98572953Y-113677244D01*
X98412012Y-113288698D01*
X98178363Y-112939017D01*
X97880983Y-112641637D01*
X97531302Y-112407988D01*
X97142756Y-112247047D01*
X96730279Y-112165000D01*
X96309721Y-112165000D01*
X95897244Y-112247047D01*
X95508698Y-112407988D01*
X95159017Y-112641637D01*
X94861637Y-112939017D01*
X94627988Y-113288698D01*
X94467047Y-113677244D01*
X94385000Y-114089721D01*
X92100000Y-114089721D01*
X92100000Y-107720000D01*
X94381928Y-107720000D01*
X94381928Y-110720000D01*
X94394188Y-110844482D01*
X94430498Y-110964180D01*
X94489463Y-111074494D01*
X94568815Y-111171185D01*
X94665506Y-111250537D01*
X94775820Y-111309502D01*
X94895518Y-111345812D01*
X95020000Y-111358072D01*
X98020000Y-111358072D01*
X98144482Y-111345812D01*
X98264180Y-111309502D01*
X98374494Y-111250537D01*
X98471185Y-111171185D01*
X98550537Y-111074494D01*
X98609502Y-110964180D01*
X98645812Y-110844482D01*
X98658072Y-110720000D01*
X98658072Y-107720000D01*
X98645812Y-107595518D01*
X98609502Y-107475820D01*
X98550537Y-107365506D01*
X98471185Y-107268815D01*
X98374494Y-107189463D01*
X98264180Y-107130498D01*
X98144482Y-107094188D01*
X98020000Y-107081928D01*
X95020000Y-107081928D01*
X94895518Y-107094188D01*
X94775820Y-107130498D01*
X94665506Y-107189463D01*
X94568815Y-107268815D01*
X94489463Y-107365506D01*
X94430498Y-107475820D01*
X94394188Y-107595518D01*
X94381928Y-107720000D01*
X92100000Y-107720000D01*
X92100000Y-90912238D01*
X94885001Y-93697240D01*
X94885001Y-94397378D01*
X94775820Y-94430498D01*
X94665506Y-94489463D01*
X94568815Y-94568815D01*
X94489463Y-94665506D01*
X94430498Y-94775820D01*
X94394188Y-94895518D01*
X94381928Y-95020000D01*
X94381928Y-98020000D01*
X94394188Y-98144482D01*
X94430498Y-98264180D01*
X94489463Y-98374494D01*
X94568815Y-98471185D01*
X94665506Y-98550537D01*
X94775820Y-98609502D01*
X94895518Y-98645812D01*
X95020000Y-98658072D01*
X97149689Y-98658072D01*
X96342761Y-99465000D01*
X96309721Y-99465000D01*
X95897244Y-99547047D01*
X95508698Y-99707988D01*
X95159017Y-99941637D01*
X94861637Y-100239017D01*
X94627988Y-100588698D01*
X94467047Y-100977244D01*
X94385000Y-101389721D01*
X94385000Y-101810279D01*
X94467047Y-102222756D01*
X94627988Y-102611302D01*
X94861637Y-102960983D01*
X95159017Y-103258363D01*
X95508698Y-103492012D01*
X95897244Y-103652953D01*
X96309721Y-103735000D01*
X96730279Y-103735000D01*
X97142756Y-103652953D01*
X97531302Y-103492012D01*
X97880983Y-103258363D01*
X98178363Y-102960983D01*
X98412012Y-102611302D01*
X98572953Y-102222756D01*
X98655000Y-101810279D01*
X98655000Y-101777239D01*
X100369326Y-100062914D01*
X100431715Y-100011713D01*
X100636032Y-99762751D01*
X100787853Y-99478714D01*
X100881344Y-99170515D01*
X100905001Y-98930321D01*
X100905001Y-98930320D01*
X100912912Y-98849999D01*
X100905001Y-98769677D01*
X100905001Y-95250000D01*
X106508057Y-95250000D01*
X106535764Y-95531309D01*
X106617818Y-95801808D01*
X106751068Y-96051101D01*
X106930392Y-96269608D01*
X107148899Y-96448932D01*
X107190000Y-96470901D01*
X107190001Y-101651956D01*
X107035241Y-101755363D01*
X106835363Y-101955241D01*
X106678320Y-102190273D01*
X106570147Y-102451426D01*
X106515000Y-102728665D01*
X106515000Y-103011335D01*
X106570147Y-103288574D01*
X106678320Y-103549727D01*
X106835363Y-103784759D01*
X107035241Y-103984637D01*
X107270273Y-104141680D01*
X107531426Y-104249853D01*
X107808665Y-104305000D01*
X108091335Y-104305000D01*
X108368574Y-104249853D01*
X108629727Y-104141680D01*
X108864759Y-103984637D01*
X109064637Y-103784759D01*
X109221680Y-103549727D01*
X109329853Y-103288574D01*
X109385000Y-103011335D01*
X109385000Y-102728665D01*
X109329853Y-102451426D01*
X109221680Y-102190273D01*
X109064637Y-101955241D01*
X108864759Y-101755363D01*
X108710000Y-101651957D01*
X108710000Y-96470901D01*
X108751101Y-96448932D01*
X108969608Y-96269608D01*
X109148932Y-96051101D01*
X109282182Y-95801808D01*
X109364236Y-95531309D01*
X109391943Y-95250000D01*
X109364236Y-94968691D01*
X109350708Y-94924093D01*
X111510117Y-92764684D01*
X125276933Y-92764684D01*
X125323015Y-93123198D01*
X125438154Y-93465833D01*
X125557164Y-93688486D01*
X125842020Y-93808374D01*
X126940395Y-92710000D01*
X127299605Y-92710000D01*
X128397980Y-93808374D01*
X128682836Y-93688486D01*
X128843699Y-93364790D01*
X128938322Y-93015931D01*
X128963067Y-92655316D01*
X128916985Y-92296802D01*
X128801846Y-91954167D01*
X128682836Y-91731514D01*
X128397980Y-91611626D01*
X127299605Y-92710000D01*
X126940395Y-92710000D01*
X125842020Y-91611626D01*
X125557164Y-91731514D01*
X125396301Y-92055210D01*
X125301678Y-92404069D01*
X125276933Y-92764684D01*
X111510117Y-92764684D01*
X112842781Y-91432020D01*
X126021626Y-91432020D01*
X127120000Y-92530395D01*
X128140394Y-91510000D01*
X132781928Y-91510000D01*
X132781928Y-93910000D01*
X132794188Y-94034482D01*
X132830498Y-94154180D01*
X132889463Y-94264494D01*
X132968815Y-94361185D01*
X133065506Y-94440537D01*
X133175820Y-94499502D01*
X133295518Y-94535812D01*
X133420000Y-94548072D01*
X135820000Y-94548072D01*
X135944482Y-94535812D01*
X136064180Y-94499502D01*
X136174494Y-94440537D01*
X136271185Y-94361185D01*
X136350537Y-94264494D01*
X136409502Y-94154180D01*
X136445750Y-94034684D01*
X168456933Y-94034684D01*
X168503015Y-94393198D01*
X168618154Y-94735833D01*
X168737164Y-94958486D01*
X169022020Y-95078374D01*
X170120395Y-93980000D01*
X170479605Y-93980000D01*
X171577980Y-95078374D01*
X171862836Y-94958486D01*
X172023699Y-94634790D01*
X172118322Y-94285931D01*
X172143067Y-93925316D01*
X172096985Y-93566802D01*
X171981846Y-93224167D01*
X171862836Y-93001514D01*
X171577980Y-92881626D01*
X170479605Y-93980000D01*
X170120395Y-93980000D01*
X169022020Y-92881626D01*
X168737164Y-93001514D01*
X168576301Y-93325210D01*
X168481678Y-93674069D01*
X168456933Y-94034684D01*
X136445750Y-94034684D01*
X136445812Y-94034482D01*
X136458072Y-93910000D01*
X136458072Y-92702020D01*
X169201626Y-92702020D01*
X170300000Y-93800395D01*
X171398374Y-92702020D01*
X171278486Y-92417164D01*
X170954790Y-92256301D01*
X170605931Y-92161678D01*
X170245316Y-92136933D01*
X169886802Y-92183015D01*
X169544167Y-92298154D01*
X169321514Y-92417164D01*
X169201626Y-92702020D01*
X136458072Y-92702020D01*
X136458072Y-91510000D01*
X136445812Y-91385518D01*
X136409502Y-91265820D01*
X136350537Y-91155506D01*
X136271185Y-91058815D01*
X136174494Y-90979463D01*
X136064180Y-90920498D01*
X135944482Y-90884188D01*
X135820000Y-90871928D01*
X133420000Y-90871928D01*
X133295518Y-90884188D01*
X133175820Y-90920498D01*
X133065506Y-90979463D01*
X132968815Y-91058815D01*
X132889463Y-91155506D01*
X132830498Y-91265820D01*
X132794188Y-91385518D01*
X132781928Y-91510000D01*
X128140394Y-91510000D01*
X128218374Y-91432020D01*
X128098486Y-91147164D01*
X127774790Y-90986301D01*
X127425931Y-90891678D01*
X127065316Y-90866933D01*
X126706802Y-90913015D01*
X126364167Y-91028154D01*
X126141514Y-91147164D01*
X126021626Y-91432020D01*
X112842781Y-91432020D01*
X113976821Y-90297980D01*
X151301626Y-90297980D01*
X151421514Y-90582836D01*
X151745210Y-90743699D01*
X152094069Y-90838322D01*
X152454684Y-90863067D01*
X152813198Y-90816985D01*
X153155833Y-90701846D01*
X153378486Y-90582836D01*
X153498374Y-90297980D01*
X152400000Y-89199605D01*
X151301626Y-90297980D01*
X113976821Y-90297980D01*
X114811004Y-89463798D01*
X114840001Y-89440001D01*
X114921700Y-89340451D01*
X114934974Y-89324277D01*
X115005546Y-89192247D01*
X115030410Y-89110279D01*
X115041207Y-89074684D01*
X150556933Y-89074684D01*
X150603015Y-89433198D01*
X150718154Y-89775833D01*
X150837164Y-89998486D01*
X151122020Y-90118374D01*
X152220395Y-89020000D01*
X152579605Y-89020000D01*
X153677980Y-90118374D01*
X153962836Y-89998486D01*
X154123699Y-89674790D01*
X154218322Y-89325931D01*
X154243067Y-88965316D01*
X154196985Y-88606802D01*
X154081846Y-88264167D01*
X153962836Y-88041514D01*
X153677980Y-87921626D01*
X152579605Y-89020000D01*
X152220395Y-89020000D01*
X151122020Y-87921626D01*
X150837164Y-88041514D01*
X150676301Y-88365210D01*
X150581678Y-88714069D01*
X150556933Y-89074684D01*
X115041207Y-89074684D01*
X115049003Y-89048986D01*
X115060000Y-88937333D01*
X115060000Y-88937324D01*
X115063676Y-88900001D01*
X115060000Y-88862678D01*
X115060000Y-87668245D01*
X115262569Y-87532893D01*
X115472893Y-87322569D01*
X115608245Y-87120000D01*
X118072678Y-87120000D01*
X118110000Y-87123676D01*
X118146211Y-87120109D01*
X118096304Y-87240595D01*
X118045000Y-87498514D01*
X118045000Y-87761486D01*
X118096304Y-88019405D01*
X118196939Y-88262359D01*
X118343038Y-88481013D01*
X118528987Y-88666962D01*
X118747641Y-88813061D01*
X118990595Y-88913696D01*
X119248514Y-88965000D01*
X119511486Y-88965000D01*
X119769405Y-88913696D01*
X120012359Y-88813061D01*
X120231013Y-88666962D01*
X120416962Y-88481013D01*
X120563061Y-88262359D01*
X120663696Y-88019405D01*
X120715000Y-87761486D01*
X120715000Y-87742020D01*
X151301626Y-87742020D01*
X152400000Y-88840395D01*
X153498374Y-87742020D01*
X153378486Y-87457164D01*
X153054790Y-87296301D01*
X152705931Y-87201678D01*
X152345316Y-87176933D01*
X151986802Y-87223015D01*
X151644167Y-87338154D01*
X151421514Y-87457164D01*
X151301626Y-87742020D01*
X120715000Y-87742020D01*
X120715000Y-87498514D01*
X120663696Y-87240595D01*
X120563061Y-86997641D01*
X120416962Y-86778987D01*
X120231013Y-86593038D01*
X120140000Y-86532225D01*
X120140000Y-86187775D01*
X120231013Y-86126962D01*
X120416962Y-85941013D01*
X120563061Y-85722359D01*
X120663696Y-85479405D01*
X120715000Y-85221486D01*
X120715000Y-84958514D01*
X120663696Y-84700595D01*
X120563061Y-84457641D01*
X120416962Y-84238987D01*
X120231013Y-84053038D01*
X120012359Y-83906939D01*
X119769405Y-83806304D01*
X119511486Y-83755000D01*
X119248514Y-83755000D01*
X118990595Y-83806304D01*
X118747641Y-83906939D01*
X118528987Y-84053038D01*
X118343038Y-84238987D01*
X118196939Y-84457641D01*
X118096304Y-84700595D01*
X118045000Y-84958514D01*
X118045000Y-85221486D01*
X118066355Y-85328844D01*
X117795199Y-85600000D01*
X115608245Y-85600000D01*
X115472893Y-85397431D01*
X115262569Y-85187107D01*
X115015253Y-85021856D01*
X114740451Y-84908029D01*
X114448722Y-84850000D01*
X114151278Y-84850000D01*
X113859549Y-84908029D01*
X113584747Y-85021856D01*
X113337431Y-85187107D01*
X113127107Y-85397431D01*
X112961856Y-85644747D01*
X112848029Y-85919549D01*
X112790000Y-86211278D01*
X112790000Y-86508722D01*
X112848029Y-86800451D01*
X112961856Y-87075253D01*
X113127107Y-87322569D01*
X113337431Y-87532893D01*
X113540000Y-87668245D01*
X113540000Y-88585198D01*
X113270000Y-88855198D01*
X113270000Y-88751278D01*
X113211971Y-88459549D01*
X113098144Y-88184747D01*
X112932893Y-87937431D01*
X112722569Y-87727107D01*
X112475253Y-87561856D01*
X112200451Y-87448029D01*
X111908722Y-87390000D01*
X111611278Y-87390000D01*
X111319549Y-87448029D01*
X111044747Y-87561856D01*
X110797431Y-87727107D01*
X110587107Y-87937431D01*
X110421856Y-88184747D01*
X110308029Y-88459549D01*
X110250000Y-88751278D01*
X110250000Y-89048722D01*
X110308029Y-89340451D01*
X110421856Y-89615253D01*
X110587107Y-89862569D01*
X110797431Y-90072893D01*
X111044747Y-90238144D01*
X111319549Y-90351971D01*
X111611278Y-90410000D01*
X111715198Y-90410000D01*
X108275907Y-93849292D01*
X108231309Y-93835764D01*
X108020492Y-93815000D01*
X107879508Y-93815000D01*
X107668691Y-93835764D01*
X107398192Y-93917818D01*
X107148899Y-94051068D01*
X106930392Y-94230392D01*
X106751068Y-94448899D01*
X106617818Y-94698192D01*
X106535764Y-94968691D01*
X106508057Y-95250000D01*
X100905001Y-95250000D01*
X100905001Y-91730323D01*
X100912912Y-91650001D01*
X100881344Y-91329484D01*
X100787853Y-91021286D01*
X100718576Y-90891678D01*
X100636032Y-90737249D01*
X100431715Y-90488287D01*
X100369319Y-90437080D01*
X99232918Y-89300680D01*
X99232914Y-89300675D01*
X98655000Y-88722761D01*
X98655000Y-88689721D01*
X98572953Y-88277244D01*
X98412012Y-87888698D01*
X98178363Y-87539017D01*
X97880983Y-87241637D01*
X97531302Y-87007988D01*
X97142756Y-86847047D01*
X96730279Y-86765000D01*
X96309721Y-86765000D01*
X95897244Y-86847047D01*
X95508698Y-87007988D01*
X95159017Y-87241637D01*
X94861637Y-87539017D01*
X94627988Y-87888698D01*
X94467047Y-88277244D01*
X94404405Y-88592167D01*
X94350010Y-88537772D01*
X94350010Y-85455000D01*
X94397379Y-85455000D01*
X94430498Y-85564180D01*
X94489463Y-85674494D01*
X94568815Y-85771185D01*
X94665506Y-85850537D01*
X94775820Y-85909502D01*
X94895518Y-85945812D01*
X95020000Y-85958072D01*
X98020000Y-85958072D01*
X98144482Y-85945812D01*
X98264180Y-85909502D01*
X98374494Y-85850537D01*
X98471185Y-85771185D01*
X98550537Y-85674494D01*
X98609502Y-85564180D01*
X98645812Y-85444482D01*
X98658072Y-85320000D01*
X98658072Y-83671278D01*
X110250000Y-83671278D01*
X110250000Y-83968722D01*
X110308029Y-84260451D01*
X110421856Y-84535253D01*
X110587107Y-84782569D01*
X110797431Y-84992893D01*
X111044747Y-85158144D01*
X111319549Y-85271971D01*
X111611278Y-85330000D01*
X111908722Y-85330000D01*
X112200451Y-85271971D01*
X112475253Y-85158144D01*
X112722569Y-84992893D01*
X112932893Y-84782569D01*
X113098144Y-84535253D01*
X113211971Y-84260451D01*
X113270000Y-83968722D01*
X113270000Y-83671278D01*
X113211971Y-83379549D01*
X113098144Y-83104747D01*
X112932893Y-82857431D01*
X112722569Y-82647107D01*
X112475253Y-82481856D01*
X112200451Y-82368029D01*
X111908722Y-82310000D01*
X111611278Y-82310000D01*
X111319549Y-82368029D01*
X111044747Y-82481856D01*
X110797431Y-82647107D01*
X110587107Y-82857431D01*
X110421856Y-83104747D01*
X110308029Y-83379549D01*
X110250000Y-83671278D01*
X98658072Y-83671278D01*
X98658072Y-82320000D01*
X98645812Y-82195518D01*
X98609502Y-82075820D01*
X98550537Y-81965506D01*
X98471185Y-81868815D01*
X98374494Y-81789463D01*
X98264180Y-81730498D01*
X98144482Y-81694188D01*
X98020000Y-81681928D01*
X95020000Y-81681928D01*
X94895518Y-81694188D01*
X94775820Y-81730498D01*
X94665506Y-81789463D01*
X94568815Y-81868815D01*
X94489463Y-81965506D01*
X94430498Y-82075820D01*
X94397379Y-82185000D01*
X93100319Y-82185000D01*
X93020000Y-82177089D01*
X92939681Y-82185000D01*
X92939678Y-82185000D01*
X92699484Y-82208657D01*
X92391285Y-82302148D01*
X92107248Y-82453969D01*
X92100000Y-82459917D01*
X92100000Y-75989721D01*
X94385000Y-75989721D01*
X94385000Y-76410279D01*
X94467047Y-76822756D01*
X94627988Y-77211302D01*
X94861637Y-77560983D01*
X95159017Y-77858363D01*
X95508698Y-78092012D01*
X95897244Y-78252953D01*
X96309721Y-78335000D01*
X96730279Y-78335000D01*
X97142756Y-78252953D01*
X97531302Y-78092012D01*
X97880983Y-77858363D01*
X98178363Y-77560983D01*
X98412012Y-77211302D01*
X98572953Y-76822756D01*
X98655000Y-76410279D01*
X98655000Y-75989721D01*
X98572953Y-75577244D01*
X98412012Y-75188698D01*
X98178363Y-74839017D01*
X97880983Y-74541637D01*
X97531302Y-74307988D01*
X97142756Y-74147047D01*
X96730279Y-74065000D01*
X96309721Y-74065000D01*
X95897244Y-74147047D01*
X95508698Y-74307988D01*
X95159017Y-74541637D01*
X94861637Y-74839017D01*
X94627988Y-75188698D01*
X94467047Y-75577244D01*
X94385000Y-75989721D01*
X92100000Y-75989721D01*
X92100000Y-69620000D01*
X94381928Y-69620000D01*
X94381928Y-72620000D01*
X94394188Y-72744482D01*
X94430498Y-72864180D01*
X94489463Y-72974494D01*
X94568815Y-73071185D01*
X94665506Y-73150537D01*
X94775820Y-73209502D01*
X94895518Y-73245812D01*
X95020000Y-73258072D01*
X98020000Y-73258072D01*
X98144482Y-73245812D01*
X98264180Y-73209502D01*
X98374494Y-73150537D01*
X98471185Y-73071185D01*
X98550537Y-72974494D01*
X98609502Y-72864180D01*
X98645812Y-72744482D01*
X98658072Y-72620000D01*
X98658072Y-69850000D01*
X107476606Y-69850000D01*
X107510105Y-70190119D01*
X107609314Y-70517168D01*
X107770421Y-70818578D01*
X107987234Y-71082766D01*
X108210000Y-71265585D01*
X108210001Y-75731928D01*
X108120000Y-75731928D01*
X107995518Y-75744188D01*
X107875820Y-75780498D01*
X107765506Y-75839463D01*
X107668815Y-75918815D01*
X107589463Y-76015506D01*
X107530498Y-76125820D01*
X107494188Y-76245518D01*
X107481928Y-76370000D01*
X107481928Y-78570000D01*
X107494188Y-78694482D01*
X107530498Y-78814180D01*
X107589463Y-78924494D01*
X107668815Y-79021185D01*
X107765506Y-79100537D01*
X107875820Y-79159502D01*
X107995518Y-79195812D01*
X108120000Y-79208072D01*
X110320000Y-79208072D01*
X110444482Y-79195812D01*
X110564180Y-79159502D01*
X110674494Y-79100537D01*
X110771185Y-79021185D01*
X110850537Y-78924494D01*
X110909502Y-78814180D01*
X110945812Y-78694482D01*
X110958072Y-78570000D01*
X110958072Y-77866122D01*
X117690825Y-77866122D01*
X117755425Y-78079094D01*
X117905469Y-78384329D01*
X118112178Y-78654427D01*
X118367609Y-78879008D01*
X118661946Y-79049442D01*
X118983877Y-79159179D01*
X119253000Y-79041600D01*
X119253000Y-77597000D01*
X119507000Y-77597000D01*
X119507000Y-79041600D01*
X119776123Y-79159179D01*
X120098054Y-79049442D01*
X120392391Y-78879008D01*
X120647822Y-78654427D01*
X120854531Y-78384329D01*
X121004575Y-78079094D01*
X121069175Y-77866122D01*
X120951125Y-77597000D01*
X119507000Y-77597000D01*
X119253000Y-77597000D01*
X117808875Y-77597000D01*
X117690825Y-77866122D01*
X110958072Y-77866122D01*
X110958072Y-77073878D01*
X117690825Y-77073878D01*
X117808875Y-77343000D01*
X119253000Y-77343000D01*
X119253000Y-75898400D01*
X119507000Y-75898400D01*
X119507000Y-77343000D01*
X120951125Y-77343000D01*
X121069175Y-77073878D01*
X121004575Y-76860906D01*
X120854531Y-76555671D01*
X120647822Y-76285573D01*
X120392391Y-76060992D01*
X120098054Y-75890558D01*
X119776123Y-75780821D01*
X119507000Y-75898400D01*
X119253000Y-75898400D01*
X118983877Y-75780821D01*
X118661946Y-75890558D01*
X118367609Y-76060992D01*
X118112178Y-76285573D01*
X117905469Y-76555671D01*
X117755425Y-76860906D01*
X117690825Y-77073878D01*
X110958072Y-77073878D01*
X110958072Y-76370000D01*
X110945812Y-76245518D01*
X110909502Y-76125820D01*
X110850537Y-76015506D01*
X110771185Y-75918815D01*
X110674494Y-75839463D01*
X110564180Y-75780498D01*
X110444482Y-75744188D01*
X110320000Y-75731928D01*
X110230000Y-75731928D01*
X110230000Y-71265585D01*
X110452766Y-71082766D01*
X110669579Y-70818578D01*
X110830686Y-70517168D01*
X110929895Y-70190119D01*
X110963394Y-69850000D01*
X110929895Y-69509881D01*
X110830686Y-69182832D01*
X110669579Y-68881422D01*
X110561724Y-68750000D01*
X117641928Y-68750000D01*
X117641928Y-70950000D01*
X117654188Y-71074482D01*
X117690498Y-71194180D01*
X117749463Y-71304494D01*
X117828815Y-71401185D01*
X117925506Y-71480537D01*
X118035820Y-71539502D01*
X118155518Y-71575812D01*
X118280000Y-71588072D01*
X120480000Y-71588072D01*
X120604482Y-71575812D01*
X120724180Y-71539502D01*
X120834494Y-71480537D01*
X120931185Y-71401185D01*
X121010537Y-71304494D01*
X121069502Y-71194180D01*
X121105812Y-71074482D01*
X121118072Y-70950000D01*
X121118072Y-68750000D01*
X121108224Y-68650000D01*
X127701928Y-68650000D01*
X127701928Y-71050000D01*
X127714188Y-71174482D01*
X127750498Y-71294180D01*
X127809463Y-71404494D01*
X127888815Y-71501185D01*
X127985506Y-71580537D01*
X128095820Y-71639502D01*
X128215518Y-71675812D01*
X128340000Y-71688072D01*
X128530001Y-71688072D01*
X128530001Y-71750383D01*
X128525114Y-71800000D01*
X128544615Y-71997994D01*
X128602368Y-72188379D01*
X128602369Y-72188380D01*
X128696154Y-72363840D01*
X128822368Y-72517633D01*
X128860901Y-72549256D01*
X138270744Y-81959100D01*
X138302367Y-81997633D01*
X138456160Y-82123847D01*
X138598656Y-82200012D01*
X138680392Y-82299608D01*
X138898899Y-82478932D01*
X139148192Y-82612182D01*
X139418691Y-82694236D01*
X139629508Y-82715000D01*
X139770492Y-82715000D01*
X139981309Y-82694236D01*
X140251808Y-82612182D01*
X140501101Y-82478932D01*
X140719608Y-82299608D01*
X140898932Y-82081101D01*
X141032182Y-81831808D01*
X141114236Y-81561309D01*
X141141943Y-81280000D01*
X141128023Y-81138665D01*
X145885000Y-81138665D01*
X145885000Y-81421335D01*
X145940147Y-81698574D01*
X146048320Y-81959727D01*
X146205363Y-82194759D01*
X146405241Y-82394637D01*
X146640273Y-82551680D01*
X146901426Y-82659853D01*
X147178665Y-82715000D01*
X147461335Y-82715000D01*
X147738574Y-82659853D01*
X147999727Y-82551680D01*
X148002241Y-82550000D01*
X158578057Y-82550000D01*
X158605764Y-82831309D01*
X158687818Y-83101808D01*
X158821068Y-83351101D01*
X159000392Y-83569608D01*
X159218899Y-83748932D01*
X159468192Y-83882182D01*
X159738691Y-83964236D01*
X159949508Y-83985000D01*
X160090492Y-83985000D01*
X160301309Y-83964236D01*
X160571808Y-83882182D01*
X160821101Y-83748932D01*
X161039608Y-83569608D01*
X161218932Y-83351101D01*
X161352182Y-83101808D01*
X161434236Y-82831309D01*
X161461943Y-82550000D01*
X161448023Y-82408665D01*
X166205000Y-82408665D01*
X166205000Y-82691335D01*
X166260147Y-82968574D01*
X166368320Y-83229727D01*
X166525363Y-83464759D01*
X166630000Y-83569396D01*
X166630001Y-85720383D01*
X166625114Y-85770000D01*
X166644615Y-85967994D01*
X166702368Y-86158379D01*
X166702369Y-86158380D01*
X166796154Y-86333840D01*
X166922368Y-86487633D01*
X166960901Y-86519256D01*
X175100739Y-94659094D01*
X175132367Y-94697633D01*
X175286160Y-94823847D01*
X175461620Y-94917632D01*
X175652006Y-94975385D01*
X175800392Y-94990000D01*
X175800394Y-94990000D01*
X175849999Y-94994886D01*
X175899604Y-94990000D01*
X175961928Y-94990000D01*
X175961928Y-95180000D01*
X175974188Y-95304482D01*
X176010498Y-95424180D01*
X176069463Y-95534494D01*
X176148815Y-95631185D01*
X176245506Y-95710537D01*
X176355820Y-95769502D01*
X176475518Y-95805812D01*
X176600000Y-95818072D01*
X176790000Y-95818072D01*
X176790001Y-109170382D01*
X176785114Y-109220000D01*
X176804615Y-109417994D01*
X176862368Y-109608379D01*
X176915107Y-109707047D01*
X176956154Y-109783840D01*
X177082368Y-109937633D01*
X177120901Y-109969256D01*
X178287586Y-111135942D01*
X178287047Y-111137244D01*
X178205000Y-111549721D01*
X178205000Y-111970279D01*
X178287047Y-112382756D01*
X178447988Y-112771302D01*
X178681637Y-113120983D01*
X178979017Y-113418363D01*
X179328698Y-113652012D01*
X179717244Y-113812953D01*
X180129721Y-113895000D01*
X180550279Y-113895000D01*
X180962756Y-113812953D01*
X181351302Y-113652012D01*
X181700983Y-113418363D01*
X181998363Y-113120983D01*
X182232012Y-112771302D01*
X182392953Y-112382756D01*
X182475000Y-111970279D01*
X182475000Y-111549721D01*
X182392953Y-111137244D01*
X182232012Y-110748698D01*
X181998363Y-110399017D01*
X181700983Y-110101637D01*
X181351302Y-109867988D01*
X180962756Y-109707047D01*
X180550279Y-109625000D01*
X180129721Y-109625000D01*
X179717244Y-109707047D01*
X179715942Y-109707586D01*
X178810000Y-108801645D01*
X178810000Y-95818072D01*
X179000000Y-95818072D01*
X179124482Y-95805812D01*
X179244180Y-95769502D01*
X179354494Y-95710537D01*
X179451185Y-95631185D01*
X179530537Y-95534494D01*
X179589502Y-95424180D01*
X179625812Y-95304482D01*
X179638072Y-95180000D01*
X179638072Y-92780000D01*
X179625812Y-92655518D01*
X179589502Y-92535820D01*
X179530537Y-92425506D01*
X179451185Y-92328815D01*
X179354494Y-92249463D01*
X179244180Y-92190498D01*
X179124482Y-92154188D01*
X179000000Y-92141928D01*
X176600000Y-92141928D01*
X176475518Y-92154188D01*
X176355820Y-92190498D01*
X176245506Y-92249463D01*
X176148815Y-92328815D01*
X176069463Y-92425506D01*
X176010498Y-92535820D01*
X175974188Y-92655518D01*
X175972367Y-92674012D01*
X168650000Y-85351645D01*
X168650000Y-83569396D01*
X168754637Y-83464759D01*
X168911680Y-83229727D01*
X169019853Y-82968574D01*
X169075000Y-82691335D01*
X169075000Y-82408665D01*
X169019853Y-82131426D01*
X168911680Y-81870273D01*
X168754637Y-81635241D01*
X168554759Y-81435363D01*
X168319727Y-81278320D01*
X168058574Y-81170147D01*
X167781335Y-81115000D01*
X167498665Y-81115000D01*
X167221426Y-81170147D01*
X166960273Y-81278320D01*
X166725241Y-81435363D01*
X166525363Y-81635241D01*
X166368320Y-81870273D01*
X166260147Y-82131426D01*
X166205000Y-82408665D01*
X161448023Y-82408665D01*
X161434236Y-82268691D01*
X161352182Y-81998192D01*
X161218932Y-81748899D01*
X161039608Y-81530392D01*
X160821101Y-81351068D01*
X160571808Y-81217818D01*
X160301309Y-81135764D01*
X160090492Y-81115000D01*
X159949508Y-81115000D01*
X159738691Y-81135764D01*
X159468192Y-81217818D01*
X159218899Y-81351068D01*
X159000392Y-81530392D01*
X158821068Y-81748899D01*
X158687818Y-81998192D01*
X158605764Y-82268691D01*
X158578057Y-82550000D01*
X148002241Y-82550000D01*
X148234759Y-82394637D01*
X148434637Y-82194759D01*
X148591680Y-81959727D01*
X148699853Y-81698574D01*
X148755000Y-81421335D01*
X148755000Y-81138665D01*
X148699853Y-80861426D01*
X148591680Y-80600273D01*
X148434637Y-80365241D01*
X148234759Y-80165363D01*
X147999727Y-80008320D01*
X147738574Y-79900147D01*
X147461335Y-79845000D01*
X147178665Y-79845000D01*
X146901426Y-79900147D01*
X146640273Y-80008320D01*
X146405241Y-80165363D01*
X146205363Y-80365241D01*
X146048320Y-80600273D01*
X145940147Y-80861426D01*
X145885000Y-81138665D01*
X141128023Y-81138665D01*
X141114236Y-80998691D01*
X141032182Y-80728192D01*
X140898932Y-80478899D01*
X140719608Y-80260392D01*
X140501101Y-80081068D01*
X140251808Y-79947818D01*
X139981309Y-79865764D01*
X139770492Y-79845000D01*
X139629508Y-79845000D01*
X139418691Y-79865764D01*
X139148192Y-79947818D01*
X139127327Y-79958971D01*
X134168356Y-75000000D01*
X170881928Y-75000000D01*
X170881928Y-77400000D01*
X170894188Y-77524482D01*
X170930498Y-77644180D01*
X170989463Y-77754494D01*
X171068815Y-77851185D01*
X171165506Y-77930537D01*
X171275820Y-77989502D01*
X171395518Y-78025812D01*
X171520000Y-78038072D01*
X173920000Y-78038072D01*
X174044482Y-78025812D01*
X174164180Y-77989502D01*
X174274494Y-77930537D01*
X174371185Y-77851185D01*
X174450537Y-77754494D01*
X174509502Y-77644180D01*
X174545812Y-77524482D01*
X174558072Y-77400000D01*
X174558072Y-75000000D01*
X174545812Y-74875518D01*
X174509502Y-74755820D01*
X174450537Y-74645506D01*
X174371185Y-74548815D01*
X174274494Y-74469463D01*
X174164180Y-74410498D01*
X174044482Y-74374188D01*
X173920000Y-74361928D01*
X171520000Y-74361928D01*
X171395518Y-74374188D01*
X171275820Y-74410498D01*
X171165506Y-74469463D01*
X171068815Y-74548815D01*
X170989463Y-74645506D01*
X170930498Y-74755820D01*
X170894188Y-74875518D01*
X170881928Y-75000000D01*
X134168356Y-75000000D01*
X131646336Y-72477980D01*
X171621626Y-72477980D01*
X171741514Y-72762836D01*
X172065210Y-72923699D01*
X172414069Y-73018322D01*
X172774684Y-73043067D01*
X173133198Y-72996985D01*
X173475833Y-72881846D01*
X173698486Y-72762836D01*
X173818374Y-72477980D01*
X172720000Y-71379605D01*
X171621626Y-72477980D01*
X131646336Y-72477980D01*
X130845988Y-71677633D01*
X130864482Y-71675812D01*
X130984180Y-71639502D01*
X131094494Y-71580537D01*
X131191185Y-71501185D01*
X131270537Y-71404494D01*
X131329502Y-71294180D01*
X131365812Y-71174482D01*
X131378072Y-71050000D01*
X131378072Y-69669268D01*
X135205000Y-69669268D01*
X135205000Y-70030732D01*
X135275518Y-70385250D01*
X135413844Y-70719199D01*
X135614662Y-71019744D01*
X135870256Y-71275338D01*
X136170801Y-71476156D01*
X136504750Y-71614482D01*
X136859268Y-71685000D01*
X137220732Y-71685000D01*
X137575250Y-71614482D01*
X137909199Y-71476156D01*
X138209744Y-71275338D01*
X138465338Y-71019744D01*
X138666156Y-70719199D01*
X138804482Y-70385250D01*
X138875000Y-70030732D01*
X138875000Y-69669268D01*
X138804482Y-69314750D01*
X138666156Y-68980801D01*
X138465338Y-68680256D01*
X138435082Y-68650000D01*
X149291928Y-68650000D01*
X149291928Y-71050000D01*
X149304188Y-71174482D01*
X149340498Y-71294180D01*
X149399463Y-71404494D01*
X149478815Y-71501185D01*
X149575506Y-71580537D01*
X149685820Y-71639502D01*
X149805518Y-71675812D01*
X149930000Y-71688072D01*
X152330000Y-71688072D01*
X152454482Y-71675812D01*
X152574180Y-71639502D01*
X152684494Y-71580537D01*
X152781185Y-71501185D01*
X152860537Y-71404494D01*
X152919502Y-71294180D01*
X152955812Y-71174482D01*
X152960391Y-71127980D01*
X157531626Y-71127980D01*
X157651514Y-71412836D01*
X157975210Y-71573699D01*
X158324069Y-71668322D01*
X158684684Y-71693067D01*
X159043198Y-71646985D01*
X159385833Y-71531846D01*
X159608486Y-71412836D01*
X159675047Y-71254684D01*
X170876933Y-71254684D01*
X170923015Y-71613198D01*
X171038154Y-71955833D01*
X171157164Y-72178486D01*
X171442020Y-72298374D01*
X172540395Y-71200000D01*
X172899605Y-71200000D01*
X173997980Y-72298374D01*
X174282836Y-72178486D01*
X174443699Y-71854790D01*
X174538322Y-71505931D01*
X174563067Y-71145316D01*
X174516985Y-70786802D01*
X174401846Y-70444167D01*
X174282836Y-70221514D01*
X173997980Y-70101626D01*
X172899605Y-71200000D01*
X172540395Y-71200000D01*
X171442020Y-70101626D01*
X171157164Y-70221514D01*
X170996301Y-70545210D01*
X170901678Y-70894069D01*
X170876933Y-71254684D01*
X159675047Y-71254684D01*
X159728374Y-71127980D01*
X158630000Y-70029605D01*
X157531626Y-71127980D01*
X152960391Y-71127980D01*
X152968072Y-71050000D01*
X152968072Y-69904684D01*
X156786933Y-69904684D01*
X156833015Y-70263198D01*
X156948154Y-70605833D01*
X157067164Y-70828486D01*
X157352020Y-70948374D01*
X158450395Y-69850000D01*
X158809605Y-69850000D01*
X159907980Y-70948374D01*
X160192836Y-70828486D01*
X160353699Y-70504790D01*
X160448322Y-70155931D01*
X160464372Y-69922020D01*
X171621626Y-69922020D01*
X172720000Y-71020395D01*
X173818374Y-69922020D01*
X173698486Y-69637164D01*
X173374790Y-69476301D01*
X173025931Y-69381678D01*
X172665316Y-69356933D01*
X172306802Y-69403015D01*
X171964167Y-69518154D01*
X171741514Y-69637164D01*
X171621626Y-69922020D01*
X160464372Y-69922020D01*
X160473067Y-69795316D01*
X160426985Y-69436802D01*
X160311846Y-69094167D01*
X160192836Y-68871514D01*
X159907980Y-68751626D01*
X158809605Y-69850000D01*
X158450395Y-69850000D01*
X157352020Y-68751626D01*
X157067164Y-68871514D01*
X156906301Y-69195210D01*
X156811678Y-69544069D01*
X156786933Y-69904684D01*
X152968072Y-69904684D01*
X152968072Y-68650000D01*
X152960392Y-68572020D01*
X157531626Y-68572020D01*
X158630000Y-69670395D01*
X159728374Y-68572020D01*
X159608486Y-68287164D01*
X159284790Y-68126301D01*
X158935931Y-68031678D01*
X158575316Y-68006933D01*
X158216802Y-68053015D01*
X157874167Y-68168154D01*
X157651514Y-68287164D01*
X157531626Y-68572020D01*
X152960392Y-68572020D01*
X152955812Y-68525518D01*
X152919502Y-68405820D01*
X152860537Y-68295506D01*
X152781185Y-68198815D01*
X152684494Y-68119463D01*
X152574180Y-68060498D01*
X152454482Y-68024188D01*
X152330000Y-68011928D01*
X149930000Y-68011928D01*
X149805518Y-68024188D01*
X149685820Y-68060498D01*
X149575506Y-68119463D01*
X149478815Y-68198815D01*
X149399463Y-68295506D01*
X149340498Y-68405820D01*
X149304188Y-68525518D01*
X149291928Y-68650000D01*
X138435082Y-68650000D01*
X138209744Y-68424662D01*
X137909199Y-68223844D01*
X137575250Y-68085518D01*
X137220732Y-68015000D01*
X136859268Y-68015000D01*
X136504750Y-68085518D01*
X136170801Y-68223844D01*
X135870256Y-68424662D01*
X135614662Y-68680256D01*
X135413844Y-68980801D01*
X135275518Y-69314750D01*
X135205000Y-69669268D01*
X131378072Y-69669268D01*
X131378072Y-68650000D01*
X131365812Y-68525518D01*
X131329502Y-68405820D01*
X131270537Y-68295506D01*
X131191185Y-68198815D01*
X131094494Y-68119463D01*
X130984180Y-68060498D01*
X130864482Y-68024188D01*
X130740000Y-68011928D01*
X128340000Y-68011928D01*
X128215518Y-68024188D01*
X128095820Y-68060498D01*
X127985506Y-68119463D01*
X127888815Y-68198815D01*
X127809463Y-68295506D01*
X127750498Y-68405820D01*
X127714188Y-68525518D01*
X127701928Y-68650000D01*
X121108224Y-68650000D01*
X121105812Y-68625518D01*
X121069502Y-68505820D01*
X121010537Y-68395506D01*
X120931185Y-68298815D01*
X120834494Y-68219463D01*
X120724180Y-68160498D01*
X120604482Y-68124188D01*
X120480000Y-68111928D01*
X118280000Y-68111928D01*
X118155518Y-68124188D01*
X118035820Y-68160498D01*
X117925506Y-68219463D01*
X117828815Y-68298815D01*
X117749463Y-68395506D01*
X117690498Y-68505820D01*
X117654188Y-68625518D01*
X117641928Y-68750000D01*
X110561724Y-68750000D01*
X110452766Y-68617234D01*
X110188578Y-68400421D01*
X109887168Y-68239314D01*
X109560119Y-68140105D01*
X109305225Y-68115000D01*
X109134775Y-68115000D01*
X108879881Y-68140105D01*
X108552832Y-68239314D01*
X108251422Y-68400421D01*
X107987234Y-68617234D01*
X107770421Y-68881422D01*
X107609314Y-69182832D01*
X107510105Y-69509881D01*
X107476606Y-69850000D01*
X98658072Y-69850000D01*
X98658072Y-69620000D01*
X98645812Y-69495518D01*
X98609502Y-69375820D01*
X98550537Y-69265506D01*
X98471185Y-69168815D01*
X98374494Y-69089463D01*
X98264180Y-69030498D01*
X98144482Y-68994188D01*
X98020000Y-68981928D01*
X95020000Y-68981928D01*
X94895518Y-68994188D01*
X94775820Y-69030498D01*
X94665506Y-69089463D01*
X94568815Y-69168815D01*
X94489463Y-69265506D01*
X94430498Y-69375820D01*
X94394188Y-69495518D01*
X94381928Y-69620000D01*
X92100000Y-69620000D01*
X92100000Y-62259392D01*
X92138970Y-61822738D01*
X92385000Y-61822738D01*
X92385000Y-62637262D01*
X92543906Y-63436135D01*
X92855611Y-64188657D01*
X93308136Y-64865909D01*
X93884091Y-65441864D01*
X94561343Y-65894389D01*
X95313865Y-66206094D01*
X96112738Y-66365000D01*
X96927262Y-66365000D01*
X97726135Y-66206094D01*
X98478657Y-65894389D01*
X99155909Y-65441864D01*
X99731864Y-64865909D01*
X100184389Y-64188657D01*
X100496094Y-63436135D01*
X100655000Y-62637262D01*
X100655000Y-61822738D01*
X176205000Y-61822738D01*
X176205000Y-62637262D01*
X176363906Y-63436135D01*
X176675611Y-64188657D01*
X177128136Y-64865909D01*
X177704091Y-65441864D01*
X178381343Y-65894389D01*
X179133865Y-66206094D01*
X179932738Y-66365000D01*
X180747262Y-66365000D01*
X181546135Y-66206094D01*
X182298657Y-65894389D01*
X182975909Y-65441864D01*
X183551864Y-64865909D01*
X184004389Y-64188657D01*
X184316094Y-63436135D01*
X184475000Y-62637262D01*
X184475000Y-61822738D01*
X184316094Y-61023865D01*
X184004389Y-60271343D01*
X183551864Y-59594091D01*
X182975909Y-59018136D01*
X182298657Y-58565611D01*
X181546135Y-58253906D01*
X180747262Y-58095000D01*
X179932738Y-58095000D01*
X179133865Y-58253906D01*
X178381343Y-58565611D01*
X177704091Y-59018136D01*
X177128136Y-59594091D01*
X176675611Y-60271343D01*
X176363906Y-61023865D01*
X176205000Y-61822738D01*
X100655000Y-61822738D01*
X100496094Y-61023865D01*
X100184389Y-60271343D01*
X99731864Y-59594091D01*
X99155909Y-59018136D01*
X98478657Y-58565611D01*
X97726135Y-58253906D01*
X96927262Y-58095000D01*
X96112738Y-58095000D01*
X95313865Y-58253906D01*
X94561343Y-58565611D01*
X93884091Y-59018136D01*
X93308136Y-59594091D01*
X92855611Y-60271343D01*
X92543906Y-61023865D01*
X92385000Y-61822738D01*
X92138970Y-61822738D01*
X92172437Y-61447751D01*
X92379672Y-60690226D01*
X92717777Y-59981375D01*
X93176067Y-59343596D01*
X93740055Y-58797054D01*
X94391913Y-58359023D01*
X95111038Y-58043349D01*
X95879768Y-57858794D01*
X96544207Y-57810000D01*
X180310608Y-57810000D01*
X181122249Y-57882437D01*
M02*
