M48
; DRILL file {KiCad (5.1.4-0-10_14)} date Tuesday, September 24, 2019 at 11:39:02 AM
; FORMAT={-:-/ absolute / inch / decimal}
; #@! TF.CreationDate,2019-09-24T11:39:02-07:00
; #@! TF.GenerationSoftware,Kicad,Pcbnew,(5.1.4-0-10_14)
; #@! TF.FileFunction,Plated,1,2,PTH
FMAT,2
INCH
T1C0.0276
T2C0.0315
T3C0.0433
T4C0.0472
T5C0.0598
T6C0.1378
%
G90
G05
T1
X4.4Y-3.3
X4.4Y-3.5
X4.5Y-3.4
T2
X6.3Y-3.25
X6.6Y-3.25
X4.25Y-3.75
X4.55Y-3.75
X5.5Y-3.2
X5.8Y-3.2
X4.7Y-3.35
X4.7Y-3.45
X4.25Y-4.05
X4.55Y-4.05
T3
X4.3Y-2.75
X4.7Y-2.75
X4.3Y-3.05
X4.7Y-3.05
T4
X6.7047Y-3.7
X7.0Y-3.7
X5.95Y-2.75
X6.2453Y-2.75
X5.75Y-4.65
X6.25Y-4.65
X6.8Y-2.8031
X6.8Y-3.0
X5.0047Y-3.65
X5.3Y-3.65
X4.65Y-4.65
X5.15Y-4.65
X6.0Y-3.5047
X6.0Y-3.8
X5.1Y-2.75
X5.3953Y-2.75
T5
X3.8Y-3.3
X3.8Y-3.5
X3.8Y-2.8
X3.8Y-3.0
X7.1Y-4.4
X7.1Y-4.6
X7.1Y-4.8
X3.8Y-4.3
X3.8Y-4.5
X3.8Y-4.0
X3.8Y-4.8
X3.8Y-5.0
X3.8Y-3.8
T6
X3.8Y-2.45
X7.1Y-2.45
X3.8Y-5.3
X7.1Y-5.3
T0
M30
