M48
;DRILL file {KiCad 4.0.7} date Sunday, September 23, 2018 'PMt' 01:21:44 PM
;FORMAT={-:-/ absolute / metric / decimal}
FMAT,2
METRIC,TZ
T1C0.800
T2C1.200
T3C1.300
T4C1.520
T5C3.048
%
G90
G05
M71
T1
X93.98Y-102.87
X101.6Y-102.87
X119.46Y-85.09
X124.46Y-85.09
X124.46Y-91.44
X124.46Y-99.06
X129.54Y-83.82
X129.54Y-86.36
X129.54Y-88.9
X130.81Y-92.71
X130.81Y-95.25
X130.81Y-97.79
T2
X104.14Y-76.2
X104.14Y-83.7
X105.41Y-90.17
X105.41Y-105.41
X113.11Y-93.98
X114.3Y-73.66
X114.3Y-80.01
X118.11Y-93.98
X129.54Y-73.66
X129.54Y-80.01
X137.16Y-83.82
X137.16Y-99.06
X142.24Y-83.82
X142.24Y-99.06
T3
X133.51Y-76.16
X143.51Y-73.66
X143.51Y-78.66
T4
X97.79Y-91.44
X97.79Y-96.52
X115.57Y-105.41
X120.65Y-105.41
X125.73Y-105.41
X137.16Y-105.41
X142.24Y-105.41
T5
X93.98Y-72.39
X93.98Y-109.22
X148.59Y-72.39
X148.59Y-109.22
T0
M30
