G04 #@! TF.FileFunction,Copper,L2,Bot,Signal*
%FSLAX46Y46*%
G04 Gerber Fmt 4.6, Leading zero omitted, Abs format (unit mm)*
G04 Created by KiCad (PCBNEW 4.0.7) date Wednesday, September 26, 2018 'PMt' 01:51:42 PM*
%MOMM*%
%LPD*%
G01*
G04 APERTURE LIST*
%ADD10C,0.100000*%
%ADD11C,4.064000*%
%ADD12C,1.600000*%
%ADD13R,2.400000X2.400000*%
%ADD14C,2.400000*%
%ADD15R,1.600000X1.600000*%
%ADD16O,1.600000X1.600000*%
%ADD17R,3.000000X3.000000*%
%ADD18C,3.000000*%
%ADD19C,1.520000*%
%ADD20R,1.520000X1.520000*%
%ADD21O,2.400000X2.400000*%
%ADD22C,2.340000*%
%ADD23C,0.500000*%
G04 APERTURE END LIST*
D10*
D11*
X148590000Y-109220000D03*
X148590000Y-72390000D03*
X93980000Y-72390000D03*
D12*
X124460000Y-85090000D03*
X119460000Y-85090000D03*
D13*
X104140000Y-76200000D03*
D14*
X104140000Y-83700000D03*
D13*
X118110000Y-93980000D03*
D14*
X113110000Y-93980000D03*
D15*
X124460000Y-99060000D03*
D16*
X124460000Y-91440000D03*
D15*
X93980000Y-102870000D03*
D16*
X101600000Y-102870000D03*
D17*
X142240000Y-105410000D03*
D18*
X137160000Y-105410000D03*
D17*
X115570000Y-105410000D03*
D18*
X120650000Y-105410000D03*
X125730000Y-105410000D03*
D17*
X97790000Y-91440000D03*
D18*
X97790000Y-96520000D03*
D19*
X129540000Y-86360000D03*
X129540000Y-83820000D03*
D20*
X129540000Y-88900000D03*
D19*
X130810000Y-95250000D03*
X130810000Y-92710000D03*
D20*
X130810000Y-97790000D03*
D14*
X142240000Y-83820000D03*
D21*
X142240000Y-99060000D03*
D14*
X137160000Y-99060000D03*
D21*
X137160000Y-83820000D03*
D14*
X129540000Y-73660000D03*
D21*
X114300000Y-73660000D03*
D14*
X105410000Y-105410000D03*
D21*
X105410000Y-90170000D03*
D22*
X143510000Y-78660000D03*
X133510000Y-76160000D03*
X143510000Y-73660000D03*
D11*
X93980000Y-109220000D03*
D14*
X114300000Y-80010000D03*
D21*
X129540000Y-80010000D03*
D23*
X129540000Y-83820000D02*
X137160000Y-83820000D01*
X124460000Y-85090000D02*
X125730000Y-85090000D01*
X127000000Y-83820000D02*
X129540000Y-83820000D01*
X125730000Y-85090000D02*
X127000000Y-83820000D01*
X124460000Y-99060000D02*
X123190000Y-99060000D01*
X123190000Y-99060000D02*
X118110000Y-93980000D01*
X119460000Y-85090000D02*
X119460000Y-85170000D01*
X119460000Y-85170000D02*
X123190000Y-88900000D01*
X123190000Y-88900000D02*
X129540000Y-88900000D01*
X115570000Y-105410000D02*
X115570000Y-100330000D01*
X118110000Y-97790000D02*
X118110000Y-93980000D01*
X115570000Y-100330000D02*
X118110000Y-97790000D01*
X119460000Y-85090000D02*
X119460000Y-92630000D01*
X119460000Y-92630000D02*
X118110000Y-93980000D01*
X97790000Y-91440000D02*
X99060000Y-91440000D01*
X99060000Y-91440000D02*
X105410000Y-97790000D01*
X114300000Y-97790000D02*
X118110000Y-93980000D01*
X105410000Y-97790000D02*
X114300000Y-97790000D01*
X97790000Y-91440000D02*
X97790000Y-82550000D01*
X97790000Y-82550000D02*
X104140000Y-76200000D01*
X130810000Y-97790000D02*
X127000000Y-101600000D01*
X124460000Y-101600000D02*
X120650000Y-105410000D01*
X127000000Y-101600000D02*
X124460000Y-101600000D01*
M02*
