G04 #@! TF.FileFunction,Legend,Top*
%FSLAX46Y46*%
G04 Gerber Fmt 4.6, Leading zero omitted, Abs format (unit mm)*
G04 Created by KiCad (PCBNEW 4.0.7) date Sunday, September 23, 2018 'PMt' 01:21:38 PM*
%MOMM*%
%LPD*%
G01*
G04 APERTURE LIST*
%ADD10C,0.100000*%
%ADD11C,0.250000*%
%ADD12C,0.300000*%
%ADD13C,0.120000*%
%ADD14C,0.150000*%
G04 APERTURE END LIST*
D10*
D11*
X98782857Y-108273571D02*
X98925714Y-108321190D01*
X98973333Y-108368810D01*
X99020952Y-108464048D01*
X99020952Y-108606905D01*
X98973333Y-108702143D01*
X98925714Y-108749762D01*
X98830476Y-108797381D01*
X98449523Y-108797381D01*
X98449523Y-107797381D01*
X98782857Y-107797381D01*
X98878095Y-107845000D01*
X98925714Y-107892619D01*
X98973333Y-107987857D01*
X98973333Y-108083095D01*
X98925714Y-108178333D01*
X98878095Y-108225952D01*
X98782857Y-108273571D01*
X98449523Y-108273571D01*
X99592380Y-108797381D02*
X99497142Y-108749762D01*
X99449523Y-108702143D01*
X99401904Y-108606905D01*
X99401904Y-108321190D01*
X99449523Y-108225952D01*
X99497142Y-108178333D01*
X99592380Y-108130714D01*
X99735238Y-108130714D01*
X99830476Y-108178333D01*
X99878095Y-108225952D01*
X99925714Y-108321190D01*
X99925714Y-108606905D01*
X99878095Y-108702143D01*
X99830476Y-108749762D01*
X99735238Y-108797381D01*
X99592380Y-108797381D01*
X100782857Y-108797381D02*
X100782857Y-108273571D01*
X100735238Y-108178333D01*
X100640000Y-108130714D01*
X100449523Y-108130714D01*
X100354285Y-108178333D01*
X100782857Y-108749762D02*
X100687619Y-108797381D01*
X100449523Y-108797381D01*
X100354285Y-108749762D01*
X100306666Y-108654524D01*
X100306666Y-108559286D01*
X100354285Y-108464048D01*
X100449523Y-108416429D01*
X100687619Y-108416429D01*
X100782857Y-108368810D01*
X101259047Y-108797381D02*
X101259047Y-108130714D01*
X101259047Y-108321190D02*
X101306666Y-108225952D01*
X101354285Y-108178333D01*
X101449523Y-108130714D01*
X101544762Y-108130714D01*
X102306667Y-108797381D02*
X102306667Y-107797381D01*
X102306667Y-108749762D02*
X102211429Y-108797381D01*
X102020952Y-108797381D01*
X101925714Y-108749762D01*
X101878095Y-108702143D01*
X101830476Y-108606905D01*
X101830476Y-108321190D01*
X101878095Y-108225952D01*
X101925714Y-108178333D01*
X102020952Y-108130714D01*
X102211429Y-108130714D01*
X102306667Y-108178333D01*
X103830477Y-109178333D02*
X103782857Y-109130714D01*
X103687619Y-108987857D01*
X103640000Y-108892619D01*
X103592381Y-108749762D01*
X103544762Y-108511667D01*
X103544762Y-108321190D01*
X103592381Y-108083095D01*
X103640000Y-107940238D01*
X103687619Y-107845000D01*
X103782857Y-107702143D01*
X103830477Y-107654524D01*
X104640001Y-108749762D02*
X104544763Y-108797381D01*
X104354286Y-108797381D01*
X104259048Y-108749762D01*
X104211429Y-108702143D01*
X104163810Y-108606905D01*
X104163810Y-108321190D01*
X104211429Y-108225952D01*
X104259048Y-108178333D01*
X104354286Y-108130714D01*
X104544763Y-108130714D01*
X104640001Y-108178333D01*
X104973334Y-109178333D02*
X105020953Y-109130714D01*
X105116191Y-108987857D01*
X105163810Y-108892619D01*
X105211429Y-108749762D01*
X105259048Y-108511667D01*
X105259048Y-108321190D01*
X105211429Y-108083095D01*
X105163810Y-107940238D01*
X105116191Y-107845000D01*
X105020953Y-107702143D01*
X104973334Y-107654524D01*
X106449525Y-107892619D02*
X106497144Y-107845000D01*
X106592382Y-107797381D01*
X106830478Y-107797381D01*
X106925716Y-107845000D01*
X106973335Y-107892619D01*
X107020954Y-107987857D01*
X107020954Y-108083095D01*
X106973335Y-108225952D01*
X106401906Y-108797381D01*
X107020954Y-108797381D01*
X107640001Y-107797381D02*
X107735240Y-107797381D01*
X107830478Y-107845000D01*
X107878097Y-107892619D01*
X107925716Y-107987857D01*
X107973335Y-108178333D01*
X107973335Y-108416429D01*
X107925716Y-108606905D01*
X107878097Y-108702143D01*
X107830478Y-108749762D01*
X107735240Y-108797381D01*
X107640001Y-108797381D01*
X107544763Y-108749762D01*
X107497144Y-108702143D01*
X107449525Y-108606905D01*
X107401906Y-108416429D01*
X107401906Y-108178333D01*
X107449525Y-107987857D01*
X107497144Y-107892619D01*
X107544763Y-107845000D01*
X107640001Y-107797381D01*
X108925716Y-108797381D02*
X108354287Y-108797381D01*
X108640001Y-108797381D02*
X108640001Y-107797381D01*
X108544763Y-107940238D01*
X108449525Y-108035476D01*
X108354287Y-108083095D01*
X109497144Y-108225952D02*
X109401906Y-108178333D01*
X109354287Y-108130714D01*
X109306668Y-108035476D01*
X109306668Y-107987857D01*
X109354287Y-107892619D01*
X109401906Y-107845000D01*
X109497144Y-107797381D01*
X109687621Y-107797381D01*
X109782859Y-107845000D01*
X109830478Y-107892619D01*
X109878097Y-107987857D01*
X109878097Y-108035476D01*
X109830478Y-108130714D01*
X109782859Y-108178333D01*
X109687621Y-108225952D01*
X109497144Y-108225952D01*
X109401906Y-108273571D01*
X109354287Y-108321190D01*
X109306668Y-108416429D01*
X109306668Y-108606905D01*
X109354287Y-108702143D01*
X109401906Y-108749762D01*
X109497144Y-108797381D01*
X109687621Y-108797381D01*
X109782859Y-108749762D01*
X109830478Y-108702143D01*
X109878097Y-108606905D01*
X109878097Y-108416429D01*
X109830478Y-108321190D01*
X109782859Y-108273571D01*
X109687621Y-108225952D01*
X98544762Y-109547381D02*
X98544762Y-110261667D01*
X98497142Y-110404524D01*
X98401904Y-110499762D01*
X98259047Y-110547381D01*
X98163809Y-110547381D01*
X99449524Y-110547381D02*
X99449524Y-110023571D01*
X99401905Y-109928333D01*
X99306667Y-109880714D01*
X99116190Y-109880714D01*
X99020952Y-109928333D01*
X99449524Y-110499762D02*
X99354286Y-110547381D01*
X99116190Y-110547381D01*
X99020952Y-110499762D01*
X98973333Y-110404524D01*
X98973333Y-110309286D01*
X99020952Y-110214048D01*
X99116190Y-110166429D01*
X99354286Y-110166429D01*
X99449524Y-110118810D01*
X99878095Y-110499762D02*
X99973333Y-110547381D01*
X100163809Y-110547381D01*
X100259048Y-110499762D01*
X100306667Y-110404524D01*
X100306667Y-110356905D01*
X100259048Y-110261667D01*
X100163809Y-110214048D01*
X100020952Y-110214048D01*
X99925714Y-110166429D01*
X99878095Y-110071190D01*
X99878095Y-110023571D01*
X99925714Y-109928333D01*
X100020952Y-109880714D01*
X100163809Y-109880714D01*
X100259048Y-109928333D01*
X100878095Y-110547381D02*
X100782857Y-110499762D01*
X100735238Y-110452143D01*
X100687619Y-110356905D01*
X100687619Y-110071190D01*
X100735238Y-109975952D01*
X100782857Y-109928333D01*
X100878095Y-109880714D01*
X101020953Y-109880714D01*
X101116191Y-109928333D01*
X101163810Y-109975952D01*
X101211429Y-110071190D01*
X101211429Y-110356905D01*
X101163810Y-110452143D01*
X101116191Y-110499762D01*
X101020953Y-110547381D01*
X100878095Y-110547381D01*
X101640000Y-109880714D02*
X101640000Y-110547381D01*
X101640000Y-109975952D02*
X101687619Y-109928333D01*
X101782857Y-109880714D01*
X101925715Y-109880714D01*
X102020953Y-109928333D01*
X102068572Y-110023571D01*
X102068572Y-110547381D01*
X103878096Y-110547381D02*
X103544762Y-110071190D01*
X103306667Y-110547381D02*
X103306667Y-109547381D01*
X103687620Y-109547381D01*
X103782858Y-109595000D01*
X103830477Y-109642619D01*
X103878096Y-109737857D01*
X103878096Y-109880714D01*
X103830477Y-109975952D01*
X103782858Y-110023571D01*
X103687620Y-110071190D01*
X103306667Y-110071190D01*
X104306667Y-110452143D02*
X104354286Y-110499762D01*
X104306667Y-110547381D01*
X104259048Y-110499762D01*
X104306667Y-110452143D01*
X104306667Y-110547381D01*
X105401905Y-109547381D02*
X105973334Y-109547381D01*
X105687619Y-110547381D02*
X105687619Y-109547381D01*
X106306667Y-110547381D02*
X106306667Y-109547381D01*
X106735239Y-110547381D02*
X106735239Y-110023571D01*
X106687620Y-109928333D01*
X106592382Y-109880714D01*
X106449524Y-109880714D01*
X106354286Y-109928333D01*
X106306667Y-109975952D01*
X107354286Y-110547381D02*
X107259048Y-110499762D01*
X107211429Y-110452143D01*
X107163810Y-110356905D01*
X107163810Y-110071190D01*
X107211429Y-109975952D01*
X107259048Y-109928333D01*
X107354286Y-109880714D01*
X107497144Y-109880714D01*
X107592382Y-109928333D01*
X107640001Y-109975952D01*
X107687620Y-110071190D01*
X107687620Y-110356905D01*
X107640001Y-110452143D01*
X107592382Y-110499762D01*
X107497144Y-110547381D01*
X107354286Y-110547381D01*
X108116191Y-110547381D02*
X108116191Y-109880714D01*
X108116191Y-110071190D02*
X108163810Y-109975952D01*
X108211429Y-109928333D01*
X108306667Y-109880714D01*
X108401906Y-109880714D01*
X108735239Y-109880714D02*
X108735239Y-110880714D01*
X108735239Y-109928333D02*
X108830477Y-109880714D01*
X109020954Y-109880714D01*
X109116192Y-109928333D01*
X109163811Y-109975952D01*
X109211430Y-110071190D01*
X109211430Y-110356905D01*
X109163811Y-110452143D01*
X109116192Y-110499762D01*
X109020954Y-110547381D01*
X108830477Y-110547381D01*
X108735239Y-110499762D01*
X110020954Y-110499762D02*
X109925716Y-110547381D01*
X109735239Y-110547381D01*
X109640001Y-110499762D01*
X109592382Y-110404524D01*
X109592382Y-110023571D01*
X109640001Y-109928333D01*
X109735239Y-109880714D01*
X109925716Y-109880714D01*
X110020954Y-109928333D01*
X110068573Y-110023571D01*
X110068573Y-110118810D01*
X109592382Y-110214048D01*
X147215000Y-97273334D02*
X147167381Y-97368572D01*
X147167381Y-97511429D01*
X147215000Y-97654287D01*
X147310238Y-97749525D01*
X147405476Y-97797144D01*
X147595952Y-97844763D01*
X147738810Y-97844763D01*
X147929286Y-97797144D01*
X148024524Y-97749525D01*
X148119762Y-97654287D01*
X148167381Y-97511429D01*
X148167381Y-97416191D01*
X148119762Y-97273334D01*
X148072143Y-97225715D01*
X147738810Y-97225715D01*
X147738810Y-97416191D01*
X148167381Y-96797144D02*
X147500714Y-96797144D01*
X147167381Y-96797144D02*
X147215000Y-96844763D01*
X147262619Y-96797144D01*
X147215000Y-96749525D01*
X147167381Y-96797144D01*
X147262619Y-96797144D01*
X148167381Y-96178097D02*
X148119762Y-96273335D01*
X148024524Y-96320954D01*
X147167381Y-96320954D01*
X148167381Y-95654287D02*
X148119762Y-95749525D01*
X148024524Y-95797144D01*
X147167381Y-95797144D01*
X148119762Y-94892381D02*
X148167381Y-94987619D01*
X148167381Y-95178096D01*
X148119762Y-95273334D01*
X148024524Y-95320953D01*
X147643571Y-95320953D01*
X147548333Y-95273334D01*
X147500714Y-95178096D01*
X147500714Y-94987619D01*
X147548333Y-94892381D01*
X147643571Y-94844762D01*
X147738810Y-94844762D01*
X147834048Y-95320953D01*
X148119762Y-94463810D02*
X148167381Y-94368572D01*
X148167381Y-94178096D01*
X148119762Y-94082857D01*
X148024524Y-94035238D01*
X147976905Y-94035238D01*
X147881667Y-94082857D01*
X147834048Y-94178096D01*
X147834048Y-94320953D01*
X147786429Y-94416191D01*
X147691190Y-94463810D01*
X147643571Y-94463810D01*
X147548333Y-94416191D01*
X147500714Y-94320953D01*
X147500714Y-94178096D01*
X147548333Y-94082857D01*
X147500714Y-93606667D02*
X148500714Y-93606667D01*
X147548333Y-93606667D02*
X147500714Y-93511429D01*
X147500714Y-93320952D01*
X147548333Y-93225714D01*
X147595952Y-93178095D01*
X147691190Y-93130476D01*
X147976905Y-93130476D01*
X148072143Y-93178095D01*
X148119762Y-93225714D01*
X148167381Y-93320952D01*
X148167381Y-93511429D01*
X148119762Y-93606667D01*
X148167381Y-92701905D02*
X147500714Y-92701905D01*
X147167381Y-92701905D02*
X147215000Y-92749524D01*
X147262619Y-92701905D01*
X147215000Y-92654286D01*
X147167381Y-92701905D01*
X147262619Y-92701905D01*
X148119762Y-91844762D02*
X148167381Y-91940000D01*
X148167381Y-92130477D01*
X148119762Y-92225715D01*
X148024524Y-92273334D01*
X147643571Y-92273334D01*
X147548333Y-92225715D01*
X147500714Y-92130477D01*
X147500714Y-91940000D01*
X147548333Y-91844762D01*
X147643571Y-91797143D01*
X147738810Y-91797143D01*
X147834048Y-92273334D01*
X147643571Y-90606667D02*
X147643571Y-90273333D01*
X148167381Y-90130476D02*
X148167381Y-90606667D01*
X147167381Y-90606667D01*
X147167381Y-90130476D01*
X147643571Y-89368571D02*
X147643571Y-89701905D01*
X148167381Y-89701905D02*
X147167381Y-89701905D01*
X147167381Y-89225714D01*
X147643571Y-88511428D02*
X147691190Y-88368571D01*
X147738810Y-88320952D01*
X147834048Y-88273333D01*
X147976905Y-88273333D01*
X148072143Y-88320952D01*
X148119762Y-88368571D01*
X148167381Y-88463809D01*
X148167381Y-88844762D01*
X147167381Y-88844762D01*
X147167381Y-88511428D01*
X147215000Y-88416190D01*
X147262619Y-88368571D01*
X147357857Y-88320952D01*
X147453095Y-88320952D01*
X147548333Y-88368571D01*
X147595952Y-88416190D01*
X147643571Y-88511428D01*
X147643571Y-88844762D01*
X148548333Y-87559047D02*
X148500714Y-87606667D01*
X148357857Y-87701905D01*
X148262619Y-87749524D01*
X148119762Y-87797143D01*
X147881667Y-87844762D01*
X147691190Y-87844762D01*
X147453095Y-87797143D01*
X147310238Y-87749524D01*
X147215000Y-87701905D01*
X147072143Y-87606667D01*
X147024524Y-87559047D01*
X147500714Y-87320952D02*
X147500714Y-86940000D01*
X147167381Y-87178095D02*
X148024524Y-87178095D01*
X148119762Y-87130476D01*
X148167381Y-87035238D01*
X148167381Y-86940000D01*
X148167381Y-86606666D02*
X147500714Y-86606666D01*
X147595952Y-86606666D02*
X147548333Y-86559047D01*
X147500714Y-86463809D01*
X147500714Y-86320951D01*
X147548333Y-86225713D01*
X147643571Y-86178094D01*
X148167381Y-86178094D01*
X147643571Y-86178094D02*
X147548333Y-86130475D01*
X147500714Y-86035237D01*
X147500714Y-85892380D01*
X147548333Y-85797142D01*
X147643571Y-85749523D01*
X148167381Y-85749523D01*
X148548333Y-85368571D02*
X148500714Y-85320952D01*
X148357857Y-85225714D01*
X148262619Y-85178095D01*
X148119762Y-85130476D01*
X147881667Y-85082857D01*
X147691190Y-85082857D01*
X147453095Y-85130476D01*
X147310238Y-85178095D01*
X147215000Y-85225714D01*
X147072143Y-85320952D01*
X147024524Y-85368571D01*
X149393571Y-100654286D02*
X149441190Y-100511429D01*
X149488810Y-100463810D01*
X149584048Y-100416191D01*
X149726905Y-100416191D01*
X149822143Y-100463810D01*
X149869762Y-100511429D01*
X149917381Y-100606667D01*
X149917381Y-100987620D01*
X148917381Y-100987620D01*
X148917381Y-100654286D01*
X148965000Y-100559048D01*
X149012619Y-100511429D01*
X149107857Y-100463810D01*
X149203095Y-100463810D01*
X149298333Y-100511429D01*
X149345952Y-100559048D01*
X149393571Y-100654286D01*
X149393571Y-100987620D01*
X149917381Y-99987620D02*
X149250714Y-99987620D01*
X148917381Y-99987620D02*
X148965000Y-100035239D01*
X149012619Y-99987620D01*
X148965000Y-99940001D01*
X148917381Y-99987620D01*
X149012619Y-99987620D01*
X149917381Y-99082858D02*
X149393571Y-99082858D01*
X149298333Y-99130477D01*
X149250714Y-99225715D01*
X149250714Y-99416192D01*
X149298333Y-99511430D01*
X149869762Y-99082858D02*
X149917381Y-99178096D01*
X149917381Y-99416192D01*
X149869762Y-99511430D01*
X149774524Y-99559049D01*
X149679286Y-99559049D01*
X149584048Y-99511430D01*
X149536429Y-99416192D01*
X149536429Y-99178096D01*
X149488810Y-99082858D01*
X149869762Y-98654287D02*
X149917381Y-98559049D01*
X149917381Y-98368573D01*
X149869762Y-98273334D01*
X149774524Y-98225715D01*
X149726905Y-98225715D01*
X149631667Y-98273334D01*
X149584048Y-98368573D01*
X149584048Y-98511430D01*
X149536429Y-98606668D01*
X149441190Y-98654287D01*
X149393571Y-98654287D01*
X149298333Y-98606668D01*
X149250714Y-98511430D01*
X149250714Y-98368573D01*
X149298333Y-98273334D01*
X149869762Y-97082858D02*
X149917381Y-96940001D01*
X149917381Y-96701905D01*
X149869762Y-96606667D01*
X149822143Y-96559048D01*
X149726905Y-96511429D01*
X149631667Y-96511429D01*
X149536429Y-96559048D01*
X149488810Y-96606667D01*
X149441190Y-96701905D01*
X149393571Y-96892382D01*
X149345952Y-96987620D01*
X149298333Y-97035239D01*
X149203095Y-97082858D01*
X149107857Y-97082858D01*
X149012619Y-97035239D01*
X148965000Y-96987620D01*
X148917381Y-96892382D01*
X148917381Y-96654286D01*
X148965000Y-96511429D01*
X149250714Y-95654286D02*
X149917381Y-95654286D01*
X149250714Y-96082858D02*
X149774524Y-96082858D01*
X149869762Y-96035239D01*
X149917381Y-95940001D01*
X149917381Y-95797143D01*
X149869762Y-95701905D01*
X149822143Y-95654286D01*
X149250714Y-95178096D02*
X150250714Y-95178096D01*
X149298333Y-95178096D02*
X149250714Y-95082858D01*
X149250714Y-94892381D01*
X149298333Y-94797143D01*
X149345952Y-94749524D01*
X149441190Y-94701905D01*
X149726905Y-94701905D01*
X149822143Y-94749524D01*
X149869762Y-94797143D01*
X149917381Y-94892381D01*
X149917381Y-95082858D01*
X149869762Y-95178096D01*
X149250714Y-94273334D02*
X150250714Y-94273334D01*
X149298333Y-94273334D02*
X149250714Y-94178096D01*
X149250714Y-93987619D01*
X149298333Y-93892381D01*
X149345952Y-93844762D01*
X149441190Y-93797143D01*
X149726905Y-93797143D01*
X149822143Y-93844762D01*
X149869762Y-93892381D01*
X149917381Y-93987619D01*
X149917381Y-94178096D01*
X149869762Y-94273334D01*
X149917381Y-93225715D02*
X149869762Y-93320953D01*
X149774524Y-93368572D01*
X148917381Y-93368572D01*
X149250714Y-92940000D02*
X149917381Y-92701905D01*
X149250714Y-92463809D02*
X149917381Y-92701905D01*
X150155476Y-92797143D01*
X150203095Y-92844762D01*
X150250714Y-92940000D01*
X149869762Y-92035238D02*
X149917381Y-92035238D01*
X150012619Y-92082857D01*
X150060238Y-92130476D01*
X149917381Y-90844762D02*
X148917381Y-90844762D01*
X149298333Y-90844762D02*
X149250714Y-90749524D01*
X149250714Y-90559047D01*
X149298333Y-90463809D01*
X149345952Y-90416190D01*
X149441190Y-90368571D01*
X149726905Y-90368571D01*
X149822143Y-90416190D01*
X149869762Y-90463809D01*
X149917381Y-90559047D01*
X149917381Y-90749524D01*
X149869762Y-90844762D01*
X149917381Y-89797143D02*
X149869762Y-89892381D01*
X149822143Y-89940000D01*
X149726905Y-89987619D01*
X149441190Y-89987619D01*
X149345952Y-89940000D01*
X149298333Y-89892381D01*
X149250714Y-89797143D01*
X149250714Y-89654285D01*
X149298333Y-89559047D01*
X149345952Y-89511428D01*
X149441190Y-89463809D01*
X149726905Y-89463809D01*
X149822143Y-89511428D01*
X149869762Y-89559047D01*
X149917381Y-89654285D01*
X149917381Y-89797143D01*
X149917381Y-88606666D02*
X149393571Y-88606666D01*
X149298333Y-88654285D01*
X149250714Y-88749523D01*
X149250714Y-88940000D01*
X149298333Y-89035238D01*
X149869762Y-88606666D02*
X149917381Y-88701904D01*
X149917381Y-88940000D01*
X149869762Y-89035238D01*
X149774524Y-89082857D01*
X149679286Y-89082857D01*
X149584048Y-89035238D01*
X149536429Y-88940000D01*
X149536429Y-88701904D01*
X149488810Y-88606666D01*
X149917381Y-88130476D02*
X149250714Y-88130476D01*
X149441190Y-88130476D02*
X149345952Y-88082857D01*
X149298333Y-88035238D01*
X149250714Y-87940000D01*
X149250714Y-87844761D01*
X149917381Y-87082856D02*
X148917381Y-87082856D01*
X149869762Y-87082856D02*
X149917381Y-87178094D01*
X149917381Y-87368571D01*
X149869762Y-87463809D01*
X149822143Y-87511428D01*
X149726905Y-87559047D01*
X149441190Y-87559047D01*
X149345952Y-87511428D01*
X149298333Y-87463809D01*
X149250714Y-87368571D01*
X149250714Y-87178094D01*
X149298333Y-87082856D01*
X149917381Y-85844761D02*
X149250714Y-85844761D01*
X149441190Y-85844761D02*
X149345952Y-85797142D01*
X149298333Y-85749523D01*
X149250714Y-85654285D01*
X149250714Y-85559046D01*
X149869762Y-84844760D02*
X149917381Y-84939998D01*
X149917381Y-85130475D01*
X149869762Y-85225713D01*
X149774524Y-85273332D01*
X149393571Y-85273332D01*
X149298333Y-85225713D01*
X149250714Y-85130475D01*
X149250714Y-84939998D01*
X149298333Y-84844760D01*
X149393571Y-84797141D01*
X149488810Y-84797141D01*
X149584048Y-85273332D01*
X149250714Y-84463808D02*
X149917381Y-84225713D01*
X149250714Y-83987617D01*
X149822143Y-83606665D02*
X149869762Y-83559046D01*
X149917381Y-83606665D01*
X149869762Y-83654284D01*
X149822143Y-83606665D01*
X149917381Y-83606665D01*
X149917381Y-81844760D02*
X149917381Y-82416189D01*
X149917381Y-82130475D02*
X148917381Y-82130475D01*
X149060238Y-82225713D01*
X149155476Y-82320951D01*
X149203095Y-82416189D01*
D12*
X92460000Y-92535714D02*
X92460000Y-93250000D01*
X92031429Y-92392857D02*
X93531429Y-92892857D01*
X92031429Y-93392857D01*
X92174286Y-94750000D02*
X92102857Y-94678571D01*
X92031429Y-94464285D01*
X92031429Y-94321428D01*
X92102857Y-94107143D01*
X92245714Y-93964285D01*
X92388571Y-93892857D01*
X92674286Y-93821428D01*
X92888571Y-93821428D01*
X93174286Y-93892857D01*
X93317143Y-93964285D01*
X93460000Y-94107143D01*
X93531429Y-94321428D01*
X93531429Y-94464285D01*
X93460000Y-94678571D01*
X93388571Y-94750000D01*
X92031429Y-96535714D02*
X93031429Y-96535714D01*
X93531429Y-96535714D02*
X93460000Y-96464285D01*
X93388571Y-96535714D01*
X93460000Y-96607142D01*
X93531429Y-96535714D01*
X93388571Y-96535714D01*
X93031429Y-97250000D02*
X92031429Y-97250000D01*
X92888571Y-97250000D02*
X92960000Y-97321428D01*
X93031429Y-97464286D01*
X93031429Y-97678571D01*
X92960000Y-97821428D01*
X92817143Y-97892857D01*
X92031429Y-97892857D01*
D11*
X114927143Y-109990000D02*
X114831905Y-109942381D01*
X114689048Y-109942381D01*
X114546190Y-109990000D01*
X114450952Y-110085238D01*
X114403333Y-110180476D01*
X114355714Y-110370952D01*
X114355714Y-110513810D01*
X114403333Y-110704286D01*
X114450952Y-110799524D01*
X114546190Y-110894762D01*
X114689048Y-110942381D01*
X114784286Y-110942381D01*
X114927143Y-110894762D01*
X114974762Y-110847143D01*
X114974762Y-110513810D01*
X114784286Y-110513810D01*
X115403333Y-110275714D02*
X115403333Y-110942381D01*
X115403333Y-110370952D02*
X115450952Y-110323333D01*
X115546190Y-110275714D01*
X115689048Y-110275714D01*
X115784286Y-110323333D01*
X115831905Y-110418571D01*
X115831905Y-110942381D01*
X116736667Y-110942381D02*
X116736667Y-109942381D01*
X116736667Y-110894762D02*
X116641429Y-110942381D01*
X116450952Y-110942381D01*
X116355714Y-110894762D01*
X116308095Y-110847143D01*
X116260476Y-110751905D01*
X116260476Y-110466190D01*
X116308095Y-110370952D01*
X116355714Y-110323333D01*
X116450952Y-110275714D01*
X116641429Y-110275714D01*
X116736667Y-110323333D01*
X118769048Y-109942381D02*
X119102381Y-110942381D01*
X119435715Y-109942381D01*
X119769048Y-110942381D02*
X119769048Y-109942381D01*
X119769048Y-110323333D02*
X119864286Y-110275714D01*
X120054763Y-110275714D01*
X120150001Y-110323333D01*
X120197620Y-110370952D01*
X120245239Y-110466190D01*
X120245239Y-110751905D01*
X120197620Y-110847143D01*
X120150001Y-110894762D01*
X120054763Y-110942381D01*
X119864286Y-110942381D01*
X119769048Y-110894762D01*
X120673810Y-110942381D02*
X120673810Y-110275714D01*
X120673810Y-109942381D02*
X120626191Y-109990000D01*
X120673810Y-110037619D01*
X120721429Y-109990000D01*
X120673810Y-109942381D01*
X120673810Y-110037619D01*
X121578572Y-110942381D02*
X121578572Y-110418571D01*
X121530953Y-110323333D01*
X121435715Y-110275714D01*
X121245238Y-110275714D01*
X121150000Y-110323333D01*
X121578572Y-110894762D02*
X121483334Y-110942381D01*
X121245238Y-110942381D01*
X121150000Y-110894762D01*
X121102381Y-110799524D01*
X121102381Y-110704286D01*
X121150000Y-110609048D01*
X121245238Y-110561429D01*
X121483334Y-110561429D01*
X121578572Y-110513810D01*
X122007143Y-110894762D02*
X122102381Y-110942381D01*
X122292857Y-110942381D01*
X122388096Y-110894762D01*
X122435715Y-110799524D01*
X122435715Y-110751905D01*
X122388096Y-110656667D01*
X122292857Y-110609048D01*
X122150000Y-110609048D01*
X122054762Y-110561429D01*
X122007143Y-110466190D01*
X122007143Y-110418571D01*
X122054762Y-110323333D01*
X122150000Y-110275714D01*
X122292857Y-110275714D01*
X122388096Y-110323333D01*
X124063333Y-109942381D02*
X124396666Y-110942381D01*
X124730000Y-109942381D01*
X125063333Y-110275714D02*
X125063333Y-110942381D01*
X125063333Y-110370952D02*
X125110952Y-110323333D01*
X125206190Y-110275714D01*
X125349048Y-110275714D01*
X125444286Y-110323333D01*
X125491905Y-110418571D01*
X125491905Y-110942381D01*
X126349048Y-110894762D02*
X126253810Y-110942381D01*
X126063333Y-110942381D01*
X125968095Y-110894762D01*
X125920476Y-110799524D01*
X125920476Y-110418571D01*
X125968095Y-110323333D01*
X126063333Y-110275714D01*
X126253810Y-110275714D01*
X126349048Y-110323333D01*
X126396667Y-110418571D01*
X126396667Y-110513810D01*
X125920476Y-110609048D01*
X127253810Y-110275714D02*
X127253810Y-111085238D01*
X127206191Y-111180476D01*
X127158572Y-111228095D01*
X127063333Y-111275714D01*
X126920476Y-111275714D01*
X126825238Y-111228095D01*
X127253810Y-110894762D02*
X127158572Y-110942381D01*
X126968095Y-110942381D01*
X126872857Y-110894762D01*
X126825238Y-110847143D01*
X126777619Y-110751905D01*
X126777619Y-110466190D01*
X126825238Y-110370952D01*
X126872857Y-110323333D01*
X126968095Y-110275714D01*
X127158572Y-110275714D01*
X127253810Y-110323333D01*
D12*
X136700000Y-111097143D02*
X136914286Y-111168571D01*
X137271429Y-111168571D01*
X137414286Y-111097143D01*
X137485715Y-111025714D01*
X137557143Y-110882857D01*
X137557143Y-110740000D01*
X137485715Y-110597143D01*
X137414286Y-110525714D01*
X137271429Y-110454286D01*
X136985715Y-110382857D01*
X136842857Y-110311429D01*
X136771429Y-110240000D01*
X136700000Y-110097143D01*
X136700000Y-109954286D01*
X136771429Y-109811429D01*
X136842857Y-109740000D01*
X136985715Y-109668571D01*
X137342857Y-109668571D01*
X137557143Y-109740000D01*
X138771428Y-111097143D02*
X138628571Y-111168571D01*
X138342857Y-111168571D01*
X138200000Y-111097143D01*
X138128571Y-110954286D01*
X138128571Y-110382857D01*
X138200000Y-110240000D01*
X138342857Y-110168571D01*
X138628571Y-110168571D01*
X138771428Y-110240000D01*
X138842857Y-110382857D01*
X138842857Y-110525714D01*
X138128571Y-110668571D01*
X139485714Y-110168571D02*
X139485714Y-111168571D01*
X139485714Y-110311429D02*
X139557142Y-110240000D01*
X139700000Y-110168571D01*
X139914285Y-110168571D01*
X140057142Y-110240000D01*
X140128571Y-110382857D01*
X140128571Y-111168571D01*
X140771428Y-111097143D02*
X140914285Y-111168571D01*
X141200000Y-111168571D01*
X141342857Y-111097143D01*
X141414285Y-110954286D01*
X141414285Y-110882857D01*
X141342857Y-110740000D01*
X141200000Y-110668571D01*
X140985714Y-110668571D01*
X140842857Y-110597143D01*
X140771428Y-110454286D01*
X140771428Y-110382857D01*
X140842857Y-110240000D01*
X140985714Y-110168571D01*
X141200000Y-110168571D01*
X141342857Y-110240000D01*
X142628571Y-111097143D02*
X142485714Y-111168571D01*
X142200000Y-111168571D01*
X142057143Y-111097143D01*
X141985714Y-110954286D01*
X141985714Y-110382857D01*
X142057143Y-110240000D01*
X142200000Y-110168571D01*
X142485714Y-110168571D01*
X142628571Y-110240000D01*
X142700000Y-110382857D01*
X142700000Y-110525714D01*
X141985714Y-110668571D01*
D13*
X150876000Y-109220000D02*
G75*
G03X150876000Y-109220000I-2286000J0D01*
G01*
X150876000Y-72390000D02*
G75*
G03X150876000Y-72390000I-2286000J0D01*
G01*
X96266000Y-72390000D02*
G75*
G03X96266000Y-72390000I-2286000J0D01*
G01*
X125620000Y-86900000D02*
X118300000Y-86900000D01*
X125620000Y-83280000D02*
X118300000Y-83280000D01*
X125620000Y-86900000D02*
X125620000Y-83280000D01*
X118300000Y-86900000D02*
X118300000Y-83280000D01*
X112230000Y-79950000D02*
G75*
G03X112230000Y-79950000I-8090000J0D01*
G01*
X112191000Y-79950000D02*
X96089000Y-79950000D01*
X112190000Y-79990000D02*
X96090000Y-79990000D01*
X112190000Y-80030000D02*
X96090000Y-80030000D01*
X112190000Y-80070000D02*
X96090000Y-80070000D01*
X112189000Y-80110000D02*
X96091000Y-80110000D01*
X112188000Y-80150000D02*
X96092000Y-80150000D01*
X112187000Y-80190000D02*
X96093000Y-80190000D01*
X112186000Y-80230000D02*
X96094000Y-80230000D01*
X112184000Y-80270000D02*
X96096000Y-80270000D01*
X112182000Y-80310000D02*
X96098000Y-80310000D01*
X112181000Y-80350000D02*
X96099000Y-80350000D01*
X112179000Y-80390000D02*
X96101000Y-80390000D01*
X112176000Y-80430000D02*
X96104000Y-80430000D01*
X112174000Y-80470000D02*
X96106000Y-80470000D01*
X112171000Y-80510000D02*
X96109000Y-80510000D01*
X112168000Y-80550000D02*
X96112000Y-80550000D01*
X112165000Y-80590000D02*
X96115000Y-80590000D01*
X112162000Y-80630000D02*
X96118000Y-80630000D01*
X112158000Y-80671000D02*
X96122000Y-80671000D01*
X112155000Y-80711000D02*
X96125000Y-80711000D01*
X112151000Y-80751000D02*
X96129000Y-80751000D01*
X112147000Y-80791000D02*
X96133000Y-80791000D01*
X112142000Y-80831000D02*
X96138000Y-80831000D01*
X112138000Y-80871000D02*
X96142000Y-80871000D01*
X112133000Y-80911000D02*
X96147000Y-80911000D01*
X112128000Y-80951000D02*
X96152000Y-80951000D01*
X112123000Y-80991000D02*
X96157000Y-80991000D01*
X112118000Y-81031000D02*
X96162000Y-81031000D01*
X112113000Y-81071000D02*
X96167000Y-81071000D01*
X112107000Y-81111000D02*
X96173000Y-81111000D01*
X112101000Y-81151000D02*
X96179000Y-81151000D01*
X112095000Y-81191000D02*
X96185000Y-81191000D01*
X112089000Y-81231000D02*
X96191000Y-81231000D01*
X112082000Y-81271000D02*
X96198000Y-81271000D01*
X112075000Y-81311000D02*
X96205000Y-81311000D01*
X112068000Y-81351000D02*
X96212000Y-81351000D01*
X112061000Y-81391000D02*
X96219000Y-81391000D01*
X112054000Y-81431000D02*
X96226000Y-81431000D01*
X112046000Y-81471000D02*
X96234000Y-81471000D01*
X112039000Y-81511000D02*
X96241000Y-81511000D01*
X112031000Y-81551000D02*
X96249000Y-81551000D01*
X112023000Y-81591000D02*
X96257000Y-81591000D01*
X112014000Y-81631000D02*
X96266000Y-81631000D01*
X112006000Y-81671000D02*
X96274000Y-81671000D01*
X111997000Y-81711000D02*
X96283000Y-81711000D01*
X111988000Y-81751000D02*
X96292000Y-81751000D01*
X111978000Y-81791000D02*
X96302000Y-81791000D01*
X111969000Y-81831000D02*
X96311000Y-81831000D01*
X111959000Y-81871000D02*
X96321000Y-81871000D01*
X111949000Y-81911000D02*
X96331000Y-81911000D01*
X111939000Y-81951000D02*
X96341000Y-81951000D01*
X111929000Y-81991000D02*
X96351000Y-81991000D01*
X111919000Y-82031000D02*
X96361000Y-82031000D01*
X111908000Y-82071000D02*
X96372000Y-82071000D01*
X111897000Y-82111000D02*
X96383000Y-82111000D01*
X111886000Y-82151000D02*
X96394000Y-82151000D01*
X111874000Y-82191000D02*
X96406000Y-82191000D01*
X111863000Y-82231000D02*
X96417000Y-82231000D01*
X111851000Y-82271000D02*
X96429000Y-82271000D01*
X111839000Y-82311000D02*
X96441000Y-82311000D01*
X111826000Y-82351000D02*
X105520000Y-82351000D01*
X102760000Y-82351000D02*
X96454000Y-82351000D01*
X111814000Y-82391000D02*
X105520000Y-82391000D01*
X102760000Y-82391000D02*
X96466000Y-82391000D01*
X111801000Y-82431000D02*
X105520000Y-82431000D01*
X102760000Y-82431000D02*
X96479000Y-82431000D01*
X111788000Y-82471000D02*
X105520000Y-82471000D01*
X102760000Y-82471000D02*
X96492000Y-82471000D01*
X111775000Y-82511000D02*
X105520000Y-82511000D01*
X102760000Y-82511000D02*
X96505000Y-82511000D01*
X111761000Y-82551000D02*
X105520000Y-82551000D01*
X102760000Y-82551000D02*
X96519000Y-82551000D01*
X111748000Y-82591000D02*
X105520000Y-82591000D01*
X102760000Y-82591000D02*
X96532000Y-82591000D01*
X111734000Y-82631000D02*
X105520000Y-82631000D01*
X102760000Y-82631000D02*
X96546000Y-82631000D01*
X111720000Y-82671000D02*
X105520000Y-82671000D01*
X102760000Y-82671000D02*
X96560000Y-82671000D01*
X111705000Y-82711000D02*
X105520000Y-82711000D01*
X102760000Y-82711000D02*
X96575000Y-82711000D01*
X111690000Y-82751000D02*
X105520000Y-82751000D01*
X102760000Y-82751000D02*
X96590000Y-82751000D01*
X111676000Y-82791000D02*
X105520000Y-82791000D01*
X102760000Y-82791000D02*
X96604000Y-82791000D01*
X111661000Y-82831000D02*
X105520000Y-82831000D01*
X102760000Y-82831000D02*
X96619000Y-82831000D01*
X111645000Y-82871000D02*
X105520000Y-82871000D01*
X102760000Y-82871000D02*
X96635000Y-82871000D01*
X111630000Y-82911000D02*
X105520000Y-82911000D01*
X102760000Y-82911000D02*
X96650000Y-82911000D01*
X111614000Y-82951000D02*
X105520000Y-82951000D01*
X102760000Y-82951000D02*
X96666000Y-82951000D01*
X111598000Y-82991000D02*
X105520000Y-82991000D01*
X102760000Y-82991000D02*
X96682000Y-82991000D01*
X111581000Y-83031000D02*
X105520000Y-83031000D01*
X102760000Y-83031000D02*
X96699000Y-83031000D01*
X111565000Y-83071000D02*
X105520000Y-83071000D01*
X102760000Y-83071000D02*
X96715000Y-83071000D01*
X111548000Y-83111000D02*
X105520000Y-83111000D01*
X102760000Y-83111000D02*
X96732000Y-83111000D01*
X111531000Y-83151000D02*
X105520000Y-83151000D01*
X102760000Y-83151000D02*
X96749000Y-83151000D01*
X111513000Y-83191000D02*
X105520000Y-83191000D01*
X102760000Y-83191000D02*
X96767000Y-83191000D01*
X111496000Y-83231000D02*
X105520000Y-83231000D01*
X102760000Y-83231000D02*
X96784000Y-83231000D01*
X111478000Y-83271000D02*
X105520000Y-83271000D01*
X102760000Y-83271000D02*
X96802000Y-83271000D01*
X111460000Y-83311000D02*
X105520000Y-83311000D01*
X102760000Y-83311000D02*
X96820000Y-83311000D01*
X111441000Y-83351000D02*
X105520000Y-83351000D01*
X102760000Y-83351000D02*
X96839000Y-83351000D01*
X111423000Y-83391000D02*
X105520000Y-83391000D01*
X102760000Y-83391000D02*
X96857000Y-83391000D01*
X111404000Y-83431000D02*
X105520000Y-83431000D01*
X102760000Y-83431000D02*
X96876000Y-83431000D01*
X111385000Y-83471000D02*
X105520000Y-83471000D01*
X102760000Y-83471000D02*
X96895000Y-83471000D01*
X111365000Y-83511000D02*
X105520000Y-83511000D01*
X102760000Y-83511000D02*
X96915000Y-83511000D01*
X111345000Y-83551000D02*
X105520000Y-83551000D01*
X102760000Y-83551000D02*
X96935000Y-83551000D01*
X111325000Y-83591000D02*
X105520000Y-83591000D01*
X102760000Y-83591000D02*
X96955000Y-83591000D01*
X111305000Y-83631000D02*
X105520000Y-83631000D01*
X102760000Y-83631000D02*
X96975000Y-83631000D01*
X111284000Y-83671000D02*
X105520000Y-83671000D01*
X102760000Y-83671000D02*
X96996000Y-83671000D01*
X111264000Y-83711000D02*
X105520000Y-83711000D01*
X102760000Y-83711000D02*
X97016000Y-83711000D01*
X111242000Y-83751000D02*
X105520000Y-83751000D01*
X102760000Y-83751000D02*
X97038000Y-83751000D01*
X111221000Y-83791000D02*
X105520000Y-83791000D01*
X102760000Y-83791000D02*
X97059000Y-83791000D01*
X111199000Y-83831000D02*
X105520000Y-83831000D01*
X102760000Y-83831000D02*
X97081000Y-83831000D01*
X111177000Y-83871000D02*
X105520000Y-83871000D01*
X102760000Y-83871000D02*
X97103000Y-83871000D01*
X111155000Y-83911000D02*
X105520000Y-83911000D01*
X102760000Y-83911000D02*
X97125000Y-83911000D01*
X111132000Y-83951000D02*
X105520000Y-83951000D01*
X102760000Y-83951000D02*
X97148000Y-83951000D01*
X111110000Y-83991000D02*
X105520000Y-83991000D01*
X102760000Y-83991000D02*
X97170000Y-83991000D01*
X111086000Y-84031000D02*
X105520000Y-84031000D01*
X102760000Y-84031000D02*
X97194000Y-84031000D01*
X111063000Y-84071000D02*
X105520000Y-84071000D01*
X102760000Y-84071000D02*
X97217000Y-84071000D01*
X111039000Y-84111000D02*
X105520000Y-84111000D01*
X102760000Y-84111000D02*
X97241000Y-84111000D01*
X111015000Y-84151000D02*
X105520000Y-84151000D01*
X102760000Y-84151000D02*
X97265000Y-84151000D01*
X110990000Y-84191000D02*
X105520000Y-84191000D01*
X102760000Y-84191000D02*
X97290000Y-84191000D01*
X110966000Y-84231000D02*
X105520000Y-84231000D01*
X102760000Y-84231000D02*
X97314000Y-84231000D01*
X110941000Y-84271000D02*
X105520000Y-84271000D01*
X102760000Y-84271000D02*
X97339000Y-84271000D01*
X110915000Y-84311000D02*
X105520000Y-84311000D01*
X102760000Y-84311000D02*
X97365000Y-84311000D01*
X110889000Y-84351000D02*
X105520000Y-84351000D01*
X102760000Y-84351000D02*
X97391000Y-84351000D01*
X110863000Y-84391000D02*
X105520000Y-84391000D01*
X102760000Y-84391000D02*
X97417000Y-84391000D01*
X110837000Y-84431000D02*
X105520000Y-84431000D01*
X102760000Y-84431000D02*
X97443000Y-84431000D01*
X110810000Y-84471000D02*
X105520000Y-84471000D01*
X102760000Y-84471000D02*
X97470000Y-84471000D01*
X110783000Y-84511000D02*
X105520000Y-84511000D01*
X102760000Y-84511000D02*
X97497000Y-84511000D01*
X110755000Y-84551000D02*
X105520000Y-84551000D01*
X102760000Y-84551000D02*
X97525000Y-84551000D01*
X110728000Y-84591000D02*
X105520000Y-84591000D01*
X102760000Y-84591000D02*
X97552000Y-84591000D01*
X110699000Y-84631000D02*
X105520000Y-84631000D01*
X102760000Y-84631000D02*
X97581000Y-84631000D01*
X110671000Y-84671000D02*
X105520000Y-84671000D01*
X102760000Y-84671000D02*
X97609000Y-84671000D01*
X110642000Y-84711000D02*
X105520000Y-84711000D01*
X102760000Y-84711000D02*
X97638000Y-84711000D01*
X110613000Y-84751000D02*
X105520000Y-84751000D01*
X102760000Y-84751000D02*
X97667000Y-84751000D01*
X110583000Y-84791000D02*
X105520000Y-84791000D01*
X102760000Y-84791000D02*
X97697000Y-84791000D01*
X110553000Y-84831000D02*
X105520000Y-84831000D01*
X102760000Y-84831000D02*
X97727000Y-84831000D01*
X110522000Y-84871000D02*
X105520000Y-84871000D01*
X102760000Y-84871000D02*
X97758000Y-84871000D01*
X110492000Y-84911000D02*
X105520000Y-84911000D01*
X102760000Y-84911000D02*
X97788000Y-84911000D01*
X110460000Y-84951000D02*
X105520000Y-84951000D01*
X102760000Y-84951000D02*
X97820000Y-84951000D01*
X110429000Y-84991000D02*
X105520000Y-84991000D01*
X102760000Y-84991000D02*
X97851000Y-84991000D01*
X110397000Y-85031000D02*
X105520000Y-85031000D01*
X102760000Y-85031000D02*
X97883000Y-85031000D01*
X110364000Y-85071000D02*
X105520000Y-85071000D01*
X102760000Y-85071000D02*
X97916000Y-85071000D01*
X110331000Y-85111000D02*
X97949000Y-85111000D01*
X110298000Y-85151000D02*
X97982000Y-85151000D01*
X110264000Y-85191000D02*
X98016000Y-85191000D01*
X110230000Y-85231000D02*
X98050000Y-85231000D01*
X110195000Y-85271000D02*
X98085000Y-85271000D01*
X110160000Y-85311000D02*
X98120000Y-85311000D01*
X110124000Y-85351000D02*
X98156000Y-85351000D01*
X110088000Y-85391000D02*
X98192000Y-85391000D01*
X110052000Y-85431000D02*
X98228000Y-85431000D01*
X110015000Y-85471000D02*
X98265000Y-85471000D01*
X109977000Y-85511000D02*
X98303000Y-85511000D01*
X109939000Y-85551000D02*
X98341000Y-85551000D01*
X109900000Y-85591000D02*
X98380000Y-85591000D01*
X109861000Y-85631000D02*
X98419000Y-85631000D01*
X109821000Y-85671000D02*
X98459000Y-85671000D01*
X109781000Y-85711000D02*
X98499000Y-85711000D01*
X109740000Y-85751000D02*
X98540000Y-85751000D01*
X109699000Y-85791000D02*
X98581000Y-85791000D01*
X109657000Y-85831000D02*
X98623000Y-85831000D01*
X109614000Y-85871000D02*
X98666000Y-85871000D01*
X109571000Y-85911000D02*
X98709000Y-85911000D01*
X109527000Y-85951000D02*
X98753000Y-85951000D01*
X109483000Y-85991000D02*
X98797000Y-85991000D01*
X109437000Y-86031000D02*
X98843000Y-86031000D01*
X109391000Y-86071000D02*
X98889000Y-86071000D01*
X109345000Y-86111000D02*
X98935000Y-86111000D01*
X109297000Y-86151000D02*
X98983000Y-86151000D01*
X109249000Y-86191000D02*
X99031000Y-86191000D01*
X109200000Y-86231000D02*
X99080000Y-86231000D01*
X109151000Y-86271000D02*
X99129000Y-86271000D01*
X109100000Y-86311000D02*
X99180000Y-86311000D01*
X109049000Y-86351000D02*
X99231000Y-86351000D01*
X108997000Y-86391000D02*
X99283000Y-86391000D01*
X108944000Y-86431000D02*
X99336000Y-86431000D01*
X108890000Y-86471000D02*
X99390000Y-86471000D01*
X108835000Y-86511000D02*
X99445000Y-86511000D01*
X108779000Y-86551000D02*
X99501000Y-86551000D01*
X108722000Y-86591000D02*
X99558000Y-86591000D01*
X108664000Y-86631000D02*
X99616000Y-86631000D01*
X108605000Y-86671000D02*
X99675000Y-86671000D01*
X108545000Y-86711000D02*
X99735000Y-86711000D01*
X108483000Y-86751000D02*
X99797000Y-86751000D01*
X108421000Y-86791000D02*
X99859000Y-86791000D01*
X108357000Y-86831000D02*
X99923000Y-86831000D01*
X108291000Y-86871000D02*
X99989000Y-86871000D01*
X108224000Y-86911000D02*
X100056000Y-86911000D01*
X108156000Y-86951000D02*
X100124000Y-86951000D01*
X108086000Y-86991000D02*
X100194000Y-86991000D01*
X108015000Y-87031000D02*
X100265000Y-87031000D01*
X107942000Y-87071000D02*
X100338000Y-87071000D01*
X107866000Y-87111000D02*
X100414000Y-87111000D01*
X107789000Y-87151000D02*
X100491000Y-87151000D01*
X107710000Y-87191000D02*
X100570000Y-87191000D01*
X107629000Y-87231000D02*
X100651000Y-87231000D01*
X107545000Y-87271000D02*
X100735000Y-87271000D01*
X107459000Y-87311000D02*
X100821000Y-87311000D01*
X107370000Y-87351000D02*
X100910000Y-87351000D01*
X107278000Y-87391000D02*
X101002000Y-87391000D01*
X107182000Y-87431000D02*
X101098000Y-87431000D01*
X107083000Y-87471000D02*
X101197000Y-87471000D01*
X106981000Y-87511000D02*
X101299000Y-87511000D01*
X106873000Y-87551000D02*
X101407000Y-87551000D01*
X106761000Y-87591000D02*
X101519000Y-87591000D01*
X106643000Y-87631000D02*
X101637000Y-87631000D01*
X106519000Y-87671000D02*
X101761000Y-87671000D01*
X106388000Y-87711000D02*
X101892000Y-87711000D01*
X106247000Y-87751000D02*
X102033000Y-87751000D01*
X106096000Y-87791000D02*
X102184000Y-87791000D01*
X105932000Y-87831000D02*
X102348000Y-87831000D01*
X105750000Y-87871000D02*
X102530000Y-87871000D01*
X105545000Y-87911000D02*
X102735000Y-87911000D01*
X105304000Y-87951000D02*
X102976000Y-87951000D01*
X104999000Y-87991000D02*
X103281000Y-87991000D01*
X104503000Y-88031000D02*
X103777000Y-88031000D01*
X104140000Y-73000000D02*
X104140000Y-74800000D01*
X105040000Y-73900000D02*
X103240000Y-73900000D01*
X121950000Y-93980000D02*
G75*
G03X121950000Y-93980000I-6340000J0D01*
G01*
X115610000Y-100280000D02*
X115610000Y-87680000D01*
X115570000Y-100280000D02*
X115570000Y-87680000D01*
X115530000Y-100280000D02*
X115530000Y-87680000D01*
X115490000Y-100279000D02*
X115490000Y-87681000D01*
X115450000Y-100278000D02*
X115450000Y-87682000D01*
X115410000Y-100277000D02*
X115410000Y-87683000D01*
X115370000Y-100276000D02*
X115370000Y-87684000D01*
X115330000Y-100274000D02*
X115330000Y-87686000D01*
X115290000Y-100272000D02*
X115290000Y-87688000D01*
X115250000Y-100270000D02*
X115250000Y-87690000D01*
X115210000Y-100268000D02*
X115210000Y-87692000D01*
X115170000Y-100265000D02*
X115170000Y-87695000D01*
X115130000Y-100262000D02*
X115130000Y-87698000D01*
X115090000Y-100259000D02*
X115090000Y-87701000D01*
X115050000Y-100256000D02*
X115050000Y-87704000D01*
X115010000Y-100252000D02*
X115010000Y-87708000D01*
X114970000Y-100248000D02*
X114970000Y-87712000D01*
X114930000Y-100244000D02*
X114930000Y-87716000D01*
X114889000Y-100239000D02*
X114889000Y-87721000D01*
X114849000Y-100235000D02*
X114849000Y-87725000D01*
X114809000Y-100230000D02*
X114809000Y-87730000D01*
X114769000Y-100225000D02*
X114769000Y-87735000D01*
X114729000Y-100219000D02*
X114729000Y-87741000D01*
X114689000Y-100213000D02*
X114689000Y-87747000D01*
X114649000Y-100207000D02*
X114649000Y-87753000D01*
X114609000Y-100201000D02*
X114609000Y-87759000D01*
X114569000Y-100195000D02*
X114569000Y-87765000D01*
X114529000Y-100188000D02*
X114529000Y-87772000D01*
X114489000Y-100181000D02*
X114489000Y-95360000D01*
X114489000Y-92600000D02*
X114489000Y-87779000D01*
X114449000Y-100173000D02*
X114449000Y-95360000D01*
X114449000Y-92600000D02*
X114449000Y-87787000D01*
X114409000Y-100166000D02*
X114409000Y-95360000D01*
X114409000Y-92600000D02*
X114409000Y-87794000D01*
X114369000Y-100158000D02*
X114369000Y-95360000D01*
X114369000Y-92600000D02*
X114369000Y-87802000D01*
X114329000Y-100150000D02*
X114329000Y-95360000D01*
X114329000Y-92600000D02*
X114329000Y-87810000D01*
X114289000Y-100142000D02*
X114289000Y-95360000D01*
X114289000Y-92600000D02*
X114289000Y-87818000D01*
X114249000Y-100133000D02*
X114249000Y-95360000D01*
X114249000Y-92600000D02*
X114249000Y-87827000D01*
X114209000Y-100124000D02*
X114209000Y-95360000D01*
X114209000Y-92600000D02*
X114209000Y-87836000D01*
X114169000Y-100115000D02*
X114169000Y-95360000D01*
X114169000Y-92600000D02*
X114169000Y-87845000D01*
X114129000Y-100105000D02*
X114129000Y-95360000D01*
X114129000Y-92600000D02*
X114129000Y-87855000D01*
X114089000Y-100096000D02*
X114089000Y-95360000D01*
X114089000Y-92600000D02*
X114089000Y-87864000D01*
X114049000Y-100086000D02*
X114049000Y-95360000D01*
X114049000Y-92600000D02*
X114049000Y-87874000D01*
X114009000Y-100075000D02*
X114009000Y-95360000D01*
X114009000Y-92600000D02*
X114009000Y-87885000D01*
X113969000Y-100065000D02*
X113969000Y-95360000D01*
X113969000Y-92600000D02*
X113969000Y-87895000D01*
X113929000Y-100054000D02*
X113929000Y-95360000D01*
X113929000Y-92600000D02*
X113929000Y-87906000D01*
X113889000Y-100043000D02*
X113889000Y-95360000D01*
X113889000Y-92600000D02*
X113889000Y-87917000D01*
X113849000Y-100031000D02*
X113849000Y-95360000D01*
X113849000Y-92600000D02*
X113849000Y-87929000D01*
X113809000Y-100020000D02*
X113809000Y-95360000D01*
X113809000Y-92600000D02*
X113809000Y-87940000D01*
X113769000Y-100008000D02*
X113769000Y-95360000D01*
X113769000Y-92600000D02*
X113769000Y-87952000D01*
X113729000Y-99995000D02*
X113729000Y-95360000D01*
X113729000Y-92600000D02*
X113729000Y-87965000D01*
X113689000Y-99983000D02*
X113689000Y-95360000D01*
X113689000Y-92600000D02*
X113689000Y-87977000D01*
X113649000Y-99970000D02*
X113649000Y-95360000D01*
X113649000Y-92600000D02*
X113649000Y-87990000D01*
X113609000Y-99957000D02*
X113609000Y-95360000D01*
X113609000Y-92600000D02*
X113609000Y-88003000D01*
X113569000Y-99943000D02*
X113569000Y-95360000D01*
X113569000Y-92600000D02*
X113569000Y-88017000D01*
X113529000Y-99930000D02*
X113529000Y-95360000D01*
X113529000Y-92600000D02*
X113529000Y-88030000D01*
X113489000Y-99916000D02*
X113489000Y-95360000D01*
X113489000Y-92600000D02*
X113489000Y-88044000D01*
X113449000Y-99901000D02*
X113449000Y-95360000D01*
X113449000Y-92600000D02*
X113449000Y-88059000D01*
X113409000Y-99887000D02*
X113409000Y-95360000D01*
X113409000Y-92600000D02*
X113409000Y-88073000D01*
X113369000Y-99872000D02*
X113369000Y-95360000D01*
X113369000Y-92600000D02*
X113369000Y-88088000D01*
X113329000Y-99856000D02*
X113329000Y-95360000D01*
X113329000Y-92600000D02*
X113329000Y-88104000D01*
X113289000Y-99841000D02*
X113289000Y-95360000D01*
X113289000Y-92600000D02*
X113289000Y-88119000D01*
X113249000Y-99825000D02*
X113249000Y-95360000D01*
X113249000Y-92600000D02*
X113249000Y-88135000D01*
X113209000Y-99809000D02*
X113209000Y-95360000D01*
X113209000Y-92600000D02*
X113209000Y-88151000D01*
X113169000Y-99792000D02*
X113169000Y-95360000D01*
X113169000Y-92600000D02*
X113169000Y-88168000D01*
X113129000Y-99775000D02*
X113129000Y-95360000D01*
X113129000Y-92600000D02*
X113129000Y-88185000D01*
X113089000Y-99758000D02*
X113089000Y-95360000D01*
X113089000Y-92600000D02*
X113089000Y-88202000D01*
X113049000Y-99741000D02*
X113049000Y-95360000D01*
X113049000Y-92600000D02*
X113049000Y-88219000D01*
X113009000Y-99723000D02*
X113009000Y-95360000D01*
X113009000Y-92600000D02*
X113009000Y-88237000D01*
X112969000Y-99705000D02*
X112969000Y-95360000D01*
X112969000Y-92600000D02*
X112969000Y-88255000D01*
X112929000Y-99686000D02*
X112929000Y-95360000D01*
X112929000Y-92600000D02*
X112929000Y-88274000D01*
X112889000Y-99667000D02*
X112889000Y-95360000D01*
X112889000Y-92600000D02*
X112889000Y-88293000D01*
X112849000Y-99648000D02*
X112849000Y-95360000D01*
X112849000Y-92600000D02*
X112849000Y-88312000D01*
X112809000Y-99629000D02*
X112809000Y-95360000D01*
X112809000Y-92600000D02*
X112809000Y-88331000D01*
X112769000Y-99609000D02*
X112769000Y-95360000D01*
X112769000Y-92600000D02*
X112769000Y-88351000D01*
X112729000Y-99589000D02*
X112729000Y-95360000D01*
X112729000Y-92600000D02*
X112729000Y-88371000D01*
X112689000Y-99568000D02*
X112689000Y-95360000D01*
X112689000Y-92600000D02*
X112689000Y-88392000D01*
X112649000Y-99547000D02*
X112649000Y-95360000D01*
X112649000Y-92600000D02*
X112649000Y-88413000D01*
X112609000Y-99526000D02*
X112609000Y-95360000D01*
X112609000Y-92600000D02*
X112609000Y-88434000D01*
X112569000Y-99504000D02*
X112569000Y-95360000D01*
X112569000Y-92600000D02*
X112569000Y-88456000D01*
X112529000Y-99482000D02*
X112529000Y-95360000D01*
X112529000Y-92600000D02*
X112529000Y-88478000D01*
X112489000Y-99460000D02*
X112489000Y-95360000D01*
X112489000Y-92600000D02*
X112489000Y-88500000D01*
X112449000Y-99437000D02*
X112449000Y-95360000D01*
X112449000Y-92600000D02*
X112449000Y-88523000D01*
X112409000Y-99414000D02*
X112409000Y-95360000D01*
X112409000Y-92600000D02*
X112409000Y-88546000D01*
X112369000Y-99390000D02*
X112369000Y-95360000D01*
X112369000Y-92600000D02*
X112369000Y-88570000D01*
X112329000Y-99366000D02*
X112329000Y-95360000D01*
X112329000Y-92600000D02*
X112329000Y-88594000D01*
X112289000Y-99342000D02*
X112289000Y-95360000D01*
X112289000Y-92600000D02*
X112289000Y-88618000D01*
X112249000Y-99317000D02*
X112249000Y-95360000D01*
X112249000Y-92600000D02*
X112249000Y-88643000D01*
X112209000Y-99292000D02*
X112209000Y-95360000D01*
X112209000Y-92600000D02*
X112209000Y-88668000D01*
X112169000Y-99266000D02*
X112169000Y-95360000D01*
X112169000Y-92600000D02*
X112169000Y-88694000D01*
X112129000Y-99240000D02*
X112129000Y-95360000D01*
X112129000Y-92600000D02*
X112129000Y-88720000D01*
X112089000Y-99214000D02*
X112089000Y-95360000D01*
X112089000Y-92600000D02*
X112089000Y-88746000D01*
X112049000Y-99187000D02*
X112049000Y-95360000D01*
X112049000Y-92600000D02*
X112049000Y-88773000D01*
X112009000Y-99159000D02*
X112009000Y-95360000D01*
X112009000Y-92600000D02*
X112009000Y-88801000D01*
X111969000Y-99131000D02*
X111969000Y-95360000D01*
X111969000Y-92600000D02*
X111969000Y-88829000D01*
X111929000Y-99103000D02*
X111929000Y-95360000D01*
X111929000Y-92600000D02*
X111929000Y-88857000D01*
X111889000Y-99074000D02*
X111889000Y-95360000D01*
X111889000Y-92600000D02*
X111889000Y-88886000D01*
X111849000Y-99045000D02*
X111849000Y-95360000D01*
X111849000Y-92600000D02*
X111849000Y-88915000D01*
X111809000Y-99015000D02*
X111809000Y-95360000D01*
X111809000Y-92600000D02*
X111809000Y-88945000D01*
X111769000Y-98985000D02*
X111769000Y-95360000D01*
X111769000Y-92600000D02*
X111769000Y-88975000D01*
X111729000Y-98955000D02*
X111729000Y-89005000D01*
X111689000Y-98923000D02*
X111689000Y-89037000D01*
X111649000Y-98892000D02*
X111649000Y-89068000D01*
X111609000Y-98859000D02*
X111609000Y-89101000D01*
X111569000Y-98827000D02*
X111569000Y-89133000D01*
X111529000Y-98793000D02*
X111529000Y-89167000D01*
X111489000Y-98759000D02*
X111489000Y-89201000D01*
X111449000Y-98725000D02*
X111449000Y-89235000D01*
X111409000Y-98690000D02*
X111409000Y-89270000D01*
X111369000Y-98654000D02*
X111369000Y-89306000D01*
X111329000Y-98618000D02*
X111329000Y-89342000D01*
X111289000Y-98581000D02*
X111289000Y-89379000D01*
X111249000Y-98543000D02*
X111249000Y-89417000D01*
X111209000Y-98505000D02*
X111209000Y-89455000D01*
X111169000Y-98466000D02*
X111169000Y-89494000D01*
X111129000Y-98427000D02*
X111129000Y-89533000D01*
X111089000Y-98386000D02*
X111089000Y-89574000D01*
X111049000Y-98345000D02*
X111049000Y-89615000D01*
X111009000Y-98303000D02*
X111009000Y-89657000D01*
X110969000Y-98261000D02*
X110969000Y-89699000D01*
X110929000Y-98218000D02*
X110929000Y-89742000D01*
X110889000Y-98173000D02*
X110889000Y-89787000D01*
X110849000Y-98128000D02*
X110849000Y-89832000D01*
X110809000Y-98082000D02*
X110809000Y-89878000D01*
X110769000Y-98036000D02*
X110769000Y-89924000D01*
X110729000Y-97988000D02*
X110729000Y-89972000D01*
X110689000Y-97939000D02*
X110689000Y-90021000D01*
X110649000Y-97889000D02*
X110649000Y-90071000D01*
X110609000Y-97839000D02*
X110609000Y-90121000D01*
X110569000Y-97787000D02*
X110569000Y-90173000D01*
X110529000Y-97734000D02*
X110529000Y-90226000D01*
X110489000Y-97680000D02*
X110489000Y-90280000D01*
X110449000Y-97624000D02*
X110449000Y-90336000D01*
X110409000Y-97568000D02*
X110409000Y-90392000D01*
X110369000Y-97510000D02*
X110369000Y-90450000D01*
X110329000Y-97450000D02*
X110329000Y-90510000D01*
X110289000Y-97389000D02*
X110289000Y-90571000D01*
X110249000Y-97327000D02*
X110249000Y-90633000D01*
X110209000Y-97262000D02*
X110209000Y-90698000D01*
X110169000Y-97197000D02*
X110169000Y-90763000D01*
X110129000Y-97129000D02*
X110129000Y-90831000D01*
X110089000Y-97059000D02*
X110089000Y-90901000D01*
X110049000Y-96987000D02*
X110049000Y-90973000D01*
X110009000Y-96913000D02*
X110009000Y-91047000D01*
X109969000Y-96836000D02*
X109969000Y-91124000D01*
X109929000Y-96757000D02*
X109929000Y-91203000D01*
X109889000Y-96675000D02*
X109889000Y-91285000D01*
X109849000Y-96590000D02*
X109849000Y-91370000D01*
X109809000Y-96501000D02*
X109809000Y-91459000D01*
X109769000Y-96408000D02*
X109769000Y-91552000D01*
X109729000Y-96311000D02*
X109729000Y-91649000D01*
X109689000Y-96210000D02*
X109689000Y-91750000D01*
X109649000Y-96102000D02*
X109649000Y-91858000D01*
X109609000Y-95989000D02*
X109609000Y-91971000D01*
X109569000Y-95868000D02*
X109569000Y-92092000D01*
X109529000Y-95737000D02*
X109529000Y-92223000D01*
X109489000Y-95596000D02*
X109489000Y-92364000D01*
X109449000Y-95440000D02*
X109449000Y-92520000D01*
X109409000Y-95265000D02*
X109409000Y-92695000D01*
X109369000Y-95062000D02*
X109369000Y-92898000D01*
X109329000Y-94811000D02*
X109329000Y-93149000D01*
X109289000Y-94444000D02*
X109289000Y-93516000D01*
X121310000Y-93980000D02*
X119510000Y-93980000D01*
X120410000Y-94880000D02*
X120410000Y-93080000D01*
X123400000Y-97310000D02*
X125520000Y-97310000D01*
X125520000Y-97310000D02*
X125520000Y-93190000D01*
X125520000Y-93190000D02*
X123400000Y-93190000D01*
X123400000Y-93190000D02*
X123400000Y-97310000D01*
X124460000Y-98080000D02*
X124460000Y-97310000D01*
X124460000Y-92420000D02*
X124460000Y-93190000D01*
X123400000Y-96650000D02*
X125520000Y-96650000D01*
X95730000Y-101810000D02*
X95730000Y-103930000D01*
X95730000Y-103930000D02*
X99850000Y-103930000D01*
X99850000Y-103930000D02*
X99850000Y-101810000D01*
X99850000Y-101810000D02*
X95730000Y-101810000D01*
X94960000Y-102870000D02*
X95730000Y-102870000D01*
X100620000Y-102870000D02*
X99850000Y-102870000D01*
X96390000Y-101810000D02*
X96390000Y-103930000D01*
X134620000Y-102870000D02*
X144780000Y-102870000D01*
X134620000Y-101600000D02*
X134620000Y-109220000D01*
X134620000Y-109220000D02*
X144780000Y-109220000D01*
X144780000Y-109220000D02*
X144780000Y-101600000D01*
X144780000Y-101600000D02*
X134620000Y-101600000D01*
X113030000Y-109220000D02*
X113030000Y-101600000D01*
X128270000Y-109220000D02*
X128270000Y-101600000D01*
X113030000Y-107950000D02*
X128270000Y-107950000D01*
X113030000Y-101600000D02*
X128270000Y-101600000D01*
X113030000Y-109220000D02*
X128270000Y-109220000D01*
X95250000Y-99060000D02*
X95250000Y-88900000D01*
X93980000Y-99060000D02*
X101600000Y-99060000D01*
X101600000Y-99060000D02*
X101600000Y-88900000D01*
X101600000Y-88900000D02*
X93980000Y-88900000D01*
X93980000Y-88900000D02*
X93980000Y-99060000D01*
X131390000Y-88160000D02*
X131390000Y-84560000D01*
X130662795Y-88684184D02*
G75*
G03X131390000Y-88160000I-1122795J2324184D01*
G01*
X128441193Y-88716400D02*
G75*
G02X126940000Y-86360000I1098807J2356400D01*
G01*
X128441193Y-84003600D02*
G75*
G03X126940000Y-86360000I1098807J-2356400D01*
G01*
X130662795Y-84035816D02*
G75*
G02X131390000Y-84560000I-1122795J-2324184D01*
G01*
X132660000Y-97050000D02*
X132660000Y-93450000D01*
X131932795Y-97574184D02*
G75*
G03X132660000Y-97050000I-1122795J2324184D01*
G01*
X129711193Y-97606400D02*
G75*
G02X128210000Y-95250000I1098807J2356400D01*
G01*
X129711193Y-92893600D02*
G75*
G03X128210000Y-95250000I1098807J-2356400D01*
G01*
X131932795Y-92925816D02*
G75*
G02X132660000Y-93450000I-1122795J-2324184D01*
G01*
X144100000Y-86430000D02*
X140380000Y-86430000D01*
X140380000Y-86430000D02*
X140380000Y-96450000D01*
X140380000Y-96450000D02*
X144100000Y-96450000D01*
X144100000Y-96450000D02*
X144100000Y-86430000D01*
X142240000Y-85200000D02*
X142240000Y-86430000D01*
X142240000Y-97680000D02*
X142240000Y-96450000D01*
X135300000Y-96450000D02*
X139020000Y-96450000D01*
X139020000Y-96450000D02*
X139020000Y-86430000D01*
X139020000Y-86430000D02*
X135300000Y-86430000D01*
X135300000Y-86430000D02*
X135300000Y-96450000D01*
X137160000Y-97680000D02*
X137160000Y-96450000D01*
X137160000Y-85200000D02*
X137160000Y-86430000D01*
X126930000Y-75520000D02*
X126930000Y-71800000D01*
X126930000Y-71800000D02*
X116910000Y-71800000D01*
X116910000Y-71800000D02*
X116910000Y-75520000D01*
X116910000Y-75520000D02*
X126930000Y-75520000D01*
X128160000Y-73660000D02*
X126930000Y-73660000D01*
X115680000Y-73660000D02*
X116910000Y-73660000D01*
X103550000Y-102800000D02*
X107270000Y-102800000D01*
X107270000Y-102800000D02*
X107270000Y-92780000D01*
X107270000Y-92780000D02*
X103550000Y-92780000D01*
X103550000Y-92780000D02*
X103550000Y-102800000D01*
X105410000Y-104030000D02*
X105410000Y-102800000D01*
X105410000Y-91550000D02*
X105410000Y-92780000D01*
X139560000Y-76160000D02*
G75*
G03X139560000Y-76160000I-1050000J0D01*
G01*
X143570000Y-81121000D02*
X133450000Y-81121000D01*
X143570000Y-71200000D02*
X133450000Y-71200000D01*
X143570000Y-81121000D02*
X143570000Y-80025000D01*
X143570000Y-77295000D02*
X143570000Y-75025000D01*
X143570000Y-72295000D02*
X143570000Y-71200000D01*
X133450000Y-81121000D02*
X133450000Y-77525000D01*
X133450000Y-74795000D02*
X133450000Y-71200000D01*
X96266000Y-109220000D02*
G75*
G03X96266000Y-109220000I-2286000J0D01*
G01*
X116910000Y-78150000D02*
X116910000Y-81870000D01*
X116910000Y-81870000D02*
X126930000Y-81870000D01*
X126930000Y-81870000D02*
X126930000Y-78150000D01*
X126930000Y-78150000D02*
X116910000Y-78150000D01*
X115680000Y-80010000D02*
X116910000Y-80010000D01*
X128160000Y-80010000D02*
X126930000Y-80010000D01*
D14*
X121793334Y-88507143D02*
X121745715Y-88554762D01*
X121602858Y-88602381D01*
X121507620Y-88602381D01*
X121364762Y-88554762D01*
X121269524Y-88459524D01*
X121221905Y-88364286D01*
X121174286Y-88173810D01*
X121174286Y-88030952D01*
X121221905Y-87840476D01*
X121269524Y-87745238D01*
X121364762Y-87650000D01*
X121507620Y-87602381D01*
X121602858Y-87602381D01*
X121745715Y-87650000D01*
X121793334Y-87697619D01*
X122745715Y-88602381D02*
X122174286Y-88602381D01*
X122460000Y-88602381D02*
X122460000Y-87602381D01*
X122364762Y-87745238D01*
X122269524Y-87840476D01*
X122174286Y-87888095D01*
X113665238Y-84177143D02*
X113712857Y-84224762D01*
X113665238Y-84272381D01*
X113617619Y-84224762D01*
X113665238Y-84177143D01*
X113665238Y-84272381D01*
X114093809Y-83367619D02*
X114141428Y-83320000D01*
X114236666Y-83272381D01*
X114474762Y-83272381D01*
X114570000Y-83320000D01*
X114617619Y-83367619D01*
X114665238Y-83462857D01*
X114665238Y-83558095D01*
X114617619Y-83700952D01*
X114046190Y-84272381D01*
X114665238Y-84272381D01*
X115046190Y-83367619D02*
X115093809Y-83320000D01*
X115189047Y-83272381D01*
X115427143Y-83272381D01*
X115522381Y-83320000D01*
X115570000Y-83367619D01*
X115617619Y-83462857D01*
X115617619Y-83558095D01*
X115570000Y-83700952D01*
X114998571Y-84272381D01*
X115617619Y-84272381D01*
X116046190Y-83605714D02*
X116046190Y-84605714D01*
X116522381Y-84129524D02*
X116570000Y-84224762D01*
X116665238Y-84272381D01*
X116046190Y-84129524D02*
X116093809Y-84224762D01*
X116189047Y-84272381D01*
X116379524Y-84272381D01*
X116474762Y-84224762D01*
X116522381Y-84129524D01*
X116522381Y-83605714D01*
X117427143Y-83748571D02*
X117093809Y-83748571D01*
X117093809Y-84272381D02*
X117093809Y-83272381D01*
X117570000Y-83272381D01*
X98147143Y-72556666D02*
X98194762Y-72604285D01*
X98242381Y-72747142D01*
X98242381Y-72842380D01*
X98194762Y-72985238D01*
X98099524Y-73080476D01*
X98004286Y-73128095D01*
X97813810Y-73175714D01*
X97670952Y-73175714D01*
X97480476Y-73128095D01*
X97385238Y-73080476D01*
X97290000Y-72985238D01*
X97242381Y-72842380D01*
X97242381Y-72747142D01*
X97290000Y-72604285D01*
X97337619Y-72556666D01*
X97337619Y-72175714D02*
X97290000Y-72128095D01*
X97242381Y-72032857D01*
X97242381Y-71794761D01*
X97290000Y-71699523D01*
X97337619Y-71651904D01*
X97432857Y-71604285D01*
X97528095Y-71604285D01*
X97670952Y-71651904D01*
X98242381Y-72223333D01*
X98242381Y-71604285D01*
X95282381Y-81569047D02*
X95282381Y-82140476D01*
X95282381Y-81854762D02*
X94282381Y-81854762D01*
X94425238Y-81950000D01*
X94520476Y-82045238D01*
X94568095Y-82140476D01*
X94282381Y-80950000D02*
X94282381Y-80854761D01*
X94330000Y-80759523D01*
X94377619Y-80711904D01*
X94472857Y-80664285D01*
X94663333Y-80616666D01*
X94901429Y-80616666D01*
X95091905Y-80664285D01*
X95187143Y-80711904D01*
X95234762Y-80759523D01*
X95282381Y-80854761D01*
X95282381Y-80950000D01*
X95234762Y-81045238D01*
X95187143Y-81092857D01*
X95091905Y-81140476D01*
X94901429Y-81188095D01*
X94663333Y-81188095D01*
X94472857Y-81140476D01*
X94377619Y-81092857D01*
X94330000Y-81045238D01*
X94282381Y-80950000D01*
X94282381Y-79997619D02*
X94282381Y-79902380D01*
X94330000Y-79807142D01*
X94377619Y-79759523D01*
X94472857Y-79711904D01*
X94663333Y-79664285D01*
X94901429Y-79664285D01*
X95091905Y-79711904D01*
X95187143Y-79759523D01*
X95234762Y-79807142D01*
X95282381Y-79902380D01*
X95282381Y-79997619D01*
X95234762Y-80092857D01*
X95187143Y-80140476D01*
X95091905Y-80188095D01*
X94901429Y-80235714D01*
X94663333Y-80235714D01*
X94472857Y-80188095D01*
X94377619Y-80140476D01*
X94330000Y-80092857D01*
X94282381Y-79997619D01*
X94615714Y-79235714D02*
X95615714Y-79235714D01*
X95139524Y-78759523D02*
X95234762Y-78711904D01*
X95282381Y-78616666D01*
X95139524Y-79235714D02*
X95234762Y-79188095D01*
X95282381Y-79092857D01*
X95282381Y-78902380D01*
X95234762Y-78807142D01*
X95139524Y-78759523D01*
X94615714Y-78759523D01*
X94758571Y-77854761D02*
X94758571Y-78188095D01*
X95282381Y-78188095D02*
X94282381Y-78188095D01*
X94282381Y-77711904D01*
X110323334Y-100687143D02*
X110275715Y-100734762D01*
X110132858Y-100782381D01*
X110037620Y-100782381D01*
X109894762Y-100734762D01*
X109799524Y-100639524D01*
X109751905Y-100544286D01*
X109704286Y-100353810D01*
X109704286Y-100210952D01*
X109751905Y-100020476D01*
X109799524Y-99925238D01*
X109894762Y-99830000D01*
X110037620Y-99782381D01*
X110132858Y-99782381D01*
X110275715Y-99830000D01*
X110323334Y-99877619D01*
X110656667Y-99782381D02*
X111275715Y-99782381D01*
X110942381Y-100163333D01*
X111085239Y-100163333D01*
X111180477Y-100210952D01*
X111228096Y-100258571D01*
X111275715Y-100353810D01*
X111275715Y-100591905D01*
X111228096Y-100687143D01*
X111180477Y-100734762D01*
X111085239Y-100782381D01*
X110799524Y-100782381D01*
X110704286Y-100734762D01*
X110656667Y-100687143D01*
X114371905Y-86205714D02*
X114371905Y-86872381D01*
X114133809Y-85824762D02*
X113895714Y-86539048D01*
X114514762Y-86539048D01*
X114800476Y-85872381D02*
X115467143Y-85872381D01*
X115038571Y-86872381D01*
X115848095Y-86205714D02*
X115848095Y-87205714D01*
X116324286Y-86729524D02*
X116371905Y-86824762D01*
X116467143Y-86872381D01*
X115848095Y-86729524D02*
X115895714Y-86824762D01*
X115990952Y-86872381D01*
X116181429Y-86872381D01*
X116276667Y-86824762D01*
X116324286Y-86729524D01*
X116324286Y-86205714D01*
X117229048Y-86348571D02*
X116895714Y-86348571D01*
X116895714Y-86872381D02*
X116895714Y-85872381D01*
X117371905Y-85872381D01*
X122852381Y-95988095D02*
X121852381Y-95988095D01*
X121852381Y-95750000D01*
X121900000Y-95607142D01*
X121995238Y-95511904D01*
X122090476Y-95464285D01*
X122280952Y-95416666D01*
X122423810Y-95416666D01*
X122614286Y-95464285D01*
X122709524Y-95511904D01*
X122804762Y-95607142D01*
X122852381Y-95750000D01*
X122852381Y-95988095D01*
X122852381Y-94464285D02*
X122852381Y-95035714D01*
X122852381Y-94750000D02*
X121852381Y-94750000D01*
X121995238Y-94845238D01*
X122090476Y-94940476D01*
X122138095Y-95035714D01*
X126972381Y-97392857D02*
X126972381Y-97964286D01*
X126972381Y-97678572D02*
X125972381Y-97678572D01*
X126115238Y-97773810D01*
X126210476Y-97869048D01*
X126258095Y-97964286D01*
X126972381Y-96964286D02*
X125972381Y-96964286D01*
X126972381Y-96392857D01*
X125972381Y-96392857D01*
X126305714Y-95488095D02*
X126972381Y-95488095D01*
X125924762Y-95726191D02*
X126639048Y-95964286D01*
X126639048Y-95345238D01*
X125972381Y-94773810D02*
X125972381Y-94678571D01*
X126020000Y-94583333D01*
X126067619Y-94535714D01*
X126162857Y-94488095D01*
X126353333Y-94440476D01*
X126591429Y-94440476D01*
X126781905Y-94488095D01*
X126877143Y-94535714D01*
X126924762Y-94583333D01*
X126972381Y-94678571D01*
X126972381Y-94773810D01*
X126924762Y-94869048D01*
X126877143Y-94916667D01*
X126781905Y-94964286D01*
X126591429Y-95011905D01*
X126353333Y-95011905D01*
X126162857Y-94964286D01*
X126067619Y-94916667D01*
X126020000Y-94869048D01*
X125972381Y-94773810D01*
X125972381Y-93821429D02*
X125972381Y-93726190D01*
X126020000Y-93630952D01*
X126067619Y-93583333D01*
X126162857Y-93535714D01*
X126353333Y-93488095D01*
X126591429Y-93488095D01*
X126781905Y-93535714D01*
X126877143Y-93583333D01*
X126924762Y-93630952D01*
X126972381Y-93726190D01*
X126972381Y-93821429D01*
X126924762Y-93916667D01*
X126877143Y-93964286D01*
X126781905Y-94011905D01*
X126591429Y-94059524D01*
X126353333Y-94059524D01*
X126162857Y-94011905D01*
X126067619Y-93964286D01*
X126020000Y-93916667D01*
X125972381Y-93821429D01*
X125972381Y-93154762D02*
X125972381Y-92488095D01*
X126972381Y-92916667D01*
X97051905Y-101262381D02*
X97051905Y-100262381D01*
X97290000Y-100262381D01*
X97432858Y-100310000D01*
X97528096Y-100405238D01*
X97575715Y-100500476D01*
X97623334Y-100690952D01*
X97623334Y-100833810D01*
X97575715Y-101024286D01*
X97528096Y-101119524D01*
X97432858Y-101214762D01*
X97290000Y-101262381D01*
X97051905Y-101262381D01*
X98004286Y-100357619D02*
X98051905Y-100310000D01*
X98147143Y-100262381D01*
X98385239Y-100262381D01*
X98480477Y-100310000D01*
X98528096Y-100357619D01*
X98575715Y-100452857D01*
X98575715Y-100548095D01*
X98528096Y-100690952D01*
X97956667Y-101262381D01*
X98575715Y-101262381D01*
X95647143Y-105382381D02*
X95075714Y-105382381D01*
X95361428Y-105382381D02*
X95361428Y-104382381D01*
X95266190Y-104525238D01*
X95170952Y-104620476D01*
X95075714Y-104668095D01*
X96075714Y-105382381D02*
X96075714Y-104382381D01*
X96647143Y-105382381D01*
X96647143Y-104382381D01*
X97551905Y-104715714D02*
X97551905Y-105382381D01*
X97313809Y-104334762D02*
X97075714Y-105049048D01*
X97694762Y-105049048D01*
X98266190Y-104382381D02*
X98361429Y-104382381D01*
X98456667Y-104430000D01*
X98504286Y-104477619D01*
X98551905Y-104572857D01*
X98599524Y-104763333D01*
X98599524Y-105001429D01*
X98551905Y-105191905D01*
X98504286Y-105287143D01*
X98456667Y-105334762D01*
X98361429Y-105382381D01*
X98266190Y-105382381D01*
X98170952Y-105334762D01*
X98123333Y-105287143D01*
X98075714Y-105191905D01*
X98028095Y-105001429D01*
X98028095Y-104763333D01*
X98075714Y-104572857D01*
X98123333Y-104477619D01*
X98170952Y-104430000D01*
X98266190Y-104382381D01*
X99218571Y-104382381D02*
X99313810Y-104382381D01*
X99409048Y-104430000D01*
X99456667Y-104477619D01*
X99504286Y-104572857D01*
X99551905Y-104763333D01*
X99551905Y-105001429D01*
X99504286Y-105191905D01*
X99456667Y-105287143D01*
X99409048Y-105334762D01*
X99313810Y-105382381D01*
X99218571Y-105382381D01*
X99123333Y-105334762D01*
X99075714Y-105287143D01*
X99028095Y-105191905D01*
X98980476Y-105001429D01*
X98980476Y-104763333D01*
X99028095Y-104572857D01*
X99075714Y-104477619D01*
X99123333Y-104430000D01*
X99218571Y-104382381D01*
X99885238Y-104382381D02*
X100551905Y-104382381D01*
X100123333Y-105382381D01*
X133016667Y-104862381D02*
X133016667Y-105576667D01*
X132969047Y-105719524D01*
X132873809Y-105814762D01*
X132730952Y-105862381D01*
X132635714Y-105862381D01*
X134016667Y-105862381D02*
X133445238Y-105862381D01*
X133730952Y-105862381D02*
X133730952Y-104862381D01*
X133635714Y-105005238D01*
X133540476Y-105100476D01*
X133445238Y-105148095D01*
X120286667Y-100212381D02*
X120286667Y-100926667D01*
X120239047Y-101069524D01*
X120143809Y-101164762D01*
X120000952Y-101212381D01*
X119905714Y-101212381D01*
X120715238Y-100307619D02*
X120762857Y-100260000D01*
X120858095Y-100212381D01*
X121096191Y-100212381D01*
X121191429Y-100260000D01*
X121239048Y-100307619D01*
X121286667Y-100402857D01*
X121286667Y-100498095D01*
X121239048Y-100640952D01*
X120667619Y-101212381D01*
X121286667Y-101212381D01*
X102322381Y-94313333D02*
X103036667Y-94313333D01*
X103179524Y-94360953D01*
X103274762Y-94456191D01*
X103322381Y-94599048D01*
X103322381Y-94694286D01*
X102322381Y-93932381D02*
X102322381Y-93313333D01*
X102703333Y-93646667D01*
X102703333Y-93503809D01*
X102750952Y-93408571D01*
X102798571Y-93360952D01*
X102893810Y-93313333D01*
X103131905Y-93313333D01*
X103227143Y-93360952D01*
X103274762Y-93408571D01*
X103322381Y-93503809D01*
X103322381Y-93789524D01*
X103274762Y-93884762D01*
X103227143Y-93932381D01*
X127547619Y-90265238D02*
X127500000Y-90360476D01*
X127404762Y-90455714D01*
X127261905Y-90598571D01*
X127214286Y-90693810D01*
X127214286Y-90789048D01*
X127452381Y-90741429D02*
X127404762Y-90836667D01*
X127309524Y-90931905D01*
X127119048Y-90979524D01*
X126785714Y-90979524D01*
X126595238Y-90931905D01*
X126500000Y-90836667D01*
X126452381Y-90741429D01*
X126452381Y-90550952D01*
X126500000Y-90455714D01*
X126595238Y-90360476D01*
X126785714Y-90312857D01*
X127119048Y-90312857D01*
X127309524Y-90360476D01*
X127404762Y-90455714D01*
X127452381Y-90550952D01*
X127452381Y-90741429D01*
X127452381Y-89360476D02*
X127452381Y-89931905D01*
X127452381Y-89646191D02*
X126452381Y-89646191D01*
X126595238Y-89741429D01*
X126690476Y-89836667D01*
X126738095Y-89931905D01*
X132782381Y-89431429D02*
X131782381Y-89431429D01*
X132782381Y-88860000D02*
X132210952Y-89288572D01*
X131782381Y-88860000D02*
X132353810Y-89431429D01*
X132734762Y-88479048D02*
X132782381Y-88336191D01*
X132782381Y-88098095D01*
X132734762Y-88002857D01*
X132687143Y-87955238D01*
X132591905Y-87907619D01*
X132496667Y-87907619D01*
X132401429Y-87955238D01*
X132353810Y-88002857D01*
X132306190Y-88098095D01*
X132258571Y-88288572D01*
X132210952Y-88383810D01*
X132163333Y-88431429D01*
X132068095Y-88479048D01*
X131972857Y-88479048D01*
X131877619Y-88431429D01*
X131830000Y-88383810D01*
X131782381Y-88288572D01*
X131782381Y-88050476D01*
X131830000Y-87907619D01*
X132496667Y-87526667D02*
X132496667Y-87050476D01*
X132782381Y-87621905D02*
X131782381Y-87288572D01*
X132782381Y-86955238D01*
X132782381Y-86098095D02*
X132782381Y-86669524D01*
X132782381Y-86383810D02*
X131782381Y-86383810D01*
X131925238Y-86479048D01*
X132020476Y-86574286D01*
X132068095Y-86669524D01*
X131782381Y-85479048D02*
X131782381Y-85383809D01*
X131830000Y-85288571D01*
X131877619Y-85240952D01*
X131972857Y-85193333D01*
X132163333Y-85145714D01*
X132401429Y-85145714D01*
X132591905Y-85193333D01*
X132687143Y-85240952D01*
X132734762Y-85288571D01*
X132782381Y-85383809D01*
X132782381Y-85479048D01*
X132734762Y-85574286D01*
X132687143Y-85621905D01*
X132591905Y-85669524D01*
X132401429Y-85717143D01*
X132163333Y-85717143D01*
X131972857Y-85669524D01*
X131877619Y-85621905D01*
X131830000Y-85574286D01*
X131782381Y-85479048D01*
X132782381Y-84193333D02*
X132782381Y-84764762D01*
X132782381Y-84479048D02*
X131782381Y-84479048D01*
X131925238Y-84574286D01*
X132020476Y-84669524D01*
X132068095Y-84764762D01*
X131782381Y-83860000D02*
X131782381Y-83240952D01*
X132163333Y-83574286D01*
X132163333Y-83431428D01*
X132210952Y-83336190D01*
X132258571Y-83288571D01*
X132353810Y-83240952D01*
X132591905Y-83240952D01*
X132687143Y-83288571D01*
X132734762Y-83336190D01*
X132782381Y-83431428D01*
X132782381Y-83717143D01*
X132734762Y-83812381D01*
X132687143Y-83860000D01*
X128817619Y-99155238D02*
X128770000Y-99250476D01*
X128674762Y-99345714D01*
X128531905Y-99488571D01*
X128484286Y-99583810D01*
X128484286Y-99679048D01*
X128722381Y-99631429D02*
X128674762Y-99726667D01*
X128579524Y-99821905D01*
X128389048Y-99869524D01*
X128055714Y-99869524D01*
X127865238Y-99821905D01*
X127770000Y-99726667D01*
X127722381Y-99631429D01*
X127722381Y-99440952D01*
X127770000Y-99345714D01*
X127865238Y-99250476D01*
X128055714Y-99202857D01*
X128389048Y-99202857D01*
X128579524Y-99250476D01*
X128674762Y-99345714D01*
X128722381Y-99440952D01*
X128722381Y-99631429D01*
X127817619Y-98821905D02*
X127770000Y-98774286D01*
X127722381Y-98679048D01*
X127722381Y-98440952D01*
X127770000Y-98345714D01*
X127817619Y-98298095D01*
X127912857Y-98250476D01*
X128008095Y-98250476D01*
X128150952Y-98298095D01*
X128722381Y-98869524D01*
X128722381Y-98250476D01*
X134052381Y-98321429D02*
X133052381Y-98321429D01*
X134052381Y-97750000D02*
X133480952Y-98178572D01*
X133052381Y-97750000D02*
X133623810Y-98321429D01*
X134004762Y-97369048D02*
X134052381Y-97226191D01*
X134052381Y-96988095D01*
X134004762Y-96892857D01*
X133957143Y-96845238D01*
X133861905Y-96797619D01*
X133766667Y-96797619D01*
X133671429Y-96845238D01*
X133623810Y-96892857D01*
X133576190Y-96988095D01*
X133528571Y-97178572D01*
X133480952Y-97273810D01*
X133433333Y-97321429D01*
X133338095Y-97369048D01*
X133242857Y-97369048D01*
X133147619Y-97321429D01*
X133100000Y-97273810D01*
X133052381Y-97178572D01*
X133052381Y-96940476D01*
X133100000Y-96797619D01*
X133766667Y-96416667D02*
X133766667Y-95940476D01*
X134052381Y-96511905D02*
X133052381Y-96178572D01*
X134052381Y-95845238D01*
X134052381Y-94988095D02*
X134052381Y-95559524D01*
X134052381Y-95273810D02*
X133052381Y-95273810D01*
X133195238Y-95369048D01*
X133290476Y-95464286D01*
X133338095Y-95559524D01*
X133052381Y-94369048D02*
X133052381Y-94273809D01*
X133100000Y-94178571D01*
X133147619Y-94130952D01*
X133242857Y-94083333D01*
X133433333Y-94035714D01*
X133671429Y-94035714D01*
X133861905Y-94083333D01*
X133957143Y-94130952D01*
X134004762Y-94178571D01*
X134052381Y-94273809D01*
X134052381Y-94369048D01*
X134004762Y-94464286D01*
X133957143Y-94511905D01*
X133861905Y-94559524D01*
X133671429Y-94607143D01*
X133433333Y-94607143D01*
X133242857Y-94559524D01*
X133147619Y-94511905D01*
X133100000Y-94464286D01*
X133052381Y-94369048D01*
X134052381Y-93083333D02*
X134052381Y-93654762D01*
X134052381Y-93369048D02*
X133052381Y-93369048D01*
X133195238Y-93464286D01*
X133290476Y-93559524D01*
X133338095Y-93654762D01*
X133052381Y-92750000D02*
X133052381Y-92130952D01*
X133433333Y-92464286D01*
X133433333Y-92321428D01*
X133480952Y-92226190D01*
X133528571Y-92178571D01*
X133623810Y-92130952D01*
X133861905Y-92130952D01*
X133957143Y-92178571D01*
X134004762Y-92226190D01*
X134052381Y-92321428D01*
X134052381Y-92607143D01*
X134004762Y-92702381D01*
X133957143Y-92750000D01*
X145552381Y-91606666D02*
X145076190Y-91940000D01*
X145552381Y-92178095D02*
X144552381Y-92178095D01*
X144552381Y-91797142D01*
X144600000Y-91701904D01*
X144647619Y-91654285D01*
X144742857Y-91606666D01*
X144885714Y-91606666D01*
X144980952Y-91654285D01*
X145028571Y-91701904D01*
X145076190Y-91797142D01*
X145076190Y-92178095D01*
X145552381Y-90654285D02*
X145552381Y-91225714D01*
X145552381Y-90940000D02*
X144552381Y-90940000D01*
X144695238Y-91035238D01*
X144790476Y-91130476D01*
X144838095Y-91225714D01*
X135072381Y-89066666D02*
X134596190Y-89400000D01*
X135072381Y-89638095D02*
X134072381Y-89638095D01*
X134072381Y-89257142D01*
X134120000Y-89161904D01*
X134167619Y-89114285D01*
X134262857Y-89066666D01*
X134405714Y-89066666D01*
X134500952Y-89114285D01*
X134548571Y-89161904D01*
X134596190Y-89257142D01*
X134596190Y-89638095D01*
X134167619Y-88685714D02*
X134120000Y-88638095D01*
X134072381Y-88542857D01*
X134072381Y-88304761D01*
X134120000Y-88209523D01*
X134167619Y-88161904D01*
X134262857Y-88114285D01*
X134358095Y-88114285D01*
X134500952Y-88161904D01*
X135072381Y-88733333D01*
X135072381Y-88114285D01*
X119213334Y-76652381D02*
X118880000Y-76176190D01*
X118641905Y-76652381D02*
X118641905Y-75652381D01*
X119022858Y-75652381D01*
X119118096Y-75700000D01*
X119165715Y-75747619D01*
X119213334Y-75842857D01*
X119213334Y-75985714D01*
X119165715Y-76080952D01*
X119118096Y-76128571D01*
X119022858Y-76176190D01*
X118641905Y-76176190D01*
X119546667Y-75652381D02*
X120165715Y-75652381D01*
X119832381Y-76033333D01*
X119975239Y-76033333D01*
X120070477Y-76080952D01*
X120118096Y-76128571D01*
X120165715Y-76223810D01*
X120165715Y-76461905D01*
X120118096Y-76557143D01*
X120070477Y-76604762D01*
X119975239Y-76652381D01*
X119689524Y-76652381D01*
X119594286Y-76604762D01*
X119546667Y-76557143D01*
X103002381Y-97956666D02*
X102526190Y-98290000D01*
X103002381Y-98528095D02*
X102002381Y-98528095D01*
X102002381Y-98147142D01*
X102050000Y-98051904D01*
X102097619Y-98004285D01*
X102192857Y-97956666D01*
X102335714Y-97956666D01*
X102430952Y-98004285D01*
X102478571Y-98051904D01*
X102526190Y-98147142D01*
X102526190Y-98528095D01*
X102335714Y-97099523D02*
X103002381Y-97099523D01*
X101954762Y-97337619D02*
X102669048Y-97575714D01*
X102669048Y-96956666D01*
X145454762Y-76652381D02*
X145121428Y-76176190D01*
X144883333Y-76652381D02*
X144883333Y-75652381D01*
X145264286Y-75652381D01*
X145359524Y-75700000D01*
X145407143Y-75747619D01*
X145454762Y-75842857D01*
X145454762Y-75985714D01*
X145407143Y-76080952D01*
X145359524Y-76128571D01*
X145264286Y-76176190D01*
X144883333Y-76176190D01*
X145740476Y-75652381D02*
X146073809Y-76652381D01*
X146407143Y-75652381D01*
X147264286Y-76652381D02*
X146692857Y-76652381D01*
X146978571Y-76652381D02*
X146978571Y-75652381D01*
X146883333Y-75795238D01*
X146788095Y-75890476D01*
X146692857Y-75938095D01*
X121753334Y-77602381D02*
X121420000Y-77126190D01*
X121181905Y-77602381D02*
X121181905Y-76602381D01*
X121562858Y-76602381D01*
X121658096Y-76650000D01*
X121705715Y-76697619D01*
X121753334Y-76792857D01*
X121753334Y-76935714D01*
X121705715Y-77030952D01*
X121658096Y-77078571D01*
X121562858Y-77126190D01*
X121181905Y-77126190D01*
X122658096Y-76602381D02*
X122181905Y-76602381D01*
X122134286Y-77078571D01*
X122181905Y-77030952D01*
X122277143Y-76983333D01*
X122515239Y-76983333D01*
X122610477Y-77030952D01*
X122658096Y-77078571D01*
X122705715Y-77173810D01*
X122705715Y-77411905D01*
X122658096Y-77507143D01*
X122610477Y-77554762D01*
X122515239Y-77602381D01*
X122277143Y-77602381D01*
X122181905Y-77554762D01*
X122134286Y-77507143D01*
M02*
