G04 #@! TF.FileFunction,Copper,L1,Top,Signal*
%FSLAX46Y46*%
G04 Gerber Fmt 4.6, Leading zero omitted, Abs format (unit mm)*
G04 Created by KiCad (PCBNEW 4.0.7) date Sunday, September 23, 2018 'PMt' 01:21:38 PM*
%MOMM*%
%LPD*%
G01*
G04 APERTURE LIST*
%ADD10C,0.100000*%
%ADD11C,4.064000*%
%ADD12C,1.600000*%
%ADD13R,2.400000X2.400000*%
%ADD14C,2.400000*%
%ADD15R,1.600000X1.600000*%
%ADD16O,1.600000X1.600000*%
%ADD17R,3.000000X3.000000*%
%ADD18C,3.000000*%
%ADD19C,1.520000*%
%ADD20R,1.520000X1.520000*%
%ADD21O,2.400000X2.400000*%
%ADD22C,2.340000*%
%ADD23C,0.500000*%
G04 APERTURE END LIST*
D10*
D11*
X148590000Y-109220000D03*
X148590000Y-72390000D03*
X93980000Y-72390000D03*
D12*
X124460000Y-85090000D03*
X119460000Y-85090000D03*
D13*
X104140000Y-76200000D03*
D14*
X104140000Y-83700000D03*
D13*
X118110000Y-93980000D03*
D14*
X113110000Y-93980000D03*
D15*
X124460000Y-99060000D03*
D16*
X124460000Y-91440000D03*
D15*
X93980000Y-102870000D03*
D16*
X101600000Y-102870000D03*
D17*
X142240000Y-105410000D03*
D18*
X137160000Y-105410000D03*
D17*
X115570000Y-105410000D03*
D18*
X120650000Y-105410000D03*
X125730000Y-105410000D03*
D17*
X97790000Y-91440000D03*
D18*
X97790000Y-96520000D03*
D19*
X129540000Y-86360000D03*
X129540000Y-83820000D03*
D20*
X129540000Y-88900000D03*
D19*
X130810000Y-95250000D03*
X130810000Y-92710000D03*
D20*
X130810000Y-97790000D03*
D14*
X142240000Y-83820000D03*
D21*
X142240000Y-99060000D03*
D14*
X137160000Y-99060000D03*
D21*
X137160000Y-83820000D03*
D14*
X129540000Y-73660000D03*
D21*
X114300000Y-73660000D03*
D14*
X105410000Y-105410000D03*
D21*
X105410000Y-90170000D03*
D22*
X143510000Y-78660000D03*
X133510000Y-76160000D03*
X143510000Y-73660000D03*
D11*
X93980000Y-109220000D03*
D14*
X114300000Y-80010000D03*
D21*
X129540000Y-80010000D03*
D23*
X124460000Y-91440000D02*
X124460000Y-85090000D01*
X143510000Y-78660000D02*
X142320000Y-78660000D01*
X142320000Y-78660000D02*
X137160000Y-83820000D01*
X93980000Y-102870000D02*
X93980000Y-100330000D01*
X93980000Y-100330000D02*
X97790000Y-96520000D01*
X142240000Y-105410000D02*
X142240000Y-99060000D01*
X137160000Y-105410000D02*
X142240000Y-105410000D01*
X129540000Y-86360000D02*
X130810000Y-86360000D01*
X130810000Y-86360000D02*
X132080000Y-85090000D01*
X118110000Y-77470000D02*
X114300000Y-73660000D01*
X130810000Y-77470000D02*
X118110000Y-77470000D01*
X132080000Y-78740000D02*
X130810000Y-77470000D01*
X132080000Y-85090000D02*
X132080000Y-78740000D01*
X130810000Y-92710000D02*
X130810000Y-91440000D01*
X132080000Y-87630000D02*
X130810000Y-86360000D01*
X132080000Y-90170000D02*
X132080000Y-87630000D01*
X130810000Y-91440000D02*
X132080000Y-90170000D01*
X105410000Y-105410000D02*
X107950000Y-105410000D01*
X132080000Y-92710000D02*
X130810000Y-92710000D01*
X133350000Y-93980000D02*
X132080000Y-92710000D01*
X133350000Y-99060000D02*
X133350000Y-93980000D01*
X130810000Y-101600000D02*
X133350000Y-99060000D01*
X111760000Y-101600000D02*
X130810000Y-101600000D01*
X107950000Y-105410000D02*
X111760000Y-101600000D01*
X104140000Y-83700000D02*
X110610000Y-83700000D01*
X110610000Y-83700000D02*
X114300000Y-80010000D01*
X101600000Y-102870000D02*
X101600000Y-106680000D01*
X121920000Y-109220000D02*
X125730000Y-105410000D01*
X104140000Y-109220000D02*
X121920000Y-109220000D01*
X101600000Y-106680000D02*
X104140000Y-109220000D01*
X101600000Y-102870000D02*
X101600000Y-86240000D01*
X101600000Y-86240000D02*
X104140000Y-83700000D01*
X130810000Y-95250000D02*
X127000000Y-91440000D01*
X127000000Y-82550000D02*
X129540000Y-80010000D01*
X127000000Y-91440000D02*
X127000000Y-82550000D01*
X113110000Y-93980000D02*
X113110000Y-94060000D01*
X113110000Y-94060000D02*
X115570000Y-96520000D01*
X128270000Y-95250000D02*
X130810000Y-95250000D01*
X127000000Y-96520000D02*
X128270000Y-95250000D01*
X115570000Y-96520000D02*
X127000000Y-96520000D01*
X105410000Y-90170000D02*
X109300000Y-90170000D01*
X109300000Y-90170000D02*
X113110000Y-93980000D01*
X142240000Y-83820000D02*
X142240000Y-93980000D01*
X142240000Y-93980000D02*
X137160000Y-99060000D01*
X133510000Y-76160000D02*
X132040000Y-76160000D01*
X132040000Y-76160000D02*
X129540000Y-73660000D01*
X143510000Y-73660000D02*
X136010000Y-73660000D01*
X136010000Y-73660000D02*
X133510000Y-76160000D01*
M02*
