G04 #@! TF.GenerationSoftware,KiCad,Pcbnew,(5.1.4-0-10_14)*
G04 #@! TF.CreationDate,2019-09-21T10:22:50-07:00*
G04 #@! TF.ProjectId,9A_9AJ_Heater_Helper,39415f39-414a-45f4-9865-617465725f48,1.0*
G04 #@! TF.SameCoordinates,Original*
G04 #@! TF.FileFunction,Soldermask,Bot*
G04 #@! TF.FilePolarity,Negative*
%FSLAX46Y46*%
G04 Gerber Fmt 4.6, Leading zero omitted, Abs format (unit mm)*
G04 Created by KiCad (PCBNEW (5.1.4-0-10_14)) date 2019-09-21 10:22:50*
%MOMM*%
%LPD*%
G04 APERTURE LIST*
%ADD10C,0.100000*%
G04 APERTURE END LIST*
D10*
G36*
X155574239Y-118731467D02*
G01*
X155888282Y-118793934D01*
X156479926Y-119039001D01*
X157012392Y-119394784D01*
X157465216Y-119847608D01*
X157820999Y-120380074D01*
X158066066Y-120971718D01*
X158191000Y-121599804D01*
X158191000Y-122240196D01*
X158066066Y-122868282D01*
X157820999Y-123459926D01*
X157465216Y-123992392D01*
X157012392Y-124445216D01*
X156479926Y-124800999D01*
X155888282Y-125046066D01*
X155574239Y-125108533D01*
X155260197Y-125171000D01*
X154619803Y-125171000D01*
X154305761Y-125108533D01*
X153991718Y-125046066D01*
X153400074Y-124800999D01*
X152867608Y-124445216D01*
X152414784Y-123992392D01*
X152059001Y-123459926D01*
X151813934Y-122868282D01*
X151689000Y-122240196D01*
X151689000Y-121599804D01*
X151813934Y-120971718D01*
X152059001Y-120380074D01*
X152414784Y-119847608D01*
X152867608Y-119394784D01*
X153400074Y-119039001D01*
X153991718Y-118793934D01*
X154305761Y-118731467D01*
X154619803Y-118669000D01*
X155260197Y-118669000D01*
X155574239Y-118731467D01*
X155574239Y-118731467D01*
G37*
G36*
X130174239Y-118731467D02*
G01*
X130488282Y-118793934D01*
X131079926Y-119039001D01*
X131612392Y-119394784D01*
X132065216Y-119847608D01*
X132420999Y-120380074D01*
X132666066Y-120971718D01*
X132791000Y-121599804D01*
X132791000Y-122240196D01*
X132666066Y-122868282D01*
X132420999Y-123459926D01*
X132065216Y-123992392D01*
X131612392Y-124445216D01*
X131079926Y-124800999D01*
X130488282Y-125046066D01*
X130174239Y-125108533D01*
X129860197Y-125171000D01*
X129219803Y-125171000D01*
X128905761Y-125108533D01*
X128591718Y-125046066D01*
X128000074Y-124800999D01*
X127467608Y-124445216D01*
X127014784Y-123992392D01*
X126659001Y-123459926D01*
X126413934Y-122868282D01*
X126289000Y-122240196D01*
X126289000Y-121599804D01*
X126413934Y-120971718D01*
X126659001Y-120380074D01*
X127014784Y-119847608D01*
X127467608Y-119394784D01*
X128000074Y-119039001D01*
X128591718Y-118793934D01*
X128905761Y-118731467D01*
X129219803Y-118669000D01*
X129860197Y-118669000D01*
X130174239Y-118731467D01*
X130174239Y-118731467D01*
G37*
G36*
X138711000Y-122201000D02*
G01*
X135609000Y-122201000D01*
X135609000Y-119099000D01*
X138711000Y-119099000D01*
X138711000Y-122201000D01*
X138711000Y-122201000D01*
G37*
G36*
X147622585Y-119128802D02*
G01*
X147772410Y-119158604D01*
X148054674Y-119275521D01*
X148308705Y-119445259D01*
X148524741Y-119661295D01*
X148694479Y-119915326D01*
X148811396Y-120197590D01*
X148871000Y-120497240D01*
X148871000Y-120802760D01*
X148811396Y-121102410D01*
X148694479Y-121384674D01*
X148524741Y-121638705D01*
X148308705Y-121854741D01*
X148054674Y-122024479D01*
X147772410Y-122141396D01*
X147622585Y-122171198D01*
X147472761Y-122201000D01*
X147167239Y-122201000D01*
X147017415Y-122171198D01*
X146867590Y-122141396D01*
X146585326Y-122024479D01*
X146331295Y-121854741D01*
X146115259Y-121638705D01*
X145945521Y-121384674D01*
X145828604Y-121102410D01*
X145769000Y-120802760D01*
X145769000Y-120497240D01*
X145828604Y-120197590D01*
X145945521Y-119915326D01*
X146115259Y-119661295D01*
X146331295Y-119445259D01*
X146585326Y-119275521D01*
X146867590Y-119158604D01*
X147017415Y-119128802D01*
X147167239Y-119099000D01*
X147472761Y-119099000D01*
X147622585Y-119128802D01*
X147622585Y-119128802D01*
G37*
G36*
X142542585Y-119128802D02*
G01*
X142692410Y-119158604D01*
X142974674Y-119275521D01*
X143228705Y-119445259D01*
X143444741Y-119661295D01*
X143614479Y-119915326D01*
X143731396Y-120197590D01*
X143791000Y-120497240D01*
X143791000Y-120802760D01*
X143731396Y-121102410D01*
X143614479Y-121384674D01*
X143444741Y-121638705D01*
X143228705Y-121854741D01*
X142974674Y-122024479D01*
X142692410Y-122141396D01*
X142542585Y-122171198D01*
X142392761Y-122201000D01*
X142087239Y-122201000D01*
X141937415Y-122171198D01*
X141787590Y-122141396D01*
X141505326Y-122024479D01*
X141251295Y-121854741D01*
X141035259Y-121638705D01*
X140865521Y-121384674D01*
X140748604Y-121102410D01*
X140689000Y-120802760D01*
X140689000Y-120497240D01*
X140748604Y-120197590D01*
X140865521Y-119915326D01*
X141035259Y-119661295D01*
X141251295Y-119445259D01*
X141505326Y-119275521D01*
X141787590Y-119158604D01*
X141937415Y-119128802D01*
X142087239Y-119099000D01*
X142392761Y-119099000D01*
X142542585Y-119128802D01*
X142542585Y-119128802D01*
G37*
G36*
X146429487Y-105428996D02*
G01*
X146666253Y-105527068D01*
X146666255Y-105527069D01*
X146879339Y-105669447D01*
X147060553Y-105850661D01*
X147202932Y-106063747D01*
X147301004Y-106300513D01*
X147351000Y-106551861D01*
X147351000Y-106808139D01*
X147301004Y-107059487D01*
X147202932Y-107296253D01*
X147202931Y-107296255D01*
X147060553Y-107509339D01*
X146879339Y-107690553D01*
X146666255Y-107832931D01*
X146666254Y-107832932D01*
X146666253Y-107832932D01*
X146429487Y-107931004D01*
X146178139Y-107981000D01*
X145921861Y-107981000D01*
X145670513Y-107931004D01*
X145433747Y-107832932D01*
X145433746Y-107832932D01*
X145433745Y-107832931D01*
X145220661Y-107690553D01*
X145039447Y-107509339D01*
X144897069Y-107296255D01*
X144897068Y-107296253D01*
X144798996Y-107059487D01*
X144749000Y-106808139D01*
X144749000Y-106551861D01*
X144798996Y-106300513D01*
X144897068Y-106063747D01*
X145039447Y-105850661D01*
X145220661Y-105669447D01*
X145433745Y-105527069D01*
X145433747Y-105527068D01*
X145670513Y-105428996D01*
X145921861Y-105379000D01*
X146178139Y-105379000D01*
X146429487Y-105428996D01*
X146429487Y-105428996D01*
G37*
G36*
X138809487Y-105428996D02*
G01*
X139046253Y-105527068D01*
X139046255Y-105527069D01*
X139259339Y-105669447D01*
X139440553Y-105850661D01*
X139582932Y-106063747D01*
X139681004Y-106300513D01*
X139731000Y-106551861D01*
X139731000Y-106808139D01*
X139681004Y-107059487D01*
X139582932Y-107296253D01*
X139582931Y-107296255D01*
X139440553Y-107509339D01*
X139259339Y-107690553D01*
X139046255Y-107832931D01*
X139046254Y-107832932D01*
X139046253Y-107832932D01*
X138809487Y-107931004D01*
X138558139Y-107981000D01*
X138301861Y-107981000D01*
X138050513Y-107931004D01*
X137813747Y-107832932D01*
X137813746Y-107832932D01*
X137813745Y-107832931D01*
X137600661Y-107690553D01*
X137419447Y-107509339D01*
X137277069Y-107296255D01*
X137277068Y-107296253D01*
X137178996Y-107059487D01*
X137129000Y-106808139D01*
X137129000Y-106551861D01*
X137178996Y-106300513D01*
X137277068Y-106063747D01*
X137419447Y-105850661D01*
X137600661Y-105669447D01*
X137813745Y-105527069D01*
X137813747Y-105527068D01*
X138050513Y-105428996D01*
X138301861Y-105379000D01*
X138558139Y-105379000D01*
X138809487Y-105428996D01*
X138809487Y-105428996D01*
G37*
G36*
X146429487Y-96538996D02*
G01*
X146666253Y-96637068D01*
X146666255Y-96637069D01*
X146879339Y-96779447D01*
X147060553Y-96960661D01*
X147202932Y-97173747D01*
X147301004Y-97410513D01*
X147351000Y-97661861D01*
X147351000Y-97918139D01*
X147301004Y-98169487D01*
X147202932Y-98406253D01*
X147202931Y-98406255D01*
X147060553Y-98619339D01*
X146879339Y-98800553D01*
X146666255Y-98942931D01*
X146666254Y-98942932D01*
X146666253Y-98942932D01*
X146429487Y-99041004D01*
X146178139Y-99091000D01*
X145921861Y-99091000D01*
X145670513Y-99041004D01*
X145433747Y-98942932D01*
X145433746Y-98942932D01*
X145433745Y-98942931D01*
X145220661Y-98800553D01*
X145039447Y-98619339D01*
X144897069Y-98406255D01*
X144897068Y-98406253D01*
X144798996Y-98169487D01*
X144749000Y-97918139D01*
X144749000Y-97661861D01*
X144798996Y-97410513D01*
X144897068Y-97173747D01*
X145039447Y-96960661D01*
X145220661Y-96779447D01*
X145433745Y-96637069D01*
X145433747Y-96637068D01*
X145670513Y-96538996D01*
X145921861Y-96489000D01*
X146178139Y-96489000D01*
X146429487Y-96538996D01*
X146429487Y-96538996D01*
G37*
G36*
X138809487Y-96538996D02*
G01*
X139046253Y-96637068D01*
X139046255Y-96637069D01*
X139259339Y-96779447D01*
X139440553Y-96960661D01*
X139582932Y-97173747D01*
X139681004Y-97410513D01*
X139731000Y-97661861D01*
X139731000Y-97918139D01*
X139681004Y-98169487D01*
X139582932Y-98406253D01*
X139582931Y-98406255D01*
X139440553Y-98619339D01*
X139259339Y-98800553D01*
X139046255Y-98942931D01*
X139046254Y-98942932D01*
X139046253Y-98942932D01*
X138809487Y-99041004D01*
X138558139Y-99091000D01*
X138301861Y-99091000D01*
X138050513Y-99041004D01*
X137813747Y-98942932D01*
X137813746Y-98942932D01*
X137813745Y-98942931D01*
X137600661Y-98800553D01*
X137419447Y-98619339D01*
X137277069Y-98406255D01*
X137277068Y-98406253D01*
X137178996Y-98169487D01*
X137129000Y-97918139D01*
X137129000Y-97661861D01*
X137178996Y-97410513D01*
X137277068Y-97173747D01*
X137419447Y-96960661D01*
X137600661Y-96779447D01*
X137813745Y-96637069D01*
X137813747Y-96637068D01*
X138050513Y-96538996D01*
X138301861Y-96489000D01*
X138558139Y-96489000D01*
X138809487Y-96538996D01*
X138809487Y-96538996D01*
G37*
G36*
X146429487Y-87648996D02*
G01*
X146666253Y-87747068D01*
X146666255Y-87747069D01*
X146879339Y-87889447D01*
X147060553Y-88070661D01*
X147202932Y-88283747D01*
X147301004Y-88520513D01*
X147351000Y-88771861D01*
X147351000Y-89028139D01*
X147301004Y-89279487D01*
X147202932Y-89516253D01*
X147202931Y-89516255D01*
X147060553Y-89729339D01*
X146879339Y-89910553D01*
X146666255Y-90052931D01*
X146666254Y-90052932D01*
X146666253Y-90052932D01*
X146429487Y-90151004D01*
X146178139Y-90201000D01*
X145921861Y-90201000D01*
X145670513Y-90151004D01*
X145433747Y-90052932D01*
X145433746Y-90052932D01*
X145433745Y-90052931D01*
X145220661Y-89910553D01*
X145039447Y-89729339D01*
X144897069Y-89516255D01*
X144897068Y-89516253D01*
X144798996Y-89279487D01*
X144749000Y-89028139D01*
X144749000Y-88771861D01*
X144798996Y-88520513D01*
X144897068Y-88283747D01*
X145039447Y-88070661D01*
X145220661Y-87889447D01*
X145433745Y-87747069D01*
X145433747Y-87747068D01*
X145670513Y-87648996D01*
X145921861Y-87599000D01*
X146178139Y-87599000D01*
X146429487Y-87648996D01*
X146429487Y-87648996D01*
G37*
G36*
X138809487Y-87648996D02*
G01*
X139046253Y-87747068D01*
X139046255Y-87747069D01*
X139259339Y-87889447D01*
X139440553Y-88070661D01*
X139582932Y-88283747D01*
X139681004Y-88520513D01*
X139731000Y-88771861D01*
X139731000Y-89028139D01*
X139681004Y-89279487D01*
X139582932Y-89516253D01*
X139582931Y-89516255D01*
X139440553Y-89729339D01*
X139259339Y-89910553D01*
X139046255Y-90052931D01*
X139046254Y-90052932D01*
X139046253Y-90052932D01*
X138809487Y-90151004D01*
X138558139Y-90201000D01*
X138301861Y-90201000D01*
X138050513Y-90151004D01*
X137813747Y-90052932D01*
X137813746Y-90052932D01*
X137813745Y-90052931D01*
X137600661Y-89910553D01*
X137419447Y-89729339D01*
X137277069Y-89516255D01*
X137277068Y-89516253D01*
X137178996Y-89279487D01*
X137129000Y-89028139D01*
X137129000Y-88771861D01*
X137178996Y-88520513D01*
X137277068Y-88283747D01*
X137419447Y-88070661D01*
X137600661Y-87889447D01*
X137813745Y-87747069D01*
X137813747Y-87747068D01*
X138050513Y-87648996D01*
X138301861Y-87599000D01*
X138558139Y-87599000D01*
X138809487Y-87648996D01*
X138809487Y-87648996D01*
G37*
G36*
X155574239Y-69201467D02*
G01*
X155888282Y-69263934D01*
X156479926Y-69509001D01*
X157012392Y-69864784D01*
X157465216Y-70317608D01*
X157820999Y-70850074D01*
X158066066Y-71441718D01*
X158191000Y-72069804D01*
X158191000Y-72710196D01*
X158066066Y-73338282D01*
X157820999Y-73929926D01*
X157465216Y-74462392D01*
X157012392Y-74915216D01*
X156479926Y-75270999D01*
X155888282Y-75516066D01*
X155574239Y-75578533D01*
X155260197Y-75641000D01*
X154619803Y-75641000D01*
X154305761Y-75578533D01*
X153991718Y-75516066D01*
X153400074Y-75270999D01*
X152867608Y-74915216D01*
X152414784Y-74462392D01*
X152059001Y-73929926D01*
X151813934Y-73338282D01*
X151689000Y-72710196D01*
X151689000Y-72069804D01*
X151813934Y-71441718D01*
X152059001Y-70850074D01*
X152414784Y-70317608D01*
X152867608Y-69864784D01*
X153400074Y-69509001D01*
X153991718Y-69263934D01*
X154305761Y-69201467D01*
X154619803Y-69139000D01*
X155260197Y-69139000D01*
X155574239Y-69201467D01*
X155574239Y-69201467D01*
G37*
G36*
X130174239Y-69201467D02*
G01*
X130488282Y-69263934D01*
X131079926Y-69509001D01*
X131612392Y-69864784D01*
X132065216Y-70317608D01*
X132420999Y-70850074D01*
X132666066Y-71441718D01*
X132791000Y-72069804D01*
X132791000Y-72710196D01*
X132666066Y-73338282D01*
X132420999Y-73929926D01*
X132065216Y-74462392D01*
X131612392Y-74915216D01*
X131079926Y-75270999D01*
X130488282Y-75516066D01*
X130174239Y-75578533D01*
X129860197Y-75641000D01*
X129219803Y-75641000D01*
X128905761Y-75578533D01*
X128591718Y-75516066D01*
X128000074Y-75270999D01*
X127467608Y-74915216D01*
X127014784Y-74462392D01*
X126659001Y-73929926D01*
X126413934Y-73338282D01*
X126289000Y-72710196D01*
X126289000Y-72069804D01*
X126413934Y-71441718D01*
X126659001Y-70850074D01*
X127014784Y-70317608D01*
X127467608Y-69864784D01*
X128000074Y-69509001D01*
X128591718Y-69263934D01*
X128905761Y-69201467D01*
X129219803Y-69139000D01*
X129860197Y-69139000D01*
X130174239Y-69201467D01*
X130174239Y-69201467D01*
G37*
G36*
X147622585Y-72138802D02*
G01*
X147772410Y-72168604D01*
X148054674Y-72285521D01*
X148308705Y-72455259D01*
X148524741Y-72671295D01*
X148694479Y-72925326D01*
X148811396Y-73207590D01*
X148871000Y-73507240D01*
X148871000Y-73812760D01*
X148811396Y-74112410D01*
X148694479Y-74394674D01*
X148524741Y-74648705D01*
X148308705Y-74864741D01*
X148054674Y-75034479D01*
X147772410Y-75151396D01*
X147622585Y-75181198D01*
X147472761Y-75211000D01*
X147167239Y-75211000D01*
X147017415Y-75181198D01*
X146867590Y-75151396D01*
X146585326Y-75034479D01*
X146331295Y-74864741D01*
X146115259Y-74648705D01*
X145945521Y-74394674D01*
X145828604Y-74112410D01*
X145769000Y-73812760D01*
X145769000Y-73507240D01*
X145828604Y-73207590D01*
X145945521Y-72925326D01*
X146115259Y-72671295D01*
X146331295Y-72455259D01*
X146585326Y-72285521D01*
X146867590Y-72168604D01*
X147017415Y-72138802D01*
X147167239Y-72109000D01*
X147472761Y-72109000D01*
X147622585Y-72138802D01*
X147622585Y-72138802D01*
G37*
G36*
X142542585Y-72138802D02*
G01*
X142692410Y-72168604D01*
X142974674Y-72285521D01*
X143228705Y-72455259D01*
X143444741Y-72671295D01*
X143614479Y-72925326D01*
X143731396Y-73207590D01*
X143791000Y-73507240D01*
X143791000Y-73812760D01*
X143731396Y-74112410D01*
X143614479Y-74394674D01*
X143444741Y-74648705D01*
X143228705Y-74864741D01*
X142974674Y-75034479D01*
X142692410Y-75151396D01*
X142542585Y-75181198D01*
X142392761Y-75211000D01*
X142087239Y-75211000D01*
X141937415Y-75181198D01*
X141787590Y-75151396D01*
X141505326Y-75034479D01*
X141251295Y-74864741D01*
X141035259Y-74648705D01*
X140865521Y-74394674D01*
X140748604Y-74112410D01*
X140689000Y-73812760D01*
X140689000Y-73507240D01*
X140748604Y-73207590D01*
X140865521Y-72925326D01*
X141035259Y-72671295D01*
X141251295Y-72455259D01*
X141505326Y-72285521D01*
X141787590Y-72168604D01*
X141937415Y-72138802D01*
X142087239Y-72109000D01*
X142392761Y-72109000D01*
X142542585Y-72138802D01*
X142542585Y-72138802D01*
G37*
G36*
X138711000Y-75211000D02*
G01*
X135609000Y-75211000D01*
X135609000Y-72109000D01*
X138711000Y-72109000D01*
X138711000Y-75211000D01*
X138711000Y-75211000D01*
G37*
M02*
