G04 #@! TF.GenerationSoftware,KiCad,Pcbnew,(5.1.4-0-10_14)*
G04 #@! TF.CreationDate,2019-09-21T10:22:50-07:00*
G04 #@! TF.ProjectId,9A_9AJ_Heater_Helper,39415f39-414a-45f4-9865-617465725f48,1.0*
G04 #@! TF.SameCoordinates,Original*
G04 #@! TF.FileFunction,Legend,Top*
G04 #@! TF.FilePolarity,Positive*
%FSLAX46Y46*%
G04 Gerber Fmt 4.6, Leading zero omitted, Abs format (unit mm)*
G04 Created by KiCad (PCBNEW (5.1.4-0-10_14)) date 2019-09-21 10:22:50*
%MOMM*%
%LPD*%
G04 APERTURE LIST*
%ADD10C,0.150000*%
%ADD11C,0.300000*%
%ADD12C,0.120000*%
%ADD13C,0.100000*%
G04 APERTURE END LIST*
D10*
X129912619Y-85832872D02*
X129912619Y-86023348D01*
X129960238Y-86124538D01*
X130007857Y-86178110D01*
X130150714Y-86291205D01*
X130341190Y-86362633D01*
X130722142Y-86410252D01*
X130817380Y-86374538D01*
X130865000Y-86332872D01*
X130912619Y-86243586D01*
X130912619Y-86053110D01*
X130865000Y-85951919D01*
X130817380Y-85898348D01*
X130722142Y-85838824D01*
X130484047Y-85809062D01*
X130388809Y-85844776D01*
X130341190Y-85886443D01*
X130293571Y-85975729D01*
X130293571Y-86166205D01*
X130341190Y-86267395D01*
X130388809Y-86320967D01*
X130484047Y-86380491D01*
X130198333Y-86725729D02*
X130198333Y-87201919D01*
X129912619Y-86594776D02*
X130912619Y-87053110D01*
X129912619Y-87261443D01*
X130960238Y-89201919D02*
X129674523Y-88184062D01*
X129912619Y-90213824D02*
X129912619Y-90404300D01*
X129960238Y-90505491D01*
X130007857Y-90559062D01*
X130150714Y-90672157D01*
X130341190Y-90743586D01*
X130722142Y-90791205D01*
X130817380Y-90755491D01*
X130865000Y-90713824D01*
X130912619Y-90624538D01*
X130912619Y-90434062D01*
X130865000Y-90332872D01*
X130817380Y-90279300D01*
X130722142Y-90219776D01*
X130484047Y-90190014D01*
X130388809Y-90225729D01*
X130341190Y-90267395D01*
X130293571Y-90356681D01*
X130293571Y-90547157D01*
X130341190Y-90648348D01*
X130388809Y-90701919D01*
X130484047Y-90761443D01*
X130198333Y-91106681D02*
X130198333Y-91582872D01*
X129912619Y-90975729D02*
X130912619Y-91434062D01*
X129912619Y-91642395D01*
X130912619Y-92386443D02*
X130198333Y-92297157D01*
X130055476Y-92231681D01*
X129960238Y-92124538D01*
X129912619Y-91975729D01*
X129912619Y-91880491D01*
X129912619Y-93499538D02*
X130912619Y-93624538D01*
X130436428Y-93565014D02*
X130436428Y-94136443D01*
X129912619Y-94070967D02*
X130912619Y-94195967D01*
X129960238Y-94934062D02*
X129912619Y-94832872D01*
X129912619Y-94642395D01*
X129960238Y-94553110D01*
X130055476Y-94517395D01*
X130436428Y-94565014D01*
X130531666Y-94624538D01*
X130579285Y-94725729D01*
X130579285Y-94916205D01*
X130531666Y-95005491D01*
X130436428Y-95041205D01*
X130341190Y-95029300D01*
X130245952Y-94541205D01*
X129912619Y-95832872D02*
X130436428Y-95898348D01*
X130531666Y-95862633D01*
X130579285Y-95773348D01*
X130579285Y-95582872D01*
X130531666Y-95481681D01*
X129960238Y-95838824D02*
X129912619Y-95737633D01*
X129912619Y-95499538D01*
X129960238Y-95410252D01*
X130055476Y-95374538D01*
X130150714Y-95386443D01*
X130245952Y-95445967D01*
X130293571Y-95547157D01*
X130293571Y-95785252D01*
X130341190Y-95886443D01*
X130579285Y-96249538D02*
X130579285Y-96630491D01*
X130912619Y-96434062D02*
X130055476Y-96326919D01*
X129960238Y-96362633D01*
X129912619Y-96451919D01*
X129912619Y-96547157D01*
X129960238Y-97267395D02*
X129912619Y-97166205D01*
X129912619Y-96975729D01*
X129960238Y-96886443D01*
X130055476Y-96850729D01*
X130436428Y-96898348D01*
X130531666Y-96957872D01*
X130579285Y-97059062D01*
X130579285Y-97249538D01*
X130531666Y-97338824D01*
X130436428Y-97374538D01*
X130341190Y-97362633D01*
X130245952Y-96874538D01*
X129912619Y-97737633D02*
X130579285Y-97820967D01*
X130388809Y-97797157D02*
X130484047Y-97856681D01*
X130531666Y-97910252D01*
X130579285Y-98011443D01*
X130579285Y-98106681D01*
X129912619Y-99118586D02*
X130912619Y-99243586D01*
X130436428Y-99184062D02*
X130436428Y-99755491D01*
X129912619Y-99690014D02*
X130912619Y-99815014D01*
X129960238Y-100553110D02*
X129912619Y-100451919D01*
X129912619Y-100261443D01*
X129960238Y-100172157D01*
X130055476Y-100136443D01*
X130436428Y-100184062D01*
X130531666Y-100243586D01*
X130579285Y-100344776D01*
X130579285Y-100535252D01*
X130531666Y-100624538D01*
X130436428Y-100660252D01*
X130341190Y-100648348D01*
X130245952Y-100160252D01*
X129912619Y-101166205D02*
X129960238Y-101076919D01*
X130055476Y-101041205D01*
X130912619Y-101148348D01*
X130579285Y-101630491D02*
X129579285Y-101505491D01*
X130531666Y-101624538D02*
X130579285Y-101725729D01*
X130579285Y-101916205D01*
X130531666Y-102005491D01*
X130484047Y-102047157D01*
X130388809Y-102082872D01*
X130103095Y-102047157D01*
X130007857Y-101987633D01*
X129960238Y-101934062D01*
X129912619Y-101832872D01*
X129912619Y-101642395D01*
X129960238Y-101553110D01*
X129960238Y-102838824D02*
X129912619Y-102737633D01*
X129912619Y-102547157D01*
X129960238Y-102457872D01*
X130055476Y-102422157D01*
X130436428Y-102469776D01*
X130531666Y-102529300D01*
X130579285Y-102630491D01*
X130579285Y-102820967D01*
X130531666Y-102910252D01*
X130436428Y-102945967D01*
X130341190Y-102934062D01*
X130245952Y-102445967D01*
X129912619Y-103309062D02*
X130579285Y-103392395D01*
X130388809Y-103368586D02*
X130484047Y-103428110D01*
X130531666Y-103481681D01*
X130579285Y-103582872D01*
X130579285Y-103678110D01*
X129912619Y-104690014D02*
X130579285Y-104773348D01*
X130388809Y-104749538D02*
X130484047Y-104809062D01*
X130531666Y-104862633D01*
X130579285Y-104963824D01*
X130579285Y-105059062D01*
X129960238Y-105695967D02*
X129912619Y-105594776D01*
X129912619Y-105404300D01*
X129960238Y-105315014D01*
X130055476Y-105279300D01*
X130436428Y-105326919D01*
X130531666Y-105386443D01*
X130579285Y-105487633D01*
X130579285Y-105678110D01*
X130531666Y-105767395D01*
X130436428Y-105803110D01*
X130341190Y-105791205D01*
X130245952Y-105303110D01*
X130579285Y-106154300D02*
X129912619Y-106309062D01*
X130579285Y-106630491D01*
X129912619Y-108213824D02*
X129912619Y-107642395D01*
X129912619Y-107928110D02*
X130912619Y-108053110D01*
X130769761Y-107940014D01*
X130674523Y-107832872D01*
X130626904Y-107731681D01*
X130007857Y-108654300D02*
X129960238Y-108695967D01*
X129912619Y-108642395D01*
X129960238Y-108600729D01*
X130007857Y-108654300D01*
X129912619Y-108642395D01*
X130912619Y-109434062D02*
X130912619Y-109529300D01*
X130865000Y-109618586D01*
X130817380Y-109660252D01*
X130722142Y-109695967D01*
X130531666Y-109719776D01*
X130293571Y-109690014D01*
X130103095Y-109618586D01*
X130007857Y-109559062D01*
X129960238Y-109505491D01*
X129912619Y-109404300D01*
X129912619Y-109309062D01*
X129960238Y-109219776D01*
X130007857Y-109178110D01*
X130103095Y-109142395D01*
X130293571Y-109118586D01*
X130531666Y-109148348D01*
X130722142Y-109219776D01*
X130817380Y-109279300D01*
X130865000Y-109332872D01*
X130912619Y-109434062D01*
X128357857Y-85963824D02*
X128310238Y-85910252D01*
X128262619Y-85761443D01*
X128262619Y-85666205D01*
X128310238Y-85529300D01*
X128405476Y-85445967D01*
X128500714Y-85410252D01*
X128691190Y-85386443D01*
X128834047Y-85404300D01*
X129024523Y-85475729D01*
X129119761Y-85535252D01*
X129215000Y-85642395D01*
X129262619Y-85791205D01*
X129262619Y-85886443D01*
X129215000Y-86023348D01*
X129167380Y-86065014D01*
X128262619Y-86523348D02*
X128310238Y-86434062D01*
X128357857Y-86392395D01*
X128453095Y-86356681D01*
X128738809Y-86392395D01*
X128834047Y-86451919D01*
X128881666Y-86505491D01*
X128929285Y-86606681D01*
X128929285Y-86749538D01*
X128881666Y-86838824D01*
X128834047Y-86880491D01*
X128738809Y-86916205D01*
X128453095Y-86880491D01*
X128357857Y-86820967D01*
X128310238Y-86767395D01*
X128262619Y-86666205D01*
X128262619Y-86523348D01*
X128929285Y-87368586D02*
X127929285Y-87243586D01*
X128881666Y-87362633D02*
X128929285Y-87463824D01*
X128929285Y-87654300D01*
X128881666Y-87743586D01*
X128834047Y-87785252D01*
X128738809Y-87820967D01*
X128453095Y-87785252D01*
X128357857Y-87725729D01*
X128310238Y-87672157D01*
X128262619Y-87570967D01*
X128262619Y-87380491D01*
X128310238Y-87291205D01*
X128929285Y-88178110D02*
X128262619Y-88332872D01*
X128929285Y-88654300D02*
X128262619Y-88332872D01*
X128024523Y-88207872D01*
X127976904Y-88154300D01*
X127929285Y-88053110D01*
X128262619Y-88951919D02*
X128929285Y-89035252D01*
X128738809Y-89011443D02*
X128834047Y-89070967D01*
X128881666Y-89124538D01*
X128929285Y-89225729D01*
X128929285Y-89320967D01*
X128262619Y-89570967D02*
X128929285Y-89654300D01*
X129262619Y-89695967D02*
X129215000Y-89642395D01*
X129167380Y-89684062D01*
X129215000Y-89737633D01*
X129262619Y-89695967D01*
X129167380Y-89684062D01*
X128929285Y-90559062D02*
X128119761Y-90457872D01*
X128024523Y-90398348D01*
X127976904Y-90344776D01*
X127929285Y-90243586D01*
X127929285Y-90100729D01*
X127976904Y-90011443D01*
X128310238Y-90481681D02*
X128262619Y-90380491D01*
X128262619Y-90190014D01*
X128310238Y-90100729D01*
X128357857Y-90059062D01*
X128453095Y-90023348D01*
X128738809Y-90059062D01*
X128834047Y-90118586D01*
X128881666Y-90172157D01*
X128929285Y-90273348D01*
X128929285Y-90463824D01*
X128881666Y-90553110D01*
X128262619Y-90951919D02*
X129262619Y-91076919D01*
X128262619Y-91380491D02*
X128786428Y-91445967D01*
X128881666Y-91410252D01*
X128929285Y-91320967D01*
X128929285Y-91178110D01*
X128881666Y-91076919D01*
X128834047Y-91023348D01*
X128929285Y-91797157D02*
X128929285Y-92178110D01*
X129262619Y-91981681D02*
X128405476Y-91874538D01*
X128310238Y-91910252D01*
X128262619Y-91999538D01*
X128262619Y-92094776D01*
X129167380Y-93255491D02*
X129215000Y-93309062D01*
X129262619Y-93410252D01*
X129262619Y-93648348D01*
X129215000Y-93737633D01*
X129167380Y-93779300D01*
X129072142Y-93815014D01*
X128976904Y-93803110D01*
X128834047Y-93737633D01*
X128262619Y-93094776D01*
X128262619Y-93713824D01*
X129262619Y-94457872D02*
X129262619Y-94553110D01*
X129215000Y-94642395D01*
X129167380Y-94684062D01*
X129072142Y-94719776D01*
X128881666Y-94743586D01*
X128643571Y-94713824D01*
X128453095Y-94642395D01*
X128357857Y-94582872D01*
X128310238Y-94529300D01*
X128262619Y-94428110D01*
X128262619Y-94332872D01*
X128310238Y-94243586D01*
X128357857Y-94201919D01*
X128453095Y-94166205D01*
X128643571Y-94142395D01*
X128881666Y-94172157D01*
X129072142Y-94243586D01*
X129167380Y-94303110D01*
X129215000Y-94356681D01*
X129262619Y-94457872D01*
X128262619Y-95618586D02*
X128262619Y-95047157D01*
X128262619Y-95332872D02*
X129262619Y-95457872D01*
X129119761Y-95344776D01*
X129024523Y-95237633D01*
X128976904Y-95136443D01*
X128262619Y-96094776D02*
X128262619Y-96285252D01*
X128310238Y-96386443D01*
X128357857Y-96440014D01*
X128500714Y-96553110D01*
X128691190Y-96624538D01*
X129072142Y-96672157D01*
X129167380Y-96636443D01*
X129215000Y-96594776D01*
X129262619Y-96505491D01*
X129262619Y-96315014D01*
X129215000Y-96213824D01*
X129167380Y-96160252D01*
X129072142Y-96100729D01*
X128834047Y-96070967D01*
X128738809Y-96106681D01*
X128691190Y-96148348D01*
X128643571Y-96237633D01*
X128643571Y-96428110D01*
X128691190Y-96529300D01*
X128738809Y-96582872D01*
X128834047Y-96642395D01*
X129262619Y-98172157D02*
X128548333Y-98082872D01*
X128405476Y-98017395D01*
X128310238Y-97910252D01*
X128262619Y-97761443D01*
X128262619Y-97666205D01*
X128262619Y-98951919D02*
X128786428Y-99017395D01*
X128881666Y-98981681D01*
X128929285Y-98892395D01*
X128929285Y-98701919D01*
X128881666Y-98600729D01*
X128310238Y-98957872D02*
X128262619Y-98856681D01*
X128262619Y-98618586D01*
X128310238Y-98529300D01*
X128405476Y-98493586D01*
X128500714Y-98505491D01*
X128595952Y-98565014D01*
X128643571Y-98666205D01*
X128643571Y-98904300D01*
X128691190Y-99005491D01*
X128310238Y-99386443D02*
X128262619Y-99475729D01*
X128262619Y-99666205D01*
X128310238Y-99767395D01*
X128405476Y-99826919D01*
X128453095Y-99832872D01*
X128548333Y-99797157D01*
X128595952Y-99707872D01*
X128595952Y-99565014D01*
X128643571Y-99475729D01*
X128738809Y-99440014D01*
X128786428Y-99445967D01*
X128881666Y-99505491D01*
X128929285Y-99606681D01*
X128929285Y-99749538D01*
X128881666Y-99838824D01*
X128262619Y-100380491D02*
X128310238Y-100291205D01*
X128357857Y-100249538D01*
X128453095Y-100213824D01*
X128738809Y-100249538D01*
X128834047Y-100309062D01*
X128881666Y-100362633D01*
X128929285Y-100463824D01*
X128929285Y-100606681D01*
X128881666Y-100695967D01*
X128834047Y-100737633D01*
X128738809Y-100773348D01*
X128453095Y-100737633D01*
X128357857Y-100678110D01*
X128310238Y-100624538D01*
X128262619Y-100523348D01*
X128262619Y-100380491D01*
X128929285Y-101225729D02*
X128262619Y-101142395D01*
X128834047Y-101213824D02*
X128881666Y-101267395D01*
X128929285Y-101368586D01*
X128929285Y-101511443D01*
X128881666Y-101600729D01*
X128786428Y-101636443D01*
X128262619Y-101570967D01*
X128262619Y-103380491D02*
X128738809Y-103106681D01*
X128262619Y-102809062D02*
X129262619Y-102934062D01*
X129262619Y-103315014D01*
X129215000Y-103404300D01*
X129167380Y-103445967D01*
X129072142Y-103481681D01*
X128929285Y-103463824D01*
X128834047Y-103404300D01*
X128786428Y-103350729D01*
X128738809Y-103249538D01*
X128738809Y-102868586D01*
X128357857Y-103820967D02*
X128310238Y-103862633D01*
X128262619Y-103809062D01*
X128310238Y-103767395D01*
X128357857Y-103820967D01*
X128262619Y-103809062D01*
X129262619Y-105029300D02*
X129262619Y-105600729D01*
X128262619Y-105190014D02*
X129262619Y-105315014D01*
X128262619Y-105809062D02*
X129262619Y-105934062D01*
X128262619Y-106237633D02*
X128786428Y-106303110D01*
X128881666Y-106267395D01*
X128929285Y-106178110D01*
X128929285Y-106035252D01*
X128881666Y-105934062D01*
X128834047Y-105880491D01*
X128262619Y-106856681D02*
X128310238Y-106767395D01*
X128357857Y-106725729D01*
X128453095Y-106690014D01*
X128738809Y-106725729D01*
X128834047Y-106785252D01*
X128881666Y-106838824D01*
X128929285Y-106940014D01*
X128929285Y-107082872D01*
X128881666Y-107172157D01*
X128834047Y-107213824D01*
X128738809Y-107249538D01*
X128453095Y-107213824D01*
X128357857Y-107154300D01*
X128310238Y-107100729D01*
X128262619Y-106999538D01*
X128262619Y-106856681D01*
X128262619Y-107618586D02*
X128929285Y-107701919D01*
X128738809Y-107678110D02*
X128834047Y-107737633D01*
X128881666Y-107791205D01*
X128929285Y-107892395D01*
X128929285Y-107987633D01*
X128929285Y-108320967D02*
X127929285Y-108195967D01*
X128881666Y-108315014D02*
X128929285Y-108416205D01*
X128929285Y-108606681D01*
X128881666Y-108695967D01*
X128834047Y-108737633D01*
X128738809Y-108773348D01*
X128453095Y-108737633D01*
X128357857Y-108678110D01*
X128310238Y-108624538D01*
X128262619Y-108523348D01*
X128262619Y-108332872D01*
X128310238Y-108243586D01*
X128310238Y-109529300D02*
X128262619Y-109428110D01*
X128262619Y-109237633D01*
X128310238Y-109148348D01*
X128405476Y-109112633D01*
X128786428Y-109160252D01*
X128881666Y-109219776D01*
X128929285Y-109320967D01*
X128929285Y-109511443D01*
X128881666Y-109600729D01*
X128786428Y-109636443D01*
X128691190Y-109624538D01*
X128595952Y-109136443D01*
X128357857Y-110011443D02*
X128310238Y-110053110D01*
X128262619Y-109999538D01*
X128310238Y-109957872D01*
X128357857Y-110011443D01*
X128262619Y-109999538D01*
X154320952Y-92337380D02*
X154511428Y-92337380D01*
X154606666Y-92289761D01*
X154654285Y-92242142D01*
X154749523Y-92099285D01*
X154797142Y-91908809D01*
X154797142Y-91527857D01*
X154749523Y-91432619D01*
X154701904Y-91385000D01*
X154606666Y-91337380D01*
X154416190Y-91337380D01*
X154320952Y-91385000D01*
X154273333Y-91432619D01*
X154225714Y-91527857D01*
X154225714Y-91765952D01*
X154273333Y-91861190D01*
X154320952Y-91908809D01*
X154416190Y-91956428D01*
X154606666Y-91956428D01*
X154701904Y-91908809D01*
X154749523Y-91861190D01*
X154797142Y-91765952D01*
X155178095Y-92051666D02*
X155654285Y-92051666D01*
X155082857Y-92337380D02*
X155416190Y-91337380D01*
X155749523Y-92337380D01*
X152463809Y-94368333D02*
X152416190Y-94320714D01*
X152320952Y-94177857D01*
X152273333Y-94082619D01*
X152225714Y-93939761D01*
X152178095Y-93701666D01*
X152178095Y-93511190D01*
X152225714Y-93273095D01*
X152273333Y-93130238D01*
X152320952Y-93035000D01*
X152416190Y-92892142D01*
X152463809Y-92844523D01*
X153368571Y-93987380D02*
X152797142Y-93987380D01*
X153082857Y-93987380D02*
X153082857Y-92987380D01*
X152987619Y-93130238D01*
X152892380Y-93225476D01*
X152797142Y-93273095D01*
X153749523Y-93082619D02*
X153797142Y-93035000D01*
X153892380Y-92987380D01*
X154130476Y-92987380D01*
X154225714Y-93035000D01*
X154273333Y-93082619D01*
X154320952Y-93177857D01*
X154320952Y-93273095D01*
X154273333Y-93415952D01*
X153701904Y-93987380D01*
X154320952Y-93987380D01*
X154701904Y-93701666D02*
X155178095Y-93701666D01*
X154606666Y-93987380D02*
X154940000Y-92987380D01*
X155273333Y-93987380D01*
X155511428Y-92987380D02*
X156178095Y-93987380D01*
X156178095Y-92987380D02*
X155511428Y-93987380D01*
X156463809Y-92987380D02*
X157130476Y-92987380D01*
X156701904Y-93987380D01*
X157416190Y-94368333D02*
X157463809Y-94320714D01*
X157559047Y-94177857D01*
X157606666Y-94082619D01*
X157654285Y-93939761D01*
X157701904Y-93701666D01*
X157701904Y-93511190D01*
X157654285Y-93273095D01*
X157606666Y-93130238D01*
X157559047Y-93035000D01*
X157463809Y-92892142D01*
X157416190Y-92844523D01*
X153940000Y-102497380D02*
X154130476Y-102497380D01*
X154225714Y-102449761D01*
X154273333Y-102402142D01*
X154368571Y-102259285D01*
X154416190Y-102068809D01*
X154416190Y-101687857D01*
X154368571Y-101592619D01*
X154320952Y-101545000D01*
X154225714Y-101497380D01*
X154035238Y-101497380D01*
X153940000Y-101545000D01*
X153892380Y-101592619D01*
X153844761Y-101687857D01*
X153844761Y-101925952D01*
X153892380Y-102021190D01*
X153940000Y-102068809D01*
X154035238Y-102116428D01*
X154225714Y-102116428D01*
X154320952Y-102068809D01*
X154368571Y-102021190D01*
X154416190Y-101925952D01*
X154797142Y-102211666D02*
X155273333Y-102211666D01*
X154701904Y-102497380D02*
X155035238Y-101497380D01*
X155368571Y-102497380D01*
X155987619Y-101497380D02*
X155987619Y-102211666D01*
X155940000Y-102354523D01*
X155844761Y-102449761D01*
X155701904Y-102497380D01*
X155606666Y-102497380D01*
X152820952Y-104528333D02*
X152773333Y-104480714D01*
X152678095Y-104337857D01*
X152630476Y-104242619D01*
X152582857Y-104099761D01*
X152535238Y-103861666D01*
X152535238Y-103671190D01*
X152582857Y-103433095D01*
X152630476Y-103290238D01*
X152678095Y-103195000D01*
X152773333Y-103052142D01*
X152820952Y-103004523D01*
X153630476Y-103147380D02*
X153440000Y-103147380D01*
X153344761Y-103195000D01*
X153297142Y-103242619D01*
X153201904Y-103385476D01*
X153154285Y-103575952D01*
X153154285Y-103956904D01*
X153201904Y-104052142D01*
X153249523Y-104099761D01*
X153344761Y-104147380D01*
X153535238Y-104147380D01*
X153630476Y-104099761D01*
X153678095Y-104052142D01*
X153725714Y-103956904D01*
X153725714Y-103718809D01*
X153678095Y-103623571D01*
X153630476Y-103575952D01*
X153535238Y-103528333D01*
X153344761Y-103528333D01*
X153249523Y-103575952D01*
X153201904Y-103623571D01*
X153154285Y-103718809D01*
X154154285Y-104147380D02*
X154154285Y-103147380D01*
X154725714Y-104147380D01*
X154725714Y-103147380D01*
X155154285Y-103242619D02*
X155201904Y-103195000D01*
X155297142Y-103147380D01*
X155535238Y-103147380D01*
X155630476Y-103195000D01*
X155678095Y-103242619D01*
X155725714Y-103337857D01*
X155725714Y-103433095D01*
X155678095Y-103575952D01*
X155106666Y-104147380D01*
X155725714Y-104147380D01*
X156154285Y-104147380D02*
X156154285Y-103147380D01*
X156535238Y-103147380D01*
X156630476Y-103195000D01*
X156678095Y-103242619D01*
X156725714Y-103337857D01*
X156725714Y-103480714D01*
X156678095Y-103575952D01*
X156630476Y-103623571D01*
X156535238Y-103671190D01*
X156154285Y-103671190D01*
X157059047Y-104528333D02*
X157106666Y-104480714D01*
X157201904Y-104337857D01*
X157249523Y-104242619D01*
X157297142Y-104099761D01*
X157344761Y-103861666D01*
X157344761Y-103671190D01*
X157297142Y-103433095D01*
X157249523Y-103290238D01*
X157201904Y-103195000D01*
X157106666Y-103052142D01*
X157059047Y-103004523D01*
D11*
X146177142Y-113550000D02*
X146034285Y-113478571D01*
X145820000Y-113478571D01*
X145605714Y-113550000D01*
X145462857Y-113692857D01*
X145391428Y-113835714D01*
X145320000Y-114121428D01*
X145320000Y-114335714D01*
X145391428Y-114621428D01*
X145462857Y-114764285D01*
X145605714Y-114907142D01*
X145820000Y-114978571D01*
X145962857Y-114978571D01*
X146177142Y-114907142D01*
X146248571Y-114835714D01*
X146248571Y-114335714D01*
X145962857Y-114335714D01*
X146891428Y-114978571D02*
X146891428Y-113478571D01*
X147748571Y-114978571D01*
X147748571Y-113478571D01*
X148462857Y-114978571D02*
X148462857Y-113478571D01*
X148820000Y-113478571D01*
X149034285Y-113550000D01*
X149177142Y-113692857D01*
X149248571Y-113835714D01*
X149320000Y-114121428D01*
X149320000Y-114335714D01*
X149248571Y-114621428D01*
X149177142Y-114764285D01*
X149034285Y-114907142D01*
X148820000Y-114978571D01*
X148462857Y-114978571D01*
X136414285Y-114407142D02*
X137557142Y-114407142D01*
X138914285Y-113478571D02*
X138628571Y-113478571D01*
X138485714Y-113550000D01*
X138414285Y-113621428D01*
X138271428Y-113835714D01*
X138200000Y-114121428D01*
X138200000Y-114692857D01*
X138271428Y-114835714D01*
X138342857Y-114907142D01*
X138485714Y-114978571D01*
X138771428Y-114978571D01*
X138914285Y-114907142D01*
X138985714Y-114835714D01*
X139057142Y-114692857D01*
X139057142Y-114335714D01*
X138985714Y-114192857D01*
X138914285Y-114121428D01*
X138771428Y-114050000D01*
X138485714Y-114050000D01*
X138342857Y-114121428D01*
X138271428Y-114192857D01*
X138200000Y-114335714D01*
X139700000Y-114835714D02*
X139771428Y-114907142D01*
X139700000Y-114978571D01*
X139628571Y-114907142D01*
X139700000Y-114835714D01*
X139700000Y-114978571D01*
X140271428Y-113478571D02*
X141200000Y-113478571D01*
X140700000Y-114050000D01*
X140914285Y-114050000D01*
X141057142Y-114121428D01*
X141128571Y-114192857D01*
X141200000Y-114335714D01*
X141200000Y-114692857D01*
X141128571Y-114835714D01*
X141057142Y-114907142D01*
X140914285Y-114978571D01*
X140485714Y-114978571D01*
X140342857Y-114907142D01*
X140271428Y-114835714D01*
X141842857Y-114407142D02*
X142985714Y-114407142D01*
X147034285Y-80688571D02*
X147320000Y-80688571D01*
X147462857Y-80617142D01*
X147534285Y-80545714D01*
X147677142Y-80331428D01*
X147748571Y-80045714D01*
X147748571Y-79474285D01*
X147677142Y-79331428D01*
X147605714Y-79260000D01*
X147462857Y-79188571D01*
X147177142Y-79188571D01*
X147034285Y-79260000D01*
X146962857Y-79331428D01*
X146891428Y-79474285D01*
X146891428Y-79831428D01*
X146962857Y-79974285D01*
X147034285Y-80045714D01*
X147177142Y-80117142D01*
X147462857Y-80117142D01*
X147605714Y-80045714D01*
X147677142Y-79974285D01*
X147748571Y-79831428D01*
X142597142Y-79188571D02*
X141882857Y-79188571D01*
X141811428Y-79902857D01*
X141882857Y-79831428D01*
X142025714Y-79760000D01*
X142382857Y-79760000D01*
X142525714Y-79831428D01*
X142597142Y-79902857D01*
X142668571Y-80045714D01*
X142668571Y-80402857D01*
X142597142Y-80545714D01*
X142525714Y-80617142D01*
X142382857Y-80688571D01*
X142025714Y-80688571D01*
X141882857Y-80617142D01*
X141811428Y-80545714D01*
X137445714Y-79688571D02*
X137445714Y-80688571D01*
X137088571Y-79117142D02*
X136731428Y-80188571D01*
X137660000Y-80188571D01*
D12*
X151130000Y-97790000D02*
X151130000Y-83820000D01*
X151130000Y-97790000D02*
X151130000Y-111760000D01*
X133350000Y-97790000D02*
X133350000Y-111760000D01*
X133350000Y-97790000D02*
X133350000Y-83820000D01*
X133350000Y-83820000D02*
X151130000Y-83820000D01*
X133350000Y-111760000D02*
X151130000Y-111760000D01*
X139700000Y-104140000D02*
X144780000Y-104140000D01*
X144780000Y-104140000D02*
X144780000Y-100330000D01*
X144780000Y-100330000D02*
X139700000Y-100330000D01*
X139700000Y-100330000D02*
X139700000Y-104140000D01*
D13*
G36*
X139700000Y-101600000D02*
G01*
X144780000Y-101600000D01*
X144780000Y-102870000D01*
X139700000Y-102870000D01*
X139700000Y-101600000D01*
G37*
X139700000Y-101600000D02*
X144780000Y-101600000D01*
X144780000Y-102870000D01*
X139700000Y-102870000D01*
X139700000Y-101600000D01*
D12*
X134620000Y-77470000D02*
X149860000Y-77470000D01*
X134620000Y-69850000D02*
X149860000Y-69850000D01*
X134620000Y-76200000D02*
X149860000Y-76200000D01*
X149860000Y-77470000D02*
X149860000Y-69850000D01*
X134620000Y-77470000D02*
X134620000Y-69850000D01*
X134620000Y-124460000D02*
X134620000Y-116840000D01*
X149860000Y-124460000D02*
X149860000Y-116840000D01*
X134620000Y-123190000D02*
X149860000Y-123190000D01*
X134620000Y-116840000D02*
X149860000Y-116840000D01*
X134620000Y-124460000D02*
X149860000Y-124460000D01*
D10*
X140906666Y-82954761D02*
X141049523Y-83002380D01*
X141287619Y-83002380D01*
X141382857Y-82954761D01*
X141430476Y-82907142D01*
X141478095Y-82811904D01*
X141478095Y-82716666D01*
X141430476Y-82621428D01*
X141382857Y-82573809D01*
X141287619Y-82526190D01*
X141097142Y-82478571D01*
X141001904Y-82430952D01*
X140954285Y-82383333D01*
X140906666Y-82288095D01*
X140906666Y-82192857D01*
X140954285Y-82097619D01*
X141001904Y-82050000D01*
X141097142Y-82002380D01*
X141335238Y-82002380D01*
X141478095Y-82050000D01*
X141811428Y-82002380D02*
X142049523Y-83002380D01*
X142240000Y-82288095D01*
X142430476Y-83002380D01*
X142668571Y-82002380D01*
X143573333Y-83002380D02*
X143001904Y-83002380D01*
X143287619Y-83002380D02*
X143287619Y-82002380D01*
X143192380Y-82145238D01*
X143097142Y-82240476D01*
X143001904Y-82288095D01*
X140573333Y-92257619D02*
X140620952Y-92210000D01*
X140716190Y-92162380D01*
X140954285Y-92162380D01*
X141049523Y-92210000D01*
X141097142Y-92257619D01*
X141144761Y-92352857D01*
X141144761Y-92448095D01*
X141097142Y-92590952D01*
X140525714Y-93162380D01*
X141144761Y-93162380D01*
X141478095Y-92162380D02*
X142097142Y-92162380D01*
X141763809Y-92543333D01*
X141906666Y-92543333D01*
X142001904Y-92590952D01*
X142049523Y-92638571D01*
X142097142Y-92733809D01*
X142097142Y-92971904D01*
X142049523Y-93067142D01*
X142001904Y-93114761D01*
X141906666Y-93162380D01*
X141620952Y-93162380D01*
X141525714Y-93114761D01*
X141478095Y-93067142D01*
X142716190Y-92162380D02*
X142811428Y-92162380D01*
X142906666Y-92210000D01*
X142954285Y-92257619D01*
X143001904Y-92352857D01*
X143049523Y-92543333D01*
X143049523Y-92781428D01*
X143001904Y-92971904D01*
X142954285Y-93067142D01*
X142906666Y-93114761D01*
X142811428Y-93162380D01*
X142716190Y-93162380D01*
X142620952Y-93114761D01*
X142573333Y-93067142D01*
X142525714Y-92971904D01*
X142478095Y-92781428D01*
X142478095Y-92543333D01*
X142525714Y-92352857D01*
X142573333Y-92257619D01*
X142620952Y-92210000D01*
X142716190Y-92162380D01*
X143335238Y-92162380D02*
X143668571Y-93162380D01*
X144001904Y-92162380D01*
X150796666Y-76922380D02*
X150796666Y-77636666D01*
X150749047Y-77779523D01*
X150653809Y-77874761D01*
X150510952Y-77922380D01*
X150415714Y-77922380D01*
X151796666Y-77922380D02*
X151225238Y-77922380D01*
X151510952Y-77922380D02*
X151510952Y-76922380D01*
X151415714Y-77065238D01*
X151320476Y-77160476D01*
X151225238Y-77208095D01*
X150796666Y-115452380D02*
X150796666Y-116166666D01*
X150749047Y-116309523D01*
X150653809Y-116404761D01*
X150510952Y-116452380D01*
X150415714Y-116452380D01*
X151225238Y-115547619D02*
X151272857Y-115500000D01*
X151368095Y-115452380D01*
X151606190Y-115452380D01*
X151701428Y-115500000D01*
X151749047Y-115547619D01*
X151796666Y-115642857D01*
X151796666Y-115738095D01*
X151749047Y-115880952D01*
X151177619Y-116452380D01*
X151796666Y-116452380D01*
M02*
