G04 #@! TF.GenerationSoftware,KiCad,Pcbnew,(5.1.4-0-10_14)*
G04 #@! TF.CreationDate,2019-09-21T10:22:49-07:00*
G04 #@! TF.ProjectId,9A_9AJ_Heater_Helper,39415f39-414a-45f4-9865-617465725f48,1.0*
G04 #@! TF.SameCoordinates,Original*
G04 #@! TF.FileFunction,Copper,L1,Top*
G04 #@! TF.FilePolarity,Positive*
%FSLAX46Y46*%
G04 Gerber Fmt 4.6, Leading zero omitted, Abs format (unit mm)*
G04 Created by KiCad (PCBNEW (5.1.4-0-10_14)) date 2019-09-21 10:22:49*
%MOMM*%
%LPD*%
G04 APERTURE LIST*
%ADD10C,2.500000*%
%ADD11C,6.400000*%
%ADD12C,3.000000*%
%ADD13R,3.000000X3.000000*%
%ADD14C,2.000000*%
G04 APERTURE END LIST*
D10*
X138430000Y-88900000D03*
X146050000Y-88900000D03*
X138430000Y-97790000D03*
X146050000Y-97790000D03*
X138430000Y-106680000D03*
X146050000Y-106680000D03*
D11*
X129540000Y-121920000D03*
X129540000Y-72390000D03*
X154940000Y-121920000D03*
X154940000Y-72390000D03*
D12*
X147320000Y-73660000D03*
X142240000Y-73660000D03*
D13*
X137160000Y-73660000D03*
X137160000Y-120650000D03*
D12*
X142240000Y-120650000D03*
X147320000Y-120650000D03*
D14*
X148800001Y-77261321D02*
X147320000Y-75781320D01*
X148800001Y-95039999D02*
X148800001Y-77261321D01*
X147320000Y-75781320D02*
X147320000Y-73660000D01*
X146050000Y-97790000D02*
X148800001Y-95039999D01*
X142240000Y-75781320D02*
X142240000Y-73660000D01*
X142240000Y-89160002D02*
X142240000Y-75781320D01*
X138430000Y-92970002D02*
X142240000Y-89160002D01*
X138430000Y-97790000D02*
X138430000Y-92970002D01*
X135679999Y-108000001D02*
X135679999Y-91650001D01*
X137160000Y-109480002D02*
X135679999Y-108000001D01*
X137180001Y-90149999D02*
X138430000Y-88900000D01*
X135679999Y-91650001D02*
X137180001Y-90149999D01*
X137160000Y-120650000D02*
X137160000Y-109480002D01*
X138430000Y-74930000D02*
X137160000Y-73660000D01*
X138430000Y-88900000D02*
X138430000Y-74930000D01*
X147320000Y-107950000D02*
X146050000Y-106680000D01*
X147320000Y-120650000D02*
X147320000Y-107950000D01*
X142240000Y-110490000D02*
X138430000Y-106680000D01*
X142240000Y-120650000D02*
X142240000Y-110490000D01*
X144800001Y-90149999D02*
X146050000Y-88900000D01*
X141180001Y-93769999D02*
X144800001Y-90149999D01*
X141180001Y-103929999D02*
X141180001Y-93769999D01*
X138430000Y-106680000D02*
X141180001Y-103929999D01*
M02*
