%TF.GenerationSoftware,KiCad,Pcbnew,(5.1.12-1-10_14)*%
%TF.CreationDate,2022-01-04T16:21:17-08:00*%
%TF.ProjectId,pass-tube-array,70617373-2d74-4756-9265-2d6172726179,1.0*%
%TF.SameCoordinates,Original*%
%TF.FileFunction,Copper,L1,Top*%
%TF.FilePolarity,Positive*%
%FSLAX46Y46*%
G04 Gerber Fmt 4.6, Leading zero omitted, Abs format (unit mm)*
G04 Created by KiCad (PCBNEW (5.1.12-1-10_14)) date 2022-01-04 16:21:17*
%MOMM*%
%LPD*%
G01*
G04 APERTURE LIST*
%TA.AperFunction,ComponentPad*%
%ADD10O,2.400000X2.400000*%
%TD*%
%TA.AperFunction,ComponentPad*%
%ADD11C,2.400000*%
%TD*%
%TA.AperFunction,ComponentPad*%
%ADD12O,3.750000X3.750000*%
%TD*%
%TA.AperFunction,ComponentPad*%
%ADD13R,3.000000X3.000000*%
%TD*%
%TA.AperFunction,ComponentPad*%
%ADD14C,3.000000*%
%TD*%
%TA.AperFunction,Conductor*%
%ADD15C,0.250000*%
%TD*%
%TA.AperFunction,Conductor*%
%ADD16C,4.500000*%
%TD*%
G04 APERTURE END LIST*
D10*
%TO.P,R11,2*%
%TO.N,Net-(J1-Pad3)*%
X142875000Y-108585000D03*
D11*
%TO.P,R11,1*%
%TO.N,Net-(R11-Pad1)*%
X142875000Y-123825000D03*
%TD*%
D12*
%TO.P,U1,8*%
%TO.N,Net-(R2-Pad1)*%
X109960116Y-78685433D03*
%TO.P,U1,7*%
%TO.N,Filament_A*%
X102924567Y-71649884D03*
%TO.P,U1,6*%
%TO.N,N/C*%
X102924567Y-61700116D03*
%TO.P,U1,5*%
%TO.N,Net-(R1-Pad1)*%
X109960116Y-54664567D03*
%TO.P,U1,4*%
%TO.N,Net-(R3-Pad1)*%
X119909884Y-54664567D03*
%TO.P,U1,3*%
%TO.N,Net-(J1-Pad1)*%
X126945433Y-61700116D03*
%TO.P,U1,2*%
%TO.N,Filament_B*%
X126945433Y-71649884D03*
%TO.P,U1,1*%
%TO.N,N/C*%
%TA.AperFunction,ComponentPad*%
G36*
G01*
X118284884Y-79495433D02*
X118284884Y-77875433D01*
G75*
G02*
X119094884Y-77065433I810000J0D01*
G01*
X120724884Y-77065433D01*
G75*
G02*
X121534884Y-77875433I0J-810000D01*
G01*
X121534884Y-79495433D01*
G75*
G02*
X120724884Y-80305433I-810000J0D01*
G01*
X119094884Y-80305433D01*
G75*
G02*
X118284884Y-79495433I0J810000D01*
G01*
G37*
%TD.AperFunction*%
%TD*%
%TO.P,U2,8*%
%TO.N,Net-(R5-Pad1)*%
X186160116Y-78685433D03*
%TO.P,U2,7*%
%TO.N,Filament_B*%
X179124567Y-71649884D03*
%TO.P,U2,6*%
%TO.N,N/C*%
X179124567Y-61700116D03*
%TO.P,U2,5*%
%TO.N,Net-(R4-Pad1)*%
X186160116Y-54664567D03*
%TO.P,U2,4*%
%TO.N,Net-(R6-Pad1)*%
X196109884Y-54664567D03*
%TO.P,U2,3*%
%TO.N,Net-(J1-Pad1)*%
X203145433Y-61700116D03*
%TO.P,U2,2*%
%TO.N,Filament_A*%
X203145433Y-71649884D03*
%TO.P,U2,1*%
%TO.N,N/C*%
%TA.AperFunction,ComponentPad*%
G36*
G01*
X194484884Y-79495433D02*
X194484884Y-77875433D01*
G75*
G02*
X195294884Y-77065433I810000J0D01*
G01*
X196924884Y-77065433D01*
G75*
G02*
X197734884Y-77875433I0J-810000D01*
G01*
X197734884Y-79495433D01*
G75*
G02*
X196924884Y-80305433I-810000J0D01*
G01*
X195294884Y-80305433D01*
G75*
G02*
X194484884Y-79495433I0J810000D01*
G01*
G37*
%TD.AperFunction*%
%TD*%
%TO.P,U3,8*%
%TO.N,Net-(R8-Pad1)*%
X186160116Y-146630433D03*
%TO.P,U3,7*%
%TO.N,Filament_B*%
X179124567Y-139594884D03*
%TO.P,U3,6*%
%TO.N,N/C*%
X179124567Y-129645116D03*
%TO.P,U3,5*%
%TO.N,Net-(R7-Pad1)*%
X186160116Y-122609567D03*
%TO.P,U3,4*%
%TO.N,Net-(R9-Pad1)*%
X196109884Y-122609567D03*
%TO.P,U3,3*%
%TO.N,Net-(J1-Pad1)*%
X203145433Y-129645116D03*
%TO.P,U3,2*%
%TO.N,Filament_A*%
X203145433Y-139594884D03*
%TO.P,U3,1*%
%TO.N,N/C*%
%TA.AperFunction,ComponentPad*%
G36*
G01*
X194484884Y-147440433D02*
X194484884Y-145820433D01*
G75*
G02*
X195294884Y-145010433I810000J0D01*
G01*
X196924884Y-145010433D01*
G75*
G02*
X197734884Y-145820433I0J-810000D01*
G01*
X197734884Y-147440433D01*
G75*
G02*
X196924884Y-148250433I-810000J0D01*
G01*
X195294884Y-148250433D01*
G75*
G02*
X194484884Y-147440433I0J810000D01*
G01*
G37*
%TD.AperFunction*%
%TD*%
%TO.P,U4,8*%
%TO.N,Net-(R11-Pad1)*%
X109960116Y-147265433D03*
%TO.P,U4,7*%
%TO.N,Filament_A*%
X102924567Y-140229884D03*
%TO.P,U4,6*%
%TO.N,N/C*%
X102924567Y-130280116D03*
%TO.P,U4,5*%
%TO.N,Net-(R10-Pad1)*%
X109960116Y-123244567D03*
%TO.P,U4,4*%
%TO.N,Net-(R12-Pad1)*%
X119909884Y-123244567D03*
%TO.P,U4,3*%
%TO.N,Net-(J1-Pad1)*%
X126945433Y-130280116D03*
%TO.P,U4,2*%
%TO.N,Filament_B*%
X126945433Y-140229884D03*
%TO.P,U4,1*%
%TO.N,N/C*%
%TA.AperFunction,ComponentPad*%
G36*
G01*
X118284884Y-148075433D02*
X118284884Y-146455433D01*
G75*
G02*
X119094884Y-145645433I810000J0D01*
G01*
X120724884Y-145645433D01*
G75*
G02*
X121534884Y-146455433I0J-810000D01*
G01*
X121534884Y-148075433D01*
G75*
G02*
X120724884Y-148885433I-810000J0D01*
G01*
X119094884Y-148885433D01*
G75*
G02*
X118284884Y-148075433I0J810000D01*
G01*
G37*
%TD.AperFunction*%
%TD*%
D13*
%TO.P,J1,1*%
%TO.N,Net-(J1-Pad1)*%
X136525000Y-25400000D03*
D14*
%TO.P,J1,2*%
%TO.N,Net-(J1-Pad2)*%
X146685000Y-25400000D03*
%TO.P,J1,3*%
%TO.N,Net-(J1-Pad3)*%
X156845000Y-25400000D03*
%TO.P,J1,4*%
%TO.N,Net-(J1-Pad4)*%
X167005000Y-25400000D03*
%TD*%
D13*
%TO.P,J2,1*%
%TO.N,Filament_B*%
X155575000Y-159385000D03*
D14*
%TO.P,J2,2*%
%TO.N,Filament_A*%
X150495000Y-159385000D03*
%TD*%
D11*
%TO.P,R1,1*%
%TO.N,Net-(R1-Pad1)*%
X107315000Y-39370000D03*
D10*
%TO.P,R1,2*%
%TO.N,Net-(J1-Pad4)*%
X122555000Y-39370000D03*
%TD*%
D11*
%TO.P,R2,1*%
%TO.N,Net-(R2-Pad1)*%
X142240000Y-78740000D03*
D10*
%TO.P,R2,2*%
%TO.N,Net-(J1-Pad3)*%
X142240000Y-63500000D03*
%TD*%
D11*
%TO.P,R3,1*%
%TO.N,Net-(R3-Pad1)*%
X126365000Y-39370000D03*
D10*
%TO.P,R3,2*%
%TO.N,Net-(J1-Pad2)*%
X141605000Y-39370000D03*
%TD*%
%TO.P,R4,2*%
%TO.N,Net-(J1-Pad4)*%
X164465000Y-39370000D03*
D11*
%TO.P,R4,1*%
%TO.N,Net-(R4-Pad1)*%
X179705000Y-39370000D03*
%TD*%
D10*
%TO.P,R5,2*%
%TO.N,Net-(J1-Pad3)*%
X163830000Y-63500000D03*
D11*
%TO.P,R5,1*%
%TO.N,Net-(R5-Pad1)*%
X163830000Y-78740000D03*
%TD*%
D10*
%TO.P,R6,2*%
%TO.N,Net-(J1-Pad2)*%
X183515000Y-39370000D03*
D11*
%TO.P,R6,1*%
%TO.N,Net-(R6-Pad1)*%
X198755000Y-39370000D03*
%TD*%
%TO.P,R7,1*%
%TO.N,Net-(R7-Pad1)*%
X198755000Y-104775000D03*
D10*
%TO.P,R7,2*%
%TO.N,Net-(J1-Pad4)*%
X183515000Y-104775000D03*
%TD*%
D11*
%TO.P,R8,1*%
%TO.N,Net-(R8-Pad1)*%
X163195000Y-123825000D03*
D10*
%TO.P,R8,2*%
%TO.N,Net-(J1-Pad3)*%
X163195000Y-108585000D03*
%TD*%
D11*
%TO.P,R9,1*%
%TO.N,Net-(R9-Pad1)*%
X198755000Y-97155000D03*
D10*
%TO.P,R9,2*%
%TO.N,Net-(J1-Pad2)*%
X183515000Y-97155000D03*
%TD*%
%TO.P,R10,2*%
%TO.N,Net-(J1-Pad4)*%
X122555000Y-104775000D03*
D11*
%TO.P,R10,1*%
%TO.N,Net-(R10-Pad1)*%
X107315000Y-104775000D03*
%TD*%
D10*
%TO.P,R12,2*%
%TO.N,Net-(J1-Pad2)*%
X107315000Y-97155000D03*
D11*
%TO.P,R12,1*%
%TO.N,Net-(R12-Pad1)*%
X122555000Y-97155000D03*
%TD*%
%TO.P,R13,1*%
%TO.N,Net-(J1-Pad3)*%
X142875000Y-144145000D03*
D10*
%TO.P,R13,2*%
%TO.N,Filament_B*%
X142875000Y-128905000D03*
%TD*%
%TO.P,R14,2*%
%TO.N,Filament_A*%
X163195000Y-128905000D03*
D11*
%TO.P,R14,1*%
%TO.N,Net-(J1-Pad3)*%
X163195000Y-144145000D03*
%TD*%
D15*
%TO.N,Net-(J1-Pad1)*%
X124070424Y-64575125D02*
X126945433Y-61700116D01*
X126945433Y-75715762D02*
X124070424Y-72840753D01*
X124070424Y-72840753D02*
X124070424Y-64575125D01*
X136525000Y-52120549D02*
X126945433Y-61700116D01*
X136525000Y-25400000D02*
X136525000Y-52120549D01*
X200270424Y-64575125D02*
X203145433Y-61700116D01*
X200270424Y-72840753D02*
X200270424Y-64575125D01*
X203145433Y-75715762D02*
X200270424Y-72840753D01*
X203145433Y-129645116D02*
X203145433Y-75715762D01*
X126945433Y-130280116D02*
X126945433Y-75715762D01*
%TO.N,Net-(J1-Pad2)*%
X141605000Y-30480000D02*
X146685000Y-25400000D01*
X141605000Y-39370000D02*
X141605000Y-30480000D01*
X183515000Y-39370000D02*
X183515000Y-97155000D01*
%TO.N,Net-(J1-Pad3)*%
X156845000Y-56515000D02*
X163830000Y-63500000D01*
X156845000Y-25400000D02*
X156845000Y-56515000D01*
X142875000Y-144145000D02*
X163195000Y-144145000D01*
X145750010Y-111460010D02*
X142875000Y-108585000D01*
X145750010Y-141269990D02*
X145750010Y-111460010D01*
X142875000Y-144145000D02*
X145750010Y-141269990D01*
X144065001Y-79616001D02*
X144065001Y-65325001D01*
X144065001Y-65325001D02*
X142240000Y-63500000D01*
X142875000Y-80806002D02*
X144065001Y-79616001D01*
X142875000Y-108585000D02*
X142875000Y-80806002D01*
%TO.N,Net-(J1-Pad4)*%
X164465000Y-27940000D02*
X167005000Y-25400000D01*
X164465000Y-39370000D02*
X164465000Y-27940000D01*
X124380001Y-96278999D02*
X124380001Y-102949999D01*
X122555000Y-94453998D02*
X124380001Y-96278999D01*
X124380001Y-102949999D02*
X122555000Y-104775000D01*
X122555000Y-39370000D02*
X122555000Y-94453998D01*
%TO.N,Net-(R1-Pad1)*%
X107315000Y-52019451D02*
X109960116Y-54664567D01*
X107315000Y-39370000D02*
X107315000Y-52019451D01*
%TO.N,Net-(R6-Pad1)*%
X198755000Y-52019451D02*
X196109884Y-54664567D01*
X198755000Y-39370000D02*
X198755000Y-52019451D01*
%TO.N,Net-(R7-Pad1)*%
X198755000Y-110014683D02*
X186160116Y-122609567D01*
X198755000Y-104775000D02*
X198755000Y-110014683D01*
%TO.N,Net-(R9-Pad1)*%
X200580001Y-118139450D02*
X196109884Y-122609567D01*
X200580001Y-98980001D02*
X200580001Y-118139450D01*
X198755000Y-97155000D02*
X200580001Y-98980001D01*
%TO.N,Net-(R10-Pad1)*%
X107315000Y-120599451D02*
X109960116Y-123244567D01*
X107315000Y-104775000D02*
X107315000Y-120599451D01*
%TO.N,Net-(R12-Pad1)*%
X119909884Y-99800116D02*
X119909884Y-123244567D01*
X122555000Y-97155000D02*
X119909884Y-99800116D01*
D16*
%TO.N,Filament_B*%
X179124567Y-117339020D02*
X179124567Y-71649884D01*
X148035003Y-150635001D02*
X137350550Y-150635001D01*
X154745001Y-157344999D02*
X148035003Y-150635001D01*
X137350550Y-150635001D02*
X126945433Y-140229884D01*
X154745001Y-159190001D02*
X154745001Y-157344999D01*
X154940000Y-159385000D02*
X154745001Y-159190001D01*
X155575000Y-159385000D02*
X154940000Y-159385000D01*
X159334451Y-159385000D02*
X179124567Y-139594884D01*
X155575000Y-159385000D02*
X159334451Y-159385000D01*
X131570434Y-76274885D02*
X126945433Y-71649884D01*
X131570434Y-135604883D02*
X131570434Y-76274885D01*
X179124567Y-122419020D02*
X179124567Y-117339020D01*
X183749568Y-134969883D02*
X183749568Y-127044021D01*
X183749568Y-127044021D02*
X179124567Y-122419020D01*
X179124567Y-139594884D02*
X183749568Y-134969883D01*
X129142658Y-138032658D02*
X131570434Y-135604883D01*
X138270316Y-128905000D02*
X129142658Y-138032658D01*
X142875000Y-128905000D02*
X138270316Y-128905000D01*
X126945433Y-140229884D02*
X129142658Y-138032658D01*
%TO.N,Filament_A*%
X98299566Y-76274885D02*
X102924567Y-71649884D01*
X98299566Y-135604883D02*
X98299566Y-76274885D01*
X102924567Y-140229884D02*
X98299566Y-135604883D01*
X207770434Y-76274885D02*
X203145433Y-71649884D01*
X207770434Y-134969883D02*
X207770434Y-76274885D01*
X203145433Y-139594884D02*
X207770434Y-134969883D01*
%TD*%
M02*
