M48
; DRILL file {KiCad (5.1.12-1-10_14)} date Tuesday, January 04, 2022 at 03:34:08 PM
; FORMAT={-:-/ absolute / inch / decimal}
; #@! TF.CreationDate,2022-01-04T15:34:08-08:00
; #@! TF.GenerationSoftware,Kicad,Pcbnew,(5.1.12-1-10_14)
; #@! TF.FileFunction,Plated,1,2,PTH
FMAT,2
INCH
T1C0.0472
T2C0.0598
T3C0.0787
%
G90
G05
T1
X7.4Y-3.4
X7.4Y-5.675
X7.4Y-5.975
X8.0Y-3.4
X8.0Y-5.675
X8.0Y-5.975
X8.15Y-3.4
X8.75Y-3.4
X8.775Y-4.35
X8.775Y-4.95
X8.8Y-6.125
X8.8Y-6.725
X8.8Y-6.925
X8.8Y-7.525
X9.6Y-6.125
X9.6Y-6.725
X9.6Y-6.925
X9.6Y-7.525
X9.625Y-4.35
X9.625Y-4.95
X9.65Y-3.4
X10.25Y-3.4
X10.4Y-3.4
X10.4Y-5.675
X10.4Y-5.975
X11.0Y-3.4
X11.0Y-5.675
X11.0Y-5.975
T2
X8.55Y-2.85
X8.95Y-2.85
X9.1Y-8.125
X9.3Y-8.125
X9.35Y-2.85
X9.75Y-2.85
T3
X7.2271Y-4.2791
X7.2271Y-4.6709
X7.2271Y-6.9791
X7.2271Y-7.3709
X7.5041Y-4.0021
X7.5041Y-4.9479
X7.5041Y-6.7021
X7.5041Y-7.6479
X7.8959Y-4.0021
X7.8959Y-4.9479
X7.8959Y-6.7021
X7.8959Y-7.6479
X8.1729Y-4.2791
X8.1729Y-4.6709
X8.1729Y-6.9791
X8.1729Y-7.3709
X10.2271Y-4.2791
X10.2271Y-4.6709
X10.2271Y-6.9541
X10.2271Y-7.3459
X10.5041Y-4.0021
X10.5041Y-4.9479
X10.5041Y-6.6771
X10.5041Y-7.6229
X10.8959Y-4.0021
X10.8959Y-4.9479
X10.8959Y-6.6771
X10.8959Y-7.6229
X11.1729Y-4.2791
X11.1729Y-4.6709
X11.1729Y-6.9541
X11.1729Y-7.3459
T0
M30
