M48
; DRILL file {KiCad (5.1.12-1-10_14)} date Tuesday, January 04, 2022 at 04:21:19 PM
; FORMAT={-:-/ absolute / inch / decimal}
; #@! TF.CreationDate,2022-01-04T16:21:19-08:00
; #@! TF.GenerationSoftware,Kicad,Pcbnew,(5.1.12-1-10_14)
; #@! TF.FileFunction,Plated,1,2,PTH
FMAT,2
INCH
T1C0.0472
T2C0.0598
T3C0.0787
%
G90
G05
T1
X4.225Y-1.55
X4.225Y-3.825
X4.225Y-4.125
X4.825Y-1.55
X4.825Y-3.825
X4.825Y-4.125
X4.975Y-1.55
X5.575Y-1.55
X5.6Y-2.5
X5.6Y-3.1
X5.625Y-4.275
X5.625Y-4.875
X5.625Y-5.075
X5.625Y-5.675
X6.425Y-4.275
X6.425Y-4.875
X6.425Y-5.075
X6.425Y-5.675
X6.45Y-2.5
X6.45Y-3.1
X6.475Y-1.55
X7.075Y-1.55
X7.225Y-1.55
X7.225Y-3.825
X7.225Y-4.125
X7.825Y-1.55
X7.825Y-3.825
X7.825Y-4.125
T2
X5.375Y-1.0
X5.775Y-1.0
X5.925Y-6.275
X6.125Y-6.275
X6.175Y-1.0
X6.575Y-1.0
T3
X4.0521Y-2.4291
X4.0521Y-2.8209
X4.0521Y-5.1291
X4.0521Y-5.5209
X4.3291Y-2.1521
X4.3291Y-3.0979
X4.3291Y-4.8521
X4.3291Y-5.7979
X4.7209Y-2.1521
X4.7209Y-3.0979
X4.7209Y-4.8521
X4.7209Y-5.7979
X4.9979Y-2.4291
X4.9979Y-2.8209
X4.9979Y-5.1291
X4.9979Y-5.5209
X7.0521Y-2.4291
X7.0521Y-2.8209
X7.0521Y-5.1041
X7.0521Y-5.4959
X7.3291Y-2.1521
X7.3291Y-3.0979
X7.3291Y-4.8271
X7.3291Y-5.7729
X7.7209Y-2.1521
X7.7209Y-3.0979
X7.7209Y-4.8271
X7.7209Y-5.7729
X7.9979Y-2.4291
X7.9979Y-2.8209
X7.9979Y-5.1041
X7.9979Y-5.4959
T0
M30
