%TF.GenerationSoftware,KiCad,Pcbnew,(5.1.12-1-10_14)*%
%TF.CreationDate,2022-01-04T15:34:02-08:00*%
%TF.ProjectId,pass-tube-array,70617373-2d74-4756-9265-2d6172726179,0.1*%
%TF.SameCoordinates,Original*%
%TF.FileFunction,Copper,L2,Bot*%
%TF.FilePolarity,Positive*%
%FSLAX46Y46*%
G04 Gerber Fmt 4.6, Leading zero omitted, Abs format (unit mm)*
G04 Created by KiCad (PCBNEW (5.1.12-1-10_14)) date 2022-01-04 15:34:02*
%MOMM*%
%LPD*%
G01*
G04 APERTURE LIST*
%TA.AperFunction,ComponentPad*%
%ADD10O,2.400000X2.400000*%
%TD*%
%TA.AperFunction,ComponentPad*%
%ADD11C,2.400000*%
%TD*%
%TA.AperFunction,ComponentPad*%
%ADD12O,3.750000X3.750000*%
%TD*%
%TA.AperFunction,ComponentPad*%
%ADD13R,3.000000X3.000000*%
%TD*%
%TA.AperFunction,ComponentPad*%
%ADD14C,3.000000*%
%TD*%
%TA.AperFunction,Conductor*%
%ADD15C,0.250000*%
%TD*%
%TA.AperFunction,Conductor*%
%ADD16C,4.500000*%
%TD*%
G04 APERTURE END LIST*
D10*
%TO.P,R11,2*%
%TO.N,Net-(J1-Pad3)*%
X223520000Y-155575000D03*
D11*
%TO.P,R11,1*%
%TO.N,Net-(R11-Pad1)*%
X223520000Y-170815000D03*
%TD*%
D12*
%TO.P,U1,8*%
%TO.N,Net-(R2-Pad1)*%
X190605116Y-125675433D03*
%TO.P,U1,7*%
%TO.N,Filament_A*%
X183569567Y-118639884D03*
%TO.P,U1,6*%
%TO.N,N/C*%
X183569567Y-108690116D03*
%TO.P,U1,5*%
%TO.N,Net-(R1-Pad1)*%
X190605116Y-101654567D03*
%TO.P,U1,4*%
%TO.N,Net-(R3-Pad1)*%
X200554884Y-101654567D03*
%TO.P,U1,3*%
%TO.N,Net-(J1-Pad1)*%
X207590433Y-108690116D03*
%TO.P,U1,2*%
%TO.N,Filament_B*%
X207590433Y-118639884D03*
%TO.P,U1,1*%
%TO.N,N/C*%
%TA.AperFunction,ComponentPad*%
G36*
G01*
X198929884Y-126485433D02*
X198929884Y-124865433D01*
G75*
G02*
X199739884Y-124055433I810000J0D01*
G01*
X201369884Y-124055433D01*
G75*
G02*
X202179884Y-124865433I0J-810000D01*
G01*
X202179884Y-126485433D01*
G75*
G02*
X201369884Y-127295433I-810000J0D01*
G01*
X199739884Y-127295433D01*
G75*
G02*
X198929884Y-126485433I0J810000D01*
G01*
G37*
%TD.AperFunction*%
%TD*%
%TO.P,U2,8*%
%TO.N,Net-(R5-Pad1)*%
X266805116Y-125675433D03*
%TO.P,U2,7*%
%TO.N,Filament_B*%
X259769567Y-118639884D03*
%TO.P,U2,6*%
%TO.N,N/C*%
X259769567Y-108690116D03*
%TO.P,U2,5*%
%TO.N,Net-(R4-Pad1)*%
X266805116Y-101654567D03*
%TO.P,U2,4*%
%TO.N,Net-(R6-Pad1)*%
X276754884Y-101654567D03*
%TO.P,U2,3*%
%TO.N,Net-(J1-Pad1)*%
X283790433Y-108690116D03*
%TO.P,U2,2*%
%TO.N,Filament_A*%
X283790433Y-118639884D03*
%TO.P,U2,1*%
%TO.N,N/C*%
%TA.AperFunction,ComponentPad*%
G36*
G01*
X275129884Y-126485433D02*
X275129884Y-124865433D01*
G75*
G02*
X275939884Y-124055433I810000J0D01*
G01*
X277569884Y-124055433D01*
G75*
G02*
X278379884Y-124865433I0J-810000D01*
G01*
X278379884Y-126485433D01*
G75*
G02*
X277569884Y-127295433I-810000J0D01*
G01*
X275939884Y-127295433D01*
G75*
G02*
X275129884Y-126485433I0J810000D01*
G01*
G37*
%TD.AperFunction*%
%TD*%
%TO.P,U3,8*%
%TO.N,Net-(R8-Pad1)*%
X266805116Y-193620433D03*
%TO.P,U3,7*%
%TO.N,Filament_B*%
X259769567Y-186584884D03*
%TO.P,U3,6*%
%TO.N,N/C*%
X259769567Y-176635116D03*
%TO.P,U3,5*%
%TO.N,Net-(R7-Pad1)*%
X266805116Y-169599567D03*
%TO.P,U3,4*%
%TO.N,Net-(R9-Pad1)*%
X276754884Y-169599567D03*
%TO.P,U3,3*%
%TO.N,Net-(J1-Pad1)*%
X283790433Y-176635116D03*
%TO.P,U3,2*%
%TO.N,Filament_A*%
X283790433Y-186584884D03*
%TO.P,U3,1*%
%TO.N,N/C*%
%TA.AperFunction,ComponentPad*%
G36*
G01*
X275129884Y-194430433D02*
X275129884Y-192810433D01*
G75*
G02*
X275939884Y-192000433I810000J0D01*
G01*
X277569884Y-192000433D01*
G75*
G02*
X278379884Y-192810433I0J-810000D01*
G01*
X278379884Y-194430433D01*
G75*
G02*
X277569884Y-195240433I-810000J0D01*
G01*
X275939884Y-195240433D01*
G75*
G02*
X275129884Y-194430433I0J810000D01*
G01*
G37*
%TD.AperFunction*%
%TD*%
%TO.P,U4,8*%
%TO.N,Net-(R11-Pad1)*%
X190605116Y-194255433D03*
%TO.P,U4,7*%
%TO.N,Filament_A*%
X183569567Y-187219884D03*
%TO.P,U4,6*%
%TO.N,N/C*%
X183569567Y-177270116D03*
%TO.P,U4,5*%
%TO.N,Net-(R10-Pad1)*%
X190605116Y-170234567D03*
%TO.P,U4,4*%
%TO.N,Net-(R12-Pad1)*%
X200554884Y-170234567D03*
%TO.P,U4,3*%
%TO.N,Net-(J1-Pad1)*%
X207590433Y-177270116D03*
%TO.P,U4,2*%
%TO.N,Filament_B*%
X207590433Y-187219884D03*
%TO.P,U4,1*%
%TO.N,N/C*%
%TA.AperFunction,ComponentPad*%
G36*
G01*
X198929884Y-195065433D02*
X198929884Y-193445433D01*
G75*
G02*
X199739884Y-192635433I810000J0D01*
G01*
X201369884Y-192635433D01*
G75*
G02*
X202179884Y-193445433I0J-810000D01*
G01*
X202179884Y-195065433D01*
G75*
G02*
X201369884Y-195875433I-810000J0D01*
G01*
X199739884Y-195875433D01*
G75*
G02*
X198929884Y-195065433I0J810000D01*
G01*
G37*
%TD.AperFunction*%
%TD*%
D13*
%TO.P,J1,1*%
%TO.N,Net-(J1-Pad1)*%
X217170000Y-72390000D03*
D14*
%TO.P,J1,2*%
%TO.N,Net-(J1-Pad2)*%
X227330000Y-72390000D03*
%TO.P,J1,3*%
%TO.N,Net-(J1-Pad3)*%
X237490000Y-72390000D03*
%TO.P,J1,4*%
%TO.N,Net-(J1-Pad4)*%
X247650000Y-72390000D03*
%TD*%
D13*
%TO.P,J2,1*%
%TO.N,Filament_B*%
X236220000Y-206375000D03*
D14*
%TO.P,J2,2*%
%TO.N,Filament_A*%
X231140000Y-206375000D03*
%TD*%
D11*
%TO.P,R1,1*%
%TO.N,Net-(R1-Pad1)*%
X187960000Y-86360000D03*
D10*
%TO.P,R1,2*%
%TO.N,Net-(J1-Pad4)*%
X203200000Y-86360000D03*
%TD*%
D11*
%TO.P,R2,1*%
%TO.N,Net-(R2-Pad1)*%
X222885000Y-125730000D03*
D10*
%TO.P,R2,2*%
%TO.N,Net-(J1-Pad3)*%
X222885000Y-110490000D03*
%TD*%
D11*
%TO.P,R3,1*%
%TO.N,Net-(R3-Pad1)*%
X207010000Y-86360000D03*
D10*
%TO.P,R3,2*%
%TO.N,Net-(J1-Pad2)*%
X222250000Y-86360000D03*
%TD*%
%TO.P,R4,2*%
%TO.N,Net-(J1-Pad4)*%
X245110000Y-86360000D03*
D11*
%TO.P,R4,1*%
%TO.N,Net-(R4-Pad1)*%
X260350000Y-86360000D03*
%TD*%
D10*
%TO.P,R5,2*%
%TO.N,Net-(J1-Pad3)*%
X244475000Y-110490000D03*
D11*
%TO.P,R5,1*%
%TO.N,Net-(R5-Pad1)*%
X244475000Y-125730000D03*
%TD*%
D10*
%TO.P,R6,2*%
%TO.N,Net-(J1-Pad2)*%
X264160000Y-86360000D03*
D11*
%TO.P,R6,1*%
%TO.N,Net-(R6-Pad1)*%
X279400000Y-86360000D03*
%TD*%
%TO.P,R7,1*%
%TO.N,Net-(R7-Pad1)*%
X279400000Y-151765000D03*
D10*
%TO.P,R7,2*%
%TO.N,Net-(J1-Pad4)*%
X264160000Y-151765000D03*
%TD*%
D11*
%TO.P,R8,1*%
%TO.N,Net-(R8-Pad1)*%
X243840000Y-170815000D03*
D10*
%TO.P,R8,2*%
%TO.N,Net-(J1-Pad3)*%
X243840000Y-155575000D03*
%TD*%
D11*
%TO.P,R9,1*%
%TO.N,Net-(R9-Pad1)*%
X279400000Y-144145000D03*
D10*
%TO.P,R9,2*%
%TO.N,Net-(J1-Pad2)*%
X264160000Y-144145000D03*
%TD*%
%TO.P,R10,2*%
%TO.N,Net-(J1-Pad4)*%
X203200000Y-151765000D03*
D11*
%TO.P,R10,1*%
%TO.N,Net-(R10-Pad1)*%
X187960000Y-151765000D03*
%TD*%
D10*
%TO.P,R12,2*%
%TO.N,Net-(J1-Pad2)*%
X187960000Y-144145000D03*
D11*
%TO.P,R12,1*%
%TO.N,Net-(R12-Pad1)*%
X203200000Y-144145000D03*
%TD*%
%TO.P,R13,1*%
%TO.N,Net-(J1-Pad3)*%
X223520000Y-191135000D03*
D10*
%TO.P,R13,2*%
%TO.N,Filament_B*%
X223520000Y-175895000D03*
%TD*%
%TO.P,R14,2*%
%TO.N,Filament_A*%
X243840000Y-175895000D03*
D11*
%TO.P,R14,1*%
%TO.N,Net-(J1-Pad3)*%
X243840000Y-191135000D03*
%TD*%
D15*
%TO.N,Net-(J1-Pad1)*%
X210090434Y-106190115D02*
X207590433Y-108690116D01*
X281290432Y-106190115D02*
X210090434Y-106190115D01*
X283790433Y-108690116D02*
X281290432Y-106190115D01*
%TO.N,Net-(J1-Pad2)*%
X224075001Y-84534999D02*
X262334999Y-84534999D01*
X262334999Y-84534999D02*
X264160000Y-86360000D01*
X222250000Y-86360000D02*
X224075001Y-84534999D01*
X188105115Y-142094885D02*
X187960000Y-142240000D01*
X188105115Y-143999885D02*
X187960000Y-144145000D01*
X188105115Y-120504885D02*
X188105115Y-143999885D01*
X222250000Y-86360000D02*
X188105115Y-120504885D01*
%TO.N,Net-(J1-Pad3)*%
X244475000Y-110490000D02*
X222885000Y-110490000D01*
X223520000Y-155575000D02*
X243840000Y-155575000D01*
%TO.N,Net-(J1-Pad4)*%
X205775011Y-83784989D02*
X236255011Y-83784989D01*
X236255011Y-83784989D02*
X247650000Y-72390000D01*
X203200000Y-86360000D02*
X205775011Y-83784989D01*
X203200000Y-151765000D02*
X264160000Y-151765000D01*
%TO.N,Net-(R2-Pad1)*%
X220694557Y-127920443D02*
X192850126Y-127920443D01*
X192850126Y-127920443D02*
X190605116Y-125675433D01*
X222885000Y-125730000D02*
X220694557Y-127920443D01*
%TO.N,Net-(R3-Pad1)*%
X207010000Y-95199451D02*
X200554884Y-101654567D01*
X207010000Y-86360000D02*
X207010000Y-95199451D01*
%TO.N,Net-(R4-Pad1)*%
X260350000Y-95199451D02*
X266805116Y-101654567D01*
X260350000Y-86360000D02*
X260350000Y-95199451D01*
%TO.N,Net-(R5-Pad1)*%
X266750549Y-125730000D02*
X266805116Y-125675433D01*
X244475000Y-125730000D02*
X266750549Y-125730000D01*
%TO.N,Net-(R8-Pad1)*%
X266805116Y-189920431D02*
X266805116Y-193620433D01*
X247699685Y-170815000D02*
X266805116Y-189920431D01*
X243840000Y-170815000D02*
X247699685Y-170815000D01*
%TO.N,Net-(R11-Pad1)*%
X205090432Y-179770117D02*
X190605116Y-194255433D01*
X214564883Y-179770117D02*
X205090432Y-179770117D01*
X223520000Y-170815000D02*
X214564883Y-179770117D01*
D16*
%TO.N,Filament_A*%
X183374999Y-118834452D02*
X183569567Y-118639884D01*
X183569567Y-194064886D02*
X183569567Y-187219884D01*
X195879681Y-206375000D02*
X183569567Y-194064886D01*
X231140000Y-206375000D02*
X195879681Y-206375000D01*
X278789497Y-198245434D02*
X283790433Y-193244498D01*
X236399564Y-198245434D02*
X278789497Y-198245434D01*
X283790433Y-193244498D02*
X283790433Y-186584884D01*
X231140000Y-203504998D02*
X236399564Y-198245434D01*
X231140000Y-206375000D02*
X231140000Y-203504998D01*
X231140000Y-188595000D02*
X231140000Y-206375000D01*
X243840000Y-175895000D02*
X231140000Y-188595000D01*
%TD*%
M02*
