%TF.GenerationSoftware,KiCad,Pcbnew,(5.1.12-1-10_14)*%
%TF.CreationDate,2022-01-04T15:34:02-08:00*%
%TF.ProjectId,pass-tube-array,70617373-2d74-4756-9265-2d6172726179,0.1*%
%TF.SameCoordinates,Original*%
%TF.FileFunction,Legend,Top*%
%TF.FilePolarity,Positive*%
%FSLAX46Y46*%
G04 Gerber Fmt 4.6, Leading zero omitted, Abs format (unit mm)*
G04 Created by KiCad (PCBNEW (5.1.12-1-10_14)) date 2022-01-04 15:34:02*
%MOMM*%
%LPD*%
G01*
G04 APERTURE LIST*
%ADD10C,0.500000*%
%ADD11C,0.300000*%
%ADD12C,0.120000*%
%ADD13C,0.381000*%
%ADD14C,0.150000*%
G04 APERTURE END LIST*
D10*
X225296696Y-133477142D02*
X225671696Y-130477142D01*
X226385982Y-130477142D01*
X226796696Y-130620000D01*
X227046696Y-130905714D01*
X227153839Y-131191428D01*
X227225267Y-131762857D01*
X227171696Y-132191428D01*
X226957410Y-132762857D01*
X226778839Y-133048571D01*
X226457410Y-133334285D01*
X226010982Y-133477142D01*
X225296696Y-133477142D01*
X228260982Y-132620000D02*
X229689553Y-132620000D01*
X227868125Y-133477142D02*
X229243125Y-130477142D01*
X229868125Y-133477142D01*
X230868125Y-133477142D02*
X231243125Y-130477142D01*
X232582410Y-133477142D01*
X232957410Y-130477142D01*
X235939553Y-130620000D02*
X235671696Y-130477142D01*
X235243125Y-130477142D01*
X234796696Y-130620000D01*
X234475267Y-130905714D01*
X234296696Y-131191428D01*
X234082410Y-131762857D01*
X234028839Y-132191428D01*
X234100267Y-132762857D01*
X234207410Y-133048571D01*
X234457410Y-133334285D01*
X234868125Y-133477142D01*
X235153839Y-133477142D01*
X235600267Y-133334285D01*
X235760982Y-133191428D01*
X235885982Y-132191428D01*
X235314553Y-132191428D01*
X237207410Y-131905714D02*
X238207410Y-131905714D01*
X238439553Y-133477142D02*
X237010982Y-133477142D01*
X237385982Y-130477142D01*
X238814553Y-130477142D01*
X241439553Y-133477142D02*
X240618125Y-132048571D01*
X239725267Y-133477142D02*
X240100267Y-130477142D01*
X241243125Y-130477142D01*
X241510982Y-130620000D01*
X241635982Y-130762857D01*
X241743125Y-131048571D01*
X241689553Y-131477142D01*
X241510982Y-131762857D01*
X241350267Y-131905714D01*
X241046696Y-132048571D01*
X239903839Y-132048571D01*
X242760982Y-133191428D02*
X242885982Y-133334285D01*
X242725267Y-133477142D01*
X242600267Y-133334285D01*
X242760982Y-133191428D01*
X242725267Y-133477142D01*
X242868125Y-132334285D02*
X242939553Y-130620000D01*
X243100267Y-130477142D01*
X243225267Y-130620000D01*
X242868125Y-132334285D01*
X243100267Y-130477142D01*
X218153839Y-138477142D02*
X218528839Y-135477142D01*
X218350267Y-136905714D02*
X220064553Y-136905714D01*
X219868125Y-138477142D02*
X220243125Y-135477142D01*
X221296696Y-138477142D02*
X221671696Y-135477142D01*
X224653839Y-135620000D02*
X224385982Y-135477142D01*
X223957410Y-135477142D01*
X223510982Y-135620000D01*
X223189553Y-135905714D01*
X223010982Y-136191428D01*
X222796696Y-136762857D01*
X222743125Y-137191428D01*
X222814553Y-137762857D01*
X222921696Y-138048571D01*
X223171696Y-138334285D01*
X223582410Y-138477142D01*
X223868125Y-138477142D01*
X224314553Y-138334285D01*
X224475267Y-138191428D01*
X224600267Y-137191428D01*
X224028839Y-137191428D01*
X225725267Y-138477142D02*
X226100267Y-135477142D01*
X225921696Y-136905714D02*
X227635982Y-136905714D01*
X227439553Y-138477142D02*
X227814553Y-135477142D01*
X231100267Y-135477142D02*
X231725267Y-138477142D01*
X233100267Y-135477142D01*
X234671696Y-135477142D02*
X235243125Y-135477142D01*
X235510982Y-135620000D01*
X235760982Y-135905714D01*
X235832410Y-136477142D01*
X235707410Y-137477142D01*
X235493125Y-138048571D01*
X235171696Y-138334285D01*
X234868125Y-138477142D01*
X234296696Y-138477142D01*
X234028839Y-138334285D01*
X233778839Y-138048571D01*
X233707410Y-137477142D01*
X233832410Y-136477142D01*
X234046696Y-135905714D01*
X234368125Y-135620000D01*
X234671696Y-135477142D01*
X238296696Y-138477142D02*
X236868125Y-138477142D01*
X237243125Y-135477142D01*
X239243125Y-135477142D02*
X240957410Y-135477142D01*
X239725267Y-138477142D02*
X240100267Y-135477142D01*
X241546696Y-137620000D02*
X242975267Y-137620000D01*
X241153839Y-138477142D02*
X242528839Y-135477142D01*
X243153839Y-138477142D01*
X246082410Y-135620000D02*
X245814553Y-135477142D01*
X245385982Y-135477142D01*
X244939553Y-135620000D01*
X244618125Y-135905714D01*
X244439553Y-136191428D01*
X244225267Y-136762857D01*
X244171696Y-137191428D01*
X244243125Y-137762857D01*
X244350267Y-138048571D01*
X244600267Y-138334285D01*
X245010982Y-138477142D01*
X245296696Y-138477142D01*
X245743125Y-138334285D01*
X245903839Y-138191428D01*
X246028839Y-137191428D01*
X245457410Y-137191428D01*
X247350267Y-136905714D02*
X248350267Y-136905714D01*
X248582410Y-138477142D02*
X247153839Y-138477142D01*
X247528839Y-135477142D01*
X248957410Y-135477142D01*
X249903839Y-138191428D02*
X250028839Y-138334285D01*
X249868125Y-138477142D01*
X249743125Y-138334285D01*
X249903839Y-138191428D01*
X249868125Y-138477142D01*
X250010982Y-137334285D02*
X250082410Y-135620000D01*
X250243125Y-135477142D01*
X250368125Y-135620000D01*
X250010982Y-137334285D01*
X250243125Y-135477142D01*
D11*
X172046428Y-137228571D02*
X173546428Y-137228571D01*
X173546428Y-137800000D01*
X173475000Y-137942857D01*
X173403571Y-138014285D01*
X173260714Y-138085714D01*
X173046428Y-138085714D01*
X172903571Y-138014285D01*
X172832142Y-137942857D01*
X172760714Y-137800000D01*
X172760714Y-137228571D01*
X172046428Y-139371428D02*
X172832142Y-139371428D01*
X172975000Y-139300000D01*
X173046428Y-139157142D01*
X173046428Y-138871428D01*
X172975000Y-138728571D01*
X172117857Y-139371428D02*
X172046428Y-139228571D01*
X172046428Y-138871428D01*
X172117857Y-138728571D01*
X172260714Y-138657142D01*
X172403571Y-138657142D01*
X172546428Y-138728571D01*
X172617857Y-138871428D01*
X172617857Y-139228571D01*
X172689285Y-139371428D01*
X172117857Y-140014285D02*
X172046428Y-140157142D01*
X172046428Y-140442857D01*
X172117857Y-140585714D01*
X172260714Y-140657142D01*
X172332142Y-140657142D01*
X172475000Y-140585714D01*
X172546428Y-140442857D01*
X172546428Y-140228571D01*
X172617857Y-140085714D01*
X172760714Y-140014285D01*
X172832142Y-140014285D01*
X172975000Y-140085714D01*
X173046428Y-140228571D01*
X173046428Y-140442857D01*
X172975000Y-140585714D01*
X172117857Y-141228571D02*
X172046428Y-141371428D01*
X172046428Y-141657142D01*
X172117857Y-141800000D01*
X172260714Y-141871428D01*
X172332142Y-141871428D01*
X172475000Y-141800000D01*
X172546428Y-141657142D01*
X172546428Y-141442857D01*
X172617857Y-141300000D01*
X172760714Y-141228571D01*
X172832142Y-141228571D01*
X172975000Y-141300000D01*
X173046428Y-141442857D01*
X173046428Y-141657142D01*
X172975000Y-141800000D01*
X173546428Y-143442857D02*
X173546428Y-144300000D01*
X172046428Y-143871428D02*
X173546428Y-143871428D01*
X173046428Y-145442857D02*
X172046428Y-145442857D01*
X173046428Y-144800000D02*
X172260714Y-144800000D01*
X172117857Y-144871428D01*
X172046428Y-145014285D01*
X172046428Y-145228571D01*
X172117857Y-145371428D01*
X172189285Y-145442857D01*
X172046428Y-146157142D02*
X173546428Y-146157142D01*
X172975000Y-146157142D02*
X173046428Y-146300000D01*
X173046428Y-146585714D01*
X172975000Y-146728571D01*
X172903571Y-146800000D01*
X172760714Y-146871428D01*
X172332142Y-146871428D01*
X172189285Y-146800000D01*
X172117857Y-146728571D01*
X172046428Y-146585714D01*
X172046428Y-146300000D01*
X172117857Y-146157142D01*
X172117857Y-148085714D02*
X172046428Y-147942857D01*
X172046428Y-147657142D01*
X172117857Y-147514285D01*
X172260714Y-147442857D01*
X172832142Y-147442857D01*
X172975000Y-147514285D01*
X173046428Y-147657142D01*
X173046428Y-147942857D01*
X172975000Y-148085714D01*
X172832142Y-148157142D01*
X172689285Y-148157142D01*
X172546428Y-147442857D01*
X172475000Y-149871428D02*
X172475000Y-150585714D01*
X172046428Y-149728571D02*
X173546428Y-150228571D01*
X172046428Y-150728571D01*
X172046428Y-151228571D02*
X173046428Y-151228571D01*
X172760714Y-151228571D02*
X172903571Y-151300000D01*
X172975000Y-151371428D01*
X173046428Y-151514285D01*
X173046428Y-151657142D01*
X172046428Y-152157142D02*
X173046428Y-152157142D01*
X172760714Y-152157142D02*
X172903571Y-152228571D01*
X172975000Y-152300000D01*
X173046428Y-152442857D01*
X173046428Y-152585714D01*
X172046428Y-153728571D02*
X172832142Y-153728571D01*
X172975000Y-153657142D01*
X173046428Y-153514285D01*
X173046428Y-153228571D01*
X172975000Y-153085714D01*
X172117857Y-153728571D02*
X172046428Y-153585714D01*
X172046428Y-153228571D01*
X172117857Y-153085714D01*
X172260714Y-153014285D01*
X172403571Y-153014285D01*
X172546428Y-153085714D01*
X172617857Y-153228571D01*
X172617857Y-153585714D01*
X172689285Y-153728571D01*
X173046428Y-154300000D02*
X172046428Y-154657142D01*
X173046428Y-155014285D02*
X172046428Y-154657142D01*
X171689285Y-154514285D01*
X171617857Y-154442857D01*
X171546428Y-154300000D01*
X169496428Y-142942857D02*
X170210714Y-142442857D01*
X169496428Y-142085714D02*
X170996428Y-142085714D01*
X170996428Y-142657142D01*
X170925000Y-142800000D01*
X170853571Y-142871428D01*
X170710714Y-142942857D01*
X170496428Y-142942857D01*
X170353571Y-142871428D01*
X170282142Y-142800000D01*
X170210714Y-142657142D01*
X170210714Y-142085714D01*
X169567857Y-144157142D02*
X169496428Y-144014285D01*
X169496428Y-143728571D01*
X169567857Y-143585714D01*
X169710714Y-143514285D01*
X170282142Y-143514285D01*
X170425000Y-143585714D01*
X170496428Y-143728571D01*
X170496428Y-144014285D01*
X170425000Y-144157142D01*
X170282142Y-144228571D01*
X170139285Y-144228571D01*
X169996428Y-143514285D01*
X170496428Y-144728571D02*
X169496428Y-145085714D01*
X170496428Y-145442857D01*
X169496428Y-147942857D02*
X169496428Y-147085714D01*
X169496428Y-147514285D02*
X170996428Y-147514285D01*
X170782142Y-147371428D01*
X170639285Y-147228571D01*
X170567857Y-147085714D01*
X169639285Y-148585714D02*
X169567857Y-148657142D01*
X169496428Y-148585714D01*
X169567857Y-148514285D01*
X169639285Y-148585714D01*
X169496428Y-148585714D01*
X170996428Y-149585714D02*
X170996428Y-149728571D01*
X170925000Y-149871428D01*
X170853571Y-149942857D01*
X170710714Y-150014285D01*
X170425000Y-150085714D01*
X170067857Y-150085714D01*
X169782142Y-150014285D01*
X169639285Y-149942857D01*
X169567857Y-149871428D01*
X169496428Y-149728571D01*
X169496428Y-149585714D01*
X169567857Y-149442857D01*
X169639285Y-149371428D01*
X169782142Y-149300000D01*
X170067857Y-149228571D01*
X170425000Y-149228571D01*
X170710714Y-149300000D01*
X170853571Y-149371428D01*
X170925000Y-149442857D01*
X170996428Y-149585714D01*
X294043571Y-155907142D02*
X292543571Y-155907142D01*
X294043571Y-155050000D02*
X293186428Y-155692857D01*
X292543571Y-155050000D02*
X293400714Y-155907142D01*
X292543571Y-154550000D02*
X294043571Y-154192857D01*
X292972142Y-153907142D01*
X294043571Y-153621428D01*
X292543571Y-153264285D01*
X294043571Y-152050000D02*
X293257857Y-152050000D01*
X293115000Y-152121428D01*
X293043571Y-152264285D01*
X293043571Y-152550000D01*
X293115000Y-152692857D01*
X293972142Y-152050000D02*
X294043571Y-152192857D01*
X294043571Y-152550000D01*
X293972142Y-152692857D01*
X293829285Y-152764285D01*
X293686428Y-152764285D01*
X293543571Y-152692857D01*
X293472142Y-152550000D01*
X293472142Y-152192857D01*
X293400714Y-152050000D01*
X294043571Y-151335714D02*
X293043571Y-151335714D01*
X293329285Y-151335714D02*
X293186428Y-151264285D01*
X293115000Y-151192857D01*
X293043571Y-151050000D01*
X293043571Y-150907142D01*
X294043571Y-149764285D02*
X292543571Y-149764285D01*
X293972142Y-149764285D02*
X294043571Y-149907142D01*
X294043571Y-150192857D01*
X293972142Y-150335714D01*
X293900714Y-150407142D01*
X293757857Y-150478571D01*
X293329285Y-150478571D01*
X293186428Y-150407142D01*
X293115000Y-150335714D01*
X293043571Y-150192857D01*
X293043571Y-149907142D01*
X293115000Y-149764285D01*
X293257857Y-147407142D02*
X293329285Y-147192857D01*
X293400714Y-147121428D01*
X293543571Y-147050000D01*
X293757857Y-147050000D01*
X293900714Y-147121428D01*
X293972142Y-147192857D01*
X294043571Y-147335714D01*
X294043571Y-147907142D01*
X292543571Y-147907142D01*
X292543571Y-147407142D01*
X292615000Y-147264285D01*
X292686428Y-147192857D01*
X292829285Y-147121428D01*
X292972142Y-147121428D01*
X293115000Y-147192857D01*
X293186428Y-147264285D01*
X293257857Y-147407142D01*
X293257857Y-147907142D01*
X293972142Y-145835714D02*
X294043571Y-145978571D01*
X294043571Y-146264285D01*
X293972142Y-146407142D01*
X293829285Y-146478571D01*
X293257857Y-146478571D01*
X293115000Y-146407142D01*
X293043571Y-146264285D01*
X293043571Y-145978571D01*
X293115000Y-145835714D01*
X293257857Y-145764285D01*
X293400714Y-145764285D01*
X293543571Y-146478571D01*
X293043571Y-145121428D02*
X294043571Y-145121428D01*
X293186428Y-145121428D02*
X293115000Y-145050000D01*
X293043571Y-144907142D01*
X293043571Y-144692857D01*
X293115000Y-144550000D01*
X293257857Y-144478571D01*
X294043571Y-144478571D01*
X293972142Y-143121428D02*
X294043571Y-143264285D01*
X294043571Y-143550000D01*
X293972142Y-143692857D01*
X293900714Y-143764285D01*
X293757857Y-143835714D01*
X293329285Y-143835714D01*
X293186428Y-143764285D01*
X293115000Y-143692857D01*
X293043571Y-143550000D01*
X293043571Y-143264285D01*
X293115000Y-143121428D01*
X294043571Y-142478571D02*
X292543571Y-142478571D01*
X294043571Y-141835714D02*
X293257857Y-141835714D01*
X293115000Y-141907142D01*
X293043571Y-142050000D01*
X293043571Y-142264285D01*
X293115000Y-142407142D01*
X293186428Y-142478571D01*
X294043571Y-139978571D02*
X292543571Y-139978571D01*
X292543571Y-139407142D01*
X292615000Y-139264285D01*
X292686428Y-139192857D01*
X292829285Y-139121428D01*
X293043571Y-139121428D01*
X293186428Y-139192857D01*
X293257857Y-139264285D01*
X293329285Y-139407142D01*
X293329285Y-139978571D01*
X293972142Y-138550000D02*
X294043571Y-138335714D01*
X294043571Y-137978571D01*
X293972142Y-137835714D01*
X293900714Y-137764285D01*
X293757857Y-137692857D01*
X293615000Y-137692857D01*
X293472142Y-137764285D01*
X293400714Y-137835714D01*
X293329285Y-137978571D01*
X293257857Y-138264285D01*
X293186428Y-138407142D01*
X293115000Y-138478571D01*
X292972142Y-138550000D01*
X292829285Y-138550000D01*
X292686428Y-138478571D01*
X292615000Y-138407142D01*
X292543571Y-138264285D01*
X292543571Y-137907142D01*
X292615000Y-137692857D01*
X292543571Y-137050000D02*
X293757857Y-137050000D01*
X293900714Y-136978571D01*
X293972142Y-136907142D01*
X294043571Y-136764285D01*
X294043571Y-136478571D01*
X293972142Y-136335714D01*
X293900714Y-136264285D01*
X293757857Y-136192857D01*
X292543571Y-136192857D01*
X296593571Y-160121428D02*
X295093571Y-160121428D01*
X295093571Y-159550000D01*
X295165000Y-159407142D01*
X295236428Y-159335714D01*
X295379285Y-159264285D01*
X295593571Y-159264285D01*
X295736428Y-159335714D01*
X295807857Y-159407142D01*
X295879285Y-159550000D01*
X295879285Y-160121428D01*
X296450714Y-157764285D02*
X296522142Y-157835714D01*
X296593571Y-158050000D01*
X296593571Y-158192857D01*
X296522142Y-158407142D01*
X296379285Y-158550000D01*
X296236428Y-158621428D01*
X295950714Y-158692857D01*
X295736428Y-158692857D01*
X295450714Y-158621428D01*
X295307857Y-158550000D01*
X295165000Y-158407142D01*
X295093571Y-158192857D01*
X295093571Y-158050000D01*
X295165000Y-157835714D01*
X295236428Y-157764285D01*
X295807857Y-156621428D02*
X295879285Y-156407142D01*
X295950714Y-156335714D01*
X296093571Y-156264285D01*
X296307857Y-156264285D01*
X296450714Y-156335714D01*
X296522142Y-156407142D01*
X296593571Y-156550000D01*
X296593571Y-157121428D01*
X295093571Y-157121428D01*
X295093571Y-156621428D01*
X295165000Y-156478571D01*
X295236428Y-156407142D01*
X295379285Y-156335714D01*
X295522142Y-156335714D01*
X295665000Y-156407142D01*
X295736428Y-156478571D01*
X295807857Y-156621428D01*
X295807857Y-157121428D01*
X296522142Y-155692857D02*
X296593571Y-155550000D01*
X296593571Y-155264285D01*
X296522142Y-155121428D01*
X296379285Y-155050000D01*
X296307857Y-155050000D01*
X296165000Y-155121428D01*
X296093571Y-155264285D01*
X296093571Y-155478571D01*
X296022142Y-155621428D01*
X295879285Y-155692857D01*
X295807857Y-155692857D01*
X295665000Y-155621428D01*
X295593571Y-155478571D01*
X295593571Y-155264285D01*
X295665000Y-155121428D01*
X296593571Y-153264285D02*
X295093571Y-153264285D01*
X295665000Y-153264285D02*
X295593571Y-153121428D01*
X295593571Y-152835714D01*
X295665000Y-152692857D01*
X295736428Y-152621428D01*
X295879285Y-152550000D01*
X296307857Y-152550000D01*
X296450714Y-152621428D01*
X296522142Y-152692857D01*
X296593571Y-152835714D01*
X296593571Y-153121428D01*
X296522142Y-153264285D01*
X295593571Y-152050000D02*
X296593571Y-151692857D01*
X295593571Y-151335714D02*
X296593571Y-151692857D01*
X296950714Y-151835714D01*
X297022142Y-151907142D01*
X297093571Y-152050000D01*
X295093571Y-149192857D02*
X296165000Y-149192857D01*
X296379285Y-149264285D01*
X296522142Y-149407142D01*
X296593571Y-149621428D01*
X296593571Y-149764285D01*
X296593571Y-147835714D02*
X295807857Y-147835714D01*
X295665000Y-147907142D01*
X295593571Y-148050000D01*
X295593571Y-148335714D01*
X295665000Y-148478571D01*
X296522142Y-147835714D02*
X296593571Y-147978571D01*
X296593571Y-148335714D01*
X296522142Y-148478571D01*
X296379285Y-148550000D01*
X296236428Y-148550000D01*
X296093571Y-148478571D01*
X296022142Y-148335714D01*
X296022142Y-147978571D01*
X295950714Y-147835714D01*
X296522142Y-147192857D02*
X296593571Y-147050000D01*
X296593571Y-146764285D01*
X296522142Y-146621428D01*
X296379285Y-146550000D01*
X296307857Y-146550000D01*
X296165000Y-146621428D01*
X296093571Y-146764285D01*
X296093571Y-146978571D01*
X296022142Y-147121428D01*
X295879285Y-147192857D01*
X295807857Y-147192857D01*
X295665000Y-147121428D01*
X295593571Y-146978571D01*
X295593571Y-146764285D01*
X295665000Y-146621428D01*
X296593571Y-145692857D02*
X296522142Y-145835714D01*
X296450714Y-145907142D01*
X296307857Y-145978571D01*
X295879285Y-145978571D01*
X295736428Y-145907142D01*
X295665000Y-145835714D01*
X295593571Y-145692857D01*
X295593571Y-145478571D01*
X295665000Y-145335714D01*
X295736428Y-145264285D01*
X295879285Y-145192857D01*
X296307857Y-145192857D01*
X296450714Y-145264285D01*
X296522142Y-145335714D01*
X296593571Y-145478571D01*
X296593571Y-145692857D01*
X295593571Y-144550000D02*
X296593571Y-144550000D01*
X295736428Y-144550000D02*
X295665000Y-144478571D01*
X295593571Y-144335714D01*
X295593571Y-144121428D01*
X295665000Y-143978571D01*
X295807857Y-143907142D01*
X296593571Y-143907142D01*
X296593571Y-141192857D02*
X295879285Y-141692857D01*
X296593571Y-142050000D02*
X295093571Y-142050000D01*
X295093571Y-141478571D01*
X295165000Y-141335714D01*
X295236428Y-141264285D01*
X295379285Y-141192857D01*
X295593571Y-141192857D01*
X295736428Y-141264285D01*
X295807857Y-141335714D01*
X295879285Y-141478571D01*
X295879285Y-142050000D01*
X296450714Y-140550000D02*
X296522142Y-140478571D01*
X296593571Y-140550000D01*
X296522142Y-140621428D01*
X296450714Y-140550000D01*
X296593571Y-140550000D01*
X295093571Y-138907142D02*
X295093571Y-138050000D01*
X296593571Y-138478571D02*
X295093571Y-138478571D01*
X296593571Y-137550000D02*
X295093571Y-137550000D01*
X296593571Y-136907142D02*
X295807857Y-136907142D01*
X295665000Y-136978571D01*
X295593571Y-137121428D01*
X295593571Y-137335714D01*
X295665000Y-137478571D01*
X295736428Y-137550000D01*
X296593571Y-135978571D02*
X296522142Y-136121428D01*
X296450714Y-136192857D01*
X296307857Y-136264285D01*
X295879285Y-136264285D01*
X295736428Y-136192857D01*
X295665000Y-136121428D01*
X295593571Y-135978571D01*
X295593571Y-135764285D01*
X295665000Y-135621428D01*
X295736428Y-135550000D01*
X295879285Y-135478571D01*
X296307857Y-135478571D01*
X296450714Y-135550000D01*
X296522142Y-135621428D01*
X296593571Y-135764285D01*
X296593571Y-135978571D01*
X296593571Y-134835714D02*
X295593571Y-134835714D01*
X295879285Y-134835714D02*
X295736428Y-134764285D01*
X295665000Y-134692857D01*
X295593571Y-134550000D01*
X295593571Y-134407142D01*
X295593571Y-133907142D02*
X297093571Y-133907142D01*
X295665000Y-133907142D02*
X295593571Y-133764285D01*
X295593571Y-133478571D01*
X295665000Y-133335714D01*
X295736428Y-133264285D01*
X295879285Y-133192857D01*
X296307857Y-133192857D01*
X296450714Y-133264285D01*
X296522142Y-133335714D01*
X296593571Y-133478571D01*
X296593571Y-133764285D01*
X296522142Y-133907142D01*
X296522142Y-131978571D02*
X296593571Y-132121428D01*
X296593571Y-132407142D01*
X296522142Y-132550000D01*
X296379285Y-132621428D01*
X295807857Y-132621428D01*
X295665000Y-132550000D01*
X295593571Y-132407142D01*
X295593571Y-132121428D01*
X295665000Y-131978571D01*
X295807857Y-131907142D01*
X295950714Y-131907142D01*
X296093571Y-132621428D01*
D10*
X248435714Y-77240000D02*
X248150000Y-77097142D01*
X247721428Y-77097142D01*
X247292857Y-77240000D01*
X247007142Y-77525714D01*
X246864285Y-77811428D01*
X246721428Y-78382857D01*
X246721428Y-78811428D01*
X246864285Y-79382857D01*
X247007142Y-79668571D01*
X247292857Y-79954285D01*
X247721428Y-80097142D01*
X248007142Y-80097142D01*
X248435714Y-79954285D01*
X248578571Y-79811428D01*
X248578571Y-78811428D01*
X248007142Y-78811428D01*
X236704285Y-80097142D02*
X236704285Y-77097142D01*
X238418571Y-80097142D02*
X237132857Y-78382857D01*
X238418571Y-77097142D02*
X236704285Y-78811428D01*
X226472857Y-79954285D02*
X226901428Y-80097142D01*
X227615714Y-80097142D01*
X227901428Y-79954285D01*
X228044285Y-79811428D01*
X228187142Y-79525714D01*
X228187142Y-79240000D01*
X228044285Y-78954285D01*
X227901428Y-78811428D01*
X227615714Y-78668571D01*
X227044285Y-78525714D01*
X226758571Y-78382857D01*
X226615714Y-78240000D01*
X226472857Y-77954285D01*
X226472857Y-77668571D01*
X226615714Y-77382857D01*
X226758571Y-77240000D01*
X227044285Y-77097142D01*
X227758571Y-77097142D01*
X228187142Y-77240000D01*
X216455714Y-79240000D02*
X217884285Y-79240000D01*
X216170000Y-80097142D02*
X217170000Y-77097142D01*
X218170000Y-80097142D01*
D11*
X230858571Y-199838571D02*
X230572857Y-199838571D01*
X230430000Y-199910000D01*
X230358571Y-199981428D01*
X230215714Y-200195714D01*
X230144285Y-200481428D01*
X230144285Y-201052857D01*
X230215714Y-201195714D01*
X230287142Y-201267142D01*
X230430000Y-201338571D01*
X230715714Y-201338571D01*
X230858571Y-201267142D01*
X230930000Y-201195714D01*
X231001428Y-201052857D01*
X231001428Y-200695714D01*
X230930000Y-200552857D01*
X230858571Y-200481428D01*
X230715714Y-200410000D01*
X230430000Y-200410000D01*
X230287142Y-200481428D01*
X230215714Y-200552857D01*
X230144285Y-200695714D01*
X231644285Y-201195714D02*
X231715714Y-201267142D01*
X231644285Y-201338571D01*
X231572857Y-201267142D01*
X231644285Y-201195714D01*
X231644285Y-201338571D01*
X232215714Y-199838571D02*
X233144285Y-199838571D01*
X232644285Y-200410000D01*
X232858571Y-200410000D01*
X233001428Y-200481428D01*
X233072857Y-200552857D01*
X233144285Y-200695714D01*
X233144285Y-201052857D01*
X233072857Y-201195714D01*
X233001428Y-201267142D01*
X232858571Y-201338571D01*
X232430000Y-201338571D01*
X232287142Y-201267142D01*
X232215714Y-201195714D01*
X233572857Y-199838571D02*
X234072857Y-201338571D01*
X234572857Y-199838571D01*
X235001428Y-200910000D02*
X235715714Y-200910000D01*
X234858571Y-201338571D02*
X235358571Y-199838571D01*
X235858571Y-201338571D01*
X237215714Y-201195714D02*
X237144285Y-201267142D01*
X236930000Y-201338571D01*
X236787142Y-201338571D01*
X236572857Y-201267142D01*
X236430000Y-201124285D01*
X236358571Y-200981428D01*
X236287142Y-200695714D01*
X236287142Y-200481428D01*
X236358571Y-200195714D01*
X236430000Y-200052857D01*
X236572857Y-199910000D01*
X236787142Y-199838571D01*
X236930000Y-199838571D01*
X237144285Y-199910000D01*
X237215714Y-199981428D01*
D12*
%TO.C,R11*%
X221600000Y-168265000D02*
X225440000Y-168265000D01*
X225440000Y-168265000D02*
X225440000Y-158125000D01*
X225440000Y-158125000D02*
X221600000Y-158125000D01*
X221600000Y-158125000D02*
X221600000Y-168265000D01*
X223520000Y-169375000D02*
X223520000Y-168265000D01*
X223520000Y-157015000D02*
X223520000Y-158125000D01*
%TO.C,U1*%
X195580000Y-113665000D02*
X195580000Y-125095000D01*
X218610000Y-113665000D02*
G75*
G03*
X218610000Y-113665000I-23030000J0D01*
G01*
X210700000Y-113665000D02*
G75*
G03*
X210700000Y-113665000I-15120000J0D01*
G01*
%TO.C,U2*%
X271780000Y-113665000D02*
X271780000Y-125095000D01*
X294810000Y-113665000D02*
G75*
G03*
X294810000Y-113665000I-23030000J0D01*
G01*
X286900000Y-113665000D02*
G75*
G03*
X286900000Y-113665000I-15120000J0D01*
G01*
%TO.C,U3*%
X271780000Y-181610000D02*
X271780000Y-193040000D01*
X294810000Y-181610000D02*
G75*
G03*
X294810000Y-181610000I-23030000J0D01*
G01*
X286900000Y-181610000D02*
G75*
G03*
X286900000Y-181610000I-15120000J0D01*
G01*
%TO.C,U4*%
X195580000Y-182245000D02*
X195580000Y-193675000D01*
X218610000Y-182245000D02*
G75*
G03*
X218610000Y-182245000I-23030000J0D01*
G01*
X210700000Y-182245000D02*
G75*
G03*
X210700000Y-182245000I-15120000J0D01*
G01*
D13*
%TO.C,REF\u002A\u002A*%
X233182160Y-126024640D02*
X234381040Y-122925840D01*
X234381040Y-122925840D02*
X233781600Y-123324620D01*
X232780840Y-124025660D02*
X234081320Y-121224040D01*
X233182160Y-126024640D02*
X233781600Y-125326140D01*
X233580940Y-121025920D02*
X232780840Y-124025660D01*
X232780840Y-124025660D02*
X233979720Y-123225560D01*
X233979720Y-123225560D02*
X233182160Y-126024640D01*
X233182160Y-126024640D02*
X233080560Y-125125480D01*
X233680000Y-119634000D02*
X238379000Y-126619000D01*
X238379000Y-126619000D02*
X228981000Y-126619000D01*
X228981000Y-126619000D02*
X233680000Y-119634000D01*
D12*
%TO.C,J1*%
X214630000Y-76200000D02*
X250190000Y-76200000D01*
X214630000Y-68580000D02*
X250190000Y-68580000D01*
X214630000Y-74930000D02*
X250190000Y-74930000D01*
X250190000Y-76200000D02*
X250190000Y-68580000D01*
X214630000Y-76200000D02*
X214630000Y-68580000D01*
%TO.C,J2*%
X238760000Y-202565000D02*
X228600000Y-202565000D01*
X238760000Y-210185000D02*
X238760000Y-202565000D01*
X228600000Y-210185000D02*
X238760000Y-210185000D01*
X228600000Y-202565000D02*
X228600000Y-210185000D01*
X228600000Y-203835000D02*
X238760000Y-203835000D01*
%TO.C,R1*%
X201760000Y-86360000D02*
X200650000Y-86360000D01*
X189400000Y-86360000D02*
X190510000Y-86360000D01*
X200650000Y-84440000D02*
X190510000Y-84440000D01*
X200650000Y-88280000D02*
X200650000Y-84440000D01*
X190510000Y-88280000D02*
X200650000Y-88280000D01*
X190510000Y-84440000D02*
X190510000Y-88280000D01*
%TO.C,R2*%
X222885000Y-111930000D02*
X222885000Y-113040000D01*
X222885000Y-124290000D02*
X222885000Y-123180000D01*
X220965000Y-113040000D02*
X220965000Y-123180000D01*
X224805000Y-113040000D02*
X220965000Y-113040000D01*
X224805000Y-123180000D02*
X224805000Y-113040000D01*
X220965000Y-123180000D02*
X224805000Y-123180000D01*
%TO.C,R3*%
X220810000Y-86360000D02*
X219700000Y-86360000D01*
X208450000Y-86360000D02*
X209560000Y-86360000D01*
X219700000Y-84440000D02*
X209560000Y-84440000D01*
X219700000Y-88280000D02*
X219700000Y-84440000D01*
X209560000Y-88280000D02*
X219700000Y-88280000D01*
X209560000Y-84440000D02*
X209560000Y-88280000D01*
%TO.C,R4*%
X257800000Y-88280000D02*
X257800000Y-84440000D01*
X257800000Y-84440000D02*
X247660000Y-84440000D01*
X247660000Y-84440000D02*
X247660000Y-88280000D01*
X247660000Y-88280000D02*
X257800000Y-88280000D01*
X258910000Y-86360000D02*
X257800000Y-86360000D01*
X246550000Y-86360000D02*
X247660000Y-86360000D01*
%TO.C,R5*%
X242555000Y-123180000D02*
X246395000Y-123180000D01*
X246395000Y-123180000D02*
X246395000Y-113040000D01*
X246395000Y-113040000D02*
X242555000Y-113040000D01*
X242555000Y-113040000D02*
X242555000Y-123180000D01*
X244475000Y-124290000D02*
X244475000Y-123180000D01*
X244475000Y-111930000D02*
X244475000Y-113040000D01*
%TO.C,R6*%
X276850000Y-88280000D02*
X276850000Y-84440000D01*
X276850000Y-84440000D02*
X266710000Y-84440000D01*
X266710000Y-84440000D02*
X266710000Y-88280000D01*
X266710000Y-88280000D02*
X276850000Y-88280000D01*
X277960000Y-86360000D02*
X276850000Y-86360000D01*
X265600000Y-86360000D02*
X266710000Y-86360000D01*
%TO.C,R7*%
X265600000Y-151765000D02*
X266710000Y-151765000D01*
X277960000Y-151765000D02*
X276850000Y-151765000D01*
X266710000Y-153685000D02*
X276850000Y-153685000D01*
X266710000Y-149845000D02*
X266710000Y-153685000D01*
X276850000Y-149845000D02*
X266710000Y-149845000D01*
X276850000Y-153685000D02*
X276850000Y-149845000D01*
%TO.C,R8*%
X243840000Y-157015000D02*
X243840000Y-158125000D01*
X243840000Y-169375000D02*
X243840000Y-168265000D01*
X241920000Y-158125000D02*
X241920000Y-168265000D01*
X245760000Y-158125000D02*
X241920000Y-158125000D01*
X245760000Y-168265000D02*
X245760000Y-158125000D01*
X241920000Y-168265000D02*
X245760000Y-168265000D01*
%TO.C,R9*%
X265600000Y-144145000D02*
X266710000Y-144145000D01*
X277960000Y-144145000D02*
X276850000Y-144145000D01*
X266710000Y-146065000D02*
X276850000Y-146065000D01*
X266710000Y-142225000D02*
X266710000Y-146065000D01*
X276850000Y-142225000D02*
X266710000Y-142225000D01*
X276850000Y-146065000D02*
X276850000Y-142225000D01*
%TO.C,R10*%
X190510000Y-149845000D02*
X190510000Y-153685000D01*
X190510000Y-153685000D02*
X200650000Y-153685000D01*
X200650000Y-153685000D02*
X200650000Y-149845000D01*
X200650000Y-149845000D02*
X190510000Y-149845000D01*
X189400000Y-151765000D02*
X190510000Y-151765000D01*
X201760000Y-151765000D02*
X200650000Y-151765000D01*
%TO.C,R12*%
X200650000Y-146065000D02*
X200650000Y-142225000D01*
X200650000Y-142225000D02*
X190510000Y-142225000D01*
X190510000Y-142225000D02*
X190510000Y-146065000D01*
X190510000Y-146065000D02*
X200650000Y-146065000D01*
X201760000Y-144145000D02*
X200650000Y-144145000D01*
X189400000Y-144145000D02*
X190510000Y-144145000D01*
%TO.C,R13*%
X223520000Y-177335000D02*
X223520000Y-178445000D01*
X223520000Y-189695000D02*
X223520000Y-188585000D01*
X221600000Y-178445000D02*
X221600000Y-188585000D01*
X225440000Y-178445000D02*
X221600000Y-178445000D01*
X225440000Y-188585000D02*
X225440000Y-178445000D01*
X221600000Y-188585000D02*
X225440000Y-188585000D01*
%TO.C,R14*%
X241920000Y-188585000D02*
X245760000Y-188585000D01*
X245760000Y-188585000D02*
X245760000Y-178445000D01*
X245760000Y-178445000D02*
X241920000Y-178445000D01*
X241920000Y-178445000D02*
X241920000Y-188585000D01*
X243840000Y-189695000D02*
X243840000Y-188585000D01*
X243840000Y-177335000D02*
X243840000Y-178445000D01*
%TO.C,R11*%
D14*
X221052380Y-163837857D02*
X220576190Y-164171190D01*
X221052380Y-164409285D02*
X220052380Y-164409285D01*
X220052380Y-164028333D01*
X220100000Y-163933095D01*
X220147619Y-163885476D01*
X220242857Y-163837857D01*
X220385714Y-163837857D01*
X220480952Y-163885476D01*
X220528571Y-163933095D01*
X220576190Y-164028333D01*
X220576190Y-164409285D01*
X221052380Y-162885476D02*
X221052380Y-163456904D01*
X221052380Y-163171190D02*
X220052380Y-163171190D01*
X220195238Y-163266428D01*
X220290476Y-163361666D01*
X220338095Y-163456904D01*
X221052380Y-161933095D02*
X221052380Y-162504523D01*
X221052380Y-162218809D02*
X220052380Y-162218809D01*
X220195238Y-162314047D01*
X220290476Y-162409285D01*
X220338095Y-162504523D01*
X226892380Y-163385476D02*
X226892380Y-163956904D01*
X226892380Y-163671190D02*
X225892380Y-163671190D01*
X226035238Y-163766428D01*
X226130476Y-163861666D01*
X226178095Y-163956904D01*
X225892380Y-162766428D02*
X225892380Y-162671190D01*
X225940000Y-162575952D01*
X225987619Y-162528333D01*
X226082857Y-162480714D01*
X226273333Y-162433095D01*
X226511428Y-162433095D01*
X226701904Y-162480714D01*
X226797142Y-162528333D01*
X226844761Y-162575952D01*
X226892380Y-162671190D01*
X226892380Y-162766428D01*
X226844761Y-162861666D01*
X226797142Y-162909285D01*
X226701904Y-162956904D01*
X226511428Y-163004523D01*
X226273333Y-163004523D01*
X226082857Y-162956904D01*
X225987619Y-162909285D01*
X225940000Y-162861666D01*
X225892380Y-162766428D01*
%TO.C,U1*%
X194818095Y-97072380D02*
X194818095Y-97881904D01*
X194865714Y-97977142D01*
X194913333Y-98024761D01*
X195008571Y-98072380D01*
X195199047Y-98072380D01*
X195294285Y-98024761D01*
X195341904Y-97977142D01*
X195389523Y-97881904D01*
X195389523Y-97072380D01*
X196389523Y-98072380D02*
X195818095Y-98072380D01*
X196103809Y-98072380D02*
X196103809Y-97072380D01*
X196008571Y-97215238D01*
X195913333Y-97310476D01*
X195818095Y-97358095D01*
X194341904Y-129162380D02*
X194151428Y-129162380D01*
X194056190Y-129210000D01*
X194008571Y-129257619D01*
X193913333Y-129400476D01*
X193865714Y-129590952D01*
X193865714Y-129971904D01*
X193913333Y-130067142D01*
X193960952Y-130114761D01*
X194056190Y-130162380D01*
X194246666Y-130162380D01*
X194341904Y-130114761D01*
X194389523Y-130067142D01*
X194437142Y-129971904D01*
X194437142Y-129733809D01*
X194389523Y-129638571D01*
X194341904Y-129590952D01*
X194246666Y-129543333D01*
X194056190Y-129543333D01*
X193960952Y-129590952D01*
X193913333Y-129638571D01*
X193865714Y-129733809D01*
X195341904Y-129162380D02*
X194865714Y-129162380D01*
X194818095Y-129638571D01*
X194865714Y-129590952D01*
X194960952Y-129543333D01*
X195199047Y-129543333D01*
X195294285Y-129590952D01*
X195341904Y-129638571D01*
X195389523Y-129733809D01*
X195389523Y-129971904D01*
X195341904Y-130067142D01*
X195294285Y-130114761D01*
X195199047Y-130162380D01*
X194960952Y-130162380D01*
X194865714Y-130114761D01*
X194818095Y-130067142D01*
X196294285Y-129162380D02*
X195818095Y-129162380D01*
X195770476Y-129638571D01*
X195818095Y-129590952D01*
X195913333Y-129543333D01*
X196151428Y-129543333D01*
X196246666Y-129590952D01*
X196294285Y-129638571D01*
X196341904Y-129733809D01*
X196341904Y-129971904D01*
X196294285Y-130067142D01*
X196246666Y-130114761D01*
X196151428Y-130162380D01*
X195913333Y-130162380D01*
X195818095Y-130114761D01*
X195770476Y-130067142D01*
X196960952Y-129162380D02*
X197056190Y-129162380D01*
X197151428Y-129210000D01*
X197199047Y-129257619D01*
X197246666Y-129352857D01*
X197294285Y-129543333D01*
X197294285Y-129781428D01*
X197246666Y-129971904D01*
X197199047Y-130067142D01*
X197151428Y-130114761D01*
X197056190Y-130162380D01*
X196960952Y-130162380D01*
X196865714Y-130114761D01*
X196818095Y-130067142D01*
X196770476Y-129971904D01*
X196722857Y-129781428D01*
X196722857Y-129543333D01*
X196770476Y-129352857D01*
X196818095Y-129257619D01*
X196865714Y-129210000D01*
X196960952Y-129162380D01*
%TO.C,U2*%
X271018095Y-97072380D02*
X271018095Y-97881904D01*
X271065714Y-97977142D01*
X271113333Y-98024761D01*
X271208571Y-98072380D01*
X271399047Y-98072380D01*
X271494285Y-98024761D01*
X271541904Y-97977142D01*
X271589523Y-97881904D01*
X271589523Y-97072380D01*
X272018095Y-97167619D02*
X272065714Y-97120000D01*
X272160952Y-97072380D01*
X272399047Y-97072380D01*
X272494285Y-97120000D01*
X272541904Y-97167619D01*
X272589523Y-97262857D01*
X272589523Y-97358095D01*
X272541904Y-97500952D01*
X271970476Y-98072380D01*
X272589523Y-98072380D01*
X270541904Y-129162380D02*
X270351428Y-129162380D01*
X270256190Y-129210000D01*
X270208571Y-129257619D01*
X270113333Y-129400476D01*
X270065714Y-129590952D01*
X270065714Y-129971904D01*
X270113333Y-130067142D01*
X270160952Y-130114761D01*
X270256190Y-130162380D01*
X270446666Y-130162380D01*
X270541904Y-130114761D01*
X270589523Y-130067142D01*
X270637142Y-129971904D01*
X270637142Y-129733809D01*
X270589523Y-129638571D01*
X270541904Y-129590952D01*
X270446666Y-129543333D01*
X270256190Y-129543333D01*
X270160952Y-129590952D01*
X270113333Y-129638571D01*
X270065714Y-129733809D01*
X271541904Y-129162380D02*
X271065714Y-129162380D01*
X271018095Y-129638571D01*
X271065714Y-129590952D01*
X271160952Y-129543333D01*
X271399047Y-129543333D01*
X271494285Y-129590952D01*
X271541904Y-129638571D01*
X271589523Y-129733809D01*
X271589523Y-129971904D01*
X271541904Y-130067142D01*
X271494285Y-130114761D01*
X271399047Y-130162380D01*
X271160952Y-130162380D01*
X271065714Y-130114761D01*
X271018095Y-130067142D01*
X272494285Y-129162380D02*
X272018095Y-129162380D01*
X271970476Y-129638571D01*
X272018095Y-129590952D01*
X272113333Y-129543333D01*
X272351428Y-129543333D01*
X272446666Y-129590952D01*
X272494285Y-129638571D01*
X272541904Y-129733809D01*
X272541904Y-129971904D01*
X272494285Y-130067142D01*
X272446666Y-130114761D01*
X272351428Y-130162380D01*
X272113333Y-130162380D01*
X272018095Y-130114761D01*
X271970476Y-130067142D01*
X273160952Y-129162380D02*
X273256190Y-129162380D01*
X273351428Y-129210000D01*
X273399047Y-129257619D01*
X273446666Y-129352857D01*
X273494285Y-129543333D01*
X273494285Y-129781428D01*
X273446666Y-129971904D01*
X273399047Y-130067142D01*
X273351428Y-130114761D01*
X273256190Y-130162380D01*
X273160952Y-130162380D01*
X273065714Y-130114761D01*
X273018095Y-130067142D01*
X272970476Y-129971904D01*
X272922857Y-129781428D01*
X272922857Y-129543333D01*
X272970476Y-129352857D01*
X273018095Y-129257619D01*
X273065714Y-129210000D01*
X273160952Y-129162380D01*
%TO.C,U3*%
X271018095Y-165017380D02*
X271018095Y-165826904D01*
X271065714Y-165922142D01*
X271113333Y-165969761D01*
X271208571Y-166017380D01*
X271399047Y-166017380D01*
X271494285Y-165969761D01*
X271541904Y-165922142D01*
X271589523Y-165826904D01*
X271589523Y-165017380D01*
X271970476Y-165017380D02*
X272589523Y-165017380D01*
X272256190Y-165398333D01*
X272399047Y-165398333D01*
X272494285Y-165445952D01*
X272541904Y-165493571D01*
X272589523Y-165588809D01*
X272589523Y-165826904D01*
X272541904Y-165922142D01*
X272494285Y-165969761D01*
X272399047Y-166017380D01*
X272113333Y-166017380D01*
X272018095Y-165969761D01*
X271970476Y-165922142D01*
X270541904Y-197107380D02*
X270351428Y-197107380D01*
X270256190Y-197155000D01*
X270208571Y-197202619D01*
X270113333Y-197345476D01*
X270065714Y-197535952D01*
X270065714Y-197916904D01*
X270113333Y-198012142D01*
X270160952Y-198059761D01*
X270256190Y-198107380D01*
X270446666Y-198107380D01*
X270541904Y-198059761D01*
X270589523Y-198012142D01*
X270637142Y-197916904D01*
X270637142Y-197678809D01*
X270589523Y-197583571D01*
X270541904Y-197535952D01*
X270446666Y-197488333D01*
X270256190Y-197488333D01*
X270160952Y-197535952D01*
X270113333Y-197583571D01*
X270065714Y-197678809D01*
X271541904Y-197107380D02*
X271065714Y-197107380D01*
X271018095Y-197583571D01*
X271065714Y-197535952D01*
X271160952Y-197488333D01*
X271399047Y-197488333D01*
X271494285Y-197535952D01*
X271541904Y-197583571D01*
X271589523Y-197678809D01*
X271589523Y-197916904D01*
X271541904Y-198012142D01*
X271494285Y-198059761D01*
X271399047Y-198107380D01*
X271160952Y-198107380D01*
X271065714Y-198059761D01*
X271018095Y-198012142D01*
X272494285Y-197107380D02*
X272018095Y-197107380D01*
X271970476Y-197583571D01*
X272018095Y-197535952D01*
X272113333Y-197488333D01*
X272351428Y-197488333D01*
X272446666Y-197535952D01*
X272494285Y-197583571D01*
X272541904Y-197678809D01*
X272541904Y-197916904D01*
X272494285Y-198012142D01*
X272446666Y-198059761D01*
X272351428Y-198107380D01*
X272113333Y-198107380D01*
X272018095Y-198059761D01*
X271970476Y-198012142D01*
X273160952Y-197107380D02*
X273256190Y-197107380D01*
X273351428Y-197155000D01*
X273399047Y-197202619D01*
X273446666Y-197297857D01*
X273494285Y-197488333D01*
X273494285Y-197726428D01*
X273446666Y-197916904D01*
X273399047Y-198012142D01*
X273351428Y-198059761D01*
X273256190Y-198107380D01*
X273160952Y-198107380D01*
X273065714Y-198059761D01*
X273018095Y-198012142D01*
X272970476Y-197916904D01*
X272922857Y-197726428D01*
X272922857Y-197488333D01*
X272970476Y-197297857D01*
X273018095Y-197202619D01*
X273065714Y-197155000D01*
X273160952Y-197107380D01*
%TO.C,U4*%
X194818095Y-165652380D02*
X194818095Y-166461904D01*
X194865714Y-166557142D01*
X194913333Y-166604761D01*
X195008571Y-166652380D01*
X195199047Y-166652380D01*
X195294285Y-166604761D01*
X195341904Y-166557142D01*
X195389523Y-166461904D01*
X195389523Y-165652380D01*
X196294285Y-165985714D02*
X196294285Y-166652380D01*
X196056190Y-165604761D02*
X195818095Y-166319047D01*
X196437142Y-166319047D01*
X194341904Y-197742380D02*
X194151428Y-197742380D01*
X194056190Y-197790000D01*
X194008571Y-197837619D01*
X193913333Y-197980476D01*
X193865714Y-198170952D01*
X193865714Y-198551904D01*
X193913333Y-198647142D01*
X193960952Y-198694761D01*
X194056190Y-198742380D01*
X194246666Y-198742380D01*
X194341904Y-198694761D01*
X194389523Y-198647142D01*
X194437142Y-198551904D01*
X194437142Y-198313809D01*
X194389523Y-198218571D01*
X194341904Y-198170952D01*
X194246666Y-198123333D01*
X194056190Y-198123333D01*
X193960952Y-198170952D01*
X193913333Y-198218571D01*
X193865714Y-198313809D01*
X195341904Y-197742380D02*
X194865714Y-197742380D01*
X194818095Y-198218571D01*
X194865714Y-198170952D01*
X194960952Y-198123333D01*
X195199047Y-198123333D01*
X195294285Y-198170952D01*
X195341904Y-198218571D01*
X195389523Y-198313809D01*
X195389523Y-198551904D01*
X195341904Y-198647142D01*
X195294285Y-198694761D01*
X195199047Y-198742380D01*
X194960952Y-198742380D01*
X194865714Y-198694761D01*
X194818095Y-198647142D01*
X196294285Y-197742380D02*
X195818095Y-197742380D01*
X195770476Y-198218571D01*
X195818095Y-198170952D01*
X195913333Y-198123333D01*
X196151428Y-198123333D01*
X196246666Y-198170952D01*
X196294285Y-198218571D01*
X196341904Y-198313809D01*
X196341904Y-198551904D01*
X196294285Y-198647142D01*
X196246666Y-198694761D01*
X196151428Y-198742380D01*
X195913333Y-198742380D01*
X195818095Y-198694761D01*
X195770476Y-198647142D01*
X196960952Y-197742380D02*
X197056190Y-197742380D01*
X197151428Y-197790000D01*
X197199047Y-197837619D01*
X197246666Y-197932857D01*
X197294285Y-198123333D01*
X197294285Y-198361428D01*
X197246666Y-198551904D01*
X197199047Y-198647142D01*
X197151428Y-198694761D01*
X197056190Y-198742380D01*
X196960952Y-198742380D01*
X196865714Y-198694761D01*
X196818095Y-198647142D01*
X196770476Y-198551904D01*
X196722857Y-198361428D01*
X196722857Y-198123333D01*
X196770476Y-197932857D01*
X196818095Y-197837619D01*
X196865714Y-197790000D01*
X196960952Y-197742380D01*
%TO.C,J1*%
X232076666Y-78192380D02*
X232076666Y-78906666D01*
X232029047Y-79049523D01*
X231933809Y-79144761D01*
X231790952Y-79192380D01*
X231695714Y-79192380D01*
X233076666Y-79192380D02*
X232505238Y-79192380D01*
X232790952Y-79192380D02*
X232790952Y-78192380D01*
X232695714Y-78335238D01*
X232600476Y-78430476D01*
X232505238Y-78478095D01*
%TO.C,J2*%
X233346666Y-198207380D02*
X233346666Y-198921666D01*
X233299047Y-199064523D01*
X233203809Y-199159761D01*
X233060952Y-199207380D01*
X232965714Y-199207380D01*
X233775238Y-198302619D02*
X233822857Y-198255000D01*
X233918095Y-198207380D01*
X234156190Y-198207380D01*
X234251428Y-198255000D01*
X234299047Y-198302619D01*
X234346666Y-198397857D01*
X234346666Y-198493095D01*
X234299047Y-198635952D01*
X233727619Y-199207380D01*
X234346666Y-199207380D01*
%TO.C,R1*%
X195413333Y-83892380D02*
X195080000Y-83416190D01*
X194841904Y-83892380D02*
X194841904Y-82892380D01*
X195222857Y-82892380D01*
X195318095Y-82940000D01*
X195365714Y-82987619D01*
X195413333Y-83082857D01*
X195413333Y-83225714D01*
X195365714Y-83320952D01*
X195318095Y-83368571D01*
X195222857Y-83416190D01*
X194841904Y-83416190D01*
X196365714Y-83892380D02*
X195794285Y-83892380D01*
X196080000Y-83892380D02*
X196080000Y-82892380D01*
X195984761Y-83035238D01*
X195889523Y-83130476D01*
X195794285Y-83178095D01*
X195365714Y-89732380D02*
X194794285Y-89732380D01*
X195080000Y-89732380D02*
X195080000Y-88732380D01*
X194984761Y-88875238D01*
X194889523Y-88970476D01*
X194794285Y-89018095D01*
X195794285Y-89732380D02*
X195794285Y-88732380D01*
X196365714Y-89732380D02*
X195937142Y-89160952D01*
X196365714Y-88732380D02*
X195794285Y-89303809D01*
%TO.C,R2*%
X220417380Y-118276666D02*
X219941190Y-118610000D01*
X220417380Y-118848095D02*
X219417380Y-118848095D01*
X219417380Y-118467142D01*
X219465000Y-118371904D01*
X219512619Y-118324285D01*
X219607857Y-118276666D01*
X219750714Y-118276666D01*
X219845952Y-118324285D01*
X219893571Y-118371904D01*
X219941190Y-118467142D01*
X219941190Y-118848095D01*
X219512619Y-117895714D02*
X219465000Y-117848095D01*
X219417380Y-117752857D01*
X219417380Y-117514761D01*
X219465000Y-117419523D01*
X219512619Y-117371904D01*
X219607857Y-117324285D01*
X219703095Y-117324285D01*
X219845952Y-117371904D01*
X220417380Y-117943333D01*
X220417380Y-117324285D01*
X226257380Y-118300476D02*
X226257380Y-118871904D01*
X226257380Y-118586190D02*
X225257380Y-118586190D01*
X225400238Y-118681428D01*
X225495476Y-118776666D01*
X225543095Y-118871904D01*
X225257380Y-117681428D02*
X225257380Y-117586190D01*
X225305000Y-117490952D01*
X225352619Y-117443333D01*
X225447857Y-117395714D01*
X225638333Y-117348095D01*
X225876428Y-117348095D01*
X226066904Y-117395714D01*
X226162142Y-117443333D01*
X226209761Y-117490952D01*
X226257380Y-117586190D01*
X226257380Y-117681428D01*
X226209761Y-117776666D01*
X226162142Y-117824285D01*
X226066904Y-117871904D01*
X225876428Y-117919523D01*
X225638333Y-117919523D01*
X225447857Y-117871904D01*
X225352619Y-117824285D01*
X225305000Y-117776666D01*
X225257380Y-117681428D01*
%TO.C,R3*%
X214463333Y-83892380D02*
X214130000Y-83416190D01*
X213891904Y-83892380D02*
X213891904Y-82892380D01*
X214272857Y-82892380D01*
X214368095Y-82940000D01*
X214415714Y-82987619D01*
X214463333Y-83082857D01*
X214463333Y-83225714D01*
X214415714Y-83320952D01*
X214368095Y-83368571D01*
X214272857Y-83416190D01*
X213891904Y-83416190D01*
X214796666Y-82892380D02*
X215415714Y-82892380D01*
X215082380Y-83273333D01*
X215225238Y-83273333D01*
X215320476Y-83320952D01*
X215368095Y-83368571D01*
X215415714Y-83463809D01*
X215415714Y-83701904D01*
X215368095Y-83797142D01*
X215320476Y-83844761D01*
X215225238Y-83892380D01*
X214939523Y-83892380D01*
X214844285Y-83844761D01*
X214796666Y-83797142D01*
X213963333Y-89732380D02*
X213391904Y-89732380D01*
X213677619Y-89732380D02*
X213677619Y-88732380D01*
X213582380Y-88875238D01*
X213487142Y-88970476D01*
X213391904Y-89018095D01*
X214868095Y-88732380D02*
X214391904Y-88732380D01*
X214344285Y-89208571D01*
X214391904Y-89160952D01*
X214487142Y-89113333D01*
X214725238Y-89113333D01*
X214820476Y-89160952D01*
X214868095Y-89208571D01*
X214915714Y-89303809D01*
X214915714Y-89541904D01*
X214868095Y-89637142D01*
X214820476Y-89684761D01*
X214725238Y-89732380D01*
X214487142Y-89732380D01*
X214391904Y-89684761D01*
X214344285Y-89637142D01*
X215534761Y-88732380D02*
X215630000Y-88732380D01*
X215725238Y-88780000D01*
X215772857Y-88827619D01*
X215820476Y-88922857D01*
X215868095Y-89113333D01*
X215868095Y-89351428D01*
X215820476Y-89541904D01*
X215772857Y-89637142D01*
X215725238Y-89684761D01*
X215630000Y-89732380D01*
X215534761Y-89732380D01*
X215439523Y-89684761D01*
X215391904Y-89637142D01*
X215344285Y-89541904D01*
X215296666Y-89351428D01*
X215296666Y-89113333D01*
X215344285Y-88922857D01*
X215391904Y-88827619D01*
X215439523Y-88780000D01*
X215534761Y-88732380D01*
%TO.C,R4*%
X252563333Y-89732380D02*
X252230000Y-89256190D01*
X251991904Y-89732380D02*
X251991904Y-88732380D01*
X252372857Y-88732380D01*
X252468095Y-88780000D01*
X252515714Y-88827619D01*
X252563333Y-88922857D01*
X252563333Y-89065714D01*
X252515714Y-89160952D01*
X252468095Y-89208571D01*
X252372857Y-89256190D01*
X251991904Y-89256190D01*
X253420476Y-89065714D02*
X253420476Y-89732380D01*
X253182380Y-88684761D02*
X252944285Y-89399047D01*
X253563333Y-89399047D01*
X252515714Y-83892380D02*
X251944285Y-83892380D01*
X252230000Y-83892380D02*
X252230000Y-82892380D01*
X252134761Y-83035238D01*
X252039523Y-83130476D01*
X251944285Y-83178095D01*
X252944285Y-83892380D02*
X252944285Y-82892380D01*
X253515714Y-83892380D02*
X253087142Y-83320952D01*
X253515714Y-82892380D02*
X252944285Y-83463809D01*
%TO.C,R5*%
X242007380Y-118276666D02*
X241531190Y-118610000D01*
X242007380Y-118848095D02*
X241007380Y-118848095D01*
X241007380Y-118467142D01*
X241055000Y-118371904D01*
X241102619Y-118324285D01*
X241197857Y-118276666D01*
X241340714Y-118276666D01*
X241435952Y-118324285D01*
X241483571Y-118371904D01*
X241531190Y-118467142D01*
X241531190Y-118848095D01*
X241007380Y-117371904D02*
X241007380Y-117848095D01*
X241483571Y-117895714D01*
X241435952Y-117848095D01*
X241388333Y-117752857D01*
X241388333Y-117514761D01*
X241435952Y-117419523D01*
X241483571Y-117371904D01*
X241578809Y-117324285D01*
X241816904Y-117324285D01*
X241912142Y-117371904D01*
X241959761Y-117419523D01*
X242007380Y-117514761D01*
X242007380Y-117752857D01*
X241959761Y-117848095D01*
X241912142Y-117895714D01*
X247847380Y-118300476D02*
X247847380Y-118871904D01*
X247847380Y-118586190D02*
X246847380Y-118586190D01*
X246990238Y-118681428D01*
X247085476Y-118776666D01*
X247133095Y-118871904D01*
X246847380Y-117681428D02*
X246847380Y-117586190D01*
X246895000Y-117490952D01*
X246942619Y-117443333D01*
X247037857Y-117395714D01*
X247228333Y-117348095D01*
X247466428Y-117348095D01*
X247656904Y-117395714D01*
X247752142Y-117443333D01*
X247799761Y-117490952D01*
X247847380Y-117586190D01*
X247847380Y-117681428D01*
X247799761Y-117776666D01*
X247752142Y-117824285D01*
X247656904Y-117871904D01*
X247466428Y-117919523D01*
X247228333Y-117919523D01*
X247037857Y-117871904D01*
X246942619Y-117824285D01*
X246895000Y-117776666D01*
X246847380Y-117681428D01*
%TO.C,R6*%
X271613333Y-89732380D02*
X271280000Y-89256190D01*
X271041904Y-89732380D02*
X271041904Y-88732380D01*
X271422857Y-88732380D01*
X271518095Y-88780000D01*
X271565714Y-88827619D01*
X271613333Y-88922857D01*
X271613333Y-89065714D01*
X271565714Y-89160952D01*
X271518095Y-89208571D01*
X271422857Y-89256190D01*
X271041904Y-89256190D01*
X272470476Y-88732380D02*
X272280000Y-88732380D01*
X272184761Y-88780000D01*
X272137142Y-88827619D01*
X272041904Y-88970476D01*
X271994285Y-89160952D01*
X271994285Y-89541904D01*
X272041904Y-89637142D01*
X272089523Y-89684761D01*
X272184761Y-89732380D01*
X272375238Y-89732380D01*
X272470476Y-89684761D01*
X272518095Y-89637142D01*
X272565714Y-89541904D01*
X272565714Y-89303809D01*
X272518095Y-89208571D01*
X272470476Y-89160952D01*
X272375238Y-89113333D01*
X272184761Y-89113333D01*
X272089523Y-89160952D01*
X272041904Y-89208571D01*
X271994285Y-89303809D01*
X271113333Y-83892380D02*
X270541904Y-83892380D01*
X270827619Y-83892380D02*
X270827619Y-82892380D01*
X270732380Y-83035238D01*
X270637142Y-83130476D01*
X270541904Y-83178095D01*
X272018095Y-82892380D02*
X271541904Y-82892380D01*
X271494285Y-83368571D01*
X271541904Y-83320952D01*
X271637142Y-83273333D01*
X271875238Y-83273333D01*
X271970476Y-83320952D01*
X272018095Y-83368571D01*
X272065714Y-83463809D01*
X272065714Y-83701904D01*
X272018095Y-83797142D01*
X271970476Y-83844761D01*
X271875238Y-83892380D01*
X271637142Y-83892380D01*
X271541904Y-83844761D01*
X271494285Y-83797142D01*
X272684761Y-82892380D02*
X272780000Y-82892380D01*
X272875238Y-82940000D01*
X272922857Y-82987619D01*
X272970476Y-83082857D01*
X273018095Y-83273333D01*
X273018095Y-83511428D01*
X272970476Y-83701904D01*
X272922857Y-83797142D01*
X272875238Y-83844761D01*
X272780000Y-83892380D01*
X272684761Y-83892380D01*
X272589523Y-83844761D01*
X272541904Y-83797142D01*
X272494285Y-83701904D01*
X272446666Y-83511428D01*
X272446666Y-83273333D01*
X272494285Y-83082857D01*
X272541904Y-82987619D01*
X272589523Y-82940000D01*
X272684761Y-82892380D01*
%TO.C,R7*%
X271613333Y-155137380D02*
X271280000Y-154661190D01*
X271041904Y-155137380D02*
X271041904Y-154137380D01*
X271422857Y-154137380D01*
X271518095Y-154185000D01*
X271565714Y-154232619D01*
X271613333Y-154327857D01*
X271613333Y-154470714D01*
X271565714Y-154565952D01*
X271518095Y-154613571D01*
X271422857Y-154661190D01*
X271041904Y-154661190D01*
X271946666Y-154137380D02*
X272613333Y-154137380D01*
X272184761Y-155137380D01*
X271565714Y-149297380D02*
X270994285Y-149297380D01*
X271280000Y-149297380D02*
X271280000Y-148297380D01*
X271184761Y-148440238D01*
X271089523Y-148535476D01*
X270994285Y-148583095D01*
X271994285Y-149297380D02*
X271994285Y-148297380D01*
X272565714Y-149297380D02*
X272137142Y-148725952D01*
X272565714Y-148297380D02*
X271994285Y-148868809D01*
%TO.C,R8*%
X241372380Y-163361666D02*
X240896190Y-163695000D01*
X241372380Y-163933095D02*
X240372380Y-163933095D01*
X240372380Y-163552142D01*
X240420000Y-163456904D01*
X240467619Y-163409285D01*
X240562857Y-163361666D01*
X240705714Y-163361666D01*
X240800952Y-163409285D01*
X240848571Y-163456904D01*
X240896190Y-163552142D01*
X240896190Y-163933095D01*
X240800952Y-162790238D02*
X240753333Y-162885476D01*
X240705714Y-162933095D01*
X240610476Y-162980714D01*
X240562857Y-162980714D01*
X240467619Y-162933095D01*
X240420000Y-162885476D01*
X240372380Y-162790238D01*
X240372380Y-162599761D01*
X240420000Y-162504523D01*
X240467619Y-162456904D01*
X240562857Y-162409285D01*
X240610476Y-162409285D01*
X240705714Y-162456904D01*
X240753333Y-162504523D01*
X240800952Y-162599761D01*
X240800952Y-162790238D01*
X240848571Y-162885476D01*
X240896190Y-162933095D01*
X240991428Y-162980714D01*
X241181904Y-162980714D01*
X241277142Y-162933095D01*
X241324761Y-162885476D01*
X241372380Y-162790238D01*
X241372380Y-162599761D01*
X241324761Y-162504523D01*
X241277142Y-162456904D01*
X241181904Y-162409285D01*
X240991428Y-162409285D01*
X240896190Y-162456904D01*
X240848571Y-162504523D01*
X240800952Y-162599761D01*
X247212380Y-163385476D02*
X247212380Y-163956904D01*
X247212380Y-163671190D02*
X246212380Y-163671190D01*
X246355238Y-163766428D01*
X246450476Y-163861666D01*
X246498095Y-163956904D01*
X246212380Y-162766428D02*
X246212380Y-162671190D01*
X246260000Y-162575952D01*
X246307619Y-162528333D01*
X246402857Y-162480714D01*
X246593333Y-162433095D01*
X246831428Y-162433095D01*
X247021904Y-162480714D01*
X247117142Y-162528333D01*
X247164761Y-162575952D01*
X247212380Y-162671190D01*
X247212380Y-162766428D01*
X247164761Y-162861666D01*
X247117142Y-162909285D01*
X247021904Y-162956904D01*
X246831428Y-163004523D01*
X246593333Y-163004523D01*
X246402857Y-162956904D01*
X246307619Y-162909285D01*
X246260000Y-162861666D01*
X246212380Y-162766428D01*
%TO.C,R9*%
X271613333Y-147517380D02*
X271280000Y-147041190D01*
X271041904Y-147517380D02*
X271041904Y-146517380D01*
X271422857Y-146517380D01*
X271518095Y-146565000D01*
X271565714Y-146612619D01*
X271613333Y-146707857D01*
X271613333Y-146850714D01*
X271565714Y-146945952D01*
X271518095Y-146993571D01*
X271422857Y-147041190D01*
X271041904Y-147041190D01*
X272089523Y-147517380D02*
X272280000Y-147517380D01*
X272375238Y-147469761D01*
X272422857Y-147422142D01*
X272518095Y-147279285D01*
X272565714Y-147088809D01*
X272565714Y-146707857D01*
X272518095Y-146612619D01*
X272470476Y-146565000D01*
X272375238Y-146517380D01*
X272184761Y-146517380D01*
X272089523Y-146565000D01*
X272041904Y-146612619D01*
X271994285Y-146707857D01*
X271994285Y-146945952D01*
X272041904Y-147041190D01*
X272089523Y-147088809D01*
X272184761Y-147136428D01*
X272375238Y-147136428D01*
X272470476Y-147088809D01*
X272518095Y-147041190D01*
X272565714Y-146945952D01*
X271113333Y-141677380D02*
X270541904Y-141677380D01*
X270827619Y-141677380D02*
X270827619Y-140677380D01*
X270732380Y-140820238D01*
X270637142Y-140915476D01*
X270541904Y-140963095D01*
X272018095Y-140677380D02*
X271541904Y-140677380D01*
X271494285Y-141153571D01*
X271541904Y-141105952D01*
X271637142Y-141058333D01*
X271875238Y-141058333D01*
X271970476Y-141105952D01*
X272018095Y-141153571D01*
X272065714Y-141248809D01*
X272065714Y-141486904D01*
X272018095Y-141582142D01*
X271970476Y-141629761D01*
X271875238Y-141677380D01*
X271637142Y-141677380D01*
X271541904Y-141629761D01*
X271494285Y-141582142D01*
X272684761Y-140677380D02*
X272780000Y-140677380D01*
X272875238Y-140725000D01*
X272922857Y-140772619D01*
X272970476Y-140867857D01*
X273018095Y-141058333D01*
X273018095Y-141296428D01*
X272970476Y-141486904D01*
X272922857Y-141582142D01*
X272875238Y-141629761D01*
X272780000Y-141677380D01*
X272684761Y-141677380D01*
X272589523Y-141629761D01*
X272541904Y-141582142D01*
X272494285Y-141486904D01*
X272446666Y-141296428D01*
X272446666Y-141058333D01*
X272494285Y-140867857D01*
X272541904Y-140772619D01*
X272589523Y-140725000D01*
X272684761Y-140677380D01*
%TO.C,R10*%
X194937142Y-149297380D02*
X194603809Y-148821190D01*
X194365714Y-149297380D02*
X194365714Y-148297380D01*
X194746666Y-148297380D01*
X194841904Y-148345000D01*
X194889523Y-148392619D01*
X194937142Y-148487857D01*
X194937142Y-148630714D01*
X194889523Y-148725952D01*
X194841904Y-148773571D01*
X194746666Y-148821190D01*
X194365714Y-148821190D01*
X195889523Y-149297380D02*
X195318095Y-149297380D01*
X195603809Y-149297380D02*
X195603809Y-148297380D01*
X195508571Y-148440238D01*
X195413333Y-148535476D01*
X195318095Y-148583095D01*
X196508571Y-148297380D02*
X196603809Y-148297380D01*
X196699047Y-148345000D01*
X196746666Y-148392619D01*
X196794285Y-148487857D01*
X196841904Y-148678333D01*
X196841904Y-148916428D01*
X196794285Y-149106904D01*
X196746666Y-149202142D01*
X196699047Y-149249761D01*
X196603809Y-149297380D01*
X196508571Y-149297380D01*
X196413333Y-149249761D01*
X196365714Y-149202142D01*
X196318095Y-149106904D01*
X196270476Y-148916428D01*
X196270476Y-148678333D01*
X196318095Y-148487857D01*
X196365714Y-148392619D01*
X196413333Y-148345000D01*
X196508571Y-148297380D01*
X195365714Y-155137380D02*
X194794285Y-155137380D01*
X195080000Y-155137380D02*
X195080000Y-154137380D01*
X194984761Y-154280238D01*
X194889523Y-154375476D01*
X194794285Y-154423095D01*
X195794285Y-155137380D02*
X195794285Y-154137380D01*
X196365714Y-155137380D02*
X195937142Y-154565952D01*
X196365714Y-154137380D02*
X195794285Y-154708809D01*
%TO.C,R12*%
X194937142Y-147517380D02*
X194603809Y-147041190D01*
X194365714Y-147517380D02*
X194365714Y-146517380D01*
X194746666Y-146517380D01*
X194841904Y-146565000D01*
X194889523Y-146612619D01*
X194937142Y-146707857D01*
X194937142Y-146850714D01*
X194889523Y-146945952D01*
X194841904Y-146993571D01*
X194746666Y-147041190D01*
X194365714Y-147041190D01*
X195889523Y-147517380D02*
X195318095Y-147517380D01*
X195603809Y-147517380D02*
X195603809Y-146517380D01*
X195508571Y-146660238D01*
X195413333Y-146755476D01*
X195318095Y-146803095D01*
X196270476Y-146612619D02*
X196318095Y-146565000D01*
X196413333Y-146517380D01*
X196651428Y-146517380D01*
X196746666Y-146565000D01*
X196794285Y-146612619D01*
X196841904Y-146707857D01*
X196841904Y-146803095D01*
X196794285Y-146945952D01*
X196222857Y-147517380D01*
X196841904Y-147517380D01*
X194913333Y-141677380D02*
X194341904Y-141677380D01*
X194627619Y-141677380D02*
X194627619Y-140677380D01*
X194532380Y-140820238D01*
X194437142Y-140915476D01*
X194341904Y-140963095D01*
X195818095Y-140677380D02*
X195341904Y-140677380D01*
X195294285Y-141153571D01*
X195341904Y-141105952D01*
X195437142Y-141058333D01*
X195675238Y-141058333D01*
X195770476Y-141105952D01*
X195818095Y-141153571D01*
X195865714Y-141248809D01*
X195865714Y-141486904D01*
X195818095Y-141582142D01*
X195770476Y-141629761D01*
X195675238Y-141677380D01*
X195437142Y-141677380D01*
X195341904Y-141629761D01*
X195294285Y-141582142D01*
X196484761Y-140677380D02*
X196580000Y-140677380D01*
X196675238Y-140725000D01*
X196722857Y-140772619D01*
X196770476Y-140867857D01*
X196818095Y-141058333D01*
X196818095Y-141296428D01*
X196770476Y-141486904D01*
X196722857Y-141582142D01*
X196675238Y-141629761D01*
X196580000Y-141677380D01*
X196484761Y-141677380D01*
X196389523Y-141629761D01*
X196341904Y-141582142D01*
X196294285Y-141486904D01*
X196246666Y-141296428D01*
X196246666Y-141058333D01*
X196294285Y-140867857D01*
X196341904Y-140772619D01*
X196389523Y-140725000D01*
X196484761Y-140677380D01*
%TO.C,R13*%
X221052380Y-184157857D02*
X220576190Y-184491190D01*
X221052380Y-184729285D02*
X220052380Y-184729285D01*
X220052380Y-184348333D01*
X220100000Y-184253095D01*
X220147619Y-184205476D01*
X220242857Y-184157857D01*
X220385714Y-184157857D01*
X220480952Y-184205476D01*
X220528571Y-184253095D01*
X220576190Y-184348333D01*
X220576190Y-184729285D01*
X221052380Y-183205476D02*
X221052380Y-183776904D01*
X221052380Y-183491190D02*
X220052380Y-183491190D01*
X220195238Y-183586428D01*
X220290476Y-183681666D01*
X220338095Y-183776904D01*
X220052380Y-182872142D02*
X220052380Y-182253095D01*
X220433333Y-182586428D01*
X220433333Y-182443571D01*
X220480952Y-182348333D01*
X220528571Y-182300714D01*
X220623809Y-182253095D01*
X220861904Y-182253095D01*
X220957142Y-182300714D01*
X221004761Y-182348333D01*
X221052380Y-182443571D01*
X221052380Y-182729285D01*
X221004761Y-182824523D01*
X220957142Y-182872142D01*
X225987619Y-184753095D02*
X225940000Y-184705476D01*
X225892380Y-184610238D01*
X225892380Y-184372142D01*
X225940000Y-184276904D01*
X225987619Y-184229285D01*
X226082857Y-184181666D01*
X226178095Y-184181666D01*
X226320952Y-184229285D01*
X226892380Y-184800714D01*
X226892380Y-184181666D01*
X225987619Y-183800714D02*
X225940000Y-183753095D01*
X225892380Y-183657857D01*
X225892380Y-183419761D01*
X225940000Y-183324523D01*
X225987619Y-183276904D01*
X226082857Y-183229285D01*
X226178095Y-183229285D01*
X226320952Y-183276904D01*
X226892380Y-183848333D01*
X226892380Y-183229285D01*
X225892380Y-182610238D02*
X225892380Y-182515000D01*
X225940000Y-182419761D01*
X225987619Y-182372142D01*
X226082857Y-182324523D01*
X226273333Y-182276904D01*
X226511428Y-182276904D01*
X226701904Y-182324523D01*
X226797142Y-182372142D01*
X226844761Y-182419761D01*
X226892380Y-182515000D01*
X226892380Y-182610238D01*
X226844761Y-182705476D01*
X226797142Y-182753095D01*
X226701904Y-182800714D01*
X226511428Y-182848333D01*
X226273333Y-182848333D01*
X226082857Y-182800714D01*
X225987619Y-182753095D01*
X225940000Y-182705476D01*
X225892380Y-182610238D01*
%TO.C,R14*%
X241372380Y-184157857D02*
X240896190Y-184491190D01*
X241372380Y-184729285D02*
X240372380Y-184729285D01*
X240372380Y-184348333D01*
X240420000Y-184253095D01*
X240467619Y-184205476D01*
X240562857Y-184157857D01*
X240705714Y-184157857D01*
X240800952Y-184205476D01*
X240848571Y-184253095D01*
X240896190Y-184348333D01*
X240896190Y-184729285D01*
X241372380Y-183205476D02*
X241372380Y-183776904D01*
X241372380Y-183491190D02*
X240372380Y-183491190D01*
X240515238Y-183586428D01*
X240610476Y-183681666D01*
X240658095Y-183776904D01*
X240705714Y-182348333D02*
X241372380Y-182348333D01*
X240324761Y-182586428D02*
X241039047Y-182824523D01*
X241039047Y-182205476D01*
X246307619Y-184753095D02*
X246260000Y-184705476D01*
X246212380Y-184610238D01*
X246212380Y-184372142D01*
X246260000Y-184276904D01*
X246307619Y-184229285D01*
X246402857Y-184181666D01*
X246498095Y-184181666D01*
X246640952Y-184229285D01*
X247212380Y-184800714D01*
X247212380Y-184181666D01*
X246307619Y-183800714D02*
X246260000Y-183753095D01*
X246212380Y-183657857D01*
X246212380Y-183419761D01*
X246260000Y-183324523D01*
X246307619Y-183276904D01*
X246402857Y-183229285D01*
X246498095Y-183229285D01*
X246640952Y-183276904D01*
X247212380Y-183848333D01*
X247212380Y-183229285D01*
X246212380Y-182610238D02*
X246212380Y-182515000D01*
X246260000Y-182419761D01*
X246307619Y-182372142D01*
X246402857Y-182324523D01*
X246593333Y-182276904D01*
X246831428Y-182276904D01*
X247021904Y-182324523D01*
X247117142Y-182372142D01*
X247164761Y-182419761D01*
X247212380Y-182515000D01*
X247212380Y-182610238D01*
X247164761Y-182705476D01*
X247117142Y-182753095D01*
X247021904Y-182800714D01*
X246831428Y-182848333D01*
X246593333Y-182848333D01*
X246402857Y-182800714D01*
X246307619Y-182753095D01*
X246260000Y-182705476D01*
X246212380Y-182610238D01*
%TD*%
M02*
