M48
; DRILL file {KiCad (5.1.4-0-10_14)} date Tuesday, September 24, 2019 at 11:42:38 AM
; FORMAT={-:-/ absolute / inch / decimal}
; #@! TF.CreationDate,2019-09-24T11:42:38-07:00
; #@! TF.GenerationSoftware,Kicad,Pcbnew,(5.1.4-0-10_14)
; #@! TF.FileFunction,Plated,1,2,PTH
FMAT,2
INCH
T1C0.0315
T2C0.0394
T3C0.0472
T4C0.0598
T5C0.1260
%
G90
G05
T1
X5.75Y-5.1
X5.75Y-5.5
X3.5Y-5.05
X3.5Y-5.25
X3.6Y-5.15
X3.5Y-3.85
X3.5Y-4.05
X3.6Y-3.95
X6.45Y-4.7
X6.55Y-4.6
X6.55Y-4.8
X5.75Y-4.1
X5.75Y-4.5
X5.75Y-4.6
X5.75Y-5.0
X4.35Y-4.95
X4.75Y-4.95
X6.4Y-5.65
X6.55Y-4.3
X6.55Y-4.5
X6.8Y-5.65
X6.45Y-4.4
X4.35Y-4.4
X4.75Y-4.4
X6.4Y-3.75
X6.8Y-3.75
X6.4Y-3.5
X6.8Y-3.5
X6.4Y-5.4
X6.8Y-5.4
X4.35Y-4.7
X4.75Y-4.7
X5.75Y-3.6
X5.75Y-4.0
X4.35Y-4.15
X4.75Y-4.15
T2
X4.4315Y-5.3
X4.6685Y-5.3
X4.4315Y-3.8
X4.6685Y-3.8
X5.95Y-3.65
X5.95Y-3.75
X5.95Y-3.85
X5.0815Y-5.3
X5.3185Y-5.3
X2.1Y-4.0
X2.4Y-4.0
X5.95Y-4.1
X5.95Y-4.2
X5.95Y-4.3
X5.95Y-4.8
X5.95Y-4.9
X5.95Y-5.0
X5.95Y-5.3
X5.95Y-5.4
X5.95Y-5.5
X2.1Y-5.1
X2.4Y-5.1
X5.0815Y-3.8
X5.3185Y-3.8
T3
X2.9Y-5.45
X3.5Y-5.45
X7.2Y-5.0594
X7.2Y-5.65
X6.3Y-5.1
X6.9Y-5.1
X6.35Y-4.05
X6.95Y-4.05
X3.4Y-3.45
X4.0Y-3.45
X2.65Y-5.1
X3.25Y-5.1
X2.1Y-5.45
X2.7Y-5.45
X5.0303Y-4.85
X5.3697Y-4.85
X6.8Y-4.75
X7.4Y-4.75
X2.4Y-4.3
X3.0Y-4.3
X5.0303Y-4.3
X5.3697Y-4.3
X2.4Y-4.75
X3.0Y-4.75
X3.9Y-3.8594
X3.9Y-4.45
X2.1Y-3.65
X2.7Y-3.65
X3.9Y-4.65
X3.9Y-5.2406
X6.8Y-4.35
X7.2Y-3.5
X7.2Y-4.0906
X2.9Y-3.65
X3.5Y-3.65
X2.65Y-4.0
X3.25Y-4.0
X7.4Y-4.35
X3.4Y-5.65
X4.0Y-5.65
T4
X1.75Y-4.25
X1.75Y-4.65
X1.75Y-4.85
X8.1Y-3.65
X1.75Y-4.45
X8.1Y-3.85
X8.1Y-4.05
X8.1Y-4.45
X8.1Y-4.65
X8.1Y-5.05
X8.1Y-5.25
X8.1Y-5.45
T5
X1.75Y-5.8
X8.1Y-3.3
X8.1Y-5.8
X1.75Y-3.3
T0
M30
