G04 #@! TF.GenerationSoftware,KiCad,Pcbnew,(5.1.4-0-10_14)*
G04 #@! TF.CreationDate,2019-09-24T11:42:35-07:00*
G04 #@! TF.ProjectId,STPre6080PCB,53545072-6536-4303-9830-5043422e6b69,1.0*
G04 #@! TF.SameCoordinates,Original*
G04 #@! TF.FileFunction,Soldermask,Top*
G04 #@! TF.FilePolarity,Negative*
%FSLAX46Y46*%
G04 Gerber Fmt 4.6, Leading zero omitted, Abs format (unit mm)*
G04 Created by KiCad (PCBNEW (5.1.4-0-10_14)) date 2019-09-24 11:42:35*
%MOMM*%
%LPD*%
G04 APERTURE LIST*
%ADD10C,0.100000*%
G04 APERTURE END LIST*
D10*
G36*
X206374239Y-144131467D02*
G01*
X206688282Y-144193934D01*
X207279926Y-144439001D01*
X207812392Y-144794784D01*
X208265216Y-145247608D01*
X208620999Y-145780074D01*
X208866066Y-146371718D01*
X208991000Y-146999804D01*
X208991000Y-147640196D01*
X208866066Y-148268282D01*
X208620999Y-148859926D01*
X208265216Y-149392392D01*
X207812392Y-149845216D01*
X207279926Y-150200999D01*
X206688282Y-150446066D01*
X206374239Y-150508533D01*
X206060197Y-150571000D01*
X205419803Y-150571000D01*
X205105761Y-150508533D01*
X204791718Y-150446066D01*
X204200074Y-150200999D01*
X203667608Y-149845216D01*
X203214784Y-149392392D01*
X202859001Y-148859926D01*
X202613934Y-148268282D01*
X202489000Y-147640196D01*
X202489000Y-146999804D01*
X202613934Y-146371718D01*
X202859001Y-145780074D01*
X203214784Y-145247608D01*
X203667608Y-144794784D01*
X204200074Y-144439001D01*
X204791718Y-144193934D01*
X205105761Y-144131467D01*
X205419803Y-144069000D01*
X206060197Y-144069000D01*
X206374239Y-144131467D01*
X206374239Y-144131467D01*
G37*
G36*
X45084239Y-144131467D02*
G01*
X45398282Y-144193934D01*
X45989926Y-144439001D01*
X46522392Y-144794784D01*
X46975216Y-145247608D01*
X47330999Y-145780074D01*
X47576066Y-146371718D01*
X47701000Y-146999804D01*
X47701000Y-147640196D01*
X47576066Y-148268282D01*
X47330999Y-148859926D01*
X46975216Y-149392392D01*
X46522392Y-149845216D01*
X45989926Y-150200999D01*
X45398282Y-150446066D01*
X45084239Y-150508533D01*
X44770197Y-150571000D01*
X44129803Y-150571000D01*
X43815761Y-150508533D01*
X43501718Y-150446066D01*
X42910074Y-150200999D01*
X42377608Y-149845216D01*
X41924784Y-149392392D01*
X41569001Y-148859926D01*
X41323934Y-148268282D01*
X41199000Y-147640196D01*
X41199000Y-146999804D01*
X41323934Y-146371718D01*
X41569001Y-145780074D01*
X41924784Y-145247608D01*
X42377608Y-144794784D01*
X42910074Y-144439001D01*
X43501718Y-144193934D01*
X43815761Y-144131467D01*
X44129803Y-144069000D01*
X44770197Y-144069000D01*
X45084239Y-144131467D01*
X45084239Y-144131467D01*
G37*
G36*
X183244903Y-142307075D02*
G01*
X183345236Y-142348634D01*
X183472571Y-142401378D01*
X183677466Y-142538285D01*
X183851715Y-142712534D01*
X183917922Y-142811620D01*
X183988623Y-142917431D01*
X184082925Y-143145097D01*
X184131000Y-143386786D01*
X184131000Y-143633214D01*
X184122325Y-143676825D01*
X184082925Y-143874903D01*
X183988622Y-144102571D01*
X183851715Y-144307466D01*
X183677466Y-144481715D01*
X183472571Y-144618622D01*
X183472570Y-144618623D01*
X183472569Y-144618623D01*
X183244903Y-144712925D01*
X183003214Y-144761000D01*
X182756786Y-144761000D01*
X182515097Y-144712925D01*
X182287431Y-144618623D01*
X182287430Y-144618623D01*
X182287429Y-144618622D01*
X182082534Y-144481715D01*
X181908285Y-144307466D01*
X181771378Y-144102571D01*
X181677075Y-143874903D01*
X181637675Y-143676825D01*
X181629000Y-143633214D01*
X181629000Y-143386786D01*
X181677075Y-143145097D01*
X181771377Y-142917431D01*
X181842078Y-142811620D01*
X181908285Y-142712534D01*
X182082534Y-142538285D01*
X182287429Y-142401378D01*
X182414765Y-142348634D01*
X182515097Y-142307075D01*
X182756786Y-142259000D01*
X183003214Y-142259000D01*
X183244903Y-142307075D01*
X183244903Y-142307075D01*
G37*
G36*
X101964903Y-142307075D02*
G01*
X102065236Y-142348634D01*
X102192571Y-142401378D01*
X102397466Y-142538285D01*
X102571715Y-142712534D01*
X102637922Y-142811620D01*
X102708623Y-142917431D01*
X102802925Y-143145097D01*
X102851000Y-143386786D01*
X102851000Y-143633214D01*
X102842325Y-143676825D01*
X102802925Y-143874903D01*
X102708622Y-144102571D01*
X102571715Y-144307466D01*
X102397466Y-144481715D01*
X102192571Y-144618622D01*
X102192570Y-144618623D01*
X102192569Y-144618623D01*
X101964903Y-144712925D01*
X101723214Y-144761000D01*
X101476786Y-144761000D01*
X101235097Y-144712925D01*
X101007431Y-144618623D01*
X101007430Y-144618623D01*
X101007429Y-144618622D01*
X100802534Y-144481715D01*
X100628285Y-144307466D01*
X100491378Y-144102571D01*
X100397075Y-143874903D01*
X100357675Y-143676825D01*
X100349000Y-143633214D01*
X100349000Y-143386786D01*
X100397075Y-143145097D01*
X100491377Y-142917431D01*
X100562078Y-142811620D01*
X100628285Y-142712534D01*
X100802534Y-142538285D01*
X101007429Y-142401378D01*
X101134765Y-142348634D01*
X101235097Y-142307075D01*
X101476786Y-142259000D01*
X101723214Y-142259000D01*
X101964903Y-142307075D01*
X101964903Y-142307075D01*
G37*
G36*
X86605239Y-142277101D02*
G01*
X86841053Y-142348634D01*
X87058381Y-142464799D01*
X87248871Y-142621129D01*
X87405201Y-142811619D01*
X87521366Y-143028947D01*
X87592899Y-143264761D01*
X87617053Y-143510000D01*
X87592899Y-143755239D01*
X87521366Y-143991053D01*
X87405201Y-144208381D01*
X87248871Y-144398871D01*
X87058381Y-144555201D01*
X86841053Y-144671366D01*
X86605239Y-144742899D01*
X86421457Y-144761000D01*
X86298543Y-144761000D01*
X86114761Y-144742899D01*
X85878947Y-144671366D01*
X85661619Y-144555201D01*
X85471129Y-144398871D01*
X85314799Y-144208381D01*
X85198634Y-143991053D01*
X85127101Y-143755239D01*
X85102947Y-143510000D01*
X85127101Y-143264761D01*
X85198634Y-143028947D01*
X85314799Y-142811619D01*
X85471129Y-142621129D01*
X85661619Y-142464799D01*
X85878947Y-142348634D01*
X86114761Y-142277101D01*
X86298543Y-142259000D01*
X86421457Y-142259000D01*
X86605239Y-142277101D01*
X86605239Y-142277101D01*
G37*
G36*
X172968228Y-142691703D02*
G01*
X173123100Y-142755853D01*
X173262481Y-142848985D01*
X173381015Y-142967519D01*
X173474147Y-143106900D01*
X173538297Y-143261772D01*
X173571000Y-143426184D01*
X173571000Y-143593816D01*
X173538297Y-143758228D01*
X173474147Y-143913100D01*
X173381015Y-144052481D01*
X173262481Y-144171015D01*
X173123100Y-144264147D01*
X172968228Y-144328297D01*
X172803816Y-144361000D01*
X172636184Y-144361000D01*
X172471772Y-144328297D01*
X172316900Y-144264147D01*
X172177519Y-144171015D01*
X172058985Y-144052481D01*
X171965853Y-143913100D01*
X171901703Y-143758228D01*
X171869000Y-143593816D01*
X171869000Y-143426184D01*
X171901703Y-143261772D01*
X171965853Y-143106900D01*
X172058985Y-142967519D01*
X172177519Y-142848985D01*
X172316900Y-142755853D01*
X172471772Y-142691703D01*
X172636184Y-142659000D01*
X172803816Y-142659000D01*
X172968228Y-142691703D01*
X172968228Y-142691703D01*
G37*
G36*
X162726823Y-142671313D02*
G01*
X162887242Y-142719976D01*
X162954361Y-142755852D01*
X163035078Y-142798996D01*
X163164659Y-142905341D01*
X163271004Y-143034922D01*
X163271005Y-143034924D01*
X163350024Y-143182758D01*
X163398687Y-143343177D01*
X163415117Y-143510000D01*
X163398687Y-143676823D01*
X163350024Y-143837242D01*
X163309477Y-143913100D01*
X163271004Y-143985078D01*
X163164659Y-144114659D01*
X163035078Y-144221004D01*
X163035076Y-144221005D01*
X162887242Y-144300024D01*
X162726823Y-144348687D01*
X162601804Y-144361000D01*
X162518196Y-144361000D01*
X162393177Y-144348687D01*
X162232758Y-144300024D01*
X162084924Y-144221005D01*
X162084922Y-144221004D01*
X161955341Y-144114659D01*
X161848996Y-143985078D01*
X161810523Y-143913100D01*
X161769976Y-143837242D01*
X161721313Y-143676823D01*
X161704883Y-143510000D01*
X161721313Y-143343177D01*
X161769976Y-143182758D01*
X161848995Y-143034924D01*
X161848996Y-143034922D01*
X161955341Y-142905341D01*
X162084922Y-142798996D01*
X162165639Y-142755852D01*
X162232758Y-142719976D01*
X162393177Y-142671313D01*
X162518196Y-142659000D01*
X162601804Y-142659000D01*
X162726823Y-142671313D01*
X162726823Y-142671313D01*
G37*
G36*
X152031000Y-140601000D02*
G01*
X150229000Y-140601000D01*
X150229000Y-138799000D01*
X152031000Y-138799000D01*
X152031000Y-140601000D01*
X152031000Y-140601000D01*
G37*
G36*
X146216823Y-138861313D02*
G01*
X146377242Y-138909976D01*
X146509906Y-138980886D01*
X146525078Y-138988996D01*
X146654659Y-139095341D01*
X146761004Y-139224922D01*
X146761005Y-139224924D01*
X146840024Y-139372758D01*
X146888687Y-139533177D01*
X146905117Y-139700000D01*
X146888687Y-139866823D01*
X146840024Y-140027242D01*
X146769114Y-140159906D01*
X146761004Y-140175078D01*
X146654659Y-140304659D01*
X146525078Y-140411004D01*
X146525076Y-140411005D01*
X146377242Y-140490024D01*
X146216823Y-140538687D01*
X146091804Y-140551000D01*
X146008196Y-140551000D01*
X145883177Y-140538687D01*
X145722758Y-140490024D01*
X145574924Y-140411005D01*
X145574922Y-140411004D01*
X145445341Y-140304659D01*
X145338996Y-140175078D01*
X145330886Y-140159906D01*
X145259976Y-140027242D01*
X145211313Y-139866823D01*
X145194883Y-139700000D01*
X145211313Y-139533177D01*
X145259976Y-139372758D01*
X145338995Y-139224924D01*
X145338996Y-139224922D01*
X145445341Y-139095341D01*
X145574922Y-138988996D01*
X145590094Y-138980886D01*
X145722758Y-138909976D01*
X145883177Y-138861313D01*
X146008196Y-138849000D01*
X146091804Y-138849000D01*
X146216823Y-138861313D01*
X146216823Y-138861313D01*
G37*
G36*
X207291000Y-139981000D02*
G01*
X204189000Y-139981000D01*
X204189000Y-136879000D01*
X207291000Y-136879000D01*
X207291000Y-139981000D01*
X207291000Y-139981000D01*
G37*
G36*
X73905239Y-137197101D02*
G01*
X74141053Y-137268634D01*
X74358381Y-137384799D01*
X74548871Y-137541129D01*
X74705201Y-137731619D01*
X74821366Y-137948947D01*
X74892899Y-138184761D01*
X74917053Y-138430000D01*
X74892899Y-138675239D01*
X74821366Y-138911053D01*
X74705201Y-139128381D01*
X74548871Y-139318871D01*
X74358381Y-139475201D01*
X74141053Y-139591366D01*
X73905239Y-139662899D01*
X73721457Y-139681000D01*
X73598543Y-139681000D01*
X73414761Y-139662899D01*
X73178947Y-139591366D01*
X72961619Y-139475201D01*
X72771129Y-139318871D01*
X72614799Y-139128381D01*
X72498634Y-138911053D01*
X72427101Y-138675239D01*
X72402947Y-138430000D01*
X72427101Y-138184761D01*
X72498634Y-137948947D01*
X72614799Y-137731619D01*
X72771129Y-137541129D01*
X72961619Y-137384799D01*
X73178947Y-137268634D01*
X73414761Y-137197101D01*
X73598543Y-137179000D01*
X73721457Y-137179000D01*
X73905239Y-137197101D01*
X73905239Y-137197101D01*
G37*
G36*
X53704903Y-137227075D02*
G01*
X53805236Y-137268634D01*
X53932571Y-137321378D01*
X54137466Y-137458285D01*
X54311715Y-137632534D01*
X54448622Y-137837429D01*
X54542925Y-138065097D01*
X54591000Y-138306787D01*
X54591000Y-138553213D01*
X54542925Y-138794903D01*
X54448622Y-139022571D01*
X54311715Y-139227466D01*
X54137466Y-139401715D01*
X53932571Y-139538622D01*
X53932570Y-139538623D01*
X53932569Y-139538623D01*
X53704903Y-139632925D01*
X53463214Y-139681000D01*
X53216786Y-139681000D01*
X52975097Y-139632925D01*
X52747431Y-139538623D01*
X52747430Y-139538623D01*
X52747429Y-139538622D01*
X52542534Y-139401715D01*
X52368285Y-139227466D01*
X52231378Y-139022571D01*
X52137075Y-138794903D01*
X52089000Y-138553213D01*
X52089000Y-138306787D01*
X52137075Y-138065097D01*
X52231378Y-137837429D01*
X52368285Y-137632534D01*
X52542534Y-137458285D01*
X52747429Y-137321378D01*
X52874765Y-137268634D01*
X52975097Y-137227075D01*
X53216786Y-137179000D01*
X53463214Y-137179000D01*
X53704903Y-137227075D01*
X53704903Y-137227075D01*
G37*
G36*
X68825239Y-137197101D02*
G01*
X69061053Y-137268634D01*
X69278381Y-137384799D01*
X69468871Y-137541129D01*
X69625201Y-137731619D01*
X69741366Y-137948947D01*
X69812899Y-138184761D01*
X69837053Y-138430000D01*
X69812899Y-138675239D01*
X69741366Y-138911053D01*
X69625201Y-139128381D01*
X69468871Y-139318871D01*
X69278381Y-139475201D01*
X69061053Y-139591366D01*
X68825239Y-139662899D01*
X68641457Y-139681000D01*
X68518543Y-139681000D01*
X68334761Y-139662899D01*
X68098947Y-139591366D01*
X67881619Y-139475201D01*
X67691129Y-139318871D01*
X67534799Y-139128381D01*
X67418634Y-138911053D01*
X67347101Y-138675239D01*
X67322947Y-138430000D01*
X67347101Y-138184761D01*
X67418634Y-137948947D01*
X67534799Y-137731619D01*
X67691129Y-137541129D01*
X67881619Y-137384799D01*
X68098947Y-137268634D01*
X68334761Y-137197101D01*
X68518543Y-137179000D01*
X68641457Y-137179000D01*
X68825239Y-137197101D01*
X68825239Y-137197101D01*
G37*
G36*
X89264903Y-137227075D02*
G01*
X89365236Y-137268634D01*
X89492571Y-137321378D01*
X89697466Y-137458285D01*
X89871715Y-137632534D01*
X90008622Y-137837429D01*
X90102925Y-138065097D01*
X90151000Y-138306787D01*
X90151000Y-138553213D01*
X90102925Y-138794903D01*
X90008622Y-139022571D01*
X89871715Y-139227466D01*
X89697466Y-139401715D01*
X89492571Y-139538622D01*
X89492570Y-139538623D01*
X89492569Y-139538623D01*
X89264903Y-139632925D01*
X89023214Y-139681000D01*
X88776786Y-139681000D01*
X88535097Y-139632925D01*
X88307431Y-139538623D01*
X88307430Y-139538623D01*
X88307429Y-139538622D01*
X88102534Y-139401715D01*
X87928285Y-139227466D01*
X87791378Y-139022571D01*
X87697075Y-138794903D01*
X87649000Y-138553213D01*
X87649000Y-138306787D01*
X87697075Y-138065097D01*
X87791378Y-137837429D01*
X87928285Y-137632534D01*
X88102534Y-137458285D01*
X88307429Y-137321378D01*
X88434765Y-137268634D01*
X88535097Y-137227075D01*
X88776786Y-137179000D01*
X89023214Y-137179000D01*
X89264903Y-137227075D01*
X89264903Y-137227075D01*
G37*
G36*
X151240443Y-136265519D02*
G01*
X151306627Y-136272037D01*
X151476466Y-136323557D01*
X151632991Y-136407222D01*
X151668729Y-136436552D01*
X151770186Y-136519814D01*
X151850369Y-136617519D01*
X151882778Y-136657009D01*
X151966443Y-136813534D01*
X152017963Y-136983373D01*
X152035359Y-137160000D01*
X152017963Y-137336627D01*
X151966443Y-137506466D01*
X151882778Y-137662991D01*
X151853448Y-137698729D01*
X151770186Y-137800186D01*
X151668729Y-137883448D01*
X151632991Y-137912778D01*
X151476466Y-137996443D01*
X151306627Y-138047963D01*
X151240442Y-138054482D01*
X151174260Y-138061000D01*
X151085740Y-138061000D01*
X151019558Y-138054482D01*
X150953373Y-138047963D01*
X150783534Y-137996443D01*
X150627009Y-137912778D01*
X150591271Y-137883448D01*
X150489814Y-137800186D01*
X150406552Y-137698729D01*
X150377222Y-137662991D01*
X150293557Y-137506466D01*
X150242037Y-137336627D01*
X150224641Y-137160000D01*
X150242037Y-136983373D01*
X150293557Y-136813534D01*
X150377222Y-136657009D01*
X150409631Y-136617519D01*
X150489814Y-136519814D01*
X150591271Y-136436552D01*
X150627009Y-136407222D01*
X150783534Y-136323557D01*
X150953373Y-136272037D01*
X151019557Y-136265519D01*
X151085740Y-136259000D01*
X151174260Y-136259000D01*
X151240443Y-136265519D01*
X151240443Y-136265519D01*
G37*
G36*
X172886823Y-136321313D02*
G01*
X173047242Y-136369976D01*
X173114361Y-136405852D01*
X173195078Y-136448996D01*
X173324659Y-136555341D01*
X173431004Y-136684922D01*
X173431005Y-136684924D01*
X173510024Y-136832758D01*
X173558687Y-136993177D01*
X173575117Y-137160000D01*
X173558687Y-137326823D01*
X173510024Y-137487242D01*
X173469477Y-137563100D01*
X173431004Y-137635078D01*
X173324659Y-137764659D01*
X173195078Y-137871004D01*
X173195076Y-137871005D01*
X173047242Y-137950024D01*
X172886823Y-137998687D01*
X172761804Y-138011000D01*
X172678196Y-138011000D01*
X172553177Y-137998687D01*
X172392758Y-137950024D01*
X172244924Y-137871005D01*
X172244922Y-137871004D01*
X172115341Y-137764659D01*
X172008996Y-137635078D01*
X171970523Y-137563100D01*
X171929976Y-137487242D01*
X171881313Y-137326823D01*
X171864883Y-137160000D01*
X171881313Y-136993177D01*
X171929976Y-136832758D01*
X172008995Y-136684924D01*
X172008996Y-136684922D01*
X172115341Y-136555341D01*
X172244922Y-136448996D01*
X172325639Y-136405852D01*
X172392758Y-136369976D01*
X172553177Y-136321313D01*
X172678196Y-136309000D01*
X172761804Y-136309000D01*
X172886823Y-136321313D01*
X172886823Y-136321313D01*
G37*
G36*
X162808228Y-136341703D02*
G01*
X162963100Y-136405853D01*
X163102481Y-136498985D01*
X163221015Y-136617519D01*
X163314147Y-136756900D01*
X163378297Y-136911772D01*
X163411000Y-137076184D01*
X163411000Y-137243816D01*
X163378297Y-137408228D01*
X163314147Y-137563100D01*
X163221015Y-137702481D01*
X163102481Y-137821015D01*
X162963100Y-137914147D01*
X162808228Y-137978297D01*
X162643816Y-138011000D01*
X162476184Y-138011000D01*
X162311772Y-137978297D01*
X162156900Y-137914147D01*
X162017519Y-137821015D01*
X161898985Y-137702481D01*
X161805853Y-137563100D01*
X161741703Y-137408228D01*
X161709000Y-137243816D01*
X161709000Y-137076184D01*
X161741703Y-136911772D01*
X161805853Y-136756900D01*
X161898985Y-136617519D01*
X162017519Y-136498985D01*
X162156900Y-136405853D01*
X162311772Y-136341703D01*
X162476184Y-136309000D01*
X162643816Y-136309000D01*
X162808228Y-136341703D01*
X162808228Y-136341703D01*
G37*
G36*
X112866564Y-133609389D02*
G01*
X113057833Y-133688615D01*
X113057835Y-133688616D01*
X113229973Y-133803635D01*
X113376365Y-133950027D01*
X113490084Y-134120219D01*
X113491385Y-134122167D01*
X113570611Y-134313436D01*
X113611000Y-134516484D01*
X113611000Y-134723516D01*
X113570611Y-134926564D01*
X113554083Y-134966466D01*
X113491384Y-135117835D01*
X113376365Y-135289973D01*
X113229973Y-135436365D01*
X113057835Y-135551384D01*
X113057834Y-135551385D01*
X113057833Y-135551385D01*
X112866564Y-135630611D01*
X112663516Y-135671000D01*
X112456484Y-135671000D01*
X112253436Y-135630611D01*
X112062167Y-135551385D01*
X112062166Y-135551385D01*
X112062165Y-135551384D01*
X111890027Y-135436365D01*
X111743635Y-135289973D01*
X111628616Y-135117835D01*
X111565917Y-134966466D01*
X111549389Y-134926564D01*
X111509000Y-134723516D01*
X111509000Y-134516484D01*
X111549389Y-134313436D01*
X111628615Y-134122167D01*
X111629917Y-134120219D01*
X111743635Y-133950027D01*
X111890027Y-133803635D01*
X112062165Y-133688616D01*
X112062167Y-133688615D01*
X112253436Y-133609389D01*
X112456484Y-133569000D01*
X112663516Y-133569000D01*
X112866564Y-133609389D01*
X112866564Y-133609389D01*
G37*
G36*
X118886564Y-133609389D02*
G01*
X119077833Y-133688615D01*
X119077835Y-133688616D01*
X119249973Y-133803635D01*
X119396365Y-133950027D01*
X119510084Y-134120219D01*
X119511385Y-134122167D01*
X119590611Y-134313436D01*
X119631000Y-134516484D01*
X119631000Y-134723516D01*
X119590611Y-134926564D01*
X119574083Y-134966466D01*
X119511384Y-135117835D01*
X119396365Y-135289973D01*
X119249973Y-135436365D01*
X119077835Y-135551384D01*
X119077834Y-135551385D01*
X119077833Y-135551385D01*
X118886564Y-135630611D01*
X118683516Y-135671000D01*
X118476484Y-135671000D01*
X118273436Y-135630611D01*
X118082167Y-135551385D01*
X118082166Y-135551385D01*
X118082165Y-135551384D01*
X117910027Y-135436365D01*
X117763635Y-135289973D01*
X117648616Y-135117835D01*
X117585917Y-134966466D01*
X117569389Y-134926564D01*
X117529000Y-134723516D01*
X117529000Y-134516484D01*
X117569389Y-134313436D01*
X117648615Y-134122167D01*
X117649917Y-134120219D01*
X117763635Y-133950027D01*
X117910027Y-133803635D01*
X118082165Y-133688616D01*
X118082167Y-133688615D01*
X118273436Y-133609389D01*
X118476484Y-133569000D01*
X118683516Y-133569000D01*
X118886564Y-133609389D01*
X118886564Y-133609389D01*
G37*
G36*
X129376564Y-133609389D02*
G01*
X129567833Y-133688615D01*
X129567835Y-133688616D01*
X129739973Y-133803635D01*
X129886365Y-133950027D01*
X130000084Y-134120219D01*
X130001385Y-134122167D01*
X130080611Y-134313436D01*
X130121000Y-134516484D01*
X130121000Y-134723516D01*
X130080611Y-134926564D01*
X130064083Y-134966466D01*
X130001384Y-135117835D01*
X129886365Y-135289973D01*
X129739973Y-135436365D01*
X129567835Y-135551384D01*
X129567834Y-135551385D01*
X129567833Y-135551385D01*
X129376564Y-135630611D01*
X129173516Y-135671000D01*
X128966484Y-135671000D01*
X128763436Y-135630611D01*
X128572167Y-135551385D01*
X128572166Y-135551385D01*
X128572165Y-135551384D01*
X128400027Y-135436365D01*
X128253635Y-135289973D01*
X128138616Y-135117835D01*
X128075917Y-134966466D01*
X128059389Y-134926564D01*
X128019000Y-134723516D01*
X128019000Y-134516484D01*
X128059389Y-134313436D01*
X128138615Y-134122167D01*
X128139917Y-134120219D01*
X128253635Y-133950027D01*
X128400027Y-133803635D01*
X128572165Y-133688616D01*
X128572167Y-133688615D01*
X128763436Y-133609389D01*
X128966484Y-133569000D01*
X129173516Y-133569000D01*
X129376564Y-133609389D01*
X129376564Y-133609389D01*
G37*
G36*
X135396564Y-133609389D02*
G01*
X135587833Y-133688615D01*
X135587835Y-133688616D01*
X135759973Y-133803635D01*
X135906365Y-133950027D01*
X136020084Y-134120219D01*
X136021385Y-134122167D01*
X136100611Y-134313436D01*
X136141000Y-134516484D01*
X136141000Y-134723516D01*
X136100611Y-134926564D01*
X136084083Y-134966466D01*
X136021384Y-135117835D01*
X135906365Y-135289973D01*
X135759973Y-135436365D01*
X135587835Y-135551384D01*
X135587834Y-135551385D01*
X135587833Y-135551385D01*
X135396564Y-135630611D01*
X135193516Y-135671000D01*
X134986484Y-135671000D01*
X134783436Y-135630611D01*
X134592167Y-135551385D01*
X134592166Y-135551385D01*
X134592165Y-135551384D01*
X134420027Y-135436365D01*
X134273635Y-135289973D01*
X134158616Y-135117835D01*
X134095917Y-134966466D01*
X134079389Y-134926564D01*
X134039000Y-134723516D01*
X134039000Y-134516484D01*
X134079389Y-134313436D01*
X134158615Y-134122167D01*
X134159917Y-134120219D01*
X134273635Y-133950027D01*
X134420027Y-133803635D01*
X134592165Y-133688616D01*
X134592167Y-133688615D01*
X134783436Y-133609389D01*
X134986484Y-133569000D01*
X135193516Y-133569000D01*
X135396564Y-133609389D01*
X135396564Y-133609389D01*
G37*
G36*
X151240443Y-133725519D02*
G01*
X151306627Y-133732037D01*
X151476466Y-133783557D01*
X151632991Y-133867222D01*
X151668729Y-133896552D01*
X151770186Y-133979814D01*
X151835858Y-134059837D01*
X151882778Y-134117009D01*
X151966443Y-134273534D01*
X152017963Y-134443373D01*
X152035359Y-134620000D01*
X152017963Y-134796627D01*
X151966443Y-134966466D01*
X151882778Y-135122991D01*
X151853448Y-135158729D01*
X151770186Y-135260186D01*
X151668729Y-135343448D01*
X151632991Y-135372778D01*
X151476466Y-135456443D01*
X151306627Y-135507963D01*
X151240443Y-135514481D01*
X151174260Y-135521000D01*
X151085740Y-135521000D01*
X151019557Y-135514481D01*
X150953373Y-135507963D01*
X150783534Y-135456443D01*
X150627009Y-135372778D01*
X150591271Y-135343448D01*
X150489814Y-135260186D01*
X150406552Y-135158729D01*
X150377222Y-135122991D01*
X150293557Y-134966466D01*
X150242037Y-134796627D01*
X150224641Y-134620000D01*
X150242037Y-134443373D01*
X150293557Y-134273534D01*
X150377222Y-134117009D01*
X150424142Y-134059837D01*
X150489814Y-133979814D01*
X150591271Y-133896552D01*
X150627009Y-133867222D01*
X150783534Y-133783557D01*
X150953373Y-133732037D01*
X151019557Y-133725519D01*
X151085740Y-133719000D01*
X151174260Y-133719000D01*
X151240443Y-133725519D01*
X151240443Y-133725519D01*
G37*
G36*
X206042585Y-131828802D02*
G01*
X206192410Y-131858604D01*
X206474674Y-131975521D01*
X206728705Y-132145259D01*
X206944741Y-132361295D01*
X207114479Y-132615326D01*
X207231396Y-132897590D01*
X207291000Y-133197240D01*
X207291000Y-133502760D01*
X207231396Y-133802410D01*
X207114479Y-134084674D01*
X206944741Y-134338705D01*
X206728705Y-134554741D01*
X206474674Y-134724479D01*
X206192410Y-134841396D01*
X206042585Y-134871198D01*
X205892761Y-134901000D01*
X205587239Y-134901000D01*
X205437415Y-134871198D01*
X205287590Y-134841396D01*
X205005326Y-134724479D01*
X204751295Y-134554741D01*
X204535259Y-134338705D01*
X204365521Y-134084674D01*
X204248604Y-133802410D01*
X204189000Y-133502760D01*
X204189000Y-133197240D01*
X204248604Y-132897590D01*
X204365521Y-132615326D01*
X204535259Y-132361295D01*
X204751295Y-132145259D01*
X205005326Y-131975521D01*
X205287590Y-131858604D01*
X205437415Y-131828802D01*
X205587239Y-131799000D01*
X205892761Y-131799000D01*
X206042585Y-131828802D01*
X206042585Y-131828802D01*
G37*
G36*
X99424903Y-131907075D02*
G01*
X99652571Y-132001378D01*
X99857466Y-132138285D01*
X100031715Y-132312534D01*
X100031716Y-132312536D01*
X100168623Y-132517431D01*
X100262925Y-132745097D01*
X100311000Y-132986786D01*
X100311000Y-133233214D01*
X100262925Y-133474903D01*
X100174403Y-133688616D01*
X100168622Y-133702571D01*
X100031715Y-133907466D01*
X99857466Y-134081715D01*
X99652571Y-134218622D01*
X99652570Y-134218623D01*
X99652569Y-134218623D01*
X99424903Y-134312925D01*
X99183214Y-134361000D01*
X98936786Y-134361000D01*
X98695097Y-134312925D01*
X98467431Y-134218623D01*
X98467430Y-134218623D01*
X98467429Y-134218622D01*
X98262534Y-134081715D01*
X98088285Y-133907466D01*
X97951378Y-133702571D01*
X97945598Y-133688616D01*
X97857075Y-133474903D01*
X97809000Y-133233214D01*
X97809000Y-132986786D01*
X97857075Y-132745097D01*
X97951377Y-132517431D01*
X98088284Y-132312536D01*
X98088285Y-132312534D01*
X98262534Y-132138285D01*
X98467429Y-132001378D01*
X98695097Y-131907075D01*
X98936786Y-131859000D01*
X99183214Y-131859000D01*
X99424903Y-131907075D01*
X99424903Y-131907075D01*
G37*
G36*
X89133642Y-132579781D02*
G01*
X89279414Y-132640162D01*
X89279416Y-132640163D01*
X89410608Y-132727822D01*
X89522178Y-132839392D01*
X89561064Y-132897590D01*
X89609838Y-132970586D01*
X89670219Y-133116358D01*
X89701000Y-133271107D01*
X89701000Y-133428893D01*
X89670219Y-133583642D01*
X89609838Y-133729414D01*
X89609837Y-133729416D01*
X89522178Y-133860608D01*
X89410608Y-133972178D01*
X89279416Y-134059837D01*
X89279415Y-134059838D01*
X89279414Y-134059838D01*
X89133642Y-134120219D01*
X88978893Y-134151000D01*
X88821107Y-134151000D01*
X88666358Y-134120219D01*
X88520586Y-134059838D01*
X88520585Y-134059838D01*
X88520584Y-134059837D01*
X88389392Y-133972178D01*
X88277822Y-133860608D01*
X88190163Y-133729416D01*
X88190162Y-133729414D01*
X88129781Y-133583642D01*
X88099000Y-133428893D01*
X88099000Y-133271107D01*
X88129781Y-133116358D01*
X88190162Y-132970586D01*
X88238936Y-132897590D01*
X88277822Y-132839392D01*
X88389392Y-132727822D01*
X88520584Y-132640163D01*
X88520586Y-132640162D01*
X88666358Y-132579781D01*
X88821107Y-132549000D01*
X88978893Y-132549000D01*
X89133642Y-132579781D01*
X89133642Y-132579781D01*
G37*
G36*
X91673642Y-130039781D02*
G01*
X91776728Y-130082481D01*
X91819416Y-130100163D01*
X91950608Y-130187822D01*
X92062178Y-130299392D01*
X92148692Y-130428871D01*
X92149838Y-130430586D01*
X92210219Y-130576358D01*
X92241000Y-130731107D01*
X92241000Y-130888893D01*
X92210219Y-131043642D01*
X92149838Y-131189414D01*
X92149837Y-131189416D01*
X92062178Y-131320608D01*
X91950608Y-131432178D01*
X91819416Y-131519837D01*
X91819415Y-131519838D01*
X91819414Y-131519838D01*
X91673642Y-131580219D01*
X91518893Y-131611000D01*
X91361107Y-131611000D01*
X91206358Y-131580219D01*
X91060586Y-131519838D01*
X91060585Y-131519838D01*
X91060584Y-131519837D01*
X90929392Y-131432178D01*
X90817822Y-131320608D01*
X90730163Y-131189416D01*
X90730162Y-131189414D01*
X90669781Y-131043642D01*
X90639000Y-130888893D01*
X90639000Y-130731107D01*
X90669781Y-130576358D01*
X90730162Y-130430586D01*
X90731308Y-130428871D01*
X90817822Y-130299392D01*
X90929392Y-130187822D01*
X91060584Y-130100163D01*
X91103272Y-130082481D01*
X91206358Y-130039781D01*
X91361107Y-130009000D01*
X91518893Y-130009000D01*
X91673642Y-130039781D01*
X91673642Y-130039781D01*
G37*
G36*
X82914903Y-128337075D02*
G01*
X83121766Y-128422760D01*
X83142571Y-128431378D01*
X83347466Y-128568285D01*
X83521715Y-128742534D01*
X83658622Y-128947429D01*
X83752925Y-129175097D01*
X83801000Y-129416787D01*
X83801000Y-129663213D01*
X83752925Y-129904903D01*
X83658622Y-130132571D01*
X83521715Y-130337466D01*
X83347466Y-130511715D01*
X83142571Y-130648622D01*
X83142570Y-130648623D01*
X83142569Y-130648623D01*
X82914903Y-130742925D01*
X82673214Y-130791000D01*
X82426786Y-130791000D01*
X82185097Y-130742925D01*
X81957431Y-130648623D01*
X81957430Y-130648623D01*
X81957429Y-130648622D01*
X81752534Y-130511715D01*
X81578285Y-130337466D01*
X81441378Y-130132571D01*
X81347075Y-129904903D01*
X81299000Y-129663213D01*
X81299000Y-129416787D01*
X81347075Y-129175097D01*
X81441378Y-128947429D01*
X81578285Y-128742534D01*
X81752534Y-128568285D01*
X81957429Y-128431378D01*
X81978235Y-128422760D01*
X82185097Y-128337075D01*
X82426786Y-128289000D01*
X82673214Y-128289000D01*
X82914903Y-128337075D01*
X82914903Y-128337075D01*
G37*
G36*
X67555239Y-128307101D02*
G01*
X67791053Y-128378634D01*
X68008381Y-128494799D01*
X68198871Y-128651129D01*
X68355201Y-128841619D01*
X68471366Y-129058947D01*
X68542899Y-129294761D01*
X68567053Y-129540000D01*
X68542899Y-129785239D01*
X68471366Y-130021053D01*
X68355201Y-130238381D01*
X68198871Y-130428871D01*
X68008381Y-130585201D01*
X67791053Y-130701366D01*
X67555239Y-130772899D01*
X67371457Y-130791000D01*
X67248543Y-130791000D01*
X67064761Y-130772899D01*
X66828947Y-130701366D01*
X66611619Y-130585201D01*
X66421129Y-130428871D01*
X66264799Y-130238381D01*
X66148634Y-130021053D01*
X66077101Y-129785239D01*
X66052947Y-129540000D01*
X66077101Y-129294761D01*
X66148634Y-129058947D01*
X66264799Y-128841619D01*
X66421129Y-128651129D01*
X66611619Y-128494799D01*
X66828947Y-128378634D01*
X67064761Y-128307101D01*
X67248543Y-128289000D01*
X67371457Y-128289000D01*
X67555239Y-128307101D01*
X67555239Y-128307101D01*
G37*
G36*
X160384903Y-128337075D02*
G01*
X160591766Y-128422760D01*
X160612571Y-128431378D01*
X160817466Y-128568285D01*
X160991715Y-128742534D01*
X161128622Y-128947429D01*
X161222925Y-129175097D01*
X161271000Y-129416787D01*
X161271000Y-129663213D01*
X161222925Y-129904903D01*
X161128622Y-130132571D01*
X160991715Y-130337466D01*
X160817466Y-130511715D01*
X160612571Y-130648622D01*
X160612570Y-130648623D01*
X160612569Y-130648623D01*
X160384903Y-130742925D01*
X160143214Y-130791000D01*
X159896786Y-130791000D01*
X159655097Y-130742925D01*
X159427431Y-130648623D01*
X159427430Y-130648623D01*
X159427429Y-130648622D01*
X159222534Y-130511715D01*
X159048285Y-130337466D01*
X158911378Y-130132571D01*
X158817075Y-129904903D01*
X158769000Y-129663213D01*
X158769000Y-129416787D01*
X158817075Y-129175097D01*
X158911378Y-128947429D01*
X159048285Y-128742534D01*
X159222534Y-128568285D01*
X159427429Y-128431378D01*
X159448235Y-128422760D01*
X159655097Y-128337075D01*
X159896786Y-128289000D01*
X160143214Y-128289000D01*
X160384903Y-128337075D01*
X160384903Y-128337075D01*
G37*
G36*
X175505239Y-128307101D02*
G01*
X175741053Y-128378634D01*
X175958381Y-128494799D01*
X176148871Y-128651129D01*
X176305201Y-128841619D01*
X176421366Y-129058947D01*
X176492899Y-129294761D01*
X176517053Y-129540000D01*
X176492899Y-129785239D01*
X176421366Y-130021053D01*
X176305201Y-130238381D01*
X176148871Y-130428871D01*
X175958381Y-130585201D01*
X175741053Y-130701366D01*
X175505239Y-130772899D01*
X175321457Y-130791000D01*
X175198543Y-130791000D01*
X175014761Y-130772899D01*
X174778947Y-130701366D01*
X174561619Y-130585201D01*
X174371129Y-130428871D01*
X174214799Y-130238381D01*
X174098634Y-130021053D01*
X174027101Y-129785239D01*
X174002947Y-129540000D01*
X174027101Y-129294761D01*
X174098634Y-129058947D01*
X174214799Y-128841619D01*
X174371129Y-128651129D01*
X174561619Y-128494799D01*
X174778947Y-128378634D01*
X175014761Y-128307101D01*
X175198543Y-128289000D01*
X175321457Y-128289000D01*
X175505239Y-128307101D01*
X175505239Y-128307101D01*
G37*
G36*
X61266564Y-128529389D02*
G01*
X61457833Y-128608615D01*
X61457835Y-128608616D01*
X61578138Y-128689000D01*
X61629973Y-128723635D01*
X61776365Y-128870027D01*
X61891385Y-129042167D01*
X61970611Y-129233436D01*
X62011000Y-129436484D01*
X62011000Y-129643516D01*
X61970611Y-129846564D01*
X61903328Y-130009000D01*
X61891384Y-130037835D01*
X61776365Y-130209973D01*
X61629973Y-130356365D01*
X61457835Y-130471384D01*
X61457834Y-130471385D01*
X61457833Y-130471385D01*
X61266564Y-130550611D01*
X61063516Y-130591000D01*
X60856484Y-130591000D01*
X60653436Y-130550611D01*
X60462167Y-130471385D01*
X60462166Y-130471385D01*
X60462165Y-130471384D01*
X60290027Y-130356365D01*
X60143635Y-130209973D01*
X60028616Y-130037835D01*
X60016672Y-130009000D01*
X59949389Y-129846564D01*
X59909000Y-129643516D01*
X59909000Y-129436484D01*
X59949389Y-129233436D01*
X60028615Y-129042167D01*
X60143635Y-128870027D01*
X60290027Y-128723635D01*
X60341862Y-128689000D01*
X60462165Y-128608616D01*
X60462167Y-128608615D01*
X60653436Y-128529389D01*
X60856484Y-128489000D01*
X61063516Y-128489000D01*
X61266564Y-128529389D01*
X61266564Y-128529389D01*
G37*
G36*
X53646564Y-128529389D02*
G01*
X53837833Y-128608615D01*
X53837835Y-128608616D01*
X53958138Y-128689000D01*
X54009973Y-128723635D01*
X54156365Y-128870027D01*
X54271385Y-129042167D01*
X54350611Y-129233436D01*
X54391000Y-129436484D01*
X54391000Y-129643516D01*
X54350611Y-129846564D01*
X54283328Y-130009000D01*
X54271384Y-130037835D01*
X54156365Y-130209973D01*
X54009973Y-130356365D01*
X53837835Y-130471384D01*
X53837834Y-130471385D01*
X53837833Y-130471385D01*
X53646564Y-130550611D01*
X53443516Y-130591000D01*
X53236484Y-130591000D01*
X53033436Y-130550611D01*
X52842167Y-130471385D01*
X52842166Y-130471385D01*
X52842165Y-130471384D01*
X52670027Y-130356365D01*
X52523635Y-130209973D01*
X52408616Y-130037835D01*
X52396672Y-130009000D01*
X52329389Y-129846564D01*
X52289000Y-129643516D01*
X52289000Y-129436484D01*
X52329389Y-129233436D01*
X52408615Y-129042167D01*
X52523635Y-128870027D01*
X52670027Y-128723635D01*
X52721862Y-128689000D01*
X52842165Y-128608616D01*
X52842167Y-128608615D01*
X53033436Y-128529389D01*
X53236484Y-128489000D01*
X53443516Y-128489000D01*
X53646564Y-128529389D01*
X53646564Y-128529389D01*
G37*
G36*
X146298228Y-128721703D02*
G01*
X146453100Y-128785853D01*
X146592481Y-128878985D01*
X146711015Y-128997519D01*
X146804147Y-129136900D01*
X146868297Y-129291772D01*
X146901000Y-129456184D01*
X146901000Y-129623816D01*
X146868297Y-129788228D01*
X146804147Y-129943100D01*
X146711015Y-130082481D01*
X146592481Y-130201015D01*
X146453100Y-130294147D01*
X146298228Y-130358297D01*
X146133816Y-130391000D01*
X145966184Y-130391000D01*
X145801772Y-130358297D01*
X145646900Y-130294147D01*
X145507519Y-130201015D01*
X145388985Y-130082481D01*
X145295853Y-129943100D01*
X145231703Y-129788228D01*
X145199000Y-129623816D01*
X145199000Y-129456184D01*
X145231703Y-129291772D01*
X145295853Y-129136900D01*
X145388985Y-128997519D01*
X145507519Y-128878985D01*
X145646900Y-128785853D01*
X145801772Y-128721703D01*
X145966184Y-128689000D01*
X146133816Y-128689000D01*
X146298228Y-128721703D01*
X146298228Y-128721703D01*
G37*
G36*
X206042585Y-126748802D02*
G01*
X206192410Y-126778604D01*
X206474674Y-126895521D01*
X206728705Y-127065259D01*
X206944741Y-127281295D01*
X207114479Y-127535326D01*
X207231396Y-127817590D01*
X207291000Y-128117240D01*
X207291000Y-128422760D01*
X207231396Y-128722410D01*
X207114479Y-129004674D01*
X206944741Y-129258705D01*
X206728705Y-129474741D01*
X206474674Y-129644479D01*
X206192410Y-129761396D01*
X206072553Y-129785237D01*
X205892761Y-129821000D01*
X205587239Y-129821000D01*
X205407447Y-129785237D01*
X205287590Y-129761396D01*
X205005326Y-129644479D01*
X204751295Y-129474741D01*
X204535259Y-129258705D01*
X204365521Y-129004674D01*
X204248604Y-128722410D01*
X204189000Y-128422760D01*
X204189000Y-128117240D01*
X204248604Y-127817590D01*
X204365521Y-127535326D01*
X204535259Y-127281295D01*
X204751295Y-127065259D01*
X205005326Y-126895521D01*
X205287590Y-126778604D01*
X205437415Y-126748802D01*
X205587239Y-126719000D01*
X205892761Y-126719000D01*
X206042585Y-126748802D01*
X206042585Y-126748802D01*
G37*
G36*
X183115298Y-127281295D02*
G01*
X183244903Y-127307075D01*
X183472571Y-127401378D01*
X183677466Y-127538285D01*
X183851715Y-127712534D01*
X183851716Y-127712536D01*
X183988623Y-127917431D01*
X184082925Y-128145097D01*
X184131000Y-128386786D01*
X184131000Y-128633214D01*
X184082925Y-128874903D01*
X184032136Y-128997520D01*
X183988622Y-129102571D01*
X183851715Y-129307466D01*
X183677466Y-129481715D01*
X183472571Y-129618622D01*
X183472570Y-129618623D01*
X183472569Y-129618623D01*
X183244903Y-129712925D01*
X183003214Y-129761000D01*
X182756786Y-129761000D01*
X182515097Y-129712925D01*
X182287431Y-129618623D01*
X182287430Y-129618623D01*
X182287429Y-129618622D01*
X182082534Y-129481715D01*
X181908285Y-129307466D01*
X181771378Y-129102571D01*
X181727865Y-128997520D01*
X181677075Y-128874903D01*
X181629000Y-128633214D01*
X181629000Y-128386786D01*
X181677075Y-128145097D01*
X181771377Y-127917431D01*
X181908284Y-127712536D01*
X181908285Y-127712534D01*
X182082534Y-127538285D01*
X182287429Y-127401378D01*
X182515097Y-127307075D01*
X182644702Y-127281295D01*
X182756786Y-127259000D01*
X183003214Y-127259000D01*
X183115298Y-127281295D01*
X183115298Y-127281295D01*
G37*
G36*
X89701000Y-129071000D02*
G01*
X88099000Y-129071000D01*
X88099000Y-127469000D01*
X89701000Y-127469000D01*
X89701000Y-129071000D01*
X89701000Y-129071000D01*
G37*
G36*
X152031000Y-127901000D02*
G01*
X150229000Y-127901000D01*
X150229000Y-126099000D01*
X152031000Y-126099000D01*
X152031000Y-127901000D01*
X152031000Y-127901000D01*
G37*
G36*
X146216823Y-126161313D02*
G01*
X146377242Y-126209976D01*
X146509906Y-126280886D01*
X146525078Y-126288996D01*
X146654659Y-126395341D01*
X146761004Y-126524922D01*
X146761005Y-126524924D01*
X146840024Y-126672758D01*
X146888687Y-126833177D01*
X146905117Y-127000000D01*
X146888687Y-127166823D01*
X146840024Y-127327242D01*
X146800398Y-127401377D01*
X146761004Y-127475078D01*
X146654659Y-127604659D01*
X146525078Y-127711004D01*
X146522212Y-127712536D01*
X146377242Y-127790024D01*
X146216823Y-127838687D01*
X146091804Y-127851000D01*
X146008196Y-127851000D01*
X145883177Y-127838687D01*
X145722758Y-127790024D01*
X145577788Y-127712536D01*
X145574922Y-127711004D01*
X145445341Y-127604659D01*
X145338996Y-127475078D01*
X145299602Y-127401377D01*
X145259976Y-127327242D01*
X145211313Y-127166823D01*
X145194883Y-127000000D01*
X145211313Y-126833177D01*
X145259976Y-126672758D01*
X145338995Y-126524924D01*
X145338996Y-126524922D01*
X145445341Y-126395341D01*
X145574922Y-126288996D01*
X145590094Y-126280886D01*
X145722758Y-126209976D01*
X145883177Y-126161313D01*
X146008196Y-126149000D01*
X146091804Y-126149000D01*
X146216823Y-126161313D01*
X146216823Y-126161313D01*
G37*
G36*
X120816823Y-124891313D02*
G01*
X120977242Y-124939976D01*
X121044361Y-124975852D01*
X121125078Y-125018996D01*
X121254659Y-125125341D01*
X121361004Y-125254922D01*
X121361005Y-125254924D01*
X121440024Y-125402758D01*
X121488687Y-125563177D01*
X121505117Y-125730000D01*
X121488687Y-125896823D01*
X121440024Y-126057242D01*
X121399477Y-126133100D01*
X121361004Y-126205078D01*
X121254659Y-126334659D01*
X121125078Y-126441004D01*
X121125076Y-126441005D01*
X120977242Y-126520024D01*
X120816823Y-126568687D01*
X120691804Y-126581000D01*
X120608196Y-126581000D01*
X120483177Y-126568687D01*
X120322758Y-126520024D01*
X120174924Y-126441005D01*
X120174922Y-126441004D01*
X120045341Y-126334659D01*
X119938996Y-126205078D01*
X119900523Y-126133100D01*
X119859976Y-126057242D01*
X119811313Y-125896823D01*
X119794883Y-125730000D01*
X119811313Y-125563177D01*
X119859976Y-125402758D01*
X119938995Y-125254924D01*
X119938996Y-125254922D01*
X120045341Y-125125341D01*
X120174922Y-125018996D01*
X120255639Y-124975852D01*
X120322758Y-124939976D01*
X120483177Y-124891313D01*
X120608196Y-124879000D01*
X120691804Y-124879000D01*
X120816823Y-124891313D01*
X120816823Y-124891313D01*
G37*
G36*
X110738228Y-124911703D02*
G01*
X110893100Y-124975853D01*
X111032481Y-125068985D01*
X111151015Y-125187519D01*
X111244147Y-125326900D01*
X111308297Y-125481772D01*
X111341000Y-125646184D01*
X111341000Y-125813816D01*
X111308297Y-125978228D01*
X111244147Y-126133100D01*
X111151015Y-126272481D01*
X111032481Y-126391015D01*
X110893100Y-126484147D01*
X110738228Y-126548297D01*
X110573816Y-126581000D01*
X110406184Y-126581000D01*
X110241772Y-126548297D01*
X110086900Y-126484147D01*
X109947519Y-126391015D01*
X109828985Y-126272481D01*
X109735853Y-126133100D01*
X109671703Y-125978228D01*
X109639000Y-125813816D01*
X109639000Y-125646184D01*
X109671703Y-125481772D01*
X109735853Y-125326900D01*
X109828985Y-125187519D01*
X109947519Y-125068985D01*
X110086900Y-124975853D01*
X110241772Y-124911703D01*
X110406184Y-124879000D01*
X110573816Y-124879000D01*
X110738228Y-124911703D01*
X110738228Y-124911703D01*
G37*
G36*
X151240442Y-123565518D02*
G01*
X151306627Y-123572037D01*
X151476466Y-123623557D01*
X151632991Y-123707222D01*
X151668729Y-123736552D01*
X151770186Y-123819814D01*
X151853448Y-123921271D01*
X151882778Y-123957009D01*
X151966443Y-124113534D01*
X152017963Y-124283373D01*
X152035359Y-124460000D01*
X152017963Y-124636627D01*
X151966443Y-124806466D01*
X151882778Y-124962991D01*
X151872223Y-124975852D01*
X151770186Y-125100186D01*
X151668729Y-125183448D01*
X151632991Y-125212778D01*
X151476466Y-125296443D01*
X151306627Y-125347963D01*
X151240442Y-125354482D01*
X151174260Y-125361000D01*
X151085740Y-125361000D01*
X151019558Y-125354482D01*
X150953373Y-125347963D01*
X150783534Y-125296443D01*
X150627009Y-125212778D01*
X150591271Y-125183448D01*
X150489814Y-125100186D01*
X150387777Y-124975852D01*
X150377222Y-124962991D01*
X150293557Y-124806466D01*
X150242037Y-124636627D01*
X150224641Y-124460000D01*
X150242037Y-124283373D01*
X150293557Y-124113534D01*
X150377222Y-123957009D01*
X150406552Y-123921271D01*
X150489814Y-123819814D01*
X150591271Y-123736552D01*
X150627009Y-123707222D01*
X150783534Y-123623557D01*
X150953373Y-123572037D01*
X151019558Y-123565518D01*
X151085740Y-123559000D01*
X151174260Y-123559000D01*
X151240442Y-123565518D01*
X151240442Y-123565518D01*
G37*
G36*
X44752585Y-121668802D02*
G01*
X44902410Y-121698604D01*
X45184674Y-121815521D01*
X45438705Y-121985259D01*
X45654741Y-122201295D01*
X45824479Y-122455326D01*
X45941396Y-122737590D01*
X46001000Y-123037240D01*
X46001000Y-123342760D01*
X45941396Y-123642410D01*
X45824479Y-123924674D01*
X45654741Y-124178705D01*
X45438705Y-124394741D01*
X45184674Y-124564479D01*
X44902410Y-124681396D01*
X44752585Y-124711198D01*
X44602761Y-124741000D01*
X44297239Y-124741000D01*
X44147415Y-124711198D01*
X43997590Y-124681396D01*
X43715326Y-124564479D01*
X43461295Y-124394741D01*
X43245259Y-124178705D01*
X43075521Y-123924674D01*
X42958604Y-123642410D01*
X42899000Y-123342760D01*
X42899000Y-123037240D01*
X42958604Y-122737590D01*
X43075521Y-122455326D01*
X43245259Y-122201295D01*
X43461295Y-121985259D01*
X43715326Y-121815521D01*
X43997590Y-121698604D01*
X44147415Y-121668802D01*
X44297239Y-121639000D01*
X44602761Y-121639000D01*
X44752585Y-121668802D01*
X44752585Y-121668802D01*
G37*
G36*
X128125773Y-121985259D02*
G01*
X128134903Y-121987075D01*
X128362571Y-122081378D01*
X128567466Y-122218285D01*
X128741715Y-122392534D01*
X128853736Y-122560185D01*
X128878623Y-122597431D01*
X128972925Y-122825097D01*
X129021000Y-123066786D01*
X129021000Y-123313214D01*
X128972925Y-123554903D01*
X128936679Y-123642410D01*
X128878622Y-123782571D01*
X128741715Y-123987466D01*
X128567466Y-124161715D01*
X128362571Y-124298622D01*
X128362570Y-124298623D01*
X128362569Y-124298623D01*
X128134903Y-124392925D01*
X127893214Y-124441000D01*
X127646786Y-124441000D01*
X127405097Y-124392925D01*
X127177431Y-124298623D01*
X127177430Y-124298623D01*
X127177429Y-124298622D01*
X126972534Y-124161715D01*
X126798285Y-123987466D01*
X126661378Y-123782571D01*
X126603322Y-123642410D01*
X126567075Y-123554903D01*
X126519000Y-123313214D01*
X126519000Y-123066786D01*
X126567075Y-122825097D01*
X126661377Y-122597431D01*
X126686264Y-122560185D01*
X126798285Y-122392534D01*
X126972534Y-122218285D01*
X127177429Y-122081378D01*
X127405097Y-121987075D01*
X127414227Y-121985259D01*
X127646786Y-121939000D01*
X127893214Y-121939000D01*
X128125773Y-121985259D01*
X128125773Y-121985259D01*
G37*
G36*
X136745773Y-121985259D02*
G01*
X136754903Y-121987075D01*
X136982571Y-122081378D01*
X137187466Y-122218285D01*
X137361715Y-122392534D01*
X137473736Y-122560185D01*
X137498623Y-122597431D01*
X137592925Y-122825097D01*
X137641000Y-123066786D01*
X137641000Y-123313214D01*
X137592925Y-123554903D01*
X137556679Y-123642410D01*
X137498622Y-123782571D01*
X137361715Y-123987466D01*
X137187466Y-124161715D01*
X136982571Y-124298622D01*
X136982570Y-124298623D01*
X136982569Y-124298623D01*
X136754903Y-124392925D01*
X136513214Y-124441000D01*
X136266786Y-124441000D01*
X136025097Y-124392925D01*
X135797431Y-124298623D01*
X135797430Y-124298623D01*
X135797429Y-124298622D01*
X135592534Y-124161715D01*
X135418285Y-123987466D01*
X135281378Y-123782571D01*
X135223322Y-123642410D01*
X135187075Y-123554903D01*
X135139000Y-123313214D01*
X135139000Y-123066786D01*
X135187075Y-122825097D01*
X135281377Y-122597431D01*
X135306264Y-122560185D01*
X135418285Y-122392534D01*
X135592534Y-122218285D01*
X135797429Y-122081378D01*
X136025097Y-121987075D01*
X136034227Y-121985259D01*
X136266786Y-121939000D01*
X136513214Y-121939000D01*
X136745773Y-121985259D01*
X136745773Y-121985259D01*
G37*
G36*
X151240442Y-121025518D02*
G01*
X151306627Y-121032037D01*
X151476466Y-121083557D01*
X151632991Y-121167222D01*
X151668729Y-121196552D01*
X151770186Y-121279814D01*
X151853448Y-121381271D01*
X151882778Y-121417009D01*
X151966443Y-121573534D01*
X152017963Y-121743373D01*
X152035359Y-121920000D01*
X152017963Y-122096627D01*
X151966443Y-122266466D01*
X151882778Y-122422991D01*
X151853448Y-122458729D01*
X151770186Y-122560186D01*
X151668729Y-122643448D01*
X151632991Y-122672778D01*
X151476466Y-122756443D01*
X151306627Y-122807963D01*
X151240443Y-122814481D01*
X151174260Y-122821000D01*
X151085740Y-122821000D01*
X151019557Y-122814481D01*
X150953373Y-122807963D01*
X150783534Y-122756443D01*
X150627009Y-122672778D01*
X150591271Y-122643448D01*
X150489814Y-122560186D01*
X150406552Y-122458729D01*
X150377222Y-122422991D01*
X150293557Y-122266466D01*
X150242037Y-122096627D01*
X150224641Y-121920000D01*
X150242037Y-121743373D01*
X150293557Y-121573534D01*
X150377222Y-121417009D01*
X150406552Y-121381271D01*
X150489814Y-121279814D01*
X150591271Y-121196552D01*
X150627009Y-121167222D01*
X150783534Y-121083557D01*
X150953373Y-121032037D01*
X151019558Y-121025518D01*
X151085740Y-121019000D01*
X151174260Y-121019000D01*
X151240442Y-121025518D01*
X151240442Y-121025518D01*
G37*
G36*
X167171000Y-122721000D02*
G01*
X165569000Y-122721000D01*
X165569000Y-121119000D01*
X167171000Y-121119000D01*
X167171000Y-122721000D01*
X167171000Y-122721000D01*
G37*
G36*
X61324903Y-119447075D02*
G01*
X61425236Y-119488634D01*
X61552571Y-119541378D01*
X61757466Y-119678285D01*
X61931715Y-119852534D01*
X62068622Y-120057429D01*
X62162925Y-120285097D01*
X62211000Y-120526787D01*
X62211000Y-120773213D01*
X62162925Y-121014903D01*
X62068622Y-121242571D01*
X61931715Y-121447466D01*
X61757466Y-121621715D01*
X61552571Y-121758622D01*
X61552570Y-121758623D01*
X61552569Y-121758623D01*
X61324903Y-121852925D01*
X61083214Y-121901000D01*
X60836786Y-121901000D01*
X60595097Y-121852925D01*
X60367431Y-121758623D01*
X60367430Y-121758623D01*
X60367429Y-121758622D01*
X60162534Y-121621715D01*
X59988285Y-121447466D01*
X59851378Y-121242571D01*
X59757075Y-121014903D01*
X59709000Y-120773213D01*
X59709000Y-120526787D01*
X59757075Y-120285097D01*
X59851378Y-120057429D01*
X59988285Y-119852534D01*
X60162534Y-119678285D01*
X60367429Y-119541378D01*
X60494765Y-119488634D01*
X60595097Y-119447075D01*
X60836786Y-119399000D01*
X61083214Y-119399000D01*
X61324903Y-119447075D01*
X61324903Y-119447075D01*
G37*
G36*
X76445239Y-119417101D02*
G01*
X76681053Y-119488634D01*
X76898381Y-119604799D01*
X77088871Y-119761129D01*
X77245201Y-119951619D01*
X77361366Y-120168947D01*
X77432899Y-120404761D01*
X77457053Y-120650000D01*
X77432899Y-120895239D01*
X77361366Y-121131053D01*
X77245201Y-121348381D01*
X77088871Y-121538871D01*
X76898381Y-121695201D01*
X76681053Y-121811366D01*
X76445239Y-121882899D01*
X76261457Y-121901000D01*
X76138543Y-121901000D01*
X75954761Y-121882899D01*
X75718947Y-121811366D01*
X75501619Y-121695201D01*
X75311129Y-121538871D01*
X75154799Y-121348381D01*
X75038634Y-121131053D01*
X74967101Y-120895239D01*
X74942947Y-120650000D01*
X74967101Y-120404761D01*
X75038634Y-120168947D01*
X75154799Y-119951619D01*
X75311129Y-119761129D01*
X75501619Y-119604799D01*
X75718947Y-119488634D01*
X75954761Y-119417101D01*
X76138543Y-119399000D01*
X76261457Y-119399000D01*
X76445239Y-119417101D01*
X76445239Y-119417101D01*
G37*
G36*
X173084903Y-119447075D02*
G01*
X173185236Y-119488634D01*
X173312571Y-119541378D01*
X173517466Y-119678285D01*
X173691715Y-119852534D01*
X173828622Y-120057429D01*
X173922925Y-120285097D01*
X173971000Y-120526787D01*
X173971000Y-120773213D01*
X173922925Y-121014903D01*
X173828622Y-121242571D01*
X173691715Y-121447466D01*
X173517466Y-121621715D01*
X173312571Y-121758622D01*
X173312570Y-121758623D01*
X173312569Y-121758623D01*
X173084903Y-121852925D01*
X172843214Y-121901000D01*
X172596786Y-121901000D01*
X172355097Y-121852925D01*
X172127431Y-121758623D01*
X172127430Y-121758623D01*
X172127429Y-121758622D01*
X171922534Y-121621715D01*
X171748285Y-121447466D01*
X171611378Y-121242571D01*
X171517075Y-121014903D01*
X171469000Y-120773213D01*
X171469000Y-120526787D01*
X171517075Y-120285097D01*
X171611378Y-120057429D01*
X171748285Y-119852534D01*
X171922534Y-119678285D01*
X172127429Y-119541378D01*
X172254765Y-119488634D01*
X172355097Y-119447075D01*
X172596786Y-119399000D01*
X172843214Y-119399000D01*
X173084903Y-119447075D01*
X173084903Y-119447075D01*
G37*
G36*
X188205239Y-119417101D02*
G01*
X188441053Y-119488634D01*
X188658381Y-119604799D01*
X188848871Y-119761129D01*
X189005201Y-119951619D01*
X189121366Y-120168947D01*
X189192899Y-120404761D01*
X189217053Y-120650000D01*
X189192899Y-120895239D01*
X189121366Y-121131053D01*
X189005201Y-121348381D01*
X188848871Y-121538871D01*
X188658381Y-121695201D01*
X188441053Y-121811366D01*
X188205239Y-121882899D01*
X188021457Y-121901000D01*
X187898543Y-121901000D01*
X187714761Y-121882899D01*
X187478947Y-121811366D01*
X187261619Y-121695201D01*
X187071129Y-121538871D01*
X186914799Y-121348381D01*
X186798634Y-121131053D01*
X186727101Y-120895239D01*
X186702947Y-120650000D01*
X186727101Y-120404761D01*
X186798634Y-120168947D01*
X186914799Y-119951619D01*
X187071129Y-119761129D01*
X187261619Y-119604799D01*
X187478947Y-119488634D01*
X187714761Y-119417101D01*
X187898543Y-119399000D01*
X188021457Y-119399000D01*
X188205239Y-119417101D01*
X188205239Y-119417101D01*
G37*
G36*
X110656823Y-118541313D02*
G01*
X110817242Y-118589976D01*
X110854296Y-118609782D01*
X110965078Y-118668996D01*
X111094659Y-118775341D01*
X111201004Y-118904922D01*
X111201005Y-118904924D01*
X111280024Y-119052758D01*
X111328687Y-119213177D01*
X111345117Y-119380000D01*
X111328687Y-119546823D01*
X111280024Y-119707242D01*
X111239477Y-119783100D01*
X111201004Y-119855078D01*
X111094659Y-119984659D01*
X110965078Y-120091004D01*
X110965076Y-120091005D01*
X110817242Y-120170024D01*
X110656823Y-120218687D01*
X110531804Y-120231000D01*
X110448196Y-120231000D01*
X110323177Y-120218687D01*
X110162758Y-120170024D01*
X110014924Y-120091005D01*
X110014922Y-120091004D01*
X109885341Y-119984659D01*
X109778996Y-119855078D01*
X109740523Y-119783100D01*
X109699976Y-119707242D01*
X109651313Y-119546823D01*
X109634883Y-119380000D01*
X109651313Y-119213177D01*
X109699976Y-119052758D01*
X109778995Y-118904924D01*
X109778996Y-118904922D01*
X109885341Y-118775341D01*
X110014922Y-118668996D01*
X110125704Y-118609782D01*
X110162758Y-118589976D01*
X110323177Y-118541313D01*
X110448196Y-118529000D01*
X110531804Y-118529000D01*
X110656823Y-118541313D01*
X110656823Y-118541313D01*
G37*
G36*
X120898228Y-118561703D02*
G01*
X121053100Y-118625853D01*
X121192481Y-118718985D01*
X121311015Y-118837519D01*
X121404147Y-118976900D01*
X121468297Y-119131772D01*
X121501000Y-119296184D01*
X121501000Y-119463816D01*
X121468297Y-119628228D01*
X121404147Y-119783100D01*
X121311015Y-119922481D01*
X121192481Y-120041015D01*
X121053100Y-120134147D01*
X120898228Y-120198297D01*
X120733816Y-120231000D01*
X120566184Y-120231000D01*
X120401772Y-120198297D01*
X120246900Y-120134147D01*
X120107519Y-120041015D01*
X119988985Y-119922481D01*
X119895853Y-119783100D01*
X119831703Y-119628228D01*
X119799000Y-119463816D01*
X119799000Y-119296184D01*
X119831703Y-119131772D01*
X119895853Y-118976900D01*
X119988985Y-118837519D01*
X120107519Y-118718985D01*
X120246900Y-118625853D01*
X120401772Y-118561703D01*
X120566184Y-118529000D01*
X120733816Y-118529000D01*
X120898228Y-118561703D01*
X120898228Y-118561703D01*
G37*
G36*
X164063642Y-118609781D02*
G01*
X164206599Y-118668996D01*
X164209416Y-118670163D01*
X164340608Y-118757822D01*
X164452178Y-118869392D01*
X164524012Y-118976900D01*
X164539838Y-119000586D01*
X164600219Y-119146358D01*
X164631000Y-119301107D01*
X164631000Y-119458893D01*
X164600219Y-119613642D01*
X164561448Y-119707242D01*
X164539837Y-119759416D01*
X164452178Y-119890608D01*
X164340608Y-120002178D01*
X164209416Y-120089837D01*
X164209415Y-120089838D01*
X164209414Y-120089838D01*
X164063642Y-120150219D01*
X163908893Y-120181000D01*
X163751107Y-120181000D01*
X163596358Y-120150219D01*
X163450586Y-120089838D01*
X163450585Y-120089838D01*
X163450584Y-120089837D01*
X163319392Y-120002178D01*
X163207822Y-119890608D01*
X163120163Y-119759416D01*
X163098552Y-119707242D01*
X163059781Y-119613642D01*
X163029000Y-119458893D01*
X163029000Y-119301107D01*
X163059781Y-119146358D01*
X163120162Y-119000586D01*
X163135988Y-118976900D01*
X163207822Y-118869392D01*
X163319392Y-118757822D01*
X163450584Y-118670163D01*
X163453401Y-118668996D01*
X163596358Y-118609781D01*
X163751107Y-118579000D01*
X163908893Y-118579000D01*
X164063642Y-118609781D01*
X164063642Y-118609781D01*
G37*
G36*
X207291000Y-119661000D02*
G01*
X204189000Y-119661000D01*
X204189000Y-116559000D01*
X207291000Y-116559000D01*
X207291000Y-119661000D01*
X207291000Y-119661000D01*
G37*
G36*
X44752585Y-116588802D02*
G01*
X44902410Y-116618604D01*
X45184674Y-116735521D01*
X45438705Y-116905259D01*
X45654741Y-117121295D01*
X45824479Y-117375326D01*
X45941396Y-117657590D01*
X46001000Y-117957240D01*
X46001000Y-118262760D01*
X45941396Y-118562410D01*
X45824479Y-118844674D01*
X45654741Y-119098705D01*
X45438705Y-119314741D01*
X45184674Y-119484479D01*
X44902410Y-119601396D01*
X44767516Y-119628228D01*
X44602761Y-119661000D01*
X44297239Y-119661000D01*
X44132484Y-119628228D01*
X43997590Y-119601396D01*
X43715326Y-119484479D01*
X43461295Y-119314741D01*
X43245259Y-119098705D01*
X43075521Y-118844674D01*
X42958604Y-118562410D01*
X42899000Y-118262760D01*
X42899000Y-117957240D01*
X42958604Y-117657590D01*
X43075521Y-117375326D01*
X43245259Y-117121295D01*
X43461295Y-116905259D01*
X43715326Y-116735521D01*
X43997590Y-116618604D01*
X44147415Y-116588802D01*
X44297239Y-116559000D01*
X44602761Y-116559000D01*
X44752585Y-116588802D01*
X44752585Y-116588802D01*
G37*
G36*
X99415773Y-116905259D02*
G01*
X99424903Y-116907075D01*
X99652571Y-117001378D01*
X99857466Y-117138285D01*
X100031715Y-117312534D01*
X100078452Y-117382481D01*
X100168623Y-117517431D01*
X100262925Y-117745097D01*
X100311000Y-117986786D01*
X100311000Y-118233214D01*
X100262925Y-118474903D01*
X100226679Y-118562410D01*
X100168622Y-118702571D01*
X100031715Y-118907466D01*
X99857466Y-119081715D01*
X99652571Y-119218622D01*
X99652570Y-119218623D01*
X99652569Y-119218623D01*
X99424903Y-119312925D01*
X99183214Y-119361000D01*
X98936786Y-119361000D01*
X98695097Y-119312925D01*
X98467431Y-119218623D01*
X98467430Y-119218623D01*
X98467429Y-119218622D01*
X98262534Y-119081715D01*
X98088285Y-118907466D01*
X97951378Y-118702571D01*
X97893322Y-118562410D01*
X97857075Y-118474903D01*
X97809000Y-118233214D01*
X97809000Y-117986786D01*
X97857075Y-117745097D01*
X97951377Y-117517431D01*
X98041548Y-117382481D01*
X98088285Y-117312534D01*
X98262534Y-117138285D01*
X98467429Y-117001378D01*
X98695097Y-116907075D01*
X98704227Y-116905259D01*
X98936786Y-116859000D01*
X99183214Y-116859000D01*
X99415773Y-116905259D01*
X99415773Y-116905259D01*
G37*
G36*
X146298228Y-116021703D02*
G01*
X146453100Y-116085853D01*
X146592481Y-116178985D01*
X146711015Y-116297519D01*
X146804147Y-116436900D01*
X146868297Y-116591772D01*
X146901000Y-116756184D01*
X146901000Y-116923816D01*
X146868297Y-117088228D01*
X146804147Y-117243100D01*
X146711015Y-117382481D01*
X146592481Y-117501015D01*
X146453100Y-117594147D01*
X146298228Y-117658297D01*
X146133816Y-117691000D01*
X145966184Y-117691000D01*
X145801772Y-117658297D01*
X145646900Y-117594147D01*
X145507519Y-117501015D01*
X145388985Y-117382481D01*
X145295853Y-117243100D01*
X145231703Y-117088228D01*
X145199000Y-116923816D01*
X145199000Y-116756184D01*
X145231703Y-116591772D01*
X145295853Y-116436900D01*
X145388985Y-116297519D01*
X145507519Y-116178985D01*
X145646900Y-116085853D01*
X145801772Y-116021703D01*
X145966184Y-115989000D01*
X146133816Y-115989000D01*
X146298228Y-116021703D01*
X146298228Y-116021703D01*
G37*
G36*
X166603642Y-116069781D02*
G01*
X166749414Y-116130162D01*
X166749416Y-116130163D01*
X166880608Y-116217822D01*
X166992178Y-116329392D01*
X167064012Y-116436900D01*
X167079838Y-116460586D01*
X167140219Y-116606358D01*
X167171000Y-116761107D01*
X167171000Y-116918893D01*
X167140219Y-117073642D01*
X167079838Y-117219414D01*
X167079837Y-117219416D01*
X166992178Y-117350608D01*
X166880608Y-117462178D01*
X166749416Y-117549837D01*
X166749415Y-117549838D01*
X166749414Y-117549838D01*
X166603642Y-117610219D01*
X166448893Y-117641000D01*
X166291107Y-117641000D01*
X166136358Y-117610219D01*
X165990586Y-117549838D01*
X165990585Y-117549838D01*
X165990584Y-117549837D01*
X165859392Y-117462178D01*
X165747822Y-117350608D01*
X165660163Y-117219416D01*
X165660162Y-117219414D01*
X165599781Y-117073642D01*
X165569000Y-116918893D01*
X165569000Y-116761107D01*
X165599781Y-116606358D01*
X165660162Y-116460586D01*
X165675988Y-116436900D01*
X165747822Y-116329392D01*
X165859392Y-116217822D01*
X165990584Y-116130163D01*
X165990586Y-116130162D01*
X166136358Y-116069781D01*
X166291107Y-116039000D01*
X166448893Y-116039000D01*
X166603642Y-116069781D01*
X166603642Y-116069781D01*
G37*
G36*
X146298228Y-113481703D02*
G01*
X146453100Y-113545853D01*
X146592481Y-113638985D01*
X146711015Y-113757519D01*
X146804147Y-113896900D01*
X146868297Y-114051772D01*
X146901000Y-114216184D01*
X146901000Y-114383816D01*
X146868297Y-114548228D01*
X146804147Y-114703100D01*
X146711015Y-114842481D01*
X146592481Y-114961015D01*
X146453100Y-115054147D01*
X146298228Y-115118297D01*
X146133816Y-115151000D01*
X145966184Y-115151000D01*
X145801772Y-115118297D01*
X145646900Y-115054147D01*
X145507519Y-114961015D01*
X145388985Y-114842481D01*
X145295853Y-114703100D01*
X145231703Y-114548228D01*
X145199000Y-114383816D01*
X145199000Y-114216184D01*
X145231703Y-114051772D01*
X145295853Y-113896900D01*
X145388985Y-113757519D01*
X145507519Y-113638985D01*
X145646900Y-113545853D01*
X145801772Y-113481703D01*
X145966184Y-113449000D01*
X146133816Y-113449000D01*
X146298228Y-113481703D01*
X146298228Y-113481703D01*
G37*
G36*
X167171000Y-115101000D02*
G01*
X165569000Y-115101000D01*
X165569000Y-113499000D01*
X167171000Y-113499000D01*
X167171000Y-115101000D01*
X167171000Y-115101000D01*
G37*
G36*
X206042585Y-111508802D02*
G01*
X206192410Y-111538604D01*
X206474674Y-111655521D01*
X206728705Y-111825259D01*
X206944741Y-112041295D01*
X207114479Y-112295326D01*
X207231396Y-112577590D01*
X207291000Y-112877240D01*
X207291000Y-113182760D01*
X207231396Y-113482410D01*
X207114479Y-113764674D01*
X206944741Y-114018705D01*
X206728705Y-114234741D01*
X206474674Y-114404479D01*
X206192410Y-114521396D01*
X206057516Y-114548228D01*
X205892761Y-114581000D01*
X205587239Y-114581000D01*
X205422484Y-114548228D01*
X205287590Y-114521396D01*
X205005326Y-114404479D01*
X204751295Y-114234741D01*
X204535259Y-114018705D01*
X204365521Y-113764674D01*
X204248604Y-113482410D01*
X204189000Y-113182760D01*
X204189000Y-112877240D01*
X204248604Y-112577590D01*
X204365521Y-112295326D01*
X204535259Y-112041295D01*
X204751295Y-111825259D01*
X205005326Y-111655521D01*
X205287590Y-111538604D01*
X205437415Y-111508802D01*
X205587239Y-111479000D01*
X205892761Y-111479000D01*
X206042585Y-111508802D01*
X206042585Y-111508802D01*
G37*
G36*
X44752585Y-111508802D02*
G01*
X44902410Y-111538604D01*
X45184674Y-111655521D01*
X45438705Y-111825259D01*
X45654741Y-112041295D01*
X45824479Y-112295326D01*
X45941396Y-112577590D01*
X46001000Y-112877240D01*
X46001000Y-113182760D01*
X45941396Y-113482410D01*
X45824479Y-113764674D01*
X45654741Y-114018705D01*
X45438705Y-114234741D01*
X45184674Y-114404479D01*
X44902410Y-114521396D01*
X44767516Y-114548228D01*
X44602761Y-114581000D01*
X44297239Y-114581000D01*
X44132484Y-114548228D01*
X43997590Y-114521396D01*
X43715326Y-114404479D01*
X43461295Y-114234741D01*
X43245259Y-114018705D01*
X43075521Y-113764674D01*
X42958604Y-113482410D01*
X42899000Y-113182760D01*
X42899000Y-112877240D01*
X42958604Y-112577590D01*
X43075521Y-112295326D01*
X43245259Y-112041295D01*
X43461295Y-111825259D01*
X43715326Y-111655521D01*
X43997590Y-111538604D01*
X44147415Y-111508802D01*
X44297239Y-111479000D01*
X44602761Y-111479000D01*
X44752585Y-111508802D01*
X44752585Y-111508802D01*
G37*
G36*
X99415773Y-111825259D02*
G01*
X99424903Y-111827075D01*
X99652571Y-111921378D01*
X99857466Y-112058285D01*
X100031715Y-112232534D01*
X100078452Y-112302481D01*
X100168623Y-112437431D01*
X100262925Y-112665097D01*
X100311000Y-112906786D01*
X100311000Y-113153214D01*
X100262925Y-113394903D01*
X100226679Y-113482410D01*
X100168622Y-113622571D01*
X100031715Y-113827466D01*
X99857466Y-114001715D01*
X99652571Y-114138622D01*
X99652570Y-114138623D01*
X99652569Y-114138623D01*
X99424903Y-114232925D01*
X99183214Y-114281000D01*
X98936786Y-114281000D01*
X98695097Y-114232925D01*
X98467431Y-114138623D01*
X98467430Y-114138623D01*
X98467429Y-114138622D01*
X98262534Y-114001715D01*
X98088285Y-113827466D01*
X97951378Y-113622571D01*
X97893322Y-113482410D01*
X97857075Y-113394903D01*
X97809000Y-113153214D01*
X97809000Y-112906786D01*
X97857075Y-112665097D01*
X97951377Y-112437431D01*
X98041548Y-112302481D01*
X98088285Y-112232534D01*
X98262534Y-112058285D01*
X98467429Y-111921378D01*
X98695097Y-111827075D01*
X98704227Y-111825259D01*
X98936786Y-111779000D01*
X99183214Y-111779000D01*
X99415773Y-111825259D01*
X99415773Y-111825259D01*
G37*
G36*
X120898228Y-110941703D02*
G01*
X121053100Y-111005853D01*
X121192481Y-111098985D01*
X121311015Y-111217519D01*
X121404147Y-111356900D01*
X121468297Y-111511772D01*
X121501000Y-111676184D01*
X121501000Y-111843816D01*
X121468297Y-112008228D01*
X121404147Y-112163100D01*
X121311015Y-112302481D01*
X121192481Y-112421015D01*
X121053100Y-112514147D01*
X120898228Y-112578297D01*
X120733816Y-112611000D01*
X120566184Y-112611000D01*
X120401772Y-112578297D01*
X120246900Y-112514147D01*
X120107519Y-112421015D01*
X119988985Y-112302481D01*
X119895853Y-112163100D01*
X119831703Y-112008228D01*
X119799000Y-111843816D01*
X119799000Y-111676184D01*
X119831703Y-111511772D01*
X119895853Y-111356900D01*
X119988985Y-111217519D01*
X120107519Y-111098985D01*
X120246900Y-111005853D01*
X120401772Y-110941703D01*
X120566184Y-110909000D01*
X120733816Y-110909000D01*
X120898228Y-110941703D01*
X120898228Y-110941703D01*
G37*
G36*
X110656823Y-110921313D02*
G01*
X110817242Y-110969976D01*
X110854296Y-110989782D01*
X110965078Y-111048996D01*
X111094659Y-111155341D01*
X111201004Y-111284922D01*
X111201005Y-111284924D01*
X111280024Y-111432758D01*
X111328687Y-111593177D01*
X111345117Y-111760000D01*
X111328687Y-111926823D01*
X111280024Y-112087242D01*
X111239477Y-112163100D01*
X111201004Y-112235078D01*
X111094659Y-112364659D01*
X110965078Y-112471004D01*
X110965076Y-112471005D01*
X110817242Y-112550024D01*
X110656823Y-112598687D01*
X110531804Y-112611000D01*
X110448196Y-112611000D01*
X110323177Y-112598687D01*
X110162758Y-112550024D01*
X110014924Y-112471005D01*
X110014922Y-112471004D01*
X109885341Y-112364659D01*
X109778996Y-112235078D01*
X109740523Y-112163100D01*
X109699976Y-112087242D01*
X109651313Y-111926823D01*
X109634883Y-111760000D01*
X109651313Y-111593177D01*
X109699976Y-111432758D01*
X109778995Y-111284924D01*
X109778996Y-111284922D01*
X109885341Y-111155341D01*
X110014922Y-111048996D01*
X110125704Y-110989782D01*
X110162758Y-110969976D01*
X110323177Y-110921313D01*
X110448196Y-110909000D01*
X110531804Y-110909000D01*
X110656823Y-110921313D01*
X110656823Y-110921313D01*
G37*
G36*
X164063642Y-110989781D02*
G01*
X164206599Y-111048996D01*
X164209416Y-111050163D01*
X164340608Y-111137822D01*
X164452178Y-111249392D01*
X164538692Y-111378871D01*
X164539838Y-111380586D01*
X164600219Y-111526358D01*
X164631000Y-111681107D01*
X164631000Y-111838893D01*
X164600219Y-111993642D01*
X164561448Y-112087242D01*
X164539837Y-112139416D01*
X164452178Y-112270608D01*
X164340608Y-112382178D01*
X164209416Y-112469837D01*
X164209415Y-112469838D01*
X164209414Y-112469838D01*
X164063642Y-112530219D01*
X163908893Y-112561000D01*
X163751107Y-112561000D01*
X163596358Y-112530219D01*
X163450586Y-112469838D01*
X163450585Y-112469838D01*
X163450584Y-112469837D01*
X163319392Y-112382178D01*
X163207822Y-112270608D01*
X163120163Y-112139416D01*
X163098552Y-112087242D01*
X163059781Y-111993642D01*
X163029000Y-111838893D01*
X163029000Y-111681107D01*
X163059781Y-111526358D01*
X163120162Y-111380586D01*
X163121308Y-111378871D01*
X163207822Y-111249392D01*
X163319392Y-111137822D01*
X163450584Y-111050163D01*
X163453401Y-111048996D01*
X163596358Y-110989781D01*
X163751107Y-110959000D01*
X163908893Y-110959000D01*
X164063642Y-110989781D01*
X164063642Y-110989781D01*
G37*
G36*
X188205239Y-109257101D02*
G01*
X188441053Y-109328634D01*
X188658381Y-109444799D01*
X188848871Y-109601129D01*
X189005201Y-109791619D01*
X189121366Y-110008947D01*
X189192899Y-110244761D01*
X189217053Y-110490000D01*
X189192899Y-110735239D01*
X189121366Y-110971053D01*
X189005201Y-111188381D01*
X188848871Y-111378871D01*
X188658381Y-111535201D01*
X188441053Y-111651366D01*
X188205239Y-111722899D01*
X188021457Y-111741000D01*
X187898543Y-111741000D01*
X187714761Y-111722899D01*
X187478947Y-111651366D01*
X187261619Y-111535201D01*
X187071129Y-111378871D01*
X186914799Y-111188381D01*
X186798634Y-110971053D01*
X186727101Y-110735239D01*
X186702947Y-110490000D01*
X186727101Y-110244761D01*
X186798634Y-110008947D01*
X186914799Y-109791619D01*
X187071129Y-109601129D01*
X187261619Y-109444799D01*
X187478947Y-109328634D01*
X187714761Y-109257101D01*
X187898543Y-109239000D01*
X188021457Y-109239000D01*
X188205239Y-109257101D01*
X188205239Y-109257101D01*
G37*
G36*
X173084903Y-109287075D02*
G01*
X173220433Y-109343213D01*
X173312571Y-109381378D01*
X173517466Y-109518285D01*
X173691715Y-109692534D01*
X173828622Y-109897429D01*
X173922925Y-110125097D01*
X173971000Y-110366787D01*
X173971000Y-110613213D01*
X173922925Y-110854903D01*
X173828622Y-111082571D01*
X173691715Y-111287466D01*
X173517466Y-111461715D01*
X173312571Y-111598622D01*
X173312570Y-111598623D01*
X173312569Y-111598623D01*
X173084903Y-111692925D01*
X172843214Y-111741000D01*
X172596786Y-111741000D01*
X172355097Y-111692925D01*
X172127431Y-111598623D01*
X172127430Y-111598623D01*
X172127429Y-111598622D01*
X171922534Y-111461715D01*
X171748285Y-111287466D01*
X171611378Y-111082571D01*
X171517075Y-110854903D01*
X171469000Y-110613213D01*
X171469000Y-110366787D01*
X171517075Y-110125097D01*
X171611378Y-109897429D01*
X171748285Y-109692534D01*
X171922534Y-109518285D01*
X172127429Y-109381378D01*
X172219568Y-109343213D01*
X172355097Y-109287075D01*
X172596786Y-109239000D01*
X172843214Y-109239000D01*
X173084903Y-109287075D01*
X173084903Y-109287075D01*
G37*
G36*
X76445239Y-107987101D02*
G01*
X76681053Y-108058634D01*
X76898381Y-108174799D01*
X77088871Y-108331129D01*
X77245201Y-108521619D01*
X77361366Y-108738947D01*
X77432899Y-108974761D01*
X77457053Y-109220000D01*
X77432899Y-109465239D01*
X77361366Y-109701053D01*
X77245201Y-109918381D01*
X77088871Y-110108871D01*
X76898381Y-110265201D01*
X76681053Y-110381366D01*
X76445239Y-110452899D01*
X76261457Y-110471000D01*
X76138543Y-110471000D01*
X75954761Y-110452899D01*
X75718947Y-110381366D01*
X75501619Y-110265201D01*
X75311129Y-110108871D01*
X75154799Y-109918381D01*
X75038634Y-109701053D01*
X74967101Y-109465239D01*
X74942947Y-109220000D01*
X74967101Y-108974761D01*
X75038634Y-108738947D01*
X75154799Y-108521619D01*
X75311129Y-108331129D01*
X75501619Y-108174799D01*
X75718947Y-108058634D01*
X75954761Y-107987101D01*
X76138543Y-107969000D01*
X76261457Y-107969000D01*
X76445239Y-107987101D01*
X76445239Y-107987101D01*
G37*
G36*
X128134903Y-108017075D02*
G01*
X128235236Y-108058634D01*
X128362571Y-108111378D01*
X128567466Y-108248285D01*
X128741715Y-108422534D01*
X128878622Y-108627429D01*
X128972925Y-108855097D01*
X129021000Y-109096787D01*
X129021000Y-109343213D01*
X128972925Y-109584903D01*
X128878622Y-109812571D01*
X128741715Y-110017466D01*
X128567466Y-110191715D01*
X128362571Y-110328622D01*
X128362570Y-110328623D01*
X128362569Y-110328623D01*
X128134903Y-110422925D01*
X127893214Y-110471000D01*
X127646786Y-110471000D01*
X127405097Y-110422925D01*
X127177431Y-110328623D01*
X127177430Y-110328623D01*
X127177429Y-110328622D01*
X126972534Y-110191715D01*
X126798285Y-110017466D01*
X126661378Y-109812571D01*
X126567075Y-109584903D01*
X126519000Y-109343213D01*
X126519000Y-109096787D01*
X126567075Y-108855097D01*
X126661378Y-108627429D01*
X126798285Y-108422534D01*
X126972534Y-108248285D01*
X127177429Y-108111378D01*
X127304765Y-108058634D01*
X127405097Y-108017075D01*
X127646786Y-107969000D01*
X127893214Y-107969000D01*
X128134903Y-108017075D01*
X128134903Y-108017075D01*
G37*
G36*
X136754903Y-108017075D02*
G01*
X136855236Y-108058634D01*
X136982571Y-108111378D01*
X137187466Y-108248285D01*
X137361715Y-108422534D01*
X137498622Y-108627429D01*
X137592925Y-108855097D01*
X137641000Y-109096787D01*
X137641000Y-109343213D01*
X137592925Y-109584903D01*
X137498622Y-109812571D01*
X137361715Y-110017466D01*
X137187466Y-110191715D01*
X136982571Y-110328622D01*
X136982570Y-110328623D01*
X136982569Y-110328623D01*
X136754903Y-110422925D01*
X136513214Y-110471000D01*
X136266786Y-110471000D01*
X136025097Y-110422925D01*
X135797431Y-110328623D01*
X135797430Y-110328623D01*
X135797429Y-110328622D01*
X135592534Y-110191715D01*
X135418285Y-110017466D01*
X135281378Y-109812571D01*
X135187075Y-109584903D01*
X135139000Y-109343213D01*
X135139000Y-109096787D01*
X135187075Y-108855097D01*
X135281378Y-108627429D01*
X135418285Y-108422534D01*
X135592534Y-108248285D01*
X135797429Y-108111378D01*
X135924765Y-108058634D01*
X136025097Y-108017075D01*
X136266786Y-107969000D01*
X136513214Y-107969000D01*
X136754903Y-108017075D01*
X136754903Y-108017075D01*
G37*
G36*
X61324903Y-108017075D02*
G01*
X61425236Y-108058634D01*
X61552571Y-108111378D01*
X61757466Y-108248285D01*
X61931715Y-108422534D01*
X62068622Y-108627429D01*
X62162925Y-108855097D01*
X62211000Y-109096787D01*
X62211000Y-109343213D01*
X62162925Y-109584903D01*
X62068622Y-109812571D01*
X61931715Y-110017466D01*
X61757466Y-110191715D01*
X61552571Y-110328622D01*
X61552570Y-110328623D01*
X61552569Y-110328623D01*
X61324903Y-110422925D01*
X61083214Y-110471000D01*
X60836786Y-110471000D01*
X60595097Y-110422925D01*
X60367431Y-110328623D01*
X60367430Y-110328623D01*
X60367429Y-110328622D01*
X60162534Y-110191715D01*
X59988285Y-110017466D01*
X59851378Y-109812571D01*
X59757075Y-109584903D01*
X59709000Y-109343213D01*
X59709000Y-109096787D01*
X59757075Y-108855097D01*
X59851378Y-108627429D01*
X59988285Y-108422534D01*
X60162534Y-108248285D01*
X60367429Y-108111378D01*
X60494765Y-108058634D01*
X60595097Y-108017075D01*
X60836786Y-107969000D01*
X61083214Y-107969000D01*
X61324903Y-108017075D01*
X61324903Y-108017075D01*
G37*
G36*
X152031000Y-110121000D02*
G01*
X150229000Y-110121000D01*
X150229000Y-108319000D01*
X152031000Y-108319000D01*
X152031000Y-110121000D01*
X152031000Y-110121000D01*
G37*
G36*
X166603642Y-108449781D02*
G01*
X166749414Y-108510162D01*
X166749416Y-108510163D01*
X166880608Y-108597822D01*
X166992178Y-108709392D01*
X167079837Y-108840584D01*
X167079838Y-108840586D01*
X167140219Y-108986358D01*
X167171000Y-109141107D01*
X167171000Y-109298893D01*
X167140219Y-109453642D01*
X167079838Y-109599414D01*
X167079837Y-109599416D01*
X166992178Y-109730608D01*
X166880608Y-109842178D01*
X166749416Y-109929837D01*
X166749415Y-109929838D01*
X166749414Y-109929838D01*
X166603642Y-109990219D01*
X166448893Y-110021000D01*
X166291107Y-110021000D01*
X166136358Y-109990219D01*
X165990586Y-109929838D01*
X165990585Y-109929838D01*
X165990584Y-109929837D01*
X165859392Y-109842178D01*
X165747822Y-109730608D01*
X165660163Y-109599416D01*
X165660162Y-109599414D01*
X165599781Y-109453642D01*
X165569000Y-109298893D01*
X165569000Y-109141107D01*
X165599781Y-108986358D01*
X165660162Y-108840586D01*
X165660163Y-108840584D01*
X165747822Y-108709392D01*
X165859392Y-108597822D01*
X165990584Y-108510163D01*
X165990586Y-108510162D01*
X166136358Y-108449781D01*
X166291107Y-108419000D01*
X166448893Y-108419000D01*
X166603642Y-108449781D01*
X166603642Y-108449781D01*
G37*
G36*
X46001000Y-109501000D02*
G01*
X42899000Y-109501000D01*
X42899000Y-106399000D01*
X46001000Y-106399000D01*
X46001000Y-109501000D01*
X46001000Y-109501000D01*
G37*
G36*
X151240443Y-105785519D02*
G01*
X151306627Y-105792037D01*
X151476466Y-105843557D01*
X151632991Y-105927222D01*
X151663768Y-105952480D01*
X151770186Y-106039814D01*
X151853448Y-106141271D01*
X151882778Y-106177009D01*
X151966443Y-106333534D01*
X152017963Y-106503373D01*
X152035359Y-106680000D01*
X152017963Y-106856627D01*
X151966443Y-107026466D01*
X151882778Y-107182991D01*
X151853448Y-107218729D01*
X151770186Y-107320186D01*
X151668729Y-107403448D01*
X151632991Y-107432778D01*
X151476466Y-107516443D01*
X151306627Y-107567963D01*
X151240443Y-107574481D01*
X151174260Y-107581000D01*
X151085740Y-107581000D01*
X151019557Y-107574481D01*
X150953373Y-107567963D01*
X150783534Y-107516443D01*
X150627009Y-107432778D01*
X150591271Y-107403448D01*
X150489814Y-107320186D01*
X150406552Y-107218729D01*
X150377222Y-107182991D01*
X150293557Y-107026466D01*
X150242037Y-106856627D01*
X150224641Y-106680000D01*
X150242037Y-106503373D01*
X150293557Y-106333534D01*
X150377222Y-106177009D01*
X150406552Y-106141271D01*
X150489814Y-106039814D01*
X150596232Y-105952480D01*
X150627009Y-105927222D01*
X150783534Y-105843557D01*
X150953373Y-105792037D01*
X151019557Y-105785519D01*
X151085740Y-105779000D01*
X151174260Y-105779000D01*
X151240443Y-105785519D01*
X151240443Y-105785519D01*
G37*
G36*
X110738228Y-104591703D02*
G01*
X110893100Y-104655853D01*
X111032481Y-104748985D01*
X111151015Y-104867519D01*
X111244147Y-105006900D01*
X111308297Y-105161772D01*
X111341000Y-105326184D01*
X111341000Y-105493816D01*
X111308297Y-105658228D01*
X111244147Y-105813100D01*
X111151015Y-105952481D01*
X111032481Y-106071015D01*
X110893100Y-106164147D01*
X110738228Y-106228297D01*
X110573816Y-106261000D01*
X110406184Y-106261000D01*
X110241772Y-106228297D01*
X110086900Y-106164147D01*
X109947519Y-106071015D01*
X109828985Y-105952481D01*
X109735853Y-105813100D01*
X109671703Y-105658228D01*
X109639000Y-105493816D01*
X109639000Y-105326184D01*
X109671703Y-105161772D01*
X109735853Y-105006900D01*
X109828985Y-104867519D01*
X109947519Y-104748985D01*
X110086900Y-104655853D01*
X110241772Y-104591703D01*
X110406184Y-104559000D01*
X110573816Y-104559000D01*
X110738228Y-104591703D01*
X110738228Y-104591703D01*
G37*
G36*
X120816823Y-104571313D02*
G01*
X120977242Y-104619976D01*
X121044361Y-104655852D01*
X121125078Y-104698996D01*
X121254659Y-104805341D01*
X121361004Y-104934922D01*
X121361005Y-104934924D01*
X121440024Y-105082758D01*
X121488687Y-105243177D01*
X121505117Y-105410000D01*
X121488687Y-105576823D01*
X121440024Y-105737242D01*
X121399477Y-105813100D01*
X121361004Y-105885078D01*
X121254659Y-106014659D01*
X121125078Y-106121004D01*
X121125076Y-106121005D01*
X120977242Y-106200024D01*
X120816823Y-106248687D01*
X120691804Y-106261000D01*
X120608196Y-106261000D01*
X120483177Y-106248687D01*
X120322758Y-106200024D01*
X120174924Y-106121005D01*
X120174922Y-106121004D01*
X120045341Y-106014659D01*
X119938996Y-105885078D01*
X119900523Y-105813100D01*
X119859976Y-105737242D01*
X119811313Y-105576823D01*
X119794883Y-105410000D01*
X119811313Y-105243177D01*
X119859976Y-105082758D01*
X119938995Y-104934924D01*
X119938996Y-104934922D01*
X120045341Y-104805341D01*
X120174922Y-104698996D01*
X120255639Y-104655852D01*
X120322758Y-104619976D01*
X120483177Y-104571313D01*
X120608196Y-104559000D01*
X120691804Y-104559000D01*
X120816823Y-104571313D01*
X120816823Y-104571313D01*
G37*
G36*
X183244903Y-102697075D02*
G01*
X183471920Y-102791108D01*
X183472571Y-102791378D01*
X183677466Y-102928285D01*
X183851715Y-103102534D01*
X183988622Y-103307429D01*
X184082925Y-103535097D01*
X184131000Y-103776787D01*
X184131000Y-104023213D01*
X184082925Y-104264903D01*
X183988622Y-104492571D01*
X183851715Y-104697466D01*
X183677466Y-104871715D01*
X183472571Y-105008622D01*
X183472570Y-105008623D01*
X183472569Y-105008623D01*
X183244903Y-105102925D01*
X183003214Y-105151000D01*
X182756786Y-105151000D01*
X182515097Y-105102925D01*
X182287431Y-105008623D01*
X182287430Y-105008623D01*
X182287429Y-105008622D01*
X182082534Y-104871715D01*
X181908285Y-104697466D01*
X181771378Y-104492571D01*
X181677075Y-104264903D01*
X181629000Y-104023213D01*
X181629000Y-103776787D01*
X181677075Y-103535097D01*
X181771378Y-103307429D01*
X181908285Y-103102534D01*
X182082534Y-102928285D01*
X182287429Y-102791378D01*
X182288081Y-102791108D01*
X182515097Y-102697075D01*
X182756786Y-102649000D01*
X183003214Y-102649000D01*
X183244903Y-102697075D01*
X183244903Y-102697075D01*
G37*
G36*
X151240443Y-103245519D02*
G01*
X151306627Y-103252037D01*
X151476466Y-103303557D01*
X151632991Y-103387222D01*
X151668729Y-103416552D01*
X151770186Y-103499814D01*
X151835858Y-103579837D01*
X151882778Y-103637009D01*
X151882779Y-103637011D01*
X151957492Y-103776787D01*
X151966443Y-103793534D01*
X152017963Y-103963373D01*
X152035359Y-104140000D01*
X152017963Y-104316627D01*
X151966443Y-104486466D01*
X151882778Y-104642991D01*
X151872223Y-104655852D01*
X151770186Y-104780186D01*
X151668729Y-104863448D01*
X151632991Y-104892778D01*
X151476466Y-104976443D01*
X151306627Y-105027963D01*
X151240442Y-105034482D01*
X151174260Y-105041000D01*
X151085740Y-105041000D01*
X151019557Y-105034481D01*
X150953373Y-105027963D01*
X150783534Y-104976443D01*
X150627009Y-104892778D01*
X150591271Y-104863448D01*
X150489814Y-104780186D01*
X150387777Y-104655852D01*
X150377222Y-104642991D01*
X150293557Y-104486466D01*
X150242037Y-104316627D01*
X150224641Y-104140000D01*
X150242037Y-103963373D01*
X150293557Y-103793534D01*
X150302509Y-103776787D01*
X150377221Y-103637011D01*
X150377222Y-103637009D01*
X150424142Y-103579837D01*
X150489814Y-103499814D01*
X150591271Y-103416552D01*
X150627009Y-103387222D01*
X150783534Y-103303557D01*
X150953373Y-103252037D01*
X151019558Y-103245518D01*
X151085740Y-103239000D01*
X151174260Y-103239000D01*
X151240443Y-103245519D01*
X151240443Y-103245519D01*
G37*
G36*
X146216823Y-103301313D02*
G01*
X146377242Y-103349976D01*
X146434550Y-103380608D01*
X146525078Y-103428996D01*
X146654659Y-103535341D01*
X146761004Y-103664922D01*
X146761005Y-103664924D01*
X146840024Y-103812758D01*
X146888687Y-103973177D01*
X146905117Y-104140000D01*
X146888687Y-104306823D01*
X146840024Y-104467242D01*
X146829747Y-104486468D01*
X146761004Y-104615078D01*
X146654659Y-104744659D01*
X146525078Y-104851004D01*
X146525076Y-104851005D01*
X146377242Y-104930024D01*
X146216823Y-104978687D01*
X146091804Y-104991000D01*
X146008196Y-104991000D01*
X145883177Y-104978687D01*
X145722758Y-104930024D01*
X145574924Y-104851005D01*
X145574922Y-104851004D01*
X145445341Y-104744659D01*
X145338996Y-104615078D01*
X145270253Y-104486468D01*
X145259976Y-104467242D01*
X145211313Y-104306823D01*
X145194883Y-104140000D01*
X145211313Y-103973177D01*
X145259976Y-103812758D01*
X145338995Y-103664924D01*
X145338996Y-103664922D01*
X145445341Y-103535341D01*
X145574922Y-103428996D01*
X145665450Y-103380608D01*
X145722758Y-103349976D01*
X145883177Y-103301313D01*
X146008196Y-103289000D01*
X146091804Y-103289000D01*
X146216823Y-103301313D01*
X146216823Y-103301313D01*
G37*
G36*
X207291000Y-104421000D02*
G01*
X204189000Y-104421000D01*
X204189000Y-101319000D01*
X207291000Y-101319000D01*
X207291000Y-104421000D01*
X207291000Y-104421000D01*
G37*
G36*
X176775239Y-101637101D02*
G01*
X177011053Y-101708634D01*
X177228381Y-101824799D01*
X177418871Y-101981129D01*
X177575201Y-102171619D01*
X177691366Y-102388947D01*
X177762899Y-102624761D01*
X177787053Y-102870000D01*
X177762899Y-103115239D01*
X177691366Y-103351053D01*
X177575201Y-103568381D01*
X177418871Y-103758871D01*
X177228381Y-103915201D01*
X177011053Y-104031366D01*
X176775239Y-104102899D01*
X176591457Y-104121000D01*
X176468543Y-104121000D01*
X176284761Y-104102899D01*
X176048947Y-104031366D01*
X175831619Y-103915201D01*
X175641129Y-103758871D01*
X175484799Y-103568381D01*
X175368634Y-103351053D01*
X175297101Y-103115239D01*
X175272947Y-102870000D01*
X175297101Y-102624761D01*
X175368634Y-102388947D01*
X175484799Y-102171619D01*
X175641129Y-101981129D01*
X175831619Y-101824799D01*
X176048947Y-101708634D01*
X176284761Y-101637101D01*
X176468543Y-101619000D01*
X176591457Y-101619000D01*
X176775239Y-101637101D01*
X176775239Y-101637101D01*
G37*
G36*
X161654903Y-101667075D02*
G01*
X161790433Y-101723213D01*
X161882571Y-101761378D01*
X162087466Y-101898285D01*
X162261715Y-102072534D01*
X162398622Y-102277429D01*
X162492925Y-102505097D01*
X162541000Y-102746787D01*
X162541000Y-102993213D01*
X162492925Y-103234903D01*
X162398622Y-103462571D01*
X162261715Y-103667466D01*
X162087466Y-103841715D01*
X161882571Y-103978622D01*
X161882570Y-103978623D01*
X161882569Y-103978623D01*
X161654903Y-104072925D01*
X161413214Y-104121000D01*
X161166786Y-104121000D01*
X160925097Y-104072925D01*
X160697431Y-103978623D01*
X160697430Y-103978623D01*
X160697429Y-103978622D01*
X160492534Y-103841715D01*
X160318285Y-103667466D01*
X160181378Y-103462571D01*
X160087075Y-103234903D01*
X160039000Y-102993213D01*
X160039000Y-102746787D01*
X160087075Y-102505097D01*
X160181378Y-102277429D01*
X160318285Y-102072534D01*
X160492534Y-101898285D01*
X160697429Y-101761378D01*
X160789568Y-101723213D01*
X160925097Y-101667075D01*
X161166786Y-101619000D01*
X161413214Y-101619000D01*
X161654903Y-101667075D01*
X161654903Y-101667075D01*
G37*
G36*
X89133642Y-102099781D02*
G01*
X89236728Y-102142481D01*
X89279416Y-102160163D01*
X89410608Y-102247822D01*
X89522178Y-102359392D01*
X89608692Y-102488871D01*
X89609838Y-102490586D01*
X89670219Y-102636358D01*
X89701000Y-102791107D01*
X89701000Y-102948893D01*
X89670219Y-103103642D01*
X89609838Y-103249414D01*
X89609837Y-103249416D01*
X89522178Y-103380608D01*
X89410608Y-103492178D01*
X89279416Y-103579837D01*
X89279415Y-103579838D01*
X89279414Y-103579838D01*
X89133642Y-103640219D01*
X88978893Y-103671000D01*
X88821107Y-103671000D01*
X88666358Y-103640219D01*
X88520586Y-103579838D01*
X88520585Y-103579838D01*
X88520584Y-103579837D01*
X88389392Y-103492178D01*
X88277822Y-103380608D01*
X88190163Y-103249416D01*
X88190162Y-103249414D01*
X88129781Y-103103642D01*
X88099000Y-102948893D01*
X88099000Y-102791107D01*
X88129781Y-102636358D01*
X88190162Y-102490586D01*
X88191308Y-102488871D01*
X88277822Y-102359392D01*
X88389392Y-102247822D01*
X88520584Y-102160163D01*
X88563272Y-102142481D01*
X88666358Y-102099781D01*
X88821107Y-102069000D01*
X88978893Y-102069000D01*
X89133642Y-102099781D01*
X89133642Y-102099781D01*
G37*
G36*
X82914903Y-100397075D02*
G01*
X83015236Y-100438634D01*
X83142571Y-100491378D01*
X83347466Y-100628285D01*
X83521715Y-100802534D01*
X83658622Y-101007429D01*
X83752925Y-101235097D01*
X83801000Y-101476787D01*
X83801000Y-101723213D01*
X83752925Y-101964903D01*
X83658622Y-102192571D01*
X83521715Y-102397466D01*
X83347466Y-102571715D01*
X83142571Y-102708622D01*
X83142570Y-102708623D01*
X83142569Y-102708623D01*
X82914903Y-102802925D01*
X82673214Y-102851000D01*
X82426786Y-102851000D01*
X82185097Y-102802925D01*
X81957431Y-102708623D01*
X81957430Y-102708623D01*
X81957429Y-102708622D01*
X81752534Y-102571715D01*
X81578285Y-102397466D01*
X81441378Y-102192571D01*
X81347075Y-101964903D01*
X81299000Y-101723213D01*
X81299000Y-101476787D01*
X81347075Y-101235097D01*
X81441378Y-101007429D01*
X81578285Y-100802534D01*
X81752534Y-100628285D01*
X81957429Y-100491378D01*
X82084765Y-100438634D01*
X82185097Y-100397075D01*
X82426786Y-100349000D01*
X82673214Y-100349000D01*
X82914903Y-100397075D01*
X82914903Y-100397075D01*
G37*
G36*
X67555239Y-100367101D02*
G01*
X67791053Y-100438634D01*
X68008381Y-100554799D01*
X68198871Y-100711129D01*
X68355201Y-100901619D01*
X68471366Y-101118947D01*
X68542899Y-101354761D01*
X68567053Y-101600000D01*
X68542899Y-101845239D01*
X68471366Y-102081053D01*
X68355201Y-102298381D01*
X68198871Y-102488871D01*
X68008381Y-102645201D01*
X67791053Y-102761366D01*
X67555239Y-102832899D01*
X67371457Y-102851000D01*
X67248543Y-102851000D01*
X67064761Y-102832899D01*
X66828947Y-102761366D01*
X66611619Y-102645201D01*
X66421129Y-102488871D01*
X66264799Y-102298381D01*
X66148634Y-102081053D01*
X66077101Y-101845239D01*
X66052947Y-101600000D01*
X66077101Y-101354761D01*
X66148634Y-101118947D01*
X66264799Y-100901619D01*
X66421129Y-100711129D01*
X66611619Y-100554799D01*
X66828947Y-100438634D01*
X67064761Y-100367101D01*
X67248543Y-100349000D01*
X67371457Y-100349000D01*
X67555239Y-100367101D01*
X67555239Y-100367101D01*
G37*
G36*
X61266564Y-100589389D02*
G01*
X61457833Y-100668615D01*
X61457835Y-100668616D01*
X61629973Y-100783635D01*
X61776365Y-100930027D01*
X61890084Y-101100219D01*
X61891385Y-101102167D01*
X61970611Y-101293436D01*
X62011000Y-101496484D01*
X62011000Y-101703516D01*
X61970611Y-101906564D01*
X61903328Y-102069000D01*
X61891384Y-102097835D01*
X61776365Y-102269973D01*
X61629973Y-102416365D01*
X61457835Y-102531384D01*
X61457834Y-102531385D01*
X61457833Y-102531385D01*
X61266564Y-102610611D01*
X61063516Y-102651000D01*
X60856484Y-102651000D01*
X60653436Y-102610611D01*
X60462167Y-102531385D01*
X60462166Y-102531385D01*
X60462165Y-102531384D01*
X60290027Y-102416365D01*
X60143635Y-102269973D01*
X60028616Y-102097835D01*
X60016672Y-102069000D01*
X59949389Y-101906564D01*
X59909000Y-101703516D01*
X59909000Y-101496484D01*
X59949389Y-101293436D01*
X60028615Y-101102167D01*
X60029917Y-101100219D01*
X60143635Y-100930027D01*
X60290027Y-100783635D01*
X60462165Y-100668616D01*
X60462167Y-100668615D01*
X60653436Y-100589389D01*
X60856484Y-100549000D01*
X61063516Y-100549000D01*
X61266564Y-100589389D01*
X61266564Y-100589389D01*
G37*
G36*
X53646564Y-100589389D02*
G01*
X53837833Y-100668615D01*
X53837835Y-100668616D01*
X54009973Y-100783635D01*
X54156365Y-100930027D01*
X54270084Y-101100219D01*
X54271385Y-101102167D01*
X54350611Y-101293436D01*
X54391000Y-101496484D01*
X54391000Y-101703516D01*
X54350611Y-101906564D01*
X54283328Y-102069000D01*
X54271384Y-102097835D01*
X54156365Y-102269973D01*
X54009973Y-102416365D01*
X53837835Y-102531384D01*
X53837834Y-102531385D01*
X53837833Y-102531385D01*
X53646564Y-102610611D01*
X53443516Y-102651000D01*
X53236484Y-102651000D01*
X53033436Y-102610611D01*
X52842167Y-102531385D01*
X52842166Y-102531385D01*
X52842165Y-102531384D01*
X52670027Y-102416365D01*
X52523635Y-102269973D01*
X52408616Y-102097835D01*
X52396672Y-102069000D01*
X52329389Y-101906564D01*
X52289000Y-101703516D01*
X52289000Y-101496484D01*
X52329389Y-101293436D01*
X52408615Y-101102167D01*
X52409917Y-101100219D01*
X52523635Y-100930027D01*
X52670027Y-100783635D01*
X52842165Y-100668616D01*
X52842167Y-100668615D01*
X53033436Y-100589389D01*
X53236484Y-100549000D01*
X53443516Y-100549000D01*
X53646564Y-100589389D01*
X53646564Y-100589389D01*
G37*
G36*
X146298228Y-100781703D02*
G01*
X146453100Y-100845853D01*
X146592481Y-100938985D01*
X146711015Y-101057519D01*
X146804147Y-101196900D01*
X146868297Y-101351772D01*
X146901000Y-101516184D01*
X146901000Y-101683816D01*
X146868297Y-101848228D01*
X146804147Y-102003100D01*
X146711015Y-102142481D01*
X146592481Y-102261015D01*
X146453100Y-102354147D01*
X146298228Y-102418297D01*
X146133816Y-102451000D01*
X145966184Y-102451000D01*
X145801772Y-102418297D01*
X145646900Y-102354147D01*
X145507519Y-102261015D01*
X145388985Y-102142481D01*
X145295853Y-102003100D01*
X145231703Y-101848228D01*
X145199000Y-101683816D01*
X145199000Y-101516184D01*
X145231703Y-101351772D01*
X145295853Y-101196900D01*
X145388985Y-101057519D01*
X145507519Y-100938985D01*
X145646900Y-100845853D01*
X145801772Y-100781703D01*
X145966184Y-100749000D01*
X146133816Y-100749000D01*
X146298228Y-100781703D01*
X146298228Y-100781703D01*
G37*
G36*
X91673642Y-99559781D02*
G01*
X91819414Y-99620162D01*
X91819416Y-99620163D01*
X91950608Y-99707822D01*
X92062178Y-99819392D01*
X92149837Y-99950584D01*
X92149838Y-99950586D01*
X92210219Y-100096358D01*
X92241000Y-100251107D01*
X92241000Y-100408893D01*
X92210219Y-100563642D01*
X92166737Y-100668616D01*
X92149837Y-100709416D01*
X92062178Y-100840608D01*
X91950608Y-100952178D01*
X91819416Y-101039837D01*
X91819415Y-101039838D01*
X91819414Y-101039838D01*
X91673642Y-101100219D01*
X91518893Y-101131000D01*
X91361107Y-101131000D01*
X91206358Y-101100219D01*
X91060586Y-101039838D01*
X91060585Y-101039838D01*
X91060584Y-101039837D01*
X90929392Y-100952178D01*
X90817822Y-100840608D01*
X90730163Y-100709416D01*
X90713263Y-100668616D01*
X90669781Y-100563642D01*
X90639000Y-100408893D01*
X90639000Y-100251107D01*
X90669781Y-100096358D01*
X90730162Y-99950586D01*
X90730163Y-99950584D01*
X90817822Y-99819392D01*
X90929392Y-99707822D01*
X91060584Y-99620163D01*
X91060586Y-99620162D01*
X91206358Y-99559781D01*
X91361107Y-99529000D01*
X91518893Y-99529000D01*
X91673642Y-99559781D01*
X91673642Y-99559781D01*
G37*
G36*
X206042585Y-96268802D02*
G01*
X206192410Y-96298604D01*
X206474674Y-96415521D01*
X206728705Y-96585259D01*
X206944741Y-96801295D01*
X207114479Y-97055326D01*
X207231396Y-97337590D01*
X207291000Y-97637240D01*
X207291000Y-97942760D01*
X207231396Y-98242410D01*
X207114479Y-98524674D01*
X206944741Y-98778705D01*
X206728705Y-98994741D01*
X206474674Y-99164479D01*
X206192410Y-99281396D01*
X206042585Y-99311198D01*
X205892761Y-99341000D01*
X205587239Y-99341000D01*
X205437415Y-99311198D01*
X205287590Y-99281396D01*
X205005326Y-99164479D01*
X204751295Y-98994741D01*
X204535259Y-98778705D01*
X204365521Y-98524674D01*
X204248604Y-98242410D01*
X204189000Y-97942760D01*
X204189000Y-97637240D01*
X204248604Y-97337590D01*
X204365521Y-97055326D01*
X204535259Y-96801295D01*
X204751295Y-96585259D01*
X205005326Y-96415521D01*
X205287590Y-96298604D01*
X205437415Y-96268802D01*
X205587239Y-96239000D01*
X205892761Y-96239000D01*
X206042585Y-96268802D01*
X206042585Y-96268802D01*
G37*
G36*
X99424903Y-96827075D02*
G01*
X99574404Y-96889000D01*
X99652571Y-96921378D01*
X99857466Y-97058285D01*
X100031715Y-97232534D01*
X100031716Y-97232536D01*
X100168623Y-97437431D01*
X100174403Y-97451385D01*
X100262925Y-97665097D01*
X100311000Y-97906787D01*
X100311000Y-98153213D01*
X100262925Y-98394903D01*
X100168622Y-98622571D01*
X100031715Y-98827466D01*
X99857466Y-99001715D01*
X99652571Y-99138622D01*
X99652570Y-99138623D01*
X99652569Y-99138623D01*
X99424903Y-99232925D01*
X99183214Y-99281000D01*
X98936786Y-99281000D01*
X98695097Y-99232925D01*
X98467431Y-99138623D01*
X98467430Y-99138623D01*
X98467429Y-99138622D01*
X98262534Y-99001715D01*
X98088285Y-98827466D01*
X97951378Y-98622571D01*
X97857075Y-98394903D01*
X97809000Y-98153213D01*
X97809000Y-97906787D01*
X97857075Y-97665097D01*
X97945597Y-97451385D01*
X97951377Y-97437431D01*
X98088284Y-97232536D01*
X98088285Y-97232534D01*
X98262534Y-97058285D01*
X98467429Y-96921378D01*
X98545597Y-96889000D01*
X98695097Y-96827075D01*
X98936786Y-96779000D01*
X99183214Y-96779000D01*
X99424903Y-96827075D01*
X99424903Y-96827075D01*
G37*
G36*
X152031000Y-98691000D02*
G01*
X150229000Y-98691000D01*
X150229000Y-96889000D01*
X152031000Y-96889000D01*
X152031000Y-98691000D01*
X152031000Y-98691000D01*
G37*
G36*
X89701000Y-98591000D02*
G01*
X88099000Y-98591000D01*
X88099000Y-96989000D01*
X89701000Y-96989000D01*
X89701000Y-98591000D01*
X89701000Y-98591000D01*
G37*
G36*
X118886564Y-95509389D02*
G01*
X119050376Y-95577242D01*
X119077835Y-95588616D01*
X119249973Y-95703635D01*
X119396365Y-95850027D01*
X119499345Y-96004147D01*
X119511385Y-96022167D01*
X119590611Y-96213436D01*
X119631000Y-96416484D01*
X119631000Y-96623516D01*
X119590611Y-96826564D01*
X119523328Y-96989000D01*
X119511384Y-97017835D01*
X119396365Y-97189973D01*
X119249973Y-97336365D01*
X119077835Y-97451384D01*
X119077834Y-97451385D01*
X119077833Y-97451385D01*
X118886564Y-97530611D01*
X118683516Y-97571000D01*
X118476484Y-97571000D01*
X118273436Y-97530611D01*
X118082167Y-97451385D01*
X118082166Y-97451385D01*
X118082165Y-97451384D01*
X117910027Y-97336365D01*
X117763635Y-97189973D01*
X117648616Y-97017835D01*
X117636672Y-96989000D01*
X117569389Y-96826564D01*
X117529000Y-96623516D01*
X117529000Y-96416484D01*
X117569389Y-96213436D01*
X117648615Y-96022167D01*
X117660656Y-96004147D01*
X117763635Y-95850027D01*
X117910027Y-95703635D01*
X118082165Y-95588616D01*
X118109624Y-95577242D01*
X118273436Y-95509389D01*
X118476484Y-95469000D01*
X118683516Y-95469000D01*
X118886564Y-95509389D01*
X118886564Y-95509389D01*
G37*
G36*
X112866564Y-95509389D02*
G01*
X113030376Y-95577242D01*
X113057835Y-95588616D01*
X113229973Y-95703635D01*
X113376365Y-95850027D01*
X113479345Y-96004147D01*
X113491385Y-96022167D01*
X113570611Y-96213436D01*
X113611000Y-96416484D01*
X113611000Y-96623516D01*
X113570611Y-96826564D01*
X113503328Y-96989000D01*
X113491384Y-97017835D01*
X113376365Y-97189973D01*
X113229973Y-97336365D01*
X113057835Y-97451384D01*
X113057834Y-97451385D01*
X113057833Y-97451385D01*
X112866564Y-97530611D01*
X112663516Y-97571000D01*
X112456484Y-97571000D01*
X112253436Y-97530611D01*
X112062167Y-97451385D01*
X112062166Y-97451385D01*
X112062165Y-97451384D01*
X111890027Y-97336365D01*
X111743635Y-97189973D01*
X111628616Y-97017835D01*
X111616672Y-96989000D01*
X111549389Y-96826564D01*
X111509000Y-96623516D01*
X111509000Y-96416484D01*
X111549389Y-96213436D01*
X111628615Y-96022167D01*
X111640656Y-96004147D01*
X111743635Y-95850027D01*
X111890027Y-95703635D01*
X112062165Y-95588616D01*
X112089624Y-95577242D01*
X112253436Y-95509389D01*
X112456484Y-95469000D01*
X112663516Y-95469000D01*
X112866564Y-95509389D01*
X112866564Y-95509389D01*
G37*
G36*
X135396564Y-95509389D02*
G01*
X135560376Y-95577242D01*
X135587835Y-95588616D01*
X135759973Y-95703635D01*
X135906365Y-95850027D01*
X136009345Y-96004147D01*
X136021385Y-96022167D01*
X136100611Y-96213436D01*
X136141000Y-96416484D01*
X136141000Y-96623516D01*
X136100611Y-96826564D01*
X136033328Y-96989000D01*
X136021384Y-97017835D01*
X135906365Y-97189973D01*
X135759973Y-97336365D01*
X135587835Y-97451384D01*
X135587834Y-97451385D01*
X135587833Y-97451385D01*
X135396564Y-97530611D01*
X135193516Y-97571000D01*
X134986484Y-97571000D01*
X134783436Y-97530611D01*
X134592167Y-97451385D01*
X134592166Y-97451385D01*
X134592165Y-97451384D01*
X134420027Y-97336365D01*
X134273635Y-97189973D01*
X134158616Y-97017835D01*
X134146672Y-96989000D01*
X134079389Y-96826564D01*
X134039000Y-96623516D01*
X134039000Y-96416484D01*
X134079389Y-96213436D01*
X134158615Y-96022167D01*
X134170656Y-96004147D01*
X134273635Y-95850027D01*
X134420027Y-95703635D01*
X134592165Y-95588616D01*
X134619624Y-95577242D01*
X134783436Y-95509389D01*
X134986484Y-95469000D01*
X135193516Y-95469000D01*
X135396564Y-95509389D01*
X135396564Y-95509389D01*
G37*
G36*
X129376564Y-95509389D02*
G01*
X129540376Y-95577242D01*
X129567835Y-95588616D01*
X129739973Y-95703635D01*
X129886365Y-95850027D01*
X129989345Y-96004147D01*
X130001385Y-96022167D01*
X130080611Y-96213436D01*
X130121000Y-96416484D01*
X130121000Y-96623516D01*
X130080611Y-96826564D01*
X130013328Y-96989000D01*
X130001384Y-97017835D01*
X129886365Y-97189973D01*
X129739973Y-97336365D01*
X129567835Y-97451384D01*
X129567834Y-97451385D01*
X129567833Y-97451385D01*
X129376564Y-97530611D01*
X129173516Y-97571000D01*
X128966484Y-97571000D01*
X128763436Y-97530611D01*
X128572167Y-97451385D01*
X128572166Y-97451385D01*
X128572165Y-97451384D01*
X128400027Y-97336365D01*
X128253635Y-97189973D01*
X128138616Y-97017835D01*
X128126672Y-96989000D01*
X128059389Y-96826564D01*
X128019000Y-96623516D01*
X128019000Y-96416484D01*
X128059389Y-96213436D01*
X128138615Y-96022167D01*
X128150656Y-96004147D01*
X128253635Y-95850027D01*
X128400027Y-95703635D01*
X128572165Y-95588616D01*
X128599624Y-95577242D01*
X128763436Y-95509389D01*
X128966484Y-95469000D01*
X129173516Y-95469000D01*
X129376564Y-95509389D01*
X129376564Y-95509389D01*
G37*
G36*
X151240442Y-94355518D02*
G01*
X151306627Y-94362037D01*
X151476466Y-94413557D01*
X151632991Y-94497222D01*
X151668729Y-94526552D01*
X151770186Y-94609814D01*
X151850369Y-94707519D01*
X151882778Y-94747009D01*
X151966443Y-94903534D01*
X152017963Y-95073373D01*
X152035359Y-95250000D01*
X152017963Y-95426627D01*
X151966443Y-95596466D01*
X151882778Y-95752991D01*
X151853448Y-95788729D01*
X151770186Y-95890186D01*
X151668729Y-95973448D01*
X151632991Y-96002778D01*
X151476466Y-96086443D01*
X151306627Y-96137963D01*
X151240443Y-96144481D01*
X151174260Y-96151000D01*
X151085740Y-96151000D01*
X151019558Y-96144482D01*
X150953373Y-96137963D01*
X150783534Y-96086443D01*
X150627009Y-96002778D01*
X150591271Y-95973448D01*
X150489814Y-95890186D01*
X150406552Y-95788729D01*
X150377222Y-95752991D01*
X150293557Y-95596466D01*
X150242037Y-95426627D01*
X150224641Y-95250000D01*
X150242037Y-95073373D01*
X150293557Y-94903534D01*
X150377222Y-94747009D01*
X150409631Y-94707519D01*
X150489814Y-94609814D01*
X150591271Y-94526552D01*
X150627009Y-94497222D01*
X150783534Y-94413557D01*
X150953373Y-94362037D01*
X151019557Y-94355519D01*
X151085740Y-94349000D01*
X151174260Y-94349000D01*
X151240442Y-94355518D01*
X151240442Y-94355518D01*
G37*
G36*
X172886823Y-94411313D02*
G01*
X173047242Y-94459976D01*
X173114361Y-94495852D01*
X173195078Y-94538996D01*
X173324659Y-94645341D01*
X173431004Y-94774922D01*
X173431005Y-94774924D01*
X173510024Y-94922758D01*
X173558687Y-95083177D01*
X173575117Y-95250000D01*
X173558687Y-95416823D01*
X173510024Y-95577242D01*
X173469477Y-95653100D01*
X173431004Y-95725078D01*
X173324659Y-95854659D01*
X173195078Y-95961004D01*
X173195076Y-95961005D01*
X173047242Y-96040024D01*
X172886823Y-96088687D01*
X172761804Y-96101000D01*
X172678196Y-96101000D01*
X172553177Y-96088687D01*
X172392758Y-96040024D01*
X172244924Y-95961005D01*
X172244922Y-95961004D01*
X172115341Y-95854659D01*
X172008996Y-95725078D01*
X171970523Y-95653100D01*
X171929976Y-95577242D01*
X171881313Y-95416823D01*
X171864883Y-95250000D01*
X171881313Y-95083177D01*
X171929976Y-94922758D01*
X172008995Y-94774924D01*
X172008996Y-94774922D01*
X172115341Y-94645341D01*
X172244922Y-94538996D01*
X172325639Y-94495852D01*
X172392758Y-94459976D01*
X172553177Y-94411313D01*
X172678196Y-94399000D01*
X172761804Y-94399000D01*
X172886823Y-94411313D01*
X172886823Y-94411313D01*
G37*
G36*
X162808228Y-94431703D02*
G01*
X162963100Y-94495853D01*
X163102481Y-94588985D01*
X163221015Y-94707519D01*
X163314147Y-94846900D01*
X163378297Y-95001772D01*
X163411000Y-95166184D01*
X163411000Y-95333816D01*
X163378297Y-95498228D01*
X163314147Y-95653100D01*
X163221015Y-95792481D01*
X163102481Y-95911015D01*
X162963100Y-96004147D01*
X162808228Y-96068297D01*
X162643816Y-96101000D01*
X162476184Y-96101000D01*
X162311772Y-96068297D01*
X162156900Y-96004147D01*
X162017519Y-95911015D01*
X161898985Y-95792481D01*
X161805853Y-95653100D01*
X161741703Y-95498228D01*
X161709000Y-95333816D01*
X161709000Y-95166184D01*
X161741703Y-95001772D01*
X161805853Y-94846900D01*
X161898985Y-94707519D01*
X162017519Y-94588985D01*
X162156900Y-94495853D01*
X162311772Y-94431703D01*
X162476184Y-94399000D01*
X162643816Y-94399000D01*
X162808228Y-94431703D01*
X162808228Y-94431703D01*
G37*
G36*
X206042585Y-91188802D02*
G01*
X206192410Y-91218604D01*
X206474674Y-91335521D01*
X206728705Y-91505259D01*
X206944741Y-91721295D01*
X207114479Y-91975326D01*
X207231396Y-92257590D01*
X207291000Y-92557240D01*
X207291000Y-92862760D01*
X207231396Y-93162410D01*
X207114479Y-93444674D01*
X206944741Y-93698705D01*
X206728705Y-93914741D01*
X206474674Y-94084479D01*
X206192410Y-94201396D01*
X206042585Y-94231198D01*
X205892761Y-94261000D01*
X205587239Y-94261000D01*
X205437415Y-94231198D01*
X205287590Y-94201396D01*
X205005326Y-94084479D01*
X204751295Y-93914741D01*
X204535259Y-93698705D01*
X204365521Y-93444674D01*
X204248604Y-93162410D01*
X204189000Y-92862760D01*
X204189000Y-92557240D01*
X204248604Y-92257590D01*
X204365521Y-91975326D01*
X204535259Y-91721295D01*
X204751295Y-91505259D01*
X205005326Y-91335521D01*
X205287590Y-91218604D01*
X205437415Y-91188802D01*
X205587239Y-91159000D01*
X205892761Y-91159000D01*
X206042585Y-91188802D01*
X206042585Y-91188802D01*
G37*
G36*
X53704903Y-91507075D02*
G01*
X53805236Y-91548634D01*
X53932571Y-91601378D01*
X54137466Y-91738285D01*
X54311715Y-91912534D01*
X54416807Y-92069815D01*
X54448623Y-92117431D01*
X54542925Y-92345097D01*
X54591000Y-92586786D01*
X54591000Y-92833214D01*
X54542925Y-93074903D01*
X54506679Y-93162410D01*
X54448622Y-93302571D01*
X54311715Y-93507466D01*
X54137466Y-93681715D01*
X53932571Y-93818622D01*
X53932570Y-93818623D01*
X53932569Y-93818623D01*
X53704903Y-93912925D01*
X53463214Y-93961000D01*
X53216786Y-93961000D01*
X52975097Y-93912925D01*
X52747431Y-93818623D01*
X52747430Y-93818623D01*
X52747429Y-93818622D01*
X52542534Y-93681715D01*
X52368285Y-93507466D01*
X52231378Y-93302571D01*
X52173322Y-93162410D01*
X52137075Y-93074903D01*
X52089000Y-92833214D01*
X52089000Y-92586786D01*
X52137075Y-92345097D01*
X52231377Y-92117431D01*
X52263193Y-92069815D01*
X52368285Y-91912534D01*
X52542534Y-91738285D01*
X52747429Y-91601378D01*
X52874765Y-91548634D01*
X52975097Y-91507075D01*
X53216786Y-91459000D01*
X53463214Y-91459000D01*
X53704903Y-91507075D01*
X53704903Y-91507075D01*
G37*
G36*
X68825239Y-91477101D02*
G01*
X69061053Y-91548634D01*
X69278381Y-91664799D01*
X69468871Y-91821129D01*
X69625201Y-92011619D01*
X69741366Y-92228947D01*
X69812899Y-92464761D01*
X69837053Y-92710000D01*
X69812899Y-92955239D01*
X69741366Y-93191053D01*
X69625201Y-93408381D01*
X69468871Y-93598871D01*
X69278381Y-93755201D01*
X69061053Y-93871366D01*
X68825239Y-93942899D01*
X68641457Y-93961000D01*
X68518543Y-93961000D01*
X68334761Y-93942899D01*
X68098947Y-93871366D01*
X67881619Y-93755201D01*
X67691129Y-93598871D01*
X67534799Y-93408381D01*
X67418634Y-93191053D01*
X67347101Y-92955239D01*
X67322947Y-92710000D01*
X67347101Y-92464761D01*
X67418634Y-92228947D01*
X67534799Y-92011619D01*
X67691129Y-91821129D01*
X67881619Y-91664799D01*
X68098947Y-91548634D01*
X68334761Y-91477101D01*
X68518543Y-91459000D01*
X68641457Y-91459000D01*
X68825239Y-91477101D01*
X68825239Y-91477101D01*
G37*
G36*
X89264903Y-91507075D02*
G01*
X89365236Y-91548634D01*
X89492571Y-91601378D01*
X89697466Y-91738285D01*
X89871715Y-91912534D01*
X89976807Y-92069815D01*
X90008623Y-92117431D01*
X90102925Y-92345097D01*
X90151000Y-92586786D01*
X90151000Y-92833214D01*
X90102925Y-93074903D01*
X90066679Y-93162410D01*
X90008622Y-93302571D01*
X89871715Y-93507466D01*
X89697466Y-93681715D01*
X89492571Y-93818622D01*
X89492570Y-93818623D01*
X89492569Y-93818623D01*
X89264903Y-93912925D01*
X89023214Y-93961000D01*
X88776786Y-93961000D01*
X88535097Y-93912925D01*
X88307431Y-93818623D01*
X88307430Y-93818623D01*
X88307429Y-93818622D01*
X88102534Y-93681715D01*
X87928285Y-93507466D01*
X87791378Y-93302571D01*
X87733322Y-93162410D01*
X87697075Y-93074903D01*
X87649000Y-92833214D01*
X87649000Y-92586786D01*
X87697075Y-92345097D01*
X87791377Y-92117431D01*
X87823193Y-92069815D01*
X87928285Y-91912534D01*
X88102534Y-91738285D01*
X88307429Y-91601378D01*
X88434765Y-91548634D01*
X88535097Y-91507075D01*
X88776786Y-91459000D01*
X89023214Y-91459000D01*
X89264903Y-91507075D01*
X89264903Y-91507075D01*
G37*
G36*
X73905239Y-91477101D02*
G01*
X74141053Y-91548634D01*
X74358381Y-91664799D01*
X74548871Y-91821129D01*
X74705201Y-92011619D01*
X74821366Y-92228947D01*
X74892899Y-92464761D01*
X74917053Y-92710000D01*
X74892899Y-92955239D01*
X74821366Y-93191053D01*
X74705201Y-93408381D01*
X74548871Y-93598871D01*
X74358381Y-93755201D01*
X74141053Y-93871366D01*
X73905239Y-93942899D01*
X73721457Y-93961000D01*
X73598543Y-93961000D01*
X73414761Y-93942899D01*
X73178947Y-93871366D01*
X72961619Y-93755201D01*
X72771129Y-93598871D01*
X72614799Y-93408381D01*
X72498634Y-93191053D01*
X72427101Y-92955239D01*
X72402947Y-92710000D01*
X72427101Y-92464761D01*
X72498634Y-92228947D01*
X72614799Y-92011619D01*
X72771129Y-91821129D01*
X72961619Y-91664799D01*
X73178947Y-91548634D01*
X73414761Y-91477101D01*
X73598543Y-91459000D01*
X73721457Y-91459000D01*
X73905239Y-91477101D01*
X73905239Y-91477101D01*
G37*
G36*
X151240442Y-91815518D02*
G01*
X151306627Y-91822037D01*
X151476466Y-91873557D01*
X151632991Y-91957222D01*
X151655053Y-91975328D01*
X151770186Y-92069814D01*
X151853448Y-92171271D01*
X151882778Y-92207009D01*
X151966443Y-92363534D01*
X152017963Y-92533373D01*
X152035359Y-92710000D01*
X152017963Y-92886627D01*
X151966443Y-93056466D01*
X151882778Y-93212991D01*
X151853448Y-93248729D01*
X151770186Y-93350186D01*
X151668729Y-93433448D01*
X151632991Y-93462778D01*
X151476466Y-93546443D01*
X151306627Y-93597963D01*
X151240442Y-93604482D01*
X151174260Y-93611000D01*
X151085740Y-93611000D01*
X151019557Y-93604481D01*
X150953373Y-93597963D01*
X150783534Y-93546443D01*
X150627009Y-93462778D01*
X150591271Y-93433448D01*
X150489814Y-93350186D01*
X150406552Y-93248729D01*
X150377222Y-93212991D01*
X150293557Y-93056466D01*
X150242037Y-92886627D01*
X150224641Y-92710000D01*
X150242037Y-92533373D01*
X150293557Y-92363534D01*
X150377222Y-92207009D01*
X150406552Y-92171271D01*
X150489814Y-92069814D01*
X150604947Y-91975328D01*
X150627009Y-91957222D01*
X150783534Y-91873557D01*
X150953373Y-91822037D01*
X151019558Y-91815518D01*
X151085740Y-91809000D01*
X151174260Y-91809000D01*
X151240442Y-91815518D01*
X151240442Y-91815518D01*
G37*
G36*
X146216823Y-90601313D02*
G01*
X146377242Y-90649976D01*
X146509906Y-90720886D01*
X146525078Y-90728996D01*
X146654659Y-90835341D01*
X146761004Y-90964922D01*
X146761005Y-90964924D01*
X146840024Y-91112758D01*
X146888687Y-91273177D01*
X146905117Y-91440000D01*
X146888687Y-91606823D01*
X146840024Y-91767242D01*
X146811220Y-91821130D01*
X146761004Y-91915078D01*
X146654659Y-92044659D01*
X146525078Y-92151004D01*
X146525076Y-92151005D01*
X146377242Y-92230024D01*
X146216823Y-92278687D01*
X146091804Y-92291000D01*
X146008196Y-92291000D01*
X145883177Y-92278687D01*
X145722758Y-92230024D01*
X145574924Y-92151005D01*
X145574922Y-92151004D01*
X145445341Y-92044659D01*
X145338996Y-91915078D01*
X145288780Y-91821130D01*
X145259976Y-91767242D01*
X145211313Y-91606823D01*
X145194883Y-91440000D01*
X145211313Y-91273177D01*
X145259976Y-91112758D01*
X145338995Y-90964924D01*
X145338996Y-90964922D01*
X145445341Y-90835341D01*
X145574922Y-90728996D01*
X145590094Y-90720886D01*
X145722758Y-90649976D01*
X145883177Y-90601313D01*
X146008196Y-90589000D01*
X146091804Y-90589000D01*
X146216823Y-90601313D01*
X146216823Y-90601313D01*
G37*
G36*
X183244903Y-87697075D02*
G01*
X183380433Y-87753213D01*
X183472571Y-87791378D01*
X183677466Y-87928285D01*
X183851715Y-88102534D01*
X183909487Y-88188996D01*
X183988623Y-88307431D01*
X184082925Y-88535097D01*
X184131000Y-88776786D01*
X184131000Y-89023214D01*
X184122325Y-89066825D01*
X184082925Y-89264903D01*
X183988622Y-89492571D01*
X183851715Y-89697466D01*
X183677466Y-89871715D01*
X183472571Y-90008622D01*
X183472570Y-90008623D01*
X183472569Y-90008623D01*
X183244903Y-90102925D01*
X183003214Y-90151000D01*
X182756786Y-90151000D01*
X182515097Y-90102925D01*
X182287431Y-90008623D01*
X182287430Y-90008623D01*
X182287429Y-90008622D01*
X182082534Y-89871715D01*
X181908285Y-89697466D01*
X181771378Y-89492571D01*
X181677075Y-89264903D01*
X181637675Y-89066825D01*
X181629000Y-89023214D01*
X181629000Y-88776786D01*
X181677075Y-88535097D01*
X181771377Y-88307431D01*
X181850513Y-88188996D01*
X181908285Y-88102534D01*
X182082534Y-87928285D01*
X182287429Y-87791378D01*
X182379568Y-87753213D01*
X182515097Y-87697075D01*
X182756786Y-87649000D01*
X183003214Y-87649000D01*
X183244903Y-87697075D01*
X183244903Y-87697075D01*
G37*
G36*
X172968228Y-88081703D02*
G01*
X173123100Y-88145853D01*
X173262481Y-88238985D01*
X173381015Y-88357519D01*
X173474147Y-88496900D01*
X173538297Y-88651772D01*
X173571000Y-88816184D01*
X173571000Y-88983816D01*
X173538297Y-89148228D01*
X173474147Y-89303100D01*
X173381015Y-89442481D01*
X173262481Y-89561015D01*
X173123100Y-89654147D01*
X172968228Y-89718297D01*
X172803816Y-89751000D01*
X172636184Y-89751000D01*
X172471772Y-89718297D01*
X172316900Y-89654147D01*
X172177519Y-89561015D01*
X172058985Y-89442481D01*
X171965853Y-89303100D01*
X171901703Y-89148228D01*
X171869000Y-88983816D01*
X171869000Y-88816184D01*
X171901703Y-88651772D01*
X171965853Y-88496900D01*
X172058985Y-88357519D01*
X172177519Y-88238985D01*
X172316900Y-88145853D01*
X172471772Y-88081703D01*
X172636184Y-88049000D01*
X172803816Y-88049000D01*
X172968228Y-88081703D01*
X172968228Y-88081703D01*
G37*
G36*
X162726823Y-88061313D02*
G01*
X162887242Y-88109976D01*
X162954361Y-88145852D01*
X163035078Y-88188996D01*
X163164659Y-88295341D01*
X163271004Y-88424922D01*
X163271005Y-88424924D01*
X163350024Y-88572758D01*
X163398687Y-88733177D01*
X163415117Y-88900000D01*
X163398687Y-89066823D01*
X163350024Y-89227242D01*
X163309477Y-89303100D01*
X163271004Y-89375078D01*
X163164659Y-89504659D01*
X163035078Y-89611004D01*
X163035076Y-89611005D01*
X162887242Y-89690024D01*
X162726823Y-89738687D01*
X162601804Y-89751000D01*
X162518196Y-89751000D01*
X162393177Y-89738687D01*
X162232758Y-89690024D01*
X162084924Y-89611005D01*
X162084922Y-89611004D01*
X161955341Y-89504659D01*
X161848996Y-89375078D01*
X161810523Y-89303100D01*
X161769976Y-89227242D01*
X161721313Y-89066823D01*
X161704883Y-88900000D01*
X161721313Y-88733177D01*
X161769976Y-88572758D01*
X161848995Y-88424924D01*
X161848996Y-88424922D01*
X161955341Y-88295341D01*
X162084922Y-88188996D01*
X162165639Y-88145852D01*
X162232758Y-88109976D01*
X162393177Y-88061313D01*
X162518196Y-88049000D01*
X162601804Y-88049000D01*
X162726823Y-88061313D01*
X162726823Y-88061313D01*
G37*
G36*
X101964903Y-86427075D02*
G01*
X102065236Y-86468634D01*
X102192571Y-86521378D01*
X102397466Y-86658285D01*
X102571715Y-86832534D01*
X102708622Y-87037429D01*
X102802925Y-87265097D01*
X102851000Y-87506787D01*
X102851000Y-87753213D01*
X102802925Y-87994903D01*
X102708622Y-88222571D01*
X102571715Y-88427466D01*
X102397466Y-88601715D01*
X102192571Y-88738622D01*
X102192570Y-88738623D01*
X102192569Y-88738623D01*
X101964903Y-88832925D01*
X101723214Y-88881000D01*
X101476786Y-88881000D01*
X101235097Y-88832925D01*
X101007431Y-88738623D01*
X101007430Y-88738623D01*
X101007429Y-88738622D01*
X100802534Y-88601715D01*
X100628285Y-88427466D01*
X100491378Y-88222571D01*
X100397075Y-87994903D01*
X100349000Y-87753213D01*
X100349000Y-87506787D01*
X100397075Y-87265097D01*
X100491378Y-87037429D01*
X100628285Y-86832534D01*
X100802534Y-86658285D01*
X101007429Y-86521378D01*
X101134765Y-86468634D01*
X101235097Y-86427075D01*
X101476786Y-86379000D01*
X101723214Y-86379000D01*
X101964903Y-86427075D01*
X101964903Y-86427075D01*
G37*
G36*
X86605239Y-86397101D02*
G01*
X86841053Y-86468634D01*
X87058381Y-86584799D01*
X87248871Y-86741129D01*
X87405201Y-86931619D01*
X87521366Y-87148947D01*
X87592899Y-87384761D01*
X87617053Y-87630000D01*
X87592899Y-87875239D01*
X87521366Y-88111053D01*
X87405201Y-88328381D01*
X87248871Y-88518871D01*
X87058381Y-88675201D01*
X86841053Y-88791366D01*
X86605239Y-88862899D01*
X86421457Y-88881000D01*
X86298543Y-88881000D01*
X86114761Y-88862899D01*
X85878947Y-88791366D01*
X85661619Y-88675201D01*
X85471129Y-88518871D01*
X85314799Y-88328381D01*
X85198634Y-88111053D01*
X85127101Y-87875239D01*
X85102947Y-87630000D01*
X85127101Y-87384761D01*
X85198634Y-87148947D01*
X85314799Y-86931619D01*
X85471129Y-86741129D01*
X85661619Y-86584799D01*
X85878947Y-86468634D01*
X86114761Y-86397101D01*
X86298543Y-86379000D01*
X86421457Y-86379000D01*
X86605239Y-86397101D01*
X86605239Y-86397101D01*
G37*
G36*
X45084239Y-80631467D02*
G01*
X45398282Y-80693934D01*
X45989926Y-80939001D01*
X46522392Y-81294784D01*
X46975216Y-81747608D01*
X47330999Y-82280074D01*
X47576066Y-82871718D01*
X47701000Y-83499804D01*
X47701000Y-84140196D01*
X47576066Y-84768282D01*
X47330999Y-85359926D01*
X46975216Y-85892392D01*
X46522392Y-86345216D01*
X45989926Y-86700999D01*
X45398282Y-86946066D01*
X45084239Y-87008533D01*
X44770197Y-87071000D01*
X44129803Y-87071000D01*
X43815761Y-87008533D01*
X43501718Y-86946066D01*
X42910074Y-86700999D01*
X42377608Y-86345216D01*
X41924784Y-85892392D01*
X41569001Y-85359926D01*
X41323934Y-84768282D01*
X41199000Y-84140196D01*
X41199000Y-83499804D01*
X41323934Y-82871718D01*
X41569001Y-82280074D01*
X41924784Y-81747608D01*
X42377608Y-81294784D01*
X42910074Y-80939001D01*
X43501718Y-80693934D01*
X43815761Y-80631467D01*
X44129803Y-80569000D01*
X44770197Y-80569000D01*
X45084239Y-80631467D01*
X45084239Y-80631467D01*
G37*
G36*
X206374239Y-80631467D02*
G01*
X206688282Y-80693934D01*
X207279926Y-80939001D01*
X207812392Y-81294784D01*
X208265216Y-81747608D01*
X208620999Y-82280074D01*
X208866066Y-82871718D01*
X208991000Y-83499804D01*
X208991000Y-84140196D01*
X208866066Y-84768282D01*
X208620999Y-85359926D01*
X208265216Y-85892392D01*
X207812392Y-86345216D01*
X207279926Y-86700999D01*
X206688282Y-86946066D01*
X206374239Y-87008533D01*
X206060197Y-87071000D01*
X205419803Y-87071000D01*
X205105761Y-87008533D01*
X204791718Y-86946066D01*
X204200074Y-86700999D01*
X203667608Y-86345216D01*
X203214784Y-85892392D01*
X202859001Y-85359926D01*
X202613934Y-84768282D01*
X202489000Y-84140196D01*
X202489000Y-83499804D01*
X202613934Y-82871718D01*
X202859001Y-82280074D01*
X203214784Y-81747608D01*
X203667608Y-81294784D01*
X204200074Y-80939001D01*
X204791718Y-80693934D01*
X205105761Y-80631467D01*
X205419803Y-80569000D01*
X206060197Y-80569000D01*
X206374239Y-80631467D01*
X206374239Y-80631467D01*
G37*
M02*
